<?xml version="1.0" encoding="utf-8"?>
<!-- Generator: Adobe Illustrator 26.0.3, SVG Export Plug-In . SVG Version: 6.00 Build 0)  -->
<svg version="1.1" id="Слой_1" xmlns="http://www.w3.org/2000/svg" xmlns:xlink="http://www.w3.org/1999/xlink" x="0px" y="0px"
	 viewBox="0 0 1080 1080" style="enable-background:new 0 0 1080 1080;" xml:space="preserve">
<style type="text/css">
	.st0{fill:url(#SVGID_1_);}
	.st1{fill:#FF7B22;}
	.st2{fill:#FF761A;}
	.st3{fill:#934200;}
	.st4{fill:#FFD7A6;}
	.st5{fill:#FF4D1D;}
	.st6{fill:#661300;}
	.st7{fill:#FFEDD9;}
	.st8{fill:#FFB380;}
	.st9{fill:none;}
	.st10{fill:url(#SVGID_00000070087964664273871790000004117685593266121388_);}
	.st11{fill:url(#SVGID_00000097465556229719070690000008533228415069572740_);}
	.st12{fill:url(#SVGID_00000163071487599922901530000007173040197441563294_);}
	.st13{fill:url(#SVGID_00000087389137210413670560000013021157533610942387_);}
	.st14{fill:url(#SVGID_00000077319376360278926370000005748259807311540106_);}
	.st15{fill:url(#SVGID_00000014602388970960559500000006167801640521538216_);}
	.st16{fill:url(#SVGID_00000011028909001483366340000008364612211673399737_);}
	.st17{fill:url(#SVGID_00000173849240185711191930000016464386903524752818_);}
	.st18{fill:url(#SVGID_00000034050069629557644780000006614908873411734403_);}
	.st19{fill:url(#SVGID_00000133530134833495846200000009382608716844838795_);}
	.st20{fill:url(#SVGID_00000060727375045405989720000006863802315621209987_);}
	.st21{fill:url(#SVGID_00000174580031918354029210000001953311788288530593_);}
	.st22{fill:url(#SVGID_00000062878626918908210940000012475192409978338749_);}
	.st23{fill:url(#SVGID_00000169525297783936714380000001496426437314975678_);}
	.st24{fill:url(#SVGID_00000093867763967147600260000006378457533300273579_);}
	.st25{fill:url(#SVGID_00000011743164680024983740000014684356912308190611_);}
	.st26{fill:url(#SVGID_00000080166290000138730030000006995049965732838580_);}
	.st27{fill:url(#SVGID_00000021824355603119776080000016608848234506453682_);}
</style>
<g>
	<path class="st9" d="M199.52,300.16c26.15-45.49,54.94-86.83,66.15-101.77c16.01-21.29,135.5-83.38,184.41-109.3
		c5.04-2.7,9.9-5.3,14.52-7.78c0,0,0,0,0,0v0c19.44-10.42,34.69-18.64,42-22.96l0.11-0.07c1.08-0.59,1.96-1.15,2.67-1.59
		c-16.12,14.97-136.63,127.02-159.68,151.6c-11.23,11.98-32.65,49.25-54.28,91.88h89.9c100.26-96.42,207.06-147.38,231.25-156.15
		c108.49-39.25,234.44-29.28,313.28-16.38c4.04,0.66,7.95,1.33,11.73,2V45.2H97.06v254.96H199.52z M511.01,55.17l0.15-0.11
		c0.52,0-0.11,0.56-1.71,1.59C510.23,55.91,510.75,55.43,511.01,55.17z"/>
	<path class="st9" d="M647.61,300.16h293.97V167.25C869.67,193.51,756.11,237.18,694,272.52
		C682.35,279.16,666.24,288.79,647.61,300.16z"/>
	<radialGradient id="SVGID_1_" cx="518.6865" cy="1540.991" r="1240.8263" gradientUnits="userSpaceOnUse">
		<stop  offset="0.0112" style="stop-color:#B0FFB3"/>
		<stop  offset="0.2301" style="stop-color:#ADFEB3"/>
		<stop  offset="0.3886" style="stop-color:#A4FBB1"/>
		<stop  offset="0.5282" style="stop-color:#94F6AF"/>
		<stop  offset="0.6569" style="stop-color:#7EEEAC"/>
		<stop  offset="0.778" style="stop-color:#61E5A9"/>
		<stop  offset="0.8919" style="stop-color:#3ED9A4"/>
		<stop  offset="1" style="stop-color:#15CC9F"/>
	</radialGradient>
	<path class="st0" d="M116.75,658.7c0.71-6.86,2.02-19.31,3.81-35.35c6.67-60.49,19.9-171.39,32.21-219.87
		c7.61-29.93,26.38-67.88,46.76-103.31H97.06v374.28c8.56-6.32,13.42-9.84,13.42-9.84L116.75,658.7z"/>
	
		<radialGradient id="SVGID_00000047765756075640397960000003837486697968449717_" cx="519.3224" cy="1540.991" r="1240.0385" gradientUnits="userSpaceOnUse">
		<stop  offset="0.0112" style="stop-color:#B0FFB3"/>
		<stop  offset="0.2301" style="stop-color:#ADFEB3"/>
		<stop  offset="0.3886" style="stop-color:#A4FBB1"/>
		<stop  offset="0.5282" style="stop-color:#94F6AF"/>
		<stop  offset="0.6569" style="stop-color:#7EEEAC"/>
		<stop  offset="0.778" style="stop-color:#61E5A9"/>
		<stop  offset="0.8919" style="stop-color:#3ED9A4"/>
		<stop  offset="1" style="stop-color:#15CC9F"/>
	</radialGradient>
	<path style="fill:url(#SVGID_00000047765756075640397960000003837486697968449717_);" d="M443.59,429.02
		c-26.91,17.5-84.81,63.49-141.89,110.12l-89.07,73.58l-4.74,3.93c-5.58,4.66-10.83,9.06-15.75,13.18
		c-17.97,42.98-41.41,101.01-63.2,161.03c-11.43,31.52-22.39,63.58-31.88,94.29v161.32h544.25
		c-29.22-36.31-56.42-73.62-76.33-108.39c-56.6-98.85-83.32-293.26,51.97-378.92c112.83-71.46,235.43-51.18,324.64-0.43V300.16
		H647.61C584.36,338.79,491.81,397.69,443.59,429.02z"/>
	
		<radialGradient id="SVGID_00000000182041476174618860000012861261445112518836_" cx="518.6865" cy="1540.991" r="1240.8263" gradientUnits="userSpaceOnUse">
		<stop  offset="0.0112" style="stop-color:#B0FFB3"/>
		<stop  offset="0.2301" style="stop-color:#ADFEB3"/>
		<stop  offset="0.3886" style="stop-color:#A4FBB1"/>
		<stop  offset="0.5282" style="stop-color:#94F6AF"/>
		<stop  offset="0.6569" style="stop-color:#7EEEAC"/>
		<stop  offset="0.778" style="stop-color:#61E5A9"/>
		<stop  offset="0.8919" style="stop-color:#3ED9A4"/>
		<stop  offset="1" style="stop-color:#15CC9F"/>
	</radialGradient>
	<path style="fill:url(#SVGID_00000000182041476174618860000012861261445112518836_);" d="M210.53,528.24
		c0.01-0.01,0.01-0.02,0.02-0.03l0.04-0.07c11.08-18.13,23.46-37.73,36.95-57.93l0.07-0.11c29.73-44.59,64.64-92.03,102.08-133.33
		c11.68-12.87,23.6-25.04,35.62-36.59h-89.9c-26.85,52.9-54.03,114.04-62.51,145.35C227.5,465.52,219.11,496.53,210.53,528.24z"/>
	<path class="st2" d="M616.94,559.15c-135.29,85.66-108.57,280.07-51.97,378.92c0,0,64.64,59.37,120.77,108.39h73.47
		c-16.87-8.59-36.94-21.2-57.52-36.62c-48.25-36.15-80.98-73.98-73.1-84.49c7.87-10.51,53.37,10.28,101.62,46.43
		c38.25,28.66,66.73,58.36,72.97,74.68h138.4V558.72C852.37,507.97,729.77,487.7,616.94,559.15z M588.31,811.21
		c-12.88,0-23.33-15.49-23.33-34.59c0-19.11,10.44-34.59,23.33-34.59c12.88,0,23.33,15.49,23.33,34.59
		C611.63,795.73,601.19,811.21,588.31,811.21z M798.81,602.4c0.98-12.85,17.21-22.08,36.26-20.63c19.05,1.45,33.7,13.04,32.73,25.88
		c-0.98,12.85-17.21,22.08-36.27,20.63C812.48,626.84,797.83,615.25,798.81,602.4z"/>
	<path class="st3" d="M641.31,1046.47h44.44c-56.13-49.02-120.77-108.39-120.77-108.39C584.89,972.84,612.09,1010.15,641.31,1046.47
		z"/>
	<ellipse class="st3" cx="588.31" cy="776.62" rx="23.33" ry="34.59"/>
	<path class="st3" d="M831.54,628.29c19.05,1.45,35.29-7.79,36.27-20.63c0.98-12.85-13.67-24.43-32.73-25.88
		c-19.05-1.45-35.29,7.79-36.26,20.63S812.48,626.84,831.54,628.29z"/>
	<path class="st4" d="M192.14,629.82c-4.18,3.5-8.12,6.81-11.75,9.85c-1.12,4.15-1.75,6.47-1.75,6.47l-9.18,2.71
		c-10.52,8.85-16.7,14.08-16.7,14.08s-21.29,18.79-52.9,47.9c2.99,11.12,4.41,23.16-0.03,30.65c-0.85,1.44-1.79,2.67-2.78,3.77
		v33.69c13.99,1.05,25.77,7.72,31.88,11.91C150.73,730.83,174.17,672.8,192.14,629.82z"/>
	<path class="st4" d="M616.57,144.02c-24.2,8.77-131,59.73-231.25,156.15c-12.02,11.56-23.94,23.72-35.62,36.59
		c0,0-52.71,100.62-56.01,120.28c-3.3,19.66-3.29,51.92,0,65.9c3.29,13.99,8.01,16.2,8.01,16.2
		c57.08-46.63,114.98-92.63,141.89-110.12c48.22-31.33,140.77-90.22,204.03-128.85c18.62-11.37,34.73-21.01,46.39-27.64
		c62.1-35.34,175.67-79.02,247.58-105.27v-37.62c-3.78-0.67-7.69-1.34-11.73-2C851.02,114.73,725.07,104.76,616.57,144.02z"/>
	<path class="st4" d="M210.55,528.2c-0.01,0.01-0.01,0.02-0.02,0.03c-12.57,46.46-25.54,94.41-30.14,111.43
		c3.62-3.04,7.57-6.35,11.75-9.85c4.92-4.12,10.17-8.52,15.75-13.18l4.74-3.93l-20.41,16.9L210.55,528.2z"/>
	<path class="st4" d="M152.77,662.94c0,0,6.17-5.22,16.7-14.08l-15.03,4.44L152.77,662.94z"/>
	<path class="st4" d="M450.08,89.09c6.01-3.19,10.96-5.83,14.52-7.78C459.98,83.79,455.13,86.39,450.08,89.09z"/>
	<path class="st4" d="M205.29,359.85c-29.66,86.2-50.85,293.45-50.85,293.45l15.03-4.44l9.18-2.71c0,0,0.63-2.32,1.75-6.47
		c4.61-17.02,17.58-64.97,30.14-111.43c8.58-31.71,16.96-62.72,22.37-82.73c8.48-31.3,35.66-92.45,62.51-145.35
		c21.64-42.63,43.05-79.9,54.28-91.88c23.05-24.57,143.56-136.62,159.68-151.6c-0.7,0.44-1.59,1-2.67,1.59l-0.11,0.07
		c-7.3,4.31-22.55,12.54-42,22.96c0,0-70.43,56.15-114.9,91.28C305.22,207.73,234.95,273.65,205.29,359.85z"/>
	<path class="st4" d="M116.75,658.7l0.03-0.03l3.78-35.32C118.77,639.39,117.46,651.84,116.75,658.7z"/>
	<path class="st4" d="M511.16,55.06l-0.15,0.11c-0.26,0.26-0.78,0.74-1.56,1.48C511.05,55.61,511.68,55.06,511.16,55.06z"/>
	<path class="st5" d="M97.06,778.94v106.2c9.49-30.72,20.45-62.77,31.88-94.29C122.83,786.66,111.05,779.99,97.06,778.94z"/>
	<path class="st6" d="M99.87,710.83c-0.93,0.85-1.86,1.72-2.81,2.59v31.83c0.99-1.1,1.93-2.33,2.78-3.77
		C104.28,733.99,102.85,721.96,99.87,710.83z"/>
	<path class="st6" d="M152.77,662.94l-6-7.38l-30.62,9.04l0.63-5.94l-0.03,0.03l-6.27,5.91c0,0-4.85,3.52-13.42,9.84v38.98
		c0.94-0.87,1.88-1.73,2.81-2.59C131.48,681.73,152.77,662.94,152.77,662.94z"/>
	<path class="st6" d="M120.56,623.35l-3.78,35.32l-0.63,5.94l30.62-9.04l6,7.38l1.67-9.64c0,0,21.19-207.25,50.85-293.45
		c29.66-86.2,99.93-152.12,144.41-187.26c44.48-35.13,114.9-91.28,114.9-91.28v0c0,0,0,0,0,0c-3.56,1.95-8.5,4.59-14.52,7.78
		c-48.91,25.92-168.4,88.01-184.41,109.3c-11.21,14.94-40,56.29-66.15,101.77c-20.37,35.44-39.14,73.38-46.76,103.31
		C140.46,451.96,127.23,562.86,120.56,623.35z"/>
	<path class="st6" d="M247.55,470.2c-13.49,20.2-25.87,39.81-36.95,57.93l-0.04,0.07l-18.33,101.41l20.41-16.9l89.07-73.58
		c0,0-4.72-2.21-8.01-16.2c-3.29-13.99-3.3-46.24,0-65.9c3.3-19.66,56.01-120.28,56.01-120.28
		c-37.44,41.29-72.35,88.74-102.08,133.33L247.55,470.2z"/>
	<path class="st8" d="M730.22,971.79c-48.25-36.15-93.74-56.94-101.62-46.43c-7.87,10.51,24.86,48.33,73.1,84.49
		c20.58,15.42,40.65,28.03,57.52,36.62h43.96C796.94,1030.15,768.47,1000.45,730.22,971.79z"/>
</g>
</svg>
