<?xml version="1.0" encoding="utf-8"?>
<!-- Generator: Adobe Illustrator 26.0.3, SVG Export Plug-In . SVG Version: 6.00 Build 0)  -->
<svg version="1.1" id="Слой_1" xmlns="http://www.w3.org/2000/svg" xmlns:xlink="http://www.w3.org/1999/xlink" x="0px" y="0px"
	 viewBox="0 0 1080 1080" style="enable-background:new 0 0 1080 1080;" xml:space="preserve">
<style type="text/css">
	.st0{fill:#FFCB8D;}
	.st1{fill:#AF4F00;stroke:#7A2C00;stroke-width:5;stroke-miterlimit:10;}
	.st2{fill:#FFE8A6;}
	.st3{fill:#7A2C00;}
	.st4{fill:#301600;}
	.st5{fill:#FF9D4D;}
	.st6{fill:#913B00;}
	.st7{fill:#AF4F00;}
	.st8{fill:#441D00;}
	.st9{fill:#0F0600;}
	.st10{fill:#495154;}
	.st11{fill:#FFF0CA;}
	.st12{fill:#722E00;}
	.st13{fill:#FF8AD5;}
	.st14{fill:#FF64B5;}
	.st15{fill:#FF5FBE;}
	.st16{fill:#ED0061;}
	.st17{fill:#C60042;}
	.st18{fill:#FFB0EB;}
	.st19{fill:#CF85FF;}
	.st20{fill:#AA00F9;}
	.st21{fill:#160900;}
	.st22{fill:#626D7C;}
	.st23{fill:none;stroke:#E7AEFF;stroke-width:30;stroke-linecap:round;stroke-miterlimit:10;}
	.st24{fill:#0BAEFF;}
	.st25{fill:#007ACC;}
	.st26{fill:#0058C1;}
	.st27{fill:#22D5FF;}
	.st28{fill:#08D1FF;}
	.st29{fill:#282828;}
	.st30{fill:#636363;}
	.st31{fill:#48D8FF;}
	.st32{fill:#141414;}
	.st33{fill:#FFDA00;}
	.st34{fill:#FFB600;}
	.st35{fill:#FFA300;}
	.st36{fill:#FFE36E;}
	.st37{fill:none;stroke:#FFE36E;stroke-width:20;stroke-linecap:round;stroke-linejoin:round;stroke-miterlimit:10;}
	.st38{fill:#F44B00;}
	.st39{fill:#D82E00;}
	.st40{fill:#FF9312;}
	.st41{fill:#DD7300;}
	.st42{fill:none;stroke:#D35A00;stroke-width:8;stroke-linecap:round;stroke-miterlimit:10;}
	.st43{fill:#5B3A00;}
	.st44{fill:#472300;}
	.st45{fill:#D35A00;}
	.st46{fill:none;stroke:#FFB048;stroke-width:20;stroke-linecap:round;stroke-miterlimit:10;}
	.st47{fill:none;stroke:#FFB048;stroke-width:12;stroke-linecap:round;stroke-miterlimit:10;}
	.st48{fill:#00AD5A;}
	.st49{fill:#00F445;}
	.st50{fill:#00CC66;}
	.st51{fill:#00CC49;}
	.st52{fill:#1DFFEE;stroke:#00A58D;stroke-width:15;stroke-miterlimit:10;}
	.st53{fill:#203533;}
	.st54{fill:none;stroke:#5CFF68;stroke-width:20;stroke-linecap:round;stroke-miterlimit:10;}
	.st55{fill:#00D6D0;}
	.st56{fill:#00AAAA;}
	.st57{fill:#2CFFEA;}
	.st58{fill:#00E8D7;}
	.st59{fill:#00635E;}
	.st60{fill:#009388;}
	.st61{fill:none;stroke:#00AAAA;stroke-width:20;stroke-miterlimit:10;}
</style>
<g>
	
		<ellipse transform="matrix(0.1902 -0.9817 0.9817 0.1902 -13.0273 621.8521)" class="st0" cx="370.44" cy="318.82" rx="249.5" ry="54"/>
	
		<ellipse transform="matrix(0.0886 -0.9961 0.9961 0.0886 -128.2981 701.4821)" class="st0" cx="319.16" cy="420.85" rx="202" ry="74.67"/>
	<path class="st0" d="M257.7,336.93C298.26,142.66,413.78,76.09,413.78,76.09l-9.3,225.7C404.47,301.79,217.14,531.2,257.7,336.93z"
		/>
	<path class="st1" d="M423.92,329.09c26.21-135.28,23.72-249.54-5.55-255.21c-8.22-1.59-17.67,5.53-27.59,19.6
		c-35.48,30.14-101.79,102.27-131.47,238.05c-6.53,25-11.42,52.99-14.06,82.7c-9.29,104.48,12.51,192.97,49.29,206.21
		c12.48-46.08,28.29-64.31,41.13-74.72c11.22-9.1,23.61-8.55,34.64-4.14c8.57-24.06,15.51-52.33,20.04-83.18
		C402.88,421.54,414.59,377.23,423.92,329.09z"/>
	<ellipse class="st2" cx="537.11" cy="614.66" rx="254" ry="373.33"/>
	<path class="st2" d="M757.01,566.2c-29.28,5.67-74.26-99.4-100.47-234.68c-3.52-18.17-6.53-35.97-9.01-53.17l-0.01-0.01
		c-4.67-32.23-7.53-62.39-8.62-89.07c-2.66-65.07,5.21-109.48,23.19-112.96c29.28-5.68,74.26,99.39,100.47,234.67
		C788.78,446.26,786.29,560.52,757.01,566.2z"/>
	<path class="st2" d="M836.42,494.19c-2.36,37-9.05,68.93-19.04,91.93l-0.01,0.02c-0.51,1.18-1.03,2.34-1.56,3.47
		c-6.65,14.21-14.64,24.64-23.71,30.25c-4.23,2.63-8.71,4.2-13.38,4.62c-41.07,3.65-82.38-83.47-92.26-194.59
		c-9.88-111.13,15.41-204.17,56.48-207.82c41.08-3.65,82.38,83.47,92.27,194.59C837.64,443.94,837.94,470.14,836.42,494.19z"/>
	<path class="st2" d="M822.52,339.36C783.55,145.09,672.57,78.52,672.57,78.52l8.94,225.7
		C681.51,304.22,861.48,533.63,822.52,339.36z"/>
	<path class="st3" d="M407.42,165.32c-77.73,94.22-94.03,272.41-94.03,272.41c26.61-75.08,78.53-116.48,78.53-116.48
		S386.22,247.98,407.42,165.32z"/>
	<ellipse class="st1" cx="537.11" cy="402.14" rx="45.33" ry="80.89"/>
	
		<ellipse transform="matrix(0.8082 -0.5889 0.5889 0.8082 -309.9882 361.8788)" class="st4" cx="400.63" cy="656.89" rx="23.11" ry="41.78"/>
	<path class="st5" d="M354.44,614.66c0-188.39,94.94-344.19,218.33-369.68c-11.65-2.41-23.56-3.65-35.67-3.65
		c-140.28,0-254,167.15-254,373.33s113.72,373.33,254,373.33c12.11,0,24.01-1.25,35.67-3.65
		C449.38,958.85,354.44,803.05,354.44,614.66z"/>
	<path class="st5" d="M817.38,586.12l-0.01,0.02c-6.94,15.99-15.48,27.66-25.27,33.72l-0.99-5.21c0-74.85-14.99-144.56-40.8-202.99
		v-63.67c0,0,40.8,44.89,54.13,100.51C818.11,505.53,817.38,586.12,817.38,586.12z"/>
	<path class="st5" d="M695.82,321.25l-48.29-42.9l-0.01-0.01c-4.67-32.23-7.53-62.39-8.62-89.07c0,0,11.77,47.61,26.88,66.72
		c15.11,19.11,25.55,0,25.55,0L695.82,321.25z"/>
	<path class="st6" d="M686.67,165.32c63.64,82.66,74.17,272.41,74.17,272.41c-22.31-45.45-74.17-116.48-74.17-116.48
		S697.33,255.99,686.67,165.32z"/>
	
		<ellipse transform="matrix(0.5889 -0.8082 0.8082 0.5889 -253.9778 814.4974)" class="st4" cx="673.59" cy="656.89" rx="41.78" ry="23.11"/>
	<g>
		<path class="st7" d="M788.24,634.78c-1.31-5.09-2.63-11.05-3.95-17.83c-5.61-34.17-15.84-71.1-30.39-109.7
			c-3.8-10.08-16.06-20.28-32.13-20.28c-7.78,0-15.46,2.35-22.82,6.98c-17.4,10.95-47.41,37.42-67.26,54.93
			c-7.16,6.31-12.81,11.3-16.33,14.21c-8.53,7.06-18.59,11.27-26.91,11.27c-5.21,0-9.61-1.58-13.09-4.69
			c-8.98-8.03-9.25-16.94-0.86-28.04c2.2-2.91,5.4-6.69,9.11-11.07c13.81-16.3,34.68-40.94,44.57-67.8
			c12.78-34.7,10.57-99.85,0.05-134.92c-6.96-23.2-31.47-57.24-48.11-78.62c56.47,14.39,108.18,57.2,146.25,121.29
			c40.13,67.57,62.23,154.27,62.23,244.13C788.61,621.34,788.49,628.07,788.24,634.78z"/>
		<path class="st3" d="M586.68,253.65c53.03,15.92,101.45,57.37,137.55,118.15c19.53,32.88,34.8,70.16,45.37,110.78
			c10.8,41.5,16.35,85.25,16.51,130.08c-5.77-33.29-15.81-69.03-29.87-106.3c-4.1-10.88-17.26-21.9-34.47-21.9
			c-8.26,0-16.38,2.48-24.15,7.37c-17.57,11.06-47.67,37.61-67.58,55.17c-6.86,6.05-12.78,11.28-16.27,14.16
			c-8.09,6.7-17.56,10.7-25.31,10.7c-4.58,0-8.42-1.36-11.42-4.05c-5.33-4.77-10.2-11.88-0.53-24.67c2.16-2.86,5.34-6.61,9.03-10.96
			c13.92-16.44,34.96-41.28,45.01-68.55c12.95-35.15,10.73-101.05,0.1-136.5C624.18,305.63,603.05,275.17,586.68,253.65
			 M573.76,245.19c16.23,20.42,44.59,58.42,52.08,83.39c10.67,35.56,12.44,99.56,0,133.33c-12.44,33.78-43,64.56-53.33,78.22
			c-10.33,13.67-7.3,23.82,1.19,31.41c4.15,3.71,9.27,5.33,14.76,5.33c9.42,0,19.93-4.75,28.5-11.84
			c13.56-11.22,59.99-54.27,83.33-68.96c7.42-4.67,14.76-6.6,21.49-6.6c14.45,0,26.11,8.89,29.79,18.67
			c6.29,16.68,22.22,60.19,30.28,109.29c2.86,14.69,5.59,24.95,8.21,31.53c0.7-11.3,1.06-22.73,1.06-34.3
			C791.11,426.76,696.67,271.29,573.76,245.19L573.76,245.19z"/>
	</g>
	<path class="st1" d="M695.11,872.29c-21.51,4.74-58.78-7.1-73.63-14.22c-14.81-7.11-24.3-21.93-30.22-37.33
		c-5.93-15.41-17.78-85.33-21.93-100.74s-12.81-23.11-22.52-23.11c-9.7,0-18.19,9.28-20.7,23.11
		c-2.51,13.83-14.85,83.56-20.78,97.78c-5.93,14.22-19,27.48-33.78,37.33c-21.33,14.22-53.33,24.3-78.22,20.15
		c-21.37-3.56-48.67-22.04-48.67-22.04c46.59,81.48,114.36,134.78,192.44,134.78c80.78,0,150.41-56.28,196.93-142.67
		C734.03,845.33,716.61,867.55,695.11,872.29z"/>
	<g>
		<path class="st7" d="M286.4,644.1c-0.52-9.79-0.79-19.67-0.79-29.44c0-89.42,21.91-175.79,61.69-243.21
			c37.68-63.85,88.92-106.81,144.94-121.73c-16.25,21.22-27.71,44.3-34.1,68.71c-8.98,34.31-14.37,73.61-14.8,107.82
			c-0.33,26.25,2.03,61.89,15.1,82.59c18.72,29.64,58.06,59.21,76.96,73.42c2.88,2.16,5.36,4.03,7.16,5.44
			c5.09,3.98,8.28,10.96,8.98,19.63c0.83,10.32-2.08,20.71-7.41,26.48c-7.85,8.49-18.6,10.27-26.24,10.27
			c-7.07,0-13.18-1.55-16.28-2.87c-3.89-1.67-34.19-26.69-60.93-48.77c-28.57-23.59-55.56-45.88-61.71-49.4
			c-8.15-4.67-16.06-7.04-23.52-7.04c-7.82,0-15.01,2.62-21.38,7.79c-15.11,12.26-34.17,34.61-47.45,99.22
			C286.56,643.39,286.48,643.75,286.4,644.1z"/>
		<path class="st3" d="M485.85,254.17c-14.13,19.83-24.24,41.17-30.12,63.63c-9.03,34.5-14.45,74.01-14.88,108.43
			c-0.33,26.59,2.09,62.73,15.49,83.95c18.97,30.03,58.55,59.78,77.58,74.08c2.86,2.15,5.34,4.01,7.12,5.41
			c4.47,3.5,7.39,10.01,8.03,17.87c0.76,9.5-1.95,19.38-6.76,24.58c-7.24,7.83-17.26,9.47-24.4,9.47c-6.66,0-12.37-1.43-15.26-2.66
			c-4.33-2.15-35.39-27.8-60.36-48.41c-33.66-27.79-56.16-46.26-62.05-49.64c-8.53-4.89-16.86-7.37-24.76-7.37
			c-8.41,0-16.13,2.81-22.96,8.34c-13.96,11.32-31.2,31.01-44.31,83.04c-0.06-3.42-0.1-6.83-0.1-10.23
			c0-45.3,5.51-89.54,16.36-131.49c10.48-40.46,25.61-77.62,44.97-110.45C385.2,312.13,433.21,270.54,485.85,254.17 M498.73,245.56
			c-122.07,27.2-215.62,182.09-215.62,369.1c0,12.42,0.42,24.69,1.22,36.79c2.11-0.4,3.73-2.92,4.76-7.95
			c13.04-63.41,31.78-85.78,46.58-97.78c6.38-5.17,13.14-7.23,19.81-7.23c7.79,0,15.46,2.8,22.28,6.71
			c12.14,6.96,114.6,94.74,122.89,98.3c3.61,1.55,10.02,3.07,17.26,3.07c9.41,0,20.22-2.58,28.07-11.07
			c10.74-11.62,11.77-39.11-1.86-49.78c-13.63-10.67-62.22-44.44-83.56-78.22c-21.33-33.78-17.91-120,0-188.44
			C468.7,287.95,484.22,263.25,498.73,245.56L498.73,245.56z"/>
	</g>
	<path class="st3" d="M542.91,987.88c0.8-0.03,1.59-0.06,2.39-0.09c0.75-0.04,1.5-0.08,2.25-0.12c0.51-0.03,1.03-0.06,1.54-0.1
		c0.98-0.07,1.96-0.14,2.94-0.22c0.09-0.01,0.18-0.02,0.26-0.02c6.85-0.61,13.61-1.63,20.28-3.03
		c-57.32-11.91-108.48-51.95-146.83-110.3c-11.18,2.29-22.37,2.93-32.41,1.26c-21.37-3.56-48.67-22.04-48.67-22.04
		c45.12,78.9,110.09,131.37,185.05,134.62c0.05,0,0.1,0,0.15,0.01c1.04,0.04,2.08,0.07,3.12,0.1c0.19,0,0.38,0.01,0.58,0.02
		c1.18,0.02,2.36,0.04,3.54,0.04c1.39,0,2.77-0.02,4.15-0.05C541.81,987.92,542.36,987.9,542.91,987.88z"/>
	<path class="st8" d="M526.35,925.17c10.08-4.74,16.5-2.59,22.56,0c7.52,3.21,32.16,12.37,46.8,46.07
		c3.57,8.21-2.5,18.93-13.21,24.28c-36.43,15-52.94,14.28-87.49-1.43c-6.24-4.11-15.71-10-12.34-20.41
		C493.5,940.29,515.72,930.17,526.35,925.17z"/>
	<path class="st9" d="M521.61,975.74c-6.24-4.11-15.71-10-12.34-20.41c4.35-13.43,10.55-23.09,17.09-30.17
		c-0.01,0-0.01,0.01-0.02,0.01c-10.62,5-32.85,15.12-43.67,48.51c-3.38,10.41,6.1,16.3,12.34,20.41
		c34.55,15.71,51.07,16.43,87.49,1.43c6.21-3.1,10.84-8.01,12.96-13.18C567.94,991.7,551.53,989.35,521.61,975.74z"/>
	<g>
		<path class="st3" d="M283.19,624c0.05,3.04,0.13,6.06,0.23,9.08c0,0.04,0,0.09,0,0.13c0.2,6.12,0.51,12.2,0.91,18.24
			c2.11-0.4,3.73-2.92,4.76-7.95c13.04-63.41,31.78-85.78,46.58-97.78c7.73-6.27,16.02-7.96,24.04-6.96
			c13.41-95.46,51.62-177.6,104.29-231.22c8.62-25.74,22.06-46.54,34.73-61.99c-1.82,0.41-3.63,0.84-5.44,1.3
			c-0.14,0.04-0.28,0.07-0.42,0.11c-1.74,0.45-3.48,0.93-5.21,1.43c-0.18,0.05-0.37,0.11-0.55,0.16c-1.72,0.51-3.44,1.03-5.15,1.59
			c-0.16,0.05-0.32,0.11-0.48,0.16c-1.75,0.57-3.49,1.17-5.23,1.8c-0.06,0.02-0.12,0.05-0.18,0.07c-3.59,1.3-7.14,2.71-10.67,4.24
			c-0.1,0.04-0.2,0.08-0.29,0.13c-1.69,0.73-3.37,1.49-5.04,2.27c-0.17,0.08-0.34,0.16-0.51,0.24c-1.64,0.77-3.28,1.57-4.91,2.39
			c-0.17,0.09-0.34,0.17-0.51,0.26c-1.65,0.84-3.29,1.7-4.92,2.58c-0.11,0.06-0.21,0.12-0.32,0.18c-3.42,1.86-6.81,3.83-10.16,5.9
			c-0.05,0.03-0.09,0.05-0.14,0.08c-1.62,1-3.23,2.03-4.84,3.09c-0.15,0.1-0.3,0.19-0.44,0.29c-1.56,1.03-3.11,2.08-4.65,3.15
			c-0.17,0.12-0.34,0.24-0.51,0.36c-1.54,1.08-3.08,2.18-4.6,3.3c-0.14,0.1-0.28,0.21-0.41,0.31c-1.57,1.16-3.13,2.34-4.69,3.55
			c-0.03,0.02-0.05,0.04-0.08,0.06c-3.19,2.48-6.33,5.06-9.44,7.74c-0.12,0.11-0.24,0.21-0.37,0.31c-1.46,1.27-2.92,2.55-4.37,3.86
			c-0.16,0.15-0.33,0.3-0.49,0.45c-1.43,1.3-2.85,2.62-4.27,3.96c-0.15,0.15-0.31,0.29-0.46,0.44c-1.44,1.37-2.86,2.76-4.28,4.17
			c-0.09,0.08-0.17,0.17-0.25,0.26c-2.94,2.94-5.83,5.96-8.68,9.07c-0.09,0.1-0.18,0.19-0.27,0.29c-1.36,1.49-2.71,3.01-4.06,4.54
			c-0.15,0.18-0.31,0.35-0.46,0.52c-1.31,1.5-2.61,3.03-3.9,4.57c-0.16,0.19-0.32,0.39-0.48,0.58c-1.3,1.56-2.59,3.13-3.86,4.73
			c-0.12,0.15-0.24,0.3-0.36,0.45c-1.32,1.66-2.64,3.34-3.94,5.03c-0.01,0.01-0.02,0.02-0.03,0.04c-1.34,1.75-2.66,3.51-3.97,5.3
			c-0.05,0.06-0.09,0.13-0.14,0.19c-1.25,1.71-2.49,3.44-3.72,5.19c-0.13,0.19-0.27,0.38-0.4,0.57c-1.19,1.69-2.36,3.41-3.53,5.14
			c-0.16,0.24-0.32,0.47-0.48,0.71c-1.16,1.73-2.3,3.47-3.44,5.23c-0.14,0.22-0.28,0.43-0.42,0.65c-1.16,1.81-2.31,3.63-3.45,5.47
			c-0.07,0.11-0.14,0.22-0.2,0.33c-1.19,1.93-2.36,3.88-3.52,5.84c0,0,0,0.01-0.01,0.01c-1.14,1.92-2.25,3.87-3.36,5.83
			c-0.11,0.19-0.22,0.38-0.33,0.58c-1.06,1.87-2.1,3.77-3.13,5.67c-0.15,0.27-0.29,0.54-0.44,0.81c-1.01,1.88-2.02,3.78-3.01,5.69
			c-0.14,0.27-0.28,0.55-0.42,0.82c-1,1.94-1.99,3.9-2.96,5.87c-0.1,0.2-0.2,0.4-0.29,0.6c-2.04,4.15-4.03,8.36-5.96,12.64
			c-0.08,0.18-0.16,0.35-0.24,0.52c-0.92,2.05-1.82,4.11-2.72,6.19c-0.12,0.29-0.25,0.58-0.37,0.86c-0.87,2.03-1.72,4.08-2.57,6.13
			c-0.13,0.32-0.26,0.64-0.39,0.96c-0.84,2.07-1.67,4.15-2.49,6.24c-0.11,0.28-0.21,0.55-0.32,0.83c-0.84,2.17-1.66,4.34-2.47,6.54
			c-0.04,0.12-0.09,0.24-0.13,0.36c-0.82,2.22-1.62,4.46-2.41,6.71c-0.04,0.13-0.09,0.25-0.13,0.38c-0.77,2.21-1.53,4.44-2.27,6.68
			c-0.1,0.3-0.2,0.6-0.3,0.89c-0.71,2.17-1.41,4.35-2.1,6.53c-0.11,0.36-0.23,0.72-0.34,1.08c-0.68,2.18-1.34,4.37-1.99,6.58
			c-0.1,0.34-0.2,0.68-0.3,1.02c-0.66,2.26-1.31,4.52-1.94,6.8c-0.06,0.23-0.12,0.45-0.19,0.68c-0.65,2.37-1.29,4.75-1.91,7.14
			c-0.01,0.04-0.02,0.07-0.03,0.11c-0.62,2.39-1.22,4.79-1.8,7.2c-0.07,0.28-0.14,0.55-0.2,0.83c-0.56,2.3-1.09,4.62-1.62,6.94
			c-0.09,0.38-0.17,0.75-0.25,1.13c-0.51,2.29-1.01,4.59-1.49,6.9c-0.08,0.39-0.16,0.77-0.24,1.16c-0.48,2.34-0.95,4.69-1.41,7.05
			c-0.06,0.31-0.12,0.62-0.17,0.92c-0.47,2.46-0.92,4.93-1.36,7.42c-0.02,0.09-0.03,0.17-0.04,0.26c-0.43,2.48-0.85,4.98-1.25,7.48
			c-0.04,0.23-0.07,0.45-0.11,0.68c-0.38,2.44-0.75,4.88-1.1,7.34c-0.05,0.38-0.11,0.76-0.16,1.14c-0.34,2.39-0.66,4.8-0.97,7.21
			c-0.05,0.42-0.11,0.84-0.16,1.26c-0.3,2.42-0.59,4.84-0.86,7.28c-0.04,0.37-0.08,0.75-0.12,1.12c-0.27,2.51-0.53,5.02-0.77,7.55
			c-0.02,0.21-0.04,0.43-0.06,0.65c-0.24,2.56-0.46,5.13-0.67,7.71c-0.01,0.14-0.02,0.28-0.03,0.41c-0.2,2.57-0.38,5.16-0.55,7.74
			c-0.02,0.36-0.05,0.71-0.07,1.07c-0.15,2.5-0.29,5-0.41,7.51c-0.02,0.43-0.04,0.86-0.06,1.29c-0.11,2.49-0.21,4.99-0.29,7.5
			c-0.01,0.42-0.03,0.83-0.04,1.25c-0.08,2.56-0.14,5.12-0.18,7.68c0,0.3-0.01,0.6-0.01,0.9c-0.04,2.71-0.06,5.42-0.06,8.14
			c0,3.05,0.03,6.1,0.08,9.13C283.19,623.86,283.19,623.93,283.19,624z"/>
	</g>
	<path class="st5" d="M836.42,494.19c-2.36,37-9.05,68.93-19.04,91.93l-0.01,0.02c-0.51,1.18-1.03,2.34-1.56,3.47l-3.73,2.97
		c0,0-5.31-123.64,0-99.75c5.31,23.9,15.29,19.16,19.77,13.23C834.2,502.96,835.61,498.06,836.42,494.19z"/>
	
		<ellipse transform="matrix(0.7632 -0.6461 0.6461 0.7632 -252.5319 591.1821)" class="st10" cx="680.37" cy="640.16" rx="10.68" ry="7.28"/>
	
		<ellipse transform="matrix(0.7632 -0.6461 0.6461 0.7632 -318.7678 410.4326)" class="st10" cx="400.63" cy="640.16" rx="7.28" ry="10.68"/>
	<path class="st3" d="M312.96,502.27c-0.2,0.72-0.4,1.44-0.6,2.17c-33.94-12.22-55.13-88.55-50.89-182.38
		c-0.74,3.12-1.46,6.27-2.16,9.46c-6.53,25-11.42,52.99-14.06,82.7c-9.29,104.48,12.51,192.97,49.29,206.21
		c8.21-30.34,17.87-48.6,27.18-60.51L312.96,502.27z"/>
	<path class="st11" d="M764.31,627.22c2.09,15.48,5.67,56.58-6.61,102.3c-16.13,60.02-35.8,87.76-44.95,101.59
		c-9.15,13.83-19.02,13.01-22.56,11.45c-3.54-1.56-8.1-8.04-0.63-21.21c7.47-13.17,28.16-50.33,41.94-95.5
		c13.54-44.36,8.72-86.19,9.86-97.95c1.14-11.76,3.69-25.62,10.8-25.83C759.26,601.85,762.43,613.23,764.31,627.22z"/>
	<path class="st11" d="M718.14,135.49c11.07,11.03,38.89,41.49,56.92,85.26c23.67,57.47,24.9,91.45,26.04,108
		c1.14,16.54-7.19,21.89-10.96,22.8c-3.76,0.91-11.32-1.46-13.39-16.47s-8.23-57.08-24.73-101.33
		c-16.21-43.46-45.45-73.74-51.7-83.77c-6.25-10.03-12.64-22.59-7.12-27.07S708.15,125.53,718.14,135.49z"/>
	
		<ellipse transform="matrix(0.9719 -0.2354 0.2354 0.9719 -112.1371 190.9067)" class="st11" cx="743.64" cy="565.2" rx="11.76" ry="23.04"/>
	
		<ellipse transform="matrix(0.5538 -0.8327 0.8327 0.5538 -541.5317 890.9671)" class="st12" cx="560.5" cy="950.73" rx="10.33" ry="20.33"/>
</g>
</svg>
