<?xml version="1.0" encoding="utf-8"?>
<!-- Generator: Adobe Illustrator 26.0.3, SVG Export Plug-In . SVG Version: 6.00 Build 0)  -->
<svg version="1.1" id="Слой_1" xmlns="http://www.w3.org/2000/svg" xmlns:xlink="http://www.w3.org/1999/xlink" x="0px" y="0px"
	 viewBox="0 0 1080 1080" style="enable-background:new 0 0 1080 1080;" xml:space="preserve">
<style type="text/css">
	.st0{fill:url(#SVGID_1_);}
	.st1{fill:#FFBE55;}
	.st2{fill:#EA8B00;}
	.st3{fill:#D17200;}
	.st4{fill:#AA6900;}
	.st5{fill:#CC8D00;}
	.st6{fill:#9B5800;}
	.st7{fill:#E2A700;}
	.st8{fill:#FFD400;}
	.st9{fill:#E87400;}
	.st10{fill:#FF9700;}
	.st11{fill:#E5B900;}
	.st12{fill:none;}
	.st13{fill:url(#SVGID_00000031178408151560348340000013825305830476717752_);}
	.st14{fill:url(#SVGID_00000142885159380530346520000005711910874404760741_);}
	.st15{fill:url(#SVGID_00000053547450301753471110000018243357676629215934_);}
	.st16{fill:url(#SVGID_00000040537862639237251360000017235465103831152776_);}
	.st17{fill:url(#SVGID_00000045620601038900030130000003558498183944517523_);}
</style>
<g>
	<polygon class="st12" points="838.15,1026.02 838.14,1026.02 34.4,1026.02 34.4,1072.89 1045.6,1072.89 1045.6,1026.02 	"/>
	<path class="st7" d="M921.31,68.45c0.2-0.1,60.09-30.38,85.97-38.49c11.1-3.48,23.8-6.22,38.32-8.33v-10H745.99
		C806.58,30.89,865.49,49.97,921.31,68.45z"/>
	<path class="st8" d="M353.65,519.04c10.66-56.91-35.03-95.51-100.55-123.41c-23.73-10.12-113.66-30.31-218.7-51.94v420.67
		c113.52-67.58,209.34-124.63,227.82-135.62C312.27,598.91,342.98,575.91,353.65,519.04z"/>
	<path class="st8" d="M591.31,263.07c120.36,24.37,328.62,130.03,347.4,173.7c12.51,29.1,2.71,65.92-4.18,96.84l-0.03,0.07
		c-3.43,15.43-6.14,29.38-4.94,40.21c3.56,32.5,77.71,121.87,77.71,187.38c0,20.57-16.69,54.34-39.59,91.02l-0.03,0.03
		c-24.69,39.53-56.58,82.37-82.54,115.63c0.06,0,70.05,4.41,160.5,7.53V110.62L921.3,68.45c0,0,0.01,0,0.01,0
		c-55.82-18.48-114.73-37.56-175.32-56.82H34.4v186.72C227.13,220.1,510.6,246.72,591.31,263.07z"/>
	<path class="st3" d="M885.1,967.95L885.1,967.95c25.97-33.26,57.86-76.1,82.55-115.63l0.03-0.03
		c22.9-36.68,39.59-70.45,39.59-91.02c0-65.51-74.15-154.88-77.71-187.38c-1.2-10.83,1.51-24.78,4.94-40.21
		c0,0-17.12-42.86-25.5-60.37c-8.38-17.51-25.71-36.75-50.8-51.8c-25.1-15.05-153.38-94.48-225.74-112.75
		c-51.7-13.06-396.37-54.51-598.05-79.05v113.98c105.04,21.63,194.97,41.82,218.7,51.94c65.51,27.9,111.21,66.5,100.55,123.41
		c0,0,5.33,28.96,0,54.85s-48.02,79.22-80.77,103.6c-14.61,10.88-122.96,81.44-238.48,156.26v67.69
		C475.08,971.57,885.1,967.95,885.1,967.95z"/>
	<path class="st9" d="M921.31,68.45C921.31,68.45,921.3,68.45,921.31,68.45l124.29,42.17v-89c-14.52,2.11-27.23,4.85-38.32,8.33
		C981.4,38.07,921.51,68.35,921.31,68.45z"/>
	<path class="st11" d="M885.1,967.95l-46.95,58.07h207.45v-50.54C955.15,972.35,885.16,967.95,885.1,967.95L885.1,967.95z"/>
	<path class="st4" d="M353.65,573.89c5.33-25.89,0-54.85,0-54.85c-10.66,56.87-41.38,79.87-91.43,109.7
		c-18.48,10.99-114.3,68.04-227.82,135.62v69.38c115.52-74.82,223.87-145.38,238.48-156.26
		C305.62,653.11,348.31,599.78,353.65,573.89z"/>
	<path class="st4" d="M632.45,308.76c72.36,18.27,200.64,97.7,225.74,112.75c25.1,15.05,42.42,34.29,50.8,51.8
		c8.38,17.51,25.5,60.37,25.5,60.37l0.03-0.07c6.89-30.92,16.7-67.74,4.18-96.84c-18.79-43.67-227.04-149.33-347.4-173.7
		C510.6,246.72,227.13,220.1,34.4,198.35v31.36C236.08,254.26,580.75,295.71,632.45,308.76z"/>
	<path class="st4" d="M838.15,1026.02l46.95-58.07c0,0-410.02,3.62-850.7-66.51v124.59h803.74H838.15z"/>
</g>
</svg>
