<?xml version="1.0" encoding="utf-8"?>
<!-- Generator: Adobe Illustrator 26.0.3, SVG Export Plug-In . SVG Version: 6.00 Build 0)  -->
<svg version="1.1" id="Слой_1" xmlns="http://www.w3.org/2000/svg" xmlns:xlink="http://www.w3.org/1999/xlink" x="0px" y="0px"
	 viewBox="0 0 1080 1080" style="enable-background:new 0 0 1080 1080;" xml:space="preserve">
<style type="text/css">
	.st0{fill:#FFC50D;}
	.st1{fill:#E5E5E5;}
	.st2{fill:none;stroke:#FFEF5A;stroke-width:70;stroke-miterlimit:10;}
	.st3{fill:#FFF066;}
	.st4{fill:#FFDB43;}
	.st5{fill:#C1F569;}
	.st6{fill:#FFFFFF;}
	.st7{fill:none;stroke:url(#SVGID_1_);stroke-width:200;stroke-miterlimit:10;}
	.st8{fill:url(#SVGID_00000132773583984887915150000011101820315109623190_);}
	.st9{fill:url(#SVGID_00000106111235525576672480000009516894169387294398_);}
	.st10{fill:url(#SVGID_00000181047261137450418650000012712678263236578197_);}
	.st11{fill:url(#SVGID_00000006705680854666605200000008921820426849032086_);}
	.st12{fill:none;stroke:url(#SVGID_00000176739585112216652310000012677772300801328830_);stroke-width:50;stroke-miterlimit:10;}
	.st13{fill:url(#SVGID_00000018203862998542365630000004579594167613728645_);}
	.st14{fill:url(#SVGID_00000123416178501391834190000007521989319704855196_);}
	.st15{fill:none;stroke:url(#SVGID_00000076568243427629052940000001912680116445503881_);stroke-width:50;stroke-miterlimit:10;}
	.st16{fill:url(#SVGID_00000052095422144483036540000016935510813462903442_);}
	.st17{fill:url(#SVGID_00000085945102885134416720000018368199485249089417_);}
	
		.st18{fill:none;stroke:url(#SVGID_00000142892190821968324390000016044012510748477107_);stroke-width:30;stroke-linecap:round;stroke-miterlimit:10;}
	
		.st19{fill:none;stroke:url(#SVGID_00000052086445624529481150000009196199726503717796_);stroke-width:30;stroke-linecap:round;stroke-miterlimit:10;}
	.st20{fill:none;stroke:#E58AFD;stroke-width:30;stroke-miterlimit:10;}
	.st21{fill:none;stroke:#CE74FE;stroke-width:30;stroke-miterlimit:10;}
	
		.st22{fill:none;stroke:url(#SVGID_00000055701324560984499190000015128764843761351587_);stroke-width:30;stroke-linecap:round;stroke-miterlimit:10;}
	.st23{fill:#94EF45;}
	.st24{fill:none;stroke:#E6F4C3;stroke-width:30;stroke-linecap:round;stroke-linejoin:round;stroke-miterlimit:10;}
	.st25{fill:none;stroke:#E6F4C3;stroke-width:25;stroke-linecap:round;stroke-linejoin:round;stroke-miterlimit:10;}
	.st26{fill:none;stroke:#FFF7C0;stroke-width:30;stroke-linecap:round;stroke-miterlimit:10;}
</style>
<g>
	<path class="st0" d="M342.38,589.88c-6.41-10.65-9.48-23.49-9.22-38.54c0.27-15.05,4.8-30.1,13.61-45.17
		c8.81-15.07,21.96-27.88,39.46-38.41c16.26-9.79,32.41-15.42,48.46-16.9c16.05-1.48,30.56,0.9,43.54,7.15
		c12.98,6.25,23.12,15.43,30.41,27.54c5.74,9.54,8.83,19.06,9.29,28.56c0.46,9.51-0.41,18.47-2.58,26.88
		c-2.18,8.42-6.44,22.95-12.79,43.57c-1.74,5.78-2.98,10.69-3.71,14.71c-0.73,4.02-1,7.47-0.81,10.33s0.63,5.57,1.32,8.13
		c0.69,2.56,2.08,6.96,4.14,13.19c4.87,12.93,1.71,22.76-9.49,29.5c-5.83,3.51-11.88,4.55-18.15,3.14
		c-6.27-1.41-11.66-5.88-16.18-13.39c-5.66-9.41-9.1-18.43-10.33-27.08s-0.99-17.03,0.7-25.15c1.69-8.11,4.48-18.22,8.37-30.33
		c3.41-10.59,5.75-18.45,7.03-23.58c1.28-5.12,1.83-10.29,1.66-15.53s-1.63-10.16-4.4-14.75c-5.39-8.96-13.28-14.51-23.66-16.66
		c-10.38-2.15-20.85-0.05-31.39,6.29c-12.34,7.42-19.56,15.99-21.67,25.7c-2.11,9.71-1.55,21.8,1.67,36.28
		c3.86,15.05,0.46,25.78-10.2,32.19c-6.28,3.78-12.92,4.74-19.92,2.88C350.57,598.6,345.5,595.07,342.38,589.88z M535.32,724.87
		c-6.84,4.11-14.14,5.49-21.9,4.14c-7.76-1.36-14.03-6.01-18.82-13.97c-4.25-7.06-5.36-14.48-3.32-22.26
		c2.03-7.78,6.63-13.83,13.8-18.15c7.06-4.25,14.44-5.41,22.16-3.49s13.7,6.41,17.95,13.46c4.72,7.85,5.91,15.53,3.56,23.04
		C546.4,715.15,541.93,720.9,535.32,724.87z"/>
</g>
<g>
	<path class="st2" d="M680.25,724.51L427.76,863.64c-35.16,19.37-79.37,6.58-98.74-28.58L189.88,582.58
		c-19.37-35.16-6.58-79.37,28.58-98.74L470.95,344.7c35.16-19.37,79.37-6.58,98.74,28.58l139.13,252.49
		C728.2,660.93,715.4,705.13,680.25,724.51z"/>
	<path class="st3" d="M854.71,624.3l-285.19,42.13c-39.71,5.87-76.66-21.57-82.53-61.28l-42.13-285.19
		c-5.87-39.71,21.57-76.66,61.28-82.53l285.19-42.13c39.71-5.87,76.66,21.57,82.53,61.28l42.13,285.19
		C921.86,581.49,894.42,618.43,854.71,624.3z"/>
	<path class="st4" d="M452.89,363.12c0,0-212.56,117.18-227.89,125.58s-25.11,25.07-9.11,61.19c0,0-2.33-22.67,19.62-35.45
		c21.94-12.78,225.94-123.22,225.94-123.22L452.89,363.12z"/>
	<path class="st4" d="M877.38,595.56l-285.19,42.13c-39.71,5.87-76.66-21.57-82.53-61.28l-42.13-285.19
		c-2.07-14.04,0.03-27.73,5.36-39.83c-20.45,15.51-32.04,41.39-28.03,68.57l42.13,285.19c5.87,39.71,42.81,67.15,82.53,61.28
		l285.19-42.13c25.67-3.79,46.19-20.58,55.93-42.69C901.21,588.76,889.91,593.71,877.38,595.56z"/>
</g>
<path class="st4" d="M155.06,503.89c-0.44,21.26-4.42,39.06,13.65,72.22c18.07,33.16,131.56,241.19,151.41,277.93
	c19.85,36.74,83.7,43.14,109.63,28.44c25.93-14.7,263.7-149.93,279.11-158.22c15.41-8.3,36.15-35.26,43.85-66.37
	c0,26.07-5.39,69.78-57.93,98.67s-214.43,117.93-250.7,137.78c-36.26,19.85-108.09,26.17-144.71-40.3s-87.84-159.71-124.03-225.38
	c-11.65-21.13-19.86-38.92-24.49-55.19C143.88,548.91,145.09,527.81,155.06,503.89z"/>
<path class="st26" d="M854.33,417L835.1,277.37c-3.36-24.42-25.93-41.45-50.34-37.99l-58.43,8.29"/>
<line class="st26" x1="671.54" y1="257.7" x2="683.18" y2="256.04"/>
</svg>
