<?xml version="1.0" encoding="utf-8"?>
<!-- Generator: Adobe Illustrator 26.0.3, SVG Export Plug-In . SVG Version: 6.00 Build 0)  -->
<svg version="1.1" id="Слой_1" xmlns="http://www.w3.org/2000/svg" xmlns:xlink="http://www.w3.org/1999/xlink" x="0px" y="0px"
	 viewBox="0 0 1080 1080" style="enable-background:new 0 0 1080 1080;" xml:space="preserve">
<style type="text/css">
	.st0{fill:#0095E0;}
	.st1{fill:#0084DD;}
	.st2{fill:#00BEF9;}
	.st3{fill:#00A6EF;}
	.st4{fill:#E5E5E5;}
	.st5{fill:#C0FCFF;}
	.st6{fill:#97E4FF;}
	.st7{fill:#E9FEFF;}
	.st8{fill:#CE0000;}
	.st9{fill:#FFDA00;}
	.st10{fill:#FFB000;}
	.st11{fill:#FFEB99;}
	.st12{fill:url(#SVGID_1_);}
	.st13{fill:#E30613;}
	.st14{fill:#FF55DB;}
	.st15{fill:url(#SVGID_00000158002930438807178080000014710335600093971590_);}
	.st16{fill:url(#SVGID_00000101808930751359396220000004376088734665008041_);}
	.st17{fill:url(#SVGID_00000145766373758278951500000018398790777908494002_);}
	.st18{fill:#6600BF;}
	.st19{fill:url(#SVGID_00000026145149029220299320000009574452079439651241_);}
	.st20{fill:#3E0066;}
	.st21{fill:#FF92E5;}
	.st22{fill:url(#SVGID_00000145033093622504104430000002634672262193522841_);}
	.st23{fill:url(#SVGID_00000175285349882177362690000008139811002580102053_);}
	.st24{fill:url(#SVGID_00000081613590461672587440000014628562257348915335_);}
	.st25{fill:none;stroke:#410096;stroke-width:13;stroke-linecap:round;stroke-miterlimit:10;}
	.st26{fill:none;stroke:#3D0084;stroke-width:23;stroke-linecap:round;stroke-miterlimit:10;}
	.st27{fill:#00A867;}
	.st28{fill:#FFA6DD;}
	.st29{fill:#FF88D2;}
	.st30{fill:#00DB68;}
	.st31{fill:#008464;}
	.st32{fill:#FFB8E7;}
	.st33{fill:#FFD2F2;}
	.st34{fill:#FFC5EC;}
	.st35{fill:#FFE6FA;}
	.st36{fill:#E50016;}
	.st37{fill:#FF1F1F;}
	.st38{fill:#C6001D;}
	.st39{fill:url(#SVGID_00000128471006780988653580000017749906587803273919_);}
	.st40{fill:url(#SVGID_00000142148771329219841750000004018419666678672257_);}
	.st41{fill:#FF6155;}
	.st42{fill:#009640;}
	.st43{fill:#00C650;}
	.st44{fill:#007F2D;}
	.st45{fill:none;stroke:#A06600;stroke-width:20;stroke-linecap:round;stroke-miterlimit:10;}
	.st46{fill:none;stroke:#60352B;stroke-width:20;stroke-linecap:round;stroke-miterlimit:10;}
	.st47{fill:none;stroke:#6D3600;stroke-width:20;stroke-linecap:round;stroke-miterlimit:10;}
	.st48{fill:none;stroke:#60352B;stroke-width:15;stroke-linecap:round;stroke-miterlimit:10;}
	.st49{fill:#00F445;}
	.st50{fill:#FFCE00;}
	.st51{fill:#FFDE3B;}
	.st52{fill:#5B3800;}
	.st53{fill:#844200;}
	.st54{fill:#422700;}
	.st55{fill:#7F3900;}
	.st56{fill:#774600;}
	.st57{fill:#0088ED;}
	.st58{fill:#08C5FF;}
	.st59{fill:#006054;}
	.st60{fill:#00894B;}
	.st61{fill:#004C43;}
	.st62{fill:#007C4F;}
	.st63{fill:#009B3F;}
	.st64{fill:url(#SVGID_00000074426070896766217590000005621089047973542565_);}
	.st65{fill:url(#SVGID_00000031197762555431836820000016021051716795426236_);}
	.st66{fill:url(#SVGID_00000029019618945026403460000005016489938624616856_);}
	.st67{fill:url(#SVGID_00000163768450280486721840000002950628138411471534_);}
	.st68{fill:url(#SVGID_00000093863568647706233500000014934861813837519786_);}
	.st69{fill:url(#SVGID_00000119088102969687507060000013995101826059049133_);}
	.st70{fill:url(#SVGID_00000182524925638753022120000002582863289674929320_);}
	.st71{fill:url(#SVGID_00000144320660326491505010000004593747517131591318_);}
	.st72{fill:url(#SVGID_00000088819337829359576980000015830056846197421745_);}
	.st73{fill:url(#SVGID_00000151522823695472213980000000789602772549840014_);}
	.st74{fill:url(#SVGID_00000060021797254089273700000001073381289239296185_);}
	.st75{fill:url(#SVGID_00000016051159053721259450000013078959109291574697_);}
	.st76{fill:url(#SVGID_00000112626733092008701740000004461440936464795576_);}
	.st77{fill:url(#SVGID_00000132050970179720611760000011705358936156246662_);}
	.st78{fill:url(#SVGID_00000061432333474317465500000003481821848706151354_);}
	.st79{fill:url(#SVGID_00000087390785201869363170000015160363749410779522_);}
	.st80{fill:url(#SVGID_00000150094998756048276180000013149135943877632164_);}
	.st81{fill:url(#SVGID_00000135681673577360497840000008319298545509502875_);}
	.st82{fill:url(#SVGID_00000058583227382563120140000003376354923070570115_);}
	.st83{fill:url(#SVGID_00000067229304058758497720000017340407729902790571_);}
	.st84{fill:url(#SVGID_00000049210146918216806280000015906731991291509681_);}
	.st85{fill:url(#SVGID_00000049216892004856279210000000204539649168918429_);}
	.st86{fill:url(#SVGID_00000023266853644043541970000010170125088492104371_);}
	.st87{fill:url(#SVGID_00000043449902290181219520000004019629594866037678_);}
	.st88{fill:url(#SVGID_00000116219991028699515040000007569330664425160076_);}
	.st89{fill:url(#SVGID_00000067230469658210738340000005539116128888903056_);}
	.st90{fill:url(#SVGID_00000098186197555506566210000001597636876400166838_);}
	.st91{fill:url(#SVGID_00000181058301742586000590000006507617980883177151_);}
	.st92{fill:url(#SVGID_00000115488281783112150720000013277502557375249834_);}
	.st93{fill:url(#SVGID_00000145745404578600807670000011363211061377020804_);}
	.st94{fill:url(#SVGID_00000047745872005614659480000006785431820467720607_);}
	.st95{fill:url(#SVGID_00000021838026029934410160000013287481733039362205_);}
	.st96{fill:url(#SVGID_00000042008925454112014140000008657464915704396479_);}
	.st97{fill:url(#SVGID_00000136395914265884172640000000880929932132958629_);}
	.st98{fill:url(#SVGID_00000127725050398349972990000016293210585065795489_);}
	.st99{fill:url(#SVGID_00000074443752274195810870000008737374177987121549_);}
	.st100{fill:url(#SVGID_00000075144780455188082940000015647853456275336604_);}
	.st101{fill:url(#SVGID_00000121958444595159026880000001102817137793174656_);}
	.st102{fill:url(#SVGID_00000057853697432962445520000005107377067052664245_);}
	.st103{fill:url(#SVGID_00000044160160155595440810000003617237602000057236_);}
	.st104{fill:url(#SVGID_00000009561880793089028450000018231778043166098623_);}
	.st105{fill:url(#SVGID_00000000211771855482718430000006904640749592911283_);}
	.st106{fill:url(#SVGID_00000174564181891405046730000007990233198525875104_);}
	.st107{fill:url(#SVGID_00000149346684893703045200000008375147560706793376_);}
	.st108{fill:url(#SVGID_00000096770673717183315970000000210998019435330199_);}
	.st109{fill:url(#SVGID_00000029040658876222302460000013631161849828886173_);}
	.st110{fill:url(#SVGID_00000142157197159307509960000017057407610240994442_);}
	.st111{fill:url(#SVGID_00000058568919071679389980000015166224181379911321_);}
	.st112{fill:url(#SVGID_00000067955252374754637380000011151895713469310870_);}
	.st113{fill:url(#SVGID_00000116193734070479843000000006007409484379204523_);}
	.st114{fill:url(#SVGID_00000150098287531086739520000000437116509725368508_);}
	.st115{fill:#FFBC27;}
	.st116{fill:url(#SVGID_00000053517507909449438870000001577988371547032962_);}
	.st117{fill:url(#SVGID_00000034074731293050793070000007164027608511347631_);}
	.st118{fill:url(#SVGID_00000105418782389230276900000006299413628884760761_);}
	.st119{fill:url(#SVGID_00000164486335359689574960000004427754471639669898_);}
	.st120{fill:url(#SVGID_00000069374695765592619830000007821678776494614660_);}
	.st121{fill:url(#SVGID_00000031908290327422456920000002979332729650283709_);}
	.st122{fill:url(#SVGID_00000021107423971071932240000007264192942432885925_);}
	.st123{fill:url(#SVGID_00000041274872573170847040000016628530594850399669_);}
	.st124{fill:url(#SVGID_00000021077647920652309910000016488058634608945306_);}
	.st125{fill:url(#SVGID_00000046330296788549324570000004707371379247956635_);}
	.st126{fill:url(#SVGID_00000117670786119916140120000016399453585118934152_);}
	.st127{fill:url(#SVGID_00000183961968721789021970000006925639376265972881_);}
	.st128{fill:url(#SVGID_00000034079206701069882410000001750855700211393458_);}
	.st129{fill:url(#SVGID_00000102516763198790664010000013550048132631742907_);}
	.st130{fill:url(#SVGID_00000147924658970860196370000012617245579893810852_);}
	.st131{fill:url(#SVGID_00000006666316945677778300000010860340426637440952_);}
	.st132{fill:url(#SVGID_00000121243824692668990900000000967640888242610606_);}
	.st133{fill:url(#SVGID_00000169518021862835523200000009299152978385159589_);}
	.st134{fill:url(#SVGID_00000018217405170061294500000011477887577005132675_);}
	.st135{fill:url(#SVGID_00000128462015839737826350000016614102594097073308_);}
	.st136{fill:url(#SVGID_00000173161732598779889500000001857407786854302112_);}
	.st137{fill:url(#SVGID_00000139285958776964784270000017946449092485754013_);}
	.st138{fill:url(#SVGID_00000111177822673496219850000015983707563052668071_);}
	.st139{fill:url(#SVGID_00000085962983913614061230000016195812412620301754_);}
	.st140{fill:url(#SVGID_00000178893002406782902700000016247487286180905402_);}
	.st141{fill:url(#SVGID_00000091723285512828602220000000912719072683734709_);}
	.st142{fill:url(#SVGID_00000066475389283111810130000008520037642341892253_);}
	.st143{fill:url(#SVGID_00000110467436102269019440000005569070758507018670_);}
	.st144{fill:url(#SVGID_00000051354523691804803180000014356989519108534428_);}
	.st145{fill:url(#SVGID_00000106143276672585626560000017945110223154885007_);}
	.st146{fill:url(#SVGID_00000059282635174252233230000001144823063838633899_);}
	.st147{fill:url(#SVGID_00000076589830521550072130000004195389585398686367_);}
	.st148{fill:url(#SVGID_00000062907054302894507460000003802936217074713224_);}
	.st149{fill:url(#SVGID_00000121980793198482454160000002253179960212080275_);}
	.st150{fill:url(#SVGID_00000011015098754634173490000010877388767396326815_);}
	.st151{fill:url(#SVGID_00000053523717006951572810000011872613508008270766_);}
	.st152{fill:url(#SVGID_00000047029288714953291310000015436305020718209664_);}
	.st153{fill:url(#SVGID_00000158751010491005982790000010781678024142213034_);}
	.st154{fill:url(#SVGID_00000153669362672204401300000004253774268758538140_);}
	.st155{fill:url(#SVGID_00000161625207638945237300000007911210692907966897_);}
	.st156{fill:url(#SVGID_00000112590194121506208260000016134807063278429872_);}
	.st157{fill:url(#SVGID_00000032617615088404201740000011609400681947561096_);}
	.st158{fill:url(#SVGID_00000116928728395111445260000015725791441951490704_);}
	.st159{fill:url(#SVGID_00000019665925718954621060000013896937224484892806_);}
	.st160{fill:url(#SVGID_00000110454344630268372460000012720847969009641892_);}
	.st161{fill:url(#SVGID_00000113332002856438249210000005197802444628112300_);}
	.st162{fill:url(#SVGID_00000013905034841652474570000004124058349269928601_);}
	.st163{fill:url(#SVGID_00000018920801791766191600000000378548182370114478_);}
	.st164{fill:#FFC545;}
	.st165{fill:url(#SVGID_00000132801969479343625290000017168603978481565882_);}
	.st166{fill:url(#SVGID_00000149351932655832528000000008147114617291776907_);}
	.st167{fill:url(#SVGID_00000021819613825702950800000010527568060851072937_);}
	.st168{fill:url(#SVGID_00000173162555177466150280000013363269835445612195_);}
	.st169{fill:url(#SVGID_00000008114470657216105100000017277403056230829216_);}
	.st170{fill:url(#SVGID_00000134968935578476699920000009931850809556193452_);}
	.st171{fill:url(#SVGID_00000132059235165744632280000004358232203605263266_);}
	.st172{fill:url(#SVGID_00000089566526808292141550000008078105571448040101_);}
	.st173{fill:url(#SVGID_00000001624630144144102460000004158514976322050723_);}
	.st174{fill:url(#SVGID_00000165917197478298561970000015244587435718172821_);}
	.st175{fill:url(#SVGID_00000053539514564986719250000015321866038106363813_);}
	.st176{fill:url(#SVGID_00000173124144579035842490000001008855466548849064_);}
	.st177{fill:url(#SVGID_00000017481424155187511960000016216148060787477174_);}
	.st178{fill:url(#SVGID_00000093169980891580323740000006107633273781355428_);}
	.st179{fill:url(#SVGID_00000181052090829182805500000001281490699852367550_);}
	.st180{fill:url(#SVGID_00000078006633760510072810000008578978505153965445_);}
	.st181{fill:url(#SVGID_00000153683332283513372590000006670094028531815097_);}
	.st182{fill:url(#SVGID_00000150101831344454169110000001861199555712303249_);}
	.st183{fill:url(#SVGID_00000165957571760269845370000016795850283451443072_);}
	.st184{fill:url(#SVGID_00000163792090189790792710000012923617007263751329_);}
	.st185{fill:url(#SVGID_00000155830825818867580090000017599089581505960372_);}
	.st186{fill:url(#SVGID_00000036216760400533516490000004971403665879478422_);}
	.st187{fill:url(#SVGID_00000069387098757093562460000006025547393252385716_);}
	.st188{fill:url(#SVGID_00000132077028344531327000000002326547539471969455_);}
	.st189{fill:url(#SVGID_00000111175959472774748460000011268055876071655354_);}
	.st190{fill:url(#SVGID_00000054958420939069667740000012645769837985936289_);}
	.st191{fill:url(#SVGID_00000159438415594656370370000007625361873232579220_);}
	.st192{fill:url(#SVGID_00000160904936410505545590000014189984837499471519_);}
	.st193{fill:url(#SVGID_00000019659859445162261160000006237392883871976628_);}
	.st194{fill:url(#SVGID_00000112591457554693420060000007974885683005301409_);}
	.st195{fill:url(#SVGID_00000134957252358592512780000017774511243229469069_);}
	.st196{fill:url(#SVGID_00000010287215311679209430000003030505467119403948_);}
	.st197{fill:url(#SVGID_00000181049893264924006380000011437287935278925464_);}
	.st198{fill:url(#SVGID_00000046332674378245274320000017540590531999542426_);}
	.st199{fill:url(#SVGID_00000170248856644201992010000001869848184509342639_);}
	.st200{fill:url(#SVGID_00000102506951570476559730000006051537342288688302_);}
	.st201{fill:url(#SVGID_00000170994155988069824330000011628647593089170322_);}
	.st202{fill:url(#SVGID_00000147938723457792259510000015207559799560260224_);}
	.st203{fill:url(#SVGID_00000009588800460063090120000016460738802741014448_);}
	.st204{fill:url(#SVGID_00000157268148614096548380000017880707388822270137_);}
	.st205{fill:url(#SVGID_00000034773359356004453550000005021305119573412270_);}
	.st206{fill:url(#SVGID_00000057131726056393593390000006189688185643918476_);}
	.st207{fill:url(#SVGID_00000134929301989701940360000010868220751479515062_);}
	.st208{fill:url(#SVGID_00000075149684209470989760000006262856339341230223_);}
	.st209{fill:url(#SVGID_00000004547225068979478690000001314985381744699579_);}
	.st210{fill:url(#SVGID_00000165915703356148399380000014806803244978284197_);}
	.st211{fill:url(#SVGID_00000129901967196702412350000000245988635412479368_);}
	.st212{fill:url(#SVGID_00000090258307682172452200000009466151508229967019_);}
	.st213{fill:url(#SVGID_00000101087210622440002580000003129495163816160413_);}
	.st214{fill:url(#SVGID_00000120555266430912862550000007184283088428478886_);}
	.st215{fill:url(#SVGID_00000005977887974634839310000016861761850401576332_);}
	.st216{fill:url(#SVGID_00000046311688965384250550000010942226825140763571_);}
	.st217{fill:url(#SVGID_00000024692516676560841690000001155156189786222232_);}
	.st218{fill:url(#SVGID_00000111180857925303985560000012642022376601409170_);}
	.st219{fill:url(#SVGID_00000080207083751155404510000002560778926550653879_);}
	.st220{fill:url(#SVGID_00000009580268418522675910000017727984811593445516_);}
	.st221{fill:url(#SVGID_00000015316299969377162590000008694304195322567811_);}
	.st222{fill:url(#SVGID_00000165217596343888012470000007454336650371839616_);}
	.st223{fill:url(#SVGID_00000154413132837788778120000003509752843700944008_);}
	.st224{fill:url(#SVGID_00000183961231534685841830000009898983672888131205_);}
	.st225{fill:url(#SVGID_00000130627669048901612930000003439173849688711598_);}
	.st226{fill:url(#SVGID_00000082332027656491033870000011840639155553322923_);}
	.st227{fill:url(#SVGID_00000130639611574663598890000014870096295686961567_);}
	.st228{fill:url(#SVGID_00000101085928271164429420000013348776497077122197_);}
</style>
<g>
	<g>
		<g>
			<g>
				<path class="st0" d="M557.64,241.31c11.3,11.35,22.21,23.87,32.43,37.03c6.2,8,12.15,16.22,17.77,24.59
					c0.01,0.01,0.02,0.02,0.02,0.03c44.09,65.58,68.3,139.33,39.5,167.99c-38.53,38.34-155.41-22.59-227.3-94.82
					c-3.03-3.05-5.94-6.07-8.7-9.06c-8.39-9.03-15.63-17.8-21.79-26.3c0,0,0,0-0.01-0.01s-0.02-0.03-0.03-0.05
					c-40.16-55.39-34.5-99.52-2.52-131.35C425.53,171.02,485.74,169.07,557.64,241.31z"/>
				<path class="st1" d="M607.85,302.96c44.09,65.58,68.3,139.33,39.5,167.99c-38.53,38.34-155.41-22.59-227.3-94.82
					c-3.03-3.05-5.94-6.07-8.7-9.06c32.69,27.86,84.22,58.31,111.85,66.88c28.25,8.77,35.02,12.65,40.48-1.48
					c5.47-14.12-76.16-86.68-68.52-94.28c7.63-7.59,112.47,108.4,124.49,96.46c8.19-8.13-10.95-24.88-18.08-33.14
					c-23.65-27.4-66.41-66.97-59.87-73.48s88.15,71.37,91.45,57.24C636.38,371.38,608.72,305.02,607.85,302.96z"/>
				<path class="st2" d="M557.64,241.31c11.3,11.35,22.21,23.87,32.43,37.03c0,0-51.52-46.96-73.25-55.71
					c-21.72-8.74,13.06,23.52,22.63,37.27c22.4,32.19-0.1,44.46-16.03,35.72c-15.92-8.74-53.33-44.25-77.92-53.1
					c-20.28-7.3-47.76-5.89-58.56,35.62c-10.47,40.23,1.82,61.29,2.59,62.57c-40.16-55.39-34.5-99.52-2.52-131.35
					C425.53,171.02,485.74,169.07,557.64,241.31z"/>
			</g>
			
				<ellipse transform="matrix(0.0563 -0.9984 0.9984 0.0563 141.2834 1166.6952)" class="st3" cx="687.8" cy="508.61" rx="28.7" ry="28.7"/>
		</g>
	</g>
	<g>
		<g>
			<g>
				<path class="st0" d="M761.45,341.29c-0.04,16.02-1.17,32.58-3.25,49.11c-1.27,10.04-2.88,20.06-4.82,29.95
					c0,0.01,0,0.02-0.01,0.03c-15.2,77.55-50.23,146.81-90.86,146.72c-54.36-0.13-93.92-125.86-93.68-227.77
					c0.01-4.3,0.09-8.49,0.25-12.56c0.46-12.32,1.53-23.64,3.19-34c0,0,0,0,0-0.01c0-0.01,0.01-0.03,0.01-0.06
					c10.77-67.56,45.98-94.76,91.09-94.66C717.73,198.18,761.69,239.37,761.45,341.29z"/>
				<path class="st1" d="M753.36,420.39c-15.2,77.55-50.23,146.81-90.86,146.72c-54.36-0.13-93.92-125.86-93.68-227.77
					c0.01-4.3,0.09-8.49,0.25-12.56c3.42,42.82,18.32,100.79,31.8,126.39c13.78,26.18,15.81,33.7,29.67,27.58
					c13.85-6.11,7.44-115.14,18.22-115.12c10.76,0.03,2.88,156.18,19.82,156.24c11.54,0.04,9.85-25.34,10.65-36.22
					c2.65-36.1,0.4-94.32,9.62-94.29c9.23,0.02,11.87,112.8,24.19,105.13C725.15,488.95,752.51,422.46,753.36,420.39z"/>
				<path class="st2" d="M761.45,341.29c-0.04,16.02-1.17,32.58-3.25,49.11c0,0-3.23-69.63-12.4-91.19
					c-9.18-21.54-7.4,25.86-10.36,42.35c-6.93,38.6-31.51,31.36-36.6,13.92c-5.08-17.44-6.42-69-17.55-92.65
					c-9.18-19.5-29.6-37.94-66.6-16.22c-35.85,21.04-42.05,44.63-42.41,46.08c10.77-67.56,45.98-94.76,91.09-94.66
					C717.73,198.18,761.69,239.37,761.45,341.29z"/>
			</g>
			
				<ellipse transform="matrix(0.7071 -0.7071 0.7071 0.7071 -245.4425 652.1321)" class="st3" cx="664.47" cy="622.34" rx="28.7" ry="28.7"/>
		</g>
	</g>
	<g>
		<g>
			<g>
				<path class="st0" d="M834.86,556.1c-11.35,11.3-23.87,22.21-37.03,32.43c-8,6.2-16.22,12.15-24.59,17.77
					c-0.01,0.01-0.02,0.02-0.03,0.02c-65.58,44.09-139.33,68.3-167.99,39.5c-38.34-38.53,22.59-155.41,94.82-227.3
					c3.05-3.03,6.07-5.94,9.06-8.7c9.03-8.39,17.8-15.63,26.3-21.79c0,0,0,0,0.01-0.01c0.01-0.01,0.03-0.02,0.05-0.03
					c55.39-40.16,99.52-34.5,131.35-2.52C905.14,423.99,907.1,484.21,834.86,556.1z"/>
				<path class="st1" d="M773.21,606.32c-65.58,44.09-139.33,68.3-167.99,39.5c-38.34-38.53,22.59-155.41,94.82-227.3
					c3.05-3.03,6.07-5.94,9.06-8.7c-27.86,32.69-58.31,84.22-66.88,111.85c-8.77,28.25-12.65,35.02,1.48,40.48
					c14.12,5.47,86.68-76.16,94.28-68.52c7.59,7.63-108.4,112.47-96.46,124.49c8.13,8.19,24.88-10.95,33.14-18.08
					c27.4-23.65,66.97-66.41,73.48-59.87s-71.37,88.15-57.24,91.45C704.79,634.85,771.15,607.19,773.21,606.32z"/>
				<path class="st2" d="M834.86,556.1c-11.35,11.3-23.87,22.21-37.03,32.43c0,0,46.96-51.52,55.71-73.25
					c8.74-21.72-23.52,13.06-37.27,22.63c-32.19,22.4-44.46-0.1-35.72-16.03c8.74-15.92,44.25-53.33,53.1-77.92
					c7.3-20.28,5.89-47.76-35.62-58.56c-40.23-10.47-61.29,1.82-62.57,2.59c55.39-40.16,99.52-34.5,131.35-2.52
					C905.14,423.99,907.1,484.21,834.86,556.1z"/>
			</g>
			
				<ellipse transform="matrix(0.0563 -0.9984 0.9984 0.0563 -149.564 1214.2964)" class="st3" cx="567.56" cy="686.26" rx="28.7" ry="28.7"/>
		</g>
	</g>
	<g>
		<g>
			<g>
				<path class="st0" d="M734.88,759.91c-16.02-0.04-32.58-1.17-49.11-3.25c-10.04-1.27-20.06-2.88-29.95-4.82
					c-0.01,0-0.02,0-0.03-0.01c-77.55-15.2-146.81-50.23-146.72-90.86c0.13-54.36,125.86-93.92,227.77-93.68
					c4.3,0.01,8.49,0.09,12.56,0.25c12.32,0.46,23.64,1.53,34,3.19c0,0,0,0,0.01,0c0.01,0,0.03,0.01,0.06,0.01
					c67.56,10.77,94.76,45.98,94.66,91.09C877.99,716.19,836.8,760.15,734.88,759.91z"/>
				<path class="st1" d="M655.78,751.82c-77.55-15.2-146.81-50.23-146.72-90.86c0.13-54.36,125.86-93.92,227.77-93.68
					c4.3,0.01,8.49,0.09,12.56,0.25c-42.82,3.42-100.79,18.32-126.39,31.8c-26.18,13.78-33.7,15.81-27.58,29.67
					c6.11,13.85,115.14,7.44,115.12,18.22c-0.03,10.76-156.18,2.88-156.24,19.82c-0.04,11.54,25.34,9.85,36.22,10.65
					c36.1,2.65,94.32,0.4,94.29,9.62c-0.02,9.23-112.8,11.87-105.13,24.19C587.22,723.61,653.7,750.98,655.78,751.82z"/>
				<path class="st2" d="M734.88,759.91c-16.02-0.04-32.58-1.17-49.11-3.25c0,0,69.63-3.23,91.19-12.4
					c21.54-9.18-25.86-7.4-42.35-10.36c-38.6-6.93-31.36-31.51-13.92-36.6c17.44-5.08,69-6.42,92.65-17.55
					c19.5-9.18,37.94-29.6,16.22-66.6c-21.04-35.85-44.63-42.05-46.08-42.41c67.56,10.77,94.76,45.98,94.66,91.09
					C877.99,716.19,836.8,760.15,734.88,759.91z"/>
			</g>
			
				<ellipse transform="matrix(0.7071 -0.7071 0.7071 0.7071 -335.8437 515.0736)" class="st3" cx="453.83" cy="662.94" rx="28.7" ry="28.7"/>
		</g>
	</g>
	<g>
		<g>
			<g>
				<path class="st0" d="M520.06,833.33c-11.3-11.35-22.21-23.87-32.43-37.03c-6.2-8-12.15-16.22-17.77-24.59
					c-0.01-0.01-0.02-0.02-0.02-0.03c-44.09-65.58-68.3-139.33-39.5-167.99c38.53-38.34,155.41,22.59,227.3,94.82
					c3.03,3.05,5.94,6.07,8.7,9.06c8.39,9.03,15.63,17.8,21.79,26.3c0,0,0,0,0.01,0.01c0.01,0.01,0.02,0.03,0.03,0.05
					c40.16,55.39,34.5,99.52,2.52,131.35C652.18,903.61,591.96,905.56,520.06,833.33z"/>
				<path class="st1" d="M469.85,771.68c-44.09-65.58-68.3-139.33-39.5-167.99c38.53-38.34,155.41,22.59,227.3,94.82
					c3.03,3.05,5.94,6.07,8.7,9.06c-32.69-27.86-84.22-58.31-111.85-66.88c-28.25-8.77-35.02-12.65-40.48,1.48
					c-5.47,14.12,76.16,86.68,68.52,94.28c-7.63,7.59-112.47-108.4-124.49-96.46c-8.19,8.13,10.95,24.88,18.08,33.14
					c23.65,27.4,66.41,66.97,59.87,73.48s-88.15-71.37-91.45-57.24C441.32,703.25,468.98,769.61,469.85,771.68z"/>
				<path class="st2" d="M520.06,833.33c-11.3-11.35-22.21-23.87-32.43-37.03c0,0,51.52,46.96,73.25,55.71
					c21.72,8.74-13.06-23.52-22.63-37.27c-22.4-32.19,0.1-44.46,16.03-35.72c15.92,8.74,53.33,44.25,77.92,53.1
					c20.28,7.3,47.76,5.89,58.56-35.62c10.47-40.23-1.82-61.29-2.59-62.57c40.16,55.39,34.5,99.52,2.52,131.35
					C652.18,903.61,591.96,905.56,520.06,833.33z"/>
			</g>
			
				<ellipse transform="matrix(0.0563 -0.9984 0.9984 0.0563 -197.1653 923.449)" class="st3" cx="389.9" cy="566.02" rx="28.7" ry="28.7"/>
		</g>
	</g>
	<g>
		<g>
			<g>
				<path class="st0" d="M316.26,733.34c0.04-16.02,1.17-32.58,3.25-49.11c1.27-10.04,2.88-20.06,4.82-29.95
					c0-0.01,0-0.02,0.01-0.03c15.2-77.55,50.23-146.81,90.86-146.72c54.36,0.13,93.92,125.86,93.68,227.77
					c-0.01,4.3-0.09,8.49-0.25,12.56c-0.46,12.32-1.53,23.64-3.19,34c0,0,0,0,0,0.01s-0.01,0.03-0.01,0.06
					c-10.77,67.56-45.98,94.76-91.09,94.66C359.98,876.46,316.02,835.26,316.26,733.34z"/>
				<path class="st1" d="M324.34,654.24c15.2-77.55,50.23-146.81,90.86-146.72c54.36,0.13,93.92,125.86,93.68,227.77
					c-0.01,4.3-0.09,8.49-0.25,12.56c-3.42-42.82-18.32-100.79-31.8-126.39c-13.78-26.18-15.81-33.7-29.67-27.58
					c-13.85,6.11-7.44,115.14-18.22,115.12c-10.76-0.03-2.88-156.18-19.82-156.24c-11.54-0.04-9.85,25.34-10.65,36.22
					c-2.65,36.1-0.4,94.32-9.62,94.29c-9.23-0.02-11.87-112.8-24.19-105.13C352.55,585.69,325.19,652.17,324.34,654.24z"/>
				<path class="st2" d="M316.26,733.34c0.04-16.02,1.17-32.58,3.25-49.11c0,0,3.23,69.63,12.4,91.19
					c9.18,21.54,7.4-25.86,10.36-42.35c6.93-38.6,31.51-31.36,36.6-13.92c5.08,17.44,6.42,69,17.55,92.65
					c9.18,19.5,29.6,37.94,66.6,16.22c35.85-21.04,42.05-44.63,42.41-46.08c-10.77,67.56-45.98,94.76-91.09,94.66
					C359.98,876.46,316.02,835.26,316.26,733.34z"/>
			</g>
			
				<ellipse transform="matrix(0.7071 -0.7071 0.7071 0.7071 -198.7852 424.6723)" class="st3" cx="413.23" cy="452.29" rx="28.7" ry="28.7"/>
		</g>
	</g>
	<g>
		<g>
			<g>
				<path class="st0" d="M242.84,518.53c11.35-11.3,23.87-22.21,37.03-32.43c8-6.2,16.22-12.15,24.59-17.77
					c0.01-0.01,0.02-0.02,0.03-0.02c65.58-44.09,139.33-68.3,167.99-39.5c38.34,38.53-22.59,155.41-94.82,227.3
					c-3.05,3.03-6.07,5.94-9.06,8.7c-9.03,8.39-17.8,15.63-26.3,21.79c0,0,0,0-0.01,0.01c-0.01,0.01-0.03,0.02-0.05,0.03
					c-55.39,40.16-99.52,34.5-131.35,2.52C172.56,650.64,170.61,590.43,242.84,518.53z"/>
				<path class="st1" d="M304.49,468.32c65.58-44.09,139.33-68.3,167.99-39.5c38.34,38.53-22.59,155.41-94.82,227.3
					c-3.05,3.03-6.07,5.94-9.06,8.7c27.86-32.69,58.31-84.22,66.88-111.85c8.77-28.25,12.65-35.02-1.48-40.48
					c-14.12-5.47-86.68,76.16-94.28,68.52c-7.59-7.63,108.4-112.47,96.46-124.49c-8.13-8.19-24.88,10.95-33.14,18.08
					c-27.4,23.65-66.97,66.41-73.48,59.87c-6.51-6.54,71.37-88.15,57.24-91.45C372.92,439.79,306.56,467.45,304.49,468.32z"/>
				<path class="st2" d="M242.84,518.53c11.35-11.3,23.87-22.21,37.03-32.43c0,0-46.96,51.52-55.71,73.25
					c-8.74,21.72,23.52-13.06,37.27-22.63c32.19-22.4,44.46,0.1,35.72,16.03c-8.74,15.92-44.25,53.33-53.1,77.92
					c-7.3,20.28-5.89,47.76,35.62,58.56c40.23,10.47,61.29-1.82,62.57-2.59c-55.39,40.16-99.52,34.5-131.35,2.52
					C172.56,650.64,170.61,590.43,242.84,518.53z"/>
			</g>
			
				<ellipse transform="matrix(0.0563 -0.9984 0.9984 0.0563 93.6822 875.8477)" class="st3" cx="510.15" cy="388.37" rx="28.7" ry="28.7"/>
		</g>
	</g>
	<g>
		<g>
			<g>
				<path class="st0" d="M342.83,314.72c16.02,0.04,32.58,1.17,49.11,3.25c10.04,1.27,20.06,2.88,29.95,4.82
					c0.01,0,0.02,0,0.03,0.01c77.55,15.2,146.81,50.23,146.72,90.86c-0.13,54.36-125.86,93.92-227.77,93.68
					c-4.3-0.01-8.49-0.09-12.56-0.25c-12.32-0.46-23.64-1.53-34-3.19c0,0,0,0-0.01,0c-0.01,0-0.03-0.01-0.06-0.01
					c-67.56-10.77-94.76-45.98-94.66-91.09C199.71,358.44,240.91,314.48,342.83,314.72z"/>
				<path class="st1" d="M421.93,322.81c77.55,15.2,146.81,50.23,146.72,90.86c-0.13,54.36-125.86,93.92-227.77,93.68
					c-4.3-0.01-8.49-0.09-12.56-0.25c42.82-3.42,100.79-18.32,126.39-31.8c26.18-13.78,33.7-15.81,27.58-29.67
					c-6.11-13.85-115.14-7.44-115.12-18.22c0.03-10.76,156.18-2.88,156.24-19.82c0.04-11.54-25.34-9.85-36.22-10.65
					c-36.1-2.65-94.32-0.4-94.29-9.62c0.02-9.23,112.8-11.87,105.13-24.19C490.48,351.02,424,323.65,421.93,322.81z"/>
				<path class="st2" d="M342.83,314.72c16.02,0.04,32.58,1.17,49.11,3.25c0,0-69.63,3.23-91.19,12.4
					c-21.54,9.18,25.86,7.4,42.35,10.36c38.6,6.93,31.36,31.51,13.92,36.6c-17.44,5.08-69,6.42-92.65,17.55
					c-19.5,9.18-37.94,29.6-16.22,66.6c21.04,35.85,44.63,42.05,46.08,42.41c-67.56-10.77-94.76-45.98-94.66-91.09
					C199.71,358.44,240.91,314.48,342.83,314.72z"/>
			</g>
			
				<ellipse transform="matrix(0.7071 -0.7071 0.7071 0.7071 -108.384 561.7308)" class="st3" cx="623.88" cy="411.7" rx="28.7" ry="28.7"/>
		</g>
	</g>
	<g>
		<g>
			<g>
				<path class="st0" d="M557.64,241.31c11.3,11.35,22.21,23.87,32.43,37.03c6.2,8,12.15,16.22,17.77,24.59
					c0.01,0.01,0.02,0.02,0.02,0.03c44.09,65.58,68.3,139.33,39.5,167.99c-38.53,38.34-155.41-22.59-227.3-94.82
					c-3.03-3.05-5.94-6.07-8.7-9.06c-8.39-9.03-15.63-17.8-21.79-26.3c0,0,0,0-0.01-0.01s-0.02-0.03-0.03-0.05
					c-40.16-55.39-34.5-99.52-2.52-131.35C425.53,171.02,485.74,169.07,557.64,241.31z"/>
				<path class="st1" d="M607.85,302.96c44.09,65.58,68.3,139.33,39.5,167.99c-38.53,38.34-155.41-22.59-227.3-94.82
					c-3.03-3.05-5.94-6.07-8.7-9.06c32.69,27.86,84.22,58.31,111.85,66.88c28.25,8.77,35.02,12.65,40.48-1.48
					c5.47-14.12-76.16-86.68-68.52-94.28c7.63-7.59,112.47,108.4,124.49,96.46c8.19-8.13-10.95-24.88-18.08-33.14
					c-23.65-27.4-66.41-66.97-59.87-73.48s88.15,71.37,91.45,57.24C636.38,371.38,608.72,305.02,607.85,302.96z"/>
				<path class="st2" d="M557.64,241.31c11.3,11.35,22.21,23.87,32.43,37.03c0,0-51.52-46.96-73.25-55.71
					c-21.72-8.74,13.06,23.52,22.63,37.27c22.4,32.19-0.1,44.46-16.03,35.72c-15.92-8.74-53.33-44.25-77.92-53.1
					c-20.28-7.3-47.76-5.89-58.56,35.62c-10.47,40.23,1.82,61.29,2.59,62.57c-40.16-55.39-34.5-99.52-2.52-131.35
					C425.53,171.02,485.74,169.07,557.64,241.31z"/>
			</g>
			
				<ellipse transform="matrix(0.0563 -0.9984 0.9984 0.0563 141.2835 1166.6952)" class="st3" cx="687.8" cy="508.61" rx="28.7" ry="28.7"/>
		</g>
	</g>
</g>
<g>
	<g>
		<g>
			<g>
				<path class="st3" d="M622.36,268.3c0,13.89-0.95,28.25-2.72,42.59c-1.08,8.71-2.46,17.4-4.12,25.98c0,0.01,0,0.02-0.01,0.03
					c-13.02,67.27-43.25,127.4-78.48,127.4c-47.13,0-81.69-108.94-81.69-197.3c0-3.73,0.06-7.36,0.19-10.89
					c0.37-10.68,1.28-20.5,2.7-29.49c0,0,0,0,0-0.01s0.01-0.03,0.01-0.05c9.2-58.6,39.67-82.26,78.79-82.26
					C584.16,144.3,622.36,179.93,622.36,268.3z"/>
				<path class="st57" d="M615.51,336.9c-13.02,67.27-43.25,127.4-78.48,127.4c-47.13,0-81.69-108.94-81.69-197.3
					c0-3.73,0.06-7.36,0.19-10.89c3.05,37.12,16.09,87.35,27.83,109.52c12,22.67,13.78,29.19,25.78,23.85
					c12-5.33,6.22-99.85,15.56-99.85c9.33,0,2.81,135.41,17.5,135.43c10.01,0.01,8.49-21.99,9.16-31.43
					c2.23-31.31,0.15-81.78,8.15-81.78s10.52,97.78,21.19,91.11C591.19,396.4,614.78,338.7,615.51,336.9z"/>
				<path class="st58" d="M622.36,268.3c0,13.89-0.95,28.25-2.72,42.59c0,0-2.94-60.37-10.94-79.04c-8-18.66-6.36,22.44-8.89,36.74
					c-5.93,33.48-27.25,27.26-31.7,12.15c-4.44-15.11-5.71-59.82-15.41-80.3c-8-16.89-25.75-32.83-57.78-13.92
					c-31.04,18.32-36.37,38.78-36.68,40.04c9.2-58.6,39.67-82.26,78.79-82.26C584.16,144.3,622.36,179.93,622.36,268.3z"/>
			</g>
			<circle class="st3" cx="538.85" cy="512.19" r="24.89"/>
		</g>
	</g>
	<g>
		<g>
			<g>
				<path class="st3" d="M787.95,406.07c-9.82,9.82-20.65,19.3-32.04,28.19c-6.92,5.4-14.04,10.56-21.28,15.46
					c-0.01,0.01-0.01,0.01-0.03,0.01c-56.77,38.36-120.67,59.5-145.58,34.59c-33.33-33.33,19.27-134.8,81.75-197.28
					c2.64-2.64,5.25-5.16,7.83-7.57c7.81-7.29,15.4-13.59,22.76-18.94c0,0,0,0,0.01-0.01s0.03-0.01,0.04-0.03
					c47.94-34.93,86.22-30.12,113.88-2.45C848.62,291.38,850.44,343.59,787.95,406.07z"/>
				<path class="st57" d="M734.6,449.74c-56.77,38.36-120.67,59.5-145.58,34.59c-33.33-33.33,19.27-134.8,81.75-197.28
					c2.64-2.64,5.25-5.16,7.83-7.57c-24.09,28.4-50.39,73.14-57.76,97.12c-7.54,24.52-10.9,30.39,1.36,35.1
					c12.25,4.72,75-66.21,81.61-59.6c6.6,6.6-93.76,97.74-83.39,108.14c7.07,7.09,21.55-9.55,28.7-15.75
					c23.71-20.56,57.93-57.72,63.59-52.06s-61.7,76.58-49.44,79.41C675.33,474.61,732.81,450.49,734.6,449.74z"/>
				<path class="st58" d="M787.95,406.07c-9.82,9.82-20.65,19.3-32.04,28.19c0,0,40.61-44.77,48.15-63.63
					c7.54-18.85-20.36,11.37-32.27,19.69c-27.87,19.48-38.55,0-31.01-13.83c7.54-13.82,38.26-46.33,45.88-67.67
					c6.29-17.6,5.01-41.42-31.01-50.7c-34.9-8.99-53.14,1.7-54.25,2.38c47.94-34.93,86.22-30.12,113.88-2.45
					C848.62,291.38,850.44,343.59,787.95,406.07z"/>
			</g>
			<circle class="st3" cx="556.45" cy="519.48" r="24.89"/>
		</g>
	</g>
	<g>
		<g>
			<g>
				<path class="st3" d="M807.63,620.59c-13.89,0-28.25-0.95-42.59-2.72c-8.71-1.08-17.4-2.46-25.98-4.12c-0.01,0-0.02,0-0.03-0.01
					c-67.27-13.02-127.4-43.25-127.4-78.48c0-47.13,108.94-81.69,197.3-81.69c3.73,0,7.36,0.06,10.89,0.19
					c10.68,0.37,20.5,1.28,29.49,2.7c0,0,0,0,0.01,0s0.03,0.01,0.05,0.01c58.6,9.2,82.26,39.67,82.26,78.79
					C931.63,582.39,896,620.59,807.63,620.59z"/>
				<path class="st57" d="M739.03,613.74c-67.27-13.02-127.4-43.25-127.4-78.48c0-47.13,108.94-81.69,197.3-81.69
					c3.73,0,7.36,0.06,10.89,0.19c-37.12,3.05-87.35,16.09-109.52,27.83c-22.67,12-29.19,13.78-23.85,25.78
					c5.33,12,99.85,6.22,99.85,15.56c0,9.33-135.41,2.81-135.43,17.5c-0.01,10.01,21.99,8.49,31.43,9.16
					c31.31,2.23,81.78,0.15,81.78,8.15s-97.78,10.52-91.11,21.19C679.53,589.42,737.23,613.01,739.03,613.74z"/>
				<path class="st58" d="M807.63,620.59c-13.89,0-28.25-0.95-42.59-2.72c0,0,60.37-2.94,79.04-10.94c18.66-8-22.44-6.36-36.74-8.89
					c-33.48-5.93-27.26-27.25-12.15-31.7c15.11-4.44,59.82-5.71,80.3-15.41c16.89-8,32.83-25.75,13.92-57.78
					c-18.32-31.04-38.78-36.37-40.04-36.68c58.6,9.2,82.26,39.67,82.26,78.79C931.63,582.39,896,620.59,807.63,620.59z"/>
			</g>
			<circle class="st3" cx="563.74" cy="537.08" r="24.89"/>
		</g>
	</g>
	<g>
		<g>
			<g>
				<path class="st3" d="M669.85,786.18c-9.82-9.82-19.3-20.65-28.19-32.04c-5.4-6.92-10.56-14.04-15.46-21.28
					c-0.01-0.01-0.01-0.01-0.01-0.03c-38.36-56.77-59.5-120.67-34.59-145.58c33.33-33.33,134.8,19.27,197.28,81.75
					c2.64,2.64,5.16,5.25,7.57,7.83c7.29,7.81,13.59,15.4,18.94,22.76c0,0,0,0,0.01,0.01s0.01,0.03,0.03,0.04
					c34.93,47.94,30.12,86.22,2.45,113.88C784.55,846.85,732.34,848.67,669.85,786.18z"/>
				<path class="st57" d="M626.19,732.83c-38.36-56.77-59.5-120.67-34.59-145.58c33.33-33.33,134.8,19.27,197.28,81.75
					c2.64,2.64,5.16,5.25,7.57,7.83c-28.4-24.09-73.14-50.39-97.12-57.76c-24.52-7.54-30.39-10.9-35.1,1.36
					c-4.72,12.25,66.21,75,59.6,81.61c-6.6,6.6-97.74-93.76-108.14-83.39c-7.09,7.07,9.55,21.55,15.75,28.7
					c20.56,23.71,57.72,57.93,52.06,63.59c-5.66,5.66-76.58-61.7-79.41-49.44C601.31,673.56,625.43,731.04,626.19,732.83z"/>
				<path class="st58" d="M669.85,786.18c-9.82-9.82-19.3-20.65-28.19-32.04c0,0,44.77,40.61,63.63,48.15
					c18.85,7.54-11.37-20.36-19.69-32.27c-19.48-27.87,0-38.55,13.83-31.01c13.82,7.54,46.33,38.26,67.67,45.88
					c17.6,6.29,41.42,5.01,50.7-31.01c8.99-34.9-1.7-53.14-2.38-54.25c34.93,47.94,30.12,86.22,2.45,113.88
					C784.55,846.85,732.34,848.67,669.85,786.18z"/>
			</g>
			<circle class="st3" cx="556.45" cy="554.67" r="24.89"/>
		</g>
	</g>
	<g>
		<g>
			<g>
				<path class="st3" d="M455.34,805.85c0-13.89,0.95-28.25,2.72-42.59c1.08-8.71,2.46-17.4,4.12-25.98c0-0.01,0-0.02,0.01-0.03
					c13.02-67.27,43.25-127.4,78.48-127.4c47.13,0,81.69,108.94,81.69,197.3c0,3.73-0.06,7.36-0.19,10.89
					c-0.37,10.68-1.28,20.5-2.7,29.49c0,0,0,0,0,0.01s-0.01,0.03-0.01,0.05c-9.2,58.6-39.67,82.26-78.79,82.26
					C493.54,929.85,455.34,894.22,455.34,805.85z"/>
				<path class="st57" d="M462.19,737.25c13.02-67.27,43.25-127.4,78.48-127.4c47.13,0,81.69,108.94,81.69,197.3
					c0,3.73-0.06,7.36-0.19,10.89c-3.05-37.12-16.09-87.35-27.83-109.52c-12-22.67-13.78-29.19-25.78-23.85
					c-12,5.33-6.22,99.85-15.56,99.85c-9.33,0-2.81-135.41-17.5-135.43c-10.01-0.01-8.49,21.99-9.16,31.43
					c-2.23,31.31-0.15,81.78-8.15,81.78c-8,0-10.52-97.78-21.19-91.11C486.51,677.75,462.92,735.45,462.19,737.25z"/>
				<path class="st58" d="M455.34,805.85c0-13.89,0.95-28.25,2.72-42.59c0,0,2.94,60.37,10.94,79.04c8,18.66,6.36-22.44,8.89-36.74
					c5.93-33.48,27.25-27.26,31.7-12.15c4.44,15.11,5.71,59.82,15.41,80.3c8,16.89,25.75,32.83,57.78,13.92
					c31.04-18.32,36.37-38.78,36.68-40.04c-9.2,58.6-39.67,82.26-78.79,82.26C493.54,929.85,455.34,894.22,455.34,805.85z"/>
			</g>
			<circle class="st3" cx="538.85" cy="561.96" r="24.89"/>
		</g>
	</g>
	<g>
		<g>
			<g>
				<path class="st3" d="M289.75,668.08c9.82-9.82,20.65-19.3,32.04-28.19c6.92-5.4,14.04-10.56,21.28-15.46
					c0.01-0.01,0.01-0.01,0.03-0.01c56.77-38.36,120.67-59.5,145.58-34.59c33.33,33.33-19.27,134.8-81.75,197.28
					c-2.64,2.64-5.25,5.16-7.83,7.57c-7.81,7.29-15.4,13.59-22.76,18.94c0,0,0,0-0.01,0.01s-0.03,0.01-0.04,0.03
					c-47.94,34.93-86.22,30.12-113.88,2.45C229.08,782.77,227.26,730.56,289.75,668.08z"/>
				<path class="st57" d="M343.1,624.41c56.77-38.36,120.67-59.5,145.58-34.59c33.33,33.33-19.27,134.8-81.75,197.28
					c-2.64,2.64-5.25,5.16-7.83,7.57c24.09-28.4,50.39-73.14,57.76-97.12c7.54-24.52,10.9-30.39-1.36-35.1
					c-12.25-4.72-75,66.21-81.61,59.6c-6.6-6.6,93.76-97.74,83.39-108.14c-7.07-7.09-21.55,9.55-28.7,15.75
					c-23.71,20.56-57.93,57.72-63.59,52.06s61.7-76.58,49.44-79.41C402.37,599.54,344.89,623.66,343.1,624.41z"/>
				<path class="st58" d="M289.75,668.08c9.82-9.82,20.65-19.3,32.04-28.19c0,0-40.61,44.77-48.15,63.63
					c-7.54,18.85,20.36-11.37,32.27-19.69c27.87-19.48,38.55,0,31.01,13.83c-7.54,13.82-38.26,46.33-45.88,67.67
					c-6.29,17.6-5.01,41.42,31.01,50.7c34.9,8.99,53.14-1.7,54.25-2.38c-47.94,34.93-86.22,30.12-113.88,2.45
					C229.08,782.77,227.26,730.56,289.75,668.08z"/>
			</g>
			<circle class="st3" cx="521.25" cy="554.67" r="24.89"/>
		</g>
	</g>
	<g>
		<g>
			<g>
				<path class="st3" d="M270.08,453.57c13.89,0,28.25,0.95,42.59,2.72c8.71,1.08,17.4,2.46,25.98,4.12c0.01,0,0.02,0,0.03,0.01
					c67.27,13.02,127.4,43.25,127.4,78.48c0,47.13-108.94,81.69-197.3,81.69c-3.73,0-7.36-0.06-10.89-0.19
					c-10.68-0.37-20.5-1.28-29.49-2.7c0,0,0,0-0.01,0s-0.03-0.01-0.05-0.01c-58.6-9.2-82.26-39.67-82.26-78.79
					C146.08,491.77,181.71,453.57,270.08,453.57z"/>
				<path class="st57" d="M338.68,460.42c67.27,13.02,127.4,43.25,127.4,78.48c0,47.13-108.94,81.69-197.3,81.69
					c-3.73,0-7.36-0.06-10.89-0.19c37.12-3.05,87.35-16.09,109.52-27.83c22.67-12,29.19-13.78,23.85-25.78
					c-5.33-12-99.85-6.22-99.85-15.56c0-9.33,135.41-2.81,135.43-17.5c0.01-10.01-21.99-8.49-31.43-9.16
					c-31.31-2.23-81.78-0.15-81.78-8.15s97.78-10.52,91.11-21.19C398.18,484.74,340.48,461.15,338.68,460.42z"/>
				<path class="st58" d="M270.08,453.57c13.89,0,28.25,0.95,42.59,2.72c0,0-60.37,2.94-79.04,10.94c-18.66,8,22.44,6.36,36.74,8.89
					c33.48,5.93,27.26,27.25,12.15,31.7c-15.11,4.44-59.82,5.71-80.3,15.41c-16.89,8-32.83,25.75-13.92,57.78
					c18.32,31.04,38.78,36.37,40.04,36.68c-58.6-9.2-82.26-39.67-82.26-78.79C146.08,491.77,181.71,453.57,270.08,453.57z"/>
			</g>
			<circle class="st3" cx="513.96" cy="537.08" r="24.89"/>
		</g>
	</g>
	<g>
		<g>
			<g>
				<path class="st3" d="M407.85,287.97c9.82,9.82,19.3,20.65,28.19,32.04c5.4,6.92,10.56,14.04,15.46,21.28
					c0.01,0.01,0.01,0.01,0.01,0.03c38.36,56.77,59.5,120.67,34.59,145.58c-33.33,33.33-134.8-19.27-197.28-81.75
					c-2.64-2.64-5.16-5.25-7.57-7.83c-7.29-7.81-13.59-15.4-18.94-22.76c0,0,0,0-0.01-0.01s-0.01-0.03-0.03-0.04
					c-34.93-47.94-30.12-86.22-2.45-113.88C293.16,227.3,345.36,225.49,407.85,287.97z"/>
				<path class="st57" d="M451.51,341.32c38.36,56.77,59.5,120.67,34.59,145.58c-33.33,33.33-134.8-19.27-197.28-81.75
					c-2.64-2.64-5.16-5.25-7.57-7.83c28.4,24.09,73.14,50.39,97.12,57.76c24.52,7.54,30.39,10.9,35.1-1.36
					c4.72-12.25-66.21-75-59.6-81.61c6.6-6.6,97.74,93.76,108.14,83.39c7.09-7.07-9.55-21.55-15.75-28.7
					c-20.56-23.71-57.72-57.93-52.06-63.59s76.58,61.7,79.41,49.44C476.39,400.59,452.27,343.11,451.51,341.32z"/>
				<path class="st58" d="M407.85,287.97c9.82,9.82,19.3,20.65,28.19,32.04c0,0-44.77-40.61-63.63-48.15
					c-18.85-7.54,11.37,20.36,19.69,32.27c19.48,27.87,0,38.55-13.83,31.01c-13.82-7.54-46.33-38.26-67.67-45.88
					c-17.6-6.29-41.42-5.01-50.7,31.01c-8.99,34.9,1.7,53.14,2.38,54.25c-34.93-47.94-30.12-86.22-2.45-113.88
					C293.16,227.3,345.36,225.49,407.85,287.97z"/>
			</g>
			<circle class="st3" cx="521.25" cy="519.48" r="24.89"/>
		</g>
	</g>
	<g>
		<g>
			<g>
				<path class="st3" d="M622.36,268.3c0,13.89-0.95,28.25-2.72,42.59c-1.08,8.71-2.46,17.4-4.12,25.98c0,0.01,0,0.02-0.01,0.03
					c-13.02,67.27-43.25,127.4-78.48,127.4c-47.13,0-81.69-108.94-81.69-197.3c0-3.73,0.06-7.36,0.19-10.89
					c0.37-10.68,1.28-20.5,2.7-29.49c0,0,0,0,0-0.01s0.01-0.03,0.01-0.05c9.2-58.6,39.67-82.26,78.79-82.26
					C584.16,144.3,622.36,179.93,622.36,268.3z"/>
				<path class="st57" d="M615.51,336.9c-13.02,67.27-43.25,127.4-78.48,127.4c-47.13,0-81.69-108.94-81.69-197.3
					c0-3.73,0.06-7.36,0.19-10.89c3.05,37.12,16.09,87.35,27.83,109.52c12,22.67,13.78,29.19,25.78,23.85
					c12-5.33,6.22-99.85,15.56-99.85c9.33,0,2.81,135.41,17.5,135.43c10.01,0.01,8.49-21.99,9.16-31.43
					c2.23-31.31,0.15-81.78,8.15-81.78s10.52,97.78,21.19,91.11C591.19,396.4,614.78,338.7,615.51,336.9z"/>
				<path class="st58" d="M622.36,268.3c0,13.89-0.95,28.25-2.72,42.59c0,0-2.94-60.37-10.94-79.04c-8-18.66-6.36,22.44-8.89,36.74
					c-5.93,33.48-27.25,27.26-31.7,12.15c-4.44-15.11-5.71-59.82-15.41-80.3c-8-16.89-25.75-32.83-57.78-13.92
					c-31.04,18.32-36.37,38.78-36.68,40.04c9.2-58.6,39.67-82.26,78.79-82.26C584.16,144.3,622.36,179.93,622.36,268.3z"/>
			</g>
			<circle class="st3" cx="538.85" cy="512.19" r="24.89"/>
		</g>
	</g>
</g>
<circle class="st59" cx="540" cy="537.08" r="110.22"/>
<circle class="st60" cx="540" cy="537.08" r="72.48"/>
<path class="st61" d="M549.64,636.63c-60.87,0-110.22-49.35-110.22-110.22c0-25.82,8.88-49.56,23.75-68.34
	c-20.59,20.02-33.38,48.02-33.38,79.01c0,60.87,49.35,110.22,110.22,110.22c35.05,0,66.28-16.37,86.47-41.87
	C606.62,624.73,579.52,636.63,549.64,636.63z"/>
<path class="st62" d="M548.12,598c-40.03,0-72.48-32.45-72.48-72.48c0-12.95,3.41-25.1,9.37-35.63
	c-10.89,12.68-17.48,29.16-17.48,47.18c0,40.03,32.45,72.48,72.48,72.48c27.08,0,50.67-14.86,63.12-36.86
	C589.82,588.18,570.12,598,548.12,598z"/>
<ellipse transform="matrix(0.5186 -0.855 0.855 0.5186 -165.6132 723.0815)" class="st63" cx="559.32" cy="508.61" rx="16.89" ry="24"/>
</svg>
