<?xml version="1.0" encoding="utf-8"?>
<!-- Generator: Adobe Illustrator 26.0.3, SVG Export Plug-In . SVG Version: 6.00 Build 0)  -->
<svg version="1.1" id="Слой_1" xmlns="http://www.w3.org/2000/svg" xmlns:xlink="http://www.w3.org/1999/xlink" x="0px" y="0px"
	 viewBox="0 0 1080 1080" style="enable-background:new 0 0 1080 1080;" xml:space="preserve">
<style type="text/css">
	.st0{fill:#FFCB8D;}
	.st1{fill:#AF4F00;stroke:#7A2C00;stroke-width:5;stroke-miterlimit:10;}
	.st2{fill:#FFE8A6;}
	.st3{fill:#7A2C00;}
	.st4{fill:#301600;}
	.st5{fill:#FF9D4D;}
	.st6{fill:#913B00;}
	.st7{fill:#AF4F00;}
	.st8{fill:#441D00;}
	.st9{fill:#0F0600;}
	.st10{fill:#495154;}
	.st11{fill:#FFF0CA;}
	.st12{fill:#722E00;}
	.st13{fill:#FF8AD5;}
	.st14{fill:#FF64B5;}
	.st15{fill:#FF5FBE;}
	.st16{fill:#ED0061;}
	.st17{fill:#C60042;}
	.st18{fill:#FFB0EB;}
	.st19{fill:#CF85FF;}
	.st20{fill:#AA00F9;}
	.st21{fill:#160900;}
	.st22{fill:#626D7C;}
	.st23{fill:none;stroke:#E7AEFF;stroke-width:30;stroke-linecap:round;stroke-miterlimit:10;}
	.st24{fill:#0BAEFF;}
	.st25{fill:#007ACC;}
	.st26{fill:#0058C1;}
	.st27{fill:#22D5FF;}
	.st28{fill:#08D1FF;}
	.st29{fill:#282828;}
	.st30{fill:#636363;}
	.st31{fill:#48D8FF;}
	.st32{fill:#141414;}
	.st33{fill:#FFDA00;}
	.st34{fill:#FFB600;}
	.st35{fill:#FFA300;}
	.st36{fill:#FFE36E;}
	.st37{fill:none;stroke:#FFE36E;stroke-width:20;stroke-linecap:round;stroke-linejoin:round;stroke-miterlimit:10;}
	.st38{fill:#F44B00;}
	.st39{fill:#D82E00;}
	.st40{fill:#FF9312;}
	.st41{fill:#DD7300;}
	.st42{fill:none;stroke:#D35A00;stroke-width:8;stroke-linecap:round;stroke-miterlimit:10;}
	.st43{fill:#5B3A00;}
	.st44{fill:#472300;}
	.st45{fill:#D35A00;}
	.st46{fill:none;stroke:#FFB048;stroke-width:20;stroke-linecap:round;stroke-miterlimit:10;}
	.st47{fill:none;stroke:#FFB048;stroke-width:12;stroke-linecap:round;stroke-miterlimit:10;}
	.st48{fill:#00AD5A;}
	.st49{fill:#00F445;}
	.st50{fill:#00CC66;}
	.st51{fill:#00CC49;}
	.st52{fill:#1DFFEE;stroke:#00A58D;stroke-width:15;stroke-miterlimit:10;}
	.st53{fill:#203533;}
	.st54{fill:none;stroke:#5CFF68;stroke-width:20;stroke-linecap:round;stroke-miterlimit:10;}
	.st55{fill:#00D6D0;}
	.st56{fill:#00AAAA;}
	.st57{fill:#2CFFEA;}
	.st58{fill:#00E8D7;}
	.st59{fill:#00635E;}
	.st60{fill:#009388;}
	.st61{fill:none;stroke:#00AAAA;stroke-width:20;stroke-miterlimit:10;}
</style>
<g>
	<polygon class="st55" points="1030.03,734.86 973.8,756.24 973.78,756.24 894.51,786.37 185.49,786.37 49.97,734.86 193.23,712.66 
		71.37,634.1 216.14,642.18 113.27,540 253.2,578 173.83,456.66 302.78,522.92 250.38,387.74 362.74,479.36 339.58,336.24 
		430.45,449.21 437.55,304.4 502.95,433.8 540,293.63 577.05,433.8 642.45,304.4 649.55,449.21 740.42,336.24 717.26,479.36 
		829.62,387.74 777.22,522.92 906.17,456.66 826.8,578 966.73,540 863.86,642.18 1008.63,634.1 886.77,712.66 	"/>
	<path class="st56" d="M811.18,786.37H268.82c0-100.66,54.85-188.51,136.27-235.29c0.03-0.01,0.06-0.04,0.09-0.06
		c39.71-22.8,85.75-35.83,134.82-35.83c119.92,0,221.65,77.83,257.43,185.73c0,0,0,0,0,0.01
		C806.35,727.8,811.18,756.51,811.18,786.37z"/>
	<path class="st57" d="M745.28,786.37H334.72c0-76.2,41.52-142.7,103.16-178.12c0.02-0.01,0.04-0.03,0.06-0.04
		C468,590.95,502.85,581.08,540,581.08c90.78,0,167.79,58.92,194.88,140.6c0,0,0,0,0,0.01
		C741.63,742.03,745.28,763.77,745.28,786.37z"/>
	<path class="st58" d="M534.55,701.19l-52.25,85.17H334.72c0-76.2,41.52-142.7,103.16-178.12c-13.93,8.77-28.46,28.29-30.73,47.62
		c-1.92,16.38,9.64,43.77,33.74,47.9c19.75,3.39,57.17-0.53,85.17-10.84L534.55,701.19z"/>
	<path class="st58" d="M745.28,766.05H627.81c0,0,50.74-6.52,73.24-19.36c22.31-12.76,26.61-35.19,21.11-55.05
		C734.76,712.66,741.34,741.3,745.28,766.05z"/>
	<path class="st58" d="M521.45,721.93c-4.64,8.62-4.14,23.53-0.44,28.92c8.35,12.21,24.29,15.19,24.29,15.19l-51.91-0.01
		C493.39,766.04,526.09,713.31,521.45,721.93z"/>
	<ellipse class="st59" cx="459.71" cy="675.7" rx="27.65" ry="21.6"/>
	<ellipse class="st59" cx="624.48" cy="675.7" rx="27.65" ry="21.6"/>
	<circle class="st60" cx="543.25" cy="683.73" r="19.51"/>
	<polygon class="st56" points="277.21,786.37 185.49,786.37 49.97,734.86 271.36,749.16 	"/>
	<polygon class="st56" points="271.36,749.16 193.23,712.66 71.37,634.1 286.7,703.24 	"/>
	<polygon class="st56" points="286.7,711.95 175.57,601.88 297.83,664.22 	"/>
	<polygon class="st56" points="248.52,570.84 303.22,654.1 331.02,623.11 	"/>
	<polygon class="st56" points="313.68,544.09 341.25,601.88 368.6,585.81 	"/>
	<polygon class="st56" points="362.74,479.36 389.02,531.37 389.02,453.59 339.58,336.24 	"/>
	<polygon class="st56" points="437.55,304.4 426.42,481.46 460.88,420.41 	"/>
	<polygon class="st56" points="540,293.63 497.72,450.63 535.3,392.93 	"/>
	<polygon class="st56" points="973.78,756.24 894.51,786.37 795.8,786.37 808.63,749.16 	"/>
	<polygon class="st56" points="991.1,645.4 822.45,703.24 886.77,712.66 	"/>
	<polygon class="st56" points="904.43,601.88 802.21,645.4 863.86,642.18 	"/>
	<polygon class="st56" points="845.31,549.7 785.83,588.42 826.8,578 	"/>
	<polygon class="st57" points="740.42,336.24 664.42,501.7 717.26,479.36 	"/>
	<polygon class="st57" points="829.62,387.74 740.42,540 777.22,522.92 	"/>
	<polygon class="st57" points="642.45,304.4 627.81,469.9 649.55,449.21 	"/>
	<polygon class="st56" points="389.02,531.37 250.38,387.74 362.74,479.36 	"/>
	<polygon class="st56" points="173.83,456.66 313.68,544.09 302.78,522.92 	"/>
	<polygon class="st56" points="253.2,578 113.27,540 273.1,608.25 	"/>
	<line class="st61" x1="186.69" y1="775.67" x2="893.96" y2="775.67"/>
</g>
</svg>
