<?xml version="1.0" encoding="utf-8"?>
<!-- Generator: Adobe Illustrator 26.0.3, SVG Export Plug-In . SVG Version: 6.00 Build 0)  -->
<svg version="1.1" id="Слой_1" xmlns="http://www.w3.org/2000/svg" xmlns:xlink="http://www.w3.org/1999/xlink" x="0px" y="0px"
	 viewBox="0 0 1080 1080" style="enable-background:new 0 0 1080 1080;" xml:space="preserve">
<style type="text/css">
	.st0{fill:url(#SVGID_1_);}
	.st1{fill:#FF7B22;}
	.st2{fill:#FF761A;}
	.st3{fill:#934200;}
	.st4{fill:#FFD7A6;}
	.st5{fill:#FF4D1D;}
	.st6{fill:#661300;}
	.st7{fill:#FFEDD9;}
	.st8{fill:#FFB380;}
	.st9{fill:none;}
	.st10{fill:url(#SVGID_00000089535981877590690930000015880680259543992466_);}
	.st11{fill:url(#SVGID_00000044168636949050506080000017902426679481810066_);}
	.st12{fill:url(#SVGID_00000139261721288913423330000009191881835664624530_);}
	.st13{fill:url(#SVGID_00000119086849766694519670000008603101876893388958_);}
	.st14{fill:url(#SVGID_00000071554451173929157250000001194327811365990532_);}
	.st15{fill:url(#SVGID_00000099657780974348244340000009508187416007315608_);}
	.st16{fill:url(#SVGID_00000054260773765914978520000005205528650057297072_);}
	.st17{fill:url(#SVGID_00000033353712770146767530000015319065626798508732_);}
	.st18{fill:url(#SVGID_00000079472877741295357080000016524196529618715299_);}
	.st19{fill:url(#SVGID_00000106828109761319276600000009276260970384970378_);}
	.st20{fill:url(#SVGID_00000181063228918797315710000008334000587808927647_);}
	.st21{fill:url(#SVGID_00000094602104402703264210000008972964190119885725_);}
	.st22{fill:url(#SVGID_00000132089312167928029200000017617884555316908162_);}
	.st23{fill:url(#SVGID_00000152954346706322510100000017053571498646283187_);}
	.st24{fill:url(#SVGID_00000067954469118840310770000012779469623580725937_);}
	.st25{fill:url(#SVGID_00000026162977947846647950000006208397976021408154_);}
	.st26{fill:url(#SVGID_00000139986203425284244110000002307574237055350686_);}
	.st27{fill:url(#SVGID_00000110445918965290121880000009302039259732707992_);}
</style>
<g>
	<radialGradient id="SVGID_1_" cx="519.3224" cy="525.0598" r="1240.031" gradientUnits="userSpaceOnUse">
		<stop  offset="0.0112" style="stop-color:#B0FFB3"/>
		<stop  offset="0.2301" style="stop-color:#ADFEB3"/>
		<stop  offset="0.3886" style="stop-color:#A4FBB1"/>
		<stop  offset="0.5282" style="stop-color:#94F6AF"/>
		<stop  offset="0.6569" style="stop-color:#7EEEAC"/>
		<stop  offset="0.778" style="stop-color:#61E5A9"/>
		<stop  offset="0.8919" style="stop-color:#3ED9A4"/>
		<stop  offset="1" style="stop-color:#15CC9F"/>
	</radialGradient>
	<path class="st0" d="M97.06,516.71c25.2,58.08,60.42,106.22,96.71,150.05c33.02,39.97,66.91,76.42,94.81,113.69l-26.5-47.09
		c0,0-5.3-24.09-3.78-49.63c0.48-7.93,1.63-16.05,3.78-23.57c0.48-1.67,1-3.3,1.59-4.86c10.53-28.8,38.14-44.59,61.42-44.59
		c24.61,0,24.61,13.2,24.61,29.65c0,8.45-6.49,62.27-12.79,112.61l-0.04,0.04c-0.11,1.26-0.3,2.48-0.44,3.71l-0.78,6.12
		c-0.07,0.59-0.15,1.22-0.22,1.82L332.58,787c-1.07,8.71-2.11,16.86-3.08,24.17c-0.3,2.41-0.59,4.78-0.89,7.01l-2.45,18.98v0.04
		c0,0.01,0,0.02,0,0.03c33.24,54.83,65.66,117.77,90.08,178.32h525.35V440.98c-7.54-18.31-16.93-38.07-27.51-58.32
		c-6.14-11.73-12.66-23.62-19.47-35.48c-0.04-0.04-0.04-0.04-0.04-0.04c-23.51-40.92-50.27-81.39-74.96-113.57
		c0.02,35.6,2.22,110.09,0.03,163.82c-1.13,27.76-4.53,47.82-7.39,59.13c-0.88,3.82-1.86,6.93-2.94,9.23
		c-17.57,37.36-79.17,59.31-109.97,59.31c-17.68,0-40.29-27.13-52.23-68.28l-0.11-0.33c-8.82-30.54-11.75-68.76-2.41-109.31
		c19.79-86.03,92.88-173.98,107.07-190.45c-32.94-35.62-73.27-80.07-110.36-126.16H97.06V516.71z"/>
	<path class="st2" d="M941.59,191.63V30.54h-138.4c1.63,4.26,1.77,7.63,0.14,9.81c-4.52,6.03-21.41,1.75-44.1-9.81h-73.47
		c30.58,26.7,58.63,50.34,72.34,59.63C788.33,110.67,879.04,151.58,941.59,191.63z"/>
	<path class="st2" d="M729.25,456.01c33.94-13.44,47.96-22.37,57.01-42.96c7.9-17.98,15.18-163.39,16.91-200.03
		c-4.24-5.06-8.38-9.79-12.38-14.14c-10.86-11.8-24.24-26.11-39.12-42.19c-14.19,16.47-87.29,104.42-107.07,190.45
		c-9.34,40.55-6.41,78.76,2.41,109.31l-3.45-13.9C643.56,442.55,695.32,469.45,729.25,456.01z"/>
	<path class="st2" d="M812.26,456.52c-1.12,4.44-2.16,7.58-2.94,9.23C810.4,463.46,811.38,460.34,812.26,456.52z"/>
	<path class="st3" d="M894.6,347.18c6.81,11.86,13.33,23.75,19.47,35.48c-6.1-11.68-12.59-23.52-19.36-35.33
		C894.68,347.26,894.64,347.22,894.6,347.18z"/>
	<path class="st3" d="M790.78,198.88c4,4.35,8.14,9.08,12.38,14.14c0.25-5.33,0.38-8.36,0.38-8.36l16.09,21.42
		c-0.03,2.25-0.04,4.78-0.03,7.51c24.69,32.17,51.45,72.65,74.96,113.57c0,0,0,0,0.04,0.04c0.04,0.04,0.07,0.07,0.11,0.15
		c6.77,11.81,13.25,23.65,19.36,35.33c10.58,20.25,19.97,40.02,27.51,58.32V191.63c-62.55-40.05-153.26-80.96-183.49-101.46
		c-13.71-9.29-41.76-32.93-72.34-59.63h-44.44c37.09,46.09,77.42,90.54,110.36,126.16C766.54,172.77,779.92,187.08,790.78,198.88z"
		/>
	<path class="st3" d="M819.64,226.07l-16.09-21.42c0,0-0.13,3.04-0.38,8.36c-1.72,36.63-9,182.05-16.91,200.03
		c-9.05,20.59-23.07,29.52-57.01,42.96s-85.7-13.45-85.7-13.45l3.45,13.9l0.11,0.33c11.94,41.14,34.55,68.28,52.23,68.28
		c30.8,0,92.41-21.94,109.97-59.31c0.78-1.65,1.82-4.79,2.94-9.23c2.85-11.31,6.26-31.36,7.39-59.13
		c2.18-53.73-0.01-128.22-0.03-163.82C819.61,230.85,819.62,228.32,819.64,226.07z"/>
	<path class="st4" d="M325.9,839.12l-0.26,1.85l-0.22,1.96l-0.33,2.48l-35.73-63.57l-0.78-1.39
		c-27.9-37.27-61.79-73.72-94.81-113.69c-17.9,5.75-43.11,16.46-67.57,16.46c-10.75,0-20.42-1.64-29.13-4.37v166.64
		c0.05-0.03,0.09-0.04,0.14-0.07c23.33-14.06,6.32-40.02,30.55-50.19c24.22-10.17,59.79,0,74.07,21.97
		c14.28,21.96,8.79,65.54-13.18,80.94c-21.97,15.41-43.93-15.05-60.89,0c-16.96,15.05-11.59,46.46-30.55,66.22
		c-0.05,0.05-0.09,0.09-0.14,0.14v51.04h263.17c-20.22-22.77-53.58-70.46-88.33-127.47c-50.71-83.2-85.15-154.71-76.92-159.73
		c8.23-5.02,56.01,58.36,106.73,141.56c38.69,63.47,67.87,120.1,75.9,145.63h38.63c-24.42-60.55-56.83-123.49-90.08-178.32
		C326.05,837.91,325.98,838.54,325.9,839.12z"/>
	<path class="st4" d="M329.5,811.17l-0.89,7.01C328.91,815.95,329.2,813.58,329.5,811.17z"/>
	<path class="st4" d="M301.92,766.69c10.99,7.68,26.09,5.75,26.09,5.75l7.41-7.78c0.07-0.59,0.15-1.22,0.22-1.82l0.78-6.12
		c0.15-1.22,0.33-2.45,0.44-3.71l0.04-0.04c6.3-50.34,12.79-104.16,12.79-112.61c0-16.46,0-29.65-24.61-29.65
		c-23.28,0-50.89,15.79-61.42,44.59c0,0,3.63,20.8,6.12,39.18C272.27,712.87,290.94,759.01,301.92,766.69z"/>
	<path class="st4" d="M332.58,787l-3.08,24.17C330.46,803.87,331.5,795.71,332.58,787z"/>
	<path class="st4" d="M289.36,781.85l35.73,63.57l0.33-2.48l0.22-1.96l0.26-1.85c0.07-0.58,0.15-1.21,0.26-1.9c0-0.01,0-0.02,0-0.03
		v-0.04L289.36,781.85z"/>
	<path class="st5" d="M193.76,666.76c-36.29-43.82-71.5-91.97-96.71-150.05v162.14c8.71,2.73,18.38,4.37,29.13,4.37
		C150.66,683.22,175.86,672.51,193.76,666.76z"/>
	<path class="st5" d="M127.74,898.14c16.96-15.05,38.93,15.41,60.89,0c21.97-15.41,27.46-58.98,13.18-80.94
		c-14.28-21.97-49.85-32.14-74.07-21.97c-24.22,10.17-7.22,36.13-30.55,50.19c-0.05,0.03-0.09,0.04-0.14,0.07v119.01
		c0.05-0.05,0.09-0.09,0.14-0.14C116.15,944.6,110.78,913.19,127.74,898.14z"/>
	<path class="st6" d="M326.16,837.15l2.45-18.98l0.89-7.01l3.08-24.17l2.85-22.35l-7.41,7.78c0,0-15.11,1.93-26.09-5.75
		c-10.99-7.68-29.65-53.82-32.14-72.2c-2.49-18.38-6.12-39.18-6.12-39.18c-0.59,1.56-1.11,3.19-1.59,4.86
		c-2.15,7.52-3.3,15.64-3.78,23.57c-1.52,25.54,3.78,49.63,3.78,49.63l26.5,47.09l0.78,1.39L326.16,837.15z"/>
	<path class="st7" d="M194.98,728.35c-8.23,5.02,26.21,76.53,76.92,159.73c34.75,57,68.11,104.69,88.33,127.47h17.38
		c-8.03-25.54-37.22-82.17-75.9-145.63C250.99,786.71,203.21,723.33,194.98,728.35z"/>
	<path class="st8" d="M803.32,40.34c1.63-2.18,1.5-5.54-0.14-9.81h-43.96C781.91,42.09,798.81,46.37,803.32,40.34z"/>
</g>
</svg>
