<?xml version="1.0" encoding="utf-8"?>
<!-- Generator: Adobe Illustrator 26.0.3, SVG Export Plug-In . SVG Version: 6.00 Build 0)  -->
<svg version="1.1" id="Слой_1" xmlns="http://www.w3.org/2000/svg" xmlns:xlink="http://www.w3.org/1999/xlink" x="0px" y="0px"
	 viewBox="0 0 1080 1080" style="enable-background:new 0 0 1080 1080;" xml:space="preserve">
<style type="text/css">
	.st0{fill:#FFCB8D;}
	.st1{fill:#AF4F00;stroke:#7A2C00;stroke-width:5;stroke-miterlimit:10;}
	.st2{fill:#FFE8A6;}
	.st3{fill:#7A2C00;}
	.st4{fill:#301600;}
	.st5{fill:#FF9D4D;}
	.st6{fill:#913B00;}
	.st7{fill:#AF4F00;}
	.st8{fill:#441D00;}
	.st9{fill:#0F0600;}
	.st10{fill:#495154;}
	.st11{fill:#FFF0CA;}
	.st12{fill:#722E00;}
	.st13{fill:#FF8AD5;}
	.st14{fill:#FF64B5;}
	.st15{fill:#FF5FBE;}
	.st16{fill:#ED0061;}
	.st17{fill:#C60042;}
	.st18{fill:#FFB0EB;}
	.st19{fill:#CF85FF;}
	.st20{fill:#AA00F9;}
	.st21{fill:#160900;}
	.st22{fill:#626D7C;}
	.st23{fill:none;stroke:#E7AEFF;stroke-width:30;stroke-linecap:round;stroke-miterlimit:10;}
	.st24{fill:#0BAEFF;}
	.st25{fill:#007ACC;}
	.st26{fill:#0058C1;}
	.st27{fill:#22D5FF;}
	.st28{fill:#08D1FF;}
	.st29{fill:#282828;}
	.st30{fill:#636363;}
	.st31{fill:#48D8FF;}
	.st32{fill:#141414;}
	.st33{fill:#FFDA00;}
	.st34{fill:#FFB600;}
	.st35{fill:#FFA300;}
	.st36{fill:#FFE36E;}
	.st37{fill:none;stroke:#FFE36E;stroke-width:20;stroke-linecap:round;stroke-linejoin:round;stroke-miterlimit:10;}
	.st38{fill:#F44B00;}
	.st39{fill:#D82E00;}
	.st40{fill:#FF9312;}
	.st41{fill:#DD7300;}
	.st42{fill:none;stroke:#D35A00;stroke-width:8;stroke-linecap:round;stroke-miterlimit:10;}
	.st43{fill:#5B3A00;}
	.st44{fill:#472300;}
	.st45{fill:#D35A00;}
	.st46{fill:none;stroke:#FFB048;stroke-width:20;stroke-linecap:round;stroke-miterlimit:10;}
	.st47{fill:none;stroke:#FFB048;stroke-width:12;stroke-linecap:round;stroke-miterlimit:10;}
	.st48{fill:#00AD5A;}
	.st49{fill:#00F445;}
	.st50{fill:#00CC66;}
	.st51{fill:#00CC49;}
	.st52{fill:#1DFFEE;stroke:#00A58D;stroke-width:15;stroke-miterlimit:10;}
	.st53{fill:#203533;}
	.st54{fill:none;stroke:#5CFF68;stroke-width:20;stroke-linecap:round;stroke-miterlimit:10;}
	.st55{fill:#00D6D0;}
	.st56{fill:#00AAAA;}
	.st57{fill:#2CFFEA;}
	.st58{fill:#00E8D7;}
	.st59{fill:#00635E;}
	.st60{fill:#009388;}
	.st61{fill:none;stroke:#00AAAA;stroke-width:20;stroke-miterlimit:10;}
</style>
<g>
	<path class="st13" d="M464.83,538.42L361.15,127.24c-9.48-37.61-50.6-57.58-86.02-41.78l-83.97,37.45
		c-32.53,14.51-46.37,53.25-30.38,85.09l187.65,373.72c14.9,29.67,50.39,42.5,80.82,29.22l0,0
		C457.25,598.72,472.3,568.04,464.83,538.42z"/>
	<path class="st14" d="M435.45,580.08L435.45,580.08c-30.43,13.28-65.92,0.44-80.82-29.22L166.98,177.13
		c-3.96-7.89-6.09-16.2-6.55-24.46c-8.17,16.85-8.75,37.21,0.35,55.33l187.65,373.72c14.9,29.67,50.39,42.5,80.82,29.22l0,0
		c24.3-10.61,38.84-35.12,37.38-60.78C460.3,563.15,449.51,573.94,435.45,580.08z"/>
	<polygon class="st15" points="727.69,471.81 691.01,615.45 580.46,575.86 645.12,330.65 746.91,416.57 	"/>
	<path class="st13" d="M616.02,522.31H454.76c-42.29,0-81.57,21.86-103.87,57.8l-68.61,110.61c-26.63,42.93-24.1,97.81,6.35,138.11
		l92.65,122.62c23.78,31.47,61.27,49.53,100.7,48.5L595.01,997c36.84-0.96,71.29-18.49,93.74-47.72l92.42-120.29
		c30.99-40.34,33.76-95.66,6.94-138.89l-68.23-109.99C697.6,544.17,658.31,522.31,616.02,522.31z"/>
	<path class="st13" d="M567.94,575.86l63.35-250.62c5.77-22.82,25.46-39.4,48.92-41.21l96.05-7.39
		c20.63-1.59,40.39,8.58,51.09,26.28l90.86,150.26c17.98,29.74,2.9,68.44-30.46,78.18l-64.81,18.91
		c-22.57,6.58-46.77-2.51-59.42-22.32L651.38,352.28l-64.66,246.39L567.94,575.86z"/>
	<path class="st15" d="M422.2,463.74l-69.74-287.52c-6.38-26.3-34.03-40.26-57.86-29.22l-56.48,26.19
		c-21.88,10.15-31.19,37.23-20.44,59.5l126.22,261.33c10.02,20.75,33.9,29.72,54.36,20.43l0,0
		C417.1,505.91,427.23,484.45,422.2,463.74z"/>
	<path class="st4" d="M468.46,782.1l-4.42-1.26c-15.89-4.54-32.73-4.54-48.62,0l-4.42,1.26c-11.6,3.32-23.15-5.39-23.15-17.46l0,0
		c0-8.03,5.27-15.11,12.97-17.4l13.65-4.07c16.48-4.91,34.03-4.91,50.51,0l13.65,4.07c7.7,2.29,12.97,9.37,12.97,17.4l0,0
		C491.61,776.71,480.06,785.42,468.46,782.1z"/>
	<path class="st4" d="M659.39,782.1l-4.42-1.26c-15.89-4.54-32.73-4.54-48.62,0l-4.42,1.26c-11.6,3.32-23.15-5.39-23.15-17.46l0,0
		c0-8.03,5.27-15.11,12.97-17.4l13.65-4.07c16.48-4.91,34.03-4.91,50.51,0l13.65,4.07c7.7,2.29,12.97,9.37,12.97,17.4l0,0
		C682.54,776.71,670.99,785.42,659.39,782.1z"/>
	<ellipse class="st14" cx="702.01" cy="804.5" rx="29.87" ry="24.44"/>
	<path class="st14" d="M649.29,970.78l-113.03,2.94c-39.43,1.03-76.92-17.03-100.7-48.5L342.91,802.6
		c-30.45-40.3-32.97-95.18-6.35-138.11l68.61-110.61c6.91-11.13,15.44-20.91,25.2-29.11c-32.63,6.65-61.55,26.43-79.47,55.33
		l-68.61,110.61c-26.63,42.93-24.1,97.81,6.35,138.11l92.65,122.62c23.78,31.47,61.27,49.53,100.7,48.5L595.01,997
		c27.93-0.73,54.48-10.99,75.47-28.64C663.56,969.77,656.47,970.6,649.29,970.78z"/>
	<ellipse class="st14" cx="368.68" cy="806.99" rx="29.87" ry="24.44"/>
	<path class="st14" d="M528.26,853.65c0,0-7.79,27.66-23.05,40.66c-15.26,13-71.98,30.4-85.97,9.33
		c-13.99-21.07,7.46,39.86,7.46,39.86l40.5,17.48c0,0,42.6-26.07,56.67-45.04c14.07-18.96,20.77-62.29,20.77-62.29H528.26z"/>
	<path class="st14" d="M544.64,853.65c0,0,0.12,9.55,8.57,22c8.44,12.44,23.65,20,23.65,20s-16.64,6.37-32.22,0
		c-15.58-6.37-22.44-17.01-22.44-17.01l13-30.99L544.64,853.65z"/>
	<path class="st16" d="M544.64,853.65c-7.32,2.33-11.98,1.27-16.38,0c-5.46-1.58-23.34-6.08-33.98-22.62
		c-2.59-4.03,1.81-9.29,9.59-11.92c26.44-7.36,38.43-7.01,63.52,0.7c4.53,2.02,11.41,4.91,8.96,10.02
		C568.49,846.22,552.36,851.19,544.64,853.65z"/>
	<path class="st17" d="M554.09,846.84c-7.32,2.33-11.98,1.27-16.38,0c-5.46-1.58-23.34-6.08-33.98-22.62
		c-1.01-1.57-0.95-3.33-0.04-5.05c-7.65,2.65-11.97,7.85-9.4,11.85c10.64,16.54,28.52,21.04,33.98,22.62c4.4,1.27,9.06,2.33,16.38,0
		c5.53-1.76,15.4-4.82,23.43-12.45C562.72,844.12,557.55,845.74,554.09,846.84z"/>
	<path class="st18" d="M521.62,546.31h92.14c26.34,0,50.97,13.06,65.74,34.87l61.67,91.07c6.07,8.96,1.96,21.23-8.28,24.73h0
		c-6.92,2.36-14.56-0.13-18.75-6.12l-53.38-76.26c-14.77-21.09-38.85-33.72-64.59-33.86l-74.63-0.42
		c-9.03-0.05-16.32-7.38-16.32-16.41v-1.2C505.21,553.66,512.56,546.31,521.62,546.31z"/>
	<circle class="st18" cx="472.06" cy="565.85" r="19.55"/>
	<path class="st18" d="M886.27,485.22L886.27,485.22c8.79-5.07,11.8-16.31,6.72-25.09l-90.02-155.92
		c-5.07-8.79-16.31-11.8-25.09-6.72v0c-8.79,5.07-11.8,16.31-6.72,25.09l90.02,155.92C866.26,487.28,877.49,490.29,886.27,485.22z"
		/>
</g>
</svg>
