<?xml version="1.0" encoding="utf-8"?>
<!-- Generator: Adobe Illustrator 26.0.3, SVG Export Plug-In . SVG Version: 6.00 Build 0)  -->
<svg version="1.1" id="Слой_1" xmlns="http://www.w3.org/2000/svg" xmlns:xlink="http://www.w3.org/1999/xlink" x="0px" y="0px"
	 viewBox="0 0 1080 1080" style="enable-background:new 0 0 1080 1080;" xml:space="preserve">
<style type="text/css">
	.st0{fill:#FFCB8D;}
	.st1{fill:#AF4F00;stroke:#7A2C00;stroke-width:5;stroke-miterlimit:10;}
	.st2{fill:#FFE8A6;}
	.st3{fill:#7A2C00;}
	.st4{fill:#301600;}
	.st5{fill:#FF9D4D;}
	.st6{fill:#913B00;}
	.st7{fill:#AF4F00;}
	.st8{fill:#441D00;}
	.st9{fill:#0F0600;}
	.st10{fill:#495154;}
	.st11{fill:#FFF0CA;}
	.st12{fill:#722E00;}
	.st13{fill:#FF8AD5;}
	.st14{fill:#FF64B5;}
	.st15{fill:#FF5FBE;}
	.st16{fill:#ED0061;}
	.st17{fill:#C60042;}
	.st18{fill:#FFB0EB;}
	.st19{fill:#CF85FF;}
	.st20{fill:#AA00F9;}
	.st21{fill:#160900;}
	.st22{fill:#626D7C;}
	.st23{fill:none;stroke:#E7AEFF;stroke-width:30;stroke-linecap:round;stroke-miterlimit:10;}
	.st24{fill:#0BAEFF;}
	.st25{fill:#007ACC;}
	.st26{fill:#0058C1;}
	.st27{fill:#22D5FF;}
	.st28{fill:#08D1FF;}
	.st29{fill:#282828;}
	.st30{fill:#636363;}
	.st31{fill:#48D8FF;}
	.st32{fill:#141414;}
	.st33{fill:#FFDA00;}
	.st34{fill:#FFB600;}
	.st35{fill:#FFA300;}
	.st36{fill:#FFE36E;}
	.st37{fill:none;stroke:#FFE36E;stroke-width:20;stroke-linecap:round;stroke-linejoin:round;stroke-miterlimit:10;}
	.st38{fill:#F44B00;}
	.st39{fill:#D82E00;}
	.st40{fill:#FF9312;}
	.st41{fill:#DD7300;}
	.st42{fill:none;stroke:#D35A00;stroke-width:8;stroke-linecap:round;stroke-miterlimit:10;}
	.st43{fill:#5B3A00;}
	.st44{fill:#472300;}
	.st45{fill:#D35A00;}
	.st46{fill:none;stroke:#FFB048;stroke-width:20;stroke-linecap:round;stroke-miterlimit:10;}
	.st47{fill:none;stroke:#FFB048;stroke-width:12;stroke-linecap:round;stroke-miterlimit:10;}
	.st48{fill:#00AD5A;}
	.st49{fill:#00F445;}
	.st50{fill:#00CC66;}
	.st51{fill:#00CC49;}
	.st52{fill:#1DFFEE;stroke:#00A58D;stroke-width:15;stroke-miterlimit:10;}
	.st53{fill:#203533;}
	.st54{fill:none;stroke:#5CFF68;stroke-width:20;stroke-linecap:round;stroke-miterlimit:10;}
	.st55{fill:#00D6D0;}
	.st56{fill:#00AAAA;}
	.st57{fill:#2CFFEA;}
	.st58{fill:#00E8D7;}
	.st59{fill:#00635E;}
	.st60{fill:#009388;}
	.st61{fill:none;stroke:#00AAAA;stroke-width:20;stroke-miterlimit:10;}
</style>
<g>
	<path class="st38" d="M947.16,585.27c0,0-0.26,4.83-1.17,12.11c0,0,0,0,0,0.01l-0.01,0.01c-2.76,22.02-11.54,66.49-37.46,68.05
		c-20.37,1.23-34.96-5.49-43.51-11.2c15.45,13.69,46.81,45.5,60.07,87.93c17.7,56.61-53.19,114.84-55.17,116.44
		c-0.02,0.02-0.03,0.03-0.03,0.03c0.18-0.67,16.9-60.09-44.17-72.09c-61.41-12.07-85.56,0-85.56,0s0.25,0.31,0.68,0.94
		c4.56,6.53,29.96,46.8,11.34,109.8c-8.5,28.73-19.97,49.32-30.45,63.58c-14.69,19.98-27.46,27.5-27.46,27.5s-7.37-49.67-33.8-79.58
		c-12.46-14.09-30.9-27.15-46.91-37.02c-3.84-2.37-7.55-4.54-10.99-6.51c-12.67-7.24-21.89-11.6-21.89-11.6
		s-32.06,28.51-40.68,61.89c-8.63,33.39,21.01,89.39,21.01,89.39s-26.5,5.65-62.6,0c-88.09-13.81-119.46-85.99-124.77-119.8
		c-5.32-33.81,0-80.28,0-80.28s-44.68,5.95-99.56,48.81c-15.55,12.15-35.5,61.83-35.5,61.83s-35.98-63.75-36.64-128.94
		c-1.39-136.25,72.15-170.82,72.15-170.82s-70.77-51.53-141.25,25.73c-0.01,0.01-0.01,0.02-0.01,0.02s0-124.2,29.76-161.03
		c29.75-36.84,74.19-50.8,74.19-50.8s-45.22-40.55-103.96-22.08c0,0,0.01-0.01,0.02-0.02c0.63-1.14,33.7-59.49,84.94-76.19
		c51.75-16.85,62.22-18.77,62.22-18.77s-6.93-38.8-59.09-55.63c-7.53-2.43-16-4.4-25.54-5.73c0,0,35.22-36.24,62.1-38.05
		c53.82-3.63,84.87,37.2,84.87,37.2s19.72-79.16,54.43-111.96s78.35-37.85,78.35-37.85s-35.77,60.3-19.59,94.71
		c14.87-63.4,40.91-79.27,70.07-94.44c29.16-15.18,123.37-28.29,123.37-28.29s-28.83,28.4-41.95,44.16
		c-13.11,15.78-20.7,35.88-22.67,69.39c21.29-50.76,63.38-60.42,94.36-69.39c30.5-8.83,67.88-15.08,69.04-15.27
		c-0.87,0.57-25.02,16.35-36.45,36.99c-11.64,21.02-11.14,31.42-9.41,47.68c17.24-26.43,34.84-38.35,65.67-45.69
		c30.83-7.35,112.7,21.22,112.7,21.22c-59.98,12.01-48.13,32.68-49.68,52.29c-1.55,19.61-22.08,27.38-22.08,27.38
		s28.29,18.25,43.99,19.81c15.7,1.57,25.01-53.73,25.01-53.73s22.08,32.1,27.6,81.15c5.52,49.04-38,86.08-50.42,88.14
		c39.32,23.81,81.42,18.02,81.42,18.02s15.87,76.17-27.61,112.38c-25,20.83-44.16,20.38-44.16,20.38s9.66,46.23,33.12,62.58
		C920.94,606.36,947.16,585.27,947.16,585.27z"/>
	<path class="st39" d="M636.2,835.23c-1.44,23.87-18.49,30.71-18.49,30.71l-4.14,5.84c-17.96-11.06-32.87-18.11-32.87-18.11
		s-32.06,28.51-40.68,61.89c-8.63,33.39,21.01,89.39,21.01,89.39s-26.5,5.65-62.6,0c-88.09-13.81-119.46-85.99-124.77-119.8
		c-5.32-33.81,0-80.28,0-80.28s-44.68,5.95-99.56,48.81c-15.55,12.15-35.5,61.83-35.5,61.83s-35.98-63.75-36.64-128.94
		c-1.39-136.25,72.15-170.82,72.15-170.82s-70.77-51.53-141.25,25.73c0.57-1.53,37.45-99.39,59.69-122.58
		c22.41-23.37,47.63-64.71,86.76-70.64c14.62-2.21,20.82-49.1,39.84-86.62c19.03-37.53,60.63-104.39,122.9-98.54
		c62.26,5.85,97.66,51.01,97.66,51.01l13.88,85.04L445.05,514.42l158.06,279.07C603.11,793.49,637.9,807.15,636.2,835.23z"/>
	<path class="st40" d="M410.94,387.04c68.11-104.27,219.62-90.31,282.01-1.16c34.39,49.14,40,95.97,29.96,149.25
		c-8.31,44.09-40.24,230.46-170.27,230.46c-132.26,0-156.55-178.34-169.12-231.62C373.6,491.91,383.52,429.02,410.94,387.04z"/>
	<path class="st41" d="M590.92,759.33c-132.26,0-156.55-178.34-169.12-231.62c-9.92-42.06,0-104.95,27.42-146.93
		c22.91-35.07,55.25-56.74,90.45-66.7c-49.35,2.49-97.7,25.44-128.74,72.96c-27.42,41.98-37.34,104.87-27.42,146.93
		c12.57,53.28,36.86,231.62,169.12,231.62c14.23,0,27.28-2.23,39.26-6.27C591.57,759.32,591.25,759.33,590.92,759.33z"/>
	<path class="st38" d="M646.28,341.81c-28.72-16.43-55.69,9.09-63.9,18.46c-11.82,13.52-28.81,38.86-28.81,38.86
		s-23.56-32.94-31.16-41.39c-7.6-8.45-32.95-36.32-67.44-15.86c-0.35,0.21-0.67,0.4-0.99,0.58c-5.92,3.44-5.77,2.62-1.66-0.95
		c9.31-8.09,38.92-30.3,64.2-49.02l0.01-0.01c21.57-15.97,39.99-29.41,39.99-29.41S675.01,358.25,646.28,341.81z"/>
	<path class="st40" d="M623.41,783H475.69c-18.86,0-33.15-20.19-29.85-42.19l8.44-56.24l2.44-16.32
		c2.58-17.14,15.16-29.63,29.85-29.63H610.2c14.32,0,26.69,11.87,29.66,28.46l13,72.55C656.84,761.89,642.57,782.85,623.41,783z"/>
	<path class="st40" d="M625.16,792.61v1.78c0,6.29-2.15,12.07-5.75,16.66c-4.94,6.31-12.64,10.37-21.28,10.37h-96.14
		c-14.93,0-27.03-12.1-27.03-27.03v-1.78c0-3.38,0.62-6.62,1.76-9.61c2.84-7.48,8.91-13.37,16.51-15.97
		c2.75-0.94,5.69-1.45,8.76-1.45h96.14c11.55,0,21.39,7.23,25.27,17.42C624.55,785.99,625.16,789.23,625.16,792.61z"/>
	<path class="st41" d="M519.45,562.78c-0.18,0.82-0.44,1.63-0.78,2.39l-1.15,2.63l-30.95,70.81l-37.21,78.71l-33.2-31.18l-9.62-9.03
		c-2.36-2.21-3.8-5.23-4.05-8.45l-4.97-65.53c-0.46-5.93,3.2-11.4,8.85-13.27l77.07-25.43c5.34-1.76,8.9-6.75,8.9-12.3
		c0-0.36-0.02-0.72-0.05-1.09c-0.56-6.48-5.83-11.55-12.34-11.83l-30.5-1.33c-4.6-0.2-8.75-2.83-10.9-6.92l-15.2-28.97
		c-3.03-5.8-1.27-12.94,4.11-16.66l5-3.46c6.06-4.19,13.66-5.52,20.78-3.62l43.49,11.59c4.62,1.23,8.18,4.91,9.27,9.57l13.42,57.63
		c0.04,0.15,0.07,0.3,0.1,0.47C519.86,559.28,519.83,561.06,519.45,562.78z"/>
	<path class="st41" d="M650.77,722.29l-31.26-83.34c-0.08-0.22-0.17-0.43-0.26-0.64l-31.96-73.13c-1.12-2.56-1.38-5.4-0.75-8.12
		l13.41-57.63c1.08-4.66,4.65-8.34,9.27-9.57l42.73-11.39c7.6-2.03,15.71-0.61,22.18,3.86l4.36,3.01c5.38,3.72,7.14,10.87,4.1,16.66
		l-15.2,28.97c-2.14,4.08-6.29,6.72-10.9,6.92l-30.49,1.33c-6.5,0.28-11.78,5.35-12.33,11.84l0,0c-0.51,5.97,3.15,11.51,8.84,13.39
		l77.07,25.42c5.65,1.86,9.3,7.34,8.85,13.27l-4.97,65.48c-0.25,3.25-1.71,6.29-4.1,8.5L650.77,722.29z"/>
	<path class="st41" d="M619.41,811.05c-4.94,6.31-12.64,10.37-21.28,10.37h-96.14c-14.93,0-27.03-12.1-27.03-27.03v-1.78
		c0-3.38,0.62-6.62,1.76-9.61h-1.04c-18.86,0-33.15-20.19-29.85-42.19l8.44-56.24l20.69-21.41c0,0-2.39,69.47-2.39,75.94
		c0,8.08,1.36,17.36,7.31,21.16c2.93,1.86,8.46,4.53,13.35,6.78c5.1,2.34,9.49,4.21,9.49,4.21s-0.36,5.45-0.42,11.76
		c-0.07,6.88,0.22,14.8,1.73,17.81c2.88,5.77,8,9.44,15.72,10.14C525.64,811.48,589.47,811.21,619.41,811.05z"/>
	<polyline class="st42" points="553.57,695.2 553.57,749.14 475.69,783 	"/>
	<line class="st42" x1="553.57" y1="749.14" x2="623.19" y2="783"/>
	<path class="st43" d="M598.81,650.43l-29.98,37.43c-7.83,9.78-22.71,9.78-30.54,0l-29.98-37.43c-2.78-3.47-4.29-7.78-4.29-12.23
		v-3.19c0-10.8,8.76-19.56,19.56-19.56h30.75h29.21c10.8,0,19.56,8.76,19.56,19.56v3.19C603.11,642.65,601.59,646.96,598.81,650.43z
		"/>
	<path class="st44" d="M554.02,679.42l-29.98-37.43c-2.78-3.47-4.29-7.78-4.29-12.23v-3.19c0-4.12,1.28-7.94,3.46-11.09
		c-10.63,0.2-19.18,8.87-19.18,19.54v3.19c0,4.44,1.51,8.76,4.29,12.23l29.98,37.43c7.83,9.78,22.71,9.78,30.54,0l0.9-1.13
		C563.92,686.87,558.04,684.44,554.02,679.42z"/>
	<path class="st45" d="M519.45,562.78l-1.93,5.03l-30.95,70.81l-37.21,78.71l-42.82-40.21c58.42-38.49,112.98-119.59,112.98-119.59
		C519.86,559.28,519.83,561.06,519.45,562.78z"/>
	<path class="st4" d="M487.49,532.42l-33.35-5.4c-5.99-0.97-10.05-6.61-9.08-12.6l0,0c0.97-5.99,6.61-10.05,12.6-9.08l33.35,5.4
		c5.99,0.97,10.05,6.61,9.08,12.6l0,0C499.11,529.32,493.48,533.39,487.49,532.42z"/>
	<path class="st4" d="M653.03,527.36l-33.45,4.78c-6,0.86-11.57-3.31-12.42-9.32h0c-0.86-6,3.31-11.57,9.32-12.42l33.45-4.78
		c6-0.86,11.57,3.31,12.42,9.32v0C663.21,520.94,659.04,526.51,653.03,527.36z"/>
	<path class="st46" d="M647.35,375.62c0,0,4.91,1.14,26.27,27.75c18.67,23.26,26.61,68,26.61,68"/>
	<circle class="st46" cx="622.08" cy="359.98" r="1.64"/>
	<path class="st47" d="M584.58,494.26c0,0-15.07,49.12-15.83,60.67c-0.77,11.6,8.13,30.25,8.13,30.25"/>
	<circle class="st47" cx="585.79" cy="602.27" r="0.42"/>
	<path class="st39" d="M553.57,399.14c0,0-23.56-32.94-31.16-41.39c-7.6-8.45-32.95-36.32-67.44-15.86
		c-0.35,0.21-0.67,0.4-0.99,0.58l-1.66-0.95c9.31-8.09,38.92-30.3,64.2-49.02l0.01-0.01c0,0,9.27,4.58,23.16,21.6
		C553.57,331.11,553.57,399.14,553.57,399.14z"/>
	<path class="st39" d="M646.18,341.76c14.61,9.19,27.82,20.54,38.91,33.86l0.01,0c0,0-21.21-29.8-22.47-52.5
		c-1.27-22.7,22.81-45.62,22.81-45.62s-25.34,0-50.68,14.99c-25.34,14.99-48.55,63.72-48.55,63.72l0,0
		C597.21,345.29,621.02,327.44,646.18,341.76z"/>
	<path class="st39" d="M548.09,336.31c0,0-11.32-52.05-36.66-78.24c-22.85-23.61-50.26-20.7-50.26-20.7s17.05,13.07,21.96,25.34
		c5.07,12.67-0.42,23.65-0.42,23.65L548.09,336.31z"/>
	<path class="st39" d="M869.92,858.62c-0.02,0.02-0.03,0.03-0.03,0.03c0.18-0.67,16.9-60.09-44.17-72.09
		c-61.41-12.07-85.56,0-85.56,0l-39.94-20.97c0,0,23.24-30.71,68.85-37.01c45.62-6.29,75.43-5.62,109.81,37.01
		C912.83,807.64,871.01,857.34,869.92,858.62z"/>
	<path class="st39" d="M945.98,597.39c-2.76,22.02-11.54,66.49-37.46,68.05c-20.37,1.23-34.96-5.49-43.51-11.2l-36.81-38.76
		c0.88,0.35,57.52,23.14,69.26,23.14c11.82,0,16.05,1.34,25.34-3.76C931.96,629.83,945.56,598.38,945.98,597.39z"/>
	<path class="st39" d="M752.18,897.3c-8.5,28.73-16.91,59.65-57.91,91.08v-35.94c19.61-23.65,36.5-60.82,33.11-103.06
		c-3.21-39.9-27.16-83.8-27.16-83.8l40.63,21.91C745.41,794.03,770.81,834.3,752.18,897.3z"/>
	<path class="st39" d="M694.27,988.38c0,0-7.37-49.67-33.8-79.58c-12.46-14.09-30.9-27.15-46.91-37.02
		c-3.84-2.37-7.55-4.54-10.99-6.51l16.84-54.23l5.75-2.76c0,0,49.9,28,66.61,63.48c7.92,16.83,18.73,40.12,20.42,63.77
		C714.07,961.93,694.27,988.38,694.27,988.38z"/>
	<path class="st39" d="M274.94,409.1l-38.15,20.56c0,0-45.22-40.55-103.96-22.08c0,0,0.01-0.01,0.02-0.02
		c0.7-0.75,23.67-24.77,70.24-31.94C250.4,368.33,274.94,409.1,274.94,409.1z"/>
	<path class="st39" d="M309.53,326.56l-29.52-13.96c0,0-6.93-38.8-59.09-55.63c0,0,57.64,2.04,73.4,8.33
		c15.77,6.28,21.82,16.83,23.65,27.19C321.36,311.57,309.53,326.56,309.53,326.56z"/>
</g>
</svg>
