<?xml version="1.0" encoding="utf-8"?>
<!-- Generator: Adobe Illustrator 26.0.3, SVG Export Plug-In . SVG Version: 6.00 Build 0)  -->
<svg version="1.1" id="Слой_1" xmlns="http://www.w3.org/2000/svg" xmlns:xlink="http://www.w3.org/1999/xlink" x="0px" y="0px"
	 viewBox="0 0 1080 1080" style="enable-background:new 0 0 1080 1080;" xml:space="preserve">
<style type="text/css">
	.st0{fill:url(#SVGID_1_);}
	.st1{fill:url(#SVGID_00000011716171124358291840000003772682689743347857_);}
	.st2{fill:url(#SVGID_00000129917079023824571720000001256331854415873155_);}
	.st3{fill:#FF39BD;}
	.st4{fill:none;stroke:#FF8AE6;stroke-width:30;stroke-linecap:round;stroke-miterlimit:10;}
	.st5{fill:url(#SVGID_00000157295140535711105130000004161689761895033731_);}
	.st6{fill:#FFEF5C;}
	.st7{fill:#FFDB43;}
	.st8{fill:#FF0031;}
	.st9{fill:#DD0000;}
	.st10{fill:#FF557E;}
	.st11{fill:#FFCD2C;}
	.st12{fill:#22D0FF;}
	.st13{fill:#00BCEF;}
	.st14{fill:#66E2FF;}
	.st15{fill:#FF1FC0;}
	.st16{fill:#EA00A8;}
	.st17{fill:#FF73DE;}
	.st18{fill:none;stroke:#FFF5B0;stroke-width:15;stroke-linecap:round;stroke-miterlimit:10;}
	.st19{fill:url(#SVGID_00000072258517770636545140000013267263113622535100_);}
	.st20{fill:#1C73AD;}
	.st21{fill:#CCD9DB;}
	.st22{fill:#00A894;}
	.st23{fill:#B6C6C5;}
	.st24{fill:#3283C6;}
	.st25{fill:#EAF3F4;}
	.st26{fill:#00847D;}
	.st27{fill:#E2001B;}
	.st28{fill:#FFFFFF;}
	.st29{fill:url(#SVGID_00000097475657027429133450000008448327349833396891_);}
	.st30{fill:#D7D7FF;}
	.st31{fill:#A6B7FF;}
	.st32{fill:#170060;}
	.st33{fill:#000630;}
	.st34{fill:#E6F3FF;}
	.st35{fill:none;stroke:#170060;stroke-width:15;stroke-linecap:round;stroke-miterlimit:10;}
	.st36{fill:none;stroke:#E3F1FF;stroke-width:30;stroke-linecap:round;stroke-miterlimit:10;}
	.st37{fill:none;stroke:#EAF3F4;stroke-width:30;stroke-linecap:round;stroke-miterlimit:10;}
	.st38{fill:none;stroke:#EAF3F4;stroke-width:20;stroke-linecap:round;stroke-miterlimit:10;}
	.st39{fill:none;stroke:#FF4D4D;stroke-width:20;stroke-linecap:round;stroke-miterlimit:10;}
	.st40{fill:url(#SVGID_00000141442004995925722710000009913419284939819401_);}
	.st41{fill:#FF50D6;}
	.st42{fill:#EEFF76;}
	.st43{fill:#5252FF;}
	.st44{fill:none;stroke:#2B2B2B;stroke-width:30;stroke-miterlimit:10;}
	.st45{fill:#2B2B2B;}
	.st46{fill:none;stroke:#F1FFD7;stroke-width:30;stroke-linecap:round;stroke-miterlimit:10;}
	.st47{fill:url(#SVGID_00000139269456852228354980000013974700481659228083_);}
	.st48{fill:#424242;}
	.st49{fill:#161616;}
	.st50{fill:#757575;}
	.st51{fill:none;stroke:#161616;stroke-width:25;stroke-miterlimit:10;}
	.st52{fill:#1C1C1C;}
	.st53{fill:#FF4DDD;stroke:#640089;stroke-width:10;stroke-miterlimit:10;}
	.st54{fill:#1D1D1B;}
</style>
<linearGradient id="SVGID_1_" gradientUnits="userSpaceOnUse" x1="545.2423" y1="1091.8527" x2="545.2423" y2="-2.6658">
	<stop  offset="0" style="stop-color:#D098FB"/>
	<stop  offset="1" style="stop-color:#FEA5E8"/>
</linearGradient>
<rect x="-6.11" y="-2.67" class="st0" width="1102.7" height="1094.52"/>
<g>
	<g>
		<polygon class="st41" points="531.82,839.62 217.93,719.29 217.93,335.47 531.82,429.84 		"/>
		<polygon class="st42" points="547.11,842.36 860.99,722.04 860.99,338.21 544.64,433.55 		"/>
		<polygon class="st43" points="860.99,325.15 539.94,233.72 218.9,325.15 539.94,429.69 		"/>
		<polygon class="st44" points="539.94,233.72 218.9,325.15 218.9,722.04 539.94,846.28 860.99,722.04 860.99,325.15 		"/>
		<polyline class="st44" points="860.99,325.15 539.94,429.69 218.9,325.15 		"/>
		<line class="st44" x1="539.94" y1="429.69" x2="539.94" y2="846.28"/>
		<g>
			<path class="st45" d="M310.44,721.12l-65.29-22.49l99.95-287.78l60.84,18.85l98.67,367.03l-76.69-31.83l-30.38-102.73
				l-64.4-24.18L310.44,721.12z M345.7,574.86l38.81,15.42l-16.28-92.35L345.7,574.86z"/>
		</g>
		<g>
			<path class="st45" d="M584.29,780.81V458.15l70.45-22.77l1.04,278.24L823.79,653l1.8,38.5L584.29,780.81z"/>
		</g>
		<g>
			<path class="st45" d="M310.44,325.15l234.2-64.39l54.02,13.12l-2.89,26.56l94.05,4.34l81.31,20.37l-238.33,75.13l-73.03-22.85
				l189.54-52.27H538.48l5.17-30.98L364.26,342.4L310.44,325.15z"/>
		</g>
	</g>
	<path class="st46" d="M756.86,413.62l43.76-15.19c7.79-2.7,15.92,3.08,15.92,11.32v134.36"/>
	<line class="st46" x1="723.84" y1="425.62" x2="704.94" y2="431.36"/>
</g>
</svg>
