<?xml version="1.0" encoding="utf-8"?>
<!-- Generator: Adobe Illustrator 26.0.3, SVG Export Plug-In . SVG Version: 6.00 Build 0)  -->
<svg version="1.1" id="Слой_1" xmlns="http://www.w3.org/2000/svg" xmlns:xlink="http://www.w3.org/1999/xlink" x="0px" y="0px"
	 viewBox="0 0 1080 1080" style="enable-background:new 0 0 1080 1080;" xml:space="preserve">
<style type="text/css">
	.st0{fill:#0095E0;}
	.st1{fill:#0084DD;}
	.st2{fill:#00BEF9;}
	.st3{fill:#00A6EF;}
	.st4{fill:#E5E5E5;}
	.st5{fill:#C0FCFF;}
	.st6{fill:#97E4FF;}
	.st7{fill:#E9FEFF;}
	.st8{fill:#CE0000;}
	.st9{fill:#FFDA00;}
	.st10{fill:#FFB000;}
	.st11{fill:#FFEB99;}
	.st12{fill:url(#SVGID_1_);}
	.st13{fill:#E30613;}
	.st14{fill:#FF55DB;}
	.st15{fill:url(#SVGID_00000081618735699065108590000001360224313199233442_);}
	.st16{fill:url(#SVGID_00000133503254239189241820000010022953570260471481_);}
	.st17{fill:url(#SVGID_00000153693425895068639270000011031649626440790946_);}
	.st18{fill:#6600BF;}
	.st19{fill:url(#SVGID_00000095300945154125883030000011679658993325287608_);}
	.st20{fill:#3E0066;}
	.st21{fill:#FF92E5;}
	.st22{fill:url(#SVGID_00000181085250272158036530000012201554266706158766_);}
	.st23{fill:url(#SVGID_00000018920811877839531530000004697826490452902062_);}
	.st24{fill:url(#SVGID_00000106139530815981137760000008380579683473682086_);}
	.st25{fill:none;stroke:#410096;stroke-width:13;stroke-linecap:round;stroke-miterlimit:10;}
	.st26{fill:none;stroke:#3D0084;stroke-width:23;stroke-linecap:round;stroke-miterlimit:10;}
	.st27{fill:#00A867;}
	.st28{fill:#FFA6DD;}
	.st29{fill:#FF88D2;}
	.st30{fill:#00DB68;}
	.st31{fill:#008464;}
	.st32{fill:#FFB8E7;}
	.st33{fill:#FFD2F2;}
	.st34{fill:#FFC5EC;}
	.st35{fill:#FFE6FA;}
	.st36{fill:#E50016;}
	.st37{fill:#FF1F1F;}
	.st38{fill:#C6001D;}
	.st39{fill:url(#SVGID_00000013151228248281596640000003459796165493087617_);}
	.st40{fill:url(#SVGID_00000160902291011092919090000013269927445711923129_);}
	.st41{fill:#FF6155;}
	.st42{fill:#009640;}
	.st43{fill:#00C650;}
	.st44{fill:#007F2D;}
	.st45{fill:none;stroke:#A06600;stroke-width:20;stroke-linecap:round;stroke-miterlimit:10;}
	.st46{fill:none;stroke:#60352B;stroke-width:20;stroke-linecap:round;stroke-miterlimit:10;}
	.st47{fill:none;stroke:#6D3600;stroke-width:20;stroke-linecap:round;stroke-miterlimit:10;}
	.st48{fill:none;stroke:#60352B;stroke-width:15;stroke-linecap:round;stroke-miterlimit:10;}
	.st49{fill:#00F445;}
	.st50{fill:#FFCE00;}
	.st51{fill:#FFDE3B;}
	.st52{fill:#5B3800;}
	.st53{fill:#844200;}
	.st54{fill:#422700;}
	.st55{fill:#7F3900;}
	.st56{fill:#774600;}
	.st57{fill:#0088ED;}
	.st58{fill:#08C5FF;}
	.st59{fill:#006054;}
	.st60{fill:#00894B;}
	.st61{fill:#004C43;}
	.st62{fill:#007C4F;}
	.st63{fill:#009B3F;}
	.st64{fill:url(#SVGID_00000183947130448486293290000000528054257629128889_);}
	.st65{fill:url(#SVGID_00000119823500527751972490000001942241677603563416_);}
	.st66{fill:url(#SVGID_00000155122400270168010640000010359160451289470618_);}
	.st67{fill:url(#SVGID_00000116948716914144941620000005985273433999616163_);}
	.st68{fill:url(#SVGID_00000128473674700702391990000007509127552349340562_);}
	.st69{fill:url(#SVGID_00000129191344960471602340000010612446774985937043_);}
	.st70{fill:url(#SVGID_00000151517808454061697710000009223329811573624477_);}
	.st71{fill:url(#SVGID_00000054964459016994864060000004912704919702161838_);}
	.st72{fill:url(#SVGID_00000129190087605490239790000013207625315949257869_);}
	.st73{fill:url(#SVGID_00000165203859438449114160000008228261370434111927_);}
	.st74{fill:url(#SVGID_00000171718120096274355140000011292000391037077379_);}
	.st75{fill:url(#SVGID_00000081609802422445968700000008798942446124056739_);}
	.st76{fill:url(#SVGID_00000083071254641196612470000009692207234262900918_);}
	.st77{fill:url(#SVGID_00000152968682381038187390000011737027340295589047_);}
	.st78{fill:url(#SVGID_00000070832289635125928710000002105030393892292229_);}
	.st79{fill:url(#SVGID_00000012449375272833709060000007811299224651829120_);}
	.st80{fill:url(#SVGID_00000043429327506077452720000002041809998792339903_);}
	.st81{fill:url(#SVGID_00000055683337969547928820000018207814381374937252_);}
	.st82{fill:url(#SVGID_00000067924050204731954540000011232258078009187219_);}
	.st83{fill:url(#SVGID_00000160159987829680940280000002622420821467060155_);}
	.st84{fill:url(#SVGID_00000104695197501689499480000015467882330819784102_);}
	.st85{fill:url(#SVGID_00000140716810899215310920000015301962274436058774_);}
	.st86{fill:url(#SVGID_00000065794236815314832250000006727093735967529368_);}
	.st87{fill:url(#SVGID_00000041980094549137409350000001732824367381689496_);}
	.st88{fill:url(#SVGID_00000025424073391362571910000001797248631252693904_);}
	.st89{fill:url(#SVGID_00000040559782889776802950000018139370750354317209_);}
	.st90{fill:url(#SVGID_00000021108536335587500080000016704502689634706345_);}
	.st91{fill:url(#SVGID_00000047043876143193323130000012691135947510210489_);}
	.st92{fill:url(#SVGID_00000034798441766541615180000006579144114548881314_);}
	.st93{fill:url(#SVGID_00000176028976137261792920000000094023491466734013_);}
	.st94{fill:url(#SVGID_00000016038514309705637010000004053730596884130205_);}
	.st95{fill:url(#SVGID_00000119076452063387785560000001997847444762872221_);}
	.st96{fill:url(#SVGID_00000093150397028225935500000011895360799500170136_);}
	.st97{fill:url(#SVGID_00000067957764416833780990000007907052758536558269_);}
	.st98{fill:url(#SVGID_00000045601597838569798100000005639002410175700364_);}
	.st99{fill:url(#SVGID_00000106836578529871887760000002278584680391499690_);}
	.st100{fill:url(#SVGID_00000011027155163486594740000006638171256050602915_);}
	.st101{fill:url(#SVGID_00000079445977315870522660000001733970333482396577_);}
	.st102{fill:url(#SVGID_00000151519470459846450890000018284536198737993608_);}
	.st103{fill:url(#SVGID_00000016073019571026668910000014815984071695357103_);}
	.st104{fill:url(#SVGID_00000012472866710223263740000011699569337011836594_);}
	.st105{fill:url(#SVGID_00000029762169887533141960000014754006640819927975_);}
	.st106{fill:url(#SVGID_00000108270826571969912120000001065780163074195113_);}
	.st107{fill:url(#SVGID_00000135656260882134545010000001602647729156830380_);}
	.st108{fill:url(#SVGID_00000142149661152272239700000009592663352801841538_);}
	.st109{fill:url(#SVGID_00000168839032732394351940000016676656458373893304_);}
	.st110{fill:url(#SVGID_00000030449405038741310460000016304080712343743390_);}
	.st111{fill:url(#SVGID_00000119803447977069920280000009488402049314976424_);}
	.st112{fill:url(#SVGID_00000065796429767820819770000004898011518701446575_);}
	.st113{fill:url(#SVGID_00000041267925664878801250000001300902278204012180_);}
	.st114{fill:url(#SVGID_00000029750021155936185400000000498800158057923200_);}
	.st115{fill:#FFBC27;}
	.st116{fill:url(#SVGID_00000127002031845639769720000004274413990332670354_);}
	.st117{fill:url(#SVGID_00000170241645208821810770000003473048739756683952_);}
	.st118{fill:url(#SVGID_00000009559015925547925150000012153346856007607230_);}
	.st119{fill:url(#SVGID_00000037661179151521322810000012432162160630430100_);}
	.st120{fill:url(#SVGID_00000150089211997620641950000016265412265475283843_);}
	.st121{fill:url(#SVGID_00000094611954399402074730000012556533707443046825_);}
	.st122{fill:url(#SVGID_00000164493088616991380550000015030023610038374591_);}
	.st123{fill:url(#SVGID_00000062892421101215578740000003376689208006724783_);}
	.st124{fill:url(#SVGID_00000114790565224694014770000012919238171515175338_);}
	.st125{fill:url(#SVGID_00000012442210675418340620000003326390653930258104_);}
	.st126{fill:url(#SVGID_00000080921194185819740480000012895847128410103212_);}
	.st127{fill:url(#SVGID_00000002363395342363484280000005755180944328508583_);}
	.st128{fill:url(#SVGID_00000128469534282348515180000009656377856584066952_);}
	.st129{fill:url(#SVGID_00000152954598274512318570000012355737336100295553_);}
	.st130{fill:url(#SVGID_00000097478442306094876200000011176700579099793311_);}
	.st131{fill:url(#SVGID_00000183966946615415187180000002010236189697768327_);}
	.st132{fill:url(#SVGID_00000026165317256724502320000014615446415296158126_);}
	.st133{fill:url(#SVGID_00000044859103297398287570000004297918195827807133_);}
	.st134{fill:url(#SVGID_00000059287932097337568250000012326825348290522811_);}
	.st135{fill:url(#SVGID_00000143608720193865044610000014404008249590503087_);}
	.st136{fill:url(#SVGID_00000084522075479338532850000003900460596543364235_);}
	.st137{fill:url(#SVGID_00000051348653062705080330000007338918410694416292_);}
	.st138{fill:url(#SVGID_00000125604866877865824220000018312819886364981695_);}
	.st139{fill:url(#SVGID_00000103950070856952673290000008267084720491569597_);}
	.st140{fill:url(#SVGID_00000015351757797605990290000003467174955117891989_);}
	.st141{fill:url(#SVGID_00000035519668741789695550000006788374072157222319_);}
	.st142{fill:url(#SVGID_00000140731204120934739640000000170066397861349016_);}
	.st143{fill:url(#SVGID_00000044893637221825563550000014209730255825813914_);}
	.st144{fill:url(#SVGID_00000163040498932528204740000006105611914200846003_);}
	.st145{fill:url(#SVGID_00000124860764557564012220000009262851678096564380_);}
	.st146{fill:url(#SVGID_00000076599486985555886310000012866894962591933870_);}
	.st147{fill:url(#SVGID_00000034065966829377998280000003665253541049889433_);}
	.st148{fill:url(#SVGID_00000088828374834300137230000008761264822828031149_);}
	.st149{fill:url(#SVGID_00000124860859890732790660000001650570366561209005_);}
	.st150{fill:url(#SVGID_00000101063929439567431640000009718916364233885374_);}
	.st151{fill:url(#SVGID_00000142863327955421969670000009907362703710612639_);}
	.st152{fill:url(#SVGID_00000075145765192226106190000012441518544977132197_);}
	.st153{fill:url(#SVGID_00000050641349436496487940000014483628937343402937_);}
	.st154{fill:url(#SVGID_00000164496991922988804480000010764388782893848735_);}
	.st155{fill:url(#SVGID_00000068668136629936478480000005303706675883225245_);}
	.st156{fill:url(#SVGID_00000116197846807119355680000006576967428651047326_);}
	.st157{fill:url(#SVGID_00000028310901408271665610000007646648353806451079_);}
	.st158{fill:url(#SVGID_00000131332942537445262810000007374297905618821523_);}
	.st159{fill:url(#SVGID_00000023978935334489544820000002172377000680012721_);}
	.st160{fill:url(#SVGID_00000137837001354467688420000002136771428716750251_);}
	.st161{fill:url(#SVGID_00000084504645140615855000000011249268419004377742_);}
	.st162{fill:url(#SVGID_00000028288572196510093130000018153511684812186279_);}
	.st163{fill:url(#SVGID_00000066481499494434092850000008111000982221553302_);}
	.st164{fill:#FFC545;}
	.st165{fill:url(#SVGID_00000059275586070929885580000006368032391930524580_);}
	.st166{fill:url(#SVGID_00000029742983371873773560000007483120874775168904_);}
	.st167{fill:url(#SVGID_00000164502208949814031260000012989242094021195948_);}
	.st168{fill:url(#SVGID_00000000210037440293883720000001974573124188486283_);}
	.st169{fill:url(#SVGID_00000087388070512137700340000014218551307023055794_);}
	.st170{fill:url(#SVGID_00000036247343827391652320000010663539701842903948_);}
	.st171{fill:url(#SVGID_00000069386276493381542970000010690078453705986184_);}
	.st172{fill:url(#SVGID_00000023997918176212318270000002972759000803653512_);}
	.st173{fill:url(#SVGID_00000045602504667562795890000013189742504904174258_);}
	.st174{fill:url(#SVGID_00000062889401051230968150000012382856212936188311_);}
	.st175{fill:url(#SVGID_00000010287421610598534190000015537928619206068625_);}
	.st176{fill:url(#SVGID_00000109717109907331041630000016441945760278463900_);}
	.st177{fill:url(#SVGID_00000153685320646778172570000009901328402164590479_);}
	.st178{fill:url(#SVGID_00000121278928866808362320000011185657545709669535_);}
	.st179{fill:url(#SVGID_00000039124601742631483390000007485703740273309860_);}
	.st180{fill:url(#SVGID_00000008136226154717298780000013310187954337882262_);}
	.st181{fill:url(#SVGID_00000132068918264276110350000004125061223662516625_);}
	.st182{fill:url(#SVGID_00000083780482915399330390000008457316320617233559_);}
	.st183{fill:url(#SVGID_00000067199312825775085470000014322865926717404863_);}
	.st184{fill:url(#SVGID_00000091014189042464674230000009095808357309365893_);}
	.st185{fill:url(#SVGID_00000168833148966804179640000009035412137751788440_);}
	.st186{fill:url(#SVGID_00000145738434880093776450000001306603628368298658_);}
	.st187{fill:url(#SVGID_00000134238238300222203340000004189605585515372175_);}
	.st188{fill:url(#SVGID_00000163778320256203803370000006612642097177211312_);}
	.st189{fill:url(#SVGID_00000101089681751564479290000013312211916817835439_);}
	.st190{fill:url(#SVGID_00000031915742616465705400000010640910019928373122_);}
	.st191{fill:url(#SVGID_00000168101102431608601810000004873600246422160273_);}
	.st192{fill:url(#SVGID_00000099639557776847504570000005087387045267449505_);}
	.st193{fill:url(#SVGID_00000043443197779207830390000014323718218012264365_);}
	.st194{fill:url(#SVGID_00000020377816337541809670000003725073865018762943_);}
	.st195{fill:url(#SVGID_00000003089632222853227370000015120714388367341745_);}
	.st196{fill:url(#SVGID_00000033354291240315776350000014628664803630731690_);}
	.st197{fill:url(#SVGID_00000108990886449951803920000010913895715647697578_);}
	.st198{fill:url(#SVGID_00000124131923836345515790000003278941731577904817_);}
	.st199{fill:url(#SVGID_00000003785502404986838670000005872180899988557979_);}
	.st200{fill:url(#SVGID_00000065069858411146312970000018390798066274490753_);}
	.st201{fill:url(#SVGID_00000053503982374285751970000012070251703183355309_);}
	.st202{fill:url(#SVGID_00000136377051501080487090000010253975519823368330_);}
	.st203{fill:url(#SVGID_00000085959086426901291440000012821209560529408679_);}
	.st204{fill:url(#SVGID_00000139266316730642579350000006057491167773637288_);}
	.st205{fill:url(#SVGID_00000055667500899702782690000003246996417506463163_);}
	.st206{fill:url(#SVGID_00000063621785410593762850000009636311132122352290_);}
	.st207{fill:url(#SVGID_00000085954795724838968390000002750599403799034757_);}
	.st208{fill:url(#SVGID_00000147935693655840196880000004281759233169065631_);}
	.st209{fill:url(#SVGID_00000127751839785290770070000016016603296601564834_);}
	.st210{fill:url(#SVGID_00000058579465698260802600000018397524334552810888_);}
	.st211{fill:url(#SVGID_00000154424815800116207010000009345613207875967157_);}
	.st212{fill:url(#SVGID_00000094588851323216857860000016572839873633239451_);}
	.st213{fill:url(#SVGID_00000054953411143248271390000014325371214399884967_);}
	.st214{fill:url(#SVGID_00000132783942043085246830000003133714117074316216_);}
	.st215{fill:url(#SVGID_00000098193800043732601680000017637583775119011487_);}
	.st216{fill:url(#SVGID_00000131350086862640240390000001884123935869976456_);}
	.st217{fill:url(#SVGID_00000139286047738756370210000015651072851706918556_);}
	.st218{fill:url(#SVGID_00000055683436917420224680000010547012146762550415_);}
	.st219{fill:url(#SVGID_00000171713438193057855560000017962129085086476419_);}
	.st220{fill:url(#SVGID_00000080891458684951085910000007192101297927601049_);}
	.st221{fill:url(#SVGID_00000063625438834330927660000007302703657972217512_);}
	.st222{fill:url(#SVGID_00000096026457702184171650000014647019655630379648_);}
	.st223{fill:url(#SVGID_00000051343767438164012470000006383261043185039261_);}
	.st224{fill:url(#SVGID_00000136391671474247478140000013245028083593347490_);}
	.st225{fill:url(#SVGID_00000011714727063234187450000012355701865480979342_);}
	.st226{fill:url(#SVGID_00000137100525598951365960000013301889191924443831_);}
	.st227{fill:url(#SVGID_00000114756860390022982490000007877003147638926751_);}
	.st228{fill:url(#SVGID_00000125574914398064782180000014126368978374813362_);}
</style>
<g>
	<path class="st27" d="M1017.92,718.03c0,15.88-9.19,31.13-26.1,45.34l-286.59-26.89l100.05,82.83l1.01,13.96
		c-74.86,14.61-164.73,23.24-261.5,23.52c-1.62,0.01-3.24,0.01-4.87,0.01c-263.99,0-478-62.13-478-138.77
		c0-1.78,0.12-3.55,0.35-5.32c9.63-74.18,219.8-133.45,477.65-133.45C803.92,579.26,1017.92,641.39,1017.92,718.03z"/>
	<path class="st28" d="M471.19,429.56c34.14,99.39,23.33,193.18-24.13,209.48S333.45,587.99,299.32,488.6s-9.2-192.97,24.13-209.48
		C351.81,265.06,437.06,330.17,471.19,429.56z"/>
	<path class="st28" d="M781.7,484.55c-35.64,98.86-102.8,165.21-150.01,148.19c-47.21-17.02-56.59-110.96-20.95-209.82
		c35.64-98.86,113.68-156.19,150.01-148.19C791.66,281.54,817.34,385.69,781.7,484.55z"/>
	<path class="st28" d="M656.03,413.48c3.64,105.03-54.47,188.53-104.62,190.26s-109.82-85.23-113.45-190.26
		c-3.64-105.03,63.59-184.01,100.29-190.08C569.48,218.25,652.4,308.46,656.03,413.48z"/>
	<path class="st29" d="M437.55,641.17c-46.45,5.26-106.32-59.66-138.23-152.58c-26.72-77.77-17.26-152,4.1-188.51
		c36.21,5.98,103.61,66.17,133.02,151.84C463.32,530.17,462.34,604.95,437.55,641.17z"/>
	<g>
		<path class="st30" d="M540.08,579.43c-6.11,0-12.2,0.03-18.26,0.1c233.1,9.24,377.82,76.55,412.71,137.48
			c8.19,14.3,6.39,25.94-10.52,40.15l-0.26-0.03l0,0l68.23,6.4c16.91-14.21,26.1-29.46,26.1-45.34
			C1018.08,641.55,804.08,579.43,540.08,579.43z"/>
		<polygon class="st30" points="705.42,736.65 704.6,735.97 686.83,734.25 805.7,833.39 805.28,819.31 705.39,736.65 		"/>
	</g>
	<path class="st29" d="M750.78,506.9c-35.64,98.86-102.8,165.21-150.01,148.19c-47.21-17.02-40.02-105.84-4.38-204.7
		c35.64-98.86,97.11-161.31,133.44-153.31C760.74,303.89,786.42,408.04,750.78,506.9z"/>
	<path class="st31" d="M682.05,682.79c0,0-203.99-50.29-365.97-87.39C164.89,618.7,61.92,664.87,61.92,718.03
		c0,45.23,74.56,85.41,189.94,110.74c113.02-9.32,284.96-35.91,434.97-110.74c0,0,31.28-13.23,26.41-26.83
		C708.22,677.17,682.05,682.79,682.05,682.79z"/>
	<path class="st29" d="M621.29,435.84c3.64,105.03-54.47,188.53-104.62,190.26c-50.15,1.74-87.1-50.32-85.97-155.4
		c1.6-149.13,45.97-201.51,72.81-224.93C527.35,224.95,617.65,330.81,621.29,435.84z"/>
	<path class="st28" d="M626,524.25c-79.49,40.8-105.54,104.14-71.39,141.89c34.15,37.74,128.3,72.94,222.47-12.25
		s152.69-258.53,118.54-296.27S740.83,465.31,626,524.25z"/>
	<path class="st27" d="M384.58,611.27c-23.2-5.43-46.25-10.78-68.51-15.88C164.89,618.7,61.92,664.87,61.92,718.03
		c0,4.13,0.63,8.21,1.84,12.25C80.49,674.82,209.59,628.72,384.58,611.27z"/>
	<path class="st28" d="M460.93,528.39c79.49,40.8,105.54,104.14,71.39,141.89c-34.15,37.74-128.3,72.94-222.47-12.25
		S157.16,399.49,191.31,361.75S346.1,469.44,460.93,528.39z"/>
	<path class="st29" d="M537.76,631.95c-34.15,37.74-128.3,72.94-222.47-12.25c-41.09-37.18-85.93-86.98-115.98-136.26
		c21.54,60.91,61.13,129.88,110.54,174.58c94.17,85.2,188.32,49.99,222.47,12.25c12.59-13.91,16.98-31.3,13.55-49.76
		C543.71,624.53,541.01,628.35,537.76,631.95z"/>
	<path class="st32" d="M460.93,528.39C346.1,469.44,225.46,324.01,191.31,361.75c-1.9,2.1-3.5,4.65-4.84,7.55
		c47.48,3.18,152.49,121.12,253.04,172.73c79.49,40.8,105.54,104.14,71.39,141.89c-3.38,3.74-7.37,7.45-11.87,11.03
		c13.89-7.06,25.24-15.8,33.28-24.68C566.47,632.53,540.42,569.19,460.93,528.39z"/>
	
		<ellipse transform="matrix(0.1491 -0.9888 0.9888 0.1491 -72.5315 924.9066)" class="st28" cx="501.14" cy="504.6" rx="128.32" ry="63.33"/>
	
		<ellipse transform="matrix(0.9863 -0.1648 0.1648 0.9863 -75.1524 100.3968)" class="st28" cx="567.5" cy="503.13" rx="63.33" ry="128.32"/>
	<path class="st32" d="M572.67,683.58c-30.65,44.66-108.77,44.3-174.48-0.79c-65.72-45.1-91.68-190.7-61.03-235.36
		s129.34,52.46,197.34,94.03C591.42,576.25,603.32,638.92,572.67,683.58z"/>
	<path class="st33" d="M534.5,541.46c-47.15-28.82-109.05-84.33-152.79-100.79c33.92,33.07,71.36,94.63,103.95,132.07
		c42.2,48.49,67.36,50.83,28.73,85.02c37.77,4.14,40.61,51.59,58.28,25.83C603.32,638.92,591.42,576.25,534.5,541.46z"/>
	<path class="st32" d="M507.56,683.58c30.65,44.66,108.77,44.3,174.48-0.79c65.72-45.1,91.68-190.7,61.03-235.36
		s-129.34,52.46-197.34,94.03C488.81,576.25,476.91,638.92,507.56,683.58z"/>
	<ellipse class="st34" cx="539.92" cy="569.62" rx="79.1" ry="148.41"/>
	<path class="st32" d="M895.61,357.61c-12.2-13.48-35.44-3.58-65.5,17.39c2.95,1.12,5.56,2.86,7.78,5.31
		c30.84,34.08,8.74,185.62-65.18,277.43c1.46-1.26,2.91-2.55,4.37-3.86C871.24,568.69,929.76,395.36,895.61,357.61z"/>
	<path class="st33" d="M743.07,447.43c-11.31-16.48-31.9-13.64-56.79-1.42c4.48,1.81,8.35,4.88,11.5,9.47
		c30.65,44.66,11,203.3-54.72,248.4v0c13.17-5.37,26.3-12.39,38.98-21.09C747.76,637.69,773.72,492.09,743.07,447.43z"/>
	<path class="st35" d="M510.01,448.23c43.69,0,91.97,73.57,91.97,155.54c0,24.67-1.17,48.09-4.95,68.54
		c13.62-26.66,22-62.84,22-102.69c0-81.97-35.41-148.41-79.1-148.41c-18.27,0-35.1,11.63-48.49,31.16
		C497.39,449.67,503.61,448.23,510.01,448.23z"/>
	<g>
		<path class="st31" d="M806.29,833.27c-77.3,16.17-159.57,23.31-261.5,23.52c-1.62,0.01-3.24,0.01-4.87,0.01
			c-263.99,0-478-62.13-478-138.77c0-1.78,0.12-3.55,0.35-5.32c0.08-0.58,0.17-1.17,0.27-1.76
			c12.69,73.36,221.57,131.69,477.38,131.69c98.19,0,189.45-8.59,265.36-23.33L806.29,833.27z"/>
		<path class="st31" d="M991.82,749.21L687.4,721.93v12.8l304.42,28.64c16.91-14.21,26.1-29.46,26.1-45.34
			c0-2.4-0.21-4.78-0.62-7.15C1015.01,724.24,1006.23,737.11,991.82,749.21z"/>
	</g>
	<polygon class="st30" points="686.83,734.25 686.83,721.82 705.23,736.48 690.41,735.89 687.98,735.21 	"/>
</g>
</svg>
