<?xml version="1.0" encoding="utf-8"?>
<!-- Generator: Adobe Illustrator 26.0.3, SVG Export Plug-In . SVG Version: 6.00 Build 0)  -->
<svg version="1.1" id="Слой_1" xmlns="http://www.w3.org/2000/svg" xmlns:xlink="http://www.w3.org/1999/xlink" x="0px" y="0px"
	 viewBox="0 0 1080 1080" style="enable-background:new 0 0 1080 1080;" xml:space="preserve">
<style type="text/css">
	.st0{fill:#FFEFAE;}
	.st1{fill:#FFD731;}
	.st2{fill:#005318;}
	.st3{fill:#002716;}
	.st4{fill:#FFDF69;}
	.st5{fill:#1EEF00;}
	.st6{fill:#00B700;}
	.st7{fill:#A4FF5C;}
	.st8{fill:#E7FFAB;}
	.st9{fill:#726D00;}
	.st10{fill:#FFEA8C;}
	.st11{fill:#FFFDE0;}
	.st12{fill:#FFEE1E;}
	.st13{fill:#FFF16E;}
	.st14{fill:#FFF5CC;}
	.st15{fill:#FFA91F;}
	.st16{fill:#FFCB4A;}
	.st17{fill:#FFEB97;}
	.st18{fill:#FF9017;}
	.st19{fill:#EA6F00;}
	.st20{fill:#A000E2;}
	.st21{fill:#BF36FF;}
	.st22{fill:#DCA1FF;}
	.st23{fill:#006D1C;}
	.st24{fill:#008C1E;}
	.st25{fill:url(#SVGID_1_);}
	.st26{fill:#FF9E78;}
	.st27{fill:#FF855F;}
	.st28{fill:#086B00;}
	.st29{fill:#FFBDA6;}
	.st30{fill:#688E00;}
	.st31{fill:#FF8D73;}
	.st32{fill:#FF6D00;}
	.st33{fill:#FF7F29;}
	.st34{fill:#6CC900;}
	.st35{fill:#599E00;}
	.st36{fill:#8AE200;}
	.st37{fill:#616800;}
	.st38{fill:#CC4400;}
	.st39{fill:#CE0000;}
	.st40{fill:#FFAA88;}
	.st41{fill:#F72300;}
	.st42{fill:#FF3600;}
	.st43{fill:#DD0000;}
	.st44{fill:#FF5C36;}
	.st45{fill:#FF8269;}
	.st46{fill:#8C004D;}
	.st47{fill:#399B00;}
	.st48{fill:#2B7C00;}
	.st49{fill:#5EBF00;}
	.st50{fill:#B2006A;}
	.st51{fill:#FF6ED3;}
	.st52{fill:#7CDB00;}
	.st53{fill:#86D300;}
	.st54{fill:#5DB500;}
</style>
<path class="st5" d="M902.33,561c0,12.58-0.72,25-2.13,37.21c-13.39,116.32-88.78,214.58-193.57,263.29
	c-104.9-2.24-199.84-62.76-197.84-145c0.68-28,19.76-80,31.21-107.94c-29.49,47.63-100.86,119.77-161,119.77
	c-91.41,0-165.7-73.29-167.3-164.32c-0.01-0.13-0.01-0.27-0.01-0.41c-0.01-0.86-0.02-1.73-0.02-2.6c0-0.43,0-0.87,0.01-1.3
	c0-0.43,0-0.86,0.01-1.3c0-0.14,0-0.28,0.01-0.41c1.66-182.7,155.62-330.32,345.3-330.32C747.72,227.67,902.33,376.91,902.33,561z"
	/>
<ellipse transform="matrix(0.9926 -0.1214 0.1214 0.9926 -34.7473 65.7404)" class="st6" cx="522.29" cy="318.11" rx="111.22" ry="47.11"/>
<path class="st7" d="M706.63,861.5c-45.27,21.04-96.02,32.83-149.63,32.83c-189.68,0-343.64-147.62-345.3-330.32
	c-0.01-0.13-0.01-0.27-0.01-0.41c-0.01-0.86-0.02-1.73-0.02-2.6c0-0.43,0-0.87,0.01-1.3c0-0.43,0-0.86,0.01-1.3
	c0-0.14,0-0.28,0.01-0.41c1.6-91.03,75.89-164.32,167.3-164.32c92.42,0,167.33,74.91,167.33,167.33c0,18.73-3.08,36.74-8.75,53.56
	c-8.58,26.45-28.14,74.88-28.79,101.94C506.8,798.74,601.73,859.26,706.63,861.5z"/>
<ellipse class="st8" cx="358.33" cy="522.33" rx="72" ry="66.67"/>
<circle class="st8" cx="397.36" cy="646.7" r="31.03"/>
<path class="st9" d="M540,362.78c0,0-10.34-153.92-80.83-230.52c-24.15-1.95-33.02,12.19-37.89,15.2
	c4.25,5.06,80.06,90.12,101.1,217.41L540,362.78z"/>
</svg>
