<?xml version="1.0" encoding="utf-8"?>
<!-- Generator: Adobe Illustrator 26.0.3, SVG Export Plug-In . SVG Version: 6.00 Build 0)  -->
<svg version="1.1" id="Слой_1" xmlns="http://www.w3.org/2000/svg" xmlns:xlink="http://www.w3.org/1999/xlink" x="0px" y="0px"
	 viewBox="0 0 1080 1080" style="enable-background:new 0 0 1080 1080;" xml:space="preserve">
<style type="text/css">
	.st0{fill:#E5E5E5;}
	.st1{fill:#EA5F00;}
	.st2{fill:#C65000;}
	.st3{fill:#FF7300;}
	.st4{fill:#899296;stroke:#54606D;stroke-width:15;stroke-miterlimit:10;}
	.st5{fill:#778389;stroke:#54606D;stroke-width:15;stroke-linecap:round;stroke-linejoin:round;stroke-miterlimit:10;}
	.st6{fill:#54606D;}
	.st7{fill:#FFBE2C;}
	.st8{fill:#FF9D00;}
	.st9{fill:#899296;}
	.st10{fill:#BCBFC1;}
	.st11{fill:#FFD488;}
	.st12{fill:#96FF31;}
	.st13{fill:#84EA00;}
	.st14{fill:#FF2A00;}
	.st15{fill:#DD0A00;}
	.st16{fill:#FFEEA9;}
	.st17{fill:#FFDC9F;}
	.st18{fill:#606A6D;stroke:#1C242B;stroke-width:30;stroke-miterlimit:10;}
	.st19{fill:#FFCF48;}
	.st20{fill:#FF7761;}
	.st21{fill:#606A6D;}
	.st22{fill:#005B77;}
	.st23{fill:#00404F;}
	.st24{fill:#9DA6A8;}
	.st25{fill:#384042;}
	.st26{fill:#00D6D6;}
	.st27{fill:#00F9EC;}
	.st28{fill:#606A6D;stroke:#1C242B;stroke-width:80;stroke-miterlimit:10;}
	.st29{fill:#606A6D;stroke:#1C242B;stroke-width:60;stroke-miterlimit:10;}
	.st30{fill:#00899B;}
	.st31{fill:#006A7C;}
	.st32{fill:#00BBC9;}
	.st33{fill:#FFDA00;}
	.st34{fill:#F7B000;}
	.st35{fill:#FFEA80;}
	.st36{fill:#7C9998;}
	.st37{fill:none;stroke:#B73800;stroke-width:8;stroke-miterlimit:10;}
	.st38{fill:#A1B2B1;}
	.st39{fill:#42727A;}
	.st40{fill:#B73800;}
	.st41{fill:#A9B4B5;}
	.st42{fill:#869496;}
	.st43{fill:#A1DB00;}
	.st44{fill:#76C100;}
	.st45{fill:#00AFA6;}
	.st46{fill:#006F77;}
	.st47{fill:#C14000;}
	.st48{fill:#FF6F0D;stroke:#CC2B00;stroke-width:4;stroke-miterlimit:10;}
	.st49{fill:#FFEB76;}
	.st50{fill:#FFD93B;}
	.st51{fill:#842500;}
	.st52{fill:#DFFF22;}
	.st53{fill:#6CF5FF;}
	.st54{fill:#00CFFF;}
	.st55{fill:#00A5F7;}
	.st56{fill:none;stroke:#9B00CE;stroke-width:3;stroke-miterlimit:10;}
	.st57{fill:none;stroke:#D376FF;stroke-width:3;stroke-miterlimit:10;}
	.st58{fill:none;stroke:#7400A5;stroke-width:3;stroke-miterlimit:10;}
	.st59{fill:#BBFDFF;}
	.st60{fill:#92FCFF;}
	.st61{fill:#A6FFFF;}
	.st62{fill:none;stroke:#F7ABFF;stroke-width:3;stroke-miterlimit:10;}
	.st63{fill:#D08DFF;}
	.st64{fill:#AF48FF;}
	.st65{fill:#7F00E2;}
	.st66{fill:#ECC2FF;}
	.st67{fill:#006FDD;}
	.st68{fill:#004FC1;}
	.st69{fill:#2A333A;stroke:#A0ACAF;stroke-width:30;stroke-miterlimit:10;}
	.st70{fill:#DB0000;}
	.st71{fill:#9B0000;}
	.st72{fill:#7C0000;}
	.st73{fill:#FF1F1F;}
	.st74{fill:#80C6FF;}
	.st75{fill:#E2E2E2;}
</style>
<g>
	<path class="st12" d="M998.59,698.58v51.03c0,33.25-26.95,60.21-60.2,60.21H141.61c-33.25,0-60.2-26.96-60.2-60.21v-51.03
		c0-3.19,0.25-6.32,0.73-9.38c4.5-28.8,29.41-50.83,59.47-50.83h796.78c30.06,0,54.97,22.03,59.47,50.83
		C998.34,692.26,998.59,695.39,998.59,698.58z"/>
	<path class="st13" d="M997.86,689.2c-4.5,28.8-29.41,50.83-59.47,50.83H141.61c-30.06,0-54.97-22.03-59.47-50.83
		c4.5-28.8,29.41-50.83,59.47-50.83h796.78C968.45,638.37,993.36,660.4,997.86,689.2z"/>
	<g>
		<path class="st14" d="M524.36,359.01C497.4,309.3,396.3,311.98,298.55,365c-97.76,53.01-155.15,136.28-128.2,185.99
			c0.01,0.02,0.02,0.03,0.03,0.05c14.37-12.86,33.34-20.69,54.15-20.69c34.13,0,63.32,21.05,75.36,50.86
			c30.54-6.39,63.59-18.48,96.28-36.2C493.91,491.99,551.31,408.72,524.36,359.01z"/>
		<path class="st15" d="M255.2,516.88c-0.01-0.02-0.02-0.03-0.03-0.05c-26.78-49.38,29.69-131.87,126.27-184.92
			c-26.7,6.88-54.93,17.92-82.9,33.08c-97.76,53.01-155.15,136.28-128.2,185.99c0.01,0.02,0.02,0.03,0.03,0.05
			c14.37-12.86,33.34-20.69,54.15-20.69c16.62,0,32.06,5,44.93,13.57C262.1,526.34,256.88,515.38,255.2,516.88z"/>
		<path class="st14" d="M548.37,463.3c-384.78,0-450.22,32.53-450.22,72.67c0,16.93,10.02,32.5,51.17,44.86
			c12.13-29.61,41.23-50.48,75.21-50.48c41.8,0,76.22,31.57,80.74,72.17c61.63,3.94,141.02,6.12,243.11,6.12
			c26.52,0,51.49-0.15,75.05-0.45c1.79-43.29,37.44-77.84,81.17-77.84c41.89,0,76.36,31.7,80.77,72.42
			c178.96-11.12,213.23-36.84,213.23-66.79C998.59,495.83,956.71,463.3,548.37,463.3z"/>
		<polygon class="st14" points="524.36,359.01 587.02,470.52 306.59,481.41 		"/>
		<polygon class="st14" points="853.48,494.37 813.48,398.16 556.15,446.27 578.81,494.37 		"/>
		
			<ellipse transform="matrix(0.7845 -0.6202 0.6202 0.7845 -94.6752 623.4843)" class="st14" cx="849.62" cy="447.94" rx="20.2" ry="61.94"/>
		<g>
			<path class="st16" d="M511.07,406.33c-0.64,4.4-1.86,9.04-3.61,13.86c-3.09,8.52-7.84,17.58-14.03,26.81
				c-1.54,2.3-3.17,4.61-4.88,6.92c-0.41,0.03-0.82,0.06-1.24,0.09c-0.68,0.05-1.36,0.1-2.04,0.15c-0.16,0.01-0.32,0.02-0.47,0.03
				c-1.19,0.09-2.41,0.17-3.63,0.26c-1.47,0.11-2.96,0.22-4.47,0.33c-0.22,0.01-0.43,0.03-0.65,0.05c-0.17,0.02-0.33,0.03-0.49,0.04
				c-1.14,0.07-2.29,0.16-3.45,0.25c-0.77,0.05-1.55,0.11-2.33,0.17s-1.56,0.11-2.35,0.17c-0.79,0.06-1.59,0.12-2.38,0.18
				c-2.26,0.17-4.54,0.34-6.86,0.52c-0.87,0.07-1.75,0.13-2.64,0.2c-2.3,0.18-4.63,0.36-6.97,0.54c-2.47,0.19-4.96,0.39-7.47,0.59
				c-0.87,0.07-1.74,0.14-2.6,0.2c-0.51,0.04-1.02,0.08-1.53,0.13c-7.8,0.63-15.72,1.28-23.6,1.96c-0.29,0.02-0.58,0.05-0.87,0.07
				c-0.7,0.06-1.4,0.12-2.09,0.19c-1.97,0.17-3.93,0.34-5.89,0.51c-0.38,0.04-0.76,0.08-1.13,0.11c-0.21,0.02-0.44,0.04-0.65,0.05
				c-0.38,0.04-0.77,0.07-1.16,0.11c-0.4,0.03-0.81,0.07-1.21,0.1c-0.57,0.05-1.14,0.11-1.71,0.16c-0.48,0.04-0.97,0.09-1.45,0.13
				c-0.95,0.09-1.9,0.17-2.84,0.26c-3.41,0.31-6.78,0.63-10.11,0.95c-1.2,0.12-2.4,0.23-3.59,0.35c-1.5,0.14-2.99,0.29-4.46,0.44
				c-0.7,0.07-1.4,0.14-2.09,0.21c-1.26,0.12-2.51,0.25-3.75,0.38c-0.45,0.04-0.89,0.09-1.34,0.13c-0.45,0.05-0.9,0.1-1.35,0.14
				c-0.74,0.08-1.47,0.16-2.21,0.24c-0.15,0.01-0.3,0.03-0.45,0.05c-0.89,0.09-1.76,0.19-2.63,0.28c-4.79,0.51-9.4,1.03-13.78,1.55
				c-0.8,0.1-1.59,0.19-2.37,0.29c-0.81,0.09-1.6,0.19-2.39,0.29c-0.59,0.07-1.17,0.14-1.74,0.22c-2.28,0.28-4.48,0.57-6.6,0.86
				c-0.48,0.07-0.95,0.13-1.42,0.2c-0.54,0.07-1.06,0.15-1.59,0.22c-0.91,0.13-1.81,0.26-2.68,0.39c-0.24,0.04-0.48,0.07-0.71,0.11
				c-0.32,0.04-0.64,0.09-0.95,0.14c-0.31,0.05-0.63,0.1-0.94,0.14c-0.54,0.08-1.07,0.16-1.6,0.25c-0.52,0.08-1.04,0.16-1.55,0.25
				c-1.02,0.16-2,0.33-2.94,0.49c-0.03,0-0.05,0.01-0.08,0.01c-1.01,0.18-1.98,0.35-2.91,0.54c0.59-0.96,1.2-1.92,1.82-2.88h0.01
				c0-0.01,0.01-0.02,0.02-0.04c0.01-0.02,0.02-0.04,0.04-0.05c0.04-0.07,0.08-0.14,0.13-0.21c10.54-16.08,25.49-32.75,43.64-48.05
				c1.19-1,2.38-2,3.6-2.99c4.49-3.66,9.17-7.23,14.02-10.69c16.48-11.76,33.04-20.89,48.57-27.17c3.02-1.24,6.01-2.35,8.94-3.36
				c16.47-5.67,31.44-7.91,43.47-6.49c0.49,0.05,0.98,0.11,1.47,0.18c1.66,0.24,3.27,0.56,4.81,0.95c0.13,0.03,0.25,0.06,0.37,0.1
				c0.02,0,0.03,0.01,0.05,0.01c0.69,0.18,1.36,0.37,2.03,0.58c0.12,0.04,0.24,0.08,0.36,0.13l4.22,4.11v0.01L511.07,406.33z"/>
			<path class="st16" d="M530.78,451.05c-5.34,0.34-21.21,1.37-42.22,2.87h-0.01c-0.41,0.03-0.82,0.06-1.24,0.09
				c-0.83,0.06-1.66,0.12-2.51,0.18c-1.19,0.09-2.41,0.17-3.63,0.26c-1.47,0.11-2.96,0.22-4.47,0.33c-0.22,0.01-0.43,0.03-0.65,0.05
				c-0.17,0.02-0.33,0.03-0.49,0.04c-1.14,0.07-2.29,0.16-3.45,0.25c-0.77,0.05-1.55,0.11-2.33,0.17s-1.56,0.11-2.35,0.17
				c-0.79,0.06-1.59,0.12-2.38,0.18c-2.26,0.17-4.54,0.34-6.86,0.52c-0.36,0.03-0.73,0.06-1.1,0.09c-0.51,0.04-1.02,0.07-1.54,0.11
				c-2.3,0.18-4.63,0.36-6.97,0.54c-2.47,0.19-4.96,0.39-7.47,0.59c-0.4,0.03-0.81,0.07-1.21,0.1c-0.41,0.04-0.83,0.07-1.24,0.1
				c-0.56,0.04-1.12,0.09-1.68,0.13c-7.8,0.63-15.72,1.28-23.6,1.96c-0.99,0.09-1.97,0.17-2.96,0.26c-1.97,0.17-3.93,0.34-5.89,0.51
				c-0.59,0.06-1.19,0.11-1.78,0.16c-0.38,0.04-0.77,0.07-1.16,0.11c-0.97,0.08-1.95,0.17-2.92,0.26c-0.48,0.04-0.97,0.09-1.45,0.13
				c-0.95,0.09-1.9,0.17-2.84,0.26c-3.41,0.31-6.78,0.63-10.11,0.95c-1.21,0.12-2.4,0.23-3.59,0.35c-1.5,0.14-2.99,0.29-4.46,0.44
				c-0.7,0.07-1.4,0.14-2.09,0.21c-1.26,0.12-2.51,0.25-3.75,0.38c-1.65,0.17-3.29,0.34-4.9,0.51c-0.15,0.01-0.3,0.03-0.45,0.05
				c-0.88,0.09-1.76,0.18-2.63,0.28c-4.79,0.51-9.4,1.03-13.78,1.55c-0.8,0.09-1.59,0.19-2.37,0.29c-0.81,0.09-1.6,0.19-2.39,0.29
				c-0.59,0.07-1.17,0.14-1.74,0.22c-2.28,0.28-4.48,0.57-6.6,0.86c-1.02,0.14-2.03,0.28-3.01,0.42c-0.91,0.13-1.81,0.26-2.68,0.39
				c-0.89,0.12-1.75,0.25-2.6,0.39c-0.54,0.08-1.07,0.16-1.6,0.25c-0.53,0.08-1.04,0.16-1.55,0.25c-1.02,0.16-2,0.33-2.94,0.49
				c-0.03,0-0.05,0.01-0.08,0.01c-0.01,0.01-0.02,0.01-0.03,0c-1.02,0.08-1.7-1.35-1.05-2.34c0-0.01,0.01-0.02,0.02-0.04
				c0.01-0.02,0.02-0.04,0.04-0.05c0.1-0.15,0.24-0.27,0.38-0.36l10.68-6.19l153.14-88.7l4.08-2.36c0.23-0.13,0.49-0.17,0.74-0.12
				c0.02,0,0.03,0.01,0.05,0.01c0.69,0.18,1.36,0.37,2.03,0.58c0.12,0.04,0.24,0.08,0.36,0.13c1.77,0.68,3.28,2.16,4.22,4.11
				c0.01,0,0.01,0.01,0.01,0.01l15.34,31.6l20.67,42.55C532.19,449.82,531.68,450.99,530.78,451.05z"/>
		</g>
		
			<ellipse transform="matrix(0.7845 -0.6202 0.6202 0.7845 -106.4523 620.3081)" class="st17" cx="839.17" cy="463.3" rx="18.22" ry="53.5"/>
		<circle class="st18" cx="224.52" cy="611.6" r="42.71"/>
		<circle class="st18" cx="704.59" cy="611.6" r="42.71"/>
		<circle class="st18" cx="224.52" cy="611.6" r="42.71"/>
		<path class="st15" d="M809.77,486.54c-4.18-5.29-7.67-10.75-10.42-16.15l-231.64-12.16c-3.83-0.2-4.46,5.4-0.68,6.05l272.13,47.02
			l-0.56-0.63C828.94,506.09,818.62,497.73,809.77,486.54z"/>
		<g>
			<path class="st15" d="M118.44,505c-15.3,9.39-20.29,19.89-20.29,30.96c0,16.93,10.02,32.5,51.17,44.86
				c8.98-21.92,27.26-39.04,49.94-46.46C162.42,525.45,136.51,515.6,118.44,505z"/>
			<path class="st15" d="M542.4,573.47c-114.13-6.13-200.58-14.38-265.95-24.35c15.72,13.08,26.42,31.98,28.81,53.39
				c61.63,3.94,141.02,6.12,243.11,6.12c26.52,0,51.49-0.15,75.05-0.45c0.45-10.99,3.1-21.42,7.5-30.86
				C603.37,576.44,573.9,575.16,542.4,573.47z"/>
			<path class="st15" d="M778.57,577.97c3.5,7.7,5.85,16.03,6.79,24.78c178.96-11.12,213.23-36.84,213.23-66.79
				c0-2.08-0.11-4.14-0.39-6.18C970.97,555.51,909.26,573.87,778.57,577.97z"/>
		</g>
		<path class="st15" d="M131.94,574.68c40.58-66.2,99.14-88.75,162.5-100.28c-81.04-26.5-166.75-5.09-210,59.11
			c-1.04,1.55-2.05,3.11-3.03,4.68C81.41,538.19,105.85,565.08,131.94,574.68z"/>
		<path class="st15" d="M596.15,593.24c3.92-22.72,12.81-50.32,53.11-73.7c-28.6,8.12-96.59,26.73-129,67.62L596.15,593.24z"/>
		<path class="st19" d="M853.46,452c-18.32-23.18-39.58-36.91-47.47-30.67c-0.06,0.05-0.11,0.11-0.17,0.16
			c9.96,4.05,23.32,15.22,35.4,30.51c18.18,22.99,26.64,46.64,19.06,53.1c5.14,2.09,9.38,2.28,12.06,0.16
			C880.24,499.02,871.78,475.18,853.46,452z"/>
		<path class="st19" d="M530.78,451.05c-5.34,0.34-21.21,1.37-42.22,2.87h-0.01c-0.41,0.03-0.82,0.06-1.24,0.09
			c-0.68,0.05-1.36,0.1-2.04,0.15c-0.16,0.01-0.32,0.02-0.47,0.03c-1.19,0.09-2.41,0.17-3.63,0.26c-1.47,0.11-2.96,0.22-4.47,0.33
			c-0.22,0.01-0.43,0.03-0.65,0.05c-0.17,0.02-0.33,0.03-0.49,0.04c-1.09,0.08-2.18,0.16-3.29,0.25c-0.77,0.05-1.55,0.11-2.33,0.17
			c-0.78,0.06-1.57,0.11-2.36,0.17c-0.79,0.06-1.58,0.12-2.38,0.18c-2.26,0.17-4.54,0.34-6.86,0.52c-0.42,0.03-0.83,0.06-1.25,0.09
			c-0.46,0.04-0.93,0.07-1.39,0.11c-2.3,0.18-4.62,0.36-6.97,0.54c-2.47,0.19-4.95,0.39-7.46,0.59c-0.46,0.04-0.91,0.07-1.37,0.1
			c-0.41,0.04-0.83,0.07-1.24,0.1c-0.5,0.04-1.01,0.08-1.52,0.13c-7.8,0.63-15.72,1.28-23.6,1.96c-0.29,0.02-0.59,0.05-0.88,0.07
			c-0.69,0.06-1.39,0.12-2.08,0.19c-2.95,0.25-5.9,0.51-8.83,0.78c-0.41,0.03-0.81,0.07-1.21,0.1c-0.49,0.05-0.98,0.09-1.46,0.14
			c-0.14,0.01-0.27,0.02-0.4,0.03c-1.39,0.13-2.77,0.26-4.15,0.38c-4.03,0.37-8.02,0.75-11.94,1.12c-0.74,0.08-1.49,0.15-2.22,0.22
			c-3.33,0.33-6.61,0.66-9.83,0.99c-0.45,0.04-0.9,0.09-1.35,0.13c-0.45,0.05-0.9,0.1-1.34,0.14c-1.48,0.16-2.95,0.31-4.4,0.47
			c-0.3,0.03-0.6,0.06-0.89,0.1c-2.59,0.27-5.13,0.55-7.6,0.83c-2.14,0.25-4.25,0.49-6.3,0.73c-0.76,0.09-1.51,0.18-2.26,0.28
			c-0.8,0.09-1.6,0.19-2.39,0.29c-0.59,0.07-1.17,0.14-1.74,0.22c-2.22,0.28-4.38,0.56-6.45,0.84c-0.82,0.11-1.63,0.22-2.43,0.33
			c-1.07,0.16-2.13,0.31-3.15,0.46c-1.3,0.19-2.56,0.38-3.77,0.57c-1.22,0.19-2.39,0.37-3.51,0.57c-0.57,0.09-1.13,0.18-1.67,0.28
			c-0.08,0.01-0.15,0.02-0.23,0.01c-0.01,0.01-0.02,0.01-0.03,0c-0.93-0.06-1.51-1.39-0.9-2.34c0.01-0.01,0.02-0.02,0.02-0.04
			c0.01-0.01,0.02-0.02,0.02-0.03c0.06-0.08,0.1-0.15,0.15-0.23c0.03-0.05,0.07-0.1,0.1-0.15c1.15-1.76,2.38-3.52,3.64-5.29
			c2.26-0.3,4.61-0.6,7.04-0.9c0.68-0.08,1.37-0.17,2.06-0.25c0.78-0.1,1.57-0.2,2.37-0.29c0.84-0.1,1.68-0.2,2.53-0.3
			c1.04-0.12,2.09-0.24,3.15-0.36c3.6-0.41,7.34-0.82,11.18-1.22c0.81-0.08,1.62-0.17,2.43-0.26c0.82-0.08,1.64-0.16,2.47-0.25
			c7.7-0.79,15.76-1.57,24-2.33c0.94-0.09,1.89-0.17,2.84-0.26c0.48-0.04,0.97-0.09,1.45-0.13c0.97-0.09,1.95-0.18,2.92-0.26
			c0.25-0.03,0.49-0.05,0.73-0.07c0.36-0.03,0.72-0.06,1.08-0.09c0.37-0.03,0.75-0.07,1.13-0.11c1.96-0.17,3.92-0.34,5.89-0.51
			c0.99-0.09,1.97-0.17,2.96-0.26c2.95-0.25,5.91-0.5,8.87-0.75c1.97-0.17,3.95-0.33,5.91-0.49c4.34-0.36,8.67-0.71,12.95-1.05
			c2.5-0.2,4.99-0.4,7.46-0.59c2.35-0.18,4.67-0.36,6.98-0.54c0.88-0.07,1.76-0.13,2.64-0.2c2.31-0.18,4.6-0.35,6.86-0.52
			c0.79-0.06,1.59-0.12,2.38-0.18c0.79-0.06,1.57-0.11,2.35-0.17c0.78-0.06,1.56-0.12,2.33-0.17c1.55-0.12,3.08-0.23,4.59-0.34
			c1.51-0.11,3-0.22,4.47-0.33c1.22-0.09,2.43-0.18,3.63-0.26c0.84-0.06,1.68-0.12,2.51-0.18c0.42-0.03,0.83-0.06,1.24-0.09
			c6.54-0.47,12.59-0.89,17.97-1.26c11.91-0.81,20.58-1.38,24.26-1.61c0.9-0.06,1.41-1.23,0.96-2.17l-11.19-23.03l-9.48-19.52
			l-13.74-28.3l-1.6-3.3h-0.01v-0.01c-0.07-0.14-0.15-0.27-0.22-0.4v-0.01c0.5,0.06,0.99,0.12,1.47,0.19
			c1.66,0.24,3.27,0.56,4.81,0.95c0.13,0.03,0.25,0.06,0.37,0.1c0.02,0,0.03,0.01,0.05,0.01c0.69,0.18,1.36,0.37,2.03,0.58
			c0.12,0.04,0.24,0.08,0.36,0.13c1.77,0.68,3.28,2.16,4.22,4.11c0.01,0,0.01,0.01,0.01,0.01l15.34,31.6l20.67,42.55
			C532.19,449.82,531.68,450.99,530.78,451.05z"/>
		<path class="st19" d="M471.71,448.53l-3.56,3.78l-6.28-3.06l-22.84-50.69L430,378.51c3.02-1.24,6.01-2.35,8.94-3.36l8.32,18.64
			L471.71,448.53z"/>
		<path class="st19" d="M381.29,455.81l-4.31,0.4l-6.43-17.99l-6.74-18.86c1.19-1,2.38-2,3.6-2.99l6.92,19.66L381.29,455.81z"/>
		<path class="st20" d="M516.55,373.63c-2.47-7.1-6.47-12.96-10.97-18.8c-27.89-36.26-77.25-20.03-130.98,3.83
			C434.68,348.47,478.7,334.39,516.55,373.63z"/>
		<path class="st20" d="M792.57,414.72l-135.96,21.56c-2.69,0.52-2.38,4.46,0.35,4.56l130.82-5.32
			C787.41,427.33,788.96,420.15,792.57,414.72z"/>
	</g>
</g>
</svg>
