<?xml version="1.0" encoding="utf-8"?>
<!-- Generator: Adobe Illustrator 26.0.3, SVG Export Plug-In . SVG Version: 6.00 Build 0)  -->
<svg version="1.1" id="Слой_1" xmlns="http://www.w3.org/2000/svg" xmlns:xlink="http://www.w3.org/1999/xlink" x="0px" y="0px"
	 viewBox="0 0 1080 1080" style="enable-background:new 0 0 1080 1080;" xml:space="preserve">
<style type="text/css">
	.st0{fill:#BDFF3E;}
	.st1{fill:#1ECC00;}
	.st2{fill:#09B200;}
	.st3{fill:#FF0B0B;}
	.st4{fill:#FF3E3E;}
	.st5{fill:#EA0000;}
	.st6{fill:#53E000;}
	.st7{fill:none;}
</style>
<g>
	<path class="st7" d="M40.99,45.46v195H556.5c170.29,0,310.95,126.83,332.71,291.18l12.05,12.04l16.4,175.7l0-0.01l97.92,301.79
		l-11.91,13.37h25.6V45.46H40.99z"/>
	<path class="st0" d="M114.03,395.35l87.78-19.81l273.17,59.75h0l157.26,34.4l147.96-47.06l109.01,109.01
		C867.46,367.29,726.8,240.46,556.5,240.46H40.99v20.48l33.05,22.03L114.03,395.35z"/>
	<polygon class="st3" points="632.25,469.69 474.99,435.29 338.54,449.51 279.14,530.23 279.14,588.2 215.27,547.05 366.59,644.56 
		428.53,766.12 428.53,766.12 591.88,805.97 602.53,835.4 798.71,1021.17 889.49,891.71 917.66,719.39 901.26,543.68 889.22,531.64 
		780.21,422.63 	"/>
	<polygon class="st3" points="370.48,905.53 376.24,891.71 376.72,890.49 370.47,905.51 	"/>
	<polygon class="st3" points="397.34,840.99 429.55,927.94 411.4,1001.61 425.42,1034.54 469.03,1034.54 397.34,840.99 	"/>
	<polygon class="st3" points="187.55,601.89 234.2,603.86 215.27,547.05 143.41,477.89 	"/>
	<polygon class="st3" points="74.04,282.98 114.03,395.35 114.03,395.35 	"/>
	<polygon class="st3" points="143.38,477.86 133.97,470.2 174.88,601.35 187.55,601.89 143.41,477.89 	"/>
	<polygon class="st3" points="67.31,596.8 67.31,596.8 67.31,596.8 	"/>
	<polygon class="st3" points="93.04,729.75 87.49,696.12 67.31,596.8 67.31,596.8 67.31,738.7 40.99,796.07 40.99,853.48 
		54.52,848.01 	"/>
	<polygon class="st3" points="403.28,1034.54 425.42,1034.54 411.4,1001.61 	"/>
	<polygon class="st3" points="370.47,905.51 316.71,1034.54 316.73,1034.54 370.48,905.53 	"/>
	<polygon class="st3" points="234.2,603.86 187.55,601.89 174.88,601.35 188.36,644.56 187.38,729.75 146.32,788.33 135.12,891.71 
		40.99,921.31 40.99,921.31 106.97,900.56 67.31,967.39 40.99,998.78 40.99,1021.17 114.37,1021.17 74.11,1034.54 188.74,1034.54 
		279.14,738.7 	"/>
	<polygon class="st4" points="602.53,835.4 591.88,805.97 428.53,766.12 397.34,840.99 469.03,1034.54 674.55,1034.54 
		602.51,835.39 	"/>
	<polygon class="st4" points="188.36,644.56 174.88,601.35 133.97,470.2 40.99,394.56 40.99,538.18 	"/>
	<polygon class="st4" points="376.72,890.49 396.83,839.61 397.34,840.99 397.34,840.99 428.53,766.12 428.53,766.12 366.59,644.56 
		215.27,547.05 234.2,603.86 279.14,738.7 188.74,1034.54 316.71,1034.54 370.47,905.51 	"/>
	<polygon class="st4" points="40.99,1021.17 40.99,1034.54 74.11,1034.54 114.37,1021.17 	"/>
	<polygon class="st4" points="135.12,891.71 146.32,788.33 93.04,729.75 54.52,848.01 40.99,853.48 40.99,921.31 	"/>
	<polygon class="st4" points="67.31,596.8 67.31,596.8 40.99,579.12 40.99,718.23 67.31,738.7 	"/>
	<polygon class="st5" points="429.55,927.94 397.34,840.99 396.83,839.61 376.72,890.49 376.24,891.71 370.48,905.53 
		316.73,1034.54 403.28,1034.54 411.4,1001.61 	"/>
	<polygon class="st5" points="917.66,719.38 917.66,719.39 889.49,891.71 798.71,1021.17 602.53,835.4 602.51,835.39 
		674.55,1034.54 1003.68,1034.54 1015.59,1021.17 	"/>
	<polygon class="st5" points="67.31,596.8 87.49,696.12 93.04,729.75 146.32,788.33 187.38,729.75 188.36,644.56 40.99,538.18 
		40.99,579.12 67.31,596.8 	"/>
	<polygon class="st5" points="106.97,900.56 40.99,921.31 40.99,998.78 67.31,967.39 	"/>
	<polygon class="st5" points="67.31,738.7 40.99,718.23 40.99,796.07 	"/>
	<polygon class="st5" points="133.97,470.2 143.38,477.86 133.34,468.2 107.89,396.74 114.03,395.35 74.04,282.98 40.99,260.95 
		40.99,394.56 	"/>
	<polygon class="st5" points="279.14,530.23 338.54,449.51 474.99,435.29 474.99,435.29 201.82,375.54 114.03,395.35 114.03,395.35 
		107.89,396.74 133.34,468.2 143.38,477.86 143.41,477.89 215.27,547.05 279.14,588.2 	"/>
</g>
</svg>
