<?xml version="1.0" encoding="utf-8"?>
<!-- Generator: Adobe Illustrator 26.0.3, SVG Export Plug-In . SVG Version: 6.00 Build 0)  -->
<svg version="1.1" id="Слой_1" xmlns="http://www.w3.org/2000/svg" xmlns:xlink="http://www.w3.org/1999/xlink" x="0px" y="0px"
	 viewBox="0 0 1080 1080" style="enable-background:new 0 0 1080 1080;" xml:space="preserve">
<style type="text/css">
	.st0{fill:url(#SVGID_1_);}
	.st1{fill:#FF7B22;}
	.st2{fill:#FF761A;}
	.st3{fill:#934200;}
	.st4{fill:#FFD7A6;}
	.st5{fill:#FF4D1D;}
	.st6{fill:#661300;}
	.st7{fill:#FFEDD9;}
	.st8{fill:#FFB380;}
	.st9{fill:none;}
	.st10{fill:url(#SVGID_00000177476037143819172310000016869649902731312528_);}
	.st11{fill:url(#SVGID_00000127030232784546280730000011681526013699321999_);}
	.st12{fill:url(#SVGID_00000003792159865470341330000017236871311287439282_);}
	.st13{fill:url(#SVGID_00000108995301749395178330000012502104590133076363_);}
	.st14{fill:url(#SVGID_00000143609245413187887360000013444388693749864365_);}
	.st15{fill:url(#SVGID_00000065795515703298755430000016356045724965505930_);}
	.st16{fill:url(#SVGID_00000061471441077612290750000017702014767957425591_);}
	.st17{fill:url(#SVGID_00000140702123034128213100000013638099761635304615_);}
	.st18{fill:url(#SVGID_00000072987292709052452320000011831456966228955798_);}
	.st19{fill:url(#SVGID_00000029040418827133442480000008958133959781412785_);}
	.st20{fill:url(#SVGID_00000094611683577090703980000002182476942157500311_);}
	.st21{fill:url(#SVGID_00000136370852933032966830000004348964842945091725_);}
	.st22{fill:url(#SVGID_00000029747549073935950270000014087392531349354397_);}
	.st23{fill:url(#SVGID_00000065069052880871862350000002764443503274652349_);}
	.st24{fill:url(#SVGID_00000128483424482032122860000002564149388367794319_);}
	.st25{fill:url(#SVGID_00000070836411029870694590000007149433479893887874_);}
	.st26{fill:url(#SVGID_00000005266917985731204270000008808557846395258815_);}
	.st27{fill:url(#SVGID_00000084499844515648092640000013073355943468889257_);}
</style>
<g>
	<path class="st9" d="M222.2,452.15c0-93.38,75.73-169.1,169.1-169.1h650.09V37.94H221.59v991.41h0.61V452.15z"/>
	<radialGradient id="SVGID_1_" cx="1463.0259" cy="1523.869" r="1240.8263" gradientUnits="userSpaceOnUse">
		<stop  offset="0.0112" style="stop-color:#B0FFB3"/>
		<stop  offset="0.2301" style="stop-color:#ADFEB3"/>
		<stop  offset="0.3886" style="stop-color:#A4FBB1"/>
		<stop  offset="0.5282" style="stop-color:#94F6AF"/>
		<stop  offset="0.6569" style="stop-color:#7EEEAC"/>
		<stop  offset="0.778" style="stop-color:#61E5A9"/>
		<stop  offset="0.8919" style="stop-color:#3ED9A4"/>
		<stop  offset="1" style="stop-color:#15CC9F"/>
	</radialGradient>
	<path class="st0" d="M222.2,452.15v577.2h436.57c25.12-45.02,50.43-82.48,73.17-108.39c21.83-24.91,50.59-52.74,81.99-80.88
		c77.54-69.5,171.06-140.74,215.28-173.73c4.64-3.45,8.71-6.46,12.19-9.03V283.04H391.3C297.93,283.04,222.2,358.77,222.2,452.15z"
		/>
	
		<radialGradient id="SVGID_00000089536008306756568840000009874102191854198200_" cx="1463.0259" cy="1523.869" r="1240.8263" gradientUnits="userSpaceOnUse">
		<stop  offset="0.0112" style="stop-color:#B0FFB3"/>
		<stop  offset="0.2301" style="stop-color:#ADFEB3"/>
		<stop  offset="0.3886" style="stop-color:#A4FBB1"/>
		<stop  offset="0.5282" style="stop-color:#94F6AF"/>
		<stop  offset="0.6569" style="stop-color:#7EEEAC"/>
		<stop  offset="0.778" style="stop-color:#61E5A9"/>
		<stop  offset="0.8919" style="stop-color:#3ED9A4"/>
		<stop  offset="1" style="stop-color:#15CC9F"/>
	</radialGradient>
	<path style="fill:url(#SVGID_00000089536008306756568840000009874102191854198200_);" d="M1006.24,1029.34h35.15V868.02
		c-11.5,37.22-20.83,72.47-26.13,102.34C1011.97,988.99,1008.94,1008.76,1006.24,1029.34z"/>
	<path class="st4" d="M987.1,1012.1c10.97-17.57,0-49.96-15.38-54.93c-15.38-4.93-31.88,16.49-59.31,8.78
		c-25.54-7.15-43.48-31.39-35.25-61.27c-11.77-0.88-24.78-4.47-35.22-8.55c-14.36,16.5-27.16,32.22-37.58,46.51
		c-16.64,22.82-33.24,52.72-49.15,86.71h169.41C952.13,1021.71,976.25,1029.41,987.1,1012.1z"/>
	<path class="st4" d="M1006.85,755.09c-1.85,7.08-1.56,13.83-0.63,20.31c2.59-3.63,6.34-6.82,11.6-9.3
		c8.15-3.84,16.17-4.83,23.57-4.28v-33.69C1030.62,740.01,1012.38,733.98,1006.85,755.09z"/>
	<path class="st4" d="M1002.44,834.18c1.52-3.67,1.52-8.49,1-13.94c-16.79,13.86-75.06-0.56-87.81,11.75
		c-6.56,6.3-5.56,18.9-4.89,31.91c12.82-6.97,27.02-10.82,38.99-14.34C973.79,842.41,995.88,850.09,1002.44,834.18z"/>
	<path class="st5" d="M1017.82,766.09c-5.26,2.48-9.01,5.67-11.6,9.3c2.22,14.64,7.9,28.02,0.15,41.48
		c-0.74,1.3-1.74,2.41-2.93,3.37c0.52,5.45,0.52,10.27-1,13.94c-6.56,15.9-28.65,8.23-52.71,15.38
		c-11.97,3.52-26.17,7.38-38.99,14.34c0.7,14.12,0.96,28.73-9.34,36.18c-5.78,4.19-14.6,5.3-24.24,4.6
		c-8.23,29.88,9.71,54.12,35.25,61.27c27.43,7.71,43.92-13.71,59.31-8.78c15.38,4.97,26.35,37.36,15.38,54.93
		c-10.84,17.31-34.97,9.61-62.47,17.24h81.62c2.7-20.59,5.73-40.36,9.02-58.98c5.3-29.87,14.63-65.12,26.13-102.34v-106.2
		C1033.99,761.26,1025.97,762.26,1017.82,766.09z"/>
	<path class="st6" d="M841.94,896.13c10.43,4.09,23.45,7.68,35.22,8.55c9.64,0.7,18.46-0.41,24.24-4.6
		c10.3-7.45,10.04-22.05,9.34-36.18c-0.67-13.01-1.67-25.61,4.89-31.91c12.75-12.31,71.02,2.11,87.81-11.75
		c1.19-0.96,2.19-2.08,2.93-3.37c7.75-13.45,2.08-26.84-0.15-41.48c-0.93-6.49-1.22-13.23,0.63-20.31
		c5.53-21.11,23.77-15.07,34.54-26.96V696.3C985.93,747.45,900.81,828.46,841.94,896.13z"/>
	<path class="st6" d="M813.92,840.08c-31.39,28.13-60.16,55.97-81.99,80.88c-22.73,25.91-48.05,63.37-73.17,108.39h96.45
		c15.91-33.99,32.51-63.89,49.15-86.71c10.42-14.29,23.23-30.01,37.58-46.51c58.87-67.67,143.99-148.68,199.45-199.83v-38.98
		c-3.48,2.57-7.56,5.58-12.19,9.03C984.98,699.34,891.47,770.58,813.92,840.08z"/>
</g>
</svg>
