<?xml version="1.0" encoding="utf-8"?>
<!-- Generator: Adobe Illustrator 26.0.3, SVG Export Plug-In . SVG Version: 6.00 Build 0)  -->
<svg version="1.1" id="Слой_1" xmlns="http://www.w3.org/2000/svg" xmlns:xlink="http://www.w3.org/1999/xlink" x="0px" y="0px"
	 viewBox="0 0 1080 1080" style="enable-background:new 0 0 1080 1080;" xml:space="preserve">
<style type="text/css">
	.st0{fill:#BDFF3E;}
	.st1{fill:#1ECC00;}
	.st2{fill:#09B200;}
	.st3{fill:#FF0B0B;}
	.st4{fill:#FF3E3E;}
	.st5{fill:#EA0000;}
	.st6{fill:#53E000;}
	.st7{fill:none;}
</style>
<g>
	<path class="st7" d="M931.31,887.92c4.95,60.99,53.4,98.71,55.72,100.49c-5.17-1.46-337.78-96.27-366.43-124.42
		c-22.2-21.78-58.05-57.96-79.06-104.62h-25.02c0.45,7.38,1.37,12.53,1.37,12.53s-5.39-4.61-14.54-12.53H31.18v294.34h1017.65
		v-60.67C1010.35,974.51,948.75,938.96,931.31,887.92z"/>
	<path class="st0" d="M278.41,544.56c-34.62-52.2-50.42-111.41-37.06-194.26c-13.55,2.38-32.65,26.94-32.65,26.94
		s-12.03-31.41-14.91-76.31c-1.99-30.39,0.28-66.98,13.33-104.27l-41.13,10.31l-104-21.8l-2.55,18.5c0,0.01,0,0.02,0,0.03
		c-0.38,34.65-5.58,67.33-13.42,97.1v0.13v0.03c-4.29,16.39-9.37,31.87-14.84,46.33v412.09h472.17
		C455.99,718.38,307.45,588.3,278.41,544.56z"/>
	<path class="st0" d="M516.52,759.37h25.02c-6.36-14.11-11.37-29.17-14.22-45.09C516.47,725.04,515.7,745.92,516.52,759.37z"/>
	<path class="st1" d="M582.36,206.94l-388.54,93.99c-1.99-30.39,0.28-66.99,13.34-104.28l-0.04,0.01
		c-13.05,37.29-15.32,73.88-13.33,104.27c2.89,44.9,14.91,76.31,14.91,76.31s19.1-24.56,32.65-26.94
		c-13.36,82.85,2.44,142.06,37.06,194.26c29.04,43.75,177.58,173.83,224.93,214.82c9.15,7.92,14.54,12.53,14.54,12.53
		s-0.92-5.15-1.37-12.53c-0.81-13.45-0.05-34.33,10.79-45.09c2.85,15.92,7.87,30.98,14.22,45.09
		c21.02,46.66,56.87,82.84,79.06,104.62c28.65,28.15,361.26,122.96,366.43,124.42c-2.32-1.78-50.77-39.51-55.72-100.49
		c17.44,51.04,79.05,86.59,117.52,105.12V763.53c-22.69-1.53-42.45-3.44-57.51-5.86c-87.42-14.12-191.69-15.71-281.36-80.98
		c-89.67-65.27-151.77-175.95-151.77-175.95l229.73,59.62c15.14,15.67,177.15,68.92,255.88,86.31c1.62,0.36,3.31,0.71,5.03,1.06
		v-56.71c-96.45-31.32-275.52-96.22-381.42-176.39C582.36,327.77,582.36,206.94,582.36,206.94z"/>
	<path class="st1" d="M991.34,500.7c11.7,12.94,34.56,33.82,57.48,53.98V413.72c-71.89-9.79-134.56-19.28-134.56-19.28
		S962.75,469.1,991.34,500.7z"/>
	<path class="st1" d="M46.02,300.93c0,0-5.45-0.68-14.84-1.89v48.25c5.47-14.46,10.55-29.94,14.84-46.33V300.93z"/>
	<path class="st1" d="M46.02,300.77v0.03c7.84-29.76,13.04-62.45,13.42-97.1c0-0.01,0-0.02,0-0.03l0,0L46.02,300.77z"/>
	<path class="st2" d="M635.74,141.06l-1.59-0.44l-19.38-38.1l-3.86-7.1L207.15,196.65c-13.05,37.29-15.32,73.89-13.34,104.28
		l388.54-93.99c0,0,0,120.83,85.04,207.68c105.9,80.17,284.97,145.07,381.42,176.39v-36.33c-22.92-20.16-45.78-41.04-57.48-53.98
		c-28.59-31.6-77.07-106.27-77.07-106.27s62.67,9.49,134.56,19.28v-75.9l-326.11-36.89L635.74,141.06z"/>
	<path class="st2" d="M46.02,300.8v-0.03l13.42-97.1l0,0l2.55-18.5l-30.81-6.46v120.33c9.39,1.21,14.84,1.89,14.84,1.89V300.8z"/>
	<polygon class="st3" points="988.42,154.46 1048.82,163.02 1048.82,67.29 904.34,44.19 914.49,33.55 757.13,33.55 722.71,67.39 	
		"/>
	<polygon class="st3" points="635.74,141.06 614.77,102.52 634.15,140.62 	"/>
	<polygon class="st3" points="241.89,121.27 712.87,33.55 31.18,33.55 31.18,89.2 	"/>
	<polygon class="st4" points="1048.82,67.29 1048.82,33.55 914.49,33.55 904.34,44.19 	"/>
	<polygon class="st5" points="61.99,185.17 165.99,206.97 207.12,196.66 207.15,196.65 610.9,95.42 604.96,84.49 722.71,67.39 
		757.13,33.55 712.87,33.55 241.89,121.27 31.18,89.2 31.18,178.71 	"/>
	<polygon class="st5" points="722.71,67.39 604.96,84.49 610.9,95.42 614.77,102.52 635.74,141.06 722.71,300.93 1048.82,337.82 
		1048.82,163.02 988.42,154.46 	"/>
	<path class="st6" d="M787.92,560.36l-229.73-59.62c0,0,62.1,110.68,151.77,175.95c89.67,65.27,193.94,66.86,281.36,80.98
		c15.06,2.43,34.82,4.34,57.51,5.86v-115.8c-1.72-0.35-3.41-0.7-5.03-1.06C965.07,629.28,803.05,576.03,787.92,560.36z"/>
</g>
</svg>
