<?xml version="1.0" encoding="utf-8"?>
<!-- Generator: Adobe Illustrator 26.0.3, SVG Export Plug-In . SVG Version: 6.00 Build 0)  -->
<svg version="1.1" id="Слой_1" xmlns="http://www.w3.org/2000/svg" xmlns:xlink="http://www.w3.org/1999/xlink" x="0px" y="0px"
	 viewBox="0 0 1080 1080" style="enable-background:new 0 0 1080 1080;" xml:space="preserve">
<style type="text/css">
	.st0{fill:#E5E5E5;}
	.st1{fill:#96FF31;}
	.st2{fill:#84EA00;}
	.st3{fill:#A9B4B5;}
	.st4{fill:#869496;}
	.st5{fill:#EA5F00;}
	.st6{fill:#C65000;}
	.st7{fill:#FF7300;}
	.st8{fill:#899296;stroke:#54606D;stroke-width:15;stroke-miterlimit:10;}
	.st9{fill:#778389;stroke:#54606D;stroke-width:15;stroke-linecap:round;stroke-linejoin:round;stroke-miterlimit:10;}
	.st10{fill:#54606D;}
	.st11{fill:#FFBE2C;}
	.st12{fill:#FF9D00;}
	.st13{fill:#899296;}
	.st14{fill:#BCBFC1;}
	.st15{fill:#FFD488;}
	.st16{fill:#FF2A00;}
	.st17{fill:#DD0A00;}
	.st18{fill:#FFEEA9;}
	.st19{fill:#FFDC9F;}
	.st20{fill:#606A6D;stroke:#1C242B;stroke-width:30;stroke-miterlimit:10;}
	.st21{fill:#FFCF48;}
	.st22{fill:#FF7761;}
	.st23{fill:#606A6D;}
	.st24{fill:#005B77;}
	.st25{fill:#00404F;}
	.st26{fill:#9DA6A8;}
	.st27{fill:#384042;}
	.st28{fill:#00D6D6;}
	.st29{fill:#00F9EC;}
	.st30{fill:#606A6D;stroke:#1C242B;stroke-width:80;stroke-miterlimit:10;}
	.st31{fill:#606A6D;stroke:#1C242B;stroke-width:60;stroke-miterlimit:10;}
	.st32{fill:#00899B;}
	.st33{fill:#006A7C;}
	.st34{fill:#00BBC9;}
	.st35{fill:#FFDA00;}
	.st36{fill:#F7B000;}
	.st37{fill:#FFEA80;}
	.st38{fill:#7C9998;}
	.st39{fill:none;stroke:#B73800;stroke-width:8;stroke-miterlimit:10;}
	.st40{fill:#A1B2B1;}
	.st41{fill:#42727A;}
	.st42{fill:#B73800;}
	.st43{fill:#A1DB00;}
	.st44{fill:#76C100;}
	.st45{fill:#00AFA6;}
	.st46{fill:#006F77;}
	.st47{fill:#C14000;}
	.st48{fill:#FF6F0D;stroke:#CC2B00;stroke-width:4;stroke-miterlimit:10;}
	.st49{fill:#FFEB76;}
	.st50{fill:#FFD93B;}
	.st51{fill:#842500;}
	.st52{fill:#DFFF22;}
	.st53{fill:#6CF5FF;}
	.st54{fill:#00CFFF;}
	.st55{fill:#00A5F7;}
	.st56{fill:none;stroke:#9B00CE;stroke-width:3;stroke-miterlimit:10;}
	.st57{fill:none;stroke:#D376FF;stroke-width:3;stroke-miterlimit:10;}
	.st58{fill:none;stroke:#7400A5;stroke-width:3;stroke-miterlimit:10;}
	.st59{fill:#BBFDFF;}
	.st60{fill:#92FCFF;}
	.st61{fill:#A6FFFF;}
	.st62{fill:none;stroke:#F7ABFF;stroke-width:3;stroke-miterlimit:10;}
	.st63{fill:#D08DFF;}
	.st64{fill:#AF48FF;}
	.st65{fill:#7F00E2;}
	.st66{fill:#ECC2FF;}
	.st67{fill:#006FDD;}
	.st68{fill:#004FC1;}
	.st69{fill:#2A333A;stroke:#A0ACAF;stroke-width:30;stroke-miterlimit:10;}
	.st70{fill:#DB0000;}
	.st71{fill:#9B0000;}
	.st72{fill:#7C0000;}
	.st73{fill:#FF1F1F;}
	.st74{fill:#80C6FF;}
	.st75{fill:#E2E2E2;}
</style>
<g>
	<ellipse class="st67" cx="544.84" cy="414.71" rx="200.89" ry="221.53"/>
	<path class="st67" d="M739.63,360.35C720.84,239.4,544.84,82.63,544.84,82.63s-168.3,145.89-194.79,277.72
		S758.43,481.29,739.63,360.35z"/>
	<path class="st67" d="M347.3,455.18c0,0,51.76,296.22,73.1,401.48h234.67c22.22-84.82,87.32-401.48,87.32-401.48H347.3z"/>
	<path class="st68" d="M484.63,839.98c-19.81-97.79-65.9-360.36-72.35-397.18c-0.03-0.18-0.06-0.36-0.09-0.53
		c-0.07-0.44-0.14-0.84-0.21-1.2c-0.04-0.24-0.08-0.47-0.12-0.68c-0.02-0.15-0.05-0.3-0.08-0.43c-0.16-0.97-0.25-1.47-0.25-1.47
		c-2.2-13.12-3.35-26.65-3.35-40.47c0-18.75,2.11-36.96,6.1-54.34c0-0.01,0-0.01,0-0.02c18.1-90.09,102.43-186.74,154.01-238.91
		c-14.32-13.99-23.45-22.12-23.45-22.12s-168.3,145.89-194.79,277.72c0,0.01,0,0.01,0,0.02c-3.99,17.38-6.1,35.59-6.1,54.34
		c0,13.82,1.15,27.35,3.35,40.47c0,0,0.09,0.5,0.25,1.47c0.03,0.13,0.06,0.28,0.08,0.43c0.04,0.21,0.08,0.44,0.12,0.68
		c0.07,0.36,0.14,0.76,0.21,1.2c0.03,0.17,0.06,0.35,0.09,0.53c6.45,36.82,52.54,299.39,72.35,397.18h234.67
		c1.27-4.84,2.68-10.44,4.2-16.69H484.63z"/>
	<circle class="st69" cx="544.56" cy="404.2" r="86.06"/>
	<path class="st70" d="M544.84,82.63c0,0-60.01,52.02-114,121.99c0,0,0,0,0,0c83.55,19.45,148.66,15.22,227.66,0c0,0,0,0,0.01,0
		C604.84,136.07,544.84,82.63,544.84,82.63z"/>
	<path class="st70" d="M704.48,636.24c-110.3,19.68-210.3,19.68-325.08,0c0,0,0,0,0,0c14.75,82.19,31.13,171.73,41,220.42h234.67
		C665.68,816.15,686.07,722.76,704.48,636.24C704.48,636.24,704.48,636.24,704.48,636.24z"/>
	<polygon class="st71" points="385.6,670.67 310.17,719.65 301.29,993.18 413.92,823.76 	"/>
	<polygon class="st70" points="696.62,671.85 769.83,721.19 778.71,994.71 663.43,823.84 	"/>
	<path class="st71" d="M484.51,840.03c-8.83-43.55-22.86-119.77-36.28-194.19c-22.47-2.38-45.34-5.57-68.83-9.6c0,0,0,0,0,0
		c14.75,82.19,31.13,171.73,41,220.42h234.67c1.26-4.83,2.67-10.41,4.19-16.63H484.51z"/>
	<rect x="405.95" y="814.66" class="st72" width="264.67" height="9.1"/>
	<polygon class="st72" points="385.6,670.67 356.88,689.32 379.4,811.04 303.49,925.21 301.29,993.18 413.92,823.76 	"/>
	<polygon class="st71" points="688.09,803.97 714.33,683.79 696.62,671.85 663.43,823.84 778.71,994.71 776.79,935.44 	"/>
	<path class="st67" d="M347.75,457.76c0.07,0.36,0.14,0.76,0.21,1.2C347.88,458.56,347.81,458.16,347.75,457.76z"/>
	<path class="st67" d="M742.37,455.24c-0.99,5.97-2.21,11.85-3.64,17.64C740.93,462.23,742.23,455.9,742.37,455.24z"/>
	<path class="st67" d="M347.75,457.76c0.07,0.36,0.14,0.76,0.21,1.2C347.88,458.56,347.81,458.16,347.75,457.76z"/>
	<path class="st67" d="M742.37,455.24c-0.99,5.97-2.21,11.85-3.64,17.64C740.93,462.23,742.23,455.9,742.37,455.24z"/>
	<path class="st67" d="M311.75,457.47c0.07,0.36,0.14,0.76,0.21,1.2C311.88,458.27,311.81,457.87,311.75,457.47z"/>
	<path class="st67" d="M706.37,454.95c-0.99,5.97-2.21,11.85-3.64,17.64C704.93,461.94,706.23,455.61,706.37,454.95z"/>
	<path class="st73" d="M680.89,640.16c-7.65,1.18-15.25,2.27-22.82,3.26c-16.26,76.69-30.92,145.57-43.14,196.57h21.62
		C647.85,794.88,663.45,722.23,680.89,640.16z"/>
	<g>
		<path class="st74" d="M714.99,369.34c0-0.02-0.01-0.03-0.01-0.05c-18.8-120.95-178.52-262.54-178.52-262.54
			s-6.59,16.95-12.94,28.18c26.66,24.53,148.86,140.38,165.94,250.29c0,0.02,0.01,0.03,0.01,0.05c3.97,17.38,6.08,35.57,6.08,54.31
			c0,13.82-1.15,27.35-3.35,40.47c0,0,0,0.02-0.01,0.06c-0.14,0.66-1.44,6.99-3.64,17.64c-5.68,27.46-17.35,83.67-30.49,145.67
			c7.57-0.99,15.18-2.07,22.82-3.26c14.22-66.93,27.12-129.02,33.18-158.34c2.2-10.65,3.5-16.98,3.64-17.64
			c0.01-0.04,0.01-0.06,0.01-0.06c2.2-13.12,3.35-26.65,3.35-40.47C721.07,404.91,718.96,386.72,714.99,369.34z"/>
	</g>
	<rect x="610.03" y="814.66" class="st72" width="35.56" height="9.1"/>
	<g>
		<path class="st71" d="M544.56,82.88L544.56,82.88c-4.44,3.88-61.85,54.52-113.71,121.75c0,0,0,0,0,0
			c16.15,3.76,31.6,6.62,46.6,8.71c35.71-58.44,54.72-88.15,67.39-130.7C544.84,82.63,544.74,82.72,544.56,82.88L544.56,82.88z"/>
		<path class="st71" d="M544.81,82.59c0.02,0.02,0.04,0.04,0.04,0.04C544.83,82.62,544.82,82.61,544.81,82.59L544.81,82.59z"/>
	</g>
	<path class="st73" d="M536.47,106.75c0,0-6.59,16.95-12.94,28.18c11.94,10.98,43.03,40.28,75.26,79.15
		c11-1.28,22.12-2.87,33.46-4.74C585.38,150.11,536.47,106.75,536.47,106.75z"/>
	<path class="st71" d="M379.4,636.24C379.4,636.24,379.4,636.24,379.4,636.24c114.78,19.68,214.78,19.68,325.08,0c0,0,0,0,0,0
		c-0.95,4.47-1.91,8.95-2.86,13.44c-108.03,18.66-206.54,18.33-319.31-1c0,0,0,0,0,0L379.4,636.24z"/>
	<path class="st75" d="M595.86,404.2c0.5-2.58,0.77-5.24,0.77-7.96c0-24.39-20.95-44.16-46.79-44.16c-5.49,0-10.76,0.9-15.66,2.54
		C562.22,360.77,585.13,379.52,595.86,404.2z"/>
	<rect x="534.33" y="674.54" class="st71" width="21.01" height="322.87"/>
	<rect x="534.33" y="674.54" class="st72" width="10.51" height="322.87"/>
</g>
</svg>
