<?xml version="1.0" encoding="utf-8"?>
<!-- Generator: Adobe Illustrator 26.0.3, SVG Export Plug-In . SVG Version: 6.00 Build 0)  -->
<svg version="1.1" id="Слой_1" xmlns="http://www.w3.org/2000/svg" xmlns:xlink="http://www.w3.org/1999/xlink" x="0px" y="0px"
	 viewBox="0 0 1080 1080" style="enable-background:new 0 0 1080 1080;" xml:space="preserve">
<style type="text/css">
	.st0{fill:url(#SVGID_1_);}
	.st1{fill:#FFBE55;}
	.st2{fill:#EA8B00;}
	.st3{fill:#D17200;}
	.st4{fill:#AA6900;}
	.st5{fill:#CC8D00;}
	.st6{fill:#9B5800;}
	.st7{fill:#E2A700;}
	.st8{fill:#FFD400;}
	.st9{fill:#E87400;}
	.st10{fill:#FF9700;}
	.st11{fill:#E5B900;}
	.st12{fill:none;}
	.st13{fill:url(#SVGID_00000178885278509154726400000007416281002683477642_);}
	.st14{fill:url(#SVGID_00000086651426309001632860000003570930335578841505_);}
	.st15{fill:url(#SVGID_00000121968331294901420740000014231666812630563250_);}
	.st16{fill:url(#SVGID_00000142143182947293003280000009531077291268359838_);}
	.st17{fill:url(#SVGID_00000105409989532550174550000017202024341840260268_);}
</style>
<g>
	<path class="st12" d="M63.94,75.32v9.7h715.24c106.45,0,192.77,86.32,192.77,192.77v581.77c82.31,6.47,109.13,44.65,109.13,73.54
		V75.32H63.94z"/>
	<linearGradient id="SVGID_1_" gradientUnits="userSpaceOnUse" x1="517.95" y1="2850.5156" x2="517.95" y2="140.5108">
		<stop  offset="0.7029" style="stop-color:#C9FFFF"/>
		<stop  offset="1" style="stop-color:#96F5EB"/>
	</linearGradient>
	<path class="st0" d="M771.41,879c46.47-12.19,114.12-24.87,195.78-19.81c1.62,0.1,3.19,0.24,4.77,0.36V277.79
		c0-106.45-86.32-192.77-192.77-192.77H63.94v242.24c32.58-16.06,69.24-25.1,108.01-25.1c135.1,0,244.62,109.52,244.62,244.62
		c0,135.1-109.52,244.62-244.62,244.62c-38.77,0-75.43-9.04-108.01-25.1v250.13h423.19c11.79-7.44,22.6-14.71,32.13-21.63
		C610.67,928.52,724.94,891.19,771.41,879z"/>
	<path class="st1" d="M971.96,859.56c-1.58-0.12-3.15-0.26-4.77-0.36c-81.66-5.06-149.31,7.62-195.78,19.81
		c-46.47,12.19-160.74,49.52-252.14,115.8c-9.54,6.92-20.34,14.18-32.13,21.63h593.96V933.1
		C1081.09,904.2,1054.27,866.03,971.96,859.56z"/>
	<path class="st10" d="M416.57,546.78c0-135.1-109.52-244.62-244.62-244.62c-38.77,0-75.43,9.04-108.01,25.1V766.3
		c32.58,16.06,69.24,25.1,108.01,25.1C307.05,791.4,416.57,681.88,416.57,546.78z"/>
</g>
</svg>
