<?xml version="1.0" encoding="utf-8"?>
<!-- Generator: Adobe Illustrator 26.0.3, SVG Export Plug-In . SVG Version: 6.00 Build 0)  -->
<svg version="1.1" id="Слой_1" xmlns="http://www.w3.org/2000/svg" xmlns:xlink="http://www.w3.org/1999/xlink" x="0px" y="0px"
	 viewBox="0 0 1080 1080" style="enable-background:new 0 0 1080 1080;" xml:space="preserve">
<style type="text/css">
	.st0{fill:#FFCB8D;}
	.st1{fill:#AF4F00;stroke:#7A2C00;stroke-width:5;stroke-miterlimit:10;}
	.st2{fill:#FFE8A6;}
	.st3{fill:#7A2C00;}
	.st4{fill:#301600;}
	.st5{fill:#FF9D4D;}
	.st6{fill:#913B00;}
	.st7{fill:#AF4F00;}
	.st8{fill:#441D00;}
	.st9{fill:#0F0600;}
	.st10{fill:#495154;}
	.st11{fill:#FFF0CA;}
	.st12{fill:#722E00;}
	.st13{fill:#FF8AD5;}
	.st14{fill:#FF64B5;}
	.st15{fill:#FF5FBE;}
	.st16{fill:#ED0061;}
	.st17{fill:#C60042;}
	.st18{fill:#FFB0EB;}
	.st19{fill:#CF85FF;}
	.st20{fill:#AA00F9;}
	.st21{fill:#160900;}
	.st22{fill:#626D7C;}
	.st23{fill:none;stroke:#E7AEFF;stroke-width:30;stroke-linecap:round;stroke-miterlimit:10;}
	.st24{fill:#0BAEFF;}
	.st25{fill:#007ACC;}
	.st26{fill:#0058C1;}
	.st27{fill:#22D5FF;}
	.st28{fill:#08D1FF;}
	.st29{fill:#282828;}
	.st30{fill:#636363;}
	.st31{fill:#48D8FF;}
	.st32{fill:#141414;}
	.st33{fill:#FFDA00;}
	.st34{fill:#FFB600;}
	.st35{fill:#FFA300;}
	.st36{fill:#FFE36E;}
	.st37{fill:none;stroke:#FFE36E;stroke-width:20;stroke-linecap:round;stroke-linejoin:round;stroke-miterlimit:10;}
	.st38{fill:#F44B00;}
	.st39{fill:#D82E00;}
	.st40{fill:#FF9312;}
	.st41{fill:#DD7300;}
	.st42{fill:none;stroke:#D35A00;stroke-width:8;stroke-linecap:round;stroke-miterlimit:10;}
	.st43{fill:#5B3A00;}
	.st44{fill:#472300;}
	.st45{fill:#D35A00;}
	.st46{fill:none;stroke:#FFB048;stroke-width:20;stroke-linecap:round;stroke-miterlimit:10;}
	.st47{fill:none;stroke:#FFB048;stroke-width:12;stroke-linecap:round;stroke-miterlimit:10;}
	.st48{fill:#00AD5A;}
	.st49{fill:#00F445;}
	.st50{fill:#00CC66;}
	.st51{fill:#00CC49;}
	.st52{fill:#1DFFEE;stroke:#00A58D;stroke-width:15;stroke-miterlimit:10;}
	.st53{fill:#203533;}
	.st54{fill:none;stroke:#5CFF68;stroke-width:20;stroke-linecap:round;stroke-miterlimit:10;}
	.st55{fill:#00D6D0;}
	.st56{fill:#00AAAA;}
	.st57{fill:#2CFFEA;}
	.st58{fill:#00E8D7;}
	.st59{fill:#00635E;}
	.st60{fill:#009388;}
	.st61{fill:none;stroke:#00AAAA;stroke-width:20;stroke-miterlimit:10;}
</style>
<g>
	<circle class="st19" cx="310.51" cy="356.39" r="184"/>
	<circle class="st19" cx="769.49" cy="356.39" r="184"/>
	<path class="st20" d="M379.52,485.28c-101.62,0-184-82.38-184-184c0-42.18,14.21-81.04,38.08-112.08
		c-63.21,29.13-107.09,93.03-107.09,167.19c0,101.62,82.38,184,184,184c59.44,0,112.28-28.19,145.92-71.92
		C433.03,479.25,406.98,485.28,379.52,485.28z"/>
	<path class="st20" d="M826.37,492.39c-101.62,0-184-82.38-184-184c0-42.96,14.72-82.47,39.4-113.79
		c-57.35,31.16-96.28,91.93-96.28,161.79c0,101.62,82.38,184,184,184c58.66,0,110.91-27.45,144.6-70.21
		C888.02,484.34,858.14,492.39,826.37,492.39z"/>
	<path class="st19" d="M359.03,496.94C465.01,382.13,618.9,398,715.98,496.17c53.51,54.11,62.23,105.67,46.61,164.33
		c-12.93,48.54-126.83,247.11-222.61,247.11S335.92,717.39,316.36,658.72C300.92,612.41,316.36,543.17,359.03,496.94z"/>
	<path class="st20" d="M598.44,877.63c-95.78,0-204.06-190.22-223.62-248.89c-15.44-46.31,0-115.56,42.67-161.78
		c13.73-14.88,28.27-27.54,43.38-38.13c-36.28,12.49-71.08,34.78-101.84,68.11c-42.67,46.22-58.1,115.47-42.67,161.78
		c19.56,58.67,127.84,248.89,223.62,248.89c23.79,0,48.71-12.26,72.91-31.43C608.04,877.13,603.22,877.63,598.44,877.63z"/>
	<path class="st20" d="M403.66,253.39c0,0,26.98,0,42.48,65.78s-15.17,122.39-15.17,122.39l-83.28,90.95
		c0,0-156.94-145.51-94.16-97.13c44.16,34.02,109.04,11.8,135.11-27.31c16.97-25.46,25.49-55.11,25.49-94.22
		S403.66,253.39,403.66,253.39z"/>
	<path class="st20" d="M890.58,367.5c-12.44,29-25.66,47.67-64.89,69.89c-26.67,15.11-92.44,29.33-141.55-12.27
		c-54.2-45.91,45.55,68.27,45.55,68.27s68.26,26.5,96.89,7.11c27.56-18.67,68.44-34.67,87.51-107.56
		c12.69-48.51-9.28-78.22-9.28-78.22S902.82,338.97,890.58,367.5z"/>
	
		<ellipse transform="matrix(0.577 -0.8168 0.8168 0.577 -358.9891 638.8597)" class="st4" cx="437.26" cy="665.99" rx="22.67" ry="37.27"/>
	
		<ellipse transform="matrix(0.8168 -0.577 0.577 0.8168 -268.7973 485.6198)" class="st4" cx="630.14" cy="665.99" rx="37.27" ry="22.67"/>
	<ellipse class="st4" cx="540.03" cy="882.41" rx="35.56" ry="25.2"/>
	<path class="st21" d="M549.93,895.48c-19.64,0-35.56-11.28-35.56-25.2c0-2.08,0.36-4.11,1.04-6.04
		c-6.74,4.59-10.94,11.03-10.94,18.18c0,13.92,15.92,25.2,35.56,25.2c16.7,0,30.7-8.16,34.52-19.16
		C568.16,892.8,559.49,895.48,549.93,895.48z"/>
	
		<ellipse transform="matrix(0.9469 -0.3214 0.3214 0.9469 -175.3286 240.7314)" class="st22" cx="641.38" cy="651.34" rx="10.13" ry="6.16"/>
	
		<ellipse transform="matrix(0.6798 -0.7334 0.7334 0.6798 -338.0119 533.482)" class="st22" cx="441.99" cy="653.86" rx="6.16" ry="10.13"/>
	<path class="st23" d="M542.73,461.98c0,0,122.67,4.74,181.33,125.63"/>
	<circle class="st23" cx="494.51" cy="461.98" r="0.8"/>
	<path class="st23" d="M737.07,223.17c0,0,91.29-28.44,144.62,56.89"/>
	<circle class="st23" cx="367.63" cy="224.45" r="5.84"/>
</g>
</svg>
