<?xml version="1.0" encoding="utf-8"?>
<!-- Generator: Adobe Illustrator 26.0.3, SVG Export Plug-In . SVG Version: 6.00 Build 0)  -->
<svg version="1.1" id="Слой_1" xmlns="http://www.w3.org/2000/svg" xmlns:xlink="http://www.w3.org/1999/xlink" x="0px" y="0px"
	 viewBox="0 0 1080 1080" style="enable-background:new 0 0 1080 1080;" xml:space="preserve">
<style type="text/css">
	.st0{fill:url(#SVGID_1_);}
	.st1{fill:url(#SVGID_00000036970670088655560750000014819775540448415153_);}
	.st2{fill:url(#SVGID_00000059303472864980379980000008822457392141226630_);}
	.st3{fill:#FF39BD;}
	.st4{fill:none;stroke:#FF8AE6;stroke-width:30;stroke-linecap:round;stroke-miterlimit:10;}
	.st5{fill:url(#SVGID_00000103239594003975546320000008442070788869553824_);}
	.st6{fill:#FFEF5C;}
	.st7{fill:#FFDB43;}
	.st8{fill:#FF0031;}
	.st9{fill:#DD0000;}
	.st10{fill:#FF557E;}
	.st11{fill:#FFCD2C;}
	.st12{fill:#22D0FF;}
	.st13{fill:#00BCEF;}
	.st14{fill:#66E2FF;}
	.st15{fill:#FF1FC0;}
	.st16{fill:#EA00A8;}
	.st17{fill:#FF73DE;}
	.st18{fill:none;stroke:#FFF5B0;stroke-width:15;stroke-linecap:round;stroke-miterlimit:10;}
	.st19{fill:url(#SVGID_00000134223080016970522970000008712528391552586171_);}
	.st20{fill:#1C73AD;}
	.st21{fill:#CCD9DB;}
	.st22{fill:#00A894;}
	.st23{fill:#B6C6C5;}
	.st24{fill:#3283C6;}
	.st25{fill:#EAF3F4;}
	.st26{fill:#00847D;}
	.st27{fill:#E2001B;}
	.st28{fill:#FFFFFF;}
	.st29{fill:url(#SVGID_00000001654092953325223670000017951385730706934206_);}
	.st30{fill:#D7D7FF;}
	.st31{fill:#A6B7FF;}
	.st32{fill:#170060;}
	.st33{fill:#000630;}
	.st34{fill:#E6F3FF;}
	.st35{fill:none;stroke:#170060;stroke-width:15;stroke-linecap:round;stroke-miterlimit:10;}
	.st36{fill:none;stroke:#E3F1FF;stroke-width:30;stroke-linecap:round;stroke-miterlimit:10;}
	.st37{fill:none;stroke:#EAF3F4;stroke-width:30;stroke-linecap:round;stroke-miterlimit:10;}
	.st38{fill:none;stroke:#EAF3F4;stroke-width:20;stroke-linecap:round;stroke-miterlimit:10;}
	.st39{fill:none;stroke:#FF4D4D;stroke-width:20;stroke-linecap:round;stroke-miterlimit:10;}
	.st40{fill:url(#SVGID_00000061432294028635720830000006603448791695220891_);}
	.st41{fill:#FF50D6;}
	.st42{fill:#EEFF76;}
	.st43{fill:#5252FF;}
	.st44{fill:none;stroke:#2B2B2B;stroke-width:30;stroke-miterlimit:10;}
	.st45{fill:#2B2B2B;}
	.st46{fill:none;stroke:#F1FFD7;stroke-width:30;stroke-linecap:round;stroke-miterlimit:10;}
	.st47{fill:url(#SVGID_00000054988053031936974880000007703137273998938755_);}
	.st48{fill:#424242;}
	.st49{fill:#161616;}
	.st50{fill:#757575;}
	.st51{fill:none;stroke:#161616;stroke-width:25;stroke-miterlimit:10;}
	.st52{fill:#1C1C1C;}
	.st53{fill:#FF4DDD;stroke:#640089;stroke-width:10;stroke-miterlimit:10;}
	.st54{fill:#1D1D1B;}
</style>
<linearGradient id="SVGID_1_" gradientUnits="userSpaceOnUse" x1="540" y1="1087.2593" x2="540" y2="-7.2593">
	<stop  offset="0" style="stop-color:#D098FB"/>
	<stop  offset="1" style="stop-color:#FEA5E8"/>
</linearGradient>
<rect x="-11.35" y="-7.26" class="st0" width="1102.7" height="1094.52"/>
<g>
	<g>
		
			<linearGradient id="SVGID_00000026164805291606218380000017896324600573970820_" gradientUnits="userSpaceOnUse" x1="689.3265" y1="359.3586" x2="397.3265" y2="598.0253">
			<stop  offset="0.019" style="stop-color:#FF6FD4"/>
			<stop  offset="0.4396" style="stop-color:#FF6DD3"/>
			<stop  offset="0.6846" style="stop-color:#FF64CF"/>
			<stop  offset="0.884" style="stop-color:#FF56C9"/>
			<stop  offset="1" style="stop-color:#FF4AC4"/>
		</linearGradient>
		<path style="fill:url(#SVGID_00000026164805291606218380000017896324600573970820_);" d="M873.18,445.7
			c0,42.73-16.09,81.69-42.53,111.18c-0.25,0.28-0.5,0.56-0.75,0.83L567.86,845.14c-14.95,16.41-40.77,16.41-55.72,0L250.13,557.75
			c-26.9-29.59-43.31-68.9-43.31-112.05c0-92,74.59-166.58,166.59-166.58c72.58,0,142.41,46.41,168.66,111.17
			c25.02-64.76,91.94-111.17,164.52-111.17C798.59,279.12,873.18,353.7,873.18,445.7z"/>
		
			<linearGradient id="SVGID_00000031169160468015258170000015527426639244487820_" gradientUnits="userSpaceOnUse" x1="842.7646" y1="547.0845" x2="550.7646" y2="785.7512">
			<stop  offset="0" style="stop-color:#FFFFFF"/>
			<stop  offset="1" style="stop-color:#1D1D1B"/>
		</linearGradient>
		<path style="fill:url(#SVGID_00000031169160468015258170000015527426639244487820_);" d="M830.66,556.88l-0.76,0.83
			C830.15,557.44,830.4,557.16,830.66,556.88L830.66,556.88z"/>
	</g>
	<path class="st3" d="M293.44,521.03c-26.91-29.59-43.31-68.9-43.31-112.05c0-40.69,14.59-77.96,38.82-106.89
		c-49.15,28.97-82.13,82.43-82.13,143.61c0,92,74.58,166.59,166.59,166.59c1.07,0,2.13-0.02,3.2-0.04L293.44,521.03L293.44,521.03z"
		/>
	<path class="st3" d="M555.45,808.42L306.91,535.8l-56.78,21.95l262.01,287.39c14.95,16.4,40.77,16.4,55.72,0l22.94-25.17
		C578.31,822.49,564.77,818.64,555.45,808.42z"/>
	<path class="st4" d="M774.33,355.74c0,0,98.84,67.56,18.67,160"/>
	<line class="st4" x1="737.67" y1="333.47" x2="730.33" y2="330.8"/>
</g>
</svg>
