<?xml version="1.0" encoding="utf-8"?>
<!-- Generator: Adobe Illustrator 26.0.3, SVG Export Plug-In . SVG Version: 6.00 Build 0)  -->
<svg version="1.1" id="Слой_1" xmlns="http://www.w3.org/2000/svg" xmlns:xlink="http://www.w3.org/1999/xlink" x="0px" y="0px"
	 viewBox="0 0 1080 1080" style="enable-background:new 0 0 1080 1080;" xml:space="preserve">
<style type="text/css">
	.st0{fill:url(#SVGID_1_);}
	.st1{fill:#FF7B22;}
	.st2{fill:#FF761A;}
	.st3{fill:#934200;}
	.st4{fill:#FFD7A6;}
	.st5{fill:#FF4D1D;}
	.st6{fill:#661300;}
	.st7{fill:#FFEDD9;}
	.st8{fill:#FFB380;}
	.st9{fill:none;}
	.st10{fill:url(#SVGID_00000052074211015589720600000012051586815668901804_);}
	.st11{fill:url(#SVGID_00000055704676280647779400000008406265143945351067_);}
	.st12{fill:url(#SVGID_00000170251977123448482580000006992281478554958991_);}
	.st13{fill:url(#SVGID_00000023273113846859727160000009351837071688767412_);}
	.st14{fill:url(#SVGID_00000088120705648204340590000011084571583251174553_);}
	.st15{fill:url(#SVGID_00000107569000842386945450000005179385460848177835_);}
	.st16{fill:url(#SVGID_00000100384059937095599920000006187979274375234739_);}
	.st17{fill:url(#SVGID_00000005231383407569292610000004362479040148190359_);}
	.st18{fill:url(#SVGID_00000109745219137915513030000017763840196089974430_);}
	.st19{fill:url(#SVGID_00000112615517981727779030000012424874850251312003_);}
	.st20{fill:url(#SVGID_00000034769111064853727690000013738086736021087131_);}
	.st21{fill:url(#SVGID_00000116940124404287981770000012977293205305404076_);}
	.st22{fill:url(#SVGID_00000084507485757569882700000006512793798814580137_);}
	.st23{fill:url(#SVGID_00000138574737944786257150000012458107027195734664_);}
	.st24{fill:url(#SVGID_00000134236703090698444390000004648684898996209283_);}
	.st25{fill:url(#SVGID_00000100359476888937586440000011737098082014467458_);}
	.st26{fill:url(#SVGID_00000162343012285857092370000012944444870226455227_);}
	.st27{fill:url(#SVGID_00000003063612996478499420000001626804907651255229_);}
</style>
<g>
	<path class="st9" d="M64.77,29.85v107.19c40.13,7.11,65.4,14.38,65.4,14.38s-26.67,9.09-65.4,23.24v132.91h648.82
		c93.38,0,169.1,75.73,169.1,169.1V29.85H64.77z"/>
	<radialGradient id="SVGID_1_" cx="-358.1314" cy="1548.391" r="1240.8263" gradientUnits="userSpaceOnUse">
		<stop  offset="0.0112" style="stop-color:#B0FFB3"/>
		<stop  offset="0.2301" style="stop-color:#ADFEB3"/>
		<stop  offset="0.3886" style="stop-color:#A4FBB1"/>
		<stop  offset="0.5282" style="stop-color:#94F6AF"/>
		<stop  offset="0.6569" style="stop-color:#7EEEAC"/>
		<stop  offset="0.778" style="stop-color:#61E5A9"/>
		<stop  offset="0.8919" style="stop-color:#3ED9A4"/>
		<stop  offset="1" style="stop-color:#15CC9F"/>
	</radialGradient>
	<path class="st0" d="M477.65,1053.87h146.39c-49.41-3.97-136.43-47.61-192.31-78.31C446.41,998.31,462.15,1024.2,477.65,1053.87z"
		/>
	
		<radialGradient id="SVGID_00000134221273201164592070000005345672963700855997_" cx="-358.1314" cy="1548.391" r="1240.8263" gradientUnits="userSpaceOnUse">
		<stop  offset="0.0112" style="stop-color:#B0FFB3"/>
		<stop  offset="0.2301" style="stop-color:#ADFEB3"/>
		<stop  offset="0.3886" style="stop-color:#A4FBB1"/>
		<stop  offset="0.5282" style="stop-color:#94F6AF"/>
		<stop  offset="0.6569" style="stop-color:#7EEEAC"/>
		<stop  offset="0.778" style="stop-color:#61E5A9"/>
		<stop  offset="0.8919" style="stop-color:#3ED9A4"/>
		<stop  offset="1" style="stop-color:#15CC9F"/>
	</radialGradient>
	<path style="fill:url(#SVGID_00000134221273201164592070000005345672963700855997_);" d="M713.59,307.56H64.77v258.56
		c17.73,10.09,34.15,21.37,48.91,33.38c40.99,33.4,89.59,80.77,135.14,130.55c0,0,0,0,0.04,0.04
		c53.34,58.23,102.49,119.76,130.43,165.94c0,0,128.69-74.69,231.92-49.41c103.23,25.24,125.21,71.39,125.21,98.85
		c0,26.46-30.09,103-97.85,108.39h244.13v-577.2C882.69,383.29,806.97,307.56,713.59,307.56z"/>
	<path class="st2" d="M229.03,841.4c19.76-21.68,39.55,24.98,44.48,0c4.86-24.61-23.83-108.86-24.65-111.31
		c-0.04-0.04-0.04-0.04-0.04-0.04c-45.55-49.78-94.15-97.15-135.14-130.55c-14.75-12.01-31.18-23.3-48.91-33.38v487.75h181.7
		c-5.38-37.25-18.44-86.79-22.38-108.39C219.05,918.01,209.27,863.08,229.03,841.4z"/>
	<path class="st2" d="M417.47,967.64c-4.57-2.57-8.8-4.98-12.68-7.21c9.52,30.08,16.08,63.28,7.09,81.89
		c-2.45,5.07-5.27,8.8-8.33,11.54h74.11c-15.51-29.67-31.24-55.56-45.93-78.31C426.71,972.81,421.93,970.15,417.47,967.64z"/>
	<path class="st2" d="M515.78,979.39C516.7,979.66,516.75,979.68,515.78,979.39L515.78,979.39z"/>
	<path class="st2" d="M514.15,978.92c0,0-0.01,0-0.01,0C514.15,978.92,514.15,978.92,514.15,978.92z"/>
	<path class="st2" d="M399.75,945.48c0.06,0.02,91.76,26.82,112.58,32.91c-29.95-8.76,92.33,25.65,138.43,19.84
		c46.12-5.81,85.66-52.74,85.66-52.74c0-27.47-21.98-73.61-125.21-98.85c-103.23-25.28-231.92,49.41-231.92,49.41
		s0.04,0.07,0.11,0.22C380.52,898.59,390.48,919.48,399.75,945.48z"/>
	<path class="st2" d="M417.47,967.64l-17.71-22.16c1.72,4.83,3.42,9.85,5.03,14.96C408.67,962.66,412.9,965.07,417.47,967.64z"/>
	<path class="st3" d="M411.87,1042.33c8.99-18.61,2.43-51.81-7.09-81.89c-1.61-5.1-3.31-10.12-5.03-14.96l0,0l0,0
		c-9.27-25.99-19.23-46.89-20.35-49.22c-0.07-0.15-0.11-0.22-0.11-0.22c-27.95-46.18-77.1-107.71-130.43-165.94
		c0.82,2.45,29.5,86.7,24.65,111.31c-4.93,24.98-24.72-21.68-44.48,0c-19.76,21.68-9.97,76.62-4.93,104.08
		c3.94,21.6,17,71.14,22.38,108.39h157.07C406.6,1051.13,409.42,1047.4,411.87,1042.33z"/>
	<path class="st3" d="M736.42,945.48c0,0-39.54,46.93-85.66,52.74c-46.1,5.81-168.38-28.59-138.43-19.84
		c-20.82-6.08-112.51-32.89-112.58-32.91l0,0l0,0l17.71,22.16c4.46,2.51,9.25,5.16,14.26,7.92c55.88,30.7,142.91,74.34,192.31,78.31
		h14.53C706.33,1048.48,736.42,971.94,736.42,945.48z M515.78,979.39C516.75,979.68,516.7,979.66,515.78,979.39L515.78,979.39z
		 M514.14,978.91c0,0,0.01,0,0.01,0C514.15,978.92,514.15,978.92,514.14,978.91z"/>
	<path class="st4" d="M64.77,137.03v37.62c38.74-14.14,65.4-23.24,65.4-23.24S104.9,144.14,64.77,137.03z"/>
</g>
</svg>
