<?xml version="1.0" encoding="utf-8"?>
<!-- Generator: Adobe Illustrator 26.0.3, SVG Export Plug-In . SVG Version: 6.00 Build 0)  -->
<svg version="1.1" id="Слой_1" xmlns="http://www.w3.org/2000/svg" xmlns:xlink="http://www.w3.org/1999/xlink" x="0px" y="0px"
	 viewBox="0 0 1080 1080" style="enable-background:new 0 0 1080 1080;" xml:space="preserve">
<style type="text/css">
	.st0{fill:url(#SVGID_1_);}
	.st1{fill:#B7004B;}
	.st2{fill:#E6007E;}
	.st3{fill:#99003B;}
	.st4{fill:#CC0062;}
	.st5{fill:#FF2CAF;}
	.st6{fill:#00E7FF;}
	.st7{fill:#00BDFF;}
	.st8{fill:#0096F2;}
	.st9{fill:#6CF8FF;}
	.st10{fill:none;}
	.st11{fill:url(#SVGID_00000026869662096616079590000015758061563819176632_);}
	.st12{fill:url(#SVGID_00000029027966260120165310000002354721690304258715_);}
	.st13{fill:url(#SVGID_00000063593121125711064610000005013846816129611669_);}
	.st14{fill:url(#SVGID_00000066516749244456890170000012701551240247714203_);}
	.st15{fill:url(#SVGID_00000130643015375972453080000008824660750887970446_);}
	.st16{fill:url(#SVGID_00000164493237540172090660000003092677557565316758_);}
	.st17{fill:url(#SVGID_00000057854060711666075720000018052512069897186189_);}
	.st18{fill:url(#SVGID_00000147208706334467380800000009489363283261966749_);}
	.st19{fill:url(#SVGID_00000144339741086088672380000000907700493659566500_);}
	.st20{fill:url(#SVGID_00000158022132982591730840000003042484308527945131_);}
	.st21{fill:url(#SVGID_00000024702159423873527840000017452898548525856135_);}
	.st22{fill:url(#SVGID_00000071537130888818438320000004543827436135251333_);}
</style>
<g>
	<path class="st10" d="M676.02,801.98H238.49c-12.53,32.59-32.63,55.64-64.42,55.64H146.3v171.34h798.49V533.21
		C944.79,681.65,824.45,801.98,676.02,801.98z"/>
	<linearGradient id="SVGID_1_" gradientUnits="userSpaceOnUse" x1="549.7667" y1="747.5132" x2="530.3786" y2="-1554.8273">
		<stop  offset="0" style="stop-color:#6DE5FF"/>
		<stop  offset="0.0213" style="stop-color:#73E6FF"/>
		<stop  offset="0.2427" style="stop-color:#B0EDFF"/>
		<stop  offset="0.4052" style="stop-color:#D6F2FF"/>
		<stop  offset="0.4904" style="stop-color:#E5F4FF"/>
		<stop  offset="0.5935" style="stop-color:#E8EAFA"/>
		<stop  offset="0.7712" style="stop-color:#F1CEEC"/>
		<stop  offset="1" style="stop-color:#FFA1D5"/>
	</linearGradient>
	<path class="st0" d="M617.55,68.05c25.8,63.67-45.3,113.87-45.3,113.87s85.73-14.01,110.68,47.56c14.7,36.25-5.93,79.67-49.1,97.14
		c-87.72,35.5-222.87-79.39-222.87-79.39s1.95-23.64,8.57-55.51c9.36-44.86,27.98-106.04,63.34-140.68H146.3v389.75
		c17.03,0.79,32.74,3.89,43.71,9.07c2.95,1.39,5.97,3.43,8.97,6.03c24.65,21.22,50.42,80.42,56.07,139.81
		c2.65,27.82,9.69,138-16.56,206.3h437.53c148.44,0,268.77-120.33,268.77-268.77V51.04h-337.2
		C611.64,56.12,615.02,61.81,617.55,68.05z"/>
	<path class="st1" d="M198.99,455.88c-3-2.6-6.03-4.63-8.97-6.03c-10.97-5.18-26.69-8.28-43.71-9.07v58.27
		c3.91-9.77,8.52-19.09,13.5-27.19C172.49,451.23,198.99,455.88,198.99,455.88z"/>
	<path class="st3" d="M238.49,801.98c26.25-68.29,19.21-178.48,16.56-206.3c-5.65-59.39-31.42-118.59-56.07-139.81
		c0,0-26.49-4.65-39.19,15.99c-4.98,8.09-9.58,17.41-13.5,27.19v358.57h27.77C205.86,857.63,225.96,834.57,238.49,801.98z"/>
	<path class="st7" d="M419.52,191.72l0.07-0.14c0,0,11.62,14.73,19.05,24.12c2.57,3.26,8.94,8.05,17.24,13.33l116.37-47.12
		c0,0,71.1-50.2,45.3-113.87c-2.53-6.25-5.91-11.93-9.96-17.02h-41.18c3.94,2.76,6.75,6.43,7.82,10.84
		c3.1,12.81-9.4,26.83-27.93,31.32c-18.53,4.49-36.06-2.26-39.17-15.06c-2.42-10,4.7-20.73,16.76-27.09h-41.03
		C447.5,85.68,428.89,146.86,419.52,191.72z"/>
	<path class="st7" d="M510.53,257c25.43,9.73,56.03,21.79,84.47,25.01s55.34-11.75,69.05-25.01c13.71-13.3,18.88-27.52,18.88-27.52
		c-24.95-61.58-110.68-47.56-110.68-47.56l-116.37,47.12C471.51,238.94,493.91,250.62,510.53,257z"/>
	<path class="st8" d="M595,282.01c-28.44-3.22-59.04-15.28-84.47-25.01c-16.62-6.37-39.03-18.06-54.65-27.96
		c-8.29-5.28-14.67-10.07-17.24-13.33c-7.44-9.39-19.05-24.12-19.05-24.12l-0.07,0.14c-6.61,31.87-8.57,55.51-8.57,55.51
		s135.15,114.89,222.87,79.39c43.17-17.48,63.8-60.89,49.1-97.14c0,0-5.17,14.22-18.88,27.52
		C650.34,270.26,623.44,285.23,595,282.01z"/>
	<path class="st6" d="M507.12,78.13c3.1,12.81,20.64,19.55,39.17,15.06c18.53-4.49,31.04-18.51,27.93-31.32
		c-1.07-4.41-3.88-8.08-7.82-10.84h-42.52C511.83,57.4,504.7,68.12,507.12,78.13z"/>
</g>
</svg>
