<?xml version="1.0" encoding="utf-8"?>
<!-- Generator: Adobe Illustrator 26.0.3, SVG Export Plug-In . SVG Version: 6.00 Build 0)  -->
<svg version="1.1" id="Слой_1" xmlns="http://www.w3.org/2000/svg" xmlns:xlink="http://www.w3.org/1999/xlink" x="0px" y="0px"
	 viewBox="0 0 1080 1080" style="enable-background:new 0 0 1080 1080;" xml:space="preserve">
<style type="text/css">
	.st0{fill:url(#SVGID_1_);}
	.st1{fill:url(#SVGID_00000001659470055227196780000010107255904755346318_);}
	.st2{fill:url(#SVGID_00000098908053349962456770000009073351768243857066_);}
	.st3{fill:#FF39BD;}
	.st4{fill:none;stroke:#FF8AE6;stroke-width:30;stroke-linecap:round;stroke-miterlimit:10;}
	.st5{fill:url(#SVGID_00000009556578746848182810000013730453062669251258_);}
	.st6{fill:#FFEF5C;}
	.st7{fill:#FFDB43;}
	.st8{fill:#FF0031;}
	.st9{fill:#DD0000;}
	.st10{fill:#FF557E;}
	.st11{fill:#FFCD2C;}
	.st12{fill:#22D0FF;}
	.st13{fill:#00BCEF;}
	.st14{fill:#66E2FF;}
	.st15{fill:#FF1FC0;}
	.st16{fill:#EA00A8;}
	.st17{fill:#FF73DE;}
	.st18{fill:none;stroke:#FFF5B0;stroke-width:15;stroke-linecap:round;stroke-miterlimit:10;}
	.st19{fill:url(#SVGID_00000020397093916847270120000013414099482558483328_);}
	.st20{fill:#1C73AD;}
	.st21{fill:#CCD9DB;}
	.st22{fill:#00A894;}
	.st23{fill:#B6C6C5;}
	.st24{fill:#3283C6;}
	.st25{fill:#EAF3F4;}
	.st26{fill:#00847D;}
	.st27{fill:#E2001B;}
	.st28{fill:#FFFFFF;}
	.st29{fill:url(#SVGID_00000010294016428702898370000009531518085241539482_);}
	.st30{fill:#D7D7FF;}
	.st31{fill:#A6B7FF;}
	.st32{fill:#170060;}
	.st33{fill:#000630;}
	.st34{fill:#E6F3FF;}
	.st35{fill:none;stroke:#170060;stroke-width:15;stroke-linecap:round;stroke-miterlimit:10;}
	.st36{fill:none;stroke:#E3F1FF;stroke-width:30;stroke-linecap:round;stroke-miterlimit:10;}
	.st37{fill:none;stroke:#EAF3F4;stroke-width:30;stroke-linecap:round;stroke-miterlimit:10;}
	.st38{fill:none;stroke:#EAF3F4;stroke-width:20;stroke-linecap:round;stroke-miterlimit:10;}
	.st39{fill:none;stroke:#FF4D4D;stroke-width:20;stroke-linecap:round;stroke-miterlimit:10;}
	.st40{fill:url(#SVGID_00000042701248518544564390000009228808712564054676_);}
	.st41{fill:#FF50D6;}
	.st42{fill:#EEFF76;}
	.st43{fill:#5252FF;}
	.st44{fill:none;stroke:#2B2B2B;stroke-width:30;stroke-miterlimit:10;}
	.st45{fill:#2B2B2B;}
	.st46{fill:none;stroke:#F1FFD7;stroke-width:30;stroke-linecap:round;stroke-miterlimit:10;}
	.st47{fill:url(#SVGID_00000015329679504225742500000009812086808385093535_);}
	.st48{fill:#424242;}
	.st49{fill:#161616;}
	.st50{fill:#757575;}
	.st51{fill:none;stroke:#161616;stroke-width:25;stroke-miterlimit:10;}
	.st52{fill:#1C1C1C;}
	.st53{fill:#FF4DDD;stroke:#640089;stroke-width:10;stroke-miterlimit:10;}
	.st54{fill:#1D1D1B;}
</style>
<linearGradient id="SVGID_1_" gradientUnits="userSpaceOnUse" x1="544.4467" y1="1091.3708" x2="544.4467" y2="-3.1476">
	<stop  offset="0" style="stop-color:#D098FB"/>
	<stop  offset="1" style="stop-color:#FEA5E8"/>
</linearGradient>
<rect x="-6.9" y="-3.15" class="st0" width="1102.7" height="1094.52"/>
<g>
	<path class="st48" d="M831.04,523.63c0,10.35-12.02,71.54-24.06,85.17c-12.05,13.63-78.71,53.78-78.71,53.78l-1.92,15.23
		l-19.55,155.01l-2.62,20.75c0,0-73.43,73.61-164.42,73.61c-90.99,0-159.97-77.57-159.97-77.57l-25.54-171.86l-1.35-9.04l-0.7-4.75
		c0,0-73.62-50.89-82.89-61.23c-9.27-10.34-24.46-56.67-19.27-71.51c5.19-14.84,42.94-48.57,42.94-48.57s-30.69-135.64-1.61-198.78
		c34.97-75.92,123.69-114.45,260.22-114.45c25.54,0,49.3,1.69,71.21,4.89c15.11,2.2,29.35,5.11,42.71,8.69
		c0.01,0.01,0.02,0.01,0.03,0.01C736.33,202,782.4,239.47,802.15,286.7c28.89,69.07-4.82,198.38-4.82,198.38
		S831.04,513.29,831.04,523.63z"/>
	<path class="st49" d="M352.18,663.73c0,0,80.72,18.89,88.55,40.37c7.23,19.81,7.23,35.11,7.23,46.85s0,69.88,0,69.88
		s-43.24-8.41-50.6-24.36c-7.36-15.95-10.17-106.55-21.68-111.64c-11.51-5.09-21.41-7.09-21.41-7.09L352.18,663.73z"/>
	<path class="st50" d="M665.52,683.46c0,0-32.94,12.63-47.7,12.63c-14.76,0-9.96,25.68-18.07,39.26
		c-9.87,16.55-77.51,42.78-127.56,34.22c-55.47-9.49-38.23-2.55-34.38-7.65l48.69,18.65l69.88,6.67l65.06-17.67l34.94-34.22
		L665.52,683.46z"/>
	<path class="st49" d="M352.18,663.73c0,0,80.72,18.89,88.55,40.37c7.23,19.81,7.23,35.11,7.23,46.85s0,69.88,0,69.88
		s-43.24-8.41-50.6-24.36c-7.36-15.95-10.17-106.55-21.68-111.64c-11.51-5.09-21.41-7.09-21.41-7.09L352.18,663.73z"/>
	<path class="st49" d="M726.26,663.73c0,0-80.72,18.89-88.55,40.37c-7.23,19.81-7.23,35.11-7.23,46.85s0,69.88,0,69.88
		s43.24-8.41,50.6-24.36s10.17-106.55,21.68-111.64c11.51-5.09,21.41-7.09,21.41-7.09L726.26,663.73z"/>
	<path class="st49" d="M360.29,504.31c5.95,19.46,25.94,37.83,42.97,47.56c17.03,9.73,39.72,12.22,54.86,4.32
		c15.13-7.9,36.75-20.54,41.07-41.07c4.32-20.54-10.81-76.52-24.86-87.52c-14.05-11-32.43-19.15-63.77-9.57
		S354.34,484.85,360.29,504.31z"/>
	<path class="st49" d="M719.27,504.31c-5.95,19.46-25.94,37.83-42.97,47.56s-39.72,12.22-54.86,4.32
		c-15.13-7.9-36.75-20.54-41.07-41.07c-4.32-20.54,10.81-76.52,24.86-87.52c14.05-11,32.43-19.15,63.77-9.57
		S725.22,484.85,719.27,504.31z"/>
	<path class="st51" d="M641.4,751.9c0,0-95.58,79.51-216.67,0"/>
	<path class="st52" d="M374.47,643.08c14.46,14.03,60.08,53.01,60.08,53.01l-81.66-27.36l-0.7-4.75c0,0-73.62-50.89-82.89-61.23
		c-9.27-10.34-24.46-56.67-19.27-71.51c5.19-14.84,42.94-48.57,42.94-48.57s-30.69-135.64-1.61-198.78
		c34.97-75.92,123.69-114.45,260.22-114.45c43.16,0,81.18,4.82,113.92,13.58c0.01,0.01,0.02,0.01,0.03,0.01
		c0.01,0.01,0.01,0.01,0.01,0.01s-227.2-13.6-285.03,70.49c-34.22,49.76-7.23,109.63-7.23,109.63s-41.34,17.07-50.98,39.97
		c-9.64,22.89,5.2,79.3,5.2,79.3s-45.78,37.35-48.19,49.39c-2.41,12.05,71.08,51.41,80.11,65.87
		C368.44,612.14,360.01,629.04,374.47,643.08z"/>
	<path class="st52" d="M706.79,832.82l-2.62,20.75c0,0-73.43,73.61-164.42,73.61c-90.99,0-159.97-77.57-159.97-77.57l-25.54-171.86
		l0.03-0.04l12.19,3.48c0,0,16.45,131.31,23.68,146.97c7.23,15.67,104.38,68.68,142.94,71.08
		C571.62,901.68,706.79,832.82,706.79,832.82z"/>
	<path class="st50" d="M831.04,523.63c0,10.35-12.02,71.54-24.06,85.17c-12.05,13.63-78.71,53.78-78.71,53.78l-1.92,15.23
		l-2.31,3.01l2.22-47.81c0,0,56.63-35.33,67.47-50.6c10.84-15.26,15.66-44.29,13.26-65.06c-2.41-20.75-51.81-30.02-51.81-30.02
		s-10.84-55.69-16.86-73.55c-6.03-17.86-40.33-37.42-72.78-43.41c-32.45-6-89.56,19.27-89.56,19.27s6.6-36.65,34.7-49.19
		c41.57-18.54,83.06,0,101.14,0c18.07,0,21.69-50.81,0-92.97c-21.69-42.17-86.74-65.26-86.74-65.26l-2.28-7.92
		c15.11,2.2,29.35,5.11,42.71,8.69c0.01,0.01,0.02,0.01,0.03,0.01C736.33,202,782.4,239.47,802.15,286.7
		c28.89,69.07-4.82,198.38-4.82,198.38S831.04,513.29,831.04,523.63z"/>
	<path class="st50" d="M533.07,431.6c0,19.5,0.27,27.24-3.92,50.36c-4.19,23.12-13.42,74.06-13.42,74.06h35.49L564.44,585
		c0,0,7.61,26.2,22.07,49.22c14.46,23.03,34.9,26.14,63.38,8.86c28.48-17.29,124.26-115.08,76.37-86.06s-77.11,29.36-95.78,27.98
		c-18.67-1.38-58.43-26.68-70.47-59.2c-12.05-32.53-12.05-87.45-13.25-99.73C545.54,413.79,533.07,412.11,533.07,431.6z"/>
	<path class="st49" d="M547.95,548.07c-5.49-13.71-23-12.82-28.51,0s-32.93,64.46-32.93,76.51s14.19,25.94,17.94,28.91
		c3.75,2.97,12.32,6.69,16.6,0c4.28-6.69,5.08-33.93,12.02-33.7s7.79,27.54,11.54,33.7c3.75,6.16,10.94,1.83,14.19,0
		s20.82-10.17,20.82-25.3S551.84,559.64,547.95,548.07z"/>
	<path class="st50" d="M726.34,677.81l-19.55,5.65c0,0-5.83,102.34-14.27,119.85c-8.43,17.51-48.2,31.61-62.05,43.3
		c-13.85,11.69-24.63,32.34-24.63,32.34l100.94-46.13L726.34,677.81z"/>
	<circle class="st53" cx="457.24" cy="487.34" r="21.96"/>
	<circle class="st53" cx="671.84" cy="487.34" r="21.96"/>
</g>
</svg>
