<?xml version="1.0" encoding="utf-8"?>
<!-- Generator: Adobe Illustrator 26.0.3, SVG Export Plug-In . SVG Version: 6.00 Build 0)  -->
<svg version="1.1" id="Слой_1" xmlns="http://www.w3.org/2000/svg" xmlns:xlink="http://www.w3.org/1999/xlink" x="0px" y="0px"
	 viewBox="0 0 1080 1080" style="enable-background:new 0 0 1080 1080;" xml:space="preserve">
<style type="text/css">
	.st0{fill:url(#SVGID_1_);}
	.st1{fill:#FFBE55;}
	.st2{fill:#EA8B00;}
	.st3{fill:#D17200;}
	.st4{fill:#AA6900;}
	.st5{fill:#CC8D00;}
	.st6{fill:#9B5800;}
	.st7{fill:#E2A700;}
	.st8{fill:#FFD400;}
	.st9{fill:#E87400;}
	.st10{fill:#FF9700;}
	.st11{fill:#E5B900;}
	.st12{fill:none;}
	.st13{fill:url(#SVGID_00000106869213481003354500000014260510070179917484_);}
	.st14{fill:url(#SVGID_00000147201170054782575660000016979608858495146882_);}
	.st15{fill:url(#SVGID_00000138538991939053320740000001613332624505093564_);}
	.st16{fill:url(#SVGID_00000035509893595469092430000005433544870760661690_);}
	.st17{fill:url(#SVGID_00000173857803823236716560000004961708131923336858_);}
</style>
<g>
	<linearGradient id="SVGID_1_" gradientUnits="userSpaceOnUse" x1="972.4201" y1="1865.6454" x2="972.4201" y2="-844.3593">
		<stop  offset="0.7029" style="stop-color:#C9FFFF"/>
		<stop  offset="1" style="stop-color:#96F5EB"/>
	</linearGradient>
	<path class="st0" d="M1045.29,135.26V31.56H899.55C946.99,70.47,998.2,110.46,1045.29,135.26z"/>
	<path class="st1" d="M34.71,31.56v15.06c1.3,0.72,2.61,1.43,3.86,2.15C73.17,68.73,155,124.7,253.64,194.03
		C318.98,164.5,405,126.19,440.8,112.77c73.13-27.42,159.98-32,232.35,58.15c27.15,33.81,139.92,184.74,194.77,193.88
		c26.38,4.4,79.52-30.49,153.37-80.63c7.88-5.35,15.93-9.39,24-12.43V135.26c-47.09-24.8-98.3-64.78-145.73-103.69H34.71z"/>
	<path class="st2" d="M867.92,364.8c-54.85-9.14-167.63-160.07-194.77-193.88c-72.37-90.15-159.22-85.57-232.35-58.15
		c-35.8,13.43-121.82,51.73-187.16,81.26c129.71,91.16,288.47,205.41,407.13,291.26c58.19-31.64,172.72-40.7,223.41-11.42
		c34.92,20.16,106.15,63.27,161.11,80.41V271.75c-8.06,3.03-16.12,7.08-24,12.43C947.44,334.31,894.3,369.2,867.92,364.8z"/>
	<path class="st3" d="M658.13,486.71c0.85-0.49,1.76-0.95,2.64-1.43c-118.65-85.85-277.42-200.09-407.13-291.26
		C155,124.7,73.17,68.73,38.58,48.78c-1.26-0.73-2.56-1.44-3.86-2.15v488.01c72.94,18.94,248,74.45,386.48,120.36
		C548.13,563.06,642.08,495.9,658.13,486.71z"/>
	<path class="st4" d="M660.77,485.28c-0.88,0.48-1.79,0.94-2.64,1.43c-16.05,9.19-110,76.34-236.94,168.28
		c62.37,20.68,117.33,39.41,152.16,51.97c114.09,41.14,260.98,157.07,260.98,157.07l0,0.01c63.72-33.86,126.38-63.06,173.26-75.94
		c12.79-3.52,25.33-6.76,37.7-9.81V554.27c-54.96-17.14-126.19-60.25-161.11-80.41C833.49,444.58,718.97,453.64,660.77,485.28z"/>
	<path class="st5" d="M334.72,891.29L334.72,891.29l1.45,0.43c96.96,28.86,197.59,59.45,296.23,90.17
		c53.69-33.61,128.5-78.82,201.94-117.85l0-0.01c0,0-146.89-115.94-260.98-157.07c-34.83-12.56-89.79-31.29-152.16-51.97
		C282.72,609.08,107.65,553.57,34.71,534.63V804.2C125.08,829.68,227.64,859.43,334.72,891.29z"/>
	<path class="st7" d="M834.33,864.05C760.9,903.07,686.09,948.29,632.4,981.9c38.39,11.96,76.47,23.94,113.91,35.84h298.98V778.3
		c-12.36,3.05-24.91,6.29-37.7,9.81C960.72,800.98,898.05,830.18,834.33,864.05z"/>
	<path class="st8" d="M336.17,891.73l31.88,9.51h-0.14l52.86,15.84c0,0-32.84,1.37-112.51,4.73
		c-49.83,2.08-166.59,15.05-273.55,35.03v60.9h711.59c-37.44-11.91-75.52-23.88-113.91-35.84
		C533.77,951.17,433.14,920.59,336.17,891.73z"/>
	<path class="st8" d="M185.37,879.13c52.18,0.03,149.24,12.15,149.36,12.17c-107.08-31.86-209.64-61.61-300.01-87.09v77.43
		C90.81,880.03,142.94,879.12,185.37,879.13z"/>
	<path class="st3" d="M420.77,917.07l-52.86-15.84c0,0-168.6-6.12-222.69-4.97c-14.29,0.3-55.99,2.33-110.51,5.35v55.22
		c106.96-19.98,223.72-32.95,273.55-35.03C387.93,918.45,420.77,917.07,420.77,917.07z"/>
	<path class="st4" d="M145.22,896.27c54.08-1.15,222.69,4.97,222.69,4.97h0.14l-31.88-9.51l-1.45-0.43l-0.01,0
		c-0.11-0.01-97.18-12.13-149.36-12.17c-42.43-0.01-94.55,0.9-150.65,2.5v19.98C89.23,898.59,130.93,896.57,145.22,896.27z"/>
</g>
</svg>
