<?xml version="1.0" encoding="utf-8"?>
<!-- Generator: Adobe Illustrator 26.0.3, SVG Export Plug-In . SVG Version: 6.00 Build 0)  -->
<svg version="1.1" id="Слой_1" xmlns="http://www.w3.org/2000/svg" xmlns:xlink="http://www.w3.org/1999/xlink" x="0px" y="0px"
	 viewBox="0 0 1080 1080" style="enable-background:new 0 0 1080 1080;" xml:space="preserve">
<style type="text/css">
	.st0{fill:url(#SVGID_1_);}
	.st1{fill:#B7004B;}
	.st2{fill:#E6007E;}
	.st3{fill:#99003B;}
	.st4{fill:#CC0062;}
	.st5{fill:#FF2CAF;}
	.st6{fill:#00E7FF;}
	.st7{fill:#00BDFF;}
	.st8{fill:#0096F2;}
	.st9{fill:#6CF8FF;}
	.st10{fill:none;}
	.st11{fill:url(#SVGID_00000170969254370242777820000010465513495579130761_);}
	.st12{fill:url(#SVGID_00000100368957204677176360000004726123244346250939_);}
	.st13{fill:url(#SVGID_00000020376109795760106740000011798263633692186802_);}
	.st14{fill:url(#SVGID_00000013912845698911725350000011021376679778025376_);}
	.st15{fill:url(#SVGID_00000124878515061979503950000012279453471092321200_);}
	.st16{fill:url(#SVGID_00000088811980185658899740000011328200934040027583_);}
	.st17{fill:url(#SVGID_00000096032583480498555500000017200069004092084382_);}
	.st18{fill:url(#SVGID_00000037667400791684759260000015147295580179014290_);}
	.st19{fill:url(#SVGID_00000111885913489753056380000009132627730500801449_);}
	.st20{fill:url(#SVGID_00000109745813519043651360000011504118876922794129_);}
	.st21{fill:url(#SVGID_00000106826553325637487100000017019865732566368151_);}
	.st22{fill:url(#SVGID_00000041288929421941431100000012771792860956786592_);}
</style>
<g>
	<path class="st10" d="M905.5,955.5c-1.07-0.02-2.16-0.04-3.21-0.07c-0.1,0-0.2-0.01-0.3-0.01c-6.52-0.19-12.67-0.49-18.39-0.94
		c-4.9-0.38-9.89-0.78-14.94-1.19c-0.81-0.07-1.62-0.13-2.43-0.2c-4.88-0.41-9.82-0.84-14.81-1.3c-0.76-0.07-1.51-0.14-2.26-0.21
		c-5.26-0.49-10.59-1.01-15.95-1.57c-0.32-0.03-0.65-0.07-0.97-0.1c-50.68-5.28-105.45-13.76-155.78-30.06c0,0,0,0,0,0
		c-10.24-3.32-20.29-6.96-30.09-10.96c-0.12-0.05-0.24-0.1-0.35-0.14c-3.23-1.32-6.44-2.69-9.61-4.09c-0.01,0-0.01-0.01-0.02-0.01
		c-6.33-2.8-12.54-5.77-18.6-8.91c-0.21-0.11-0.42-0.22-0.64-0.33c-2.98-1.55-5.92-3.13-8.82-4.77c-0.04-0.02-0.08-0.05-0.12-0.07
		c-2.98-1.68-5.93-3.41-8.83-5.18c0,0,0,0,0,0c-2.79-1.7-5.53-3.45-8.23-5.24c-0.28-0.18-0.56-0.37-0.84-0.56
		c-2.68-1.79-5.33-3.62-7.93-5.5c-0.05-0.04-0.1-0.08-0.16-0.11c-2.6-1.88-5.15-3.81-7.66-5.79c-0.16-0.13-0.32-0.25-0.48-0.38
		c-2.44-1.93-4.84-3.91-7.19-5.94c-0.32-0.27-0.64-0.55-0.95-0.83c-2.36-2.05-4.68-4.14-6.95-6.28c-0.05-0.05-0.1-0.1-0.16-0.15
		c-2.23-2.11-4.4-4.28-6.53-6.48c-0.25-0.26-0.51-0.52-0.76-0.78c-2.08-2.18-4.11-4.41-6.1-6.68c-0.33-0.37-0.65-0.75-0.97-1.12
		c-2-2.33-3.97-4.69-5.87-7.12c-0.04-0.05-0.07-0.1-0.11-0.14c-1.85-2.37-3.64-4.81-5.39-7.28c-0.29-0.41-0.59-0.82-0.88-1.23
		c-1.7-2.44-3.34-4.93-4.94-7.46c-0.3-0.48-0.6-0.96-0.89-1.45c-1.62-2.63-3.21-5.29-4.71-8.03c-2.36-4.28-4.66-8.54-6.93-12.78
		h-8.13c-148.44,0-268.77-120.33-268.77-268.77v495.73h806.72c-22.47-0.23-45.78-3.29-68.88-10.99
		C946.96,1000.47,923.35,981.83,905.5,955.5z"/>
	<path class="st10" d="M1050.4,1021.03h0.1v0C1050.47,1021.03,1050.43,1021.03,1050.4,1021.03z"/>
	<linearGradient id="SVGID_1_" gradientUnits="userSpaceOnUse" x1="398.4048" y1="755.4299" x2="379.0166" y2="-1546.9105">
		<stop  offset="0" style="stop-color:#6DE5FF"/>
		<stop  offset="0.0213" style="stop-color:#73E6FF"/>
		<stop  offset="0.2427" style="stop-color:#B0EDFF"/>
		<stop  offset="0.4052" style="stop-color:#D6F2FF"/>
		<stop  offset="0.4904" style="stop-color:#E5F4FF"/>
		<stop  offset="0.5935" style="stop-color:#E8EAFA"/>
		<stop  offset="0.7712" style="stop-color:#F1CEEC"/>
		<stop  offset="1" style="stop-color:#FFA1D5"/>
	</linearGradient>
	<path class="st0" d="M506.6,794.07h8.13c-59.89-112.32-86.6-216.36-40.7-482.51c14.21-82.42,43.26-176.28,77.03-267.43H237.83
		V525.3C237.83,673.73,358.16,794.07,506.6,794.07z"/>
	<path class="st2" d="M551.52,847.36c-2.08-2.18-4.11-4.41-6.1-6.68C547.41,842.95,549.44,845.18,551.52,847.36z"/>
	<path class="st2" d="M558.8,854.62c-2.23-2.11-4.4-4.28-6.53-6.48C554.41,850.34,556.58,852.51,558.8,854.62z"/>
	<path class="st2" d="M544.45,839.56c-2-2.33-3.97-4.69-5.87-7.12C540.48,834.87,542.45,837.23,544.45,839.56z"/>
	<path class="st2" d="M565.9,861.05c-2.36-2.05-4.68-4.14-6.95-6.28C561.22,856.91,563.54,859,565.9,861.05z"/>
	<path class="st2" d="M532.2,823.78c-1.7-2.44-3.34-4.93-4.94-7.46C528.86,818.86,530.5,821.35,532.2,823.78z"/>
	<path class="st2" d="M538.47,832.3c-1.85-2.37-3.64-4.81-5.39-7.28C534.83,827.49,536.62,829.92,538.47,832.3z"/>
	<path class="st2" d="M526.37,814.88c-1.62-2.63-3.21-5.29-4.71-8.03C523.17,809.58,524.75,812.25,526.37,814.88z"/>
	<path class="st2" d="M676.45,919.85c50.33,16.3,105.09,24.79,155.78,30.06c-5.71-0.6-11.46-1.23-17.26-1.91
		C769.27,942.62,721.11,934.31,676.45,919.85z"/>
	<path class="st2" d="M902.29,955.43c-0.1,0-0.2-0.01-0.3-0.01C902.09,955.42,902.19,955.43,902.29,955.43z"/>
	<path class="st2" d="M574.05,867.81c-2.44-1.93-4.84-3.91-7.19-5.94C569.21,863.9,571.6,865.88,574.05,867.81z"/>
	<path class="st2" d="M849.15,951.58c-5.27-0.49-10.58-1.01-15.95-1.57C838.57,950.57,843.89,951.09,849.15,951.58z"/>
	<path class="st2" d="M676.44,919.85c-10.24-3.32-20.29-6.96-30.09-10.96C656.15,912.89,666.2,916.53,676.44,919.85z"/>
	<path class="st2" d="M636.37,904.64c-6.33-2.8-12.54-5.77-18.6-8.91C623.83,898.87,630.04,901.84,636.37,904.64z"/>
	<path class="st2" d="M646,908.74c-3.23-1.32-6.44-2.69-9.61-4.09C639.56,906.05,642.77,907.42,646,908.74z"/>
	<path class="st2" d="M866.23,953.09c-4.88-0.41-9.82-0.84-14.81-1.3C856.41,952.24,861.35,952.68,866.23,953.09z"/>
	<path class="st2" d="M883.6,954.48c-4.9-0.38-9.89-0.78-14.94-1.19C873.71,953.71,878.7,954.1,883.6,954.48z"/>
	<path class="st2" d="M599.35,885.38c-2.79-1.7-5.53-3.45-8.23-5.24C593.83,881.93,596.57,883.68,599.35,885.38z"/>
	<path class="st2" d="M608.19,890.56c-2.98-1.68-5.93-3.41-8.83-5.18C602.26,887.16,605.2,888.88,608.19,890.56z"/>
	<path class="st2" d="M582.19,873.97c-2.6-1.88-5.15-3.81-7.66-5.79C577.04,870.16,579.59,872.09,582.19,873.97z"/>
	<path class="st2" d="M590.28,879.58c-2.68-1.79-5.33-3.62-7.93-5.5C584.95,875.97,587.6,877.79,590.28,879.58z"/>
	<path class="st2" d="M617.13,895.4c-2.98-1.55-5.92-3.13-8.82-4.77C611.21,892.27,614.16,893.85,617.13,895.4z"/>
	<path class="st2" d="M935.98,273.46c8.33,45.24,13.85,76.64,6.7,103.58c-7.9,29.76-32.9,55.96-73.38,67.86
		c-28.17,8.28-82.84-0.17-127.14-26.52l-2.86,40.82c-0.08,14.42,0.37,25.78,1.43,33.34c9.83,70.32,52.96,154.3,100.35,192.42h0.03
		c6.11,4.93,12.27,9.08,18.46,12.35c5.14,2.71,10.94,5.59,17.27,8.59c7.38-27.71,18.04-51.02,30.57-70.5
		c27.93-43.45,77.12-82.34,143.09-94.44V386.3c-28.42-6.27-49.74-36.96-37.13-74.74c8.5-25.48,21.68-43.77,37.13-59.63V44.13H886.4
		c0.25,14.93,0.84,28.3,1.96,38.83C893.12,127.98,927.65,228.21,935.98,273.46z"/>
	<path class="st1" d="M514.74,794.07c2.26,4.25,4.57,8.5,6.93,12.78c1.51,2.73,3.09,5.4,4.71,8.03c0.3,0.48,0.59,0.97,0.89,1.45
		c1.59,2.53,3.24,5.02,4.94,7.46c0.29,0.41,0.59,0.82,0.88,1.23c1.75,2.47,3.54,4.91,5.39,7.28c0.04,0.05,0.07,0.1,0.11,0.14
		c1.9,2.43,3.87,4.79,5.87,7.12c0.32,0.37,0.64,0.75,0.97,1.12c1.98,2.27,4.01,4.5,6.1,6.68c0.25,0.26,0.51,0.52,0.76,0.78
		c2.13,2.2,4.3,4.37,6.53,6.48c0.05,0.05,0.1,0.1,0.16,0.15c2.26,2.14,4.59,4.23,6.95,6.28c0.32,0.28,0.63,0.55,0.95,0.83
		c2.35,2.02,4.75,4,7.19,5.94c0.16,0.13,0.32,0.25,0.48,0.38c2.51,1.97,5.06,3.91,7.66,5.79c0.05,0.04,0.1,0.08,0.16,0.11
		c2.6,1.88,5.25,3.71,7.93,5.5c0.28,0.19,0.56,0.37,0.84,0.56c2.71,1.79,5.45,3.54,8.23,5.24c0,0,0,0,0,0
		c2.9,1.77,5.85,3.5,8.83,5.18c0.04,0.02,0.08,0.05,0.12,0.07c2.9,1.63,5.85,3.22,8.82,4.77c0.21,0.11,0.42,0.22,0.64,0.33
		c6.07,3.14,12.27,6.11,18.6,8.91c0.01,0,0.01,0.01,0.02,0.01c3.17,1.4,6.38,2.77,9.61,4.09c0.12,0.05,0.24,0.1,0.35,0.14
		c9.8,4,19.85,7.64,30.09,10.96c0,0,0,0,0,0c44.66,14.47,92.83,22.77,138.52,28.15c-4.98-9.8-20.06-40.26-22.93-55.43
		c-3.46-18.27-10.82-85.72,0-128.58c10.85-42.86,49.05-79.03,49.05-79.03c-47.39-38.12-90.52-122.1-100.35-192.42
		c-1.06-7.56-1.5-18.92-1.43-33.34l0,0.03c0,0-43.83,8.29-84.31-26.56c-40.48-34.86-58.34-71.11-66.67-111.59
		c-5.62-27.3-11.91-68.2,0-127.39c11.91-59.19,36.91-108.34,49.77-136.92c1.35-2.99,3.42-7.31,6.07-12.64h-93.1
		c-33.77,91.14-62.82,185.01-77.03,267.43C428.14,577.71,454.85,681.75,514.74,794.07z"/>
	<path class="st3" d="M841.11,684.96h-0.03c0,0-38.2,36.16-49.05,79.03c-10.82,42.86-3.46,110.32,0,128.58
		c2.87,15.16,17.95,45.62,22.93,55.43c5.8,0.68,11.55,1.32,17.26,1.91c0.33,0.03,0.65,0.07,0.97,0.1
		c5.37,0.56,10.69,1.08,15.95,1.57c0.76,0.07,1.51,0.14,2.26,0.21c4.99,0.46,9.94,0.89,14.81,1.3c0.82,0.07,1.62,0.13,2.43,0.2
		c5.04,0.42,10.04,0.82,14.94,1.19c5.72,0.44,11.87,0.75,18.39,0.94c0.1,0,0.2,0.01,0.3,0.01c1.05,0.03,2.14,0.05,3.21,0.07
		c-20.65-30.44-33.59-71.16-37.77-120.08c-4.38-51.24-0.33-94,9.12-129.52c-6.34-2.99-12.13-5.88-17.27-8.59
		C853.38,694.04,847.22,689.89,841.11,684.96z"/>
	<path class="st1" d="M1050.5,540.96c-65.97,12.1-115.15,50.99-143.09,94.44c-12.52,19.48-23.19,42.79-30.57,70.5
		c-9.45,35.52-13.5,78.28-9.12,129.52c4.18,48.92,17.13,89.64,37.77,120.08c17.85,26.33,41.46,44.97,70.17,54.54
		c23.1,7.7,46.41,10.75,68.88,10.99h5.85c0.03,0,0.07,0,0.1,0V540.96z"/>
	<path class="st3" d="M588.33,193.69c-11.91,59.19-5.62,100.1,0,127.39c8.33,40.48,26.19,76.73,66.67,111.59
		c40.48,34.86,84.31,26.56,84.31,26.56l0-0.03l2.86-40.82c-19.37-11.52-36.76-26.44-49.07-44.91
		c-40.48-60.72-73.82-150.39-42.86-245.26c8.29-25.4,19.31-54.52,31.27-84.07h-37.35c-2.64,5.33-4.72,9.65-6.07,12.64
		C625.24,85.34,600.23,134.49,588.33,193.69z"/>
	<path class="st4" d="M693.1,373.47c12.31,18.47,29.71,33.39,49.07,44.91c44.3,26.35,98.97,34.81,127.14,26.52
		c40.48-11.91,65.48-38.1,73.38-67.86c7.15-26.94,1.63-58.34-6.7-103.58c-8.33-45.24-42.86-145.48-47.62-190.5
		c-1.11-10.53-1.7-23.91-1.96-38.83H681.51c-11.97,29.56-22.98,58.68-31.27,84.07C619.28,223.08,652.62,312.75,693.1,373.47z"/>
	<path class="st5" d="M1050.5,386.3V251.92c-15.46,15.86-28.64,34.15-37.13,59.63C1000.76,349.34,1022.08,380.03,1050.5,386.3z"/>
</g>
</svg>
