<?xml version="1.0" encoding="utf-8"?>
<!-- Generator: Adobe Illustrator 26.0.3, SVG Export Plug-In . SVG Version: 6.00 Build 0)  -->
<svg version="1.1" id="Слой_1" xmlns="http://www.w3.org/2000/svg" xmlns:xlink="http://www.w3.org/1999/xlink" x="0px" y="0px"
	 viewBox="0 0 1080 1080" style="enable-background:new 0 0 1080 1080;" xml:space="preserve">
<style type="text/css">
	.st0{fill:#FFEFAE;}
	.st1{fill:#FFD731;}
	.st2{fill:#005318;}
	.st3{fill:#002716;}
	.st4{fill:#FFDF69;}
	.st5{fill:#1EEF00;}
	.st6{fill:#00B700;}
	.st7{fill:#A4FF5C;}
	.st8{fill:#E7FFAB;}
	.st9{fill:#726D00;}
	.st10{fill:#FFEA8C;}
	.st11{fill:#FFFDE0;}
	.st12{fill:#FFEE1E;}
	.st13{fill:#FFF16E;}
	.st14{fill:#FFF5CC;}
	.st15{fill:#FFA91F;}
	.st16{fill:#FFCB4A;}
	.st17{fill:#FFEB97;}
	.st18{fill:#FF9017;}
	.st19{fill:#EA6F00;}
	.st20{fill:#A000E2;}
	.st21{fill:#BF36FF;}
	.st22{fill:#DCA1FF;}
	.st23{fill:#006D1C;}
	.st24{fill:#008C1E;}
	.st25{fill:url(#SVGID_1_);}
	.st26{fill:#FF9E78;}
	.st27{fill:#FF855F;}
	.st28{fill:#086B00;}
	.st29{fill:#FFBDA6;}
	.st30{fill:#688E00;}
	.st31{fill:#FF8D73;}
	.st32{fill:#FF6D00;}
	.st33{fill:#FF7F29;}
	.st34{fill:#6CC900;}
	.st35{fill:#599E00;}
	.st36{fill:#8AE200;}
	.st37{fill:#616800;}
	.st38{fill:#CC4400;}
	.st39{fill:#CE0000;}
	.st40{fill:#FFAA88;}
	.st41{fill:#F72300;}
	.st42{fill:#FF3600;}
	.st43{fill:#DD0000;}
	.st44{fill:#FF5C36;}
	.st45{fill:#FF8269;}
	.st46{fill:#8C004D;}
	.st47{fill:#399B00;}
	.st48{fill:#2B7C00;}
	.st49{fill:#5EBF00;}
	.st50{fill:#B2006A;}
	.st51{fill:#FF6ED3;}
	.st52{fill:#7CDB00;}
	.st53{fill:#86D300;}
	.st54{fill:#5DB500;}
</style>
<g>
	<path class="st32" d="M860.89,171.59c0,0-58.25,131.63-109.54,245.53c-1.08,2.4-2.15,4.79-3.22,7.17
		c-26.83,59.52-51.35,113.25-64.04,139.43c-1.79,3.69-3.35,6.83-4.63,9.36c-2.06,4.03-3.46,6.52-4.09,7.23
		c-32.5,36.7-67.53,36.61-85.76,36.7c-24.26,0.1-40.94-16.69-47.51-33.37c-3.68-9.35-9.41-26.66-9.15-46.19
		c0.15-10.95,2.19-22.6,7.53-33.93c1.1-2.34,8.84-13.08,21.06-29.47c6.64-8.91,14.61-19.49,23.56-31.29
		c1.92-2.54,3.89-5.14,5.91-7.79c43.86-57.74,107.59-140.38,155.5-202.32l5.49-7.11c29.48-38.09,52.07-67.21,58.78-75.86l0.28-0.36
		l0.07-0.09c1.12-1.43,1.7-2.18,1.7-2.18s1.58-2.29,4.39-5.17l0.01-0.02c0,0,0,0,0.01-0.01c6.5-6.68,19.5-16.47,34.55-8.54
		C873.41,144.68,860.89,171.59,860.89,171.59z"/>
	<path class="st33" d="M840.6,159.07c-2.5,4.61-36.63,69.58-73.39,139.06c-1.18,2.22-2.35,4.44-3.53,6.66
		c-15.66,29.57-31.63,59.64-45.69,85.93c-1.17,2.19-2.33,4.35-3.47,6.49c-2.73,5.09-5.37,10.01-7.92,14.74
		c-1.14,2.13-2.27,4.22-3.36,6.26c-15.55,28.84-26.77,49.19-29.26,52.52c-9.98,13.39-21.75,26.6-34.11,32.98
		c-14.69,7.57-37.94,9.19-46.02,7.07c-8.1-2.12-28.46-11.86-32.18-25.26c-0.99-3.58-0.89-7.52-0.13-11.47
		c6.64-8.91,14.61-19.49,23.56-31.29c1.92-2.54,3.89-5.14,5.91-7.79c43.86-57.74,107.59-140.38,155.5-202.32l5.49-7.11
		c29.48-38.09,52.07-67.21,58.78-75.86l0.28-0.36l0.07-0.09l6.09-7.35l0.01-0.02c0,0,0,0,0.01-0.01c0.54-0.25,13.5-6.39,19.07,0.01
		C842,148.4,842.8,155.03,840.6,159.07z"/>
</g>
<g>
	<path class="st34" d="M576.11,599.67l-0.29,0.43l-0.81,1.23c-0.34,0.51-0.71,1.07-1.1,1.68l-0.7,1.08
		c-9.76,15.15-32.65,52.66-34.43,61.58c-1.89,9.44-1.72,23.76,1.22,37.11c1.9,8.61,6.95,23.15,10.41,36.44
		c0.34,1.3,0.66,2.58,0.96,3.84c1.4,5.86,2.39,11.32,2.52,15.72c0.4,13.63-6.43,37.74-7.77,42.34c-0.15,0.5-0.23,0.77-0.23,0.77
		s-0.58-1.59-1.48-4.08c-2.39-6.55-7.02-19.3-9.19-25.25c-2.98-8.21-10.66-13.78-10.66-13.78l0.01,0.03
		c0.47,1.25,15.43,41.49,15.43,53.3c0,12-7.44,32.45-17.22,41.78c-0.27,0.26-0.66,0.61-1.13,1.02c-2.54,2.17-5.63,4.07-8.85,5.71
		c-2.03,1.03-4.11,1.96-6.12,2.77c-7.53,3.06-14.17,4.62-14.17,4.62s5.82-10.57,7.16-17.68c1.33-7.11,0-10.66,0-10.66l-0.02,0.05
		c-0.99,2.05-32.92,67.75-63.98,83.5c-12.27,6.22-25.54,10.08-38.28,11.99c0,0,0.96-1.14,2.34-2.97c0.01-0.02,0.02-0.03,0.02-0.03
		c3.02-4.01,8.03-11.3,9.25-16.99c0.52-2.41,0.73-5.38,0.78-8.37v-0.02c0.11-7.02-0.72-14.19-0.78-14.69v-0.01c0-0.01,0-0.02,0-0.02
		s-0.03,0.06-0.08,0.18l-0.23,0.48l-0.54,1.08l-0.39,0.77l-0.11,0.22c-1.53,2.89-4.38,7.81-8.72,13.57
		c-6.95,9.21-13.93,23.7-30.82,25.48c-9.18,1.32-17.27-1.03-20.89-2.67c-3.89-1.76-7.55-7.11-9.33-13.03
		c-1.78-5.93-1.78-17.19-1.78-17.19l-5.38,13.84c-2.89-4.5-5.55-4.4-7.79-14.75c-2.08-9.63,5.73-40.56,6.82-44.82
		c0.07-0.26,0.11-0.42,0.12-0.47c-0.1,0.15-0.67,1.02-1.56,2.39c-2.72,4.18-8.44,13.06-12.87,20.5c-0.58-2.51-1.04-4.93-1.37-7.2
		c-0.42-2.82-0.64-5.42-0.64-7.71c0-8.45,1.42-22.73,3.85-37.36c3.06-18.48,7.74-37.52,13.19-46.05c3.32-5.2,10.3-13.03,23.85-18.96
		c10.02-4.39,28-7.85,28-7.85s-1.24-0.11-3.18-0.21h-0.07c-0.53-0.03-1.11-0.05-1.73-0.08h-0.01c-3.63-0.15-8.6-0.21-12.78,0.29
		c-1.23,0.14-2.63,0.39-4.17,0.72h-0.05c-7.93,1.7-19.13,5.59-24.85,8.96c0,0-0.1-2.18,0.67-5.43c0.47-2,1.27-4.39,2.62-6.92
		c0.84-1.58,1.78-3.44,3-5.51c3.92-6.66,10.72-15.36,26.33-22.94c6.02-2.92,22.2-8.88,29.33-10.22c6.92-1.3,33.26-5.59,34.9-5.86
		l0.08-0.01c0,0-1.94-0.68-4.94-1.45c-4.04-1.02-10.03-2.18-15.81-2.01c-9.73,0.29-21.8,1.81-35.02,4.99h-0.01
		c-0.47,0.11-0.94,0.22-1.42,0.34c0,0,0.3-3.85,11.56-8.89c11.26-5.03,19-7.26,25.78-8.89c0.91-0.22,2.15-0.52,3.66-0.88
		c14.76-3.55,55.42-13.32,66.56-16c12.28-2.96,22.66-12,30.86-19.34c7.01-6.27,40.84-55.33,47.31-65.11c1.9-0.72,3.7-1.08,5.38-1.12
		c4.78-0.12,8.46,2.31,9.78,6.07C576.79,594.97,576.84,597.23,576.11,599.67z"/>
</g>
<path class="st35" d="M546.53,746.36c0,0-11.73-38.25-13.59-43.58s-7.79-36.44-6.31-41.48s42.07-68.24,42.07-68.24s5.33-4.24,7.41,0
	s0,6.61,0,6.61l-0.29,0.43l-2.61,3.99c-9.76,15.15-32.65,52.66-34.43,61.58c-1.89,9.44-1.72,23.76,1.22,37.11
	c1.9,8.61,6.95,23.15,10.41,36.44"/>
<path class="st35" d="M540,812.11c0,12-7.44,32.45-17.22,41.78c-0.27,0.26-0.66,0.61-1.13,1.02c-2.54,2.17-5.63,4.07-8.85,5.71
	c-2.03,1.03-4.11,1.96-6.12,2.77c0,0,8.56-10.38,10.66-15.72s5.4-28.21,5.53-35.55c0.13-7.34-11.56-28.74-11.05-34.37
	c0.51-5.64,12.74-18.97,12.74-18.97l0.01,0.03C525.04,760.06,540,800.3,540,812.11z"/>
<path class="st35" d="M499.67,830.19v9.48l-0.02,0.05c-0.99,2.05-32.92,67.75-63.98,83.5c-12.27,6.22-38.28,11.99-38.28,11.99
	s0.96-1.14,2.34-2.97c0.01-0.02,0.02-0.03,0.02-0.03s21.62-9.59,30.88-15.51s47.41-56.08,47.41-56.08L499.67,830.19z"/>
<path class="st35" d="M551.37,743.06c1.4,5.86,2.39,11.32,2.52,15.72c0.4,13.63-6.43,37.74-7.77,42.34l-1.71-3.31
	c0,0,4.67-29.29,3.55-39.03s-3.55-30.93-3.55-30.93l6,11.37"/>
<path class="st35" d="M453.15,851.52c-1.71,7.04-18.37,39.7-18.37,39.7s-0.55-21.95-3.56-24.89c-3.01-2.94-8.29-2.96-8.29-2.96
	s1.26,12.15,0,17.78c-1.26,5.63-13.15,25.7-13.15,25.7v-0.02c0.11-7.02-0.72-14.19-0.78-14.69l-0.08,0.15l-0.23,0.48l-0.54,1.08
	l-0.39,0.77l-0.11,0.22c-1.53,2.89-4.38,7.81-8.72,13.57c-6.95,9.21-13.93,23.7-30.82,25.48c-9.18,1.32-17.27-1.03-20.89-2.67
	c-3.89-1.76-7.55-7.11-9.33-13.03c0,0,4.67,2.13,9.78,3.25c5.11,1.12,18.15-0.52,22.52-2.37c4.37-1.85,19.92-16.95,22.28-20.74
	c2.36-3.79,12.97-20.58,13.86-24.29c0.87-3.61-1.08-12.92-1.17-13.4l8.28,16.36c0,0,1.94-5.35,2.97-9.48
	c1.03-4.13-0.6-19.56-0.6-19.56s5.19,0.01,8.3,2.97c3.11,2.96,5.33,9.69,5.33,9.69s1.56-6.81,1.78-10.88s-2.37-10.67-2.37-10.67
	s6.37,1.71,7.26,5.34c8.93-6.3,13.48-18.97,13.48-18.97C450.78,827.81,454.86,844.48,453.15,851.52z"/>
<path class="st35" d="M392.47,751.37l-9.95,1.19l-3.89-0.23c-3.63-0.19-9.18-0.35-14.07,0.23c-7.56,0.88-22.23,5.65-29.07,9.68
	l0.67-5.43c0,0,18.61-12.13,24.54-13.75s20.24-2.38,25.49,0S392.47,751.37,392.47,751.37z"/>
<path class="st35" d="M342.93,871.67c-2.67,3.11-6.56,11.64-6.56,11.64l-6.47,11.47l5.6-3.56c0,0-4.27,6.37-5.6,11.85
	c-1.33,5.48,0.84,11.77,0.84,11.77l5.38-13.84l14.52-34.67C350.63,866.33,345.59,868.56,342.93,871.67z"/>
<path class="st35" d="M337.89,844.41l-8.13,10.86l-1.44,1.92c-2.72,4.18-8.44,13.06-12.87,20.5c-0.58-2.51-1.04-4.93-1.37-7.2
	c0,0,6.46-16.6,11.58-21.34S337.89,844.41,337.89,844.41z"/>
<path class="st35" d="M440.7,702.78l-8.28,2.57c0,0-10.68-3.76-20.75-3.46c-9.73,0.29-21.8,1.81-35.02,4.99c0,0,0.13-1.36,3.13-3.25
	c3-1.89,21.6-8.85,27.74-9.74s21.99-1.78,26.07,0S440.7,702.78,440.7,702.78z"/>
<path class="st35" d="M386.78,793.44c0,0-9.48-1.78-14.81,0c-5.33,1.78-25.48,16.25-25.48,16.25s14.85-1.39,17.5,0
	s2.65,1.75,2.65,3.3c0,0-4.44,0.81-7.7,2.96c-3.26,2.15-8.3,9.48-8.3,9.48s6.8-3.11,10.07-3.56c3.28-0.44,8.89,3.56,8.89,3.56
	l17.19-15.75c0,0-9.11-5.96-12.44-6.77c-3.33-0.81-7.7-0.59-7.7-0.59C374.78,793.89,386.78,793.44,386.78,793.44z"/>
<path class="st36" d="M566.33,586.99l-33.39,50.9l-26.26,30.88l-13.24,14.45l-32.88,5.34h-44.34c14.76-3.55,55.42-13.32,66.56-16
	c12.28-2.96,22.66-12,30.86-19.34c7.01-6.27,40.84-55.33,47.31-65.11L566.33,586.99z"/>
<path class="st36" d="M440.7,702.78c0,0,12.96-3.82,20.74-2.91s19.56,7.01,19.56,7.01l-27.44,16.05l-22.34,11.26
	c0,0-0.89-3.92,0-8.89s4.15-8.27,4.15-8.27s-21.03,3.61-26.7,5.9s-12.94,7.7-12.94,7.7c-0.78,0.99-3.74-3.21-3.26-9.48
	c0,0-11.3,3.23-18.14,6.7s-32.55,16.53-32.55,16.53c3.92-6.66,10.72-15.36,26.33-22.94c6.02-2.92,22.2-8.88,29.33-10.22
	c6.92-1.3,33.26-5.59,34.9-5.86l0.08-0.01"/>
<path class="st36" d="M392.47,751.37l27.49,0.52c0,0-33.18,12.92-39.85,17.67s-10.52,10.85-10.52,10.85s-1.66-0.6-2.57-3.56
	s0-7.7,0-7.7s-10.8,9.29-16.46,16.52c-2.69,3.43-10.52,15.45-10.52,15.45s-1.26-0.9-2.15-4.12s0-8.59,0-8.59l-8.43,15.7
	l-12.17,21.31c3.06-18.48,7.74-37.52,13.19-46.05c3.32-5.2,10.3-13.03,23.85-18.96c10.02-4.39,28-7.85,28-7.85"/>
<path class="st36" d="M448.53,767.96c-5.42-0.74-11.46,0.22-16.72,2.96c-5.26,2.74-18.96,17.48-18.96,17.48s12.64-0.82,17.84,0
	c5.2,0.82,10.01,4.25,10.01,4.25s-10.85,4.14-14.22,8.47s-6.52,13.66-6.52,13.66s14.99-12.76,20.74-13.66s12.86,2.4,12.86,2.4
	s-7.04,0.8-8.52,5.53s0,8.1,0,8.1s5.18-5.2,11.07-6.06s14.81,6.06,14.81,6.06l17.19-16.03c0,0-13.03-7.35-17.78-8.47
	c-12.11-2.1-16.77,2.57-16.77,2.57s-0.19-8.56,3.73-12.44c3.93-3.89,13.63-4.15,13.63-4.15S453.95,768.7,448.53,767.96z"/>
<path class="st36" d="M392.47,838.78c0,0-19.43,3.15-25.45,5.63s-8.91,4.59-12.24,9.48c-3.33,4.89-4.15,12.44-4.15,12.44
	s3.15-3.62,5.81-5.28c2.67-1.67,3.78-2.72,6.89-2.88c2.91-0.15,5.29,1.5,5.29,1.5s-13.85,11.6-18,18.02
	c-4.15,6.42-4.15,12.9-4.15,12.9s14.01-9.76,20.54-12.9s19.76-4.25,19.76-4.25s-4.44-7.79-6.22-12.39
	c-1.78-4.61-11.08-8.05-11.08-8.05L392.47,838.78z"/>
<path class="st38" d="M620.59,447.99c-10.59-4.9-23.67-6.03-35.49-5.23c1.92-2.54,3.89-5.14,5.91-7.79
	c10.83-0.22,22.75,1.71,34.69,7.21C631.56,444.88,629.89,452.28,620.59,447.99z"/>
<path class="st38" d="M751.35,417.12c-9.52-13.09-21.7-21.45-33.36-26.4c-2.79-1.18-5.56-2.16-8.25-2.97
	c-5.53-1.67-9.02,3.9-2.43,6.4c2.34,0.89,4.76,1.91,7.21,3.06c11.4,5.33,23.33,13.39,30.51,23.76c1.07,1.55,2.13,2.63,3.1,3.32
	L751.35,417.12z"/>
<path class="st38" d="M666.26,401.85c13.3,2.56,29.59,8.62,39.86,19.03c6.86,6.96,10.84,0.91,6.52-3.46
	c-14-14.16-30.94-20.29-45.14-21.99C662.02,394.77,659.66,400.58,666.26,401.85z"/>
<ellipse transform="matrix(0.5847 -0.8112 0.8112 0.5847 131.415 723.2755)" class="st40" cx="772.16" cy="233.28" rx="34.67" ry="5.78"/>
<path class="st38" d="M752,225.54c8.7,1.06,17.85,3.64,26.9,8.37c5.72,2.99,3.68,10.3-5.39,5.54c-7.99-4.19-17.58-6.2-27-6.8
	L752,225.54z"/>
<path class="st38" d="M738.74,297.12c13.99,2.41,31.18,8.42,42.15,19.13c7.33,7.16,11.38,0.74,6.76-3.76
	c-14.96-14.55-32.84-20.62-47.74-22.12C734.16,289.8,731.81,295.93,738.74,297.12z"/>
<path class="st38" d="M684.09,563.72c-15.03-23.03-36.17-36.3-54.95-42.87c-7.4-2.59-12.45,4.74-3.68,8.53
	c17.68,7.64,38.44,21.03,49.49,38.64c1.54,2.46,3.08,4.09,4.51,5.06L684.09,563.72z"/>
<ellipse transform="matrix(0.5847 -0.8112 0.8112 0.5847 -11.9489 697.5184)" class="st40" cx="675.32" cy="360.43" rx="78.61" ry="5.78"/>
</svg>
