<?xml version="1.0" encoding="utf-8"?>
<!-- Generator: Adobe Illustrator 26.0.3, SVG Export Plug-In . SVG Version: 6.00 Build 0)  -->
<svg version="1.1" id="Слой_1" xmlns="http://www.w3.org/2000/svg" xmlns:xlink="http://www.w3.org/1999/xlink" x="0px" y="0px"
	 viewBox="0 0 1080 1080" style="enable-background:new 0 0 1080 1080;" xml:space="preserve">
<style type="text/css">
	.st0{fill:url(#SVGID_1_);}
	.st1{fill:#FFBE55;}
	.st2{fill:#EA8B00;}
	.st3{fill:#D17200;}
	.st4{fill:#AA6900;}
	.st5{fill:#CC8D00;}
	.st6{fill:#9B5800;}
	.st7{fill:#E2A700;}
	.st8{fill:#FFD400;}
	.st9{fill:#E87400;}
	.st10{fill:#FF9700;}
	.st11{fill:#E5B900;}
	.st12{fill:none;}
	.st13{fill:url(#SVGID_00000179645704125682280750000017480541337678817720_);}
	.st14{fill:url(#SVGID_00000083055634470516143980000018286510706675243912_);}
	.st15{fill:url(#SVGID_00000138566452008446586700000004666396985744165041_);}
	.st16{fill:url(#SVGID_00000043426345426953650310000001074186393669998473_);}
	.st17{fill:url(#SVGID_00000171716792241140342760000007849647838042771332_);}
</style>
<g>
	<path class="st1" d="M450.81,31.56H46.56v259.47C46.56,202.73,299.43,91.85,450.81,31.56z"/>
	<path class="st1" d="M1059.32,31.56h-32.02c11.66,4.73,22.39,9.75,32.02,15.06V31.56z"/>
	<path class="st3" d="M226.74,236.19c-44.18,80.23-6.67,132.62,22.86,164.96C288.19,443.39,405,530.74,464.4,556.13
		c53.62,22.92,109.7,13.13,109.7,13.13l-0.05,0.03c30.16-13.79,62.41-26.28,96.05-36.01c173.69-50.28,283.98-25.21,383.94,0
		c1.69,0.43,3.46,0.88,5.28,1.35V46.62c-9.63-5.31-20.36-10.33-32.02-15.06H468.74C407.48,72.15,261.41,173.22,226.74,236.19z"/>
	<path class="st4" d="M391.49,680.59c36.71-28.43,102.17-74.52,182.57-111.29l0.05-0.03c0,0-56.08,9.79-109.7-13.13
		C405,530.74,288.19,443.39,249.6,401.15c-29.54-32.33-67.05-84.73-22.86-164.96c34.68-62.97,180.75-164.04,242.01-204.63h-17.94
		C299.43,91.85,46.56,202.73,46.56,291.04v374.79C46.56,665.83,207.28,667.75,391.49,680.59z"/>
	<path class="st5" d="M670.1,533.28c-33.63,9.74-65.89,22.22-96.05,36.01c-80.4,36.77-145.86,82.87-182.57,111.29
		c37.51,2.61,75.99,5.68,114.3,9.28c99.31,9.32,197.35,22.21,274.01,39.97c58.83,13.64,158.19,40.16,279.54,74.37V534.63
		c-1.82-0.47-3.59-0.93-5.28-1.35C954.08,508.07,843.79,483,670.1,533.28z"/>
	<path class="st8" d="M505.78,689.86l0.1,0.03c0,0-215.16,76.47-265.44,145.04c-29.25,39.9-67.78,90.64-79.59,182.8h236.87
		c22.58-47.81,76.85-85.1,176.38-105.08c61.83-12.4,296.18-25.63,485.22-31.02V804.2c-121.34-34.21-220.71-60.74-279.54-74.37
		C703.14,712.08,605.09,699.19,505.78,689.86z"/>
	<path class="st8" d="M894.08,999.48c-14.94,5.97-28.95,11.86-41.33,18.25h206.57v-60.9C995.21,968.81,934.62,983.31,894.08,999.48z
		"/>
	<path class="st3" d="M619.83,934.66c-49.53,11.51-140.97,38.17-169.14,57.21c-8.56,5.78-17.96,15.35-26.92,25.86h428.98
		c12.37-6.39,26.38-12.29,41.33-18.25c40.54-16.18,101.13-30.67,165.24-42.65v-55.22C907.53,910.02,656.27,926.19,619.83,934.66z"/>
	<path class="st11" d="M160.86,1017.74c11.81-92.16,50.34-142.9,79.59-182.8c50.28-68.57,265.44-145.04,265.44-145.04l-0.1-0.03
		c-38.3-3.6-76.78-6.66-114.3-9.28c-184.21-12.84-344.93-14.76-344.93-14.76v351.91H160.86z"/>
	<path class="st4" d="M574.1,912.65c-99.53,19.99-153.79,57.27-176.38,105.08h26.05c8.96-10.51,18.36-20.08,26.92-25.86
		c28.17-19.05,119.61-45.7,169.14-57.21c36.44-8.47,287.7-24.64,439.49-33.05v-19.98C870.28,887.02,635.94,900.25,574.1,912.65z"/>
</g>
</svg>
