<?xml version="1.0" encoding="utf-8"?>
<!-- Generator: Adobe Illustrator 26.0.3, SVG Export Plug-In . SVG Version: 6.00 Build 0)  -->
<svg version="1.1" id="Слой_1" xmlns="http://www.w3.org/2000/svg" xmlns:xlink="http://www.w3.org/1999/xlink" x="0px" y="0px"
	 viewBox="0 0 1080 1080" style="enable-background:new 0 0 1080 1080;" xml:space="preserve">
<style type="text/css">
	.st0{fill:#BDFF3E;}
	.st1{fill:#1ECC00;}
	.st2{fill:#09B200;}
	.st3{fill:#FF0B0B;}
	.st4{fill:#FF3E3E;}
	.st5{fill:#EA0000;}
	.st6{fill:#53E000;}
	.st7{fill:none;}
</style>
<g>
	<path class="st7" d="M971.38,29.92v390.17c0,166.94-121.89,305.4-281.52,331.28c4.71,3.61,8.79,7.24,12,10.84
		c30.81,34.46,80.09,147.45,80.09,147.45S525.37,978.75,470,971.54c-55.43-7.2-85.83-33.19-96.84-64.22
		c-15.48,42.93,83.99,142.76,83.99,142.76h651.35V29.92H971.38z"/>
	<path class="st7" d="M119.93,989.41v60.67h337.22c0,0-285.96-37.73-318.58-52.1C133.45,995.72,127.09,992.86,119.93,989.41z"/>
	<path class="st0" d="M534.19,174.66l44.1,92.24l-209.94,95.17c10.15,5.36,19.89,11.29,29.06,17.46c0.24,0.16,0.47,0.33,0.71,0.49
		c18.72,12.66,35.06,26.24,47.67,37.71c17.29,15.71,27.61,27.48,27.61,27.48s-44.87,5.68-80.28,20.21s-34.49,30.94-34.49,30.94
		s103.98,20.63,197.24,75.3c93.26,54.67,157.99,117.25,157.99,117.25s-56.16-2.32-87.99-3.62c-31.83-1.33-63.97,5.68-63.97,5.68
		s87.58,29.49,127.97,60.43c159.63-25.89,281.52-164.34,281.52-331.28V29.92H658.16l-10.28,7.56L534.19,174.66z"/>
	<path class="st1" d="M373.16,907.32c11.01,31.03,41.41,57.02,96.84,64.22c55.37,7.2,311.95-61.88,311.95-61.88
		s-49.28-112.99-80.09-147.45c-3.21-3.6-7.29-7.23-12-10.84c-40.38-30.93-127.97-60.43-127.97-60.43s32.14-7.01,63.97-5.68
		c31.83,1.3,87.99,3.62,87.99,3.62s-64.73-62.57-157.99-117.25c-93.26-54.67-197.24-75.3-197.24-75.3s-0.92-16.4,34.49-30.94
		s80.28-20.21,80.28-20.21s-10.31-11.77-27.61-27.48c-12.61-11.47-28.95-25.04-47.67-37.71c18.72,12.66,35.06,26.24,47.67,37.71
		c0,0-62.8,15.14-133.97,13.45c-35.9-0.85-118.68-11.12-191.89-21.08v140.97c33.07,29.09,66.27,56.66,66.27,56.66
		s-25.9-7.23-66.27-20.34v56.71c81.86,16.65,273.76,24.17,273.76,24.17s124.7,38.55,160.53,70.63
		c35.82,32.05,56.35,50.45,56.35,50.45s-100.43-16.31-191.69-20.18c-72.87-3.09-209-3.21-298.95-9.27v229.51
		c7.16,3.45,13.52,6.31,18.64,8.57c32.62,14.37,318.58,52.1,318.58,52.1S357.67,950.25,373.16,907.32z M508.84,643.19
		c0,0-52.9-25.38-94.94-35.48c-42.04-10.06-155.07-25.23-155.07-25.23l-112.3-85.42c0,0,65.02-7.04,112.33,0.03
		c47.28,7.04,163.45,37.76,210.53,73.04C516.49,605.4,508.84,643.19,508.84,643.19z"/>
	<path class="st1" d="M368.35,362.07c10.15,5.36,19.89,11.29,29.06,17.46C388.25,373.35,378.5,367.43,368.35,362.07L368.35,362.07z"
		/>
	<path class="st2" d="M445.79,417.71c-12.61-11.47-28.95-25.04-47.67-37.71c-0.24-0.16-0.47-0.33-0.71-0.49
		c-9.17-6.17-18.91-12.09-29.06-17.46l-0.4,0.18l-248.02-28.06v75.9c73.22,9.97,156,20.23,191.89,21.08
		C382.99,432.85,445.79,417.71,445.79,417.71z"/>
	<path class="st2" d="M119.93,551.05v36.33c40.36,13.11,66.27,20.34,66.27,20.34S153,580.14,119.93,551.05z"/>
	<polygon class="st3" points="515.03,63.75 577.19,29.92 472.02,29.92 370.68,103.74 119.93,63.65 119.93,159.39 429.61,203.31 	"/>
	<polygon class="st3" points="534.19,174.65 534.19,174.66 647.88,37.48 	"/>
	<polygon class="st4" points="472.02,29.92 119.93,29.92 119.93,63.65 370.68,103.74 	"/>
	<polygon class="st5" points="368.35,362.07 368.35,362.07 578.3,266.9 534.19,174.66 534.19,174.65 647.88,37.48 658.16,29.92 
		577.19,29.92 515.03,63.75 429.61,203.31 119.93,159.39 119.93,334.19 367.95,362.25 	"/>
	<path class="st6" d="M610.57,789.35c0,0-20.53-18.4-56.35-50.45c-35.82-32.08-160.53-70.63-160.53-70.63s-191.9-7.52-273.76-24.17
		v115.8c89.96,6.06,226.08,6.18,298.95,9.27C510.14,773.04,610.57,789.35,610.57,789.35z"/>
	<path class="st6" d="M469.4,570.15c-47.09-35.28-163.26-66-210.53-73.04c-47.31-7.08-112.33-0.03-112.33-0.03l112.3,85.42
		c0,0,113.03,15.17,155.07,25.23c42.04,10.09,94.94,35.48,94.94,35.48S516.49,605.4,469.4,570.15z"/>
</g>
</svg>
