<?xml version="1.0" encoding="utf-8"?>
<!-- Generator: Adobe Illustrator 26.0.3, SVG Export Plug-In . SVG Version: 6.00 Build 0)  -->
<svg version="1.1" id="Слой_1" xmlns="http://www.w3.org/2000/svg" xmlns:xlink="http://www.w3.org/1999/xlink" x="0px" y="0px"
	 viewBox="0 0 1080 1080" style="enable-background:new 0 0 1080 1080;" xml:space="preserve">
<style type="text/css">
	.st0{fill:#E5E5E5;}
	.st1{fill:#96FF31;}
	.st2{fill:#84EA00;}
	.st3{fill:#A9B4B5;}
	.st4{fill:#869496;}
	.st5{fill:#EA5F00;}
	.st6{fill:#C65000;}
	.st7{fill:#FF7300;}
	.st8{fill:#899296;stroke:#54606D;stroke-width:15;stroke-miterlimit:10;}
	.st9{fill:#778389;stroke:#54606D;stroke-width:15;stroke-linecap:round;stroke-linejoin:round;stroke-miterlimit:10;}
	.st10{fill:#54606D;}
	.st11{fill:#FFBE2C;}
	.st12{fill:#FF9D00;}
	.st13{fill:#899296;}
	.st14{fill:#BCBFC1;}
	.st15{fill:#FFD488;}
	.st16{fill:#FF2A00;}
	.st17{fill:#DD0A00;}
	.st18{fill:#FFEEA9;}
	.st19{fill:#FFDC9F;}
	.st20{fill:#606A6D;stroke:#1C242B;stroke-width:30;stroke-miterlimit:10;}
	.st21{fill:#FFCF48;}
	.st22{fill:#FF7761;}
	.st23{fill:#606A6D;}
	.st24{fill:#005B77;}
	.st25{fill:#00404F;}
	.st26{fill:#9DA6A8;}
	.st27{fill:#384042;}
	.st28{fill:#00D6D6;}
	.st29{fill:#00F9EC;}
	.st30{fill:#606A6D;stroke:#1C242B;stroke-width:80;stroke-miterlimit:10;}
	.st31{fill:#606A6D;stroke:#1C242B;stroke-width:60;stroke-miterlimit:10;}
	.st32{fill:#00899B;}
	.st33{fill:#006A7C;}
	.st34{fill:#00BBC9;}
	.st35{fill:#FFDA00;}
	.st36{fill:#F7B000;}
	.st37{fill:#FFEA80;}
	.st38{fill:#7C9998;}
	.st39{fill:none;stroke:#B73800;stroke-width:8;stroke-miterlimit:10;}
	.st40{fill:#A1B2B1;}
	.st41{fill:#42727A;}
	.st42{fill:#B73800;}
	.st43{fill:#A1DB00;}
	.st44{fill:#76C100;}
	.st45{fill:#00AFA6;}
	.st46{fill:#006F77;}
	.st47{fill:#C14000;}
	.st48{fill:#FF6F0D;stroke:#CC2B00;stroke-width:4;stroke-miterlimit:10;}
	.st49{fill:#FFEB76;}
	.st50{fill:#FFD93B;}
	.st51{fill:#842500;}
	.st52{fill:#DFFF22;}
	.st53{fill:#6CF5FF;}
	.st54{fill:#00CFFF;}
	.st55{fill:#00A5F7;}
	.st56{fill:none;stroke:#9B00CE;stroke-width:3;stroke-miterlimit:10;}
	.st57{fill:none;stroke:#D376FF;stroke-width:3;stroke-miterlimit:10;}
	.st58{fill:none;stroke:#7400A5;stroke-width:3;stroke-miterlimit:10;}
	.st59{fill:#BBFDFF;}
	.st60{fill:#92FCFF;}
	.st61{fill:#A6FFFF;}
	.st62{fill:none;stroke:#F7ABFF;stroke-width:3;stroke-miterlimit:10;}
	.st63{fill:#D08DFF;}
	.st64{fill:#AF48FF;}
	.st65{fill:#7F00E2;}
	.st66{fill:#ECC2FF;}
	.st67{fill:#006FDD;}
	.st68{fill:#004FC1;}
	.st69{fill:#2A333A;stroke:#A0ACAF;stroke-width:30;stroke-miterlimit:10;}
	.st70{fill:#DB0000;}
	.st71{fill:#9B0000;}
	.st72{fill:#7C0000;}
	.st73{fill:#FF1F1F;}
	.st74{fill:#80C6FF;}
	.st75{fill:#E2E2E2;}
</style>
<g>
	<path class="st35" d="M947.42,297.3H138.53c-36.94,0-66.89,29.95-66.89,66.89v292.89c0,36.94,29.95,66.89,66.89,66.89h1.22
		c2.93-49.42,43.93-88.59,94.08-88.59s91.15,39.17,94.08,88.59h431.23c2.93-49.42,43.93-88.59,94.08-88.59s91.15,39.17,94.08,88.59
		h0.1c36.94,0,66.89-29.95,66.89-66.89V364.19C1014.31,327.25,984.36,297.3,947.42,297.3z"/>
	<g>
		<path class="st36" d="M993.44,647.87h-93.13c26.68,15.4,45.1,43.49,47.03,76.02h0.1c36.94,0,66.89-29.95,66.89-66.89v-12.48
			C1007.76,646.68,1000.74,647.87,993.44,647.87z"/>
		<path class="st36" d="M806.21,647.87H280.91c26.68,15.4,45.1,43.49,47.03,76.02h431.23C761.11,691.36,779.53,663.27,806.21,647.87
			z"/>
	</g>
	<path class="st36" d="M186.8,647.87h-2.25c-36.94,0-66.89-29.95-66.89-66.89V315.44c0.33-13.78,20.89-18.22,20.89-18.22
		s-10.86,0.09-20.89,3.34c-26.33,8.54-46,33.9-46,63.54V657c0,36.94,29.95,66.89,66.89,66.89h1.22
		C141.71,691.36,160.13,663.27,186.8,647.87z"/>
	<path class="st37" d="M983.22,367h19.48c-5.39-31.54-32.84-55.56-65.91-55.56H127.9c-22.01,0-37.72-1.63-50.38,25.26
		c9.78-5.61,17.76-7.04,29.85-7.04h808.89c17.14,0,41.24,8.05,51.41,15.56L983.22,367z"/>
	<g>
		<path class="st38" d="M155.67,561.22h-36c-13.99,0-25.33-11.34-25.33-25.33V405.22c0-13.99,11.34-25.33,25.33-25.33h36
			c13.99,0,25.33,11.34,25.33,25.33v130.67C181,549.88,169.66,561.22,155.67,561.22z"/>
		<path class="st38" d="M741,561.22H531.67c-13.99,0-25.33-11.34-25.33-25.33V405.22c0-13.99,11.34-25.33,25.33-25.33H741
			c13.99,0,25.33,11.34,25.33,25.33v130.67C766.33,549.88,754.99,561.22,741,561.22z"/>
		<path class="st38" d="M1014.33,561.22h-24c-14.73,0-26.67-11.94-26.67-26.67v-128c0-14.73,11.94-26.67,26.67-26.67h24V561.22z"/>
		<path class="st38" d="M899.67,561.22h-64c-13.99,0-25.33-11.34-25.33-25.33V405.22c0-13.99,11.34-25.33,25.33-25.33h64
			c13.99,0,25.33,11.34,25.33,25.33v130.67C925,549.88,913.66,561.22,899.67,561.22z"/>
		<path class="st38" d="M448.33,561.22H239c-13.99,0-25.33-11.34-25.33-25.33V405.22c0-13.99,11.34-25.33,25.33-25.33h209.33
			c13.99,0,25.33,11.34,25.33,25.33v130.67C473.67,549.88,462.32,561.22,448.33,561.22z"/>
	</g>
	<line class="st39" x1="71.67" y1="612.22" x2="1014.33" y2="612.22"/>
	<path class="st40" d="M155.67,379.89h-36c-8.55,0-16.11,4.24-20.7,10.74c2.9-1.15,6.06-1.8,9.37-1.8h36
		c13.99,0,25.33,11.34,25.33,25.33v130.67c0,5.44-1.72,10.47-4.63,14.6c9.35-3.73,15.97-12.86,15.97-23.54V405.22
		C181,391.23,169.66,379.89,155.67,379.89z"/>
	<path class="st40" d="M741,379.89H531.67c-8.55,0-16.11,4.24-20.7,10.74c2.9-1.15,6.06-1.8,9.37-1.8h209.33
		c13.99,0,25.33,11.34,25.33,25.33v130.67c0,5.44-1.72,10.47-4.63,14.6c9.35-3.73,15.97-12.86,15.97-23.54V405.22
		C766.33,391.23,754.99,379.89,741,379.89z"/>
	<path class="st40" d="M899.67,379.89h-64c-8.55,0-16.11,4.24-20.7,10.74c2.9-1.15,6.06-1.8,9.37-1.8h64
		c13.99,0,25.33,11.34,25.33,25.33v130.67c0,5.44-1.72,10.47-4.63,14.6c9.35-3.73,15.97-12.86,15.97-23.54V405.22
		C925,391.23,913.66,379.89,899.67,379.89z"/>
	<path class="st40" d="M448.33,379.89H239c-8.55,0-16.11,4.24-20.7,10.74c2.9-1.15,6.06-1.8,9.37-1.8H437
		c13.99,0,25.33,11.34,25.33,25.33v130.67c0,5.44-1.72,10.47-4.63,14.6c9.35-3.73,15.97-12.86,15.97-23.54V405.22
		C473.67,391.23,462.32,379.89,448.33,379.89z"/>
	<path class="st41" d="M169,543h-36c-13.99,0-25.33-11.34-25.33-25.33V387c0-1.46,0.13-2.89,0.37-4.28
		c-8.14,4.21-13.7,12.71-13.7,22.5v130.67c0,13.99,11.34,25.33,25.33,25.33h36c12.53,0,22.93-9.1,24.97-21.05
		C177.15,541.97,173.2,543,169,543z"/>
	<path class="st41" d="M754.33,543H545c-13.99,0-25.33-11.34-25.33-25.33V387c0-1.46,0.13-2.89,0.37-4.28
		c-8.14,4.21-13.7,12.71-13.7,22.5v130.67c0,13.99,11.34,25.33,25.33,25.33H741c12.53,0,22.93-9.1,24.97-21.05
		C762.48,541.97,758.53,543,754.33,543z"/>
	<path class="st41" d="M1003.67,543c-14.73,0-26.67-11.94-26.67-26.67v-128c0-1.76,0.18-3.49,0.5-5.16
		c-8.25,4.54-13.84,13.3-13.84,23.38v128c0,14.73,11.94,26.67,26.67,26.67h24V543H1003.67z"/>
	<path class="st40" d="M990.33,379.89c-8.86,0-16.71,4.32-21.56,10.97c3.15-1.31,6.6-2.03,10.22-2.03h35.33v-8.94H990.33z"/>
	<path class="st41" d="M913,543h-64c-13.99,0-25.33-11.34-25.33-25.33V387c0-1.46,0.13-2.89,0.37-4.28
		c-8.14,4.21-13.7,12.71-13.7,22.5v130.67c0,13.99,11.34,25.33,25.33,25.33h64c12.53,0,22.93-9.1,24.97-21.05
		C921.15,541.97,917.2,543,913,543z"/>
	<path class="st41" d="M461.67,543H252.33c-13.99,0-25.33-11.34-25.33-25.33V387c0-1.46,0.13-2.89,0.37-4.28
		c-8.14,4.21-13.7,12.71-13.7,22.5v130.67c0,13.99,11.34,25.33,25.33,25.33h209.33c12.53,0,22.93-9.1,24.97-21.05
		C469.81,541.97,465.86,543,461.67,543z"/>
	<circle class="st20" cx="233.86" cy="729.42" r="53.23"/>
	<circle class="st20" cx="853.26" cy="729.56" r="53.23"/>
	<path class="st35" d="M1028.76,644.52h-14.42v-55.6h14.42c6.76,0,12.24,5.48,12.24,12.24v31.11
		C1041,639.04,1035.52,644.52,1028.76,644.52z"/>
	<path class="st42" d="M1017.74,583.49h-3.41v-13.33h3.41c3.68,0,6.67,2.98,6.67,6.67v0
		C1024.41,580.51,1021.42,583.49,1017.74,583.49z"/>
	<path class="st36" d="M1028.76,634.45h-14.42v10.07h14.42c6.76,0,12.24-5.48,12.24-12.24V622.2
		C1041,628.97,1035.52,634.45,1028.76,634.45z"/>
	<path class="st40" d="M913.67,414.16v93.61H925V405.22c0-13.99-11.34-25.33-25.33-25.33h-64c-8.55,0-16.11,4.24-20.7,10.74
		c2.9-1.15,6.06-1.8,9.37-1.8h64C902.32,388.83,913.67,400.17,913.67,414.16z"/>
	<path class="st40" d="M755,414.16v110.47h11.33V405.22c0-13.99-11.34-25.33-25.33-25.33H531.67c-8.55,0-16.11,4.24-20.7,10.74
		c2.9-1.15,6.06-1.8,9.37-1.8h209.33C743.66,388.83,755,400.17,755,414.16z"/>
	<path class="st40" d="M462.33,414.16v101.58h11.33V405.22c0-13.99-11.34-25.33-25.33-25.33H239c-8.55,0-16.11,4.24-20.7,10.74
		c2.9-1.15,6.06-1.8,9.37-1.8H437C450.99,388.83,462.33,400.17,462.33,414.16z"/>
	<path class="st40" d="M169.67,414.16v96.39H181V405.22c0-13.99-11.34-25.33-25.33-25.33h-36c-8.55,0-16.11,4.24-20.7,10.74
		c2.9-1.15,6.06-1.8,9.37-1.8h36C158.32,388.83,169.67,400.17,169.67,414.16z"/>
</g>
</svg>
