<?xml version="1.0" encoding="utf-8"?>
<!-- Generator: Adobe Illustrator 26.0.3, SVG Export Plug-In . SVG Version: 6.00 Build 0)  -->
<svg version="1.1" id="Слой_1" xmlns="http://www.w3.org/2000/svg" xmlns:xlink="http://www.w3.org/1999/xlink" x="0px" y="0px"
	 viewBox="0 0 1080 1080" style="enable-background:new 0 0 1080 1080;" xml:space="preserve">
<style type="text/css">
	.st0{fill:#BDFF3E;}
	.st1{fill:#1ECC00;}
	.st2{fill:#09B200;}
	.st3{fill:#FF0B0B;}
	.st4{fill:#FF3E3E;}
	.st5{fill:#EA0000;}
	.st6{fill:#53E000;}
	.st7{fill:none;}
</style>
<g>
	<polygon class="st7" points="997.35,43.66 885.82,168.9 885.82,1036.34 1022.95,1036.34 1022.95,43.66 	"/>
	<polygon class="st0" points="805.61,258.97 709.28,291.73 699.88,301.2 699.88,346.26 733.13,369.52 757.5,543.63 757.48,543.59 
		802.72,867.03 572.6,1036.34 885.82,1036.34 885.82,168.9 	"/>
	<polygon class="st0" points="700.05,348.11 699.88,346.26 699.88,348 	"/>
	<polygon class="st3" points="524.98,211.88 510.61,258.56 510.64,258.62 525.01,211.88 462.7,43.66 419.09,43.66 490.54,211.43 	
		"/>
	<polygon class="st3" points="699.88,301.2 709.28,291.73 699.88,294.92 	"/>
	<polygon class="st3" points="700.05,348.11 699.88,348 699.88,406.69 704.39,395.7 	"/>
	<polygon class="st3" points="757.48,543.59 741.58,515.87 724.54,458.5 689.63,431.68 690.79,428.87 585.55,682.68 650.57,525.89 
		590.6,736.46 228.17,812.36 86.76,928.15 108.04,938.24 208.94,884.23 551.92,811.47 650.57,848.57 510.04,946.33 386.46,1036.34 
		491.64,1036.34 802.72,867.03 	"/>
	<polygon class="st3" points="182.41,43.66 67.78,43.66 34.37,54.76 34.37,113.92 182.03,44.88 	"/>
	<polygon class="st3" points="262.72,158.07 310.4,43.66 310.38,43.66 	"/>
	<polygon class="st3" points="108.25,382.47 34.37,389.25 34.37,389.26 108.04,382.5 	"/>
	<polygon class="st3" points="490.54,211.43 419.09,43.66 396.95,43.66 360.27,192.56 60.98,192.56 34.37,163.55 34.37,205.34 	"/>
	<polygon class="st3" points="228.17,812.36 195.9,819.12 208.94,756.64 208.94,653.42 417.41,561.62 510.64,258.62 510.61,258.56 
		489.79,326.21 448.12,332.53 454.41,331.61 388.82,525.89 208.94,625.5 74.43,655.77 34.37,623.77 34.37,684.74 108.04,716.31 
		100.64,811.47 70.94,884.42 34.37,867.4 34.37,903.31 86.76,928.15 	"/>
	<polygon class="st4" points="510.64,258.62 417.41,561.62 208.94,653.42 208.94,756.64 585.55,682.68 690.79,428.87 699.88,406.69 
		699.88,348 699.88,346.26 699.88,301.2 699.88,294.92 699.88,131.19 668.22,43.66 462.7,43.66 525.01,211.88 	"/>
	<polygon class="st4" points="448.12,332.53 489.79,326.21 510.61,258.56 524.98,211.88 490.54,211.43 34.37,205.34 34.37,389.25 
		108.25,382.47 	"/>
	<polygon class="st4" points="310.38,43.66 182.41,43.66 182.03,44.88 34.37,113.92 34.37,158.07 262.72,158.07 	"/>
	<polygon class="st4" points="34.37,43.66 34.37,54.76 67.78,43.66 	"/>
	<polygon class="st4" points="650.57,848.57 551.92,811.47 208.94,884.23 108.04,938.24 86.76,928.15 34.37,903.31 34.37,1036.34 
		386.46,1036.34 510.04,946.33 	"/>
	<polygon class="st5" points="74.43,655.77 208.94,625.5 388.82,525.89 454.41,331.61 448.12,332.53 108.25,382.47 108.04,382.5 
		34.37,389.26 34.37,623.77 	"/>
	<polygon class="st5" points="360.27,192.56 396.95,43.66 310.4,43.66 262.72,158.07 34.37,158.07 34.37,163.55 60.98,192.56 	"/>
	<polygon class="st5" points="491.64,1036.34 572.6,1036.34 802.72,867.03 	"/>
	<polygon class="st5" points="699.88,294.92 709.28,291.73 805.61,258.97 885.82,168.9 997.35,43.66 668.22,43.66 699.88,131.19 	
		"/>
	<polygon class="st4" points="100.64,811.47 108.04,716.31 34.37,684.74 34.37,793.64 68.02,802.68 	"/>
	<polygon class="st5" points="100.64,811.47 68.02,802.68 34.37,793.64 34.37,867.4 70.94,884.42 	"/>
	<polygon class="st5" points="704.39,395.7 699.88,406.69 690.79,428.87 689.63,431.68 724.54,458.5 741.58,515.87 757.48,543.59 
		757.5,543.63 733.13,369.52 699.88,346.26 700.05,348.11 	"/>
	<polygon class="st5" points="208.94,756.64 195.9,819.12 228.17,812.36 590.6,736.46 650.57,525.89 585.55,682.68 	"/>
</g>
</svg>
