<?xml version="1.0" encoding="utf-8"?>
<!-- Generator: Adobe Illustrator 26.0.3, SVG Export Plug-In . SVG Version: 6.00 Build 0)  -->
<svg version="1.1" id="Слой_1" xmlns="http://www.w3.org/2000/svg" xmlns:xlink="http://www.w3.org/1999/xlink" x="0px" y="0px"
	 viewBox="0 0 1080 1080" style="enable-background:new 0 0 1080 1080;" xml:space="preserve">
<style type="text/css">
	.st0{fill:url(#SVGID_1_);}
	.st1{fill:url(#SVGID_00000098901148964682292350000004066269029377557904_);}
	.st2{fill:url(#SVGID_00000023268789635231912850000014963806746855677582_);}
	.st3{fill:#FF39BD;}
	.st4{fill:none;stroke:#FF8AE6;stroke-width:30;stroke-linecap:round;stroke-miterlimit:10;}
	.st5{fill:url(#SVGID_00000166640537089488454410000012316038370390441142_);}
	.st6{fill:#FFEF5C;}
	.st7{fill:#FFDB43;}
	.st8{fill:#FF0031;}
	.st9{fill:#DD0000;}
	.st10{fill:#FF557E;}
	.st11{fill:#FFCD2C;}
	.st12{fill:#22D0FF;}
	.st13{fill:#00BCEF;}
	.st14{fill:#66E2FF;}
	.st15{fill:#FF1FC0;}
	.st16{fill:#EA00A8;}
	.st17{fill:#FF73DE;}
	.st18{fill:none;stroke:#FFF5B0;stroke-width:15;stroke-linecap:round;stroke-miterlimit:10;}
	.st19{fill:url(#SVGID_00000127754496707776337060000003597131057421535361_);}
	.st20{fill:#1C73AD;}
	.st21{fill:#CCD9DB;}
	.st22{fill:#00A894;}
	.st23{fill:#B6C6C5;}
	.st24{fill:#3283C6;}
	.st25{fill:#EAF3F4;}
	.st26{fill:#00847D;}
	.st27{fill:#E2001B;}
	.st28{fill:#FFFFFF;}
	.st29{fill:url(#SVGID_00000147931491880764919070000000717671190080369805_);}
	.st30{fill:#D7D7FF;}
	.st31{fill:#A6B7FF;}
	.st32{fill:#170060;}
	.st33{fill:#000630;}
	.st34{fill:#E6F3FF;}
	.st35{fill:none;stroke:#170060;stroke-width:15;stroke-linecap:round;stroke-miterlimit:10;}
	.st36{fill:none;stroke:#E3F1FF;stroke-width:30;stroke-linecap:round;stroke-miterlimit:10;}
	.st37{fill:none;stroke:#EAF3F4;stroke-width:30;stroke-linecap:round;stroke-miterlimit:10;}
	.st38{fill:none;stroke:#EAF3F4;stroke-width:20;stroke-linecap:round;stroke-miterlimit:10;}
	.st39{fill:none;stroke:#FF4D4D;stroke-width:20;stroke-linecap:round;stroke-miterlimit:10;}
	.st40{fill:url(#SVGID_00000083056409521884637250000018285087472722616757_);}
	.st41{fill:#FF50D6;}
	.st42{fill:#EEFF76;}
	.st43{fill:#5252FF;}
	.st44{fill:none;stroke:#2B2B2B;stroke-width:30;stroke-miterlimit:10;}
	.st45{fill:#2B2B2B;}
	.st46{fill:none;stroke:#F1FFD7;stroke-width:30;stroke-linecap:round;stroke-miterlimit:10;}
	.st47{fill:url(#SVGID_00000165928651249024711370000014955970099837731246_);}
	.st48{fill:#424242;}
	.st49{fill:#161616;}
	.st50{fill:#757575;}
	.st51{fill:none;stroke:#161616;stroke-width:25;stroke-miterlimit:10;}
	.st52{fill:#1C1C1C;}
	.st53{fill:#FF4DDD;stroke:#640089;stroke-width:10;stroke-miterlimit:10;}
	.st54{fill:#1D1D1B;}
</style>
<linearGradient id="SVGID_1_" gradientUnits="userSpaceOnUse" x1="533.1173" y1="1090.8413" x2="533.1173" y2="-3.6772">
	<stop  offset="0" style="stop-color:#D098FB"/>
	<stop  offset="1" style="stop-color:#FEA5E8"/>
</linearGradient>
<rect x="-18.23" y="-3.68" class="st0" width="1102.7" height="1094.52"/>
<rect x="539.26" y="127.29" class="st20" width="12.29" height="112.99"/>
<g>
	<path class="st21" d="M757.08,852.31H322.92c-36.02,0-65.22-29.2-65.22-65.22V390.07c0-36.02,29.2-65.22,65.22-65.22h434.16
		c36.02,0,65.22,29.2,65.22,65.22v397.02C822.3,823.11,793.1,852.31,757.08,852.31z"/>
	<path class="st8" d="M207.97,622.68h34.34c9.06,0,16.4-7.34,16.4-16.4V414.03c0-9.06-7.34-16.4-16.4-16.4h-34.34
		c-9.06,0-16.4,7.34-16.4,16.4v192.24C191.57,615.34,198.91,622.68,207.97,622.68z"/>
	<path class="st8" d="M843.17,622.68h27.42c10.97,0,19.86-8.89,19.86-19.86V417.49c0-10.97-8.89-19.86-19.86-19.86h-27.42
		c-10.97,0-19.86,8.89-19.86,19.86v185.33C823.32,613.79,832.21,622.68,843.17,622.68z"/>
	<path class="st22" d="M343.12,873.11v13.73c0,10.56,8.56,19.13,19.13,19.13h357.53c10.56,0,19.13-8.56,19.13-19.13v-13.73
		c0-10.56-8.56-19.13-19.13-19.13H362.25C351.68,853.98,343.12,862.54,343.12,873.11z"/>
	<path class="st8" d="M343.12,924.44v15.06c0,10.2,8.27,18.47,18.47,18.47h358.85c10.2,0,18.47-8.27,18.47-18.47v-15.06
		c0-10.2-8.27-18.47-18.47-18.47H361.59C351.39,905.97,343.12,914.24,343.12,924.44z"/>
	<rect x="172.25" y="431.73" class="st21" width="19.32" height="156.85"/>
	<rect x="890.46" y="431.73" class="st21" width="19.32" height="156.85"/>
	<path class="st21" d="M172.25,431.73c-42.56,0-77.07,33.28-77.07,77.24c0,43.96,34.5,79.6,77.07,79.6V431.73z"/>
	<path class="st21" d="M909.77,431.73c42.56,0,77.07,33.28,77.07,77.24c0,43.96-34.5,79.6-77.07,79.6V431.73z"/>
	
		<rect x="534.58" y="235.62" transform="matrix(-1.836970e-16 1 -1 -1.836970e-16 858.2775 -230.189)" class="st8" width="19.32" height="156.85"/>
	<path class="st8" d="M622.66,304.39c0-42.56-33.28-77.07-77.24-77.07c-43.96,0-79.6,34.5-79.6,77.07H622.66z"/>
	<circle class="st23" cx="396.98" cy="556.36" r="104.89"/>
	<circle class="st24" cx="407.47" cy="540.98" r="104.89"/>
	<path class="st23" d="M709.58,791.53H356.65c-18.65,0-33.78-15.12-33.78-33.78V742.1c0-18.65,15.12-33.78,33.78-33.78h352.93
		c18.65,0,33.78,15.12,33.78,33.78v15.65C743.36,776.41,728.24,791.53,709.58,791.53z"/>
	<circle class="st25" cx="407.47" cy="540.98" r="65.96"/>
	<path class="st24" d="M720.91,778H367.98c-18.65,0-33.78-15.12-33.78-33.78v-15.65c0-18.65,15.12-33.78,33.78-33.78h352.93
		c18.65,0,33.78,15.12,33.78,33.78v15.65C754.69,762.88,739.57,778,720.91,778z"/>
	<path class="st25" d="M718.35,714.56h-347.8c-7.22,0-13.06,5.85-13.06,13.06v17.55c0,7.22,5.85,13.06,13.06,13.06h347.8
		c7.22,0,13.06-5.85,13.06-13.06v-17.55C731.41,720.41,725.56,714.56,718.35,714.56z"/>
	<rect x="355.01" y="732.19" class="st24" width="378.88" height="8.42"/>
	<path class="st23" d="M182.75,564.07c-42.57,0-77.07-35.64-77.07-79.61c0-6.38,0.73-12.52,2.1-18.38
		c-7.96,12.13-12.59,26.79-12.59,42.9c0,43.97,34.5,79.61,77.07,79.61h19.31v-24.52H182.75z"/>
	<path class="st23" d="M909.77,562.99h-19.31V431.73h0v156.85h19.31c42.57,0,77.07-35.64,77.07-79.61c0-4.37-0.35-8.63-1-12.76
		C979.89,534.08,948.11,562.99,909.77,562.99z"/>
	<path class="st23" d="M780.59,804.72H346.73c-36.11,0-65.38-29.27-65.38-65.38V342.63c0-0.64,0.03-1.27,0.05-1.9
		c-13.89,11.99-22.69,29.71-22.69,49.5v396.71c0,36.11,29.27,65.38,65.38,65.38h433.86c35.47,0,64.32-28.25,65.33-63.48
		C811.81,798.72,796.9,804.72,780.59,804.72z"/>
	<circle class="st26" cx="426.99" cy="527.33" r="32.99"/>
	<path class="st27" d="M255.6,599.88h-27.55c-10.93,0-19.8-8.86-19.8-19.8v-182.2c-9.46,1.49-16.69,9.68-16.69,19.55v185.45
		c0,10.93,8.86,19.8,19.8,19.8h27.55c10.93,0,19.8-8.86,19.8-19.8v-3.25C257.69,599.79,256.66,599.88,255.6,599.88z"/>
	<path class="st27" d="M885.95,606.86h-27.55c-10.93,0-19.8-8.86-19.8-19.8V401.61c0-1.21,0.11-2.38,0.32-3.53
		c-8.93,1.92-15.62,9.85-15.62,19.35v185.45c0,10.93,8.86,19.8,19.8,19.8h27.55c9.73,0,17.81-7.02,19.48-16.27
		C888.79,606.7,887.39,606.86,885.95,606.86z"/>
	<path class="st27" d="M482.52,309.21V289.9c0-18.91,7.03-36.22,18.7-49.62c-21.35,13.82-35.42,37.37-35.42,64.11v19.31h156.85
		v-14.49H482.52z"/>
	<path class="st26" d="M736.66,890.59H380.47c-10.93,0-19.8-8.86-19.8-19.8V858.4c0-1.49,0.17-2.94,0.48-4.33
		c-10.11,0.89-18.03,9.38-18.03,19.71v12.39c0,10.93,8.86,19.8,19.8,19.8h356.19c9.44,0,17.34-6.61,19.32-15.46
		C737.84,890.56,737.25,890.59,736.66,890.59z"/>
	<path class="st27" d="M734.89,942.58H378.7c-10.93,0-19.8-8.86-19.8-19.8v-12.39c0-1.4,0.15-2.77,0.42-4.09
		c-9.22,1.69-16.21,9.76-16.21,19.47v12.39c0,10.93,8.86,19.8,19.8,19.8h356.19c9.53,0,17.49-6.74,19.37-15.71
		C737.31,942.46,736.12,942.58,734.89,942.58z"/>
	<path class="st20" d="M417.33,632.22c-57.93,0-104.89-46.96-104.89-104.89c0-19.87,5.52-38.44,15.12-54.28
		c-15.57,18.3-24.97,42.02-24.97,67.93c0,57.93,46.96,104.89,104.89,104.89c38.06,0,71.39-20.28,89.77-50.61
		C478,617.87,449.34,632.22,417.33,632.22z"/>
	<path class="st20" d="M407.47,475.03c36.43,0,65.96,29.53,65.96,65.96c0,9.08-1.84,17.73-5.16,25.6
		c8.14-10.97,12.96-24.55,12.96-39.26c0-36.43-29.53-65.96-65.96-65.96c-27.35,0-50.81,16.64-60.8,40.35
		C366.49,485.53,385.75,475.03,407.47,475.03z"/>
	<circle class="st23" cx="662.31" cy="560.51" r="104.89"/>
	<circle class="st24" cx="672.81" cy="545.13" r="104.89"/>
	<circle class="st25" cx="672.81" cy="545.13" r="65.96"/>
	<circle class="st26" cx="692.32" cy="531.48" r="32.99"/>
	<path class="st20" d="M672.81,479.18c36.43,0,65.96,29.53,65.96,65.96c0,9.08-1.84,17.73-5.16,25.6
		c8.14-10.97,12.96-24.55,12.96-39.26c0-36.43-29.53-65.96-65.96-65.96c-27.35,0-50.81,16.64-60.8,40.35
		C631.82,489.68,651.09,479.18,672.81,479.18z"/>
	<circle class="st28" cx="396.98" cy="510.16" r="19.43"/>
	<circle class="st28" cx="659.33" cy="511.9" r="19.43"/>
</g>
<circle class="st22" cx="546.34" cy="113.52" r="36.9"/>
<path class="st26" d="M555.21,139.76c-20.38,0-36.9-16.52-36.9-36.9c0-6.47,1.67-12.55,4.6-17.83c-8.22,6.77-13.46,17.02-13.46,28.5
	c0,20.38,16.52,36.9,36.9,36.9c13.91,0,26.02-7.7,32.3-19.06C572.27,136.6,564.11,139.76,555.21,139.76z"/>
<path class="st37" d="M787.67,415.67v-15.33c0-19.51-15.82-35.33-35.33-35.33h-93.01"/>
<line class="st37" x1="611.96" y1="365" x2="598.33" y2="365"/>
<path class="st38" d="M909.77,455.63c0,0,43.23,0.84,49.9,33.11"/>
<line class="st39" x1="559.71" y1="245.09" x2="564.11" y2="246.56"/>
<path class="st39" d="M585.89,261.67c0,0,13.56,10,16,30.22"/>
</svg>
