<?xml version="1.0" encoding="utf-8"?>
<!-- Generator: Adobe Illustrator 26.0.3, SVG Export Plug-In . SVG Version: 6.00 Build 0)  -->
<svg version="1.1" id="Слой_1" xmlns="http://www.w3.org/2000/svg" xmlns:xlink="http://www.w3.org/1999/xlink" x="0px" y="0px"
	 viewBox="0 0 1080 1080" style="enable-background:new 0 0 1080 1080;" xml:space="preserve">
<style type="text/css">
	.st0{fill:#BDFF3E;}
	.st1{fill:#1ECC00;}
	.st2{fill:#09B200;}
	.st3{fill:#FF0B0B;}
	.st4{fill:#FF3E3E;}
	.st5{fill:#EA0000;}
	.st6{fill:#53E000;}
	.st7{fill:none;}
</style>
<g>
	<polygon class="st3" points="906.34,869.38 724.12,1042.56 875.93,928.98 758.52,1044.41 915.89,1044.41 1032.59,922.18 	"/>
	<polygon class="st3" points="221.52,641.74 175.6,613.38 164.55,559.16 32.57,503.97 32.57,512.34 78.82,593.17 	"/>
	<polygon class="st3" points="724.12,1042.56 906.34,869.38 869.89,854.14 681.71,991.17 140.79,962.14 32.57,883.72 32.57,1044.41 
		714.26,1044.41 724.1,1042.57 	"/>
	<polygon class="st3" points="175.6,260.31 32.57,76.54 32.57,76.55 	"/>
	<polygon class="st3" points="1050.5,397.3 1050.5,397.29 857.59,414.99 	"/>
	<polygon class="st3" points="703.76,144.3 704.06,144.23 583.75,166.13 	"/>
	<polygon class="st3" points="143.4,455.35 73.05,377.91 32.57,366.82 32.57,503.97 164.55,559.16 	"/>
	<polygon class="st3" points="922.34,815.94 869.89,854.14 906.34,869.38 1032.59,922.18 1045.19,908.99 1050.5,911.51 
		1050.5,875.6 	"/>
	<path class="st3" d="M37.7,267.04l-5.13,2.02v0.01l5.16-2.04l55.5,72.63l82.37,86.66l164.78,79.45l442.2,72.31l267.92,114.83
		v-60.86l-122.85-98.11l-476.25-81.7l-33.76,3.1H314.45v-0.03c0,0,190.67-118.55,210.85-136.6
		c20.18-18.05,511.12-105.51,511.12-105.51l14.07,0.19v-41.48l-5.32-5.8h-89.42l94.73-44.29V62.73l-5.4,1.8l0.09-0.02L877.3,184.63
		l-133.97,28.59l-231.45,53.82l-94.18-100.9l-92.84-114.9h-110.3l4.73,14.02l184.96,147.96l47.09,105.51l-84.06-51.69l-191.69-6.73
		l191.69,6.73l84.06,51.69l-136.89,97.95L141.93,299.82L32.57,109.29v103l40.48,48.02l-40.48-15.73v23.17
		C35.79,267.32,37.7,267.04,37.7,267.04z"/>
	<path class="st4" d="M525.31,318.73c-20.18,18.05-210.85,136.6-210.85,136.6v0.03h103.19l33.76-3.1l-0.07-0.01l406.25-37.26
		l192.91-17.7V213.41l-14.07-0.19C1036.43,213.22,545.49,300.67,525.31,318.73z"/>
	<polygon class="st4" points="175.6,260.31 367.29,267.04 451.34,318.73 404.25,213.22 219.29,65.26 214.57,51.24 32.57,51.24 
		32.57,76.54 	"/>
	<polygon class="st4" points="1045.19,166.13 1050.5,166.13 1050.5,121.85 955.77,166.13 	"/>
	<polygon class="st4" points="704.06,144.23 1045.1,64.52 1050.5,62.73 1050.5,51.24 341.61,51.24 583.75,166.13 	"/>
	<polygon class="st4" points="681.71,991.17 869.89,854.14 922.34,815.94 877.3,794.98 451.34,729.42 314.45,699.15 221.52,641.74 
		78.82,593.17 32.57,512.34 32.57,883.72 140.79,962.14 	"/>
	<polygon class="st4" points="1032.59,922.18 915.89,1044.41 1050.5,1044.41 1050.5,911.51 1045.19,908.99 	"/>
	<polygon class="st4" points="32.57,212.29 32.57,244.58 73.05,260.31 	"/>
	<polygon class="st5" points="451.34,452.25 451.41,452.26 927.65,533.96 1050.5,632.07 1050.5,397.3 857.59,414.99 	"/>
	<polygon class="st5" points="511.88,267.04 743.33,213.22 877.3,184.63 1045.19,64.5 1045.1,64.52 704.06,144.23 703.76,144.3 
		583.75,166.13 341.61,51.24 324.87,51.24 417.71,166.13 	"/>
	<polygon class="st5" points="141.93,299.82 314.45,416.68 451.34,318.73 367.29,267.04 175.6,260.31 32.57,76.55 32.57,109.29 	"/>
	<polygon class="st5" points="1050.5,171.93 1050.5,166.13 1045.19,166.13 	"/>
	<path class="st5" d="M32.57,267.75v1.31l5.13-2.02C37.7,267.04,35.79,267.32,32.57,267.75z"/>
	<polygon class="st5" points="875.93,928.98 724.12,1042.56 724.1,1042.57 714.26,1044.41 758.52,1044.41 	"/>
	<polygon class="st4" points="782.58,578.1 340.38,505.78 175.6,426.33 93.23,339.67 73.05,377.91 143.4,455.35 143.39,455.33 
		314.45,643.65 649.75,694.1 1050.5,801.78 1050.5,692.93 	"/>
	<polygon class="st5" points="649.75,694.1 314.45,643.65 143.39,455.33 143.4,455.35 164.55,559.16 175.6,613.38 221.52,641.74 
		314.45,699.15 451.34,729.42 877.3,794.98 922.34,815.94 1050.5,875.6 1050.5,801.78 	"/>
	<polygon class="st5" points="93.23,339.67 37.73,267.04 32.57,269.07 32.57,366.82 73.05,377.91 	"/>
</g>
</svg>
