<?xml version="1.0" encoding="utf-8"?>
<!-- Generator: Adobe Illustrator 26.0.3, SVG Export Plug-In . SVG Version: 6.00 Build 0)  -->
<svg version="1.1" id="Слой_1" xmlns="http://www.w3.org/2000/svg" xmlns:xlink="http://www.w3.org/1999/xlink" x="0px" y="0px"
	 viewBox="0 0 1080 1080" style="enable-background:new 0 0 1080 1080;" xml:space="preserve">
<style type="text/css">
	.st0{fill:url(#SVGID_1_);}
	.st1{fill:#FFBE55;}
	.st2{fill:#EA8B00;}
	.st3{fill:#D17200;}
	.st4{fill:#AA6900;}
	.st5{fill:#CC8D00;}
	.st6{fill:#9B5800;}
	.st7{fill:#E2A700;}
	.st8{fill:#FFD400;}
	.st9{fill:#E87400;}
	.st10{fill:#FF9700;}
	.st11{fill:#E5B900;}
	.st12{fill:none;}
	.st13{fill:url(#SVGID_00000060017945533597523320000017131964847402137750_);}
	.st14{fill:url(#SVGID_00000060709494742535695460000006690310293883517361_);}
	.st15{fill:url(#SVGID_00000092428273209851864610000003900500347676533127_);}
	.st16{fill:url(#SVGID_00000056410635065447231340000008525526744596664766_);}
	.st17{fill:url(#SVGID_00000156580390473260852830000006054419799752283307_);}
</style>
<g>
	<path class="st12" d="M841.35,1047.54H31.43v75.24h1017.15V840.31C1048.57,954.74,955.77,1047.54,841.35,1047.54z"/>
	<path class="st6" d="M1048.57,88.05v-54.9h-78.38C1017.55,65.44,1048.57,88.05,1048.57,88.05z"/>
	<path class="st7" d="M348.08,37.76c7.1-0.79,13.48-2.41,19.29-4.61H31.43v10c19.35-2.81,41.93-4.52,68.32-5.38
		C145.96,36.26,316.1,41.33,348.08,37.76z"/>
	<path class="st7" d="M500.64,33.15C490,47.86,473.72,60.59,447.12,66.7c-44.19,10.18-146.28,19.81-146.28,19.81
		s-88.03,5.07-135.58,13.71c-47.5,8.63-111.08,39.53-111.2,39.59c88.4,30.86,162.31,58.57,213.29,80.77
		c167.6,72.98,410.2,213.12,580.48,315.45c0,0,0,0,0.03,0.03c117.62,70.69,200.71,123.31,200.71,123.31V129.19V88.05
		c0,0-31.03-22.62-78.38-54.9H500.64z"/>
	<path class="st8" d="M384.04,989.47c134.46-23.84,203.27-51.13,294.68-124.4c91.4-73.28,150.82-169.08,169.11-228.52
		c18.28-59.43,0-100.51,0-100.51C677.55,433.71,434.95,293.57,267.35,220.58c-50.98-22.2-124.89-49.91-213.29-80.77
		c0,0-0.01,0-0.01,0l-22.63-7.68V997C151.41,1001.15,307.39,1003.05,384.04,989.47z"/>
	<path class="st9" d="M54.06,139.82c0.12-0.06,63.7-30.96,111.2-39.59c47.55-8.64,135.58-13.71,135.58-13.71
		s102.09-9.63,146.28-19.81c26.6-6.11,42.88-18.84,53.52-33.55H367.37c-5.81,2.2-12.2,3.82-19.29,4.61
		c-31.98,3.57-202.12-1.51-248.33,0c-26.4,0.86-48.98,2.57-68.32,5.38v89L54.06,139.82C54.05,139.82,54.06,139.82,54.06,139.82z"/>
	<path class="st11" d="M847.86,536.07c-0.03-0.03-0.03-0.03-0.03-0.03s18.28,41.08,0,100.51c-18.28,59.43-77.7,155.24-169.11,228.52
		c-91.4,73.27-160.22,100.57-294.68,124.4c-76.65,13.59-232.64,11.68-352.61,7.53v50.54h809.92c114.43,0,207.23-92.8,207.23-207.23
		v-57.52V659.38C1048.57,659.38,965.48,606.76,847.86,536.07z"/>
</g>
</svg>
