<?xml version="1.0" encoding="utf-8"?>
<!-- Generator: Adobe Illustrator 26.0.3, SVG Export Plug-In . SVG Version: 6.00 Build 0)  -->
<svg version="1.1" id="Слой_1" xmlns="http://www.w3.org/2000/svg" xmlns:xlink="http://www.w3.org/1999/xlink" x="0px" y="0px"
	 viewBox="0 0 1080 1080" style="enable-background:new 0 0 1080 1080;" xml:space="preserve">
<style type="text/css">
	.st0{fill:#FFEFAE;}
	.st1{fill:#FFD731;}
	.st2{fill:#005318;}
	.st3{fill:#002716;}
	.st4{fill:#FFDF69;}
	.st5{fill:#1EEF00;}
	.st6{fill:#00B700;}
	.st7{fill:#A4FF5C;}
	.st8{fill:#E7FFAB;}
	.st9{fill:#726D00;}
	.st10{fill:#FFEA8C;}
	.st11{fill:#FFFDE0;}
	.st12{fill:#FFEE1E;}
	.st13{fill:#FFF16E;}
	.st14{fill:#FFF5CC;}
	.st15{fill:#FFA91F;}
	.st16{fill:#FFCB4A;}
	.st17{fill:#FFEB97;}
	.st18{fill:#FF9017;}
	.st19{fill:#EA6F00;}
	.st20{fill:#A000E2;}
	.st21{fill:#BF36FF;}
	.st22{fill:#DCA1FF;}
	.st23{fill:#006D1C;}
	.st24{fill:#008C1E;}
	.st25{fill:url(#SVGID_1_);}
	.st26{fill:#FF9E78;}
	.st27{fill:#FF855F;}
	.st28{fill:#086B00;}
	.st29{fill:#FFBDA6;}
	.st30{fill:#688E00;}
	.st31{fill:#FF8D73;}
	.st32{fill:#FF6D00;}
	.st33{fill:#FF7F29;}
	.st34{fill:#6CC900;}
	.st35{fill:#599E00;}
	.st36{fill:#8AE200;}
	.st37{fill:#616800;}
	.st38{fill:#CC4400;}
	.st39{fill:#CE0000;}
	.st40{fill:#FFAA88;}
	.st41{fill:#F72300;}
	.st42{fill:#FF3600;}
	.st43{fill:#DD0000;}
	.st44{fill:#FF5C36;}
	.st45{fill:#FF8269;}
	.st46{fill:#8C004D;}
	.st47{fill:#399B00;}
	.st48{fill:#2B7C00;}
	.st49{fill:#5EBF00;}
	.st50{fill:#B2006A;}
	.st51{fill:#FF6ED3;}
	.st52{fill:#7CDB00;}
	.st53{fill:#86D300;}
	.st54{fill:#5DB500;}
</style>
<path class="st20" d="M247.1,253.8c0,0,37.68,129.87,56.35,181.87c24.04,66.98,60,144,97.33,210.66c37.34,66.67,100,148,213.34,224
	c113.33,76,199.45,36.98,236,6.67c51.97-43.1,47.24-135.14-15.2-193.85c-3.22-3.03-6.6-5.98-10.14-8.82
	c-109.2-87.85-176-127.45-230.66-178.66c-27.89-26.13-66.61-68.55-114.68-140c-22.43-33.34-43.64-69.45-59.6-97.96l-0.01-0.01
	c0,0-0.03-0.05-0.08-0.16c-0.23-0.39-0.44-0.78-0.65-1.16c-0.1-0.19-0.22-0.39-0.35-0.61c-16.63-29.76-27.3-50.77-27.3-50.77
	s-24-60-93.33-36C233.07,191.52,247.1,253.8,247.1,253.8z"/>
<path class="st21" d="M351.45,290.33c2.87,38.56,25.33,112,49.33,165.34c24,53.33,107.6,173.83,141.34,204
	c50.85,45.48,100.14,80.75,117.92,89.92c17.12,8.83,103.41,39.41,146.08,3.41c23.05-19.45,38.22-43.7,28.8-69.85
	c-3.22-3.03-6.6-5.98-10.14-8.82c-109.2-87.85-176-127.45-230.66-178.66c-27.89-26.13-66.61-68.55-114.68-140
	c-22.43-33.34-43.64-69.45-59.6-97.96l-0.01-0.01c0,0-0.03-0.05-0.08-0.16c-0.11-0.2-0.32-0.61-0.65-1.16
	c-0.1-0.19-0.22-0.39-0.35-0.61c-4-6.67-19.02-27.96-44.63-21.44C351.45,240.11,349.89,269.44,351.45,290.33z"/>
<ellipse transform="matrix(0.5467 -0.8373 0.8373 0.5467 -237.3582 952.3495)" class="st22" cx="760.88" cy="695.39" rx="29.61" ry="41.02"/>
<ellipse transform="matrix(0.6357 -0.7719 0.7719 0.6357 -232.2009 719.0012)" class="st22" cx="645.66" cy="605.51" rx="23.09" ry="67.86"/>
<g>
	<path class="st23" d="M214.7,296.87c0,0,13.64-0.93,22.67-10.67c9.03-9.74,8.46-14.56,13.08-25.7s8.7-29.15,12.25-28.86
		c3.55,0.29,9.49,29.04,6.67,42.56c-2.78,13.31-15.59,32.71-15.99,33.32c0.2-0.1,2.75-1.5,6.34-3.77c0.04-0.03,0.15-0.09,0.31-0.19
		c7.77-4.95,20.06-13.84,24.01-22.69c5.92-13.3,4.16-20.23,2.97-42.41c0.7-4.97,1.78-12.75,4.74-15.71
		c4.44-4.44,17.62-5.88,17.62-5.88s4.01,0.55,9.33,14.77c5.33,14.21,8,57.23,8,57.23s1.18-4.44,2.75-10.67l0.03-0.1
		c3.03-12,7.51-30.56,7.9-36.98c0.4-6.63-0.15-17.62,0.56-25.43c0.34-3.71,0.96-6.69,2.1-8.16c3.55-4.55,12.74-8.78,21.33-8
		c8.59,0.78,38.23,9.85,54.97,6.93c16.73-2.93,40-28.67,40-28.67s-1.54,0.59-4.1,1.52h-0.01c-7.82,2.84-25.17,8.88-37.22,11.15
		c-16.01,3-31.32-13.01-58-25.9c-16.81-8.12-36.05-6.56-50.91-2.88c-2.32,0.57-4.54,1.2-6.63,1.85c-2.3,0.71-4.44,1.46-6.38,2.19
		c-2.91,1.11-5.37,2.19-7.27,3.11c0,0-37.63,17.48-39.41,53.37c-1.77,35.89-19.26,58.63-19.26,58.63L214.7,296.87z"/>
	<path class="st23" d="M293.09,165.72c0.45,1.63,0.73,2.54,0.73,2.54l7.25-3.89l5.03-2.69c0,0-8.79-28-1.2-62.49
		c0.36-1.65,0.76-3.32,1.2-5c-3.39-6.49-13.29-5.57-15.84,0C280.55,116.19,290.26,155.41,293.09,165.72z"/>
</g>
<path class="st24" d="M292.64,128.96c0.89,11.41,6.83,34.57,6.83,34.57s0.59,0.29,1.6,0.84c4.35,2.35,16.38,9.43,20.93,17.84
	c5.6,10.35,8.56,54.2,8.56,54.2l-1.11,41.79l0.03-0.1c3.03-12,7.51-30.56,7.9-36.98c0.4-6.63-0.15-17.62,0.56-25.43
	c0,0,0.95-17.84,6.84-23.73c6.23-6.22,17.15-6.74,27.56-2.96c6.15,2.23,26.37,8.89,32.3,9.48c5.92,0.59,10.6,0.08,18.37-2.81
	c9.55-3.56,29.23-16.36,29.23-16.36h-0.01c-7.82,2.84-25.17,8.88-37.22,11.15c-16.01,3-31.32-13.01-58-25.9
	c-16.81-8.12-36.05-6.56-50.91-2.88c0,0-8.79-28-1.2-62.49c-0.81-0.68-1.91-1.21-3.38-1.45c-3.18-0.52-5.45,4.15-5.45,4.15
	C296.07,100.67,291.45,113.89,292.64,128.96z"/>
<path class="st24" d="M259.72,303.75c0.04-0.03,0.15-0.09,0.31-0.19c7.77-4.95,20.06-13.84,24.01-22.69
	c5.92-13.3,4.16-20.23,2.97-42.41c0.7-4.97,1.78-12.75,4.74-15.71c4.44-4.44,17.62-5.88,17.62-5.88s-5.86-8.31-16.93-6.83
	c-11.06,1.48-15.8,5.33-17.29,12.74c-1.48,7.41,1.49,25.78,1.78,38.52c0.3,12.74-3.26,25.18-5.33,29.03
	C269.58,294.09,260.22,303.25,259.72,303.75z"/>
</svg>
