<?xml version="1.0" encoding="utf-8"?>
<!-- Generator: Adobe Illustrator 26.0.3, SVG Export Plug-In . SVG Version: 6.00 Build 0)  -->
<svg version="1.1" id="Слой_1" xmlns="http://www.w3.org/2000/svg" xmlns:xlink="http://www.w3.org/1999/xlink" x="0px" y="0px"
	 viewBox="0 0 1080 1080" style="enable-background:new 0 0 1080 1080;" xml:space="preserve">
<style type="text/css">
	.st0{fill:url(#SVGID_1_);}
	.st1{fill:url(#SVGID_00000178197779846063205440000018407556545333595060_);}
	.st2{fill:url(#SVGID_00000131348600669273262280000015756330943277903783_);}
	.st3{fill:#FF39BD;}
	.st4{fill:none;stroke:#FF8AE6;stroke-width:30;stroke-linecap:round;stroke-miterlimit:10;}
	.st5{fill:url(#SVGID_00000137824402296922843140000015042577316182920577_);}
	.st6{fill:#FFEF5C;}
	.st7{fill:#FFDB43;}
	.st8{fill:#FF0031;}
	.st9{fill:#DD0000;}
	.st10{fill:#FF557E;}
	.st11{fill:#FFCD2C;}
	.st12{fill:#22D0FF;}
	.st13{fill:#00BCEF;}
	.st14{fill:#66E2FF;}
	.st15{fill:#FF1FC0;}
	.st16{fill:#EA00A8;}
	.st17{fill:#FF73DE;}
	.st18{fill:none;stroke:#FFF5B0;stroke-width:15;stroke-linecap:round;stroke-miterlimit:10;}
	.st19{fill:url(#SVGID_00000115513527868780254720000017604505830679067778_);}
	.st20{fill:#1C73AD;}
	.st21{fill:#CCD9DB;}
	.st22{fill:#00A894;}
	.st23{fill:#B6C6C5;}
	.st24{fill:#3283C6;}
	.st25{fill:#EAF3F4;}
	.st26{fill:#00847D;}
	.st27{fill:#E2001B;}
	.st28{fill:#FFFFFF;}
	.st29{fill:url(#SVGID_00000124157481928162402140000000636048536602937755_);}
	.st30{fill:#D7D7FF;}
	.st31{fill:#A6B7FF;}
	.st32{fill:#170060;}
	.st33{fill:#000630;}
	.st34{fill:#E6F3FF;}
	.st35{fill:none;stroke:#170060;stroke-width:15;stroke-linecap:round;stroke-miterlimit:10;}
	.st36{fill:none;stroke:#E3F1FF;stroke-width:30;stroke-linecap:round;stroke-miterlimit:10;}
	.st37{fill:none;stroke:#EAF3F4;stroke-width:30;stroke-linecap:round;stroke-miterlimit:10;}
	.st38{fill:none;stroke:#EAF3F4;stroke-width:20;stroke-linecap:round;stroke-miterlimit:10;}
	.st39{fill:none;stroke:#FF4D4D;stroke-width:20;stroke-linecap:round;stroke-miterlimit:10;}
	.st40{fill:url(#SVGID_00000162316201682230989530000017943576670139034555_);}
	.st41{fill:#FF50D6;}
	.st42{fill:#EEFF76;}
	.st43{fill:#5252FF;}
	.st44{fill:none;stroke:#2B2B2B;stroke-width:30;stroke-miterlimit:10;}
	.st45{fill:#2B2B2B;}
	.st46{fill:none;stroke:#F1FFD7;stroke-width:30;stroke-linecap:round;stroke-miterlimit:10;}
	.st47{fill:url(#SVGID_00000001634233460248973610000015474453213606697406_);}
	.st48{fill:#424242;}
	.st49{fill:#161616;}
	.st50{fill:#757575;}
	.st51{fill:none;stroke:#161616;stroke-width:25;stroke-miterlimit:10;}
	.st52{fill:#1C1C1C;}
	.st53{fill:#FF4DDD;stroke:#640089;stroke-width:10;stroke-miterlimit:10;}
	.st54{fill:#1D1D1B;}
</style>
<linearGradient id="SVGID_1_" gradientUnits="userSpaceOnUse" x1="540" y1="1087.2593" x2="540" y2="-7.2593">
	<stop  offset="0" style="stop-color:#D098FB"/>
	<stop  offset="1" style="stop-color:#FEA5E8"/>
</linearGradient>
<rect x="-11.35" y="-7.26" class="st0" width="1102.7" height="1094.52"/>
<g>
	<path class="st30" d="M533.13,225.85c170.88,5.05,241.58,123.58,312.53,233.87s48.1,215,0,284.89s-91.95,96.3-157.6,87.97
		c-66.97-8.5-95.41-56.08-154.94-56.08s-70.31,47.79-136.33,52.89c-60.59,4.67-87.7,12.22-159.19-72.02s-56.98-216.86,0-301.9
		S362.25,220.8,533.13,225.85z"/>
	<polygon class="st31" points="357.52,373.75 282.7,407.01 350.59,298.86 	"/>
	<path class="st31" d="M263,783.29c-71.49-84.25-67.05-237.38-10.07-322.43s134.71-214.14,305.59-209.09
		c86.14,2.55,146.81,33.93,194.9,78.55c-51.97-58-118.28-101.47-220.29-104.48c-170.88-5.05-238.55,144.57-295.52,229.62
		s-71.49,217.66,0,301.9c13.75,16.2,25.85,29,36.87,39.08C270.78,792.33,266.96,787.96,263,783.29z"/>
	<g>
		<path class="st31" d="M438.94,808.13c-60.59,4.67-87.7,12.22-159.19-72.02s-56.98-216.86,0-301.9
			c38.47-57.43,81.83-144.29,158.54-193.11c-103.98,39.69-155.67,147.18-200.68,214.37c-56.98,85.04-71.49,217.66,0,301.9
			s98.6,76.7,159.19,72.02c30.56-2.36,49.28-13.86,66.49-25.55C456.03,805.92,448.01,807.43,438.94,808.13z"/>
		<path class="st31" d="M719.48,820.14c-66.97-8.5-95.41-56.08-154.94-56.08c-29.24,0-35.99,2.71-54.03,15.05
			c6.76-1.66,14.21-2.61,22.62-2.61c59.53,0,87.97,47.57,154.94,56.08c39.45,5.01,71.02-2.53,100.38-24.51
			C770.76,813.05,740.91,822.86,719.48,820.14z"/>
	</g>
	<path class="st32" d="M419.96,319.09c7.21-6.68,8.83-17.46,3.88-25.96c-19.15-32.93-68.21-109.57-109.35-108.28
		c-52.38,1.64-74.82,27.65-80.74,70.38c-7.42,53.64,73.41,101.8,106.16,118.97c7.89,4.14,17.52,2.86,24.05-3.19L419.96,319.09z"/>
	<path class="st32" d="M651.47,328.66c-7.21-6.68-8.83-17.46-3.88-25.96c19.15-32.93,68.21-109.57,109.35-108.28
		c52.38,1.64,74.82,27.65,80.74,70.38c7.42,53.64-73.41,101.8-106.16,118.97c-7.89,4.14-17.52,2.86-24.05-3.19L651.47,328.66z"/>
	<path class="st32" d="M454.53,479.65c-15.95-2.48-76.18-3.51-107.01,28.38s-78.66,52.09-56.34,96.74s96.42,53.97,125.03,42.52
		c63.84-25.55,41.87-75.16,73.76-92.22c27.7-14.82,13.82-52.35,0-61.92C476.15,483.58,470.48,482.13,454.53,479.65z"/>
	<path class="st31" d="M576.4,668.76h-92.05c-11.73,0-17.26,11.71-8.52,18.03l47.15,34.08c4.94,3.57,12.43,3.5,17.26-0.17
		l44.9-34.08C593.58,680.22,587.98,668.76,576.4,668.76z"/>
	<path class="st32" d="M619.55,479.65c15.95-2.48,76.18-3.51,107.01,28.38c30.83,31.89,78.66,52.09,56.34,96.74
		s-96.42,53.97-125.03,42.52c-63.84-25.55-41.87-75.16-73.76-92.22c-27.7-14.82-13.82-52.35,0-61.92
		C597.93,483.58,603.6,482.13,619.55,479.65z"/>
	<path class="st32" d="M577.25,651.75H485.2c-11.73,0-17.26,11.71-8.52,18.03l47.15,34.08c4.94,3.57,12.43,3.5,17.26-0.17
		l44.9-34.08C594.43,663.21,588.82,651.75,577.25,651.75z"/>
	<circle class="st33" cx="405.71" cy="575.11" r="38.59"/>
	<circle class="st34" cx="414.2" cy="565.15" r="38.59"/>
	<circle class="st33" cx="649.48" cy="575.11" r="38.59"/>
	<circle class="st32" cx="405.71" cy="555.82" r="19.29"/>
	<circle class="st34" cx="656.5" cy="565.15" r="38.59"/>
	<path class="st35" d="M533.39,702.24c0,0-2.62,29.69-34.9,24.57"/>
	<path class="st35" d="M537.02,702.4c0,0,2.62,29.69,34.9,24.57"/>
	<circle class="st32" cx="648.01" cy="555.82" r="19.29"/>
	<circle class="st28" cx="420.4" cy="545.47" r="8.94"/>
	<circle class="st28" cx="663.41" cy="545.47" r="8.94"/>
	<path class="st33" d="M551.51,695.19c-4.83,3.67-12.32,3.74-17.26,0.17l-47.15-34.08c-3.61-2.61-4.78-6.14-4.09-9.38
		c-10.19,1.35-14.5,11.97-6.32,17.89l47.15,34.08c4.94,3.57,12.43,3.5,17.26-0.17l44.9-34.08c0.97-0.74,1.75-1.54,2.36-2.39
		L551.51,695.19z"/>
	<path class="st33" d="M362.09,364.91c-32.75-17.17-113.58-65.33-106.16-118.97c3.69-26.68,13.83-46.84,33.66-58.62
		c-36.75,7.59-53.58,31.77-58.58,67.91c-7.42,53.64,73.41,101.8,106.16,118.97c7.89,4.14,17.52,2.86,24.05-3.19l4.86-4.51
		C364.73,366.11,363.39,365.59,362.09,364.91z"/>
	<path class="st33" d="M722.81,380.57l-56-51.91c-7.21-6.68-8.83-17.46-3.88-25.96c17.94-30.85,62.11-100.02,101.44-107.61
		c-3.26-0.33-6.63-0.56-10.16-0.67c-41.14-1.29-90.2,75.35-109.35,108.28c-4.94,8.5-3.32,19.28,3.88,25.96l56,51.91
		c6.33,5.87,15.56,7.23,23.31,3.55C726.16,383.23,724.39,382.04,722.81,380.57z"/>
	<path class="st36" d="M764.36,418.35c0,0,54.47,46.83,77.14,121.1"/>
	<line class="st36" x1="852.72" y1="578.51" x2="853.91" y2="590.79"/>
	<path class="st36" d="M603.53,293.23c0,0-29.74-7.91-61.89-4.58"/>
</g>
</svg>
