<?xml version="1.0" encoding="utf-8"?>
<!-- Generator: Adobe Illustrator 26.0.3, SVG Export Plug-In . SVG Version: 6.00 Build 0)  -->
<svg version="1.1" id="Слой_1" xmlns="http://www.w3.org/2000/svg" xmlns:xlink="http://www.w3.org/1999/xlink" x="0px" y="0px"
	 viewBox="0 0 1080 1080" style="enable-background:new 0 0 1080 1080;" xml:space="preserve">
<style type="text/css">
	.st0{fill:#FFEFAE;}
	.st1{fill:#FFD731;}
	.st2{fill:#005318;}
	.st3{fill:#002716;}
	.st4{fill:#FFDF69;}
	.st5{fill:#1EEF00;}
	.st6{fill:#00B700;}
	.st7{fill:#A4FF5C;}
	.st8{fill:#E7FFAB;}
	.st9{fill:#726D00;}
	.st10{fill:#FFEA8C;}
	.st11{fill:#FFFDE0;}
	.st12{fill:#FFEE1E;}
	.st13{fill:#FFF16E;}
	.st14{fill:#FFF5CC;}
	.st15{fill:#FFA91F;}
	.st16{fill:#FFCB4A;}
	.st17{fill:#FFEB97;}
	.st18{fill:#FF9017;}
	.st19{fill:#EA6F00;}
	.st20{fill:#A000E2;}
	.st21{fill:#BF36FF;}
	.st22{fill:#DCA1FF;}
	.st23{fill:#006D1C;}
	.st24{fill:#008C1E;}
	.st25{fill:url(#SVGID_1_);}
	.st26{fill:#FF9E78;}
	.st27{fill:#FF855F;}
	.st28{fill:#086B00;}
	.st29{fill:#FFBDA6;}
	.st30{fill:#688E00;}
	.st31{fill:#FF8D73;}
	.st32{fill:#FF6D00;}
	.st33{fill:#FF7F29;}
	.st34{fill:#6CC900;}
	.st35{fill:#599E00;}
	.st36{fill:#8AE200;}
	.st37{fill:#616800;}
	.st38{fill:#CC4400;}
	.st39{fill:#CE0000;}
	.st40{fill:#FFAA88;}
	.st41{fill:#F72300;}
	.st42{fill:#FF3600;}
	.st43{fill:#DD0000;}
	.st44{fill:#FF5C36;}
	.st45{fill:#FF8269;}
	.st46{fill:#8C004D;}
	.st47{fill:#399B00;}
	.st48{fill:#2B7C00;}
	.st49{fill:#5EBF00;}
	.st50{fill:#B2006A;}
	.st51{fill:#FF6ED3;}
	.st52{fill:#7CDB00;}
	.st53{fill:#86D300;}
	.st54{fill:#5DB500;}
</style>
<path class="st0" d="M616.54,568.24l95.63-78.35c0,0,91.16-23.6,125.78-11.89c34.62,11.71,65.56,40.46,76.97,58.88
	c15.38,24.82,54.8,99.55,58.97,123.67c4.17,24.12-20.96,17.85-33.2,10.99c-14.32-8.03-56.31-48.93-82.21-63.38
	c-25.91-14.45-119.57-31-119.57-31L616.54,568.24z"/>
<path class="st1" d="M599.06,568.24l95.63-78.35c0,0,91.16-23.6,125.78-11.89c34.62,11.71,63.32,42.05,76.97,58.88
	s63.84,123.47,63.84,123.47c6.71,23.14-14.05,16.12-27.71,7.01c-13.66-9.11-66.67-44.76-92.57-59.21
	c-25.91-14.45-119.57-31-119.57-31L599.06,568.24z"/>
<path class="st4" d="M747.31,150.01c-72.89-58.57-105.1,173.06-135.11,277.43c-46.22,158.22-190.56,292.93-248.89,350.22
	s-139.11,141.78-62.22,160c210.85,44.91,560.13-384.85,478.58-721.11C774.05,193.4,765.89,171.22,747.31,150.01z"/>
<path class="st10" d="M657.26,248.29c12.49-38.12,17.13-60.09,34.85-72.91c11.47-8.31,20.26-4.96,26.37-0.16
	c6.22,4.89,11.85,15.65,13.19,36.05c1.33,20.4-4,165.73-52,275.06s-90,176-139.67,229.33C490.33,769,463.67,746.33,461,737
	s-26.8-30.42,10.6-71.88s103.49-137.21,119.76-181.22c14.45-39.08,22.78-58.1,38.78-128.32
	C640.04,312.17,655.12,254.83,657.26,248.29z"/>
<ellipse transform="matrix(0.2361 -0.9717 0.9717 0.2361 166.3911 905.6118)" class="st11" cx="659.17" cy="346.98" rx="19.56" ry="7.22"/>
<ellipse transform="matrix(0.2361 -0.9717 0.9717 0.2361 271.191 857.8113)" class="st11" cx="681.17" cy="256.43" rx="44.82" ry="8.67"/>
<path class="st12" d="M741.05,556.52c-5.59,13.46-11.57,26.78-17.91,39.91c-100.11,207.5-288.75,368.84-422.05,340.45
	c-4.78-1.13-8.96-2.52-12.56-4.15c-1.01-0.45-1.98-0.93-2.9-1.42c-2.82-1.51-5.24-3.18-7.28-5
	c-33.06-29.65,34.39-99.76,84.96-149.43c37.29-36.62,109.7-104.87,169.18-190.68c2.66-3.85,5.3-7.73,7.91-11.65
	c4.11-6.15,8.13-12.39,12.07-18.71c1.72-2.76,3.42-5.53,5.1-8.32l0.3,0.19l28.35,17.71l5.09-0.65l7.78,4.86l45-4.16l2-0.18
	L741.05,556.52z"/>
<path class="st13" d="M710.27,592.22C610.24,799.56,421.81,960.81,288.53,932.73c-1.01-0.45-1.98-0.93-2.9-1.42
	c-2.82-1.51-5.24-3.18-7.28-5c7-1.23,18.6-4.14,31.11-10.85c20.15-10.82,167.71-143.86,182.99-160
	c15.27-16.15,103.06-134.31,109.16-150.37c4.65-12.24-9.65-23-16.72-27.44h-0.01c-2.21-1.38-3.71-2.15-3.71-2.15
	s-17.55-6.09-40.77-0.95c-0.15,0.03-0.29,0.07-0.44,0.1l12.51-18.81c1.72-2.76,3.42-5.53,5.1-8.32l0.3,0.19l28.35,17.71l5.09-0.65
	l7.78,4.86l45-4.16L710.27,592.22z"/>
<path class="st1" d="M723.14,596.43c-100.11,207.5-288.75,368.84-422.05,340.45c-4.78-1.13-8.96-2.52-12.56-4.15
	c-1.01-0.45-1.98-0.93-2.9-1.42c4.38-0.43,19.71-2.52,36.7-11.64c20.15-10.82,167.71-143.86,182.99-160
	c15.27-16.15,103.06-134.31,109.16-150.37c6.1-16.07-20.44-29.59-20.44-29.59s-3.39-1.17-9.15-2.06h-0.01
	c-11.07-1.69-30.9-2.3-52.39,8.55c-0.1,0.04-0.21,0.1-0.31,0.15l7.78-11.7l12.51-18.81l5.4-8.13l28.35,17.71l5.09-0.65l7.78,4.86
	l45-4.16l-3.03-1.22l1.87-0.24l3.16,1.28L723.14,596.43z"/>
<g>
	<path class="st12" d="M606.33,442.33c0.56,3.86-9.92,20.02-16.11,39.66c-2.27,7.2-3.97,14.87-4.33,22.57
		c-1.09,22.87,8.22,50.56,12.73,64.45c1.42,4.37,2.36,7.37,2.36,8.44c0,0,0.14,6.53-1.09,7.05c-2.01,0.85-10.51,3.76-14.89-0.09
		c0,0,0.67-9.3-3.55-12.64c-30.24-24.14-81.33-62.98-107.63-77.8c-34.81-19.62-156.73-61.2-169.97-64.61
		c-8.62-2.22-21.75-11.14-19.11-21.39c0.8-3.16,3.11-6.45,7.5-9.7c3.23-2.41,7.59-4.79,13.32-7.09c0.01-0.01,0.03-0.01,0.04-0.02
		c1.14-0.45,2.42-0.88,3.84-1.28c43.79-12.34,214.99,2.16,237.31,7.24c23.05,5.25,42.67,15.2,54.64,30.13
		C613.36,442.18,606.33,442.33,606.33,442.33z"/>
	<path class="st0" d="M610.84,428.98c0.6,4.16-6.93,34.09-11.46,57c-1.2,6.09-2.08,12.29-2.37,18.32
		c-1.42,29.88,2.04,60.53,2.08,65.25c-0.04-0.1-0.2-0.28-0.47-0.54c-7.07-6.87-88.85-68.86-124.58-89
		c-29.04-16.36-118.73-48.02-155.33-60.05c-0.07-0.02-0.14-0.04-0.21-0.07l-0.24-0.08c-7.04-2.3-12.04-3.86-14.19-4.41
		c-3.11-0.8-6.36-2.11-9.01-3.78c-5.36-3.37-8.29-8.23-2.82-13.35c2.5-2.35,6.75-4.75,13.32-7.09c0.01-0.01,0.03-0.01,0.04-0.02
		c1.2-0.43,2.48-0.85,3.84-1.28c1.1-0.34,2.25-0.68,3.46-1.02c37.67-10.58,211.02-10.94,234.07-5.7
		c23.05,5.25,42.67,15.2,54.64,30.13C613.58,428.23,610.84,428.98,610.84,428.98z"/>
</g>
<g>
	<path class="st12" d="M608.38,562.48c0,0,126.16-18.38,136.83-18.38c10.67,0,28.84,15.16,35.18,23.73
		c6.33,8.57,67.56,175.68,72.89,210.35s6.18,54.77,4.68,62.97c-1.85,10.07-6.46,25.92-26.9,3.7S729.86,712.8,695.94,670.63
		c-21.93-27.26-36.17-44.53-58.07-68c-10.37-11.11-16-18.22-22.52-21.78c-6.78-3.7-21.31-1.15-21.31-1.15
		C593.11,569.89,605.39,563.51,608.38,562.48z"/>
	<path class="st0" d="M616.43,557.68c0,0,123.17-23.65,133.83-23.65c10.67,0,28.84,15.16,35.18,23.73
		c6.33,8.57,67.56,175.68,72.89,210.35c5.33,34.67,1.49,60.21,0.56,67.11c-1.32,9.79-2.33,21.78-22.78-0.44
		C815.67,812.56,734.92,702.72,701,660.56c-21.93-27.26-36.17-44.53-58.07-68c-10.37-11.11-16-18.22-22.52-21.78
		c-6.78-3.7-21.31-1.15-21.31-1.15C598.16,559.81,616.43,557.68,616.43,557.68z"/>
</g>
<path class="st14" d="M610.84,428.98c0.6,4.16-6.93,34.09-11.46,57l0,0c0,0-25.78-57.78-68.7-68.09s-211.97,2.07-211.97,2.07h-0.03
	l-0.18-0.07l-0.24-0.08l-23.2-8.19c-5.36-3.37-8.29-8.23-2.82-13.35c2.5-2.35,6.75-4.75,13.32-7.09c0.01-0.01,0.03-0.01,0.04-0.02
	c1.14-0.45,2.42-0.88,3.84-1.28c1.1-0.34,2.25-0.68,3.46-1.02c37.67-10.58,211.02-10.94,234.07-5.7
	c23.05,5.25,42.67,15.2,54.64,30.13C613.58,428.23,610.84,428.98,610.84,428.98z"/>
</svg>
