<?xml version="1.0" encoding="utf-8"?>
<!-- Generator: Adobe Illustrator 26.0.3, SVG Export Plug-In . SVG Version: 6.00 Build 0)  -->
<svg version="1.1" id="Слой_1" xmlns="http://www.w3.org/2000/svg" xmlns:xlink="http://www.w3.org/1999/xlink" x="0px" y="0px"
	 viewBox="0 0 1080 1080" style="enable-background:new 0 0 1080 1080;" xml:space="preserve">
<style type="text/css">
	.st0{fill:url(#SVGID_1_);}
	.st1{fill:#FFBE55;}
	.st2{fill:#EA8B00;}
	.st3{fill:#D17200;}
	.st4{fill:#AA6900;}
	.st5{fill:#CC8D00;}
	.st6{fill:#9B5800;}
	.st7{fill:#E2A700;}
	.st8{fill:#FFD400;}
	.st9{fill:#E87400;}
	.st10{fill:#FF9700;}
	.st11{fill:#E5B900;}
	.st12{fill:none;}
	.st13{fill:url(#SVGID_00000087403303857966877430000008292115286561080246_);}
	.st14{fill:url(#SVGID_00000038372074757975584620000005650723302142960285_);}
	.st15{fill:url(#SVGID_00000003793887092533698890000002511880109188844957_);}
	.st16{fill:url(#SVGID_00000062871853065351903340000013534818046078388370_);}
	.st17{fill:url(#SVGID_00000033336971043558753640000012611508674381282220_);}
</style>
<g>
	<linearGradient id="SVGID_1_" gradientUnits="userSpaceOnUse" x1="540" y1="2837.6492" x2="540" y2="127.6445">
		<stop  offset="0.7029" style="stop-color:#C9FFFF"/>
		<stop  offset="1" style="stop-color:#96F5EB"/>
	</linearGradient>
	<path class="st0" d="M93.11,892.8c91.42,32,270.05,3.42,342.81-9.14c72.92-12.59,251.39-22.85,324.52,13.71
		c32.49,16.25,83.04,60.47,138.8,106.2h146.36V753.44c-80.92-39.89-136.61-123.2-136.61-219.52c0-96.32,55.68-179.63,136.61-219.52
		V72.15H34.4v786.53C56.8,874.68,76.66,887.04,93.11,892.8z"/>
	<path class="st1" d="M435.92,883.66c-72.76,12.56-251.39,41.14-342.81,9.14c-16.45-5.76-36.31-18.12-58.71-34.12v144.89h864.84
		c-55.76-45.73-106.3-89.95-138.8-106.2C687.31,860.8,508.84,871.07,435.92,883.66z"/>
	<path class="st10" d="M908.99,533.91c0,96.32,55.68,179.63,136.61,219.52V314.39C964.68,354.29,908.99,437.59,908.99,533.91z"/>
</g>
</svg>
