<?xml version="1.0" encoding="utf-8"?>
<!-- Generator: Adobe Illustrator 26.0.3, SVG Export Plug-In . SVG Version: 6.00 Build 0)  -->
<svg version="1.1" id="Слой_1" xmlns="http://www.w3.org/2000/svg" xmlns:xlink="http://www.w3.org/1999/xlink" x="0px" y="0px"
	 viewBox="0 0 1080 1080" style="enable-background:new 0 0 1080 1080;" xml:space="preserve">
<style type="text/css">
	.st0{fill:#E5E5E5;}
	.st1{fill:#96FF31;}
	.st2{fill:#84EA00;}
	.st3{fill:#A9B4B5;}
	.st4{fill:#869496;}
	.st5{fill:#EA5F00;}
	.st6{fill:#C65000;}
	.st7{fill:#FF7300;}
	.st8{fill:#899296;stroke:#54606D;stroke-width:15;stroke-miterlimit:10;}
	.st9{fill:#778389;stroke:#54606D;stroke-width:15;stroke-linecap:round;stroke-linejoin:round;stroke-miterlimit:10;}
	.st10{fill:#54606D;}
	.st11{fill:#FFBE2C;}
	.st12{fill:#FF9D00;}
	.st13{fill:#899296;}
	.st14{fill:#BCBFC1;}
	.st15{fill:#FFD488;}
	.st16{fill:#FF2A00;}
	.st17{fill:#DD0A00;}
	.st18{fill:#FFEEA9;}
	.st19{fill:#FFDC9F;}
	.st20{fill:#606A6D;stroke:#1C242B;stroke-width:30;stroke-miterlimit:10;}
	.st21{fill:#FFCF48;}
	.st22{fill:#FF7761;}
	.st23{fill:#606A6D;}
	.st24{fill:#005B77;}
	.st25{fill:#00404F;}
	.st26{fill:#9DA6A8;}
	.st27{fill:#384042;}
	.st28{fill:#00D6D6;}
	.st29{fill:#00F9EC;}
	.st30{fill:#606A6D;stroke:#1C242B;stroke-width:80;stroke-miterlimit:10;}
	.st31{fill:#606A6D;stroke:#1C242B;stroke-width:60;stroke-miterlimit:10;}
	.st32{fill:#00899B;}
	.st33{fill:#006A7C;}
	.st34{fill:#00BBC9;}
	.st35{fill:#FFDA00;}
	.st36{fill:#F7B000;}
	.st37{fill:#FFEA80;}
	.st38{fill:#7C9998;}
	.st39{fill:none;stroke:#B73800;stroke-width:8;stroke-miterlimit:10;}
	.st40{fill:#A1B2B1;}
	.st41{fill:#42727A;}
	.st42{fill:#B73800;}
	.st43{fill:#A1DB00;}
	.st44{fill:#76C100;}
	.st45{fill:#00AFA6;}
	.st46{fill:#006F77;}
	.st47{fill:#C14000;}
	.st48{fill:#FF6F0D;stroke:#CC2B00;stroke-width:4;stroke-miterlimit:10;}
	.st49{fill:#FFEB76;}
	.st50{fill:#FFD93B;}
	.st51{fill:#842500;}
	.st52{fill:#DFFF22;}
	.st53{fill:#6CF5FF;}
	.st54{fill:#00CFFF;}
	.st55{fill:#00A5F7;}
	.st56{fill:none;stroke:#9B00CE;stroke-width:3;stroke-miterlimit:10;}
	.st57{fill:none;stroke:#D376FF;stroke-width:3;stroke-miterlimit:10;}
	.st58{fill:none;stroke:#7400A5;stroke-width:3;stroke-miterlimit:10;}
	.st59{fill:#BBFDFF;}
	.st60{fill:#92FCFF;}
	.st61{fill:#A6FFFF;}
	.st62{fill:none;stroke:#F7ABFF;stroke-width:3;stroke-miterlimit:10;}
	.st63{fill:#D08DFF;}
	.st64{fill:#AF48FF;}
	.st65{fill:#7F00E2;}
	.st66{fill:#ECC2FF;}
	.st67{fill:#006FDD;}
	.st68{fill:#004FC1;}
	.st69{fill:#2A333A;stroke:#A0ACAF;stroke-width:30;stroke-miterlimit:10;}
	.st70{fill:#DB0000;}
	.st71{fill:#9B0000;}
	.st72{fill:#7C0000;}
	.st73{fill:#FF1F1F;}
	.st74{fill:#80C6FF;}
	.st75{fill:#E2E2E2;}
</style>
<g>
	<path class="st5" d="M130.47,671.76h277.28V532.54H193.58c-17.15,0-32.36,11.03-37.68,27.34L122.82,661.2
		C121.12,666.41,125,671.76,130.47,671.76z"/>
	<path class="st6" d="M347.74,532.54l-10.28,81.69c-2.04,16.22-15.83,28.39-32.18,28.39H128.89l-6.07,18.59
		c-1.7,5.21,2.18,10.56,7.66,10.56h277.28V532.54H347.74z"/>
	<path class="st7" d="M587.83,671.76H365.31l21.88-186.17c2-18.65,17.74-32.79,36.49-32.79h116.45c18.52,0,34.13,13.79,36.42,32.17
		l23.55,172.72C601.12,665.13,595.34,671.76,587.83,671.76z"/>
	<path class="st8" d="M625.32,819.98H104.96c-29.7,0-53.78-24.08-53.78-53.78v-11.78c0-29.7,24.08-53.78,53.78-53.78h520.36
		c29.7,0,53.78,24.08,53.78,53.78v11.78C679.09,795.9,655.02,819.98,625.32,819.98z"/>
	<rect x="113.69" y="760.31" class="st9" width="501.01" height="0"/>
	<circle class="st10" cx="162.94" cy="760.31" r="33.15"/>
	<circle class="st10" cx="251.49" cy="760.31" r="33.15"/>
	<circle class="st10" cx="565.5" cy="760.31" r="33.15"/>
	<circle class="st10" cx="478.67" cy="760.31" r="33.15"/>
	<path class="st5" d="M599.37,652.32H411.44c-14.84,0-26.35-12.94-24.62-27.68l18.62-158.49c0.37-3.43,1.2-6.7,2.43-9.77
		c-11.17,5.34-19.29,16.17-20.69,29.21l-21.88,186.17h222.52c7.51,0,13.29-6.62,12.28-14.06L599.37,652.32z"/>
	<path class="st11" d="M566.01,629.97L549.3,507.44c-1.62-13.03-12.7-22.82-25.83-22.82h-82.61c-13.3,0-24.47,10.03-25.89,23.26
		l-8.86,75.36c-0.92,7.82,2.45,15.53,8.81,20.17l36.92,26.9c8.59,6.26,18.94,9.63,29.56,9.63h75.9
		C562.62,639.94,566.73,635.24,566.01,629.97z"/>
	<path class="st11" d="M580.22,511.88c0,0,8.69-31.99,18.42-50.94s33.1-58.09,46.35-75.77c13.26-17.68,30.82-29.75,47.35-34.09
		c21.13-5.55,127.31-36.74,161.11-43.32c30.52-5.93,43.43,22.52,44.41,30.06c0.98,7.53,4.42,38.51-29.53,46.68
		c-39.16,9.41-104.96,25.2-104.96,25.2s-29.04,7.36-39.78,12.42c-10.73,5.05-20.57,14.45-30.31,24.62
		c-42.62,44.51-57.14,72.29-67.24,89.97S593,605.56,593,605.56L580.22,511.88z"/>
	<path class="st12" d="M897.87,337.82c-0.2-1.51-0.88-3.86-2.07-6.6c-0.97,12.14-6.68,28.44-29.94,34.03
		c-39.16,9.41-104.96,25.2-104.96,25.2s-29.04,7.36-39.78,12.42c-10.73,5.05-20.57,14.45-30.31,24.62
		c-42.62,44.51-57.14,72.29-67.24,89.97c-10.1,17.68-33.06,68.85-33.06,68.85l-0.11,0.19l2.6,19.05c0,0,22.96-51.17,33.06-68.85
		c10.1-17.68,24.62-45.46,67.24-89.97c9.74-10.17,19.57-19.57,30.31-24.62c10.73-5.05,39.78-12.42,39.78-12.42
		s65.8-15.78,104.96-25.2C902.29,376.34,898.85,345.36,897.87,337.82z"/>
	<path class="st11" d="M864.88,278.08l128.65,299.79c5.74,13.74,22.75,7.08,19.77-7.74l-59.18-267.75
		c-0.93-4.66-3.92-8.42-7.76-9.77l-69.46-32.04C868.05,257.46,860.73,268.13,864.88,278.08z"/>
	<circle class="st7" cx="855.48" cy="347.3" r="13.26"/>
	<circle class="st7" cx="1009.62" cy="592.2" r="19.2"/>
	<path class="st13" d="M997.31,611.41c-23.8,12.81-62.98,31.38-91.39,38.01c-42.41,9.9-83.75,14.69-90.45,14.84
		c-14.21,0.32-26.52-0.79-36.46-4.42c-8.38-3.06-21.31-11.36-21.31-11.36s2.13,14.68,14.21,34.09
		c12.08,19.42,42.4,65.11,74.45,74.35c32.06,9.23,65.35,8.52,94.3-1.42c15.36-5.28,39.71-14.68,60.07-38.83
		c29.45-34.93,22.62-105.25,22.62-105.25S1010.81,621,997.31,611.41z"/>
	<g>
		<path class="st14" d="M1023.36,611.41c0,0-12.55,9.59-26.04,0c-8.31,4.47-18.51,9.65-29.46,14.78
			c-0.56,23.67-4.75,59.53-23.24,81.45c-20.36,24.15-44.71,33.55-60.07,38.83c-14.21,4.88-29.46,7.52-45.1,7.87
			c2.29,1.02,4.6,1.9,6.92,2.57c32.06,9.23,65.35,8.52,94.3-1.42c15.36-5.28,39.71-14.68,60.07-38.83
			C1030.18,681.73,1023.36,611.41,1023.36,611.41z"/>
	</g>
	<path class="st12" d="M1013.3,570.13l-59.18-267.75c-0.93-4.66-3.92-8.42-7.76-9.77l-5.2-2.4c0.35,0.85,0.64,1.75,0.83,2.68
		l59.25,268.04c1.68,8.39-3.03,14.17-8.48,15.12l0.78,1.82C999.26,591.61,1016.27,584.95,1013.3,570.13z"/>
	<path class="st10" d="M1023.36,611.41c0,0-11.68,8.92-24.62,0.94c0.22,22.7-2.46,65.13-23.3,89.84
		c-20.36,24.15-44.71,33.55-60.07,38.83c-28.96,9.94-62.25,10.65-94.3,1.42c-0.14-0.04-0.28-0.09-0.42-0.14
		c8.21,6.75,16.9,12.06,25.72,14.6c32.06,9.23,65.35,8.52,94.3-1.42c15.36-5.28,39.71-14.68,60.07-38.83
		C1030.18,681.73,1023.36,611.41,1023.36,611.41z"/>
	<path class="st12" d="M494.45,630.56c-10.62,0-20.97-3.37-29.56-9.63l-36.92-26.9c-6.36-4.64-9.73-12.35-8.81-20.17l8.86-75.36
		c0.51-4.72,2.27-9.03,4.92-12.62c-9.59,3.06-16.85,11.52-17.97,22.01l-8.86,75.36c-0.92,7.82,2.45,15.53,8.81,20.17l36.92,26.9
		c8.59,6.26,18.94,9.63,29.56,9.63h75.9c5.12,0,9.1-4.35,8.76-9.38H494.45z"/>
	<g>
		<polygon class="st15" points="442,491.25 440.54,499.42 494.98,499.42 475.42,491.25 		"/>
		<path class="st15" d="M510.34,499.5c11.31,0.75,20.78,8.74,23.49,19.64l0.02,0.02l11.98,21.54l0,0l-3.63-26.63
			c-1.62-13.03-12.7-22.82-25.83-22.82h-29.05l23,8.23L510.34,499.5z"/>
	</g>
	<path class="st15" d="M872,320.55c-0.81-1.65-2.33-2.84-4.12-3.23l-4.07-0.89c-2.1-0.46-4.28-0.44-6.37,0.06l-82.68,19.72
		c-1.2,0.29-0.84,2.07,0.37,1.88l56.75-8.95l20.59-2.48c2.7-0.33,5.44-0.3,8.14,0.08l11.88,1.49c1.3,0.16,2.29-1.15,1.78-2.36
		L872,320.55z"/>
	<path class="st15" d="M946.77,361.96l-15.66-62.42c-0.04-0.15-0.09-0.3-0.15-0.44l-0.03-0.13c-0.22-0.87-0.83-1.6-1.66-1.97
		l-48.47-23.87c-1.59-0.71-3.5,0-4.08,1.63c-0.51,1.44,0.12,2.94,1.37,3.61l39.59,24.21c2.42,1.31,4.25,3.49,5.12,6.1l18.34,55.09
		c0.67,2,3.15,2.67,4.73,1.3C946.67,364.41,947.02,362.96,946.77,361.96z"/>
</g>
</svg>
