<?xml version="1.0" encoding="utf-8"?>
<!-- Generator: Adobe Illustrator 26.0.3, SVG Export Plug-In . SVG Version: 6.00 Build 0)  -->
<svg version="1.1" id="Слой_1" xmlns="http://www.w3.org/2000/svg" xmlns:xlink="http://www.w3.org/1999/xlink" x="0px" y="0px"
	 viewBox="0 0 1080 1080" style="enable-background:new 0 0 1080 1080;" xml:space="preserve">
<style type="text/css">
	.st0{fill:url(#SVGID_1_);}
	.st1{fill:#B7004B;}
	.st2{fill:#E6007E;}
	.st3{fill:#99003B;}
	.st4{fill:#CC0062;}
	.st5{fill:#FF2CAF;}
	.st6{fill:#00E7FF;}
	.st7{fill:#00BDFF;}
	.st8{fill:#0096F2;}
	.st9{fill:#6CF8FF;}
	.st10{fill:none;}
	.st11{fill:url(#SVGID_00000156549551932162404570000007767864067555653816_);}
	.st12{fill:url(#SVGID_00000144323463969589457390000017926715594639472563_);}
	.st13{fill:url(#SVGID_00000160163860459307245390000017039238749896917671_);}
	.st14{fill:url(#SVGID_00000180351448172742687530000011484940150281745054_);}
	.st15{fill:url(#SVGID_00000029755741525891341310000009037350871097418124_);}
	.st16{fill:url(#SVGID_00000142862044929426786150000011893745751498203814_);}
	.st17{fill:url(#SVGID_00000155840726325572477230000008844675786045851325_);}
	.st18{fill:url(#SVGID_00000007387136035818983790000007354652482245321619_);}
	.st19{fill:url(#SVGID_00000133527305969060818230000015274317632625577608_);}
	.st20{fill:url(#SVGID_00000039108978872193495490000012444923260520786818_);}
	.st21{fill:url(#SVGID_00000070824225030210138310000001666553095950352316_);}
	.st22{fill:url(#SVGID_00000163793797522492179180000006568216265980944784_);}
</style>
<g>
	<linearGradient id="SVGID_1_" gradientUnits="userSpaceOnUse" x1="466.4138" y1="1719.3201" x2="447.0257" y2="-583.0204">
		<stop  offset="0" style="stop-color:#6DE5FF"/>
		<stop  offset="0.0213" style="stop-color:#73E6FF"/>
		<stop  offset="0.2427" style="stop-color:#B0EDFF"/>
		<stop  offset="0.4052" style="stop-color:#D6F2FF"/>
		<stop  offset="0.4904" style="stop-color:#E5F4FF"/>
		<stop  offset="0.5935" style="stop-color:#E8EAFA"/>
		<stop  offset="0.7712" style="stop-color:#F1CEEC"/>
		<stop  offset="1" style="stop-color:#FFA1D5"/>
	</linearGradient>
	<path class="st0" d="M370.27,226.34c0,0-5.44,28.54-25.68,47.97c-33.37,39.6-86.01,54.05-126.35,55.55
		c-47.31,1.77-121.61-10.27-161.06-81.15v279.37c9.5,1.12,18.94,3.39,28.16,6.96c104.65,40.57,88.58,178.39,87.55,186.58l-0.03,0.31
		c2.12-3.08,80.22-116.61,180.51-82.82c1.82,0.62,3.67,1.27,5.48,1.99c5.79,2.23,11.27,4.93,16.48,8.05
		c34.16,20.46,55.17,58.77,56.81,102.11c0.51,13.78-0.93,28.1-4.52,42.49c-1.3,5.35-2.95,10.73-4.87,16.07l-0.03,0.14
		c-0.45,1.13-0.86,2.3-1.3,3.43C363.78,962.02,66.86,995.29,66.86,995.29s-3.6-3.99-9.69-11.25v38.85h336.56
		c9.15-8.97,19.4-16.18,30.93-20.85c35.99-14.57,73.51-4.6,93.8,20.85h337.2V42.24H358.3C376.9,105.31,385.77,174.59,370.27,226.34z
		"/>
	<path class="st2" d="M218.24,329.86c40.34-1.5,92.97-15.95,126.35-55.55c0,0-50.3,16.48-96.6,15.01
		c-46.3-1.47-100.41-20.71-119.46-72.46c-14.94-40.59-21.15-116.06-27.94-174.61H57.18v206.46
		C96.62,319.59,170.93,331.62,218.24,329.86z"/>
	<path class="st5" d="M247.98,289.31c46.3,1.47,96.6-15.01,96.6-15.01c20.25-19.43,25.68-47.97,25.68-47.97
		c15.5-51.75,6.63-121.03-11.97-184.1H100.59c6.79,58.55,13,134.02,27.94,174.61C147.58,268.61,201.68,287.85,247.98,289.31z"/>
	<path class="st6" d="M111.44,880.31l1.99-5.11l59.38-153.2c0,0,0-0.03,0.03-0.07l0.03-0.31c1.03-8.19,17.1-146.01-87.55-186.58
		c-9.22-3.57-18.66-5.84-28.16-6.96v38.45c4.82,2.34,8.7,5.74,11.27,10.18c7.18,12.43,2.1,29.68-11.27,44.38v228.73
		c18.63,13.51,37.06,24.21,52.48,29.86C110.24,879.88,110.85,880.09,111.44,880.31z"/>
	<path class="st6" d="M113.43,875.19l-1.99,5.11c37.94,13.64,97.03,26.78,164.99,10.79c69.03-16.25,144.98-77.72,144.98-77.72
		c0.45-1.13,0.86-2.3,1.3-3.43l0.03-0.14c1.92-5.35,3.56-10.73,4.87-16.07c3.6-14.39,5.04-28.71,4.52-42.49
		c-1.64-43.35-22.65-81.66-56.81-102.11c-5.21-3.12-10.69-5.83-16.48-8.05c-1.82-0.72-3.67-1.37-5.48-1.99
		c-100.3-33.79-178.39,79.74-180.51,82.82c-0.03,0.03-0.03,0.07-0.03,0.07L113.43,875.19z"/>
	<path class="st7" d="M424.67,1002.04c-11.53,4.66-21.78,11.88-30.93,20.85h41.03c3.38-1.78,7.12-3.24,11.17-4.22
		c12.15-2.94,23.84-1.03,31.35,4.22h41.18C498.17,997.45,460.65,987.48,424.67,1002.04z"/>
	<path class="st7" d="M421.41,813.38c0,0-75.95,61.47-144.98,77.72c-67.96,16-127.05,2.86-164.99-10.79
		c-0.59-0.21-1.2-0.43-1.78-0.64c-15.43-5.65-33.86-16.35-52.48-29.86v134.24c6.09,7.25,9.69,11.25,9.69,11.25
		S363.78,962.02,421.41,813.38z"/>
	<path class="st9" d="M68.45,576.7c-2.57-4.45-6.46-7.84-11.27-10.18v54.56C70.55,606.38,75.62,589.14,68.45,576.7z"/>
	<path class="st6" d="M445.94,1018.67c-4.05,0.98-7.8,2.44-11.17,4.22h42.52C469.78,1017.64,458.08,1015.73,445.94,1018.67z"/>
</g>
</svg>
