<?xml version="1.0" encoding="utf-8"?>
<!-- Generator: Adobe Illustrator 26.0.3, SVG Export Plug-In . SVG Version: 6.00 Build 0)  -->
<svg version="1.1" id="Слой_1" xmlns="http://www.w3.org/2000/svg" xmlns:xlink="http://www.w3.org/1999/xlink" x="0px" y="0px"
	 viewBox="0 0 1080 1080" style="enable-background:new 0 0 1080 1080;" xml:space="preserve">
<style type="text/css">
	.st0{fill:#0095E0;}
	.st1{fill:#0084DD;}
	.st2{fill:#00BEF9;}
	.st3{fill:#00A6EF;}
	.st4{fill:#E5E5E5;}
	.st5{fill:#C0FCFF;}
	.st6{fill:#97E4FF;}
	.st7{fill:#E9FEFF;}
	.st8{fill:#CE0000;}
	.st9{fill:#FFDA00;}
	.st10{fill:#FFB000;}
	.st11{fill:#FFEB99;}
	.st12{fill:url(#SVGID_1_);}
	.st13{fill:#E30613;}
	.st14{fill:#FF55DB;}
	.st15{fill:url(#SVGID_00000023975103154535883040000014777899913243795115_);}
	.st16{fill:url(#SVGID_00000163074802508105773050000009108329614229300610_);}
	.st17{fill:url(#SVGID_00000083803358708286122420000009143940340742212490_);}
	.st18{fill:#6600BF;}
	.st19{fill:url(#SVGID_00000088852151921307878360000006383561511732314288_);}
	.st20{fill:#3E0066;}
	.st21{fill:#FF92E5;}
	.st22{fill:url(#SVGID_00000154400818641804653940000000405622505675299513_);}
	.st23{fill:url(#SVGID_00000133516219401787680420000016884159120196575621_);}
	.st24{fill:url(#SVGID_00000023245116255066670000000014362570395258467741_);}
	.st25{fill:none;stroke:#410096;stroke-width:13;stroke-linecap:round;stroke-miterlimit:10;}
	.st26{fill:none;stroke:#3D0084;stroke-width:23;stroke-linecap:round;stroke-miterlimit:10;}
	.st27{fill:#00A867;}
	.st28{fill:#FFA6DD;}
	.st29{fill:#FF88D2;}
	.st30{fill:#00DB68;}
	.st31{fill:#008464;}
	.st32{fill:#FFB8E7;}
	.st33{fill:#FFD2F2;}
	.st34{fill:#FFC5EC;}
	.st35{fill:#FFE6FA;}
	.st36{fill:#E50016;}
	.st37{fill:#FF1F1F;}
	.st38{fill:#C6001D;}
	.st39{fill:url(#SVGID_00000097489718199104025760000001889532049050459291_);}
	.st40{fill:url(#SVGID_00000013900739572152499080000007597165465630668708_);}
	.st41{fill:#FF6155;}
	.st42{fill:#009640;}
	.st43{fill:#00C650;}
	.st44{fill:#007F2D;}
	.st45{fill:none;stroke:#A06600;stroke-width:20;stroke-linecap:round;stroke-miterlimit:10;}
	.st46{fill:none;stroke:#60352B;stroke-width:20;stroke-linecap:round;stroke-miterlimit:10;}
	.st47{fill:none;stroke:#6D3600;stroke-width:20;stroke-linecap:round;stroke-miterlimit:10;}
	.st48{fill:none;stroke:#60352B;stroke-width:15;stroke-linecap:round;stroke-miterlimit:10;}
	.st49{fill:#00F445;}
	.st50{fill:#FFCE00;}
	.st51{fill:#FFDE3B;}
	.st52{fill:#5B3800;}
	.st53{fill:#844200;}
	.st54{fill:#422700;}
	.st55{fill:#7F3900;}
	.st56{fill:#774600;}
	.st57{fill:#0088ED;}
	.st58{fill:#08C5FF;}
	.st59{fill:#006054;}
	.st60{fill:#00894B;}
	.st61{fill:#004C43;}
	.st62{fill:#007C4F;}
	.st63{fill:#009B3F;}
	.st64{fill:url(#SVGID_00000101796927544355987030000004269431131307356288_);}
	.st65{fill:url(#SVGID_00000077287232850288181220000010248812978588924311_);}
	.st66{fill:url(#SVGID_00000077298484160331078660000015322193215992716170_);}
	.st67{fill:url(#SVGID_00000095305419973988431760000007499172077313837452_);}
	.st68{fill:url(#SVGID_00000136378122051799653400000010553775722323265926_);}
	.st69{fill:url(#SVGID_00000134929468646066303340000000823998762178728080_);}
	.st70{fill:url(#SVGID_00000157272988457327115070000010403192565533950367_);}
	.st71{fill:url(#SVGID_00000129171815045860383630000001251346868039180421_);}
	.st72{fill:url(#SVGID_00000122708923969091326290000010315222231419379105_);}
	.st73{fill:url(#SVGID_00000019666405975908992940000012944014929304012724_);}
	.st74{fill:url(#SVGID_00000075868365531788908370000009165640076148257453_);}
	.st75{fill:url(#SVGID_00000050627880122239454940000000872138352604343962_);}
	.st76{fill:url(#SVGID_00000008113665119773135100000012138447736018274453_);}
	.st77{fill:url(#SVGID_00000082326188027850766020000017202175112193584787_);}
	.st78{fill:url(#SVGID_00000146466516183571064920000013754399756636383906_);}
	.st79{fill:url(#SVGID_00000045591953703262068800000004614864436888636550_);}
	.st80{fill:url(#SVGID_00000138543100311306559230000010714143457048972971_);}
	.st81{fill:url(#SVGID_00000072244585540930526130000012913704613301257398_);}
	.st82{fill:url(#SVGID_00000066481992926569952650000013537361758338848913_);}
	.st83{fill:url(#SVGID_00000003101735324462721730000011469886325956424876_);}
	.st84{fill:url(#SVGID_00000155857720905073821080000001332372790494224555_);}
	.st85{fill:url(#SVGID_00000013873801974085077580000001750913057036557471_);}
	.st86{fill:url(#SVGID_00000028306744147493355770000013690486268453428381_);}
	.st87{fill:url(#SVGID_00000161604803151858431680000014238362771945700744_);}
	.st88{fill:url(#SVGID_00000071522715749705806310000005776414100694687890_);}
	.st89{fill:url(#SVGID_00000101087771818165834630000006801105175940369050_);}
	.st90{fill:url(#SVGID_00000125563051123136331860000008543856660923158944_);}
	.st91{fill:url(#SVGID_00000050645014873602308820000010462064583711300500_);}
	.st92{fill:url(#SVGID_00000177456753351138492530000008426969783970961059_);}
	.st93{fill:url(#SVGID_00000014621873173306189950000000667290551316457102_);}
	.st94{fill:url(#SVGID_00000013191730884039345890000012216289224396796290_);}
	.st95{fill:url(#SVGID_00000144310403534450777300000002248625459664793475_);}
	.st96{fill:url(#SVGID_00000139272303254488014840000014133684586870807443_);}
	.st97{fill:url(#SVGID_00000052069018301137246550000015662121897438735780_);}
	.st98{fill:url(#SVGID_00000019656404329070892110000016654566789565909124_);}
	.st99{fill:url(#SVGID_00000145772402092992009640000010246091965436831135_);}
	.st100{fill:url(#SVGID_00000036935627737056137850000003975526547646646148_);}
	.st101{fill:url(#SVGID_00000183230589732593209890000004686227241417100209_);}
	.st102{fill:url(#SVGID_00000020393456000821794850000008139455191336695485_);}
	.st103{fill:url(#SVGID_00000090990260777405513830000009541563825775107461_);}
	.st104{fill:url(#SVGID_00000126297164232258450560000011017138821723069371_);}
	.st105{fill:url(#SVGID_00000098206592151396471080000004532414205338950846_);}
	.st106{fill:url(#SVGID_00000139283727476911194970000012097773076008697476_);}
	.st107{fill:url(#SVGID_00000104675584467272794210000015808880445824661150_);}
	.st108{fill:url(#SVGID_00000114772718645610273030000002661703168851764904_);}
	.st109{fill:url(#SVGID_00000062153467568066163210000014809170784189792703_);}
	.st110{fill:url(#SVGID_00000002370552649416472720000010783863331205159101_);}
	.st111{fill:url(#SVGID_00000013175545803983803180000018182514799285827757_);}
	.st112{fill:url(#SVGID_00000040554506713269820700000017310538888393351093_);}
	.st113{fill:url(#SVGID_00000183964633005307210430000013281230407094383286_);}
	.st114{fill:url(#SVGID_00000057142235525999481660000008724193475477117113_);}
	.st115{fill:#FFBC27;}
	.st116{fill:url(#SVGID_00000063623788088110485510000015203212488091719357_);}
	.st117{fill:url(#SVGID_00000154395501253470677120000014268064774641934502_);}
	.st118{fill:url(#SVGID_00000101822350639807543820000011139901480908488115_);}
	.st119{fill:url(#SVGID_00000085243697886189717290000006380323012110015896_);}
	.st120{fill:url(#SVGID_00000089566467733571719880000012624566341154166204_);}
	.st121{fill:url(#SVGID_00000155133762954039680120000009857822717376264880_);}
	.st122{fill:url(#SVGID_00000022558541133825260680000011126213002540358847_);}
	.st123{fill:url(#SVGID_00000112593979424626441900000010781727440881139331_);}
	.st124{fill:url(#SVGID_00000044871778359329677960000005415463186548647568_);}
	.st125{fill:url(#SVGID_00000044890550492298860440000006262859603676471940_);}
	.st126{fill:url(#SVGID_00000152236502551834439370000008467272938060933031_);}
	.st127{fill:url(#SVGID_00000026879281627457781110000008948267018919950763_);}
	.st128{fill:url(#SVGID_00000113316940003619935400000009975037251937621414_);}
	.st129{fill:url(#SVGID_00000064350019535301417560000015196394026457774521_);}
	.st130{fill:url(#SVGID_00000085241549584828083640000005455856320532529565_);}
	.st131{fill:url(#SVGID_00000133530312958353946600000008612297679053768356_);}
	.st132{fill:url(#SVGID_00000039100715020531466800000015523980226725269651_);}
	.st133{fill:url(#SVGID_00000086671337936951706810000001925815149632204186_);}
	.st134{fill:url(#SVGID_00000005244787307786204900000002127444363080348046_);}
	.st135{fill:url(#SVGID_00000118361893026825238680000012892050302837554104_);}
	.st136{fill:url(#SVGID_00000165204755549102141850000000172538473655015822_);}
	.st137{fill:url(#SVGID_00000132090361381802411370000004233000979817721474_);}
	.st138{fill:url(#SVGID_00000043440258779945026160000014516327807115754143_);}
	.st139{fill:url(#SVGID_00000065768602137630554300000014922011853387281820_);}
	.st140{fill:url(#SVGID_00000114043212598528925810000013849752736524687036_);}
	.st141{fill:url(#SVGID_00000169531335747650493400000000017405679767572918_);}
	.st142{fill:url(#SVGID_00000022520448010972433920000011897925656829705370_);}
	.st143{fill:url(#SVGID_00000094620441616146122970000013667051664828239801_);}
	.st144{fill:url(#SVGID_00000029009776243107431340000016985707857376608897_);}
	.st145{fill:url(#SVGID_00000120545918996446529210000012422245699819560879_);}
	.st146{fill:url(#SVGID_00000071525614843241144600000003378105936952850060_);}
	.st147{fill:url(#SVGID_00000021826514231805082120000000452525747847085500_);}
	.st148{fill:url(#SVGID_00000009571809713400074070000005419103875537593264_);}
	.st149{fill:url(#SVGID_00000093171547352022651090000013183116845036362633_);}
	.st150{fill:url(#SVGID_00000150091693244326923460000018036488060443354759_);}
	.st151{fill:url(#SVGID_00000168815050130036965310000006812375935174503564_);}
	.st152{fill:url(#SVGID_00000066476406616498035730000004912270313498372243_);}
	.st153{fill:url(#SVGID_00000129201351652073751310000003804376350074690234_);}
	.st154{fill:url(#SVGID_00000039851161985451456090000004528116343521009301_);}
	.st155{fill:url(#SVGID_00000062186221641587712080000016620963773945130172_);}
	.st156{fill:url(#SVGID_00000159428683854542064380000002143779855542376884_);}
	.st157{fill:url(#SVGID_00000134962553691993396460000000243026562384812218_);}
	.st158{fill:url(#SVGID_00000086672139098139091780000007734579741344939654_);}
	.st159{fill:url(#SVGID_00000016074877530992125070000012455898809851468192_);}
	.st160{fill:url(#SVGID_00000059281300312391699710000001310305204926829984_);}
	.st161{fill:url(#SVGID_00000112599763672003047430000002833270101512986538_);}
	.st162{fill:url(#SVGID_00000160175348662804368140000002960816656894768267_);}
	.st163{fill:url(#SVGID_00000044862967097880183080000003045297994970786691_);}
	.st164{fill:#FFC545;}
	.st165{fill:url(#SVGID_00000145761376448455432960000014399617184729409463_);}
	.st166{fill:url(#SVGID_00000130622520799967753710000001727552728640026256_);}
	.st167{fill:url(#SVGID_00000167361026376465702050000010053080619245439676_);}
	.st168{fill:url(#SVGID_00000003788244936982984630000017254211214232127131_);}
	.st169{fill:url(#SVGID_00000083805046634431593950000008624347476895059889_);}
	.st170{fill:url(#SVGID_00000030456283796285085230000003237491218345476012_);}
	.st171{fill:url(#SVGID_00000085929963510223016020000004717356884011887542_);}
	.st172{fill:url(#SVGID_00000150080955353980512480000018055429248070121653_);}
	.st173{fill:url(#SVGID_00000010268517738376726120000000451782453239359904_);}
	.st174{fill:url(#SVGID_00000052091418566981205810000014170232171880582285_);}
	.st175{fill:url(#SVGID_00000133500665703643913360000000732704844063427998_);}
	.st176{fill:url(#SVGID_00000103256152336650241380000006624819133054348948_);}
	.st177{fill:url(#SVGID_00000128465173769747032230000002246142322108934807_);}
	.st178{fill:url(#SVGID_00000085219380218288824840000007745562768542279582_);}
	.st179{fill:url(#SVGID_00000048497503651438884890000018259997576907000200_);}
	.st180{fill:url(#SVGID_00000062151259794337791790000017639717491921342372_);}
	.st181{fill:url(#SVGID_00000145757198802302612660000005351275993800718488_);}
	.st182{fill:url(#SVGID_00000018204986037863349010000006111009130196930689_);}
	.st183{fill:url(#SVGID_00000156587148460468049180000001074622264474707333_);}
	.st184{fill:url(#SVGID_00000149363967674624800300000011453462215243847069_);}
	.st185{fill:url(#SVGID_00000178889454678324551040000015348746987953732534_);}
	.st186{fill:url(#SVGID_00000052064011452472166640000004413019275227083665_);}
	.st187{fill:url(#SVGID_00000147913222479790627260000002649761030209082799_);}
	.st188{fill:url(#SVGID_00000103975132810056612150000016715543769433444009_);}
	.st189{fill:url(#SVGID_00000035520177610687596480000001684059052514022297_);}
	.st190{fill:url(#SVGID_00000157295716713486744170000005928479171692109697_);}
	.st191{fill:url(#SVGID_00000114768147614054049150000007299122284910950576_);}
	.st192{fill:url(#SVGID_00000105420832874757829640000001551808933339460529_);}
	.st193{fill:url(#SVGID_00000124851888416668988340000015352667966097318562_);}
	.st194{fill:url(#SVGID_00000028304759311210015080000000635546699025062333_);}
	.st195{fill:url(#SVGID_00000047047154234255291140000012726126229032930738_);}
	.st196{fill:url(#SVGID_00000136413782190346212960000001062270373270267039_);}
	.st197{fill:url(#SVGID_00000142150999760536618070000016488523303809481905_);}
	.st198{fill:url(#SVGID_00000075149157910872842230000002034112752325927315_);}
	.st199{fill:url(#SVGID_00000175296837854907496000000004103144347527621763_);}
	.st200{fill:url(#SVGID_00000018950551218986411010000018155301163055022997_);}
	.st201{fill:url(#SVGID_00000114771494546625870620000011597170552203367094_);}
	.st202{fill:url(#SVGID_00000000220379786409717300000014755615740599371931_);}
	.st203{fill:url(#SVGID_00000049938501888970290820000013447246990507246266_);}
	.st204{fill:url(#SVGID_00000098218700552265893200000009723606785477918386_);}
	.st205{fill:url(#SVGID_00000078040224251775910500000015795484708876496782_);}
	.st206{fill:url(#SVGID_00000083779715620281265800000009854592990732283065_);}
	.st207{fill:url(#SVGID_00000170972829838985083210000017954916334328670618_);}
	.st208{fill:url(#SVGID_00000080928422037949084630000000990626796708165307_);}
	.st209{fill:url(#SVGID_00000071557117975820104550000000774250021561082005_);}
	.st210{fill:url(#SVGID_00000115490560595636393030000009962441141888258742_);}
	.st211{fill:url(#SVGID_00000101793191442602487590000011632355127169812147_);}
	.st212{fill:url(#SVGID_00000003079856054463369340000001321415414572024192_);}
	.st213{fill:url(#SVGID_00000001637254022098337780000008463933990520890263_);}
	.st214{fill:url(#SVGID_00000093135974770573789910000011812817153821062570_);}
	.st215{fill:url(#SVGID_00000147205671041000088150000010963797353142076857_);}
	.st216{fill:url(#SVGID_00000183950196101121975220000004324636555185716360_);}
	.st217{fill:url(#SVGID_00000043442196515051780350000003269437179617942719_);}
	.st218{fill:url(#SVGID_00000144331549582697107200000005764000482808414117_);}
	.st219{fill:url(#SVGID_00000117650323976833230060000007906645640044214975_);}
	.st220{fill:url(#SVGID_00000052096417966716811090000016252588794627461050_);}
	.st221{fill:url(#SVGID_00000057121819719462974890000007281443247729770151_);}
	.st222{fill:url(#SVGID_00000117643681015475466810000016719982965451296926_);}
	.st223{fill:url(#SVGID_00000101087128057909696530000016352498413026497684_);}
	.st224{fill:url(#SVGID_00000011742673528764374780000017058388530080348574_);}
	.st225{fill:url(#SVGID_00000063602924852615213470000002995453963908655550_);}
	.st226{fill:url(#SVGID_00000121256697521387999140000015308217165355020452_);}
	.st227{fill:url(#SVGID_00000025411203522809407190000005343314107965233819_);}
	.st228{fill:url(#SVGID_00000044867275911294105710000004130660033436414899_);}
</style>
<g>
	<g>
		<g>
			<g>
				<g>
					<path class="st5" d="M599.57,267.73c0,125.96-23.62,207.89-52.76,207.89s-52.76-81.93-52.76-207.89s24.16-211.92,53.3-211.92
						S599.57,141.77,599.57,267.73z"/>
					<path class="st6" d="M502.09,227.37c0-54.14,5-100.51,14.85-135.8c-13.78,36.54-22.9,98.8-22.9,176.16
						c0,125.96,23.62,207.89,52.76,207.89c11.9,0,22.88-13.67,31.7-38.41C527.82,434.73,502.09,351.43,502.09,227.37z"/>
				</g>
				
					<ellipse transform="matrix(0.9911 -0.1334 0.1334 0.9911 -17.7362 77.222)" class="st7" cx="567.37" cy="170.96" rx="11.58" ry="80.39"/>
			</g>
			<ellipse class="st8" cx="546.81" cy="522.58" rx="12.96" ry="12.49"/>
		</g>
	</g>
	<g>
		<g>
			<g>
				<g>
					<path class="st5" d="M726.17,329.93c-62.98,109.08-124.4,168.23-149.64,153.66s-4.73-97.33,58.25-206.42
						s126.89-171.45,152.12-156.88S789.15,220.85,726.17,329.93z"/>
					<path class="st6" d="M661.94,246.23c27.07-46.89,54.59-84.54,80.76-110.17c-30.21,24.75-69.23,74.12-107.91,141.11
						c-62.98,109.08-83.49,191.85-58.25,206.42c10.3,5.95,26.64-0.4,46.66-17.41C580.54,438.68,599.9,353.68,661.94,246.23z"/>
				</g>
				
					<ellipse transform="matrix(0.38 -0.925 0.925 0.38 250.1719 833.2833)" class="st7" cx="746.67" cy="230.03" rx="80.39" ry="11.58"/>
			</g>
			
				<ellipse transform="matrix(0.5 -0.866 0.866 0.5 -177.4933 741.0865)" class="st8" cx="553.05" cy="524.26" rx="12.49" ry="12.96"/>
		</g>
	</g>
	<g>
		<g>
			<g>
				<g>
					<path class="st5" d="M804.71,447.1c-109.08,62.98-191.85,83.49-206.42,58.25c-14.57-25.23,44.57-86.66,153.66-149.64
						s195.61-85.04,210.18-59.8C976.7,321.14,913.8,384.12,804.71,447.1z"/>
					<path class="st6" d="M790.93,342.49c46.89-27.07,89.55-45.92,125.03-55.03c-38.53,6.33-97.01,29.57-164.01,68.25
						c-109.08,62.98-168.23,124.4-153.66,149.64c5.95,10.3,23.27,12.98,49.11,8.25C624.21,468.46,683.49,404.53,790.93,342.49z"/>
				</g>
				
					<ellipse transform="matrix(0.7916 -0.6111 0.6111 0.7916 -44.7691 610.3963)" class="st7" cx="872.42" cy="370.83" rx="80.39" ry="11.58"/>
			</g>
			
				<ellipse transform="matrix(0.866 -0.5 0.5 0.866 -189.7066 349.6617)" class="st8" cx="557.62" cy="528.83" rx="12.49" ry="12.96"/>
		</g>
	</g>
	<g>
		<g>
			<g>
				<g>
					<path class="st5" d="M814.15,587.83c-125.96,0-207.89-23.62-207.89-52.76c0-29.14,81.93-52.76,207.89-52.76
						s211.92,24.16,211.92,53.3S940.11,587.83,814.15,587.83z"/>
					<path class="st6" d="M854.51,490.36c54.14,0,100.51,5,135.8,14.85c-36.54-13.78-98.8-22.9-176.16-22.9
						c-125.96,0-207.89,23.62-207.89,52.76c0,11.9,13.67,22.88,38.41,31.7C647.15,516.09,730.45,490.36,854.51,490.36z"/>
				</g>
				
					<ellipse transform="matrix(0.9911 -0.1334 0.1334 0.9911 -65.9851 126.4933)" class="st7" cx="910.92" cy="555.64" rx="80.39" ry="11.58"/>
			</g>
			<ellipse class="st8" cx="559.3" cy="535.07" rx="12.49" ry="12.96"/>
		</g>
	</g>
	<g>
		<g>
			<g>
				<g>
					<path class="st5" d="M751.95,714.43c-109.08-62.98-168.23-124.4-153.66-149.64c14.57-25.23,97.33-4.73,206.42,58.25
						s171.45,126.89,156.88,152.12C947.02,800.41,861.03,777.41,751.95,714.43z"/>
					<path class="st6" d="M835.65,650.2c46.89,27.07,84.54,54.59,110.17,80.76c-24.75-30.21-74.12-69.23-141.11-107.91
						c-109.08-62.98-191.85-83.49-206.42-58.25c-5.95,10.3,0.4,26.64,17.41,46.66C643.2,568.8,728.21,588.17,835.65,650.2z"/>
				</g>
				
					<ellipse transform="matrix(0.38 -0.925 0.925 0.38 -151.6537 1243.6235)" class="st7" cx="851.86" cy="734.94" rx="11.58" ry="80.39"/>
			</g>
			
				<ellipse transform="matrix(0.5 -0.866 0.866 0.5 -189.9817 753.575)" class="st8" cx="557.62" cy="541.32" rx="12.96" ry="12.49"/>
		</g>
	</g>
	<g>
		<g>
			<g>
				<g>
					<path class="st5" d="M634.79,792.97c-62.98-109.08-83.49-191.85-58.25-206.42c25.23-14.57,86.66,44.57,149.64,153.66
						s85.04,195.61,59.8,210.18C760.74,964.97,697.77,902.06,634.79,792.97z"/>
					<path class="st6" d="M739.39,779.19c27.07,46.89,45.92,89.55,55.03,125.03c-6.33-38.53-29.57-97.01-68.25-164.01
						c-62.98-109.08-124.4-168.23-149.64-153.66c-10.3,5.95-12.98,23.27-8.25,49.11C613.42,612.48,677.36,671.75,739.39,779.19z"/>
				</g>
				
					<ellipse transform="matrix(0.7916 -0.6111 0.6111 0.7916 -377.7372 613.8871)" class="st7" cx="711.05" cy="860.68" rx="11.58" ry="80.39"/>
			</g>
			
				<ellipse transform="matrix(0.866 -0.5 0.5 0.866 -198.8487 349.6617)" class="st8" cx="553.05" cy="545.89" rx="12.96" ry="12.49"/>
		</g>
	</g>
	<g>
		<g>
			<g>
				<g>
					<path class="st5" d="M494.05,802.41c0-125.96,23.62-207.89,52.76-207.89s52.76,81.93,52.76,207.89s-24.16,211.92-53.3,211.92
						S494.05,928.37,494.05,802.41z"/>
					<path class="st6" d="M591.53,842.78c0,54.14-5.01,100.51-14.85,135.8c13.78-36.54,22.9-98.8,22.9-176.16
						c0-125.96-23.62-207.89-52.76-207.89c-11.9,0-22.88,13.67-31.7,38.41C565.79,635.41,591.53,718.71,591.53,842.78z"/>
				</g>
				
					<ellipse transform="matrix(0.9911 -0.1334 0.1334 0.9911 -115.2564 78.2444)" class="st7" cx="526.24" cy="899.18" rx="11.58" ry="80.39"/>
			</g>
			<ellipse class="st8" cx="546.81" cy="547.56" rx="12.96" ry="12.49"/>
		</g>
	</g>
	<g>
		<g>
			<g>
				<g>
					<path class="st5" d="M367.45,740.21c62.98-109.08,124.4-168.23,149.64-153.66c25.23,14.57,4.73,97.33-58.25,206.42
						S331.95,964.43,306.71,949.86C281.48,935.29,304.47,849.3,367.45,740.21z"/>
					<path class="st6" d="M431.68,823.91c-27.07,46.89-54.59,84.54-80.76,110.17c30.21-24.75,69.23-74.12,107.91-141.11
						c62.98-109.08,83.49-191.85,58.25-206.42c-10.3-5.95-26.64,0.4-46.66,17.41C513.08,631.46,493.71,716.47,431.68,823.91z"/>
				</g>
				
					<ellipse transform="matrix(0.38 -0.925 0.925 0.38 -561.9938 841.7979)" class="st7" cx="346.94" cy="840.12" rx="80.39" ry="11.58"/>
			</g>
			
				<ellipse transform="matrix(0.5 -0.866 0.866 0.5 -202.4702 741.0866)" class="st8" cx="540.56" cy="545.89" rx="12.49" ry="12.96"/>
		</g>
	</g>
	<g>
		<g>
			<g>
				<g>
					<path class="st5" d="M288.91,623.05c109.08-62.98,191.85-83.49,206.42-58.25s-44.57,86.66-153.66,149.64
						s-195.61,85.04-210.18,59.8C116.92,749,179.82,686.03,288.91,623.05z"/>
					<path class="st6" d="M302.69,727.65c-46.89,27.07-89.55,45.92-125.03,55.03c38.53-6.33,97.01-29.57,164.01-68.25
						c109.08-62.98,168.23-124.4,153.66-149.64c-5.95-10.3-23.27-12.98-49.11-8.25C469.41,601.68,410.13,665.62,302.69,727.65z"/>
				</g>
				
					<ellipse transform="matrix(0.7916 -0.6111 0.6111 0.7916 -381.228 280.9189)" class="st7" cx="221.2" cy="699.32" rx="80.39" ry="11.58"/>
			</g>
			
				<ellipse transform="matrix(0.866 -0.5 0.5 0.866 -198.8487 340.5195)" class="st8" cx="535.99" cy="541.32" rx="12.49" ry="12.96"/>
		</g>
	</g>
	<g>
		<g>
			<g>
				<g>
					<path class="st5" d="M279.47,482.31c125.96,0,207.89,23.62,207.89,52.76c0,29.14-81.93,52.76-207.89,52.76
						s-211.92-24.16-211.92-53.3S153.51,482.31,279.47,482.31z"/>
					<path class="st6" d="M239.1,579.79c-54.14,0-100.51-5.01-135.8-14.85c36.54,13.78,98.8,22.9,176.16,22.9
						c125.96,0,207.89-23.62,207.89-52.76c0-11.9-13.67-22.88-38.41-31.7C446.47,554.06,363.17,579.79,239.1,579.79z"/>
				</g>
				
					<ellipse transform="matrix(0.9911 -0.1334 0.1334 0.9911 -67.0075 28.9731)" class="st7" cx="182.7" cy="514.51" rx="80.39" ry="11.58"/>
			</g>
			<ellipse class="st8" cx="534.32" cy="535.07" rx="12.49" ry="12.96"/>
		</g>
	</g>
	<g>
		<g>
			<g>
				<g>
					<path class="st5" d="M341.67,355.71c109.08,62.98,168.23,124.4,153.66,149.64c-14.57,25.23-97.33,4.73-206.42-58.25
						S117.46,320.21,132.03,294.97C146.59,269.74,232.58,292.73,341.67,355.71z"/>
					<path class="st6" d="M257.97,419.95c-46.89-27.07-84.54-54.59-110.17-80.76c24.75,30.21,74.12,69.23,141.11,107.91
						c109.08,62.98,191.85,83.49,206.42,58.25c5.95-10.3-0.4-26.64-17.41-46.66C450.42,501.34,365.41,481.98,257.97,419.95z"/>
				</g>
				
					<ellipse transform="matrix(0.38 -0.925 0.925 0.38 -160.1683 431.4578)" class="st7" cx="241.76" cy="335.21" rx="11.58" ry="80.39"/>
			</g>
			
				<ellipse transform="matrix(0.5 -0.866 0.866 0.5 -189.9818 728.5981)" class="st8" cx="535.99" cy="528.83" rx="12.96" ry="12.49"/>
		</g>
	</g>
	<g>
		<g>
			<g>
				<g>
					<path class="st5" d="M458.83,277.17c62.98,109.08,83.49,191.85,58.25,206.42s-86.66-44.57-149.64-153.66
						s-85.04-195.61-59.8-210.18S395.85,168.09,458.83,277.17z"/>
					<path class="st6" d="M354.23,290.95c-27.07-46.89-45.92-89.55-55.03-125.03c6.33,38.53,29.57,97.01,68.25,164.01
						c62.98,109.08,124.4,168.23,149.64,153.66c10.3-5.95,12.98-23.27,8.25-49.11C480.2,457.67,416.26,398.39,354.23,290.95z"/>
				</g>
				
					<ellipse transform="matrix(0.7916 -0.6111 0.6111 0.7916 -48.2598 277.4281)" class="st7" cx="382.56" cy="209.46" rx="11.58" ry="80.39"/>
			</g>
			
				<ellipse transform="matrix(0.866 -0.5 0.5 0.866 -189.7066 340.5195)" class="st8" cx="540.56" cy="524.26" rx="12.96" ry="12.49"/>
		</g>
	</g>
	<g>
		<g>
			<g>
				<g>
					<path class="st5" d="M599.57,267.73c0,125.96-23.62,207.89-52.76,207.89s-52.76-81.93-52.76-207.89s24.16-211.92,53.3-211.92
						S599.57,141.77,599.57,267.73z"/>
					<path class="st6" d="M502.09,227.37c0-54.14,5-100.51,14.85-135.8c-13.78,36.54-22.9,98.8-22.9,176.16
						c0,125.96,23.62,207.89,52.76,207.89c11.9,0,22.88-13.67,31.7-38.41C527.82,434.73,502.09,351.43,502.09,227.37z"/>
				</g>
				
					<ellipse transform="matrix(0.9911 -0.1334 0.1334 0.9911 -17.7362 77.222)" class="st7" cx="567.37" cy="170.96" rx="11.58" ry="80.39"/>
			</g>
			<ellipse class="st8" cx="546.81" cy="522.58" rx="12.96" ry="12.49"/>
		</g>
	</g>
</g>
<ellipse class="st9" cx="546.81" cy="529.02" rx="83.24" ry="80.23"/>
<path class="st10" d="M568.19,582.47c-45.97,0-83.24-35.92-83.24-80.23c0-12.33,2.89-24.01,8.05-34.45
	c-18.35,14.72-30.04,36.89-30.04,61.7c0,44.31,37.27,80.23,83.24,80.23c33.18,0,62.08-18.49,75.46-45.55
	C607.23,575.73,588.42,582.47,568.19,582.47z"/>
<ellipse class="st11" cx="546.81" cy="501.49" rx="21.89" ry="21.1"/>
</svg>
