<?xml version="1.0" encoding="utf-8"?>
<!-- Generator: Adobe Illustrator 26.0.3, SVG Export Plug-In . SVG Version: 6.00 Build 0)  -->
<svg version="1.1" id="Слой_1" xmlns="http://www.w3.org/2000/svg" xmlns:xlink="http://www.w3.org/1999/xlink" x="0px" y="0px"
	 viewBox="0 0 1080 1080" style="enable-background:new 0 0 1080 1080;" xml:space="preserve">
<style type="text/css">
	.st0{fill:url(#SVGID_1_);}
	.st1{fill:#FF7B22;}
	.st2{fill:#FF761A;}
	.st3{fill:#934200;}
	.st4{fill:#FFD7A6;}
	.st5{fill:#FF4D1D;}
	.st6{fill:#661300;}
	.st7{fill:#FFEDD9;}
	.st8{fill:#FFB380;}
	.st9{fill:none;}
	.st10{fill:url(#SVGID_00000106133894006111961050000016966664320819344562_);}
	.st11{fill:url(#SVGID_00000136373571847005085600000013017409568729723816_);}
	.st12{fill:url(#SVGID_00000075857371453372222960000005744883066891661732_);}
	.st13{fill:url(#SVGID_00000003818804331590045920000015199360928113536914_);}
	.st14{fill:url(#SVGID_00000091696374287358923690000018064864187327377316_);}
	.st15{fill:url(#SVGID_00000101061760037562698120000006304985694515575712_);}
	.st16{fill:url(#SVGID_00000139274704581942478710000014326435525897912500_);}
	.st17{fill:url(#SVGID_00000092450212167640813650000008531518732108692385_);}
	.st18{fill:url(#SVGID_00000107578377084134325040000003127675278031577515_);}
	.st19{fill:url(#SVGID_00000109717314881411412970000012663023576837585335_);}
	.st20{fill:url(#SVGID_00000141453302285926435440000006300167752526555305_);}
	.st21{fill:url(#SVGID_00000151512018357390543250000008081069104535715725_);}
	.st22{fill:url(#SVGID_00000121981412221508091370000004404527466933152694_);}
	.st23{fill:url(#SVGID_00000047052388582004995570000013268736894321215918_);}
	.st24{fill:url(#SVGID_00000053528723556610389940000005791414028038357637_);}
	.st25{fill:url(#SVGID_00000182496327592419429860000014751010042085435271_);}
	.st26{fill:url(#SVGID_00000021084467483141277640000007146024589995056291_);}
	.st27{fill:url(#SVGID_00000034079220691542772200000013193294102279902080_);}
</style>
<g>
	<rect x="897.75" y="55.45" class="st9" width="0.37" height="984.07"/>
	<radialGradient id="SVGID_1_" cx="-343.0757" cy="549.6505" r="1240.8263" gradientUnits="userSpaceOnUse">
		<stop  offset="0.0112" style="stop-color:#B0FFB3"/>
		<stop  offset="0.2301" style="stop-color:#ADFEB3"/>
		<stop  offset="0.3886" style="stop-color:#A4FBB1"/>
		<stop  offset="0.5282" style="stop-color:#94F6AF"/>
		<stop  offset="0.6569" style="stop-color:#7EEEAC"/>
		<stop  offset="0.778" style="stop-color:#61E5A9"/>
		<stop  offset="0.8919" style="stop-color:#3ED9A4"/>
		<stop  offset="1" style="stop-color:#15CC9F"/>
	</radialGradient>
	<path class="st0" d="M134.07,892.32c3.37-19.05,5.3-39.73,6.08-61.42c0.7-19.01,0.44-38.77-0.48-58.86
		c-0.23-4.84-0.51-9.69-0.82-14.56c-0.05-0.86-0.11-1.72-0.17-2.57c-1.05-15.7-2.52-31.52-4.31-47.21
		c-4.25-37.83-10.39-75.11-17.27-109c-0.05-0.25-0.1-0.49-0.15-0.74c-0.45-2.19-0.89-4.36-1.34-6.52c-0.09-0.41-0.17-0.81-0.26-1.22
		c-1.36-6.45-2.73-12.77-4.13-18.93c-0.11-0.5-0.22-1-0.34-1.49c-0.38-1.67-0.76-3.32-1.14-4.96c-0.2-0.87-0.4-1.74-0.61-2.6
		c-0.37-1.56-0.73-3.1-1.1-4.64c-0.21-0.88-0.42-1.75-0.63-2.62c-0.37-1.53-0.74-3.07-1.11-4.57c-0.16-0.64-0.32-1.27-0.48-1.91
		c-0.73-2.95-1.46-5.84-2.2-8.69c-0.21-0.81-0.42-1.62-0.62-2.42c-0.35-1.35-0.7-2.68-1.05-4c-0.24-0.91-0.48-1.82-0.72-2.72
		c-0.34-1.27-0.68-2.52-1.02-3.76c-0.25-0.92-0.5-1.84-0.76-2.75c-0.33-1.21-0.67-2.42-1-3.6c-0.27-0.96-0.54-1.9-0.81-2.85
		c-0.53-1.87-1.07-3.71-1.6-5.52c-0.31-1.05-0.62-2.1-0.92-3.13c-0.28-0.95-0.57-1.88-0.85-2.81c-0.31-1.01-0.61-2.02-0.92-3.01
		c-0.27-0.86-0.53-1.72-0.8-2.57c-0.34-1.07-0.67-2.12-1.01-3.17c-0.23-0.72-0.46-1.44-0.69-2.14c-0.56-1.71-1.11-3.39-1.66-5.02
		c-2.66-7.86-5.81-16.16-9.36-24.77v573.95h3.98c11.07-26.57,21.05-51.87,29.21-74.74C123.28,936.02,130.73,911.12,134.07,892.32z"
		/>
	
		<radialGradient id="SVGID_00000151517876828121169160000010428490853959327913_" cx="-343.0757" cy="549.6505" r="1240.8263" gradientUnits="userSpaceOnUse">
		<stop  offset="0.0112" style="stop-color:#B0FFB3"/>
		<stop  offset="0.2301" style="stop-color:#ADFEB3"/>
		<stop  offset="0.3886" style="stop-color:#A4FBB1"/>
		<stop  offset="0.5282" style="stop-color:#94F6AF"/>
		<stop  offset="0.6569" style="stop-color:#7EEEAC"/>
		<stop  offset="0.778" style="stop-color:#61E5A9"/>
		<stop  offset="0.8919" style="stop-color:#3ED9A4"/>
		<stop  offset="1" style="stop-color:#15CC9F"/>
	</radialGradient>
	<path style="fill:url(#SVGID_00000151517876828121169160000010428490853959327913_);" d="M492.88,55.45
		c10.38,19.88,20.65,41.43,30.42,64.87l0.07,0.07c38.07,91.37,68.65,211.09,68.65,369.95c0,190.93-42.92,330.66-96.37,432.37
		c-24.36,46.45-50.93,84.96-76.6,116.81h478.71V55.45H492.88z"/>
	<path class="st2" d="M139.67,772.05c-0.23-4.84-0.51-9.69-0.82-14.56C139.16,762.35,139.44,767.21,139.67,772.05z"/>
	<path class="st2" d="M540.61,364.1c5.77-74.72-17.31-243.78-17.31-243.78c-9.77-23.43-20.04-44.99-30.42-64.87H418.2
		c-20.98,18.04-53.3-9.52-60.43,21.42c-8.27,35.69,36.58,101.63,36.58,123.54c0,21.91,0,37.33-31.65,54.38
		c-31.65,17.01-81.29,25.8-98.82-31.32c-17.57-57.12,0-106.53,0-141.67c0-7.39-0.88-16.43-2.3-26.35H79.82v160.77
		c17.86,11.44,33.44,22.8,44.65,33.6c50.42,48.61,114.67,184.52,119.61,258.24c35.14-13.94,3.3-84.7,54.38-103.38
		c51.04-18.68,78.13,3.41,95.89,32.95c17.75,29.54,0,87.85,0,112.01c0,24.17,45.22,80.17,32.58,115.31
		c-12.6,35.14-33.25,21.98-64.24,9.9c-30.99-12.08-66.98-25.24-103.78-14.83c-27.8,7.86-90.33,78.1-119.24,112.01
		c0.93,20.09,1.19,39.85,0.48,58.86c11.9,1.37,28.84,1.93,44.63-2.74c28.28-8.34,29.65-47.89,54.38-37.99
		c24.69,9.9,24.69,13.38,24.69,37.99c0,24.61-10.97,56.41-24.69,75.5c-13.75,19.05-30.73,43.59-54.38,47.96
		c-23.24,4.26-70.2,12.86-71.76,13.16c-8.16,22.86-18.14,48.17-29.21,74.74h193.82c69-80.45,173.33-216.08,195.37-268.7
		C503.54,697.92,534.84,438.82,540.61,364.1z"/>
	<path class="st2" d="M134.37,707.7c1.79,15.7,3.26,31.51,4.31,47.21c-1.04-15.67-2.49-31.45-4.26-47.14L134.37,707.7z"/>
	<path class="st3" d="M101.94,533.39c-0.24-0.91-0.48-1.82-0.72-2.72C101.45,531.57,101.69,532.48,101.94,533.39z"/>
	<path class="st3" d="M115.6,591.44c-0.09-0.41-0.17-0.81-0.26-1.22C115.43,590.62,115.52,591.03,115.6,591.44z"/>
	<path class="st3" d="M106.29,550.4c-0.16-0.64-0.32-1.27-0.48-1.91C105.97,549.13,106.13,549.76,106.29,550.4z"/>
	<path class="st3" d="M98.44,520.56c-0.27-0.96-0.54-1.9-0.81-2.85C97.9,518.65,98.17,519.59,98.44,520.56z"/>
	<path class="st3" d="M111.22,571.29c-0.11-0.5-0.22-1-0.34-1.49C110.99,570.29,111.11,570.79,111.22,571.29z"/>
	<path class="st3" d="M117.1,598.69c-0.05-0.25-0.1-0.49-0.15-0.74C117,598.2,117.05,598.45,117.1,598.69z"/>
	<path class="st3" d="M103.61,539.81c-0.21-0.81-0.42-1.62-0.62-2.42C103.2,538.19,103.4,539,103.61,539.81z"/>
	<path class="st3" d="M108.03,557.59c-0.21-0.88-0.42-1.75-0.63-2.62C107.61,555.85,107.82,556.72,108.03,557.59z"/>
	<path class="st3" d="M109.74,564.83c-0.2-0.87-0.4-1.74-0.61-2.6C109.33,563.09,109.53,563.96,109.74,564.83z"/>
	<path class="st3" d="M96.03,512.19c-0.31-1.05-0.62-2.1-0.92-3.13C95.41,510.08,95.72,511.14,96.03,512.19z"/>
	<path class="st3" d="M100.19,526.9c-0.25-0.92-0.5-1.84-0.76-2.75C99.69,525.07,99.94,525.98,100.19,526.9z"/>
	<path class="st3" d="M92.54,500.67c-0.34-1.07-0.67-2.12-1.01-3.17C91.86,498.55,92.2,499.6,92.54,500.67z"/>
	<path class="st3" d="M94.26,506.25c-0.31-1.01-0.61-2.02-0.92-3.01C93.64,504.23,93.95,505.23,94.26,506.25z"/>
	<path class="st3" d="M90.84,495.36c-0.56-1.71-1.11-3.39-1.66-5.02C89.73,491.97,90.29,493.65,90.84,495.36z"/>
	<path class="st3" d="M211.95,658.4c-27.99,39.52-77.51,49.41-77.51,49.41l-0.03-0.04c1.77,15.69,3.22,31.47,4.26,47.14
		c0.06,0.86,0.11,1.72,0.17,2.57c0.31,4.87,0.6,9.73,0.82,14.56c28.91-33.92,91.44-104.16,119.24-112.01
		c36.81-10.42,72.8,2.74,103.78,14.83c30.99,12.08,51.63,25.24,64.24-9.9c12.64-35.14-32.58-91.14-32.58-115.31
		c0-24.17,17.75-82.47,0-112.01c-17.75-29.54-44.85-51.63-95.89-32.95c-51.08,18.68-19.24,89.44-54.38,103.38
		C249.02,581.78,239.94,618.88,211.95,658.4z"/>
	<path class="st3" d="M263.87,223.47c17.53,57.12,67.16,48.33,98.82,31.32c31.65-17.05,31.65-32.47,31.65-54.38
		c0-21.91-44.85-87.85-36.58-123.54c7.13-30.95,39.45-3.39,60.43-21.42H261.57c1.42,9.92,2.3,18.97,2.3,26.35
		C263.87,116.94,246.3,166.35,263.87,223.47z"/>
	<path class="st3" d="M113.02,964.79c1.56-0.3,48.52-8.9,71.76-13.16c23.65-4.37,40.62-28.91,54.38-47.96
		c13.71-19.09,24.69-50.89,24.69-75.5c0-24.61,0-28.1-24.69-37.99c-24.72-9.9-26.09,29.65-54.38,37.99
		c-15.79,4.67-32.73,4.11-44.63,2.74c-0.78,21.68-2.71,42.37-6.08,61.42C130.73,911.12,123.28,936.02,113.02,964.79z"/>
	<path class="st3" d="M90.84,495.36c0.23,0.7,0.46,1.43,0.69,2.14c0.33,1.04,0.67,2.09,1.01,3.17c0.27,0.85,0.53,1.7,0.8,2.57
		c0.31,0.99,0.61,2,0.92,3.01c0.28,0.93,0.57,1.86,0.85,2.81c0.31,1.03,0.61,2.08,0.92,3.13c0.53,1.81,1.06,3.65,1.6,5.52
		c0.27,0.95,0.54,1.88,0.81,2.85c0.33,1.18,0.67,2.39,1,3.6c0.25,0.91,0.5,1.82,0.76,2.75c0.34,1.24,0.68,2.5,1.02,3.76
		c0.24,0.9,0.48,1.81,0.72,2.72c0.35,1.33,0.7,2.65,1.05,4c0.21,0.8,0.42,1.61,0.62,2.42c0.73,2.85,1.47,5.74,2.2,8.69
		c0.16,0.64,0.32,1.27,0.48,1.91c0.37,1.51,0.74,3.04,1.11,4.57c0.21,0.87,0.42,1.74,0.63,2.62c0.37,1.53,0.73,3.08,1.1,4.64
		c0.2,0.86,0.41,1.73,0.61,2.6c0.38,1.65,0.76,3.29,1.14,4.96c0.11,0.49,0.22,1,0.34,1.49c1.39,6.16,2.77,12.47,4.13,18.93
		c0.09,0.41,0.17,0.81,0.26,1.22c0.45,2.16,0.9,4.33,1.34,6.52c0.05,0.25,0.1,0.49,0.15,0.74c6.88,33.89,13.02,71.18,17.27,109
		l0.05,0.07l0.03,0.04c0,0,49.51-9.89,77.51-49.41c27.99-39.52,37.08-76.62,32.14-150.34c-4.94-73.72-69.19-209.63-119.61-258.24
		c-11.2-10.8-26.78-22.17-44.65-33.6v249.35c3.55,8.61,6.7,16.91,9.36,24.77C89.73,491.97,90.28,493.65,90.84,495.36z"/>
	<path class="st3" d="M592.02,490.35c0-158.86-30.58-278.59-68.65-369.95l-0.07-0.07c0,0,23.08,169.06,17.31,243.78
		c-5.77,74.72-37.07,333.82-67.61,406.72c-22.05,52.62-126.37,188.26-195.37,268.7h141.41c25.67-31.85,52.24-70.36,76.6-116.81
		C549.1,821.01,592.02,681.27,592.02,490.35z"/>
</g>
</svg>
