<?xml version="1.0" encoding="utf-8"?>
<!-- Generator: Adobe Illustrator 26.0.3, SVG Export Plug-In . SVG Version: 6.00 Build 0)  -->
<svg version="1.1" id="Слой_1" xmlns="http://www.w3.org/2000/svg" xmlns:xlink="http://www.w3.org/1999/xlink" x="0px" y="0px"
	 viewBox="0 0 1080 1080" style="enable-background:new 0 0 1080 1080;" xml:space="preserve">
<style type="text/css">
	.st0{fill:#BDFF3E;}
	.st1{fill:#1ECC00;}
	.st2{fill:#09B200;}
	.st3{fill:#FF0B0B;}
	.st4{fill:#FF3E3E;}
	.st5{fill:#EA0000;}
	.st6{fill:#53E000;}
</style>
<path class="st0" d="M830.14,935.92H249.86c-58.42,0-105.78-47.36-105.78-105.78V249.86c0-58.42,47.36-105.78,105.78-105.78h580.28
	c58.42,0,105.78,47.36,105.78,105.78v580.28C935.92,888.56,888.56,935.92,830.14,935.92z"/>
<g>
	<path class="st1" d="M876.22,984.43c0,0-80.86,21.77-98.31,19.5c-17.47-2.27-27.05-10.46-30.52-20.24
		c-4.88,13.53,26.47,44.99,26.47,44.99s-90.12-11.89-100.4-16.42c-10.29-4.54-36.39-16.75-42.91-35.83
		c1.56,19.22,16.83,31.11,17.56,31.67c-1.63-0.46-106.45-30.34-115.48-39.21c-9.11-8.94-25.53-25.57-29.4-47.18
		c-5.29,5.25-2.97,18.16-2.97,18.16s-64.55-55.2-75.47-71.65c-10.91-16.45-15.89-35.11-11.68-61.22
		c-4.27,0.75-10.29,8.49-10.29,8.49s-3.79-9.9-4.7-24.05c-0.64-9.78,0.11-21.6,4.46-33.61c2.61-7.18,6.4-13.88,10.66-19.9
		c13.11-18.61,30.55-30.78,30.55-30.78l77.42-27.03l64.92,21.01l46.77,19.16l-17.22,14.97l2.53,6.24l4.45,10.98l38.38,3.66
		l5.47,0.52l47.49,7.76l-9.32,6.64l-17.41,12.39l4.59,8.92c0,0,19.49,6.66,43.31,14.8c14.21,4.85,27.06,14.9,35.11,22.22
		c5.45,4.95,8.7,8.66,8.7,8.66s-14.14,1.79-25.3,6.37c-11.16,4.58-10.87,9.75-10.87,9.75s32.77,6.5,62.16,23.73
		c29.39,17.23,49.79,36.95,49.79,36.95s-17.7-0.73-27.73-1.14c-10.03-0.42-20.16,1.79-20.16,1.79s34.42,11.59,44.11,22.46
		C860.69,948.82,876.22,984.43,876.22,984.43z"/>
	<path class="st1" d="M181.6,486.58c-9.98,3.6-25.74,10.47-44.46,22.76l-0.01,0.01h-0.01c-5.04,3.3-10.3,7.01-15.71,11.15
		c-66.47,57.56-55.69,142.38-55.69,142.38s17.75-11.62,26.88-7.68c-54.62,47.21-49.93,120.99-49.93,120.99s9.48-8.69,21.13-11.53
		c-15.21,36.66,11.52,122.92,11.52,122.92s6.89-17.78,17.29-23.05c10.38,93.63,71.02,113.31,71.02,113.31s27.54-49.47,63.77-63.38
		c3.47,5.54,0,17.29,0,17.29s72.34-38.87,80.3-69.14c7.95-30.28,4.42-24.56,0-38.41c16.62,3.25,18.79,19.21,18.79,19.21
		s16.94-20.96,25.06-51.96v-0.05c2.47-9.38,4.11-19.68,4.23-30.6c0.02-1.9,0-3.8-0.07-5.73c-0.57-15.18-0.81-24.67-0.83-30.55
		l-118.5-207.89l-10.43-8.11L181.6,486.58z"/>
	<path class="st2" d="M728.06,833.63c-22.42-0.53-102.88-12.72-102.88-12.72s15.28,23.53,24.29,33.49c9.01,9.96,39,34.87,39,34.87
		s-93.75-26.16-141.09-62c-26.8-27.37-26.8-65.45-26.8-65.45l-122.45,29.62c-0.64-9.78,0.11-21.6,4.46-33.61
		c2.61-7.18,6.4-13.88,10.66-19.9l114.45-27.4l90.51,30.96l42.83,14.64l43.64,14.93l-17.41,12.39l4.59,8.92
		c0,0,19.49,6.66,43.31,14.8c14.21,4.85,27.06,14.9,35.11,22.22C770.28,829.39,750.49,834.16,728.06,833.63z"/>
	<path class="st2" d="M359.63,732.87l-3.85,27.92l-4.23,30.6v0.05c0,0-77.74-9.74-93.5-15.03c-15.75-5.3-44.14-22.26-44.14-22.26
		l-46.63,66.77c0,0,22.23-86.7,22.22-110.38c0-23.68-17.98-36.76-22.22-56.71c-4.24-19.95,11.37-86.35,14.31-101.91
		c2.96-15.66-16.7-41.11-27.03-42.56s-17.42-0.01-17.42-0.01c14.24-11.38,44.46-22.76,44.46-22.76l44.34,21.94l8.11,4.02l2.32,4.09
		l118.5,207.89L359.63,732.87z"/>
	<polygon class="st3" points="586.95,216.32 718.36,186.65 854.01,216.32 900.64,201.49 938.79,239.64 953.63,398.6 815.86,537.43 	
		"/>
	<polygon class="st3" points="833.97,462.19 887.8,497.03 909.73,653.82 833.97,709.56 792.1,760.08 800.08,774.02 718.33,791.44 
		536.9,740.92 512.97,693.88 	"/>
	<polygon class="st3" points="222.39,546.31 165.16,465.76 154.56,410.66 252.06,448.81 303.46,449.47 391.95,512.39 	"/>
	<polygon class="st3" points="652.54,575.42 662.51,613.75 548.86,721.76 389.36,761.82 289.67,740.92 213.91,626.81 213.91,524.03 
		335.53,486.58 	"/>
	<polygon class="st3" points="722.6,282.53 678.09,157.48 569.99,85.41 417.38,96.01 351.68,170.19 334.72,257.09 520.58,384.27 	
		"/>
	<polygon class="st3" points="196.95,449.47 167.28,349.32 218.15,218.44 336.84,177.11 405.73,236.09 391.95,349.32 383.47,434.63 
		379.46,505.73 300.81,521.53 	"/>
	<polygon class="st3" points="305.05,240.7 731.07,258.71 849.77,537.43 680.21,676.26 286.5,511.61 	"/>
	<polygon class="st4" points="754.39,301.1 841.29,322.3 877.32,421.92 877.32,508.82 841.29,595.72 722.6,619.03 722.6,586.5 
		788.3,557.57 822.21,447.35 779.82,332.9 	"/>
	<path class="st4" d="M435.71,521.53c0,0,60.09-37.36,66.45-43.05s161.08-33.25,161.08-33.25l158.96,2.12l-11.09,36.03
		l-111.85,16.96l-231.03,21.2H435.71z"/>
	<path class="st4" d="M435.71,177.11c-3.49,1.06-81.91,63.59-81.91,63.59l-38.15,121.34l76.3,98.03l60.41,2.12l26.49,16.29
		l-14.84-33.25l-58.29-46.63l-32.85-97.5l44.51-86.9L435.71,177.11z"/>
	<polygon class="st4" points="452.36,231.16 500.05,163.33 612.38,148.5 696.78,215.85 714.12,271.43 628.96,209.96 557.27,195.13 	
		"/>
	<polygon class="st4" points="722.6,240.7 742.73,301.1 714.12,394.72 637.82,430.39 739.55,430.39 789.81,309.74 770.29,271.43 	
		"/>
	<polygon class="st4" points="415.27,315.94 435.71,390.12 520.58,430.39 628.96,410.66 690.8,390.12 568.14,390.12 478.85,361.57 	
		"/>
	<polygon class="st4" points="478.85,240.7 425.86,256.59 425.86,288.39 452.36,327.8 510.64,349.32 452.36,301.1 468.25,262.95 	
		"/>
	<polygon class="st4" points="684.08,298.28 700.87,316.74 697.34,349.32 656.89,362.04 553.03,362.04 568.14,349.32 637.82,349.32 
		671.94,335.55 	"/>
	<polygon class="st4" points="675.97,301.1 675.97,256.38 628.96,224.8 568.14,209.96 522.3,231.16 568.14,240.7 637.82,271.43 	"/>
	<polygon class="st4" points="478.85,301.1 487.33,255.53 528.66,250.15 583.24,271.43 531.84,271.43 497.93,275.63 	"/>
	<polygon class="st4" points="510.64,295.01 497.93,315.94 531.84,335.55 625.19,331.57 657.49,315.28 586.95,315.28 531.84,315.28 
			"/>
	<polygon class="st4" points="547.38,282.03 606.02,275.63 633.79,282.03 657.49,298.28 652.65,308.87 619.45,305.34 642.05,301.1 
		633.58,292.25 605.32,283.44 	"/>
	<polygon class="st4" points="594.72,287.68 539.61,287.68 528.66,298.28 540.32,306.05 591.89,308.87 613.09,301.1 577.71,301.1 
		560.81,295.01 577.71,292.25 	"/>
	<polygon class="st4" points="613.09,292.25 602.44,287.68 586.95,295.01 607.44,295.01 	"/>
	<polygon class="st4" points="604.34,610.7 438.21,591.1 361.45,564.97 337.42,522.98 302.12,520.2 296.24,619.85 380.98,681.25 
		551.45,690.4 635.18,629.43 	"/>
	<polygon class="st4" points="830.69,636.31 722.6,659.24 690.8,676.26 666,664.5 622.05,710.53 746.61,730.44 817.49,678.81 
		861.78,648 	"/>
	<polygon class="st4" points="359.63,460.07 295.26,383.71 295.26,349.32 327.44,271.43 273.26,250.15 237.22,250.15 200.66,349.32 
		232.46,410.66 	"/>
	<polygon class="st4" points="167.28,423.51 213.91,445.23 246.76,462.19 258.05,491.86 222.92,521.53 175.23,462.19 	"/>
	<polygon class="st5" points="799.96,485.08 690.8,501.12 478.85,520.56 628.96,546.31 680.21,587.24 722.6,577.7 779.29,546.31 	
		"/>
	<polygon class="st5" points="435.71,390.12 468.25,430.39 497.93,462.19 570.87,445.23 613.09,436.22 666,398.36 558.4,423.51 
		520.58,430.39 	"/>
	<polygon class="st5" points="324.31,373.17 391.95,460.07 452.36,462.19 478.85,478.48 435.71,509.35 381.34,472.52 	"/>
	<polygon class="st5" points="773.33,349.32 739.55,430.39 666,430.39 675.97,441.26 770.29,441.26 790.13,360.74 779.82,332.9 	"/>
	<path class="st5" d="M189.5,424.33c0,0,121.9,33.62,126.14,37.86c4.24,4.24,32.85,0,32.85,0l-75.24,29.67l-15.21-29.67
		L189.5,424.33z"/>
	<path class="st5" d="M235.44,659.24c4.48,6.75,66.19,58.59,66.19,58.59l111.65,16.99l151.53-28.22l47.85-35.8l-47.85,47.04
		l-175.45,43.99l-99.69-20.9L235.44,659.24z"/>
	<polygon class="st5" points="798.14,752.79 833.97,709.56 909.73,653.82 792.1,717.84 765.18,761.82 648.55,745.28 564.81,717.84 
		527.7,723.23 564.81,791.44 745.75,811.91 812.04,781.86 	"/>
	<polygon class="st5" points="943.96,295.01 935.08,349.32 906.47,390.12 844.64,331.57 877.32,421.92 877.32,473.52 910.64,462.19 
		974.82,390.12 	"/>
	<polygon class="st5" points="417.38,96.01 378.7,159.62 390.14,177.11 415.27,177.11 359.63,215.26 347.98,186.65 351.68,170.19 	
		"/>
	<polygon class="st4" points="391.95,512.39 443.88,537.43 583.24,560.22 690.8,606.32 688.47,636.31 541.38,596.78 435.71,580.88 
		359.63,497.13 365.99,485.08 	"/>
	<polygon class="st5" points="381.8,521.53 435.71,580.88 541.38,596.78 678.19,633.54 688.47,636.31 679.11,659.3 613.09,628.57 
		478.85,607.91 435.71,598.37 391.95,571.34 	"/>
	<polygon class="st5" points="348.5,462.19 365.99,485.08 359.63,497.13 315.65,485.08 273.26,491.86 	"/>
	<polygon class="st5" points="700.87,316.74 713.81,298.28 714.12,271.43 628.96,209.96 586.95,201.27 628.96,224.8 675.97,256.38 
		682.33,287.68 684.08,298.28 	"/>
	<polygon class="st5" points="497.93,315.94 531.84,335.55 625.19,331.57 613.09,343.54 568.14,349.32 553.03,362.04 550.77,384.57 
		531.51,378.41 510.64,349.32 	"/>
	<polygon class="st5" points="688.47,352.11 675.97,373.17 661.76,390.12 568.14,390.12 568.14,371.12 577.71,362.04 656.89,362.04 
			"/>
	<polygon class="st5" points="434.41,301.1 452.36,327.8 510.64,349.32 532.01,378.57 478.85,361.57 469.85,355.11 437.31,331.57 	
		"/>
	<polygon class="st5" points="650.53,308.65 644.17,315.28 608.67,315.28 621.11,305.52 	"/>
	<polygon class="st5" points="613.09,292.25 608.67,301.1 585.36,301.1 586.95,295.01 604.7,295.01 	"/>
	<polygon class="st5" points="531.04,299.87 539.79,315.28 605.67,315.28 613.09,301.1 591.89,308.87 540.32,306.05 	"/>
	<polygon class="st5" points="493.99,335.55 479.78,299.87 497.93,275.63 533.69,271.43 583.24,271.43 580.85,275.63 541.11,279.38 
		501.9,295.01 493.95,314.09 500.06,340.57 	"/>
	<polygon class="st5" points="656.18,315.94 637.82,349.32 657.49,341.38 675.97,301.1 637.82,271.43 568.14,240.7 581.65,257.12 
		611.53,266.02 654.77,289.71 663.25,301.1 	"/>
	<polygon class="st5" points="452.36,231.16 452.36,248.65 478.85,240.7 487.33,255.53 522.3,250.98 522.3,231.16 561.56,213.01 
		568.14,197.38 557.27,195.13 	"/>
	<polygon class="st5" points="594.72,287.68 594.72,291.33 586.95,295.01 585.36,301.1 577.71,301.1 560.81,295.01 585.36,290.2 	
		"/>
	<polygon class="st5" points="435.71,177.11 434.41,250.15 425.86,256.59 425.86,288.39 430.9,327.16 415.27,315.94 429.27,366.75 
		391.95,310.4 372.87,301.1 	"/>
	<polygon class="st5" points="651.47,139.73 666,166.51 660.6,173.93 612.38,148.5 666,191.28 699.95,218.9 678.09,157.48 	"/>
	<polygon class="st5" points="804.45,205.48 761.45,209.96 742.73,235.4 742.73,253.67 722.6,240.7 696.78,215.85 688.76,193.33 
		718.36,186.65 	"/>
	<polygon class="st5" points="258.05,491.86 213.91,520.2 213.91,626.81 270.68,712.32 242.3,635.81 243.48,528.1 	"/>
	<polygon class="st5" points="877.32,489.7 887.8,497.03 895.48,551.9 890.46,543.15 885.09,525.07 874.09,516.62 878.74,505.28 	
		"/>
	<polygon class="st5" points="861.78,546.31 842.88,612.67 718.49,638.72 722.6,619.03 841.29,595.72 	"/>
	<path class="st6" d="M273.26,799.91c0,0,9.07,3,13.25,12c4.18,9,9.74,42.49,9.74,42.49s-4.96-4.89-16.1,0
		c-11.14,4.89-61.64,23.7-79.48,34.87c-17.84,11.18-46.1,57.22-46.1,57.22s-15.05,4.72-17.42-20.67
		c-2.36-25.38,17.42-71.43,17.42-71.43s9.57,4.62,22.26,0c12.69-4.62,68.59-24.49,81.23-33.49
		C270.68,811.91,273.26,799.91,273.26,799.91z"/>
	<path class="st6" d="M154.56,820.91c0,0-9.4,7.85-17.42,20.67c-8.02,12.82-12.78,47.69-12.78,47.69s-16.64-36.39-19.08-54.05
		s-5.48-35.33,0-57.23s49.28-55.64,49.28-55.64l19.08,8.08L154.56,820.91z"/>
	<path class="st6" d="M585.36,873.2c4.77,4.94,55.83,21.72,80.64,27.2s87.86,7.95,87.86,7.95s39.3,12.15,50.59,22.26
		c11.29,10.1,17.76,15.9,17.76,15.9s-31.65-5.14-60.41-6.36c-28.76-1.22-88.78-0.97-112.34-4.77c-27.55-4.45-60.41-4.95-88.67-25.52
		s-47.83-55.45-47.83-55.45L585.36,873.2z"/>
	<path class="st6" d="M675.97,854.4l35.39,26.92c0,0,35.62,4.78,48.87,7.95c13.25,3.18,29.92,11.18,29.92,11.18
		s2.41-11.91-12.43-23.02c-14.84-11.12-51.45-20.8-66.35-23.02C696.46,852.18,675.97,854.4,675.97,854.4z"/>
</g>
</svg>
