<?xml version="1.0" encoding="utf-8"?>
<!-- Generator: Adobe Illustrator 26.0.3, SVG Export Plug-In . SVG Version: 6.00 Build 0)  -->
<svg version="1.1" id="Слой_1" xmlns="http://www.w3.org/2000/svg" xmlns:xlink="http://www.w3.org/1999/xlink" x="0px" y="0px"
	 viewBox="0 0 1080 1080" style="enable-background:new 0 0 1080 1080;" xml:space="preserve">
<style type="text/css">
	.st0{fill:#FFC50D;}
	.st1{fill:#E5E5E5;}
	.st2{fill:none;stroke:#FFEF5A;stroke-width:70;stroke-miterlimit:10;}
	.st3{fill:#FFF066;}
	.st4{fill:#FFDB43;}
	.st5{fill:#C1F569;}
	.st6{fill:#FFFFFF;}
	.st7{fill:none;stroke:url(#SVGID_1_);stroke-width:200;stroke-miterlimit:10;}
	.st8{fill:url(#SVGID_00000103944416086740692470000008011592529273664433_);}
	.st9{fill:url(#SVGID_00000039834472180098317880000006472185294227722167_);}
	.st10{fill:url(#SVGID_00000142882444167474703800000013300370103418902950_);}
	.st11{fill:url(#SVGID_00000119839274214281047620000007630710089025752250_);}
	.st12{fill:none;stroke:url(#SVGID_00000076578080679397352050000013050204781515899269_);stroke-width:50;stroke-miterlimit:10;}
	.st13{fill:url(#SVGID_00000093865395591164875370000008244251414202377883_);}
	.st14{fill:url(#SVGID_00000072961626764745156050000002950945596480045199_);}
	.st15{fill:none;stroke:url(#SVGID_00000005975514275403555900000014557149769997291665_);stroke-width:50;stroke-miterlimit:10;}
	.st16{fill:url(#SVGID_00000127003515380968001900000003632176234066168224_);}
	.st17{fill:url(#SVGID_00000065777330628793746320000000625369044115980956_);}
	
		.st18{fill:none;stroke:url(#SVGID_00000010991609224305607880000013685254293827935922_);stroke-width:30;stroke-linecap:round;stroke-miterlimit:10;}
	
		.st19{fill:none;stroke:url(#SVGID_00000008144549979766154820000001867241836292006039_);stroke-width:30;stroke-linecap:round;stroke-miterlimit:10;}
	.st20{fill:none;stroke:#E58AFD;stroke-width:30;stroke-miterlimit:10;}
	.st21{fill:none;stroke:#CE74FE;stroke-width:30;stroke-miterlimit:10;}
	
		.st22{fill:none;stroke:url(#SVGID_00000008113853646481839370000009512401415146077324_);stroke-width:30;stroke-linecap:round;stroke-miterlimit:10;}
	.st23{fill:#94EF45;}
	.st24{fill:none;stroke:#E6F4C3;stroke-width:30;stroke-linecap:round;stroke-linejoin:round;stroke-miterlimit:10;}
	.st25{fill:none;stroke:#E6F4C3;stroke-width:25;stroke-linecap:round;stroke-linejoin:round;stroke-miterlimit:10;}
	.st26{fill:none;stroke:#FFF7C0;stroke-width:30;stroke-linecap:round;stroke-miterlimit:10;}
</style>
<path class="st5" d="M829.41,537.49L578.93,827.35c-28.89,33.43-79.41,37.11-112.84,8.22L258.27,655.98
	c-33.43-28.89-37.11-79.41-8.22-112.84l250.48-289.86c28.89-33.43,79.41-37.11,112.84-8.22l207.82,179.59
	C854.62,453.54,858.3,504.06,829.41,537.49z"/>
<circle class="st5" cx="273.57" cy="848.31" r="77.45"/>
<circle class="st5" cx="805.21" cy="233.1" r="77.45"/>
<path class="st5" d="M825.25,307.52c0,0-15.21,3.78-32.13,15.78c-15.06,10.68-20.99,25.15-21.93,34.96
	c-1.14,11.94,3.46,26.18,19.75,40.25c16.29,14.08-162.64-140.54-146.44-126.55s38.89,13.79,48.67,11.35
	c12.35-3.09,25.33-17.11,28.89-25.56c3.24-7.71,5.7-26.44,5.7-26.44L825.25,307.52z"/>
<path class="st5" d="M254.35,773.1c0,0,15.21-3.78,32.13-15.78c15.06-10.68,20.99-25.15,21.93-34.96
	c1.14-11.94-3.46-26.18-19.75-40.25C272.37,668.03,451.3,822.65,435.1,808.66c-16.2-14-38.89-13.79-48.67-11.35
	c-12.35,3.09-25.33,17.11-28.89,25.56c-3.24,7.71-6.52,25.8-6.52,25.8L254.35,773.1z"/>
<circle class="st6" cx="482.28" cy="479.44" r="77.45"/>
<path class="st6" d="M407.86,499.48c0,0-3.78-15.21-15.78-32.13c-10.68-15.06-25.15-20.99-34.96-21.93
	c-11.94-1.14-26.18,3.46-40.25,19.75c-3.9,4.51-22.84-29.43-8.03-46.58c25.64-29.67,68.47-72.4,91.56-99.11
	c11.74-13.58,46.43-4.7,43.02-0.75c-14,16.2-13.79,38.89-11.35,48.67c3.09,12.35,17.11,25.33,25.56,28.89
	c7.71,3.24,26.44,5.7,26.44,5.7L407.86,499.48z"/>
<path class="st23" d="M302.17,892.66c-42.77,0-77.45-34.68-77.45-77.45c0-11.59,2.57-22.58,7.13-32.46
	c-21.14,13.83-35.12,37.7-35.12,64.85c0,42.77,34.68,77.45,77.45,77.45c31.18,0,58.04-18.44,70.32-44.99
	C332.33,888.02,317.8,892.66,302.17,892.66z"/>
<path class="st23" d="M288.24,680.51C288.22,680.49,288.22,680.49,288.24,680.51L288.24,680.51z"/>
<path class="st23" d="M309.02,721.65c-0.22,2.29-0.72,4.83-1.53,7.52c2.46-1.47,5.01-3.11,7.6-4.95c4.62-3.28,8.38-6.92,11.4-10.67
	c-19.47-16.82-34.58-29.89-37.68-32.56c0.13,0.12,0.28,0.24,0.46,0.4C305.56,695.48,310.15,709.71,309.02,721.65z"/>
<path class="st23" d="M386.14,789.77c-0.88,2.09-1.76,4.93-2.58,7.98c1.16-0.47,2.32-0.85,3.47-1.14
	c9.78-2.44,32.47-2.65,48.67,11.35c-3.99-3.45-19.13-16.53-38.29-33.09C392.13,779.84,387.94,785.51,386.14,789.77z"/>
<path class="st23" d="M288.81,681c-0.33-0.28-0.52-0.45-0.57-0.49C288.29,680.55,288.48,680.72,288.81,681z"/>
<path class="st23" d="M435.83,808.05c0.42,0.36,0.7,0.6,0.83,0.72C436.53,808.65,436.25,808.41,435.83,808.05z"/>
<path class="st23" d="M436.68,808.78c0.01,0.01,0.01,0.01,0.02,0.02C436.69,808.79,436.69,808.79,436.68,808.78z"/>
<path class="st23" d="M436.7,808.8C436.76,808.85,436.76,808.85,436.7,808.8L436.7,808.8z"/>
<path class="st23" d="M436.66,808.77c0.01,0.01,0.01,0.01,0.02,0.02C436.67,808.78,436.66,808.77,436.66,808.77z"/>
<path class="st23" d="M435.71,807.95L435.71,807.95c0.01,0.01,0.03,0.03,0.04,0.04C435.74,807.97,435.73,807.96,435.71,807.95z"/>
<path class="st23" d="M435.76,807.99c0.03,0.02,0.05,0.04,0.07,0.06C435.81,808.03,435.78,808.01,435.76,807.99z"/>
<path class="st23" d="M320.35,651.81l-33.48-28.93c-33.43-28.89-37.11-79.41-8.22-112.84l-27.99,32.39
	c-28.89,33.43-25.21,83.95,8.22,112.84l67.54,58.36c6.87-8.48,9.94-17.55,10.59-24.38C338.07,678.11,334.13,664.96,320.35,651.81z"
	/>
<path class="st23" d="M494.69,802.47l-33.27-28.75c-15.98-12.13-37.06-11.85-46.39-9.51c-6.15,1.54-12.46,5.79-17.69,10.72
	l69.35,59.93c33.43,28.89,83.95,25.21,112.84-8.22l27.99-32.39C578.64,827.68,528.12,831.36,494.69,802.47z"/>
<path class="st23" d="M510.88,368.89c-22.68,0-43.07,9.76-57.22,25.29c1.4,0.88,2.74,1.59,3.96,2.11c7.71,3.24,26.44,5.7,26.44,5.7
	l-0.03,0.04c41.96,0.93,75.7,35.22,75.7,77.41c0,11.42-2.49,22.25-6.93,32.01c21.37-13.79,35.53-37.79,35.53-65.11
	C588.33,403.57,553.65,368.89,510.88,368.89z"/>
<path class="st23" d="M486.22,363.19c-8.44-3.56-22.47-16.54-25.56-28.89c-2.2-8.81-2.58-28.11,7.6-43.69l-28.6,33.1
	c-10.18,15.58-9.8,34.88-7.6,43.69c3.09,12.35,17.11,25.33,25.56,28.89c7.71,3.24,26.44,5.7,26.44,5.7l-0.02,0.03
	c0.89,0.02,1.77,0.06,2.65,0.1l25.98-33.23C512.66,368.89,493.93,366.44,486.22,363.19z"/>
<path class="st24" d="M757.18,440.17l20.61,17.34c15.67,13.18,17.39,36.68,3.82,52.01L664.75,641.46"/>
<line class="st24" x1="725.25" y1="406.9" x2="722.75" y2="404.8"/>
<line class="st25" x1="840.8" y1="198.84" x2="843.27" y2="203.21"/>
<path class="st25" d="M849.39,243.3c0,0-5.73,23.7-28.64,29.04"/>
</svg>
