<?xml version="1.0" encoding="utf-8"?>
<!-- Generator: Adobe Illustrator 26.0.3, SVG Export Plug-In . SVG Version: 6.00 Build 0)  -->
<svg version="1.1" id="Слой_1" xmlns="http://www.w3.org/2000/svg" xmlns:xlink="http://www.w3.org/1999/xlink" x="0px" y="0px"
	 viewBox="0 0 1080 1080" style="enable-background:new 0 0 1080 1080;" xml:space="preserve">
<style type="text/css">
	.st0{fill:#BDFF3E;}
	.st1{fill:#1ECC00;}
	.st2{fill:#09B200;}
	.st3{fill:#FF0B0B;}
	.st4{fill:#FF3E3E;}
	.st5{fill:#EA0000;}
	.st6{fill:#53E000;}
	.st7{fill:none;}
</style>
<g>
	<polygon class="st7" points="101.71,233.52 236.8,80.99 721.04,47.35 979.59,219.73 979.59,219.72 1000.29,233.52 1031.01,233.52 
		1031.01,38.51 13.08,38.51 13.08,233.52 	"/>
	<polygon class="st0" points="28.33,316.37 101.71,233.52 13.08,233.52 13.08,365.58 16.59,368.59 	"/>
	<polygon class="st0" points="1031.01,254 1031.01,233.52 1000.29,233.52 	"/>
	<polygon class="st3" points="445.51,563.99 431.85,540.1 420.96,562.96 	"/>
	<polygon class="st3" points="694.31,452.21 715.17,442.56 908.16,489.65 774.86,414.99 908.16,442.56 680.68,395.5 715.17,402.64 	
		"/>
	<polygon class="st3" points="589.84,570.1 589.9,570.09 589.93,570.1 745.26,576.67 715.17,540.1 569.72,509.83 569.72,569.24 	"/>
	<polygon class="st3" points="1025.69,383.29 855.55,247.54 1027.33,384.62 	"/>
	<path class="st3" d="M114.06,282.83l36.3,55.5h79.74L91.91,433.08l37.55,32.15c71.68-56.6,159.04-124.94,165.5-126.9l-3.9,219.14
		l56.73,2.4v-50.03L499.12,294.6l356.43-47.06l153.01,80.69l17.14-23.54l-46.1-84.96L721.04,47.35L236.8,80.99L114.06,282.83z"/>
	<path class="st3" d="M35.05,540.1c0,0,43.2-34.45,94.4-74.88l-37.55-32.15l-38.36,26.3L16.59,368.6l0-0.01l-3.51-3.01v180.13
		l19.95,0.84L35.05,540.1z"/>
	<polygon class="st3" points="998.69,859.57 936.28,884.76 1031.01,846.53 1031.01,789.12 	"/>
	<polygon class="st3" points="1031.01,914.36 1031.01,914.36 996.79,925.13 	"/>
	<polygon class="st3" points="660.06,996.6 715.17,1014.23 715.17,953.94 745.54,925.13 667.23,925.13 	"/>
	<polygon class="st3" points="1031.01,1014.23 1031.01,991.84 1012.24,1014.23 	"/>
	<polygon class="st3" points="230.1,778.85 274.53,940.07 156.11,761.27 95.57,731.76 195.24,1027.6 305.77,1027.6 294.96,1014.23 	
		"/>
	<polygon class="st3" points="300.04,828.44 290.84,731.78 263.71,691.43 279.7,814.44 431.85,923.63 403.29,903.14 	"/>
	<polygon class="st3" points="569.72,569.24 569.72,572.71 589.84,570.1 	"/>
	<polygon class="st3" points="398.21,610.7 347.79,731.76 479.88,841.04 434.8,727.85 492.39,650.94 431.85,731.76 458.76,587.16 
		445.51,563.99 420.96,562.96 	"/>
	<polygon class="st3" points="857.81,866.42 715.17,884.76 936.28,884.76 994.53,778.85 896.2,828.44 	"/>
	<polygon class="st3" points="599.99,637.61 492.39,650.94 605.86,637.61 	"/>
	<polygon class="st3" points="263.71,590.52 347.79,565.31 347.79,559.86 291.06,557.46 290.84,570.09 	"/>
	<path class="st3" d="M763.09,637.61l-7.58,13.33l-126.1,11.9l-124.42,49.6l-25.23,60.54l19.38,84.01l33.57,27.78l-40.33-105.92
		l40.33-66.41l67.27,64.32h25.23l-27.76-48.9l29.45,19.61l-37-24.65l34.75-33.63h174.87v11.58l-24.65,11.68l49.15-23.26l33.79,14.5
		l-14.03,28.08h14.03l-23.54,44.99h9.52l39.47-30.97l93.35,9.93l-20.18,21.04h39.11l21.44-44.99l-26.91-36.14l-137.2-75.17
		l-94.81-28.24l-12.79-15.54l-155.33-6.57L763.09,637.61z M923.49,671.25l75.2,51.56l-15.36,33.6l-105.35-11.2l71.71-13.45
		l-26.88-28.08l-89.67-27.96l-183.85-4.47l186.07-20.31L923.49,671.25z"/>
	<polygon class="st3" points="769.82,697.17 799.52,689.17 769.59,697.22 	"/>
	<polygon class="st3" points="13.08,545.71 13.08,610.01 33.03,546.56 	"/>
	<path class="st4" d="M95.57,731.76l199.4-393.43c-6.46,1.96-93.82,70.29-165.5,126.9c-51.2,40.43-94.4,74.88-94.4,74.88l-2.03,6.45
		l-19.95,63.45v417.59h182.17L95.57,731.76z"/>
	<polygon class="st4" points="855.55,247.54 499.12,294.6 347.79,509.83 680.68,395.5 908.16,442.56 1031.01,531.24 1031.01,387.61 
		1027.33,384.62 	"/>
	<polygon class="st4" points="715.17,1014.23 660.06,996.6 660.06,996.61 600.53,977.58 600.53,977.58 431.85,923.63 279.7,814.44 
		279.7,814.45 230.1,778.85 294.96,1014.23 323.14,1027.6 1031.01,1027.6 1031.01,1014.23 1012.24,1014.23 	"/>
	<polygon class="st4" points="263.71,691.43 290.84,731.78 290.84,731.76 347.79,816.48 532.72,884.76 499.15,856.98 499.15,857 
		479.89,841.07 479.88,841.04 347.79,731.76 398.21,610.7 420.96,562.96 431.85,540.1 347.79,565.33 347.79,565.31 263.71,590.52 	
		"/>
	<polygon class="st4" points="715.17,884.76 667.23,925.13 745.54,925.13 996.79,925.13 1031.01,914.36 1031.01,846.53 
		936.28,884.76 	"/>
	<polygon class="st4" points="715.17,442.56 694.31,452.21 694.3,452.24 569.72,509.83 715.17,540.1 936.28,637.61 1031.01,711.29 
		1031.01,572.18 908.16,489.65 	"/>
	<polygon class="st4" points="492.39,650.94 599.99,637.61 605.86,637.61 763.09,637.61 589.93,570.1 589.9,570.09 589.84,570.1 
		569.72,572.71 569.72,572.72 458.76,587.16 431.85,731.76 	"/>
	<polygon class="st4" points="843.78,776.75 834.26,776.75 774.86,776.75 625.22,776.75 599.99,776.75 532.72,712.43 492.39,778.85 
		599.99,841.07 896.2,828.44 994.53,778.85 994.53,778.85 995.53,776.75 956.42,776.75 	"/>
	<polygon class="st4" points="833.15,675.72 922.82,703.68 949.7,731.76 877.99,745.21 983.33,756.41 998.69,722.81 923.49,671.25 
		835.37,650.94 649.3,671.25 	"/>
	<polygon class="st4" points="857.81,731.76 843.78,731.76 769.82,731.76 745.54,731.76 691.92,712.43 769.59,697.22 799.52,689.17 
		624.65,689.17 589.9,722.81 626.9,747.46 790.54,756.41 	"/>
	<polygon class="st4" points="857.81,703.68 824.01,689.17 774.86,712.43 831.18,712.43 	"/>
	<polygon class="st5" points="305.77,1027.6 323.14,1027.6 294.96,1014.23 	"/>
	<polygon class="st5" points="16.59,368.59 16.59,368.6 53.55,459.38 91.91,433.08 230.1,338.33 150.36,338.33 114.06,282.83 
		236.8,80.99 101.71,233.52 28.33,316.37 	"/>
	<polygon class="st5" points="774.86,414.99 908.16,489.65 1031.01,572.18 1031.01,531.24 908.16,442.56 	"/>
	<polygon class="st5" points="857.81,866.42 896.2,828.44 599.99,841.07 492.39,778.85 532.72,884.76 600.53,977.58 660.06,996.61 
		660.06,996.6 667.23,925.13 715.17,884.76 	"/>
	<polygon class="st5" points="745.54,925.13 715.17,953.94 715.17,1014.23 1012.24,1014.23 1031.01,991.84 1031.01,914.36 
		996.79,925.13 	"/>
	<polygon class="st5" points="532.72,884.76 347.79,816.48 290.84,731.76 290.84,731.78 300.04,828.44 403.29,903.14 431.85,923.63 
		600.53,977.58 600.53,977.58 	"/>
	<polygon class="st5" points="976.61,755.71 883.25,745.78 843.78,776.75 956.42,776.75 	"/>
	<polygon class="st5" points="843.78,731.76 857.81,703.68 831.18,712.43 774.86,712.43 769.82,731.76 	"/>
	<polygon class="st5" points="834.26,776.75 857.81,731.76 790.54,756.41 626.9,747.46 597.45,727.85 625.22,776.75 774.86,776.75 	
		"/>
	<polygon class="st5" points="492.39,650.94 434.8,727.85 479.88,841.04 479.89,841.07 499.15,857 499.15,856.98 479.76,772.98 
		504.99,712.43 629.41,662.84 755.5,650.94 763.09,637.61 605.86,637.61 	"/>
	<polygon class="st5" points="715.17,540.1 745.26,576.67 758.04,592.2 852.85,620.44 990.06,695.62 1016.97,731.76 995.53,776.75 
		994.53,778.85 994.53,778.85 936.28,884.76 998.69,859.57 1031.01,789.12 1031.01,711.29 936.28,637.61 	"/>
	<polygon class="st5" points="347.79,565.31 347.79,565.33 431.85,540.1 445.51,563.99 458.76,587.16 569.72,572.72 569.72,572.71 
		569.72,569.24 569.72,509.83 694.3,452.24 694.31,452.21 715.17,402.64 680.68,395.5 347.79,509.83 347.79,559.86 	"/>
	<polygon class="st5" points="769.59,697.22 691.92,712.43 745.54,731.76 769.82,731.76 774.86,712.43 799.52,700.76 799.52,689.17 
		769.82,697.17 	"/>
	<polygon class="st5" points="263.71,691.43 263.71,590.52 290.84,570.09 291.06,557.46 294.96,338.33 95.57,731.76 156.11,761.27 
		274.53,940.07 230.1,778.85 279.7,814.45 279.7,814.44 	"/>
	<polygon class="st5" points="979.59,219.72 979.59,219.73 1025.69,304.69 1008.56,328.24 855.55,247.54 1025.69,383.29 
		1027.33,384.62 1031.01,387.61 1031.01,254 1000.29,233.52 	"/>
</g>
</svg>
