<?xml version="1.0" encoding="utf-8"?>
<!-- Generator: Adobe Illustrator 26.0.3, SVG Export Plug-In . SVG Version: 6.00 Build 0)  -->
<svg version="1.1" id="Слой_1" xmlns="http://www.w3.org/2000/svg" xmlns:xlink="http://www.w3.org/1999/xlink" x="0px" y="0px"
	 viewBox="0 0 1080 1080" style="enable-background:new 0 0 1080 1080;" xml:space="preserve">
<style type="text/css">
	.st0{fill:url(#SVGID_1_);}
	.st1{fill:#B7004B;}
	.st2{fill:#E6007E;}
	.st3{fill:#99003B;}
	.st4{fill:#CC0062;}
	.st5{fill:#FF2CAF;}
	.st6{fill:#00E7FF;}
	.st7{fill:#00BDFF;}
	.st8{fill:#0096F2;}
	.st9{fill:#6CF8FF;}
	.st10{fill:none;}
	.st11{fill:url(#SVGID_00000053536765505464815370000006250226218767721132_);}
	.st12{fill:url(#SVGID_00000080209088454353130710000010809584006888263328_);}
	.st13{fill:url(#SVGID_00000069398675628426037360000017874511387638621622_);}
	.st14{fill:url(#SVGID_00000135656246836854176020000008635623950329732995_);}
	.st15{fill:url(#SVGID_00000142861947179171868040000010200913201848985489_);}
	.st16{fill:url(#SVGID_00000056411232875634319600000016049276713043684515_);}
	.st17{fill:url(#SVGID_00000079467651960592801100000004574956479589603989_);}
	.st18{fill:url(#SVGID_00000143602328975302117710000007028219842910634896_);}
	.st19{fill:url(#SVGID_00000044859070839680269890000000575024371410429356_);}
	.st20{fill:url(#SVGID_00000018952890412867057050000012329389347036125846_);}
	.st21{fill:url(#SVGID_00000013152892972685297720000008870194651225416345_);}
	.st22{fill:url(#SVGID_00000037666617669472703760000006420298521031053990_);}
</style>
<g>
	<path class="st10" d="M508.24,842.92c-1.42,0.94-2.91,1.87-4.43,2.8c-0.48,0.29-0.99,0.59-1.48,0.88
		c-1.07,0.64-2.15,1.28-3.26,1.91c-0.59,0.34-1.2,0.67-1.8,1.01c-1.06,0.59-2.13,1.18-3.22,1.77c-0.65,0.35-1.31,0.7-1.97,1.04
		c-1.11,0.58-2.24,1.16-3.38,1.75c-0.67,0.34-1.33,0.67-2.01,1.01c-1.23,0.61-2.48,1.22-3.74,1.82c-0.62,0.3-1.23,0.6-1.86,0.89
		c-1.48,0.7-2.99,1.39-4.52,2.09c-0.45,0.2-0.88,0.41-1.33,0.61c-4.05,1.82-8.26,3.61-12.63,5.4c-0.51,0.21-1.04,0.42-1.56,0.63
		c-1.67,0.67-3.35,1.35-5.06,2.02c-0.67,0.26-1.35,0.52-2.03,0.78c-1.61,0.62-3.23,1.24-4.88,1.86c-0.71,0.27-1.43,0.53-2.14,0.8
		c-1.67,0.62-3.35,1.23-5.05,1.85c-0.7,0.25-1.4,0.51-2.11,0.76c-1.83,0.65-3.68,1.3-5.55,1.95c-0.58,0.2-1.16,0.4-1.74,0.6
		c-2.35,0.81-4.72,1.61-7.12,2.4c-0.11,0.04-0.21,0.07-0.32,0.11c-5.21,1.72-10.55,3.42-16,5.1c-0.46,0.14-0.92,0.28-1.38,0.42
		c-2.22,0.68-4.45,1.35-6.7,2.02c-0.65,0.19-1.3,0.39-1.96,0.58c-2.11,0.62-4.23,1.24-6.37,1.86c-0.7,0.2-1.4,0.4-2.1,0.6
		c-2.16,0.62-4.34,1.23-6.54,1.84c-0.64,0.18-1.28,0.36-1.93,0.54c-2.4,0.67-4.82,1.33-7.26,1.98c-0.43,0.12-0.86,0.23-1.29,0.35
		c-8.81,2.36-17.83,4.67-27.02,6.92c-0.46,0.11-0.92,0.22-1.38,0.34c-2.55,0.62-5.11,1.24-7.68,1.85c-0.67,0.16-1.34,0.32-2.02,0.48
		c-2.19,0.52-4.39,1.03-6.6,1.54c-30.31,65.53-61.16,84.27-100.07,94c-26.6,6.65-60.02,13.86-95.84,14.16v0.02h825.28V842.92H508.24
		z"/>
	<linearGradient id="SVGID_1_" gradientUnits="userSpaceOnUse" x1="759.4644" y1="737.8808" x2="740.0763" y2="-1564.4596">
		<stop  offset="0" style="stop-color:#6DE5FF"/>
		<stop  offset="0.0213" style="stop-color:#73E6FF"/>
		<stop  offset="0.2427" style="stop-color:#B0EDFF"/>
		<stop  offset="0.4052" style="stop-color:#D6F2FF"/>
		<stop  offset="0.4904" style="stop-color:#E5F4FF"/>
		<stop  offset="0.5935" style="stop-color:#E8EAFA"/>
		<stop  offset="0.7712" style="stop-color:#F1CEEC"/>
		<stop  offset="1" style="stop-color:#FFA1D5"/>
	</linearGradient>
	<path class="st0" d="M640.02,202.81c-5.93,15.05-10.49,22.6-37.24,37.4C664.75,322.51,722.68,433.51,720,527.94
		c-0.27,10.8-1.34,21.32-3.32,31.61c-0.03,0.08-0.03,0.19-0.05,0.27c-7.83,40.69-23.7,79.5-45,115.53
		c16.35,0.83,34.77,0.42,47.65-3.87c28.56-9.54,53.98-36.62,71.42-66.68c17.47-30.06,61.94-150.82,95.26-166.68
		c19.77-9.42,47.39-13.19,72.23-12.04V36.33H548.93c23,15.15,45.45,30.1,62.84,46.84C654.3,124.1,648.13,182.2,640.02,202.81z"/>
	<path class="st1" d="M564.22,193.11c12.69,14.19,25.71,30.04,38.55,47.1c26.75-14.8,31.31-22.35,37.24-37.4
		c8.12-20.61,14.29-78.71-28.25-119.64c-17.39-16.74-39.84-31.69-62.84-46.84H393.96C433.51,98.5,487.2,107.04,564.22,193.11z"/>
	<path class="st1" d="M885.95,438.12c-33.33,15.86-77.79,136.62-95.26,166.68c-17.44,30.06-42.86,57.14-71.42,66.68
		c0,0-29.36,53.16-36.51,69.84c-7.15,16.68-8.73,37.31,0,47.63c8.73,10.32,22.22,15.77,36.51,15.89c14.29,0.11,190.49,1.6,203.19,0
		c12.7-1.6,24.61-14.34,23.81-32.57c-0.8-18.23-13.51-41.23-15.89-78.54c-2.37-37.32,13.51-139.54,15.89-163.44
		c1.45-14.53,5.84-30.77,11.9-45.92v-58.27C933.35,424.93,905.72,428.7,885.95,438.12z"/>
	<path class="st2" d="M482.95,856.92c-0.62,0.3-1.23,0.6-1.86,0.89C481.72,857.51,482.33,857.22,482.95,856.92z"/>
	<path class="st2" d="M434.22,876.54c-0.58,0.2-1.16,0.4-1.74,0.6C433.06,876.95,433.63,876.74,434.22,876.54z"/>
	<path class="st2" d="M488.7,854.08c-0.66,0.34-1.33,0.67-2.01,1.01C487.37,854.76,488.04,854.42,488.7,854.08z"/>
	<path class="st2" d="M494.05,851.29c-0.65,0.35-1.31,0.7-1.97,1.04C492.74,851.99,493.4,851.64,494.05,851.29z"/>
	<path class="st2" d="M499.07,848.51c-0.59,0.34-1.2,0.67-1.8,1.01C497.87,849.19,498.48,848.85,499.07,848.51z"/>
	<path class="st2" d="M346.49,901.88c-0.46,0.11-0.92,0.22-1.38,0.34C345.57,902.1,346.03,901.99,346.49,901.88z"/>
	<path class="st2" d="M476.57,859.9c-0.45,0.2-0.88,0.41-1.33,0.61C475.68,860.31,476.12,860.1,476.57,859.9z"/>
	<path class="st2" d="M337.43,904.06c-0.67,0.16-1.34,0.32-2.02,0.48C336.08,904.38,336.75,904.22,337.43,904.06z"/>
	<path class="st2" d="M455.98,868.55c-0.67,0.26-1.35,0.52-2.03,0.78C454.63,869.07,455.31,868.81,455.98,868.55z"/>
	<path class="st2" d="M503.81,845.72c-0.48,0.29-0.99,0.59-1.48,0.88C502.82,846.3,503.33,846.01,503.81,845.72z"/>
	<path class="st2" d="M441.87,873.84c-0.7,0.25-1.4,0.51-2.11,0.76C440.47,874.35,441.17,874.09,441.87,873.84z"/>
	<path class="st2" d="M449.07,871.2c-0.71,0.27-1.43,0.53-2.14,0.8C447.65,871.73,448.36,871.46,449.07,871.2z"/>
	<path class="st2" d="M462.6,865.91c-0.51,0.21-1.04,0.42-1.56,0.63C461.56,866.33,462.09,866.12,462.6,865.91z"/>
	<path class="st2" d="M374.8,894.61c-0.43,0.12-0.86,0.23-1.29,0.35C373.94,894.84,374.37,894.72,374.8,894.61z"/>
	<path class="st2" d="M383.99,892.09c-0.64,0.18-1.28,0.36-1.93,0.54C382.71,892.45,383.35,892.27,383.99,892.09z"/>
	<path class="st2" d="M400.95,887.21c-0.65,0.19-1.3,0.39-1.96,0.58C399.64,887.59,400.3,887.4,400.95,887.21z"/>
	<path class="st2" d="M392.62,889.64c-0.7,0.2-1.4,0.4-2.1,0.6C391.23,890.04,391.93,889.84,392.62,889.64z"/>
	<path class="st2" d="M425.35,879.55c-0.11,0.04-0.21,0.07-0.32,0.11C425.14,879.62,425.24,879.59,425.35,879.55z"/>
	<path class="st2" d="M409.03,884.76c-0.46,0.14-0.92,0.28-1.38,0.42C408.11,885.04,408.57,884.9,409.03,884.76z"/>
	<path class="st2" d="M175.17,208.33c32.14-27.38,89.57-45.24,132.15-85.62c17.86-16.93,30.96-44.16,34.99-83.45
		c0.1-0.96,0.15-1.95,0.23-2.93H132.9v209.64C145.82,232.58,160.36,220.95,175.17,208.33z"/>
	<path class="st2" d="M314.47,585.75c25.35,22.66,43.71,98.33,44.35,173.64c54.72-6.79,106.28-19.12,149.42-40.28
		c71.31-34.99,189.48-142.17,208.44-159.55c1.98-10.29,3.05-20.81,3.32-31.61l-0.72,2.33c0,0-28.97-113.59-51.19-150.5
		c-22.22-36.91-69.28-72.79-100.48-93.47c-31.21-20.68-63.48-50.6-112.3-42.86c-48.82,7.74-150.84,76.78-185.73,97.03
		c-34.88,20.25-78.38,32.16-115.57,39.3c-7.21,1.39-14.37,1.14-21.11-0.46v155c1.77-0.33,3.55-0.66,5.35-0.95
		C206.52,522.25,264.74,541.3,314.47,585.75z"/>
	<path class="st3" d="M930.4,693.71c2.37,37.32,15.09,60.31,15.89,78.54c0.8,18.23-11.12,30.98-23.81,32.57
		c-12.7,1.6-188.9,0.11-203.19,0c-14.29-0.11-27.79-5.56-36.51-15.89c-8.73-10.32-7.15-30.95,0-47.63
		c7.15-16.68,36.51-69.84,36.51-69.84c-12.89,4.29-31.3,4.7-47.65,3.87c-14.39,24.33-31.22,47.41-49.83,68.89
		c-1.93,2.22-3.88,4.45-5.87,6.64c-0.24,0.24-0.46,0.51-0.67,0.75c-3.54,3.83-6.88,7.42-10.05,10.82c-0.96,1.04-1.93,2.06-2.87,3.05
		c-44.55,47.55-54.62,52.83-78.09,67.27c-4.69,2.89-9.88,6.13-16.02,10.15h449.95V484.35c-6.06,15.15-10.45,31.39-11.9,45.92
		C943.91,554.17,928.02,656.39,930.4,693.71z"/>
	<path class="st1" d="M602.34,765.5c0.94-0.99,1.9-2.01,2.87-3.05c3.16-3.4,6.51-6.99,10.05-10.82c0.21-0.24,0.43-0.51,0.67-0.75
		c1.98-2.2,3.94-4.42,5.87-6.64c18.61-21.48,35.45-44.55,49.83-68.89c21.3-36.03,37.17-74.83,45-115.53
		c0.03-0.08,0.03-0.19,0.05-0.27c-18.97,17.39-137.13,124.57-208.44,159.55c-43.14,21.17-94.7,33.5-149.42,40.28
		c0.36,41.72-4.72,83.32-17.07,115.75c-4.32,11.34-8.62,21.61-12.94,30.94c2.21-0.51,4.41-1.03,6.6-1.54
		c0.67-0.16,1.35-0.32,2.02-0.48c2.57-0.61,5.13-1.23,7.68-1.85c0.46-0.11,0.92-0.22,1.38-0.34c9.19-2.25,18.21-4.56,27.02-6.92
		c0.43-0.12,0.86-0.23,1.29-0.35c2.44-0.66,4.86-1.32,7.26-1.98c0.64-0.18,1.28-0.36,1.93-0.54c2.19-0.61,4.37-1.23,6.54-1.84
		c0.7-0.2,1.4-0.4,2.1-0.6c2.14-0.62,4.26-1.24,6.37-1.86c0.65-0.19,1.31-0.39,1.96-0.58c2.25-0.67,4.48-1.35,6.7-2.02
		c0.46-0.14,0.92-0.28,1.38-0.42c5.45-1.68,10.79-3.38,16-5.1c0.11-0.04,0.21-0.07,0.32-0.11c2.4-0.8,4.78-1.6,7.12-2.4
		c0.59-0.2,1.16-0.4,1.74-0.6c1.87-0.65,3.72-1.29,5.55-1.95c0.71-0.25,1.41-0.51,2.11-0.76c1.7-0.61,3.39-1.23,5.05-1.85
		c0.72-0.27,1.43-0.53,2.14-0.8c1.65-0.62,3.27-1.24,4.88-1.86c0.68-0.26,1.36-0.52,2.03-0.78c1.71-0.67,3.39-1.34,5.06-2.02
		c0.52-0.21,1.05-0.42,1.56-0.63c4.37-1.78,8.58-3.58,12.63-5.4c0.45-0.2,0.89-0.41,1.33-0.61c1.53-0.69,3.04-1.39,4.52-2.09
		c0.63-0.3,1.24-0.6,1.86-0.89c1.26-0.61,2.52-1.21,3.74-1.82c0.68-0.34,1.34-0.67,2.01-1.01c1.14-0.58,2.27-1.16,3.38-1.75
		c0.66-0.35,1.32-0.7,1.97-1.04c1.09-0.59,2.16-1.18,3.22-1.77c0.6-0.34,1.21-0.67,1.8-1.01c1.11-0.64,2.19-1.27,3.26-1.91
		c0.49-0.29,1-0.59,1.48-0.88c1.52-0.93,3-1.86,4.43-2.8c6.13-4.02,11.33-7.26,16.02-10.15
		C547.72,818.33,557.79,813.05,602.34,765.5z"/>
	<path class="st1" d="M328.81,906.08c4.32-9.33,8.62-19.61,12.94-30.94c12.34-32.42,17.42-74.03,17.07-115.75
		c-0.64-75.31-19-150.98-44.35-173.64c-49.73-44.45-107.95-63.5-176.21-52.39c-1.8,0.29-3.58,0.62-5.35,0.95v479.93
		c35.82-0.3,69.24-7.51,95.84-14.16C267.65,990.35,298.5,971.61,328.81,906.08z"/>
	<path class="st5" d="M154.01,379.77c37.19-7.14,80.68-19.05,115.57-39.3c34.88-20.25,136.9-89.29,185.73-97.03
		c48.82-7.74,81.09,22.18,112.3,42.86c31.21,20.68,78.26,56.56,100.48,93.47c22.22,36.91,51.19,150.5,51.19,150.5l0.72-2.33
		c2.68-94.44-55.25-205.44-117.22-287.73c-12.85-17.06-25.86-32.91-38.55-47.1C487.2,107.04,433.51,98.5,393.96,36.33h-51.42
		c-0.08,0.97-0.13,1.97-0.23,2.93c-4.03,39.29-17.13,66.51-34.99,83.45c-42.58,40.37-100.01,58.23-132.15,85.62
		c-14.81,12.62-29.36,24.25-42.27,37.65v133.33C139.64,380.92,146.8,381.16,154.01,379.77z"/>
</g>
</svg>
