<?xml version="1.0" encoding="utf-8"?>
<!-- Generator: Adobe Illustrator 26.0.3, SVG Export Plug-In . SVG Version: 6.00 Build 0)  -->
<svg version="1.1" id="Слой_1" xmlns="http://www.w3.org/2000/svg" xmlns:xlink="http://www.w3.org/1999/xlink" x="0px" y="0px"
	 viewBox="0 0 1080 1080" style="enable-background:new 0 0 1080 1080;" xml:space="preserve">
<style type="text/css">
	.st0{fill:#BDFF3E;}
	.st1{fill:#1ECC00;}
	.st2{fill:#09B200;}
	.st3{fill:#FF0B0B;}
	.st4{fill:#FF3E3E;}
	.st5{fill:#EA0000;}
	.st6{fill:#53E000;}
	.st7{fill:none;}
</style>
<g>
	<path class="st7" d="M384.49,592.42c0-185.37,150.28-335.65,335.65-335.65h307.83v-195H52.96v989.08h331.53V592.42z"/>
	<path class="st0" d="M384.49,592.42v458.43h115.93L458.1,908.01l161.42-415.29l376.61-131.14l31.84,27.26V256.77H720.14
		C534.76,256.77,384.49,407.04,384.49,592.42z"/>
	<polygon class="st3" points="864.19,1017.02 873.14,886.36 864.19,908.01 	"/>
	<polygon class="st3" points="619.52,492.72 458.1,908.01 500.42,1050.84 638.07,1050.84 564.02,908.01 680.03,593.34 
		794.39,593.34 890.62,631.13 895.26,563.35 1027.97,568.96 1027.97,388.83 996.13,361.57 	"/>
	<polygon class="st3" points="895.26,563.35 890.62,631.13 966.3,660.86 873.14,886.36 864.19,1017.02 864.19,1017.13 
		892.61,1050.84 994.92,1050.84 956.37,983.69 1008.64,1050.84 1008.65,1050.84 928.89,948.37 1027.97,633.26 1027.97,568.96 	"/>
	<polygon class="st4" points="928.89,948.37 1008.65,1050.84 1027.97,1050.84 1027.97,633.26 	"/>
	<polygon class="st4" points="864.19,1017.02 864.19,908.01 873.14,886.36 966.3,660.86 890.62,631.13 794.39,593.34 680.03,593.34 
		564.02,908.01 638.07,1050.84 892.61,1050.84 864.19,1017.13 	"/>
	<polygon class="st5" points="994.92,1050.84 1008.64,1050.84 956.37,983.69 	"/>
</g>
</svg>
