<?xml version="1.0" encoding="utf-8"?>
<!-- Generator: Adobe Illustrator 26.0.3, SVG Export Plug-In . SVG Version: 6.00 Build 0)  -->
<svg version="1.1" id="Слой_1" xmlns="http://www.w3.org/2000/svg" xmlns:xlink="http://www.w3.org/1999/xlink" x="0px" y="0px"
	 viewBox="0 0 1080 1080" style="enable-background:new 0 0 1080 1080;" xml:space="preserve">
<style type="text/css">
	.st0{fill:#0095E0;}
	.st1{fill:#0084DD;}
	.st2{fill:#00BEF9;}
	.st3{fill:#00A6EF;}
	.st4{fill:#E5E5E5;}
	.st5{fill:#C0FCFF;}
	.st6{fill:#97E4FF;}
	.st7{fill:#E9FEFF;}
	.st8{fill:#CE0000;}
	.st9{fill:#FFDA00;}
	.st10{fill:#FFB000;}
	.st11{fill:#FFEB99;}
	.st12{fill:url(#SVGID_1_);}
	.st13{fill:#E30613;}
	.st14{fill:#FF55DB;}
	.st15{fill:url(#SVGID_00000089538956299794358240000000000223725091841446_);}
	.st16{fill:url(#SVGID_00000136409594268726766460000016706022824344237998_);}
	.st17{fill:url(#SVGID_00000000183352206927436980000010817272955855959942_);}
	.st18{fill:#6600BF;}
	.st19{fill:url(#SVGID_00000033339994919132515530000006143942803760703396_);}
	.st20{fill:#3E0066;}
	.st21{fill:#FF92E5;}
	.st22{fill:url(#SVGID_00000022557310626845813050000017513900602135527323_);}
	.st23{fill:url(#SVGID_00000103242748630879750690000004211477174581162682_);}
	.st24{fill:url(#SVGID_00000083086936044895459370000017487783793556324241_);}
	.st25{fill:none;stroke:#410096;stroke-width:13;stroke-linecap:round;stroke-miterlimit:10;}
	.st26{fill:none;stroke:#3D0084;stroke-width:23;stroke-linecap:round;stroke-miterlimit:10;}
	.st27{fill:#00A867;}
	.st28{fill:#FFA6DD;}
	.st29{fill:#FF88D2;}
	.st30{fill:#00DB68;}
	.st31{fill:#008464;}
	.st32{fill:#FFB8E7;}
	.st33{fill:#FFD2F2;}
	.st34{fill:#FFC5EC;}
	.st35{fill:#FFE6FA;}
	.st36{fill:#E50016;}
	.st37{fill:#FF1F1F;}
	.st38{fill:#C6001D;}
	.st39{fill:url(#SVGID_00000040551867916851688910000004690756963786195880_);}
	.st40{fill:url(#SVGID_00000163068132080743480400000013052981704687877000_);}
	.st41{fill:#FF6155;}
	.st42{fill:#009640;}
	.st43{fill:#00C650;}
	.st44{fill:#007F2D;}
	.st45{fill:none;stroke:#A06600;stroke-width:20;stroke-linecap:round;stroke-miterlimit:10;}
	.st46{fill:none;stroke:#60352B;stroke-width:20;stroke-linecap:round;stroke-miterlimit:10;}
	.st47{fill:none;stroke:#6D3600;stroke-width:20;stroke-linecap:round;stroke-miterlimit:10;}
	.st48{fill:none;stroke:#60352B;stroke-width:15;stroke-linecap:round;stroke-miterlimit:10;}
	.st49{fill:#00F445;}
	.st50{fill:#FFCE00;}
	.st51{fill:#FFDE3B;}
	.st52{fill:#5B3800;}
	.st53{fill:#844200;}
	.st54{fill:#422700;}
	.st55{fill:#7F3900;}
	.st56{fill:#774600;}
	.st57{fill:#0088ED;}
	.st58{fill:#08C5FF;}
	.st59{fill:#006054;}
	.st60{fill:#00894B;}
	.st61{fill:#004C43;}
	.st62{fill:#007C4F;}
	.st63{fill:#009B3F;}
	.st64{fill:url(#SVGID_00000083054242924610886010000017015347754040033413_);}
	.st65{fill:url(#SVGID_00000092453683892389130800000015070381797845623482_);}
	.st66{fill:url(#SVGID_00000165223924721172236280000001870532405459718797_);}
	.st67{fill:url(#SVGID_00000111164112057737143370000007740027260789783192_);}
	.st68{fill:url(#SVGID_00000029761871838659328560000001573500577888668564_);}
	.st69{fill:url(#SVGID_00000013169307384442676190000007878668701460222349_);}
	.st70{fill:url(#SVGID_00000125596941370716470950000013049429272005328539_);}
	.st71{fill:url(#SVGID_00000054951466034173334930000001114915807770352052_);}
	.st72{fill:url(#SVGID_00000116217706314880488470000009122638006777890953_);}
	.st73{fill:url(#SVGID_00000053519062832542480570000014779125295946429119_);}
	.st74{fill:url(#SVGID_00000101787910799478113070000016486822605577213628_);}
	.st75{fill:url(#SVGID_00000149342920763868506530000007185825004617250960_);}
	.st76{fill:url(#SVGID_00000098182019697518825810000011150985608251582859_);}
	.st77{fill:url(#SVGID_00000021822755438251669160000010403206985533760914_);}
	.st78{fill:url(#SVGID_00000160897417208543675360000007659362863033401780_);}
	.st79{fill:url(#SVGID_00000108297319486441156320000017200048663459771828_);}
	.st80{fill:url(#SVGID_00000000192013769760264220000001978089830885623441_);}
	.st81{fill:url(#SVGID_00000066512742172225701200000001975327525725428634_);}
	.st82{fill:url(#SVGID_00000004536852697684270080000016626739337075337403_);}
	.st83{fill:url(#SVGID_00000181775091855118004000000000482082782328220298_);}
	.st84{fill:url(#SVGID_00000174579467236402019980000004535260042115503030_);}
	.st85{fill:url(#SVGID_00000127007852586473957720000010104118638826488460_);}
	.st86{fill:url(#SVGID_00000024712263464083647340000008081346176327097488_);}
	.st87{fill:url(#SVGID_00000115472902110597183510000006913479617746838157_);}
	.st88{fill:url(#SVGID_00000062894086811858849470000002664244435040409271_);}
	.st89{fill:url(#SVGID_00000034056703163299581520000007096141532354995337_);}
	.st90{fill:url(#SVGID_00000017494405155784182140000004735453960890711218_);}
	.st91{fill:url(#SVGID_00000006684804628762232120000002646929895468283522_);}
	.st92{fill:url(#SVGID_00000160149753784229220570000013697723589323362479_);}
	.st93{fill:url(#SVGID_00000104689663753064325310000016784194846343878530_);}
	.st94{fill:url(#SVGID_00000140720152664682788820000014488513891490141336_);}
	.st95{fill:url(#SVGID_00000127754374108754449970000001920335647520322978_);}
	.st96{fill:url(#SVGID_00000024713637884284188130000014882277901519565485_);}
	.st97{fill:url(#SVGID_00000067922181885851797800000015886346590214350464_);}
	.st98{fill:url(#SVGID_00000065050789885864598620000000619521584529628813_);}
	.st99{fill:url(#SVGID_00000125590306646272894270000013716384891316784555_);}
	.st100{fill:url(#SVGID_00000039126406091417752330000017421066861017137799_);}
	.st101{fill:url(#SVGID_00000008108734373154537100000012092785492964012419_);}
	.st102{fill:url(#SVGID_00000081607117245798279490000011775695308245047712_);}
	.st103{fill:url(#SVGID_00000024686362472086600140000000092706841199112863_);}
	.st104{fill:url(#SVGID_00000069371598438551715570000008043509668217163196_);}
	.st105{fill:url(#SVGID_00000078761536949891075070000015155581682942375586_);}
	.st106{fill:url(#SVGID_00000052063340514512203060000004755805871128089791_);}
	.st107{fill:url(#SVGID_00000030465037086943550640000004598490147275718025_);}
	.st108{fill:url(#SVGID_00000034071206964526569290000013850551831722574230_);}
	.st109{fill:url(#SVGID_00000112599313439617346770000016475192288588519309_);}
	.st110{fill:url(#SVGID_00000013912348346334128160000016562597924018941079_);}
	.st111{fill:url(#SVGID_00000021109109011537250310000017012130493865030071_);}
	.st112{fill:url(#SVGID_00000073689962617911438750000014890387446748857530_);}
	.st113{fill:url(#SVGID_00000103956069954115343770000005825250998750930873_);}
	.st114{fill:url(#SVGID_00000086670526534739160500000014524673182404016790_);}
	.st115{fill:#FFBC27;}
	.st116{fill:url(#SVGID_00000125563364675339716330000016564831702534598021_);}
	.st117{fill:url(#SVGID_00000109710584027733729530000004931580692024515771_);}
	.st118{fill:url(#SVGID_00000026878144974401715760000008101832520842434961_);}
	.st119{fill:url(#SVGID_00000016071189859110987670000005285356056996792971_);}
	.st120{fill:url(#SVGID_00000099632933541993362570000007026148562632411784_);}
	.st121{fill:url(#SVGID_00000154419442950614837970000002133867225911089299_);}
	.st122{fill:url(#SVGID_00000067923172392493611950000014034230727511898300_);}
	.st123{fill:url(#SVGID_00000057840497372896335510000002821100412329823633_);}
	.st124{fill:url(#SVGID_00000028319938399271190770000018123024204898426291_);}
	.st125{fill:url(#SVGID_00000162340184435998373820000005964981762596435385_);}
	.st126{fill:url(#SVGID_00000124120849673291530290000006415858385695536275_);}
	.st127{fill:url(#SVGID_00000122696680278024174360000013511192007081094071_);}
	.st128{fill:url(#SVGID_00000006705253577602859000000000710579167141888700_);}
	.st129{fill:url(#SVGID_00000015336632010817635070000005568748229627704716_);}
	.st130{fill:url(#SVGID_00000023974202071935489100000002767997294026513315_);}
	.st131{fill:url(#SVGID_00000150824752888024833170000004930267744474758579_);}
	.st132{fill:url(#SVGID_00000082365902799724497840000012084150192466103702_);}
	.st133{fill:url(#SVGID_00000090989814621703969180000002531973750373029811_);}
	.st134{fill:url(#SVGID_00000073704792427425299740000017376892070402649249_);}
	.st135{fill:url(#SVGID_00000176752684801031578860000004734065814277473469_);}
	.st136{fill:url(#SVGID_00000115506769960304128100000011461700824189026437_);}
	.st137{fill:url(#SVGID_00000117678211635898472020000007280098037804654000_);}
	.st138{fill:url(#SVGID_00000157283800486800920530000002479141929366897331_);}
	.st139{fill:url(#SVGID_00000098912799302318347650000000696817418336126851_);}
	.st140{fill:url(#SVGID_00000075120442821532132250000000609970711698549122_);}
	.st141{fill:url(#SVGID_00000078009203993071411290000004108105296125309366_);}
	.st142{fill:url(#SVGID_00000170999361764423601440000006532476360949102488_);}
	.st143{fill:url(#SVGID_00000077318740689700856860000004638267071925752707_);}
	.st144{fill:url(#SVGID_00000026150595414443456000000008082488683296336265_);}
	.st145{fill:url(#SVGID_00000160883044662950510610000006598854612721778323_);}
	.st146{fill:url(#SVGID_00000065068461258555339060000000323995891014479778_);}
	.st147{fill:url(#SVGID_00000148658876225855442620000017628411084338172302_);}
	.st148{fill:url(#SVGID_00000021815813892752832920000001822056233413793922_);}
	.st149{fill:url(#SVGID_00000091710355284848098360000004603124869475171508_);}
	.st150{fill:url(#SVGID_00000144329258162342541220000003779708837957976477_);}
	.st151{fill:url(#SVGID_00000031900212192839170850000008349490312895849386_);}
	.st152{fill:url(#SVGID_00000000186166559713590280000001673437871325767083_);}
	.st153{fill:url(#SVGID_00000112590992656575330060000017996674932586766235_);}
	.st154{fill:url(#SVGID_00000071531585979104998470000009218452169601262724_);}
	.st155{fill:url(#SVGID_00000146494904306345082430000008702190151389655455_);}
	.st156{fill:url(#SVGID_00000055690601150973808560000004752556847779319699_);}
	.st157{fill:url(#SVGID_00000074427171569166537630000002004717491579967617_);}
	.st158{fill:url(#SVGID_00000102539055302116704790000015452366406386769064_);}
	.st159{fill:url(#SVGID_00000085237966203738354500000001181979133293410207_);}
	.st160{fill:url(#SVGID_00000145744233172966024990000011253723501812465548_);}
	.st161{fill:url(#SVGID_00000070800705438836151800000005101243990786523570_);}
	.st162{fill:url(#SVGID_00000150088880600045089660000012589879913071446694_);}
	.st163{fill:url(#SVGID_00000111910130881413990790000003583866496438379450_);}
	.st164{fill:#FFC545;}
	.st165{fill:url(#SVGID_00000049940250972458263570000015546982209135430814_);}
	.st166{fill:url(#SVGID_00000116955693468587033350000003575488265190775189_);}
	.st167{fill:url(#SVGID_00000026884560645610001730000005267041682812385672_);}
	.st168{fill:url(#SVGID_00000065771469917021768010000005038790259646348961_);}
	.st169{fill:url(#SVGID_00000104702682446397631460000008925056994516977052_);}
	.st170{fill:url(#SVGID_00000168823458347563546770000003066636430967669665_);}
	.st171{fill:url(#SVGID_00000080186817366172841800000012159130440333872543_);}
	.st172{fill:url(#SVGID_00000163039301468799334750000000373897413227793320_);}
	.st173{fill:url(#SVGID_00000008862273482637016190000008525998690457466005_);}
	.st174{fill:url(#SVGID_00000105419253548106706980000015956985877877072061_);}
	.st175{fill:url(#SVGID_00000063612962203688360320000001017670823070819504_);}
	.st176{fill:url(#SVGID_00000078733033098155517720000012713095582959903133_);}
	.st177{fill:url(#SVGID_00000091006245021665954610000003274708527218248877_);}
	.st178{fill:url(#SVGID_00000183948297881802729640000002945819392959070095_);}
	.st179{fill:url(#SVGID_00000016053932686153604880000004867761873963834291_);}
	.st180{fill:url(#SVGID_00000144339105947709049770000005734110009710798479_);}
	.st181{fill:url(#SVGID_00000144320495704723614210000013436914250180557198_);}
	.st182{fill:url(#SVGID_00000042735400188093804180000007100297464333031560_);}
	.st183{fill:url(#SVGID_00000047763437181436492750000009069326795174013322_);}
	.st184{fill:url(#SVGID_00000075870223121984452580000002676165420902091184_);}
	.st185{fill:url(#SVGID_00000089533861925723252970000018155190395845922957_);}
	.st186{fill:url(#SVGID_00000139277574992591000010000006474750671876417971_);}
	.st187{fill:url(#SVGID_00000018928370569353516910000000062433080737144762_);}
	.st188{fill:url(#SVGID_00000076585331028763280190000015884734779492953244_);}
	.st189{fill:url(#SVGID_00000038398227808732132160000017678341408348575415_);}
	.st190{fill:url(#SVGID_00000080198384041299142670000012158079126214720680_);}
	.st191{fill:url(#SVGID_00000003075914586269821200000004343667167900593552_);}
	.st192{fill:url(#SVGID_00000033331528493203441410000015691498301006658450_);}
	.st193{fill:url(#SVGID_00000134952682713290616090000009139718752664858509_);}
	.st194{fill:url(#SVGID_00000087387593451666495420000002999754585266009519_);}
	.st195{fill:url(#SVGID_00000072962932821037943000000016060994870823067310_);}
	.st196{fill:url(#SVGID_00000057112187676231599030000015050020643787561355_);}
	.st197{fill:url(#SVGID_00000005949326222314550640000009551934202433345457_);}
	.st198{fill:url(#SVGID_00000180347708374188560080000013071928880763574173_);}
	.st199{fill:url(#SVGID_00000071552874031217483980000017841456887040250262_);}
	.st200{fill:url(#SVGID_00000011713937325811174770000004716169081828199054_);}
	.st201{fill:url(#SVGID_00000181056185909775505090000015833427796984842639_);}
	.st202{fill:url(#SVGID_00000118397666051474136570000016625021787574763654_);}
	.st203{fill:url(#SVGID_00000021102894045302195160000010567129362718893498_);}
	.st204{fill:url(#SVGID_00000002367753293317483140000005918249430246297003_);}
	.st205{fill:url(#SVGID_00000146499228110382112210000001679562041525173383_);}
	.st206{fill:url(#SVGID_00000141447656085486295690000011952366806849754016_);}
	.st207{fill:url(#SVGID_00000158731702524850878310000009555362054315271341_);}
	.st208{fill:url(#SVGID_00000178174859702999516020000013002862936091919036_);}
	.st209{fill:url(#SVGID_00000008124730452191010110000002591428710212230280_);}
	.st210{fill:url(#SVGID_00000111878735677096115220000015891486677215485616_);}
	.st211{fill:url(#SVGID_00000044169597933013521650000018340920929448811185_);}
	.st212{fill:url(#SVGID_00000165917975430502674070000002474607563847121544_);}
	.st213{fill:url(#SVGID_00000036251697803892240020000017804458512624904613_);}
	.st214{fill:url(#SVGID_00000181081201627446510230000006130249962919527581_);}
	.st215{fill:url(#SVGID_00000137839921160665554820000006070985368073049278_);}
	.st216{fill:url(#SVGID_00000056396283145280495680000000914455592050034052_);}
	.st217{fill:url(#SVGID_00000045608648583654628910000010976974224452304266_);}
	.st218{fill:url(#SVGID_00000146476713663334119160000014271545016530708097_);}
	.st219{fill:url(#SVGID_00000085219243910168063970000017321848291268719291_);}
	.st220{fill:url(#SVGID_00000163071847405167988090000005663829768197088911_);}
	.st221{fill:url(#SVGID_00000070829563817556726210000014772266006225773958_);}
	.st222{fill:url(#SVGID_00000132794373959257835840000008470844531976188048_);}
	.st223{fill:url(#SVGID_00000133517016464756516320000018107792951732049808_);}
	.st224{fill:url(#SVGID_00000029752957206993098460000017989036993685344944_);}
	.st225{fill:url(#SVGID_00000114045146066316271190000018243250627044225977_);}
	.st226{fill:url(#SVGID_00000090283227609253460080000015433849951865535905_);}
	.st227{fill:url(#SVGID_00000121999143841835490250000014282893324518128259_);}
	.st228{fill:url(#SVGID_00000113327682139180206750000016671273730382852768_);}
</style>
<g>
	<path class="st36" d="M747.2,615.64c-13.59,230.75-74.07,276.32-167.22,301.27c-91.54,24.52-223.12-65.96-144.46-282.5
		c73.29-201.76,72.14-554.52,129.73-550.93c9.83,0.61,21.98,9.77,35.31,25.71h0.01c16.07,19.19,33.87,48.21,51.37,83.91
		C705.13,301.52,755.67,471.64,747.2,615.64z"/>
	<path class="st37" d="M506,916.91c-93.16-24.95-153.65-70.52-167.23-301.27c-8.98-152.5,48.25-334.32,104.71-441.11
		c11.91-22.54,23.78-41.74,35-56.6c16.06-21.3,30.75-33.75,42.26-34.46c22.91-1.43,36.52,53.54,49.22,132.97v0.01
		c9.54,59.6,18.56,132.98,30.61,206.63c12.24,74.89,27.64,150.06,49.89,211.33C729.11,850.95,597.52,941.43,506,916.91z"/>
	<path class="st38" d="M651.94,193.09L587.6,348.75c0,0-34.98-24.45-17.65-132.3c17.34-107.84,30.61-107.27,30.61-107.27h0.01
		C616.64,128.37,634.43,157.39,651.94,193.09z"/>
	<path class="st36" d="M600.56,423.08l-61.84,300.23l-95.24-548.78c11.91-22.54,23.78-41.74,35-56.6
		c13.4,21.25,34.6,57.66,43.47,88.05c13.43,46.05,16.78,161.19,16.78,161.19s23.51-52.2,31.24-150.72
		C579.48,276.06,588.5,349.43,600.56,423.08z"/>
	<path class="st37" d="M760.39,902.94c-20.59,30.16-79.28,93.61-228.96,93.61c-35.16,0-66.04-5.72-92.73-14.56
		c-51.98-17.21-88.08-46.25-108.94-67.84c-4.99-5.16-9.1-9.9-12.36-13.94c-0.06-0.07-0.11-0.14-0.17-0.21
		c-18.14-23.69,144.83-16.01,214.19-16.01c5.89,0,12.56-0.05,19.8-0.12c7.25-0.07,15.09-0.16,23.33-0.25
		C655.33,882.71,774.82,881.81,760.39,902.94z"/>
	<linearGradient id="SVGID_1_" gradientUnits="userSpaceOnUse" x1="653.2145" y1="384.2636" x2="657.308" y2="707.6595">
		<stop  offset="4.005127e-03" style="stop-color:#FF422F"/>
		<stop  offset="0.6195" style="stop-color:#FF2D20"/>
		<stop  offset="1" style="stop-color:#FF1F1F"/>
	</linearGradient>
	<path class="st12" d="M513.11,679.43c-78.67,216.54,52.92,307.03,144.45,282.51c93.16-24.96,153.64-70.52,167.23-301.27
		S700.42,132.08,642.84,128.5C585.25,124.91,586.41,477.68,513.11,679.43z"/>
	<path class="st36" d="M552.39,614.49c0,0,20.83-53.9,48.16-40.09c27.33,13.82,69.11,68.95,88.51,122.74s30.44,148.96,22.38,199.63
		c-7.33,46.08-19.43,68.4-42.31,76.17c-30.05,10.21-53.07-49.39-65.63-93.06s-16.62-125.87-16.62-125.87l-43.95-109.45
		L552.39,614.49z"/>
	
		<linearGradient id="SVGID_00000071523847651242439490000011407447401238863000_" gradientUnits="userSpaceOnUse" x1="418.4535" y1="387.3062" x2="422.5471" y2="710.6981">
		<stop  offset="4.005127e-03" style="stop-color:#FF422F"/>
		<stop  offset="0.6195" style="stop-color:#FF2D20"/>
		<stop  offset="1" style="stop-color:#FF1F1F"/>
	</linearGradient>
	<path style="fill:url(#SVGID_00000071523847651242439490000011407447401238863000_);" d="M574.57,883.62
		c-6.61,14.55-14.95,27.15-24.51,37.8c-34.7,38.68-85.42,51.82-127.63,40.52c-36.06-9.66-67.22-22.4-92.67-47.78
		c-4.29-4.27-8.4-8.91-12.36-13.94c-0.06-0.07-0.11-0.14-0.17-0.21c-33.16-42.33-54.61-113.15-62.03-239.34
		c-7.8-132.53,34.38-287.19,82.62-395.51c0.01-0.02,0.02-0.05,0.03-0.07c0.04-0.1,0.16-0.35,0.31-0.7
		c35.66-79.87,74.56-134.36,98.99-135.88c57.58-3.59,56.43,349.17,129.72,550.93C599.28,768.63,596.01,836.43,574.57,883.62z"/>
	<path class="st41" d="M642.84,128.5c-11.08-0.69-19.98,11.82-27.66,33.89c62.09,32.83,184.65,310.88,171.81,529
		c-7.88,133.89-28.64,210.61-65.32,251.95c57.04-44.34,92.8-107.25,103.12-282.67C838.37,429.92,700.42,132.08,642.84,128.5z"/>
	<g>
		<path class="st41" d="M411.45,143.72c55.18-3.44,30.71,433.18,161.49,553.42c-1.86-5.81-3.87-11.71-6.06-17.72
			c-73.29-201.75-72.14-554.52-129.72-550.93C429.75,128.96,421.02,134.3,411.45,143.72L411.45,143.72z"/>
	</g>
	<path class="st36" d="M551.78,910.6c-0.4,3.74-0.98,7.35-1.72,10.82c-10.16,47.88-50.9,70.66-89.76,64.73
		c-4.82-0.74-12.24-2.18-21.6-4.16c-51.98-17.21-88.08-46.25-108.94-67.84c-4.29-4.27-8.4-8.91-12.36-13.94
		c-0.06-0.07-0.11-0.14-0.17-0.21c-33.16-42.33-54.61-113.15-62.03-239.34c-7.8-132.53,34.38-287.19,82.62-395.51
		c0,0,0.01-0.02,0.03-0.07c0.04-0.1,0.16-0.35,0.31-0.7c2.18-4.65,14.19-28.45,28.58-21.05c15.91,8.19,10.79,147.8,17.91,214.92
		c7.96,75.07,57.55,223.1,89.53,282.45c27.32,50.72,69.58,92.59,77.04,143.17C552.52,892.5,552.78,901.37,551.78,910.6z"/>
</g>
</svg>
