<?xml version="1.0" encoding="utf-8"?>
<!-- Generator: Adobe Illustrator 26.0.3, SVG Export Plug-In . SVG Version: 6.00 Build 0)  -->
<svg version="1.1" id="Слой_1" xmlns="http://www.w3.org/2000/svg" xmlns:xlink="http://www.w3.org/1999/xlink" x="0px" y="0px"
	 viewBox="0 0 1080 1080" style="enable-background:new 0 0 1080 1080;" xml:space="preserve">
<style type="text/css">
	.st0{fill:url(#SVGID_1_);}
	.st1{fill:url(#SVGID_00000088839380705336105280000015525069839470133378_);}
	.st2{fill:url(#SVGID_00000083772484682702771920000002957758576112318621_);}
	.st3{fill:#FF39BD;}
	.st4{fill:none;stroke:#FF8AE6;stroke-width:30;stroke-linecap:round;stroke-miterlimit:10;}
	.st5{fill:url(#SVGID_00000138562553206928420540000012946052926883500988_);}
	.st6{fill:#FFEF5C;}
	.st7{fill:#FFDB43;}
	.st8{fill:#FF0031;}
	.st9{fill:#DD0000;}
	.st10{fill:#FF557E;}
	.st11{fill:#FFCD2C;}
	.st12{fill:#22D0FF;}
	.st13{fill:#00BCEF;}
	.st14{fill:#66E2FF;}
	.st15{fill:#FF1FC0;}
	.st16{fill:#EA00A8;}
	.st17{fill:#FF73DE;}
	.st18{fill:none;stroke:#FFF5B0;stroke-width:15;stroke-linecap:round;stroke-miterlimit:10;}
	.st19{fill:url(#SVGID_00000170983046034585457970000018172659886688754849_);}
	.st20{fill:#1C73AD;}
	.st21{fill:#CCD9DB;}
	.st22{fill:#00A894;}
	.st23{fill:#B6C6C5;}
	.st24{fill:#3283C6;}
	.st25{fill:#EAF3F4;}
	.st26{fill:#00847D;}
	.st27{fill:#E2001B;}
	.st28{fill:#FFFFFF;}
	.st29{fill:url(#SVGID_00000165955275767003436380000000385066212404875689_);}
	.st30{fill:#D7D7FF;}
	.st31{fill:#A6B7FF;}
	.st32{fill:#170060;}
	.st33{fill:#000630;}
	.st34{fill:#E6F3FF;}
	.st35{fill:none;stroke:#170060;stroke-width:15;stroke-linecap:round;stroke-miterlimit:10;}
	.st36{fill:none;stroke:#E3F1FF;stroke-width:30;stroke-linecap:round;stroke-miterlimit:10;}
	.st37{fill:none;stroke:#EAF3F4;stroke-width:30;stroke-linecap:round;stroke-miterlimit:10;}
	.st38{fill:none;stroke:#EAF3F4;stroke-width:20;stroke-linecap:round;stroke-miterlimit:10;}
	.st39{fill:none;stroke:#FF4D4D;stroke-width:20;stroke-linecap:round;stroke-miterlimit:10;}
	.st40{fill:url(#SVGID_00000169524938543818148510000006412938551049383056_);}
	.st41{fill:#FF50D6;}
	.st42{fill:#EEFF76;}
	.st43{fill:#5252FF;}
	.st44{fill:none;stroke:#2B2B2B;stroke-width:30;stroke-miterlimit:10;}
	.st45{fill:#2B2B2B;}
	.st46{fill:none;stroke:#F1FFD7;stroke-width:30;stroke-linecap:round;stroke-miterlimit:10;}
	.st47{fill:url(#SVGID_00000086685389339476095840000006264087588357876918_);}
	.st48{fill:#424242;}
	.st49{fill:#161616;}
	.st50{fill:#757575;}
	.st51{fill:none;stroke:#161616;stroke-width:25;stroke-miterlimit:10;}
	.st52{fill:#1C1C1C;}
	.st53{fill:#FF4DDD;stroke:#640089;stroke-width:10;stroke-miterlimit:10;}
	.st54{fill:#1D1D1B;}
</style>
<linearGradient id="SVGID_1_" gradientUnits="userSpaceOnUse" x1="540" y1="1089.0265" x2="540" y2="-5.492">
	<stop  offset="0" style="stop-color:#D098FB"/>
	<stop  offset="1" style="stop-color:#FEA5E8"/>
</linearGradient>
<rect x="-11.35" y="-5.49" class="st0" width="1102.7" height="1094.52"/>
<g>
	<path class="st6" d="M334.36,806.61h402.75c33.66,0,63.76-20.94,75.47-52.49l132.19-356.24c5.57-15.02-9.45-29.46-24.24-23.3
		l-218,90.91L546.08,217.61c-7.35-11.64-24.43-11.33-31.35,0.57L372.69,462.66l-213.4-86.32c-14.61-5.91-29.37,8.15-24.18,23.03
		l123.25,353.25C269.63,784.95,300.12,806.61,334.36,806.61z"/>
	<path class="st7" d="M773.14,746.6H370.39c-34.24,0-64.73-21.66-76.01-53.98L188.1,388l-28.81-11.66
		c-14.61-5.91-29.37,8.15-24.18,23.03l123.25,353.25c11.28,32.33,41.77,53.98,76.01,53.98h402.75c33.66,0,63.76-20.94,75.47-52.49
		l8.73-23.52C807.7,740.76,790.92,746.6,773.14,746.6z"/>
	<path class="st7" d="M713.09,482.21l232.08-96.88c-3.25-9.27-13.89-15.33-24.42-10.94l-218.21,91.1L713.09,482.21z"/>
	<ellipse class="st7" cx="528.72" cy="453.89" rx="40.41" ry="74.47"/>
	<path class="st7" d="M399.09,472.74l142.11-244.8c1.79-3.08,4.26-5.37,7.06-6.9l-2.34-3.7c-7.35-11.64-24.43-11.33-31.35,0.57
		l-142.2,244.62L399.09,472.74z"/>
	<ellipse class="st8" cx="537.96" cy="438" rx="40.41" ry="74.47"/>
	<path class="st9" d="M554.05,498.19c-22.32,0-40.41-33.34-40.41-74.47c0-23.62,5.97-44.65,15.28-58.29
		c-17.96,7.57-31.37,37.18-31.37,72.57c0,41.13,18.09,74.47,40.41,74.47c9.5,0,18.23-6.06,25.13-16.18
		C560.19,497.52,557.16,498.19,554.05,498.19z"/>
	<path class="st10" d="M571.53,453.66c0,13.58-1.68,26.3-5.14,37.26c7.4-13.5,11.98-32.22,11.98-52.92
		c0-41.13-18.09-74.47-40.41-74.47c-6.06,0-11.8,2.47-16.96,6.88C552.65,370.43,571.53,412.54,571.53,453.66z"/>
	<path class="st8" d="M542.43,507.83c-22.32,0-40.41-33.34-40.41-74.47c0-26.22,7.36-49.26,18.48-62.53
		c-13.57,12.01-22.94,37.57-22.94,67.17c0,41.13,18.09,74.47,40.41,74.47c8.09,0,15.61-4.4,21.93-11.94
		C554.61,505.21,548.68,507.83,542.43,507.83z"/>
	<path class="st10" d="M524.74,396.29c2.25-5.82,6.23-9.34,11.55-9.01c7.4,0.46,23.05,15.42,25.13,54.38c0,0-13.6-43.3-25.72-45
		c-8.09-1.13-13.65,9.48-13.65,9.48S522.49,402.11,524.74,396.29z"/>
	<path class="st10" d="M558.09,480.91c0,0-3.57,7.13-9.83,5.88c-14.23-2.85-20.05-25.84-25.22-40.41c0,0,13.73,27,22.87,32.11
		C551.24,481.46,554.52,481.93,558.09,480.91z"/>
	<path class="st9" d="M525.39,418.97c0,0,3.29-13.63,9.87-10.34c6.58,3.29,20.29,26.78,22.83,42.29c2.54,15.51-1.97-8.14-8.4-4.54
		c-6.44,3.6,1.08,21.69,5.78,22.28c4.7,0.59-4.94,7.54-14.9-4.11c-9.54-11.16-15.17-21.89-15.17-29.6c3.76,4.01,9.55,7.5,12.25,1.85
		C541.73,428.25,537.11,417.06,525.39,418.97z"/>
	<polygon class="st7" points="837.04,688.2 261.33,688.2 261.33,664.24 846.31,664.24 	"/>
	<polygon class="st11" points="235.87,688.2 293.04,688.2 284.48,664.24 227.03,664.24 	"/>
	<g>
		
			<ellipse transform="matrix(0.8244 -0.5661 0.5661 0.8244 -239.096 259.588)" class="st7" cx="298.76" cy="515.08" rx="26.53" ry="33.95"/>
		
			<ellipse transform="matrix(0.8244 -0.5661 0.5661 0.8244 -233.8529 261.9948)" class="st12" cx="305.26" cy="507.83" rx="26.53" ry="33.95"/>
		<path class="st13" d="M292.61,515.4c-8.68-13.24-8.83-28.9-1.23-38.2c-1.65,0.55-3.24,1.29-4.73,2.24
			c-12.36,7.87-14.04,26.96-3.76,42.64c10.28,15.68,28.64,22.01,41,14.14c1.93-1.23,3.59-2.72,4.99-4.44
			C316.91,535.74,301.64,529.18,292.61,515.4z"/>
		<path class="st14" d="M316.93,494.93c7.44,8.1,13.31,16.55,17.16,24.34c1.1-8.06-0.98-17.36-6.45-25.69
			c-10.28-15.68-28.64-22.01-41-14.14c-2.07,1.32-3.84,2.96-5.31,4.85C292.71,479.84,305.96,482.99,316.93,494.93z"/>
		<path class="st12" d="M285.47,520.3c-9.74-14.84-8.74-32.74,1.89-41.28c-0.24,0.14-0.48,0.28-0.72,0.43
			c-12.36,7.87-14.04,26.96-3.76,42.64c10.28,15.68,28.64,22.01,41,14.14c0.66-0.42,1.28-0.88,1.88-1.36
			C313.41,542.05,295.56,535.68,285.47,520.3z"/>
		<path class="st14" d="M315.99,501.51c0,0-13.78-15.04-19.42-13.16c-5.64,1.88-6.26,5.48-5.64,9.32c0,0,1.57-2.59,5.95-2.82
			C301.27,494.62,315.99,501.51,315.99,501.51z"/>
		<path class="st14" d="M325.75,515.08c0,0-1.25,10.31-4.75,11.25c-3.5,0.94-13.15-2.9-22.24-10.41c0,0,14.36,4.87,17.6,4.87
			C321.31,520.77,325.75,515.08,325.75,515.08z"/>
		<path class="st13" d="M292.81,504.64c0,0,1.7-5.49,8.14-5.01c5.25,0.39,12.22,3.05,17.23,6.58c2.29,1.61-3.39-1.57-5.92,0
			c-2.53,1.57,0.91,5.95,3.73,6.26c2.82,0.31,6.26,0,6.26,0s-0.94,3.76-4.7,4.07c-3.76,0.31-8.85,0.03-16.29-3.05
			c-2.81-1.17-4.7-4.18-4.7-4.18s8.51,2.39,7.75-1.48c-0.47-2.41-3.37-4.6-6.26-5.23S292.81,504.64,292.81,504.64z"/>
	</g>
	<circle class="st7" cx="456.2" cy="549.74" r="21.37"/>
	<g>
		
			<ellipse transform="matrix(0.5661 -0.8244 0.8244 0.5661 -74.983 876.1775)" class="st7" cx="794.76" cy="509.31" rx="33.95" ry="26.53"/>
		
			<ellipse transform="matrix(0.5661 -0.8244 0.8244 0.5661 -66.122 882.808)" class="st12" cx="805.49" cy="504.21" rx="33.95" ry="26.53"/>
		<path class="st13" d="M818.15,511.78c8.68-13.24,8.83-28.9,1.23-38.2c1.65,0.55,3.24,1.29,4.73,2.24
			c12.36,7.87,14.04,26.96,3.76,42.64c-10.28,15.68-28.64,22.01-41,14.14c-1.93-1.23-3.59-2.72-4.99-4.44
			C793.84,532.11,809.11,525.56,818.15,511.78z"/>
		<path class="st14" d="M793.83,491.31c-7.44,8.1-13.31,16.55-17.16,24.34c-1.1-8.06,0.98-17.36,6.45-25.69
			c10.28-15.68,28.64-22.01,41-14.14c2.07,1.32,3.84,2.96,5.31,4.85C818.04,476.22,804.79,479.36,793.83,491.31z"/>
		<path class="st12" d="M825.28,516.68c9.74-14.84,8.74-32.74-1.89-41.28c0.24,0.14,0.48,0.28,0.72,0.43
			c12.36,7.87,14.04,26.96,3.76,42.64c-10.28,15.68-28.64,22.01-41,14.14c-0.66-0.42-1.28-0.88-1.88-1.36
			C797.34,538.43,815.19,532.06,825.28,516.68z"/>
		<path class="st14" d="M794.76,497.88c0,0,13.78-15.04,19.42-13.16c5.64,1.88,6.26,5.48,5.64,9.32c0,0-1.57-2.59-5.95-2.82
			S794.76,497.88,794.76,497.88z"/>
		<path class="st14" d="M785,511.46c0,0,1.25,10.31,4.75,11.25c3.5,0.94,13.15-2.9,22.24-10.41c0,0-14.36,4.87-17.6,4.87
			C789.44,517.15,785,511.46,785,511.46z"/>
		<path class="st13" d="M817.95,501.02c0,0-1.7-5.49-8.14-5.01c-5.25,0.39-12.22,3.05-17.23,6.58c-2.29,1.61,3.39-1.57,5.92,0
			s-0.91,5.95-3.73,6.26s-6.26,0-6.26,0s0.94,3.76,4.7,4.07s8.85,0.03,16.29-3.05c2.81-1.17,4.7-4.18,4.7-4.18s-8.51,2.39-7.75-1.48
			c0.47-2.41,3.37-4.6,6.26-5.23S817.95,501.02,817.95,501.02z"/>
	</g>
	<circle class="st15" cx="465.37" cy="543.46" r="21.37"/>
	<path class="st16" d="M472.69,560.98c-11.8,0-21.37-9.57-21.37-21.37c0-6.72,3.11-12.7,7.95-16.62
		c-8.83,2.63-15.27,10.8-15.27,20.48c0,11.8,9.57,21.37,21.37,21.37c5.09,0,9.75-1.78,13.42-4.75
		C476.86,560.66,474.82,560.98,472.69,560.98z"/>
	<path class="st17" d="M465.37,522.08c-6.58,0-12.46,2.98-16.38,7.66c3.29-2.06,7.16-3.27,11.33-3.27c11.8,0,21.37,9.57,21.37,21.37
		c0,5.22-1.88,10.01-4.99,13.72c6.03-3.78,10.05-10.46,10.05-18.1C486.75,531.65,477.18,522.08,465.37,522.08z"/>
	<path class="st15" d="M467.87,563.2c-11.81,0-21.37-9.57-21.37-21.37c0-7,3.38-13.19,8.58-17.09c-6.6,3.64-11.07,10.66-11.07,18.73
		c0,11.8,9.57,21.37,21.37,21.37c4.81,0,9.23-1.61,12.8-4.28C475.12,562.23,471.61,563.2,467.87,563.2z"/>
	<circle class="st7" cx="599.75" cy="551.35" r="21.37"/>
	<path class="st17" d="M456.2,533.03c0,0,8.22-3.41,14.1,1.29c5.87,4.7,7.52,11.63,6.23,17.03c0,0-2.75-9.51-8.66-13.51
		C461.96,533.85,456.2,533.03,456.2,533.03z"/>
	<circle class="st15" cx="606.33" cy="544.78" r="21.37"/>
	<path class="st16" d="M613.65,562.3c-11.8,0-21.37-9.57-21.37-21.37c0-6.72,3.11-12.7,7.95-16.62
		c-8.83,2.63-15.27,10.8-15.27,20.48c0,11.8,9.57,21.37,21.37,21.37c5.09,0,9.75-1.78,13.42-4.75
		C617.82,561.98,615.78,562.3,613.65,562.3z"/>
	<path class="st17" d="M606.33,523.41c-6.58,0-12.46,2.98-16.38,7.66c3.29-2.06,7.16-3.27,11.33-3.27c11.8,0,21.37,9.57,21.37,21.37
		c0,5.22-1.88,10.01-4.99,13.72c6.03-3.78,10.05-10.46,10.05-18.1C627.71,532.98,618.14,523.41,606.33,523.41z"/>
	<path class="st15" d="M608.83,564.52c-11.8,0-21.37-9.57-21.37-21.37c0-7,3.38-13.19,8.58-17.09c-6.6,3.64-11.07,10.66-11.07,18.73
		c0,11.8,9.57,21.37,21.37,21.37c4.81,0,9.23-1.61,12.8-4.28C616.08,563.56,612.57,564.52,608.83,564.52z"/>
	<path class="st17" d="M597.17,534.35c0,0,8.22-3.41,14.1,1.29c5.87,4.7,7.52,11.63,6.23,17.03c0,0-2.75-9.51-8.66-13.51
		C602.92,535.17,597.17,534.35,597.17,534.35z"/>
	<line class="st18" x1="553.15" y1="270.25" x2="646.34" y2="422.06"/>
	<line class="st18" x1="660.72" y1="445.95" x2="671.05" y2="461.84"/>
	<line class="st18" x1="921.02" y1="414.45" x2="878.73" y2="504.78"/>
	<line class="st18" x1="378.32" y1="488.19" x2="351.54" y2="473.58"/>
</g>
</svg>
