<?xml version="1.0" encoding="utf-8"?>
<!-- Generator: Adobe Illustrator 26.0.3, SVG Export Plug-In . SVG Version: 6.00 Build 0)  -->
<svg version="1.1" id="Слой_1" xmlns="http://www.w3.org/2000/svg" xmlns:xlink="http://www.w3.org/1999/xlink" x="0px" y="0px"
	 viewBox="0 0 1080 1080" style="enable-background:new 0 0 1080 1080;" xml:space="preserve">
<style type="text/css">
	.st0{fill:#FFCB8D;}
	.st1{fill:#AF4F00;stroke:#7A2C00;stroke-width:5;stroke-miterlimit:10;}
	.st2{fill:#FFE8A6;}
	.st3{fill:#7A2C00;}
	.st4{fill:#301600;}
	.st5{fill:#FF9D4D;}
	.st6{fill:#913B00;}
	.st7{fill:#AF4F00;}
	.st8{fill:#441D00;}
	.st9{fill:#0F0600;}
	.st10{fill:#495154;}
	.st11{fill:#FFF0CA;}
	.st12{fill:#722E00;}
	.st13{fill:#FF8AD5;}
	.st14{fill:#FF64B5;}
	.st15{fill:#FF5FBE;}
	.st16{fill:#ED0061;}
	.st17{fill:#C60042;}
	.st18{fill:#FFB0EB;}
	.st19{fill:#CF85FF;}
	.st20{fill:#AA00F9;}
	.st21{fill:#160900;}
	.st22{fill:#626D7C;}
	.st23{fill:none;stroke:#E7AEFF;stroke-width:30;stroke-linecap:round;stroke-miterlimit:10;}
	.st24{fill:#0BAEFF;}
	.st25{fill:#007ACC;}
	.st26{fill:#0058C1;}
	.st27{fill:#22D5FF;}
	.st28{fill:#08D1FF;}
	.st29{fill:#282828;}
	.st30{fill:#636363;}
	.st31{fill:#48D8FF;}
	.st32{fill:#141414;}
	.st33{fill:#FFDA00;}
	.st34{fill:#FFB600;}
	.st35{fill:#FFA300;}
	.st36{fill:#FFE36E;}
	.st37{fill:none;stroke:#FFE36E;stroke-width:20;stroke-linecap:round;stroke-linejoin:round;stroke-miterlimit:10;}
	.st38{fill:#F44B00;}
	.st39{fill:#D82E00;}
	.st40{fill:#FF9312;}
	.st41{fill:#DD7300;}
	.st42{fill:none;stroke:#D35A00;stroke-width:8;stroke-linecap:round;stroke-miterlimit:10;}
	.st43{fill:#5B3A00;}
	.st44{fill:#472300;}
	.st45{fill:#D35A00;}
	.st46{fill:none;stroke:#FFB048;stroke-width:20;stroke-linecap:round;stroke-miterlimit:10;}
	.st47{fill:none;stroke:#FFB048;stroke-width:12;stroke-linecap:round;stroke-miterlimit:10;}
	.st48{fill:#00AD5A;}
	.st49{fill:#00F445;}
	.st50{fill:#00CC66;}
	.st51{fill:#00CC49;}
	.st52{fill:#1DFFEE;stroke:#00A58D;stroke-width:15;stroke-miterlimit:10;}
	.st53{fill:#203533;}
	.st54{fill:none;stroke:#5CFF68;stroke-width:20;stroke-linecap:round;stroke-miterlimit:10;}
	.st55{fill:#00D6D0;}
	.st56{fill:#00AAAA;}
	.st57{fill:#2CFFEA;}
	.st58{fill:#00E8D7;}
	.st59{fill:#00635E;}
	.st60{fill:#009388;}
	.st61{fill:none;stroke:#00AAAA;stroke-width:20;stroke-miterlimit:10;}
</style>
<g>
	<path class="st33" d="M803.55,309.06c52.5-11.11,140.84-61.71,167.04-94.43s39.35-65.82,29.59-83.08s-38.27-21.92-86.45-17.48
		c-72.5,6.67-144.17,61.29-167.04,94.43c-22.87,33.14-40.47,68.82-31.51,84.68C724.16,309.03,751.05,320.17,803.55,309.06z"/>
	<path class="st34" d="M836.63,279.21c-52.5,11.11-79.39-0.03-88.36-15.89s8.64-51.54,31.51-84.68c2.59-3.75,5.8-7.77,9.57-11.97
		c-19.22,14.54-34.24,29.63-42.65,41.82c-22.87,33.14-40.47,68.82-31.51,84.68c8.97,15.86,35.86,27,88.36,15.89
		c52.5-11.11,140.84-61.71,167.04-94.43c0.27-0.33,0.52-0.66,0.78-0.99C932.97,241.64,875.15,271.05,836.63,279.21z"/>
	<path class="st33" d="M630.47,220.24l-42.99-4.89c-10.45-1.19-17.95-10.62-16.76-21.06l8.75-77c0.36-3.13-0.07-6.31-1.25-9.24
		l-8.33-20.77c-5.36-13.37,5.5-27.63,19.82-26l71.91,8.18c14.37,1.63,21.74,18.06,13.41,29.88l-11.09,15.74
		c-1.84,2.61-2.99,5.64-3.36,8.82l-9.05,79.58C650.34,213.93,640.91,221.43,630.47,220.24z"/>
	<path class="st35" d="M661.62,69.46l-71.91-8.18c-14.32-1.63-25.18,12.63-19.82,26l8.33,20.77c1.17,2.93,1.6,6.1,1.25,9.24
		l-4.11,36.15l0.03,0c0,0,45.97-49.17,81.23,5.24l3.96-34.79c0.36-3.17,1.51-6.21,3.36-8.82l11.09-15.74
		C683.36,87.52,675.99,71.1,661.62,69.46z"/>
	<path class="st33" d="M768.42,376.59c-2.67,7.14-6.6,13.99-11.77,20.28L604.87,581.34c-32.08,38.99-96.35,39.5-129.17,1.01
		L318.4,397.87c-22.57-26.47-22.57-63.42,0-89.89l68.79-80.67c15.35-18.01,39.05-28.55,64.16-28.55h173.93
		c25.6,0,49.7,10.96,65,29.56l66.37,80.67c5.46,6.64,9.53,13.9,12.2,21.47C774.17,345.46,774.03,361.66,768.42,376.59z"/>
	<path class="st33" d="M457.86,442.45c0,34.97-24.1,64.84-58.07,76.7c-10.12,3.54-21.11,5.48-32.6,5.48c-0.88,0-1.76-0.01-2.63-0.04
		c-40.14-1.03-73.75-25.72-84.46-59.23c-2.32-7.27-3.57-14.96-3.57-22.91c0-4.71,0.44-9.33,1.28-13.82c0,0-0.01-0.01,0-0.01
		c2.11-11.28,6.75-21.78,13.39-31c4.5-6.25,9.9-11.91,16.05-16.82c0.23-0.19,0.46-0.37,0.69-0.55c4.85-3.8,10.15-7.14,15.82-9.95
		c12.9-6.39,27.7-10.03,43.43-10.03C417.27,360.27,457.86,397.06,457.86,442.45z"/>
	<ellipse class="st33" cx="714.18" cy="442.45" rx="90.67" ry="82.18"/>
	<polygon class="st33" points="664.38,723.07 400.72,723.07 309.41,384.65 764.8,384.65 	"/>
	<rect x="400.72" y="723.07" class="st33" width="263.28" height="119.09"/>
	<path class="st33" d="M476.43,994.6l-86.99-101.37c-20.63-24.04-19.25-58.03,3.27-80.63l87.87-88.19
		c27.64-27.74,75.72-27.58,103.14,0.33l86.35,87.89c22.22,22.62,23.46,56.4,2.95,80.31L585.79,994.6
		C558.05,1026.92,504.16,1026.92,476.43,994.6z"/>
	<path class="st33" d="M481.61,216.24l-43.16,2.97c-10.49,0.72-19.57-7.2-20.3-17.68l-5.32-77.31c-0.22-3.15-1.21-6.19-2.9-8.86
		l-11.95-18.92c-7.7-12.18,0.41-28.17,14.79-29.16l72.2-4.97c14.43-0.99,24.65,13.83,18.59,26.96l-8.06,17.48
		c-1.34,2.9-1.92,6.09-1.7,9.28l5.5,79.91C500.02,206.43,492.1,215.52,481.61,216.24z"/>
	
		<ellipse transform="matrix(0.2874 -0.9578 0.9578 0.2874 83.8765 1057.9706)" class="st4" cx="752.92" cy="472.62" rx="34" ry="18"/>
	<path class="st4" d="M762.1,440.42c31.29,10.1,57.96,10.12,57.96,10.12s-24.4,14.22-48.65,10.07
		C771.42,460.62,762.29,442.45,762.1,440.42z"/>
	<path class="st35" d="M601.23,198.76H482.18c-17.19,0-33.41,7.22-43.92,19.54l-47.08,55.21c-15.45,18.12-15.45,43.41,0,61.53
		l107.66,126.26c22.46,26.34,66.45,26,88.41-0.69l103.89-126.26c14.68-17.84,14.68-42.31,0-60.15l-45.43-55.21
		C635.24,206.26,618.75,198.76,601.23,198.76z"/>
	<path class="st35" d="M450.18,399.72c34.05,82.55,9.3,461.55,81.06,461.55s63.61-379.75,98.18-448.04S418.1,321.95,450.18,399.72z"
		/>
	<path class="st35" d="M484.97,62.31l-72.2,4.97c-14.38,0.99-22.48,16.97-14.79,29.16l11.95,18.92c1.68,2.67,2.68,5.71,2.9,8.86
		l2.5,36.29l0.03,0c0,0,36.31-56.67,80.84-9.54l-2.4-34.93c-0.22-3.19,0.37-6.38,1.7-9.28l8.06-17.48
		C509.62,76.14,499.4,61.32,484.97,62.31z"/>
	<path class="st33" d="M276.45,309.06c-52.5-11.11-140.84-61.71-167.04-94.43s-39.35-65.82-29.59-83.08s38.27-21.92,86.45-17.48
		c72.5,6.67,144.17,61.29,167.04,94.43c22.87,33.14,40.47,68.82,31.51,84.68C355.84,309.03,328.95,320.17,276.45,309.06z"/>
	<path class="st34" d="M523.76,991.87L436.77,890.5c-20.63-24.04-19.25-58.03,3.27-80.63l8.01-8.04v-81.49l-91.31-338.41v-0.01
		c-13.02-24.64-10.02-54.37,8.99-76.67l68.79-80.67c10.78-12.64,25.67-21.6,42.28-25.82h-25.44c-25.11,0-48.81,10.54-64.16,28.55
		l-68.79,80.67c-19.01,22.3-22.01,52.03-8.99,76.67v0.01l91.31,338.41v81.49l-8.01,8.04c-22.52,22.6-23.9,56.59-3.27,80.63
		l86.99,101.37c20.31,23.68,54.66,29.98,82.49,18.97C545.55,1010.04,533.15,1002.82,523.76,991.87z"/>
	<path class="st34" d="M399.78,447.15c-12.27-45.93-51.24-89.37-90.37-81.34l52.99,44.44c0,0-63.08,47.4-74.74,71.65
		c15.01,24.81,43.72,41.84,76.9,42.7c0.87,0.03,1.75,0.04,2.63,0.04c11.49,0,16.93-0.18,27.05-3.72
		C401.61,502.71,405.62,469,399.78,447.15z"/>
	<path class="st33" d="M346.6,522.5c-27.87-5.49-55.79-23.63-66.5-57.14c2.13-22.42,15.6-41.29,35.72-46.67
		c27.09-7.24,64.65,13.97,65.84,46.96C382.69,494.33,369.21,514.54,346.6,522.5z"/>
	
		<ellipse transform="matrix(0.9469 -0.3214 0.3214 0.9469 -134.528 131.2029)" class="st4" cx="330.08" cy="473.02" rx="17.73" ry="33.49"/>
	<path class="st4" d="M320.79,442.45c-31.29,10.1-57.96,10.12-57.96,10.12s24.4,14.22,48.65,10.07
		C311.47,462.65,320.6,444.48,320.79,442.45z"/>
	<path class="st34" d="M333.3,208.49c-3.77-5.46-8.86-11.5-15.06-17.81c10.18,20.21,15.12,38.14,9.46,48.16
		c-8.97,15.86-35.86,27-88.36,15.89C192.45,244.81,117,203.4,82.73,171.35c5.59,13.49,14.79,28.42,26.68,43.28
		c26.2,32.72,114.53,83.32,167.04,94.43c52.5,11.11,79.39-0.03,88.36-15.89C373.77,277.31,356.17,241.63,333.3,208.49z"/>
	<path class="st34" d="M768.42,376.59c0,0-22.32-8.86-41.87,4.03c-19.56,12.89-29.83,24.89-38.93,38.22
		c-9.09,13.33-14.41,38.22-14.41,38.22s-3.78-35.55,5.32-62.22c9.09-26.67,21.62-36.74,42.68-49.78
		c14.76-9.13,38.39-13.27,47.64-14.6C774.17,345.46,774.03,361.66,768.42,376.59z"/>
	<path class="st35" d="M305.79,376.59c0,0,22.32-8.86,41.87,4.03c19.56,12.89,29.83,24.89,38.93,38.22
		c9.09,13.33,15.99,51.04,15.99,51.04s2.2-48.37-6.9-75.04c-9.09-26.67-21.62-36.74-42.68-49.78c-14.76-9.13-38.39-13.27-47.64-14.6
		C300.04,345.46,300.18,361.66,305.79,376.59z"/>
	<path class="st33" d="M381.41,462.34l-72-43.76l-1.49-26.15l-0.67-11.63l-0.04-0.71c0,0,0.26,0.06,0.73,0.16
		c3.5,0.78,18.69,4.82,27.9,7.72c14.04,4.42,26.09,13.85,31.35,23.46C381.71,437.95,381.41,462.34,381.41,462.34z"/>
	<path class="st34" d="M339.21,389.51c-11.91-4.09-24.75-0.83-31.29,2.92c-1.73,0.99-4.15,3.03-8.26,6.63
		c-19.21,16.85-21.19,28.61-21.85,29.56c2.11-11.28,6.75-21.78,13.39-31c4.5-6.25,9.9-11.91,16.05-16.82l-0.04-0.71
		c0,0,0.26,0.06,0.73,0.16c4.85-3.8,10.57-3.19,16.24-6C334.37,381.86,357.92,395.93,339.21,389.51z"/>
	<path class="st36" d="M691.32,560.98l-46.64,141.57c-2.3,6.97-3.47,14.26-3.47,21.59v83.19c0,7.42,2.68,14.6,7.54,20.21
		l15.05,17.35c2.34,2.69,3.62,6.14,3.62,9.71v11.46c0,4.53-1.58,8.92-4.48,12.41l-23.62,28.46c-3.4,4.09-9.69,4.05-13.03-0.1
		l-1.83-2.28c-2.63-3.27-2.45-7.98,0.43-11.04l17.73-18.84c3.64-3.86,5.53-9.04,5.26-14.34l-0.14-2.64
		c-0.2-3.82-1.88-7.42-4.67-10.04l-13.43-12.56c-6.23-5.83-9.77-13.98-9.77-22.52v-91.01c0-7.98,1.38-15.9,4.09-23.41l51.44-142.67
		c1.68-4.65,6.98-6.86,11.46-4.78l0,0C690.74,552.51,692.65,556.92,691.32,560.98z"/>
	<circle class="st36" cx="696.15" cy="531.21" r="9.28"/>
	<path class="st37" d="M971.37,149.18c0,0-67.57-20.36-151.31,27.81"/>
	<path class="st37" d="M292.81,214.17c0,0-51.77-60.57-126.44-74.35"/>
</g>
</svg>
