<?xml version="1.0" encoding="utf-8"?>
<!-- Generator: Adobe Illustrator 26.0.3, SVG Export Plug-In . SVG Version: 6.00 Build 0)  -->
<svg version="1.1" id="Слой_1" xmlns="http://www.w3.org/2000/svg" xmlns:xlink="http://www.w3.org/1999/xlink" x="0px" y="0px"
	 viewBox="0 0 1080 1080" style="enable-background:new 0 0 1080 1080;" xml:space="preserve">
<style type="text/css">
	.st0{fill:#0095E0;}
	.st1{fill:#0084DD;}
	.st2{fill:#00BEF9;}
	.st3{fill:#00A6EF;}
	.st4{fill:#E5E5E5;}
	.st5{fill:#C0FCFF;}
	.st6{fill:#97E4FF;}
	.st7{fill:#E9FEFF;}
	.st8{fill:#CE0000;}
	.st9{fill:#FFDA00;}
	.st10{fill:#FFB000;}
	.st11{fill:#FFEB99;}
	.st12{fill:url(#SVGID_1_);}
	.st13{fill:#E30613;}
	.st14{fill:#FF55DB;}
	.st15{fill:url(#SVGID_00000158726478900878326610000010239765934048116363_);}
	.st16{fill:url(#SVGID_00000012436004579343972330000015123213333909704632_);}
	.st17{fill:url(#SVGID_00000148642225695861013930000013760759149263117495_);}
	.st18{fill:#6600BF;}
	.st19{fill:url(#SVGID_00000057838825131147775300000004151456368175947445_);}
	.st20{fill:#3E0066;}
	.st21{fill:#FF92E5;}
	.st22{fill:url(#SVGID_00000150799873443507006710000005710691001733724323_);}
	.st23{fill:url(#SVGID_00000183964377351805617450000008381964497868651910_);}
	.st24{fill:url(#SVGID_00000183215383766332874340000018101467312965419404_);}
	.st25{fill:none;stroke:#410096;stroke-width:13;stroke-linecap:round;stroke-miterlimit:10;}
	.st26{fill:none;stroke:#3D0084;stroke-width:23;stroke-linecap:round;stroke-miterlimit:10;}
	.st27{fill:#00A867;}
	.st28{fill:#FFA6DD;}
	.st29{fill:#FF88D2;}
	.st30{fill:#00DB68;}
	.st31{fill:#008464;}
	.st32{fill:#FFB8E7;}
	.st33{fill:#FFD2F2;}
	.st34{fill:#FFC5EC;}
	.st35{fill:#FFE6FA;}
	.st36{fill:#E50016;}
	.st37{fill:#FF1F1F;}
	.st38{fill:#C6001D;}
	.st39{fill:url(#SVGID_00000144295959802258105650000003953937995629222799_);}
	.st40{fill:url(#SVGID_00000116934498329423302830000014436478473292125347_);}
	.st41{fill:#FF6155;}
	.st42{fill:#009640;}
	.st43{fill:#00C650;}
	.st44{fill:#007F2D;}
	.st45{fill:none;stroke:#A06600;stroke-width:20;stroke-linecap:round;stroke-miterlimit:10;}
	.st46{fill:none;stroke:#60352B;stroke-width:20;stroke-linecap:round;stroke-miterlimit:10;}
	.st47{fill:none;stroke:#6D3600;stroke-width:20;stroke-linecap:round;stroke-miterlimit:10;}
	.st48{fill:none;stroke:#60352B;stroke-width:15;stroke-linecap:round;stroke-miterlimit:10;}
	.st49{fill:#00F445;}
	.st50{fill:#FFCE00;}
	.st51{fill:#FFDE3B;}
	.st52{fill:#5B3800;}
	.st53{fill:#844200;}
	.st54{fill:#422700;}
	.st55{fill:#7F3900;}
	.st56{fill:#774600;}
	.st57{fill:#0088ED;}
	.st58{fill:#08C5FF;}
	.st59{fill:#006054;}
	.st60{fill:#00894B;}
	.st61{fill:#004C43;}
	.st62{fill:#007C4F;}
	.st63{fill:#009B3F;}
	.st64{fill:url(#SVGID_00000085941249879613581290000001475277326591412910_);}
	.st65{fill:url(#SVGID_00000035499342577176193490000008169278016416416663_);}
	.st66{fill:url(#SVGID_00000005974441958042079940000016965594964385169562_);}
	.st67{fill:url(#SVGID_00000031914571128938913770000010469011468526737289_);}
	.st68{fill:url(#SVGID_00000169552901488277002930000013392706026059733419_);}
	.st69{fill:url(#SVGID_00000070107081141105238750000009079370314803599525_);}
	.st70{fill:url(#SVGID_00000161602151047186727110000007452718550894211244_);}
	.st71{fill:url(#SVGID_00000044893307606324551580000011405210539342349246_);}
	.st72{fill:url(#SVGID_00000057856991762323774350000015442926101606889608_);}
	.st73{fill:url(#SVGID_00000160885852653027529170000018194133270585013170_);}
	.st74{fill:url(#SVGID_00000034090978703790928660000009250929500749921462_);}
	.st75{fill:url(#SVGID_00000151508751463087682010000009705145798251883149_);}
	.st76{fill:url(#SVGID_00000054262467526883267710000007305122346777960082_);}
	.st77{fill:url(#SVGID_00000123411509182208912110000009055129491326612888_);}
	.st78{fill:url(#SVGID_00000157293971262863895720000009021485662955312804_);}
	.st79{fill:url(#SVGID_00000121243812404118879850000005296243659889887380_);}
	.st80{fill:url(#SVGID_00000095318145347321038760000005984917465514587009_);}
	.st81{fill:url(#SVGID_00000016787540093703270740000003290542363231846830_);}
	.st82{fill:url(#SVGID_00000027587423119381925650000009443011936848982693_);}
	.st83{fill:url(#SVGID_00000000933002626109045210000004669095028757826734_);}
	.st84{fill:url(#SVGID_00000046326195047540803080000011168924233781668508_);}
	.st85{fill:url(#SVGID_00000084525662017960735220000005331406302095959738_);}
	.st86{fill:url(#SVGID_00000059307642340755062660000010024563066944097666_);}
	.st87{fill:url(#SVGID_00000060725672487720159690000003290916918565877910_);}
	.st88{fill:url(#SVGID_00000050625605855873320980000015004702502782747802_);}
	.st89{fill:url(#SVGID_00000034053999856385443260000014053569970128549822_);}
	.st90{fill:url(#SVGID_00000007410620842715299400000000581019768678730427_);}
	.st91{fill:url(#SVGID_00000053521177211657279950000012399170774601511097_);}
	.st92{fill:url(#SVGID_00000078738687245915630210000000130654981707245476_);}
	.st93{fill:url(#SVGID_00000127042306811752394590000016929906525522635671_);}
	.st94{fill:url(#SVGID_00000137117340125754837460000018131471196617800853_);}
	.st95{fill:url(#SVGID_00000145736505819700824140000003088815686201090194_);}
	.st96{fill:url(#SVGID_00000012442084273533583560000016527325678698554765_);}
	.st97{fill:url(#SVGID_00000016782954288613075950000009660234174122292655_);}
	.st98{fill:url(#SVGID_00000118397060654765058200000002973260609905433006_);}
	.st99{fill:url(#SVGID_00000085963802361139520680000016421774110871900548_);}
	.st100{fill:url(#SVGID_00000177484829254567812270000015503078655318264454_);}
	.st101{fill:url(#SVGID_00000023984791496748899570000008672684101930991238_);}
	.st102{fill:url(#SVGID_00000035530922003187673570000004956905531698438812_);}
	.st103{fill:url(#SVGID_00000181053397833757628650000009451104519676498874_);}
	.st104{fill:url(#SVGID_00000106124626042981447760000007051490384002673536_);}
	.st105{fill:url(#SVGID_00000085248157388230129200000012415801702309031600_);}
	.st106{fill:url(#SVGID_00000139988989895507715230000002059139608143370429_);}
	.st107{fill:url(#SVGID_00000065796120963684834670000005580727868843476138_);}
	.st108{fill:url(#SVGID_00000122000195005795641010000015885477916030500265_);}
	.st109{fill:url(#SVGID_00000110470415512951096410000011555189029839214213_);}
	.st110{fill:url(#SVGID_00000033354431150035571340000005969612529216990399_);}
	.st111{fill:url(#SVGID_00000095307401343032789180000006642947468330075837_);}
	.st112{fill:url(#SVGID_00000083767912222318776250000008514481920384893581_);}
	.st113{fill:url(#SVGID_00000100367885870852606360000014583831915658629028_);}
	.st114{fill:url(#SVGID_00000106134338244231021540000010683937056549438132_);}
	.st115{fill:#FFBC27;}
	.st116{fill:url(#SVGID_00000103261443816465785220000014330109789576992418_);}
	.st117{fill:url(#SVGID_00000005977575096560312810000003313649700065016210_);}
	.st118{fill:url(#SVGID_00000077318864462647309490000013943155211376205702_);}
	.st119{fill:url(#SVGID_00000023270018919407624560000013128143384468806335_);}
	.st120{fill:url(#SVGID_00000165219860650914298770000001487585942562129029_);}
	.st121{fill:url(#SVGID_00000066512602595149236960000003039000612825243065_);}
	.st122{fill:url(#SVGID_00000058552637007101174820000012252648114739052964_);}
	.st123{fill:url(#SVGID_00000168102230158811996520000013606020698187389830_);}
	.st124{fill:url(#SVGID_00000152951760984840988600000017087700718446191517_);}
	.st125{fill:url(#SVGID_00000073681346990481662740000008349631893586764201_);}
	.st126{fill:url(#SVGID_00000039843337171163935770000000991247334255041193_);}
	.st127{fill:url(#SVGID_00000178169422501695259780000001121143688055249583_);}
	.st128{fill:url(#SVGID_00000178885793251403082290000004847364868429442195_);}
	.st129{fill:url(#SVGID_00000010287021179336037710000017593395976064212380_);}
	.st130{fill:url(#SVGID_00000029750594127196379500000012434454796764502429_);}
	.st131{fill:url(#SVGID_00000057871102395476669960000004548259751382371255_);}
	.st132{fill:url(#SVGID_00000091015484710413116740000012823602595826255286_);}
	.st133{fill:url(#SVGID_00000006702759275978751100000006143507640416112525_);}
	.st134{fill:url(#SVGID_00000074401887224851718650000007676934555896963462_);}
	.st135{fill:url(#SVGID_00000060717914680802905260000016683658146401981571_);}
	.st136{fill:url(#SVGID_00000023253433241220506010000010946254087989299389_);}
	.st137{fill:url(#SVGID_00000144304050923244101180000009464775674781687449_);}
	.st138{fill:url(#SVGID_00000144296013001699816630000018419610323404025786_);}
	.st139{fill:url(#SVGID_00000019645922006681240350000003750620717422774186_);}
	.st140{fill:url(#SVGID_00000067234993725084272710000008362890862816867746_);}
	.st141{fill:url(#SVGID_00000148646894816336403200000010206448104144816318_);}
	.st142{fill:url(#SVGID_00000090258291339407795110000003046105900226572933_);}
	.st143{fill:url(#SVGID_00000073679361407495837230000010388745701102697390_);}
	.st144{fill:url(#SVGID_00000043439180125090946760000015953312454710881689_);}
	.st145{fill:url(#SVGID_00000159466184370885202390000015466438605150136971_);}
	.st146{fill:url(#SVGID_00000029006157149364250680000000194951853068572075_);}
	.st147{fill:url(#SVGID_00000005235872878145057720000004261896938136408210_);}
	.st148{fill:url(#SVGID_00000054233447465759834700000017079639183254254217_);}
	.st149{fill:url(#SVGID_00000045592351300406871700000010254736366144094646_);}
	.st150{fill:url(#SVGID_00000159446711334637451880000004563949361795266233_);}
	.st151{fill:url(#SVGID_00000117650375712708995640000016018942360217431459_);}
	.st152{fill:url(#SVGID_00000087406952853152882580000002445048925247669425_);}
	.st153{fill:url(#SVGID_00000086668984383195399410000003303168532506529920_);}
	.st154{fill:url(#SVGID_00000137090104406930529530000012638043039793458613_);}
	.st155{fill:url(#SVGID_00000066492092161635231610000004407599767712021938_);}
	.st156{fill:url(#SVGID_00000018929294142651224340000004207644461911740552_);}
	.st157{fill:url(#SVGID_00000086663299868930258830000000058547167875098504_);}
	.st158{fill:url(#SVGID_00000003793967058964242450000005989144089660484006_);}
	.st159{fill:url(#SVGID_00000116950461749238601850000011686416223797585838_);}
	.st160{fill:url(#SVGID_00000060728190885695361610000009435343956709821826_);}
	.st161{fill:url(#SVGID_00000113325480680060180520000002218884684597925531_);}
	.st162{fill:url(#SVGID_00000162321788133655224230000016342116459108854948_);}
	.st163{fill:url(#SVGID_00000116956057308475594950000007867139133078204093_);}
	.st164{fill:#FFC545;}
	.st165{fill:url(#SVGID_00000003106988326674174860000011984335405495133106_);}
	.st166{fill:url(#SVGID_00000099620880963650300600000005614327379479758265_);}
	.st167{fill:url(#SVGID_00000169553060468073004340000001921204595875678090_);}
	.st168{fill:url(#SVGID_00000071535525123637717450000008969808571407989683_);}
	.st169{fill:url(#SVGID_00000096023108656418542080000006217783211006888071_);}
	.st170{fill:url(#SVGID_00000084506633161181885350000008641923548229111990_);}
	.st171{fill:url(#SVGID_00000016047941987049726170000006544200698693953982_);}
	.st172{fill:url(#SVGID_00000003097868598982262010000005821823597445840031_);}
	.st173{fill:url(#SVGID_00000167398486503676546900000013602304817518924712_);}
	.st174{fill:url(#SVGID_00000091007115968207628840000010547547832767146134_);}
	.st175{fill:url(#SVGID_00000159443095930232056920000013927083675644926865_);}
	.st176{fill:url(#SVGID_00000161606135421611222790000002562714538690513833_);}
	.st177{fill:url(#SVGID_00000003825586065024766460000005828661743246045831_);}
	.st178{fill:url(#SVGID_00000008860224834078588960000016070724182029291964_);}
	.st179{fill:url(#SVGID_00000109714452639627410350000015254023018418283188_);}
	.st180{fill:url(#SVGID_00000037661847386134762240000008411872301187403936_);}
	.st181{fill:url(#SVGID_00000104680527665800975230000001008273716033742270_);}
	.st182{fill:url(#SVGID_00000071562002755646972890000003228970706290693812_);}
	.st183{fill:url(#SVGID_00000089543208591087757510000016253901680610833592_);}
	.st184{fill:url(#SVGID_00000092435714471893755150000008041539941921619115_);}
	.st185{fill:url(#SVGID_00000170275098489696562100000015047119349162687676_);}
	.st186{fill:url(#SVGID_00000123429317551905020330000005694754898588747455_);}
	.st187{fill:url(#SVGID_00000000224677601365077690000013314964624697491843_);}
	.st188{fill:url(#SVGID_00000123433972933172629490000000633444215728169143_);}
	.st189{fill:url(#SVGID_00000056388882624709455950000009493579475877885824_);}
	.st190{fill:url(#SVGID_00000145042213216796216190000007979426519005564305_);}
	.st191{fill:url(#SVGID_00000132089081369482251030000004736568312702665635_);}
	.st192{fill:url(#SVGID_00000076563888092518600270000001933852315922622598_);}
	.st193{fill:url(#SVGID_00000033335292647124371610000010182186296968374406_);}
	.st194{fill:url(#SVGID_00000077298424174904870260000003812756010199037586_);}
	.st195{fill:url(#SVGID_00000054973851336516687570000009582156331854145188_);}
	.st196{fill:url(#SVGID_00000065756191669452441710000016229438506740401554_);}
	.st197{fill:url(#SVGID_00000026136897992951848710000017301654904389882525_);}
	.st198{fill:url(#SVGID_00000143591243866748742600000000633578887869053069_);}
	.st199{fill:url(#SVGID_00000088134422924810595800000007918151061829467800_);}
	.st200{fill:url(#SVGID_00000147942688365909326300000013130609126183131300_);}
	.st201{fill:url(#SVGID_00000177443692456571542850000002344747464816172175_);}
	.st202{fill:url(#SVGID_00000003088004001877628910000005073956372204232593_);}
	.st203{fill:url(#SVGID_00000054264258722148283310000005894808699251214995_);}
	.st204{fill:url(#SVGID_00000060745307283271434330000009382846198793319063_);}
	.st205{fill:url(#SVGID_00000142887373714395397560000011232788190913298332_);}
	.st206{fill:url(#SVGID_00000074401128749479092280000016250051869894806919_);}
	.st207{fill:url(#SVGID_00000167365888852150620400000002320433807446853536_);}
	.st208{fill:url(#SVGID_00000128459721096200471710000013896642957706010769_);}
	.st209{fill:url(#SVGID_00000019644134791306840170000014721038470161783454_);}
	.st210{fill:url(#SVGID_00000041282612598797660560000018411495340832839337_);}
	.st211{fill:url(#SVGID_00000178182520632573399310000009436381235332981429_);}
	.st212{fill:url(#SVGID_00000108284851437116645310000015092104260869093543_);}
	.st213{fill:url(#SVGID_00000137825136422926000700000014491796150507990683_);}
	.st214{fill:url(#SVGID_00000105422341856212400910000004270968762347781046_);}
	.st215{fill:url(#SVGID_00000114057571630746840540000001619995289604630415_);}
	.st216{fill:url(#SVGID_00000122693595764717967640000005755444616963390368_);}
	.st217{fill:url(#SVGID_00000106837151939810446390000012237389601389088918_);}
	.st218{fill:url(#SVGID_00000096778827163854073250000002603099810976732291_);}
	.st219{fill:url(#SVGID_00000153671418945340484750000001405428528067435928_);}
	.st220{fill:url(#SVGID_00000155840149372660070970000015520381126081217965_);}
	.st221{fill:url(#SVGID_00000002350594437928130740000015987481235627961015_);}
	.st222{fill:url(#SVGID_00000143581377456603896300000006100100996122194072_);}
	.st223{fill:url(#SVGID_00000068672648075767258620000003956745096543331744_);}
	.st224{fill:url(#SVGID_00000011715027318282664390000000117342501043164560_);}
	.st225{fill:url(#SVGID_00000078751709033903484530000017161071410055690636_);}
	.st226{fill:url(#SVGID_00000118397761693534513320000002040599493459491490_);}
	.st227{fill:url(#SVGID_00000061464628720170025130000008290976543344627593_);}
	.st228{fill:url(#SVGID_00000174597630928437728450000015334086410343029925_);}
</style>
<g>
	<g>
		<g>
			
				<radialGradient id="SVGID_1_" cx="539.4517" cy="523.2557" r="118.6169" gradientTransform="matrix(1 -1.661691e-03 6.391472e-03 3.8464 -3.3421 -1488.4779)" gradientUnits="userSpaceOnUse">
				<stop  offset="0" style="stop-color:#FF5AB1"/>
				<stop  offset="0.4385" style="stop-color:#E000AB"/>
				<stop  offset="0.8121" style="stop-color:#AB00D4"/>
				<stop  offset="1" style="stop-color:#9600E5"/>
			</radialGradient>
			<path class="st12" d="M666.1,385.72c0,68.58-34.47,139.61-111.5,147.14c-4.43,0.43-9,0.65-13.72,0.65
				c-4.67,0-9.26-0.27-13.77-0.81c-57.53-6.77-101.43-55.78-109.94-122.9c-1-7.79-1.51-15.83-1.51-24.09
				c0-84.8,35.78-234.15,47.22-272.4c11.45-38.24,40.07-0.36,77.99-0.36c21.71,0,41.75-10.11,56.81-13.42
				c11.25-2.48,19.72-1.18,24.05,10.93C631.86,138.78,666.1,299.49,666.1,385.72z"/>
			<ellipse class="st13" cx="540.88" cy="529.16" rx="14.22" ry="14.16"/>
			<path class="st14" d="M597.7,99.55c-42.19,12.01-34.52,49.66-57.81,50.72c-23.83,2.11-28.84-19.53-51.02-8.45
				c-22.16,11.09-40.51,188.96-43.68,223.81c-2.55,28.12-24,36.8-28.02,44.17c-1-7.79-1.51-15.83-1.51-24.09
				c0-84.8,35.78-234.15,47.22-272.4c11.45-38.24,40.07-0.36,77.99-0.36c21.71,0,41.75-10.11,56.81-13.42L597.7,99.55z"/>
		</g>
	</g>
	<g>
		<g>
			
				<radialGradient id="SVGID_00000152984416450596976800000008091367188526788243_" cx="539.4517" cy="523.2557" r="118.6169" gradientTransform="matrix(-0.4986 0.8669 -3.3342 -1.9176 2572.5879 1087.9136)" gradientUnits="userSpaceOnUse">
				<stop  offset="0" style="stop-color:#FF5AB1"/>
				<stop  offset="0.4385" style="stop-color:#E000AB"/>
				<stop  offset="0.8121" style="stop-color:#AB00D4"/>
				<stop  offset="1" style="stop-color:#9600E5"/>
			</radialGradient>
			<path style="fill:url(#SVGID_00000152984416450596976800000008091367188526788243_);" d="M614.77,730.57
				c-59.39-34.29-103.67-99.65-71.68-170.13c1.84-4.05,3.94-8.12,6.29-12.21c2.33-4.04,4.87-7.89,7.58-11.52
				c34.63-46.44,99.02-59.95,161.41-33.76c7.25,3.03,14.46,6.61,21.61,10.74c73.44,42.4,184.89,148.06,212.3,177.1
				c27.39,29.04-19.73,34.88-38.69,67.72c-10.86,18.8-12.12,41.21-16.78,55.91c-3.47,10.98-8.84,17.66-21.49,15.36
				C845.74,824.39,689.44,773.68,614.77,730.57z"/>
			
				<ellipse transform="matrix(0.5 -0.866 0.866 0.5 -200.0917 754.2445)" class="st13" cx="553.15" cy="550.41" rx="14.22" ry="14.16"/>
			<path class="st14" d="M896.79,814.42c10.69-42.55-25.75-54.72-15.02-75.42c10.09-21.7,31.33-15.21,32.82-39.96
				c1.47-24.74-143.39-129.57-171.98-149.74c-23.08-16.27-19.87-39.19-24.25-46.35c7.25,3.03,14.46,6.61,21.61,10.74
				c73.44,42.4,184.89,148.06,212.3,177.1c27.39,29.04-19.73,34.88-38.69,67.72c-10.86,18.8-12.12,41.21-16.78,55.91L896.79,814.42z
				"/>
		</g>
	</g>
	<g>
		<g>
			
				<radialGradient id="SVGID_00000041974960288160927340000013253914201779691696_" cx="539.4517" cy="523.2557" r="118.6169" gradientTransform="matrix(-0.5014 -0.8652 3.3279 -1.9287 -946.5975 2030.5387)" gradientUnits="userSpaceOnUse">
				<stop  offset="0" style="stop-color:#FF5AB1"/>
				<stop  offset="0.4385" style="stop-color:#E000AB"/>
				<stop  offset="0.8121" style="stop-color:#AB00D4"/>
				<stop  offset="1" style="stop-color:#9600E5"/>
			</radialGradient>
			<path style="fill:url(#SVGID_00000041974960288160927340000013253914201779691696_);" d="M341.78,513.69
				c59.39-34.29,138.14-39.96,183.18,22.99c2.59,3.62,5.07,7.47,7.42,11.55c2.33,4.04,4.4,8.16,6.18,12.32
				c22.9,53.21,2.4,115.73-51.46,156.66c-6.25,4.76-12.96,9.22-20.1,13.35c-73.44,42.4-220.67,86.08-259.52,95.31
				c-38.84,9.21-20.34-34.53-39.31-67.37c-10.86-18.8-29.63-31.1-40.03-42.49c-7.77-8.5-10.88-16.49-2.56-26.29
				C145.05,666.81,267.11,556.8,341.78,513.69z"/>
			
				<ellipse transform="matrix(0.866 -0.5 0.5 0.866 -204.3822 338.0487)" class="st13" cx="528.62" cy="550.41" rx="14.16" ry="14.22"/>
			<path class="st14" d="M128.15,716.01c31.5,30.53,60.27,5.06,72.83,24.7c13.75,19.58-2.49,34.74,18.19,48.4
				c20.69,13.65,183.9-59.4,215.67-74.07c25.63-11.85,43.87,2.39,52.26,2.18c-6.25,4.76-12.96,9.22-20.1,13.35
				c-73.44,42.4-220.67,86.08-259.52,95.31c-38.84,9.21-20.34-34.53-39.31-67.37c-10.86-18.8-29.63-31.1-40.03-42.49L128.15,716.01z
				"/>
		</g>
	</g>
	<g>
		<g>
			
				<radialGradient id="SVGID_00000100376918226393463520000007473848330353243545_" cx="539.4517" cy="523.2557" r="118.6169" gradientTransform="matrix(1 -1.661691e-03 6.391472e-03 3.8464 -3.3421 -1488.4779)" gradientUnits="userSpaceOnUse">
				<stop  offset="0" style="stop-color:#FF5AB1"/>
				<stop  offset="0.4385" style="stop-color:#E000AB"/>
				<stop  offset="0.8121" style="stop-color:#AB00D4"/>
				<stop  offset="1" style="stop-color:#9600E5"/>
			</radialGradient>
			<path style="fill:url(#SVGID_00000100376918226393463520000007473848330353243545_);" d="M666.1,385.72
				c0,68.58-34.47,139.61-111.5,147.14c-4.43,0.43-9,0.65-13.72,0.65c-4.67,0-9.26-0.27-13.77-0.81
				c-57.53-6.77-101.43-55.78-109.94-122.9c-1-7.79-1.51-15.83-1.51-24.09c0-84.8,35.78-234.15,47.22-272.4
				c11.45-38.24,40.07-0.36,77.99-0.36c21.71,0,41.75-10.11,56.81-13.42c11.25-2.48,19.72-1.18,24.05,10.93
				C631.86,138.78,666.1,299.49,666.1,385.72z"/>
			<ellipse class="st13" cx="540.88" cy="529.16" rx="14.22" ry="14.16"/>
			<path class="st14" d="M597.7,99.55c-42.19,12.01-34.52,49.66-57.81,50.72c-23.83,2.11-28.84-19.53-51.02-8.45
				c-22.16,11.09-40.51,188.96-43.68,223.81c-2.55,28.12-24,36.8-28.02,44.17c-1-7.79-1.51-15.83-1.51-24.09
				c0-84.8,35.78-234.15,47.22-272.4c11.45-38.24,40.07-0.36,77.99-0.36c21.71,0,41.75-10.11,56.81-13.42L597.7,99.55z"/>
		</g>
	</g>
</g>
<path class="st18" d="M315.09,520.12l203.24,48.42l13.88,143.01l-156.6,60.53c0,0-15.93-44.26-6.14-89.96
	c6.33-29.56,25.34-43.28,25.34-43.28s1.24,8.17-43.28,0c-48.4-8.89-93.8-65.94-93.8-65.94L315.09,520.12z"/>
<path class="st18" d="M812.86,565.07c0,0-72.38,66.71-95.54,73.99c-36.95,11.61-64.4,7.08-64.4,7.08l-49.5-26.08l37.82-76.73
	l137.58-5.7L812.86,565.07z"/>
<g>
	<g>
		<g>
			
				<radialGradient id="SVGID_00000147181773690568963870000014076528897645229752_" cx="539.4384" cy="993.6836" r="118.6293" gradientTransform="matrix(1 -1.661691e-03 6.391472e-03 3.8464 -6.3488 -2827.4854)" gradientUnits="userSpaceOnUse">
				<stop  offset="5.586592e-03" style="stop-color:#FF80C9"/>
				<stop  offset="0.112" style="stop-color:#FF7DC9"/>
				<stop  offset="0.1988" style="stop-color:#FF73CA"/>
				<stop  offset="0.2785" style="stop-color:#FF62CB"/>
				<stop  offset="0.3541" style="stop-color:#FF4ACD"/>
				<stop  offset="0.4261" style="stop-color:#FF2BCF"/>
				<stop  offset="0.4862" style="stop-color:#FF0BD1"/>
				<stop  offset="0.6848" style="stop-color:#D41AE6"/>
				<stop  offset="0.8834" style="stop-color:#B027F8"/>
				<stop  offset="0.9888" style="stop-color:#A22CFF"/>
			</radialGradient>
			<path style="fill:url(#SVGID_00000147181773690568963870000014076528897645229752_);" d="M666.1,714.45
				c0,48.11-11.52,117-23.58,174.59c0,0.01-0.01,0.02-0.01,0.04c-9.13,43.6-18.56,80.71-23.53,97.42c-0.04,0.13-0.07,0.24-0.11,0.34
				c-11.45,38.25-40.07,0.36-77.99,0.36s-69.18,30.21-80.86,2.49c-2.92-6.95-8.55-28.73-14.83-58.23v-0.02
				c-12.85-60.3-28.47-152.84-29.53-216.99c-1.2-72.52,38.55-147.81,125.22-147.81c54.55,0,99.1,37.08,116.88,92.64
				C663.17,676.15,666.1,694.71,666.1,714.45z"/>
			<ellipse class="st20" cx="540.88" cy="571.01" rx="14.22" ry="14.16"/>
			<path class="st21" d="M666.1,714.45c0,48.11-11.52,117-23.58,174.59c0,0.01-0.01,0.02-0.01,0.04
				c-9.13,43.6-18.56,80.71-23.53,97.42c-0.04,0.13-0.07,0.24-0.11,0.34c-11.45,38.25-40.07,0.36-77.99,0.36
				s-69.18,30.21-80.86,2.49c-2.92-6.95-8.55-28.73-14.83-58.23v-0.02c0,0,14.22,29.61,33.91,32.78
				c19.69,3.16,34.47-18.01,56.64-16.39c22.16,1.6,23.22,15.33,47.51,10.05c24.28-5.27,68.61-98.16,74.51-298.59
				C663.17,676.15,666.1,694.71,666.1,714.45z"/>
		</g>
	</g>
	<g>
		<g>
			
				<radialGradient id="SVGID_00000176744172983357639380000014977324478184314242_" cx="539.4384" cy="993.6836" r="118.6293" gradientTransform="matrix(-0.4986 0.8669 -3.3342 -1.9176 3745.3926 1775.1011)" gradientUnits="userSpaceOnUse">
				<stop  offset="5.586592e-03" style="stop-color:#FF80C9"/>
				<stop  offset="0.112" style="stop-color:#FF7DC9"/>
				<stop  offset="0.1988" style="stop-color:#FF73CA"/>
				<stop  offset="0.2785" style="stop-color:#FF62CB"/>
				<stop  offset="0.3541" style="stop-color:#FF4ACD"/>
				<stop  offset="0.4261" style="stop-color:#FF2BCF"/>
				<stop  offset="0.4862" style="stop-color:#FF0BD1"/>
				<stop  offset="0.6848" style="stop-color:#D41AE6"/>
				<stop  offset="0.8834" style="stop-color:#B027F8"/>
				<stop  offset="0.9888" style="stop-color:#A22CFF"/>
			</radialGradient>
			<path style="fill:url(#SVGID_00000176744172983357639380000014977324478184314242_);" d="M341.76,586.49
				c-41.67-24.06-95.56-68.48-139.41-107.71c-0.01-0.01-0.01-0.02-0.02-0.03c-33.19-29.71-60.62-56.43-72.61-69.09
				c-0.1-0.1-0.17-0.18-0.24-0.26c-27.41-29.04,19.73-34.88,38.69-67.72s8.42-75.02,38.27-71.27c7.48,0.94,29.16,6.96,57.85,16.27
				l0.02,0.01c58.64,19.02,146.6,51.77,202.68,82.92c63.4,35.22,108.73,107.29,65.4,182.34c-27.27,47.24-81.66,67.28-138.67,54.9
				C376.4,603.1,358.85,596.36,341.76,586.49z"/>
			
				<ellipse transform="matrix(0.5 -0.866 0.866 0.5 -211.818 732.664)" class="st20" cx="528.6" cy="549.77" rx="14.22" ry="14.16"/>
			<path class="st21" d="M341.76,586.49c-41.67-24.06-95.56-68.48-139.41-107.71c-0.01-0.01-0.01-0.02-0.02-0.03
				c-33.19-29.71-60.62-56.43-72.61-69.09c-0.1-0.1-0.17-0.18-0.24-0.26c-27.41-29.04,19.73-34.88,38.69-67.72
				s8.42-75.02,38.27-71.27c7.48,0.94,29.16,6.96,57.85,16.27l0.02,0.01c0,0-32.75-2.49-45.34,12.98
				c-12.58,15.47-1.64,38.85-14.13,57.25c-12.47,18.39-24.89,12.44-32.45,36.12c-7.57,23.66,50.7,108.5,221.33,213.83
				C376.4,603.1,358.85,596.36,341.76,586.49z"/>
		</g>
	</g>
	<g>
		<g>
			
				<radialGradient id="SVGID_00000039103441123686589270000015812937514760500154_" cx="539.4384" cy="993.6836" r="118.6293" gradientTransform="matrix(-0.5014 -0.8652 3.3279 -1.9287 -2116.4351 2722.9111)" gradientUnits="userSpaceOnUse">
				<stop  offset="5.586592e-03" style="stop-color:#FF80C9"/>
				<stop  offset="0.112" style="stop-color:#FF7DC9"/>
				<stop  offset="0.1988" style="stop-color:#FF73CA"/>
				<stop  offset="0.2785" style="stop-color:#FF62CB"/>
				<stop  offset="0.3541" style="stop-color:#FF4ACD"/>
				<stop  offset="0.4261" style="stop-color:#FF2BCF"/>
				<stop  offset="0.4862" style="stop-color:#FF0BD1"/>
				<stop  offset="0.6848" style="stop-color:#D41AE6"/>
				<stop  offset="0.8834" style="stop-color:#B027F8"/>
				<stop  offset="0.9888" style="stop-color:#A22CFF"/>
			</radialGradient>
			<path style="fill:url(#SVGID_00000039103441123686589270000015812937514760500154_);" d="M614.75,369.59
				c41.67-24.06,107.08-48.52,162.98-66.88c0.01-0.01,0.03,0,0.04-0.01c42.32-13.89,79.18-24.28,96.14-28.34
				c0.13-0.03,0.24-0.06,0.35-0.08c38.85-9.21,20.34,34.53,39.31,67.37c18.96,32.84,60.76,44.81,42.59,68.78
				c-4.56,6-20.61,21.77-43.01,41.96l-0.02,0.01c-45.79,41.28-118.13,101.07-173.15,134.06c-62.2,37.3-147.28,40.52-190.61-34.54
				c-27.27-47.24-17.44-104.36,21.79-147.54C583.05,391.28,597.66,379.46,614.75,369.59z"/>
			
				<ellipse transform="matrix(0.866 -0.5 0.5 0.866 -200.7692 350.2171)" class="st20" cx="553.13" cy="549.75" rx="14.16" ry="14.22"/>
			<path class="st21" d="M614.75,369.59c41.67-24.06,107.08-48.52,162.98-66.88c0.01-0.01,0.03,0,0.04-0.01
				c42.32-13.89,79.18-24.28,96.14-28.34c0.13-0.03,0.24-0.06,0.35-0.08c38.85-9.21,20.34,34.53,39.31,67.37
				c18.96,32.84,60.76,44.81,42.59,68.78c-4.56,6-20.61,21.77-43.01,41.96l-0.02,0.01c0,0,18.53-27.12,11.43-45.75
				c-7.11-18.63-32.83-20.85-42.51-40.86c-9.69-19.99,1.67-27.77-15.05-46.17c-16.7-18.39-119.32-10.34-295.85,84.76
				C583.05,391.28,597.66,379.46,614.75,369.59z"/>
		</g>
	</g>
	<g>
		<g>
			
				<radialGradient id="SVGID_00000016073825197622022500000015968113539927608485_" cx="539.4384" cy="993.6836" r="118.6293" gradientTransform="matrix(1 -1.661691e-03 6.391472e-03 3.8464 -6.3488 -2827.4854)" gradientUnits="userSpaceOnUse">
				<stop  offset="5.586592e-03" style="stop-color:#FF80C9"/>
				<stop  offset="0.112" style="stop-color:#FF7DC9"/>
				<stop  offset="0.1988" style="stop-color:#FF73CA"/>
				<stop  offset="0.2785" style="stop-color:#FF62CB"/>
				<stop  offset="0.3541" style="stop-color:#FF4ACD"/>
				<stop  offset="0.4261" style="stop-color:#FF2BCF"/>
				<stop  offset="0.4862" style="stop-color:#FF0BD1"/>
				<stop  offset="0.6848" style="stop-color:#D41AE6"/>
				<stop  offset="0.8834" style="stop-color:#B027F8"/>
				<stop  offset="0.9888" style="stop-color:#A22CFF"/>
			</radialGradient>
			<path style="fill:url(#SVGID_00000016073825197622022500000015968113539927608485_);" d="M666.1,714.45
				c0,48.11-11.52,117-23.58,174.59c0,0.01-0.01,0.02-0.01,0.04c-9.13,43.6-18.56,80.71-23.53,97.42c-0.04,0.13-0.07,0.24-0.11,0.34
				c-11.45,38.25-40.07,0.36-77.99,0.36s-69.18,30.21-80.86,2.49c-2.92-6.95-8.55-28.73-14.83-58.23v-0.02
				c-12.85-60.3-28.47-152.84-29.53-216.99c-1.2-72.52,38.55-147.81,125.22-147.81c54.55,0,99.1,37.08,116.88,92.64
				C663.17,676.15,666.1,694.71,666.1,714.45z"/>
			<ellipse class="st20" cx="540.88" cy="571.01" rx="14.22" ry="14.16"/>
			<path class="st21" d="M666.1,714.45c0,48.11-11.52,117-23.58,174.59c0,0.01-0.01,0.02-0.01,0.04
				c-9.13,43.6-18.56,80.71-23.53,97.42c-0.04,0.13-0.07,0.24-0.11,0.34c-11.45,38.25-40.07,0.36-77.99,0.36
				s-69.18,30.21-80.86,2.49c-2.92-6.95-8.55-28.73-14.83-58.23v-0.02c0,0,14.22,29.61,33.91,32.78
				c19.69,3.16,34.47-18.01,56.64-16.39c22.16,1.6,23.22,15.33,47.51,10.05c24.28-5.27,68.61-98.16,74.51-298.59
				C663.17,676.15,666.1,694.71,666.1,714.45z"/>
		</g>
	</g>
</g>
<path class="st25" d="M479.1,277.89c96.68,99.65,60.8,269.21,60.8,269.21S620.34,356.73,716.3,412.5"/>
<path class="st25" d="M539.89,553.24c-17.66-89.42-96.49-123.63-155.99-120.66"/>
<path class="st26" d="M422.42,435.64c-21.05-2.88-33.43-3.96-54.07-1.49"/>
<path class="st26" d="M488.88,291.7c-13.03-16.79-21.11-26.22-37.58-38.9"/>
<path class="st26" d="M742.68,431.55c-16.24-13.71-15.8-12.73-34.54-21.71"/>
</svg>
