<?xml version="1.0" encoding="utf-8"?>
<!-- Generator: Adobe Illustrator 26.0.3, SVG Export Plug-In . SVG Version: 6.00 Build 0)  -->
<svg version="1.1" id="Слой_1" xmlns="http://www.w3.org/2000/svg" xmlns:xlink="http://www.w3.org/1999/xlink" x="0px" y="0px"
	 viewBox="0 0 1080 1080" style="enable-background:new 0 0 1080 1080;" xml:space="preserve">
<style type="text/css">
	.st0{fill:#FFEFAE;}
	.st1{fill:#FFD731;}
	.st2{fill:#005318;}
	.st3{fill:#002716;}
	.st4{fill:#FFDF69;}
	.st5{fill:#1EEF00;}
	.st6{fill:#00B700;}
	.st7{fill:#A4FF5C;}
	.st8{fill:#E7FFAB;}
	.st9{fill:#726D00;}
	.st10{fill:#FFEA8C;}
	.st11{fill:#FFFDE0;}
	.st12{fill:#FFEE1E;}
	.st13{fill:#FFF16E;}
	.st14{fill:#FFF5CC;}
	.st15{fill:#FFA91F;}
	.st16{fill:#FFCB4A;}
	.st17{fill:#FFEB97;}
	.st18{fill:#FF9017;}
	.st19{fill:#EA6F00;}
	.st20{fill:#A000E2;}
	.st21{fill:#BF36FF;}
	.st22{fill:#DCA1FF;}
	.st23{fill:#006D1C;}
	.st24{fill:#008C1E;}
	.st25{fill:url(#SVGID_1_);}
	.st26{fill:#FF9E78;}
	.st27{fill:#FF855F;}
	.st28{fill:#086B00;}
	.st29{fill:#FFBDA6;}
	.st30{fill:#688E00;}
	.st31{fill:#FF8D73;}
	.st32{fill:#FF6D00;}
	.st33{fill:#FF7F29;}
	.st34{fill:#6CC900;}
	.st35{fill:#599E00;}
	.st36{fill:#8AE200;}
	.st37{fill:#616800;}
	.st38{fill:#CC4400;}
	.st39{fill:#CE0000;}
	.st40{fill:#FFAA88;}
	.st41{fill:#F72300;}
	.st42{fill:#FF3600;}
	.st43{fill:#DD0000;}
	.st44{fill:#FF5C36;}
	.st45{fill:#FF8269;}
	.st46{fill:#8C004D;}
	.st47{fill:#399B00;}
	.st48{fill:#2B7C00;}
	.st49{fill:#5EBF00;}
	.st50{fill:#B2006A;}
	.st51{fill:#FF6ED3;}
	.st52{fill:#7CDB00;}
	.st53{fill:#86D300;}
	.st54{fill:#5DB500;}
</style>
<g>
	<path class="st46" d="M582.46,814.14C531,889.62,422.49,919.94,338.53,871.9c-90.09-51.55-128.43-169.45-87.2-249.91
		c39.52-77.12,135.47-82.31,228.54-36.36S632.12,741.29,582.46,814.14z"/>
	<path class="st46" d="M392.68,891.83c0,0-47.1-8.01-51.96-6.3c-4.86,1.71-8.38,18.03-13.76,23.05c-5.38,5.02-20.18,5.18-25.7,8.19
		s-23.5,14.33-25.76,19.98c-2.26,5.65-3.49,33.76-5.72,33.95s-6.86-18.47-7.25-22.51c-0.4-4.04-0.78-20.69,2.56-24.59
		c3.34-3.9,17.44-19.55,22.31-22.5s18.53-6.42,20.71-11.11s4.49-20.17,2.22-27.96s-13.09-21.63-13.09-21.63L392.68,891.83z"/>
</g>
<path class="st47" d="M835.58,273.35c-10.62,12.48-16.7,16.78-23.21,25.12c-2.2,2.81-4.45,6.09-6.95,10.31
	c-2.87,4.85-4.95,10.55-6.58,16.68c-4.01,14.95-5.33,32.44-8.83,46.11c-4.37,17.08-18.66,40.12-32.87,53.73l-0.03,0.03
	c-1.81,1.73-3.62,3.31-5.41,4.7c-3.64,2.84-7.12,4.82-10.52,6.38c-11.39,5.24-21.86,5.72-34.21,17.57
	c-8.3,7.96-11.88,20.24-15.38,33.82h-0.01c-0.34,1.33-0.68,2.67-1.03,4.03c-2.95,11.52-6.16,23.74-12.33,34.89
	c-14.29,25.81-27.5,36.62-51.62,46.17c-24.12,9.56-58.66-2.67-78-9.07c-1.06-0.35-2.07-0.69-3.06-1.01
	c-10.37-3.45-16.96-5.95-22.96-11.72c-3.87-3.71-7.49-8.77-11.73-16.32c-11.43-20.39-14.64-59.18-8.94-87.98
	c3.88-19.57,11.34-40.51,20.09-55.33c4.13-7,8.54-12.63,13-16.11c0.87-0.68,1.82-1.32,2.83-1.93c6.84-4.14,16.69-6.9,26.21-9.98
	c0,0,0.01,0,0.03-0.01c6.53-2.11,12.89-4.37,18.04-7.34c4.03-2.32,7.3-5.07,9.32-8.51c7.3-12.44-2.49-44.03,12.3-72.94v-0.01
	c0.98-1.92,2.07-3.82,3.28-5.71c3.42-5.33,6.78-10.22,10.1-14.68c14.47-19.48,28.1-30.88,41.87-36.12
	c14.48-5.5,31.91,2.39,45.59,1.72c2.32-0.1,4.52-0.46,6.59-1.17c14.29-4.89,12.15-20.17,36.15-40.8
	c11.94-10.26,32.39-17.92,53.04-19.58c20.85-1.68,41.93,2.75,54.7,16.79C880.46,203.01,849.8,256.64,835.58,273.35z"/>
<path class="st48" d="M597.76,367.95c-8.46-3.99-20.24,1.98-23.78,8.29c-2.34,4.17-2.61,9.66,0,14.98
	c2.61,5.32,13.88,21.29,15.12,30.84c1.23,9.56-3.45,19.12-8.99,26.99c-4.29,6.08-20.88,29.64-27.96,39.68
	c-2.07,2.94-2.88,4.1-2.88,4.1l-27.22-29.61l27.22-63.11l-11.44-26.69c6.84-4.14,16.69-6.9,26.21-9.98c0,0,0.01,0,0.03-0.01
	c6.53-2.11,12.89-4.37,18.04-7.34l15.65-3.98C597.76,352.11,611.01,374.21,597.76,367.95z"/>
<path class="st48" d="M562.04,489.9l-39.46,61.19c-3.87-3.71-7.49-8.77-11.73-16.32c-11.43-20.39-14.64-59.18-8.94-87.98
	c3.88-19.57,11.34-40.51,20.09-55.33l10.7-6.46c0,0-14.8,61.39-0.32,85.07C546.85,493.76,562.04,489.9,562.04,489.9z"/>
<path class="st49" d="M573.65,424.38c-3.39,21.14-8.88,30.62-22.89,50.7c-1.41,2.02-2.85,4.06-4.33,6.11
	c-2.08,2.9-4.23,5.83-6.43,8.73c-0.02,0.01-0.03,0.03-0.04,0.05c-1.47,1.93-2.96,3.85-4.47,5.75
	c-10.56,13.32-22.05,25.49-33.16,32.04c-6.69,3.94-13.35,5.43-19.76,5.43c-0.46,0-0.93-0.01-1.39-0.03
	c-9.15-0.3-17.74-3.53-25.1-6.85c-0.02-0.01-0.05-0.02-0.07-0.03c-12.9-5.84-42.16-25.86-50.22-38.01
	c-8.07-12.17-11.59-24.95-9.82-44.28c1.78-19.33,19.67-44.95,18.57-57.17c-1.1-12.22-15.71-17.13-25.6-27.91
	c-7.95-8.67-18.11-18.79-21.29-39.48c-0.77-5.04-1.14-10.72-0.95-17.16c0.95-32.84,28.46-49.88,29.86-61.19
	c1.4-11.31-9.77-26.79-11.67-52.28c-0.94-12.71,0.38-37.22,10.39-56.35c6.4-12.25,16.37-22.29,31.58-25.6
	c3.32-0.72,6.47-1.09,9.47-1.14c18.6-0.35,31.28,11.17,41.08,22.48v0.01c7.16,8.26,12.78,16.4,18.05,19.72
	c13.65,8.62,23.34,10.69,31.46,22.59c8.12,11.91,9.55,23.79,7.02,42.19c-0.78,5.63-1.26,11.29-1.4,16.76
	c-0.31,12.41,1.14,23.85,4.9,31.71c1.25,2.6,2.72,4.32,4.39,5.59c0.11,0.09,0.22,0.17,0.33,0.25h0.01
	c5.59,4.04,13.31,3.65,22.05,14.74c11.56,14.69,8.08,37.48,0.03,54.52c-1.33,2.82-2.67,5.32-3.97,7.6
	c-5.27,9.32-9.78,14.93-10.07,23.3v0.01c-0.07,1.95,0.09,4.06,0.53,6.4c0.78,4.17,3.22,8.35,6.23,12.68
	c0.02,0.02,0.03,0.03,0.03,0.03l0.76,1.08c3.52,4.93,7.67,10.06,10.89,15.6l0.03,0.05C572.43,409.48,574.91,416.49,573.65,424.38z"
	/>
<path class="st46" d="M420.79,614.79c0,0,53.06-129.22,56.4-149.08s2.39-139.59,0.92-164.7c-1.48-25.1-24.47-81.44-18.77-84.55
	c5.7-3.11,11.35,7.27,15.15,16.79c3.79,9.52,16.03,33.92,19.84,49.8s7.65,159.46,4.28,182.37c-3.36,22.92-44.96,162.81-44.96,162.81
	L420.79,614.79z"/>
<path class="st46" d="M495.28,594.01c0,0,64.65-102.35,81.47-125.92c16.82-23.57,89.64-128.48,101.63-142.43
	c12-13.95,79.09-76.29,84.82-69.94c5.73,6.35-62,67.85-71.98,82.02c-9.98,14.17-91.35,129.47-106.59,154.17
	s-71.1,131.44-71.1,131.44L495.28,594.01z"/>
<path class="st48" d="M741.18,436.41c-11.39,5.24-21.86,5.72-34.21,17.57c-8.3,7.96-11.88,20.24-15.38,33.82h-0.01
	c0,0-26.58-19.76-29.79-30.89c-3.21-11.13-1.23-23.47,0-29.99c1.23-6.53,7.65-19.25,20.19-16.14c12.53,3.11,15.46,11.28,24.49,15.25
	C715.49,429.99,741.18,436.41,741.18,436.41z"/>
<path class="st48" d="M660.33,449.05c-1.47,5.73,27.43,6.86,33.02,23.38c5.65,16.69-12.03,48.75-15.13,54.36
	c-14.29,25.81-27.5,36.62-51.62,46.17c-24.12,9.56-58.66-2.67-78-9.07c-1.06-0.35-2.07-0.69-3.06-1.01c0,0,32.28-60.79,33.48-61.36
	c0,0,33.5-18.47,61.54-20.33C668.59,479.32,660.33,449.05,660.33,449.05z"/>
<path class="st49" d="M931.46,533.19c-0.68,8.06-2.59,16.13-5.22,23.14v0.01c-3.12,8.36-7.24,15.2-11.45,18.71
	c-14.06,11.73-22.97,19.08-50.43,17.94c-27.47-1.14-27.72-19.4-42.31-18.28c-14.59,1.12-13.59,18.32-30.14,35.8
	c-16.54,17.47-36.55,21.89-54.05,18.81c-17.51-3.07-21.54-12.17-34.92-8.67c-13.38,3.5-16.78,26.55-34.2,40.02
	c-17.42,13.48-54.96,0.26-70.24-8.62c-4.12-2.39-7.95-5.42-11.4-8.94c-2.08-2.12-4.02-4.42-5.78-6.87
	c-5.33-7.37-9.13-16.04-10.73-25.09c-0.26-1.41-0.46-2.84-0.6-4.27c-1.85-18.64-9.68-55.15,14.85-83.23
	c4.65-5.32,9.49-9.49,14.36-12.8c0.01-0.01,0.01-0.01,0.01-0.01c20.8-14.16,42.24-12.76,52.63-19.52
	c12.83-8.34,14.42-28.64,34.32-42.11c3.05-2.07,6.09-3.46,9.12-4.33l0.02-0.01c14.69-4.25,29.4,3.56,47.56,4.61
	c2.46,0.14,4.98,0.16,7.58,0.01c5.6-0.33,9.73-1.52,13.1-3.21c12.11-6.06,14.35-18.52,39.1-20.16
	c22.18-1.47,34.17,15.13,45.86,29.15c0,0,0,0,0,0.01c4.99,5.99,9.92,11.5,15.57,14.94c18.89,11.52,33.82,7.93,55.88,26.01
	C929.87,504.36,932.66,518.75,931.46,533.19z"/>
<path class="st46" d="M536.49,641.35c0,0,130.58-114.74,145.49-121.63c14.91-6.88,129.94-19.54,142.35-18.18s41.3,16.71,39.69,23.11
	c-1.61,6.4-31.9-5.04-44-5.96s-117.85,12.06-133.67,24.24c-15.82,12.18-148.21,132.38-148.21,132.38L536.49,641.35z"/>
<path class="st50" d="M555.81,666.44c-12.17-16.05-42.02-42.7-77.42-62.68c-39.16-22.1-66.96-30.47-96.36-25.95
	c-44.89,6.9-60.74,36.22-63.35,75.44c-2.98,44.69,34.87,154.12,69.58,171.57s101.66,10.26,147.13-7.67
	c31.94-12.6,51.92-36.15,53.61-68.89C590.61,716.99,571.98,687.76,555.81,666.44z"/>
<ellipse transform="matrix(0.826 -0.5636 0.5636 0.826 -310.1003 426.8949)" class="st51" cx="536.49" cy="715.79" rx="27.56" ry="33.01"/>
<ellipse transform="matrix(0.5 -0.866 0.866 0.5 -326.3448 747.0114)" class="st51" cx="483.76" cy="656.13" rx="16.44" ry="19.56"/>
<g>
	<path class="st50" d="M488.11,285.89c3.41-1.48,1.01-8.38,1.01-8.38c-5.82-15.92-18.01-46.94-18.8-48.95
		c-0.87-2.22-1.47-4.06-3.54-3.26c-2.67,1.04-1.91,1.61-1.33,4.59c0.38,1.96,11.35,32.07,17.24,50.35v0
		C482.69,280.24,484.7,287.37,488.11,285.89z"/>
	<path class="st50" d="M493.09,302.11c0,0-0.62-4.89-3.73-4.89s-2.34,3.85-2.57,6.81c-0.23,2.97-0.85,133.52-0.45,139.63
		c0.44,6.81,0.59,12.15,4.89,11.56c4.3-0.59,3.41-4.44,4.05-11.56C495.82,437.63,494.37,337.15,493.09,302.11z"/>
</g>
<path class="st50" d="M822.93,508.11c0-4.74-5.78-3.41-5.78-3.41s-111.78,13.33-116.85,14.22c-5.07,0.89-13.41,2.08-11.74,7.11
	c1.33,4,8.3,1.19,14.81,0c6.52-1.19,112-14.81,112-14.81S822.93,510.93,822.93,508.11z"/>
<path class="st50" d="M835.67,509.44c1.56-1.78,2.56-0.89,4.44,0c1.89,0.89,20.89,9.33,19.56,12.44c-1.33,3.11-23.31-7.44-24-8.44
	C834.98,512.44,834.11,511.22,835.67,509.44z"/>
<path class="st52" d="M533.94,212.7c-0.78,5.63-1.26,11.29-1.4,16.76c-0.7-0.02-22.73-14.1-34.54-24.02
	c-8.07-6.78-17.45-10.32-12.53-27.66c4.92-17.33,9.99-29.86,9.99-29.86c13.65,8.62,23.34,10.69,31.46,22.59
	C535.04,182.42,536.47,194.3,533.94,212.7z"/>
<path class="st52" d="M564.25,336.27c-1.33,2.82-2.67,5.32-3.97,7.6c-10.57-11.42-29.73-32.35-34.67-40.71
	c-6.93-11.72-3.53-33.21,8.47-35.2c3.61-0.6,6.07-0.98,7.75-1.2c0.11,0.09,0.22,0.17,0.33,0.25h0.01
	c5.59,4.04,13.31,3.65,22.05,14.74C575.78,296.44,572.3,319.23,564.25,336.27z"/>
<path class="st53" d="M573.65,424.38c-3.39,21.14-8.88,30.62-22.89,50.7c-1.41,2.02-2.85,4.06-4.33,6.11
	c-1.93-0.03-4.12-0.55-6.43-1.97c-7.22-4.44-9.22-12.44-12.33-23.95c-3.11-11.51-6.82-61.38,5.03-70.27
	c9.22-6.91,23.39,0.36,24.27,1.26c0.02,0.02,0.03,0.03,0.03,0.03l0.76,1.08l10.89,15.6l0.03,0.05
	C572.43,409.48,574.91,416.49,573.65,424.38z"/>
<path class="st52" d="M477.41,128.19v0.01c0,0-10.45,39.15-11.53,43.02c-1.14,4.11-5.37,15.56-11.07,7.11
	c-5.7-8.44-31.12-51.55-34.02-54.66c-2.9-3.11-2.9-3.11-8.68-2.67c-5.78,0.44-16.83,11.45-16.83,11.45
	c6.4-12.25,16.37-22.29,31.58-25.6C450.77,101.64,466.03,115.06,477.41,128.19z"/>
<path class="st52" d="M931.46,533.19c0,0-32.77-7.36-43.79-10.73c-11.56-3.53-23.58-11.68-27.94-24.57
	c-4.36-12.89,4.34-27.67,4.34-27.67c18.89,11.52,33.82,7.93,55.88,26.01C929.87,504.36,932.66,518.75,931.46,533.19z"/>
<path class="st52" d="M848.5,455.27c0,0,0,0,0,0.01c0,0.52-0.09,20.93-13.71,28.39c-13.79,7.55-33.11,3.97-46.68-4.45
	c-14.51-9-24.57-32.94-24.57-32.94c12.11-6.06,14.35-18.52,39.1-20.16C824.82,424.65,836.81,441.25,848.5,455.27z"/>
<path class="st54" d="M835.58,273.35c-10.62,12.48-16.7,16.78-23.21,25.12c-4.6-3.5-12.4-7.63-16.26-12.38
	c-9.3-11.45-14.52-30.49-3.26-52.2c9.18-17.71,32.75-41.05,36.15-45.2s2.67-9.47,0-13.47c-2.42-3.62-24.48-14.83-28.65-16.93
	c20.85-1.68,41.93,2.75,54.7,16.79C880.46,203.01,849.8,256.64,835.58,273.35z"/>
<path class="st54" d="M798.84,325.46c-4.01,14.95-5.33,32.44-8.83,46.11c-4.37,17.08-18.66,40.12-32.87,53.73l-0.03,0.03l-5.41,4.7
	c0,0-6.26-9.92-8.84-29.03s4.63-54.65,7.39-64.65c3.19-11.57,10.14-23.13,26.58-18.68C793.28,322.11,798.84,325.46,798.84,325.46z"
	/>
<path class="st54" d="M704.57,262.33c-4.28,15.11-19.13,40-32.9,40c-13.78,0-25.78-57.77-29.34-60.44
	c-3.55-2.67-6.73-2.67-12.92,0.89c-3.34,1.92-8.37,7.09-12.3,11.46c14.47-19.48,28.1-30.88,41.87-36.12
	c14.48-5.5,31.91,2.39,45.59,1.72C704.57,219.84,708.84,247.22,704.57,262.33z"/>
<path class="st52" d="M742.86,483.67c-4.97,14.66-19.3,16-34.75,8c-15.44-8-21.95-42.46-21.95-42.46c2.78-2.43,9.12-4.33,9.12-4.33
	l0.02-0.01c14.69-4.25,29.4,3.56,47.56,4.61C742.86,449.48,747.84,469,742.86,483.67z"/>
<path class="st52" d="M436.34,283c0,14.51-10.6,24.51-24,28.44c-16.91,4.96-44.69,8-44.69,8l-0.01-0.01
	c-0.77-5.04-1.14-10.72-0.95-17.16c0.95-32.84,28.46-49.88,29.86-61.19c0,0,5.13-1.19,18.51,7.55
	C423.73,254.27,436.34,266.75,436.34,283z"/>
<path class="st47" d="M470.41,487.8l-14.4,38.48c-12.9-5.84-42.16-25.86-50.22-38.01c-8.07-12.17-11.59-24.95-9.82-44.28
	c1.78-19.33,19.67-44.95,18.57-57.17c-1.1-12.22-15.71-17.13-25.6-27.91c-7.95-8.67-18.11-18.79-21.29-39.48
	c-0.77-5.04-1.14-10.72-0.95-17.16c0.95-32.84,28.46-49.88,29.86-61.19c1.4-11.31-9.77-26.79-11.67-52.28
	c-0.94-12.71,0.38-37.22,10.39-56.35c6.4-12.25,16.37-22.29,31.58-25.6c3.32-0.72,6.47-1.09,9.47-1.14c0,0-18.89,7.93-24.66,20.18
	c-5.77,12.25-12.33,40.74-10.17,55.48s7.67,26.67,14.17,40.07c7.11,14.67,10.84,30.55,6.44,34.15c-4.4,3.6-19.16,15.85-26.83,30.49
	c-8.5,16.24-6.22,33.38,0,45.58s34.62,34.92,41.06,44.57s0,22.09,0,22.09s-18.43,31.78-15.55,50.78s19.77,28.27,28.21,32.08
	S470.41,487.8,470.41,487.8z"/>
<path class="st47" d="M522.05,501.45c6.62-1.82,10.8-3.87,13.44-5.73c-10.56,13.32-22.05,25.49-33.16,32.04
	c-6.69,3.94-13.35,5.43-19.76,5.43h-1.4l0.01-0.03l10.05-36.63C491.23,496.53,504.11,506.36,522.05,501.45z"/>
<path class="st48" d="M625.44,376.24c-4.44,3.87-10.96,1.92-14.22,0c0,0-0.01,0-0.01-0.01c-0.02-0.01-0.07-0.05-0.16-0.1
	c-1.67-1.11-15.4-10.22-21.95-13.35c-6.69-3.2-23.51,0.33-24.96,0.63c11.6-3.76,22.7-8.01,27.29-15.83
	c7.3-12.44-2.49-44.03,12.3-72.94c0.05,0.67,2.2,32.01,5.71,41.35c3.56,9.45,15.49,26.34,19.97,35.23
	C633.89,360.11,629.89,372.38,625.44,376.24z"/>
<path class="st47" d="M926.24,556.34c-3.12,8.36-7.24,15.2-11.45,18.71c-14.06,11.73-22.97,19.08-50.43,17.94
	c-27.47-1.14-27.72-19.4-42.31-18.28c-14.59,1.12-13.59,18.32-30.14,35.8c-16.54,17.47-36.55,21.89-54.05,18.81
	c-17.51-3.07-21.54-12.17-34.92-8.67c-13.38,3.5-16.78,26.55-34.2,40.02c-17.42,13.48-54.96,0.26-70.24-8.62
	c-4.12-2.39-7.95-5.42-11.4-8.94l-5.78-6.87l22.33-20.14c0,0,24.76,23.12,42.68,26.23c17.93,3.11,22.37-4.65,28-14.1
	c5.63-9.45,5.79-27.94,14.01-33.9c8.22-5.95,17-4.29,27.28,0c10.27,4.3,17.23,11.11,29.45,14.67c12.23,3.56,24.17,4.62,35.09-8
	c10.91-12.62,20.66-28.74,25.86-36s10.23-10.38,16.46-8.67c6.22,1.71,16.09,10,24.78,14c8.7,4,24.11,6.29,32.41,6.29
	c8.29,0,24.3-0.44,34.37-7.92C924.1,561.23,926.24,556.34,926.24,556.34z"/>
<path class="st47" d="M591.21,593.8l-20.62,17.35c-0.26-1.41-0.46-2.84-0.6-4.27c-1.85-18.64-9.68-55.15,14.85-83.23
	c4.65-5.32,9.49-9.49,14.36-12.8c-0.23,0.62-10.12,26.62-11.68,40.24C585.94,564.88,591.21,593.8,591.21,593.8z"/>
</svg>
