<?xml version="1.0" encoding="utf-8"?>
<!-- Generator: Adobe Illustrator 26.0.3, SVG Export Plug-In . SVG Version: 6.00 Build 0)  -->
<svg version="1.1" id="Слой_1" xmlns="http://www.w3.org/2000/svg" xmlns:xlink="http://www.w3.org/1999/xlink" x="0px" y="0px"
	 viewBox="0 0 1080 1080" style="enable-background:new 0 0 1080 1080;" xml:space="preserve">
<style type="text/css">
	.st0{fill:url(#SVGID_1_);}
	.st1{fill:#FF7B22;}
	.st2{fill:#FF761A;}
	.st3{fill:#934200;}
	.st4{fill:#FFD7A6;}
	.st5{fill:#FF4D1D;}
	.st6{fill:#661300;}
	.st7{fill:#FFEDD9;}
	.st8{fill:#FFB380;}
	.st9{fill:none;}
	.st10{fill:url(#SVGID_00000133499728021547263320000000109596824547408562_);}
	.st11{fill:url(#SVGID_00000106854273468401421490000017120086872616716440_);}
	.st12{fill:url(#SVGID_00000170247112442713939030000003498894403064932239_);}
	.st13{fill:url(#SVGID_00000050657214281580042680000016796250043658486427_);}
	.st14{fill:url(#SVGID_00000140725922073293288250000005248141586655911828_);}
	.st15{fill:url(#SVGID_00000008866991147128775720000010861382406134800554_);}
	.st16{fill:url(#SVGID_00000160888617803798961870000016357768257306537662_);}
	.st17{fill:url(#SVGID_00000103234750453293063470000001942216616879895440_);}
	.st18{fill:url(#SVGID_00000023273839341838124980000015883480713521428626_);}
	.st19{fill:url(#SVGID_00000075147303395428325240000018388933549936650940_);}
	.st20{fill:url(#SVGID_00000058570769816441113790000006690177943978057398_);}
	.st21{fill:url(#SVGID_00000147212790501019852390000014231632756227573938_);}
	.st22{fill:url(#SVGID_00000175312379634781469380000006228108874799698093_);}
	.st23{fill:url(#SVGID_00000158017787899026805650000010472648879911976598_);}
	.st24{fill:url(#SVGID_00000103965512521158536940000014825965020108610991_);}
	.st25{fill:url(#SVGID_00000050631805442972299840000004460346369562701235_);}
	.st26{fill:url(#SVGID_00000017517985722290798260000016105414816032995517_);}
	.st27{fill:url(#SVGID_00000117646650203695716990000014077553861913719701_);}
</style>
<g>
	<path class="st9" d="M391.3,804.26c-93.38,0-169.1-75.73-169.1-169.1V53.92h-0.61v987.14h819.81v-236.8H391.3z"/>
	<radialGradient id="SVGID_1_" cx="1463.0259" cy="-436.567" r="1240.8263" gradientUnits="userSpaceOnUse">
		<stop  offset="0.0112" style="stop-color:#B0FFB3"/>
		<stop  offset="0.2301" style="stop-color:#ADFEB3"/>
		<stop  offset="0.3886" style="stop-color:#A4FBB1"/>
		<stop  offset="0.5282" style="stop-color:#94F6AF"/>
		<stop  offset="0.6569" style="stop-color:#7EEEAC"/>
		<stop  offset="0.778" style="stop-color:#61E5A9"/>
		<stop  offset="0.8919" style="stop-color:#3ED9A4"/>
		<stop  offset="1" style="stop-color:#15CC9F"/>
	</radialGradient>
	<path class="st0" d="M391.3,804.26h650.09V654.18c-137.16-68.54-263.57-146.31-263.57-146.31s129.19,8.78,263.57,14.41v-98.67
		c-22.87-5.58-45.81-13.34-68.72-23.41c-42.14-18.5-84.14-44.66-125.28-79.02l-0.15-0.11c0,0,0-0.04-0.04-0.07
		c-46.41-38.73-91.77-87.85-135.07-148c-12.19-16.94-23.94-34.55-35.21-52.82c-0.81-1.31-1.59-2.65-2.39-3.97
		c-21.91,13.09-48.4,25.96-73.48,30.43h-0.11c-5.93,1.04-11.79,1.63-17.5,1.63c-60.97,0-213.17-22.2-237.22-24.72
		c-24.06-2.48-40.07-21.94-29.65-44.48c2.45-5.29,9.15-14.28,18.4-25.14H222.2v581.24C222.2,728.53,297.93,804.26,391.3,804.26z"/>
	<path class="st2" d="M1041.4,654.18v-131.9c-134.39-5.62-263.57-14.41-263.57-14.41S904.24,585.64,1041.4,654.18z"/>
	<path class="st4" d="M674.54,116.2c0.8,1.31,1.58,2.66,2.39,3.97l-2.38-3.97C674.55,116.19,674.54,116.19,674.54,116.2z"/>
	<path class="st4" d="M985.58,261.94c18.61,10.37,35.58,23.69,55.82,36.5V53.92H825.71c-0.03,0.52-0.07,1.02-0.1,1.53
		C886.69,150.36,956.45,245.7,985.58,261.94z"/>
	<path class="st4" d="M512.76,119.16c22.33,3.11,103.83,15.36,156.35-13.66L642.9,53.92H426.76c1.84,10.94,5.35,20.44,11.21,27.88
		C450.05,97.18,481.33,114.75,512.76,119.16z"/>
	<path class="st5" d="M825.71,53.92h-1.09c0.33,0.51,0.66,1.02,0.99,1.53C825.64,54.94,825.68,54.43,825.71,53.92z"/>
	<path class="st6" d="M670.78,104.6c13.31-7.67,5.4,10.24,6.11,10.18c-0.77,0.47-1.56,0.93-2.34,1.4l2.38,3.97
		c11.27,18.27,23.02,35.88,35.21,52.82c43.29,60.16,88.66,109.27,135.07,148c0.04,0.04,0.04,0.07,0.04,0.07l0.15,0.11
		c41.14,34.36,83.14,60.53,125.28,79.02c22.91,10.08,45.84,17.84,68.72,23.41V298.44c-20.24-12.81-37.21-26.13-55.82-36.5
		c-29.13-16.24-98.88-111.58-159.97-206.49c-0.33-0.51-0.66-1.02-0.99-1.53H642.9l26.21,51.59
		C669.67,105.2,670.24,104.92,670.78,104.6z"/>
	<path class="st6" d="M346.23,123.54c24.06,2.52,176.25,24.72,237.22,24.72c5.71,0,11.56-0.59,17.5-1.63h0.11
		c25.08-4.47,51.57-17.34,73.48-30.43c0,0,0.01,0,0.01-0.01c0.78-0.47,1.57-0.93,2.34-1.4c-0.71,0.05,7.2-17.85-6.11-10.18
		c-0.55,0.31-1.12,0.6-1.67,0.9c-52.52,29.01-134.02,16.77-156.35,13.66c-31.43-4.41-62.72-21.98-74.8-37.36
		c-5.86-7.44-9.37-16.94-11.21-27.88h-91.78c-9.24,10.86-15.95,19.85-18.4,25.14C306.16,101.59,322.17,121.05,346.23,123.54z"/>
</g>
</svg>
