<?xml version="1.0" encoding="utf-8"?>
<!-- Generator: Adobe Illustrator 26.0.3, SVG Export Plug-In . SVG Version: 6.00 Build 0)  -->
<svg version="1.1" id="Слой_1" xmlns="http://www.w3.org/2000/svg" xmlns:xlink="http://www.w3.org/1999/xlink" x="0px" y="0px"
	 viewBox="0 0 1080 1080" style="enable-background:new 0 0 1080 1080;" xml:space="preserve">
<style type="text/css">
	.st0{fill:#FFC50D;}
	.st1{fill:#E5E5E5;}
	.st2{fill:none;stroke:#FFEF5A;stroke-width:70;stroke-miterlimit:10;}
	.st3{fill:#FFF066;}
	.st4{fill:#FFDB43;}
	.st5{fill:#C1F569;}
	.st6{fill:#FFFFFF;}
	.st7{fill:none;stroke:url(#SVGID_1_);stroke-width:200;stroke-miterlimit:10;}
	.st8{fill:url(#SVGID_00000106841606904096536370000000838965631855030441_);}
	.st9{fill:url(#SVGID_00000173141436123250586330000007875110931852472751_);}
	.st10{fill:url(#SVGID_00000111913470964194745420000015680247484533466810_);}
	.st11{fill:url(#SVGID_00000147902954502906016610000012937208466036986245_);}
	.st12{fill:none;stroke:url(#SVGID_00000175300483990667459590000013260339642143688120_);stroke-width:50;stroke-miterlimit:10;}
	.st13{fill:url(#SVGID_00000062897565102715374500000007866364046736145558_);}
	.st14{fill:url(#SVGID_00000168082687779987467380000014250568491588589494_);}
	.st15{fill:none;stroke:url(#SVGID_00000031893665571404530280000013683734184857122183_);stroke-width:50;stroke-miterlimit:10;}
	.st16{fill:url(#SVGID_00000084489252740581699410000001085412167387221930_);}
	.st17{fill:url(#SVGID_00000111871788514544577850000014603865229744219035_);}
	
		.st18{fill:none;stroke:url(#SVGID_00000070813177233668824380000005461605776010287287_);stroke-width:30;stroke-linecap:round;stroke-miterlimit:10;}
	
		.st19{fill:none;stroke:url(#SVGID_00000017509752424857915030000005618569657085236648_);stroke-width:30;stroke-linecap:round;stroke-miterlimit:10;}
	.st20{fill:none;stroke:#E58AFD;stroke-width:30;stroke-miterlimit:10;}
	.st21{fill:none;stroke:#CE74FE;stroke-width:30;stroke-miterlimit:10;}
	
		.st22{fill:none;stroke:url(#SVGID_00000160888235449612882960000000779818464474854813_);stroke-width:30;stroke-linecap:round;stroke-miterlimit:10;}
	.st23{fill:#94EF45;}
	.st24{fill:none;stroke:#E6F4C3;stroke-width:30;stroke-linecap:round;stroke-linejoin:round;stroke-miterlimit:10;}
	.st25{fill:none;stroke:#E6F4C3;stroke-width:25;stroke-linecap:round;stroke-linejoin:round;stroke-miterlimit:10;}
	.st26{fill:none;stroke:#FFF7C0;stroke-width:30;stroke-linecap:round;stroke-miterlimit:10;}
</style>
<g>
	<linearGradient id="SVGID_1_" gradientUnits="userSpaceOnUse" x1="539.2695" y1="609.7501" x2="539.2695" y2="450.3358">
		<stop  offset="0" style="stop-color:#D098FB"/>
		<stop  offset="1" style="stop-color:#FEA5E8"/>
	</linearGradient>
	<path style="fill:url(#SVGID_1_);" d="M612.54,497.31L498.93,614.59c-8.78,9.07-23.25,9.3-32.32,0.51l-0.09-0.09
		c-9.07-8.78-9.3-23.25-0.51-32.32l113.61-117.28c8.78-9.07,23.25-9.3,32.32-0.51l0.09,0.09
		C621.09,473.77,621.32,488.24,612.54,497.31z"/>
	
		<linearGradient id="SVGID_00000114762485503516205220000003952099555795974558_" gradientUnits="userSpaceOnUse" x1="540" y1="617.2769" x2="540" y2="453.7198">
		<stop  offset="0" style="stop-color:#D098FB"/>
		<stop  offset="1" style="stop-color:#FEA5E8"/>
	</linearGradient>
	<path style="fill:url(#SVGID_00000114762485503516205220000003952099555795974558_);" d="M581.3,613.95L465.48,501.76
		c-9.47-9.17-9.71-24.29-0.54-33.76l0,0c9.17-9.47,24.29-9.71,33.76-0.54l115.82,112.19c9.47,9.17,9.71,24.29,0.54,33.76v0
		C605.88,622.89,590.77,623.13,581.3,613.95z"/>
</g>
<linearGradient id="SVGID_00000182487099152500968450000003818658295093022851_" gradientUnits="userSpaceOnUse" x1="-3656.7825" y1="2918.4487" x2="-3656.7825" y2="12438.7441" gradientTransform="matrix(0.0143 0 0 -0.0143 311.1425 378.2842)">
	<stop  offset="0" style="stop-color:#CF98FC"/>
	<stop  offset="1" style="stop-color:#FFA5E8"/>
</linearGradient>
<circle style="fill:none;stroke:url(#SVGID_00000182487099152500968450000003818658295093022851_);stroke-width:50;stroke-miterlimit:10;" cx="258.75" cy="268.27" r="67.84"/>
<g>
	
		<linearGradient id="SVGID_00000095312616960211626600000009591234329468146615_" gradientUnits="userSpaceOnUse" x1="539.2695" y1="338.017" x2="539.2695" y2="178.6027">
		<stop  offset="0" style="stop-color:#D098FB"/>
		<stop  offset="1" style="stop-color:#FEA5E8"/>
	</linearGradient>
	<path style="fill:url(#SVGID_00000095312616960211626600000009591234329468146615_);" d="M612.54,225.57L498.93,342.86
		c-8.78,9.07-23.25,9.3-32.32,0.51l-0.09-0.09c-9.07-8.78-9.3-23.25-0.51-32.32l113.61-117.28c8.78-9.07,23.25-9.3,32.32-0.51
		l0.09,0.09C621.09,202.04,621.32,216.51,612.54,225.57z"/>
	
		<linearGradient id="SVGID_00000162335705334720213400000013022374200979842198_" gradientUnits="userSpaceOnUse" x1="540" y1="345.5439" x2="540" y2="181.9868">
		<stop  offset="0" style="stop-color:#D098FB"/>
		<stop  offset="1" style="stop-color:#FEA5E8"/>
	</linearGradient>
	<path style="fill:url(#SVGID_00000162335705334720213400000013022374200979842198_);" d="M581.3,342.22L465.48,230.03
		c-9.47-9.17-9.71-24.29-0.54-33.76l0,0c9.17-9.47,24.29-9.71,33.76-0.54l115.82,112.19c9.47,9.17,9.71,24.29,0.54,33.76v0
		C605.88,351.15,590.77,351.39,581.3,342.22z"/>
</g>
<linearGradient id="SVGID_00000037651355849447392890000010072797579945193367_" gradientUnits="userSpaceOnUse" x1="15700.293" y1="-35735.4258" x2="15700.293" y2="-26215.1328" gradientTransform="matrix(0.0143 0 0 -0.0143 311.1425 378.2842)">
	<stop  offset="0" style="stop-color:#CF98FC"/>
	<stop  offset="1" style="stop-color:#FFA5E8"/>
</linearGradient>
<circle style="fill:none;stroke:url(#SVGID_00000037651355849447392890000010072797579945193367_);stroke-width:50;stroke-miterlimit:10;" cx="536.09" cy="822.09" r="67.84"/>
<g>
	
		<linearGradient id="SVGID_00000104664573959558268810000008844322102677669552_" gradientUnits="userSpaceOnUse" x1="823.6359" y1="609.7501" x2="823.6359" y2="450.3358">
		<stop  offset="0" style="stop-color:#D098FB"/>
		<stop  offset="1" style="stop-color:#FEA5E8"/>
	</linearGradient>
	<path style="fill:url(#SVGID_00000104664573959558268810000008844322102677669552_);" d="M896.9,497.31L783.29,614.59
		c-8.78,9.07-23.25,9.3-32.32,0.51l-0.09-0.09c-9.07-8.78-9.3-23.25-0.51-32.32l113.61-117.28c8.78-9.07,23.25-9.3,32.32-0.51
		l0.09,0.09C905.46,473.77,905.69,488.24,896.9,497.31z"/>
	
		<linearGradient id="SVGID_00000096046944664367764760000013985028878470672829_" gradientUnits="userSpaceOnUse" x1="824.3664" y1="617.2769" x2="824.3664" y2="453.7198">
		<stop  offset="0" style="stop-color:#D098FB"/>
		<stop  offset="1" style="stop-color:#FEA5E8"/>
	</linearGradient>
	<path style="fill:url(#SVGID_00000096046944664367764760000013985028878470672829_);" d="M865.66,613.95L749.85,501.76
		c-9.47-9.17-9.71-24.29-0.54-33.76v0c9.17-9.47,24.29-9.71,33.76-0.54l115.82,112.19c9.47,9.17,9.71,24.29,0.54,33.76v0
		C890.25,622.89,875.13,623.13,865.66,613.95z"/>
</g>
<g>
	
		<linearGradient id="SVGID_00000000909978100017000860000017618105185365782716_" gradientUnits="userSpaceOnUse" x1="394.4684" y1="121.9722" x2="394.4684" y2="958.0278">
		<stop  offset="0" style="stop-color:#FDA1FC"/>
		<stop  offset="1" style="stop-color:#B35AFF"/>
	</linearGradient>
	
		<line style="fill:none;stroke:url(#SVGID_00000000909978100017000860000017618105185365782716_);stroke-width:30;stroke-linecap:round;stroke-miterlimit:10;" x1="394.47" y1="136.97" x2="394.47" y2="943.03"/>
	
		<linearGradient id="SVGID_00000062160281228133014560000015412815258221112468_" gradientUnits="userSpaceOnUse" x1="681.8387" y1="121.5812" x2="681.8387" y2="957.6368">
		<stop  offset="0" style="stop-color:#FDA1FC"/>
		<stop  offset="1" style="stop-color:#B35AFF"/>
	</linearGradient>
	
		<line style="fill:none;stroke:url(#SVGID_00000062160281228133014560000015412815258221112468_);stroke-width:30;stroke-linecap:round;stroke-miterlimit:10;" x1="681.84" y1="136.58" x2="681.84" y2="942.64"/>
	<line class="st20" x1="960" y1="410.61" x2="120" y2="410.61"/>
	<line class="st21" x1="960" y1="684.56" x2="127.22" y2="684.56"/>
	
		<linearGradient id="SVGID_00000139279189009619407930000016471066475908235937_" gradientUnits="userSpaceOnUse" x1="540" y1="105" x2="540" y2="975">
		<stop  offset="0" style="stop-color:#FDA1FC"/>
		<stop  offset="1" style="stop-color:#B35AFF"/>
	</linearGradient>
	
		<path style="fill:none;stroke:url(#SVGID_00000139279189009619407930000016471066475908235937_);stroke-width:30;stroke-linecap:round;stroke-miterlimit:10;" d="
		M869.67,960H210.33c-49.89,0-90.33-40.44-90.33-90.33V210.33c0-49.89,40.44-90.33,90.33-90.33h659.33
		c49.89,0,90.33,40.44,90.33,90.33v659.33C960,919.56,919.56,960,869.67,960z"/>
</g>
</svg>
