<?xml version="1.0" encoding="utf-8"?>
<!-- Generator: Adobe Illustrator 26.0.3, SVG Export Plug-In . SVG Version: 6.00 Build 0)  -->
<svg version="1.1" id="Слой_1" xmlns="http://www.w3.org/2000/svg" xmlns:xlink="http://www.w3.org/1999/xlink" x="0px" y="0px"
	 viewBox="0 0 1080 1080" style="enable-background:new 0 0 1080 1080;" xml:space="preserve">
<style type="text/css">
	.st0{fill:url(#SVGID_1_);}
	.st1{fill:#B7004B;}
	.st2{fill:#E6007E;}
	.st3{fill:#99003B;}
	.st4{fill:#CC0062;}
	.st5{fill:#FF2CAF;}
	.st6{fill:#00E7FF;}
	.st7{fill:#00BDFF;}
	.st8{fill:#0096F2;}
	.st9{fill:#6CF8FF;}
</style>
<linearGradient id="SVGID_1_" gradientUnits="userSpaceOnUse" x1="543.4472" y1="957.6037" x2="536.6649" y2="152.1972">
	<stop  offset="0" style="stop-color:#6DE5FF"/>
	<stop  offset="0.0213" style="stop-color:#73E6FF"/>
	<stop  offset="0.2427" style="stop-color:#B0EDFF"/>
	<stop  offset="0.4052" style="stop-color:#D6F2FF"/>
	<stop  offset="0.4904" style="stop-color:#E5F4FF"/>
	<stop  offset="0.5935" style="stop-color:#E8EAFA"/>
	<stop  offset="0.7712" style="stop-color:#F1CEEC"/>
	<stop  offset="1" style="stop-color:#FFA1D5"/>
</linearGradient>
<path class="st0" d="M867.39,974.3H212.61c-54.49,0-98.67-44.17-98.67-98.67V220.86c0-54.49,44.17-98.67,98.67-98.67h654.78
	c54.49,0,98.67,44.17,98.67,98.67v654.78C966.06,930.13,921.88,974.3,867.39,974.3z"/>
<g>
	<g>
		<path class="st1" d="M467.43,612.49c12.32-0.94,13.42,3.61,16.54,10.59c3.13,6.98,15.21,46.04,28.21,63.01
			c12.99,16.97,38.45,27.56,53.33,41.88c14.88,14.32,12.72,34.65,9.88,41.86s-4.76,9.49-26.98,20.12
			c-22.21,10.63-69.55-27.78-69.55-27.78L444.1,626.12C444.1,626.12,455.1,613.43,467.43,612.49z"/>
		<path class="st1" d="M696.42,993.77H529.29l43-58.22l1.3-1.76c0,0,0.95,0.16,2.53,0.37c5.6,0.77,19.2,2.22,27-0.37
			c9.99-3.34,18.88-12.81,24.99-23.33c6.11-10.52,21.67-52.76,33.33-58.31c11.66-5.56,31.12-5.49,40.56-1.04
			c1.03,0.49,2.09,1.2,3.14,2.11c8.62,7.42,17.64,28.13,19.62,48.91C726.12,916.51,730.85,993.77,696.42,993.77z"/>
		<path class="st2" d="M603.37,883.57c-0.09,3.78-0.47,7.46-1.16,11.06c-0.01,0.03-0.01,0.07-0.02,0.09
			c-4.59,23.85-17.03,45.88-33.18,64.52c-0.67,0.78-1.36,1.56-2.05,2.32c-0.08,0.08-0.16,0.18-0.23,0.26
			c-1.15,1.28-2.31,2.55-3.51,3.79c-0.34,0.37-0.67,0.72-1,1.07c-8.5,8.8-17.78,16.71-27.32,23.53c-1.64,1.01-3.46,2.15-5.6,3.55
			c-33.84,22.21-146.1,39.99-189.42,36.65s-103.99-10.55-126.63-51.65c-22.63-41.1-33.33-76.64-16.66-173.28
			c15.94-92.46,85.27-226.1,91.24-237.48c0.39-0.12,1.02-0.31,1.84-0.54c15.28-4.5,99.72-29.3,104.27-29.3
			c3.95,0,46.3,20.76,63.96,29.5c4.71,2.33,7.68,3.81,7.68,3.81s1.62,23.71,4.74,51.72c1.53,13.69,3.41,28.42,5.64,41.89
			c3.1,18.78,6.87,35.16,11.27,43.01c14.02,25,33.33,26.66,61.65,58.31C574.73,795.33,604.51,843.69,603.37,883.57z"/>
		<path class="st3" d="M696.42,993.77H529.29l43-58.22l3.83-1.39c5.6,0.77,19.2,2.22,27-0.37c0,0-10.27,18.6-12.77,24.43
			c-2.5,5.83-3.05,13.05,0,16.66c3.05,3.61,7.77,5.52,12.77,5.56c5,0.04,66.64,0.56,71.09,0c4.44-0.56,8.61-5.02,8.33-11.4
			s-4.73-14.42-5.56-27.48c-0.83-13.06,4.73-48.82,5.56-57.18s4.44-18.36,8.88-25.58c4.44-7.22,13.71-5.6,13.71-5.6
			c8.62,7.42,17.64,28.13,19.62,48.91C726.12,916.51,730.85,993.77,696.42,993.77z"/>
		<path class="st1" d="M602.21,894.63c-0.01,0.03-0.01,0.07-0.02,0.09c-4.59,23.85-17.03,45.88-33.18,64.52
			c-0.67,0.78-1.36,1.56-2.05,2.32c-0.08,0.08-0.16,0.18-0.23,0.26c-1.24,1.34-2.41,2.6-3.51,3.79c-0.34,0.37-0.67,0.72-1,1.07
			c-15.59,16.64-19.11,18.48-27.32,23.53c-1.64,1.01-3.46,2.15-5.6,3.55c-29.51,19.37-118.66,35.37-169.71,36.93
			c-7.5,0.23-14.17,0.16-19.71-0.27c-7.57-0.58-15.68-1.28-24.01-2.27c-39.35-4.63-83.94-15.47-102.61-49.38
			c-22.63-41.1-33.33-76.64-16.66-173.28c15.94-92.46,85.27-226.1,91.24-237.48c0.26-0.52,0.4-0.78,0.4-0.78l1.43,0.23l51.88,8.31
			c0,0-10.55,17.54-23.33,54.76c-12.77,37.22-32.2,210.5-28.32,238.27c3.44,24.6,18.53,53.98,35.11,67.32H325
			c2.14,1.72,4.29,3.18,6.46,4.32c6.76,3.56,16.66,7.97,28.24,12.16c20.92,7.59,47.25,14.5,70.14,14.5
			c35.54,0,72.27-3.32,99.45-16.65C554.24,938.21,595.58,900.71,602.21,894.63z"/>
		<path class="st3" d="M469.03,622.29c-3.48,3.48-10.28,8.26-21.41,8.26c-17.49,0-29.82-7.82-48.43-14.77
			c-10.45-3.9-57.07-15.96-77.36-23.54c-24.7-9.24-32.99-21.26-32.99-21.26l167.77-4.22c4.71,2.33,7.68,3.81,7.68,3.81
			S465.9,594.28,469.03,622.29z"/>
		<path class="st2" d="M563.13,537.25c-3.95,17.39-12.25,31.67-22.07,42.68v0.01c-16.04,17.99-36.11,27.28-47.91,27.28
			c-17.5,0-38.86-13.76-63.5-21.45c-2.13-0.67-4.29-1.3-6.48-1.86c-27.39-7.09-109.03-3.34-124.97-10
			c-15.92-6.66-35.4-13.34-46.64-25c-11.25-11.66-21.66-40.4-21.66-74.98s12.07-59.98,39.98-98.3
			c27.91-38.32,49.16-50.82,71.65-56.64c12.07-3.13,32.17-4.08,51.82-3.64c13.17,0.27,26.11,1.18,36.3,2.45
			c2.95,0.37,5.67,0.77,8.1,1.19c23.33,4.08,45.92,12.91,68.73,34.99c22.8,22.07,36.65,78.31,43.32,99.97
			C556.47,475.6,573.54,491.43,563.13,537.25z"/>
		<path class="st2" d="M796.24,432.91c-0.21,0.7-0.42,1.38-0.66,2.06c-1.99,5.75-4.86,10.62-8.32,14.72
			c-11.68,13.85-30.09,18.91-44.2,19.43c-17.59,0.66-45.87-4.14-58.81-33.32c-12.95-29.19-8.35-57.64-16.11-90.23
			c-7.57-31.76-13.75-54.64-51.8-53.05c-16.22,0.68-31.64,13.16-42.56,27.84c-10.9,14.66-44.44,59.77-44.44,59.77l-34.03-31.98
			c0,0,43.8-64.87,69.8-83.65c18.6-13.43,34.17-18.68,47.28-20.64c5.23-0.78,10.06-1.04,14.53-1.09
			c45.13-0.52,75.82,15.19,88.88,23.88c21.11,14.06,51.59,44.42,64.79,71.83C793.45,365.22,804.33,405.89,796.24,432.91z"/>
		<path class="st3" d="M383.97,1011.27l-24.4,19.43c-7.5,0.23-14.17,0.16-19.71-0.27c-7.57-0.58-15.68-1.28-24.01-2.27
			c-1.74-3.43-7.02-14.09-8.02-19.39c-1.21-6.39-3.79-29.99,0-44.99c3.8-15,17.16-27.65,17.16-27.65H325
			c2.14,1.72,4.29,3.18,6.46,4.32c6.76,3.56,16.66,7.97,28.24,12.16L383.97,1011.27z"/>
		<path class="st2" d="M612.27,100.18c-13.43,16.36-55.94,34.26-78.31,53.84c-22.38,19.57-52.03,48.1-76.08,73.83
			c-23.23,24.86-46.47,46.06-59.11,71.17c-0.44,0.88-0.88,1.77-1.3,2.67c-1.07,2.28-1.98,4.51-2.76,6.68
			c-1.33,3.73-2.29,7.3-2.93,10.67c-3.37,17.49,1.22,29.63,1.22,29.63l-49.07-23.46l-2.39-1.15c0,0,3.06-44.99,12.88-86.84
			c4.13-17.54,9.44-34.52,16.21-47.41c22.93-43.62,41.39-67.4,58.17-89.63s55.93-56.04,78.31-64.74
			c19.86-7.73,45.23-17.17,75.05-5.49l0.01,0.01c3.7,1.45,7.48,3.22,11.31,5.36c0.06,0.04,0.13,0.08,0.19,0.11
			c7.78,4.37,13.68,9.21,18,14.26h0.01l0.03,0.03c1.51,1.77,2.83,3.59,3.96,5.41C625.82,71.29,621.63,88.76,612.27,100.18z"/>
		<path class="st1" d="M399.85,885.47c-23.88,3.89-41.65,17.77-51.65,33.32c-10,15.55-16.61,38.07-13.88,69.98
			s16.11,53.87,37.77,61.09c21.66,7.22,43.88,2.78,59.43-1.11c15.55-3.89,27.42-11.89,39.54-43.71
			c12.12-31.82,4.24-88.92-9.54-101.24C444.1,888.25,423.73,881.58,399.85,885.47z"/>
		<path class="st3" d="M298.21,647.21c0,0-4.58-0.42-8.33,3.33c-3.75,3.75-31.4,55.82-35.9,65.81c-4.5,10-13.25,27.19-17.41,47.9
			c-4.17,20.71-1.97,35.02,0,44.57c2.92,14.16,9.16,26.84,23.33,39.04c14.16,12.19,29.5,9.29,29.5,9.29l2.16-30.84L298.21,647.21z"
			/>
		<path class="st4" d="M298.21,647.21c5-9.58,6.74-15,19.99-16.66s23.33,10.21,23.33,27.8s-1.67,51.42,0,67.17
			c1.67,15.75,13.75,50.82,16.66,66.65c2.92,15.83,4.85,26.81,2.35,36.24c-2.76,10.41-11.51,19.58-25.67,23.74
			c-14.16,4.17-47.49-3.75-61.65-24.99c-14.16-21.24-25.83-52.61-15-85.81C269.06,708.16,293.22,656.79,298.21,647.21z"/>
		<path class="st1" d="M429.65,585.77c-2.13-0.67-4.29-1.3-6.48-1.86c-27.39-7.09-109.03-3.34-124.97-10
			c-15.92-6.66-35.4-13.34-46.64-25c-11.25-11.66-21.66-40.4-21.66-74.98s12.07-59.98,39.98-98.3
			c27.91-38.32,49.16-50.82,71.65-56.64c12.07-3.13,32.17-4.08,51.82-3.64c0,0-29.26,14.05-45.58,31.55s-41.23,44.98-46.23,87.47
			c-5,42.49,14.01,67.06,29.92,82.47c15.9,15.41,51.93,40.74,65.05,48.73C409.63,573.57,429.65,585.77,429.65,585.77z"/>
		<path class="st5" d="M796.24,432.91c0,0-1.9,9.98-8.99,16.78c0,0-17.6,5.76-33.8,5.25s-35.13-7.24-41.79-25.35
			s-8.36-56.06-11.85-76.27c-3.49-20.22-17.81-74.04-34.1-87.54c-16.29-13.5-53.35-21.9-53.35-21.9s0,0,0.01-0.01
			c5.23-0.78,10.06-1.04,14.53-1.09c45.13-0.52,75.82,15.19,88.88,23.88c21.11,14.06,51.59,44.42,64.79,71.83
			C793.45,365.22,804.33,405.89,796.24,432.91z"/>
		<path class="st1" d="M520.5,313.31c0,0-5.61,14.9-4.76,20.4s4.92,12.69,8.22,15.38c3.3,2.68,10.96,9.88,13.23,10.76
			s5.62,2.16,5.62,2.16l-19.54,28.61l-27.98-42.45L520.5,313.31z"/>
		<path class="st5" d="M612.27,100.18c-13.43,16.36-55.94,34.26-78.31,53.84c-22.38,19.57-52.03,48.1-76.08,73.83
			c-23.23,24.86-46.47,46.06-59.11,71.17c-1.43-1.31-2.72-2.78-3.73-4.42c-5.02-8.21-6.15-20.5,0-41.95
			c6.15-21.45,46.43-105.35,65.45-130.89c19.03-25.55,69.59-66.83,92.97-76.71c17.48-7.39,33.2-9.25,40.02-9.73
			c0.06,0.04,0.13,0.08,0.19,0.11c7.78,4.37,13.68,9.21,18,14.26h0.01l0.03,0.03c1.51,1.77,2.83,3.59,3.96,5.41
			C625.82,71.29,621.63,88.76,612.27,100.18z"/>
		<path class="st5" d="M563.13,537.25c-3.95,17.39-12.25,31.67-22.07,42.68c0,0,7.59-28.24,9-33.1c1.41-4.86,2.04-13.52,0-18.74
			c-2.04-5.23-7.76-21.25-14.84-28.74c-7.08-7.5-52.02-15.12-63.98-17.49c-11.96-2.36-75.84-11.25-82.22-11.25
			c-6.38,0-20.49,0-27.32,0c-6.83,0,3.71-7.08,8.58-9.37c4.86-2.29,40.68-11.93,54.99-10.72c14.3,1.21,45.85,10.72,62.98,10.72
			c17.13,0,25.19-3.13,31.99-9.37c3.87-3.55,3.89-12.04,2.5-18.74c-2.4-11.58-6.64-19.96-11.8-32.77
			c-5.03-12.5-13.39-32.49-39.69-54.71c-11.68-9.87-41.58-27.84-41.58-27.84c2.95,0.37,5.67,0.77,8.1,1.19
			c23.33,4.08,45.92,12.91,68.73,34.99c22.8,22.07,36.65,78.31,43.32,99.97C556.47,475.6,573.54,491.43,563.13,537.25z"/>
		<path class="st5" d="M603.37,883.57l-0.25,0.82c0,0-10.14-39.74-17.91-52.65c-7.77-12.91-24.24-25.46-35.15-32.7
			c-10.92-7.23-22.21-17.7-39.29-15c-17.08,2.71-52.77,26.86-64.98,33.95c-12.2,7.08-27.42,11.25-40.43,13.75
			c-13.01,2.5-25.51-10-20.09-26.24c5.42-16.24,16.25-24.16,27.5-33.74c11.24-9.58,31.33-15.83,46.23-29.95
			c6.25-5.92,10.83-15.45,12.24-29.19c1.27-12.4-2.26-27.63-1.13-34.85c1.13-7.22,5.85-12.65,5.85-12.65
			c3.1,18.78,6.87,35.16,11.27,43.01c14.02,25,33.33,26.66,61.65,58.31C574.73,795.33,604.51,843.69,603.37,883.57z"/>
		<path class="st1" d="M394.72,308.36l-2.95,10.69l-47.85,6.17l-2.39-1.15c0,0,3.06-44.99,12.88-86.84l0.03-0.03
			c0,0,2.2,35.96,5,45.47c2.79,9.51,6.17,21.26,15.66,25.69c9.29,4.33,19.21,0.18,19.62,0.01
			C394.72,308.36,394.72,308.36,394.72,308.36z"/>
	</g>
	
		<ellipse transform="matrix(0.9755 -0.2198 0.2198 0.9755 -86.5384 93.9474)" class="st1" cx="378.93" cy="435.88" rx="22.08" ry="14.37"/>
	
		<ellipse transform="matrix(0.3192 -0.9477 0.9477 0.3192 -77.6083 795.7078)" class="st1" cx="515.04" cy="451.87" rx="12.93" ry="17.35"/>
	<path class="st1" d="M478.07,490.34c-0.79,2.64-6.2,10.73-13.83,15.83c-0.42,0.29-0.86,0.57-1.3,0.83
		c-1.87,1.12-10.06,0.57-12.36-1.12c-6.66-4.88-12.77-13.64-14.71-17.5c-1.68-3.32-2.22-6.94-1.11-8.58
		c0.93-1.37,2.44-2.3,4.85-2.56c0.47-0.06,0.97-0.08,1.51-0.08c3.31,0,28.07,3.45,33.36,5.3
		C479.77,484.32,478.86,487.71,478.07,490.34z"/>
	<path class="st3" d="M464.24,506.17c-0.42,0.29-0.86,0.57-1.3,0.83c-1.87,1.12-10.06,0.57-12.36-1.12
		c-6.66-4.88-12.77-13.64-14.71-17.5c-1.68-3.32-2.22-6.94-1.11-8.58c0.93-1.37,2.44-2.3,4.85-2.56l2.5,0.03
		c0,0-1.18,0.94-1.84,2.33c-0.66,1.39-0.58,3.86,0.73,6.56c1.32,2.71,7.64,11.68,9.06,13.22c1.42,1.56,5,5.52,8.85,6.77
		C460.42,506.67,464.24,506.17,464.24,506.17z"/>
</g>
<g>
	<path class="st6" d="M727.18,606.18l-0.01,0.11c-0.01,0.01-0.01,0.02-0.01,0.02l-20.78,53.6l-2.17,5.59l-8.32,21.47l-5.8,14.96
		c0,0-5.11-5.67-12.2-14.96c-11.57-15.13-28.44-39.88-37.22-65.48c-4.78-13.94-7.18-28.12-5.01-41.13c0.59-3.49,1.5-6.88,2.77-10.18
		c9.91-25.58,35.9-37.88,58.13-29.27C733.16,555.1,727.54,603.31,727.18,606.18z"/>
	<path class="st6" d="M816.3,631.41c-0.46,1.87-1.03,3.75-1.7,5.62l-0.01,0.05c-0.16,0.4-0.3,0.8-0.46,1.2
		c-20.16,52-124.04,63.64-124.04,63.64l5.8-14.96l8.32-21.47l2.17-5.59l20.78-53.6c0,0,0-0.01,0.01-0.02
		c0.74-1.08,28.06-40.8,63.15-28.98c0.64,0.22,1.28,0.44,1.92,0.7c2.03,0.78,3.94,1.73,5.77,2.82c11.95,7.16,19.3,20.56,19.88,35.72
		C818.06,621.37,817.56,626.38,816.3,631.41z"/>
</g>
<g>
	<path class="st7" d="M835.72,757.37l-40.71,16.48l-15.72,6.37c0,0,0.68-8.27,3-19.42c4.12-19.76,13.37-48.58,32.98-56.51
		c15.1-6.11,30.99,0.12,36.3,13.25C860.6,739.81,835.72,757.37,835.72,757.37z"/>
	<path class="st7" d="M857.26,808c-30.69,12.42-77.97-27.78-77.97-27.78l15.72-6.37l40.71-16.48c0,0,29.99-4.9,38.72,16.64
		C879.59,786.69,872.37,801.88,857.26,808z"/>
</g>
<path class="st7" d="M705.06,661.47c13.24,4.85,34.2,9.68,58.35,4s50.72-27.19,50.72-27.19c-20.16,52-124.04,63.64-124.04,63.64
	s-5.11-5.67-12.2-14.96c-11.57-15.13-28.44-39.88-37.22-65.48c-4.78-13.94-7.18-28.12-5.01-41.13c0,0,14.62,32.74,25.19,46.22
	C672.26,641.15,691.82,656.62,705.06,661.47z"/>
<path class="st8" d="M857.26,808c-30.69,12.42-77.97-27.78-77.97-27.78s0.68-8.27,3-19.42l0.02-0.05c0,0,4.06,5.15,6.67,8.44
	c0.9,1.14,3.13,2.82,6.03,4.66c5.47,3.46,13.31,7.55,19.12,9.78c8.9,3.4,19.6,7.62,29.55,8.75c9.95,1.13,19.36-4.11,24.16-8.75
	c4.8-4.65,6.61-9.63,6.61-9.63C879.59,786.69,872.37,801.88,857.26,808z"/>
<ellipse transform="matrix(0.866 -0.5 0.5 0.866 -192.6315 412.3235)" class="st9" cx="673.09" cy="565.62" rx="20.27" ry="12.85"/>
<ellipse transform="matrix(0.9719 -0.2354 0.2354 0.9719 -145.9014 214.3263)" class="st6" cx="824.68" cy="718.22" rx="12.08" ry="8.35"/>
</svg>
