<?xml version="1.0" encoding="utf-8"?>
<!-- Generator: Adobe Illustrator 26.0.3, SVG Export Plug-In . SVG Version: 6.00 Build 0)  -->
<svg version="1.1" id="Слой_1" xmlns="http://www.w3.org/2000/svg" xmlns:xlink="http://www.w3.org/1999/xlink" x="0px" y="0px"
	 viewBox="0 0 1080 1080" style="enable-background:new 0 0 1080 1080;" xml:space="preserve">
<style type="text/css">
	.st0{fill:url(#SVGID_1_);}
	.st1{fill:#FFBE55;}
	.st2{fill:#EA8B00;}
	.st3{fill:#D17200;}
	.st4{fill:#AA6900;}
	.st5{fill:#CC8D00;}
	.st6{fill:#9B5800;}
	.st7{fill:#E2A700;}
	.st8{fill:#FFD400;}
	.st9{fill:#E87400;}
	.st10{fill:#FF9700;}
	.st11{fill:#E5B900;}
	.st12{fill:none;}
	.st13{fill:url(#SVGID_00000116943345742376536720000007862345852266988201_);}
	.st14{fill:url(#SVGID_00000175300331524726196090000014374768962050370964_);}
	.st15{fill:url(#SVGID_00000026127903436663113870000015384655157584825535_);}
	.st16{fill:url(#SVGID_00000102517452171702943330000016060494646170841488_);}
	.st17{fill:url(#SVGID_00000026865671545998606210000012648062581397863318_);}
</style>
<rect x="-9.11" y="63.12" class="st12" width="1012.77" height="931.42"/>
<g>
	<path class="st12" d="M115.1,751.93V252.84c0-106.45,86.32-192.77,192.77-192.77H12.06v838.93
		C12.06,831.96,55.33,785.04,115.1,751.93z"/>
	<linearGradient id="SVGID_1_" gradientUnits="userSpaceOnUse" x1="569.9592" y1="2825.5742" x2="569.9592" y2="115.5694">
		<stop  offset="0.7029" style="stop-color:#C9FFFF"/>
		<stop  offset="1" style="stop-color:#96F5EB"/>
	</linearGradient>
	<path class="st0" d="M115.1,252.84v499.09c111.36-61.68,280.04-75.34,333.11-81.48c81.56-9.42,155.42-27.44,287.96,0
		c102.86,21.29,211.03,120.68,288.65,176.14V60.07H307.87C201.42,60.07,115.1,146.4,115.1,252.84z"/>
	<path class="st1" d="M416.31,991.49c16.39-6.53,31.61-12.47,45.17-17.72l0.03-0.03c10.28-3.98,19.64-7.58,27.84-10.73
		c108.23-41.66,368.16-26.39,503.46,28.48h32.02V846.6c-77.63-55.47-185.79-154.85-288.65-176.14
		c-132.54-27.44-206.39-9.42-287.96,0c-53.08,6.13-221.75,19.79-333.11,81.48c-59.77,33.1-103.04,80.03-103.04,147.07v92.49H416.31z
		"/>
	<path class="st3" d="M489.35,963.01c-8.19,3.15-17.55,6.75-27.84,10.73l-0.03,0.03c0,0-10.44,6.59-27.23,17.72H992.8
		C857.51,936.62,597.58,921.35,489.35,963.01z"/>
	<path class="st4" d="M416.31,991.49h17.94c16.8-11.13,27.23-17.72,27.23-17.72C447.92,979.02,432.7,984.97,416.31,991.49z"/>
</g>
</svg>
