<?xml version="1.0" encoding="utf-8"?>
<!-- Generator: Adobe Illustrator 26.0.3, SVG Export Plug-In . SVG Version: 6.00 Build 0)  -->
<svg version="1.1" id="Слой_1" xmlns="http://www.w3.org/2000/svg" xmlns:xlink="http://www.w3.org/1999/xlink" x="0px" y="0px"
	 viewBox="0 0 1080 1080" style="enable-background:new 0 0 1080 1080;" xml:space="preserve">
<style type="text/css">
	.st0{fill:#0095E0;}
	.st1{fill:#0084DD;}
	.st2{fill:#00BEF9;}
	.st3{fill:#00A6EF;}
	.st4{fill:#E5E5E5;}
	.st5{fill:#C0FCFF;}
	.st6{fill:#97E4FF;}
	.st7{fill:#E9FEFF;}
	.st8{fill:#CE0000;}
	.st9{fill:#FFDA00;}
	.st10{fill:#FFB000;}
	.st11{fill:#FFEB99;}
	.st12{fill:url(#SVGID_1_);}
	.st13{fill:#E30613;}
	.st14{fill:#FF55DB;}
	.st15{fill:url(#SVGID_00000083769123391647307750000008133052515227218575_);}
	.st16{fill:url(#SVGID_00000178926390354873697260000004530851006717698988_);}
	.st17{fill:url(#SVGID_00000161609622246699782730000016892119949284162708_);}
	.st18{fill:#6600BF;}
	.st19{fill:url(#SVGID_00000167380959146876235280000008522007677259361686_);}
	.st20{fill:#3E0066;}
	.st21{fill:#FF92E5;}
	.st22{fill:url(#SVGID_00000003105330101315527940000015203567161311315356_);}
	.st23{fill:url(#SVGID_00000029739508643193666290000008416744060809606038_);}
	.st24{fill:url(#SVGID_00000023281827209659988080000017690832439478911111_);}
	.st25{fill:none;stroke:#410096;stroke-width:13;stroke-linecap:round;stroke-miterlimit:10;}
	.st26{fill:none;stroke:#3D0084;stroke-width:23;stroke-linecap:round;stroke-miterlimit:10;}
	.st27{fill:#00A867;}
	.st28{fill:#FFA6DD;}
	.st29{fill:#FF88D2;}
	.st30{fill:#00DB68;}
	.st31{fill:#008464;}
	.st32{fill:#FFB8E7;}
	.st33{fill:#FFD2F2;}
	.st34{fill:#FFC5EC;}
	.st35{fill:#FFE6FA;}
	.st36{fill:#E50016;}
	.st37{fill:#FF1F1F;}
	.st38{fill:#C6001D;}
	.st39{fill:url(#SVGID_00000101785320234169425000000001468027173235119003_);}
	.st40{fill:url(#SVGID_00000061433730430726828480000009639670077860523932_);}
	.st41{fill:#FF6155;}
	.st42{fill:#009640;}
	.st43{fill:#00C650;}
	.st44{fill:#007F2D;}
	.st45{fill:none;stroke:#A06600;stroke-width:20;stroke-linecap:round;stroke-miterlimit:10;}
	.st46{fill:none;stroke:#60352B;stroke-width:20;stroke-linecap:round;stroke-miterlimit:10;}
	.st47{fill:none;stroke:#6D3600;stroke-width:20;stroke-linecap:round;stroke-miterlimit:10;}
	.st48{fill:none;stroke:#60352B;stroke-width:15;stroke-linecap:round;stroke-miterlimit:10;}
	.st49{fill:#00F445;}
	.st50{fill:#FFCE00;}
	.st51{fill:#FFDE3B;}
	.st52{fill:#5B3800;}
	.st53{fill:#844200;}
	.st54{fill:#422700;}
	.st55{fill:#7F3900;}
	.st56{fill:#774600;}
	.st57{fill:#0088ED;}
	.st58{fill:#08C5FF;}
	.st59{fill:#006054;}
	.st60{fill:#00894B;}
	.st61{fill:#004C43;}
	.st62{fill:#007C4F;}
	.st63{fill:#009B3F;}
	.st64{fill:url(#SVGID_00000071539381395698040380000004240585855101132938_);}
	.st65{fill:url(#SVGID_00000011021928248570485170000012415245601766131645_);}
	.st66{fill:url(#SVGID_00000146483780900902644350000000290440167689799091_);}
	.st67{fill:url(#SVGID_00000025444618863653907540000006734028104989569956_);}
	.st68{fill:url(#SVGID_00000034798246726907486840000010829039868229962669_);}
	.st69{fill:url(#SVGID_00000176018096926936164560000016519130590340976569_);}
	.st70{fill:url(#SVGID_00000130644357711048640710000014611607633794235282_);}
	.st71{fill:url(#SVGID_00000147904224477699331200000008910356618600801433_);}
	.st72{fill:url(#SVGID_00000139982728424695102710000000427964915131467659_);}
	.st73{fill:url(#SVGID_00000087400696833475095100000010201041416110473375_);}
	.st74{fill:url(#SVGID_00000124123752930776560410000005866776384287475890_);}
	.st75{fill:url(#SVGID_00000108299815265280739950000001154991139167436952_);}
	.st76{fill:url(#SVGID_00000174603754160675804960000015246830242365651108_);}
	.st77{fill:url(#SVGID_00000117639975303118893200000004451064950528526244_);}
	.st78{fill:url(#SVGID_00000013904893728191951990000009508608477655144328_);}
	.st79{fill:url(#SVGID_00000140698693900620659290000015932631881029775527_);}
	.st80{fill:url(#SVGID_00000142898338765175774300000012271994010822194831_);}
	.st81{fill:url(#SVGID_00000165919565541055795930000012926670388827373195_);}
	.st82{fill:url(#SVGID_00000094606422530451456010000014797881341753527979_);}
	.st83{fill:url(#SVGID_00000163774812494147718510000009937452636132492416_);}
	.st84{fill:url(#SVGID_00000095303046303050153540000007423024424247370902_);}
	.st85{fill:url(#SVGID_00000022537244732769821830000013778981289995542681_);}
	.st86{fill:url(#SVGID_00000157302563553501472510000000529664500428717239_);}
	.st87{fill:url(#SVGID_00000149373383582472143990000004425708443589708440_);}
	.st88{fill:url(#SVGID_00000080188322189873429910000004705303936932741305_);}
	.st89{fill:url(#SVGID_00000103225992096448846350000003688553193807512989_);}
	.st90{fill:url(#SVGID_00000016782616048170606220000005990312466294734226_);}
	.st91{fill:url(#SVGID_00000085246975353214376820000012729837892918872488_);}
	.st92{fill:url(#SVGID_00000113315225489647155000000007923623753563316126_);}
	.st93{fill:url(#SVGID_00000012446620383767604800000000137217161090526376_);}
	.st94{fill:url(#SVGID_00000174582588665985704270000001434668032627874201_);}
	.st95{fill:url(#SVGID_00000149375000319135856920000015498124714716857990_);}
	.st96{fill:url(#SVGID_00000082361041526516979400000010095565047799280308_);}
	.st97{fill:url(#SVGID_00000142888381258977069080000001091159329209284251_);}
	.st98{fill:url(#SVGID_00000050664098295471348350000013732997646155232932_);}
	.st99{fill:url(#SVGID_00000072257150345249699990000009454188513279191448_);}
	.st100{fill:url(#SVGID_00000011731321941924507570000011661637323486807711_);}
	.st101{fill:url(#SVGID_00000025419438329547549260000005183614395947047814_);}
	.st102{fill:url(#SVGID_00000037661332755430782840000002688184356154043312_);}
	.st103{fill:url(#SVGID_00000033359582013624777910000015923303329427616175_);}
	.st104{fill:url(#SVGID_00000106131419524438446820000018082771314555291054_);}
	.st105{fill:url(#SVGID_00000115481535582999208620000011608353979624584865_);}
	.st106{fill:url(#SVGID_00000150794976473783479220000000186220928995822012_);}
	.st107{fill:url(#SVGID_00000044863492770013134330000013807875156639490472_);}
	.st108{fill:url(#SVGID_00000114769299253268138130000005663744142376912569_);}
	.st109{fill:url(#SVGID_00000149350001123544708790000012770612436639712669_);}
	.st110{fill:url(#SVGID_00000067931419059172331510000007593009478757474205_);}
	.st111{fill:url(#SVGID_00000119815908702424366410000014854908698072519836_);}
	.st112{fill:url(#SVGID_00000011026342179258812870000017035322984060218813_);}
	.st113{fill:url(#SVGID_00000124845210540302804430000009636725350257534892_);}
	.st114{fill:url(#SVGID_00000057132094375128310030000001639709547046379179_);}
	.st115{fill:#FFBC27;}
	.st116{fill:url(#SVGID_00000050625210216991188070000005195713587512728471_);}
	.st117{fill:url(#SVGID_00000083767279143640689700000018112923417764789688_);}
	.st118{fill:url(#SVGID_00000058580183433928316210000005923075789960877498_);}
	.st119{fill:url(#SVGID_00000080171452326966492670000016758643744728701857_);}
	.st120{fill:url(#SVGID_00000058569037057383476830000007954532126005651860_);}
	.st121{fill:url(#SVGID_00000070808805976222639860000003311446197952792982_);}
	.st122{fill:url(#SVGID_00000101080981195207365720000015940899866213759619_);}
	.st123{fill:url(#SVGID_00000073711839574624120880000017981313125897584061_);}
	.st124{fill:url(#SVGID_00000125561302823864676830000003543018603223697823_);}
	.st125{fill:url(#SVGID_00000168091603189942421120000013663554317118455936_);}
	.st126{fill:url(#SVGID_00000039825431455686444940000015948697805429535639_);}
	.st127{fill:url(#SVGID_00000145041949547103760740000017717258731289355422_);}
	.st128{fill:url(#SVGID_00000043458402723140818860000002123607340785161891_);}
	.st129{fill:url(#SVGID_00000116926058976868091780000011495483559256910762_);}
	.st130{fill:url(#SVGID_00000121986103609313972460000009538620604219438760_);}
	.st131{fill:url(#SVGID_00000000940188517204230140000012384562639344951720_);}
	.st132{fill:url(#SVGID_00000151512371800061123790000003445730450673010347_);}
	.st133{fill:url(#SVGID_00000098901766566924660210000018247571771839446441_);}
	.st134{fill:url(#SVGID_00000031927019835349229120000002262278582165914551_);}
	.st135{fill:url(#SVGID_00000147908937562209597610000016379648953655400585_);}
	.st136{fill:url(#SVGID_00000047759950749436457200000008387656327725331900_);}
	.st137{fill:url(#SVGID_00000093894227220550946420000011351888750010204862_);}
	.st138{fill:url(#SVGID_00000075137546806679054150000000979647131474389889_);}
	.st139{fill:url(#SVGID_00000168098225929449135160000014304578753621550727_);}
	.st140{fill:url(#SVGID_00000099644228498925552070000010715450435698168248_);}
	.st141{fill:url(#SVGID_00000181056388434094190290000009798610881786686862_);}
	.st142{fill:url(#SVGID_00000055669634152901636920000014144808057710490253_);}
	.st143{fill:url(#SVGID_00000010268453886033062220000017033258938975970717_);}
	.st144{fill:url(#SVGID_00000008871160662683812580000009236424469285905558_);}
	.st145{fill:url(#SVGID_00000036252904224286012970000018009028692402267522_);}
	.st146{fill:url(#SVGID_00000145028767884023609550000004120041039809686707_);}
	.st147{fill:url(#SVGID_00000129898620982783868990000016006450760208610452_);}
	.st148{fill:url(#SVGID_00000018219666592979955480000004471883672882721171_);}
	.st149{fill:url(#SVGID_00000047758638673260379360000014399444612954438528_);}
	.st150{fill:url(#SVGID_00000052782498417712890340000015812207824363632014_);}
	.st151{fill:url(#SVGID_00000078005560565980402250000007413834331344161956_);}
	.st152{fill:url(#SVGID_00000072985778763298507380000001138513769037722258_);}
	.st153{fill:url(#SVGID_00000111178061381015143370000015419607116767733916_);}
	.st154{fill:url(#SVGID_00000156573985830111145050000001965495843228692897_);}
	.st155{fill:url(#SVGID_00000092452228503173746090000017210361441960998575_);}
	.st156{fill:url(#SVGID_00000037688451584099616610000003772491685279211678_);}
	.st157{fill:url(#SVGID_00000116935326466065595760000012010166196249578131_);}
	.st158{fill:url(#SVGID_00000027586663112205844710000011923905629084711590_);}
	.st159{fill:url(#SVGID_00000114759013346386953860000001721043666902124465_);}
	.st160{fill:url(#SVGID_00000040560397789900251050000018196972853216624017_);}
	.st161{fill:url(#SVGID_00000033351443126507171790000002666395183467825070_);}
	.st162{fill:url(#SVGID_00000029758710559429934850000000683295573769093295_);}
	.st163{fill:url(#SVGID_00000165923308877359457440000008245745642650275216_);}
	.st164{fill:#FFC545;}
	.st165{fill:url(#SVGID_00000052785012202624776080000005570936316620950711_);}
	.st166{fill:url(#SVGID_00000029010012952660544910000007399378971101945754_);}
	.st167{fill:url(#SVGID_00000052827206764463822040000010354631030130233508_);}
	.st168{fill:url(#SVGID_00000172400030737577753320000008285020577652098434_);}
	.st169{fill:url(#SVGID_00000078740305906197921980000007646698403273458060_);}
	.st170{fill:url(#SVGID_00000043458046065022471550000015681254863283218354_);}
	.st171{fill:url(#SVGID_00000170274164224168823620000004757066987827757952_);}
	.st172{fill:url(#SVGID_00000126287768214357765670000014499689406147734930_);}
	.st173{fill:url(#SVGID_00000181791700747866967600000000509760760742437534_);}
	.st174{fill:url(#SVGID_00000178176909104254169480000017869885336859369614_);}
	.st175{fill:url(#SVGID_00000179633218612179783900000003150826092577212559_);}
	.st176{fill:url(#SVGID_00000176764160307678430200000001551337884948459156_);}
	.st177{fill:url(#SVGID_00000037678211601821710490000014772680086582432409_);}
	.st178{fill:url(#SVGID_00000144302695797483027610000016836174687491241888_);}
	.st179{fill:url(#SVGID_00000060024949230921456840000017848284721031475385_);}
	.st180{fill:url(#SVGID_00000063620409753524093270000003972341535531332755_);}
	.st181{fill:url(#SVGID_00000125560439609044145550000017531364476915141049_);}
	.st182{fill:url(#SVGID_00000003785623137189734270000004386114381372974995_);}
	.st183{fill:url(#SVGID_00000096058751356877807190000007591956567308076421_);}
	.st184{fill:url(#SVGID_00000009562679056480226870000003679131986915905685_);}
	.st185{fill:url(#SVGID_00000121277136018072904020000011337795704008276096_);}
	.st186{fill:url(#SVGID_00000002380361220789321950000005749674860994192803_);}
	.st187{fill:url(#SVGID_00000146463506733003134350000007615934454938085258_);}
	.st188{fill:url(#SVGID_00000181781303998465273410000013469274311047912877_);}
	.st189{fill:url(#SVGID_00000011006652209420261620000007028461486132301474_);}
	.st190{fill:url(#SVGID_00000068649263612816970710000001797970385327813257_);}
	.st191{fill:url(#SVGID_00000069392280933033211660000014015318968502691200_);}
	.st192{fill:url(#SVGID_00000119113131233829420020000003803854844755592096_);}
	.st193{fill:url(#SVGID_00000155857661114950579750000012921964691634503838_);}
	.st194{fill:url(#SVGID_00000074412862837698696190000000500953361587610522_);}
	.st195{fill:url(#SVGID_00000142879987832283356290000017404662043472834209_);}
	.st196{fill:url(#SVGID_00000034064476355371034760000013680458563323691948_);}
	.st197{fill:url(#SVGID_00000080197543268425829830000011438052806130173355_);}
	.st198{fill:url(#SVGID_00000020370147035138036880000013774751601157842819_);}
	.st199{fill:url(#SVGID_00000114070446019613951430000010165210230677791361_);}
	.st200{fill:url(#SVGID_00000107563026807931435560000018235238671776013957_);}
	.st201{fill:url(#SVGID_00000153671684649957520600000000942961308442771636_);}
	.st202{fill:url(#SVGID_00000173840829279281115540000007587554365173508783_);}
	.st203{fill:url(#SVGID_00000080924979950053994290000015191659340442478466_);}
	.st204{fill:url(#SVGID_00000019670814890952510450000015708812390869217447_);}
	.st205{fill:url(#SVGID_00000075867102815417072650000007390867535297422507_);}
	.st206{fill:url(#SVGID_00000160878132784058891970000011671635828380528515_);}
	.st207{fill:url(#SVGID_00000005968534018374850780000008932571028996251269_);}
	.st208{fill:url(#SVGID_00000070116856004154904200000000814834203714819993_);}
	.st209{fill:url(#SVGID_00000107590022395202902250000013775091958582098582_);}
	.st210{fill:url(#SVGID_00000173866778459183372250000010362885064865497018_);}
	.st211{fill:url(#SVGID_00000067953232109856216730000003403630723719674274_);}
	.st212{fill:url(#SVGID_00000152237250273251362720000003714015799268006054_);}
	.st213{fill:url(#SVGID_00000160149379490186004460000015381201078885608610_);}
	.st214{fill:url(#SVGID_00000031165771605037333310000003049562396682368642_);}
	.st215{fill:url(#SVGID_00000136374787676731663910000006204244142793532596_);}
	.st216{fill:url(#SVGID_00000162344901713464829420000016393346289064511878_);}
	.st217{fill:url(#SVGID_00000170976139340347692320000010007741065042666913_);}
	.st218{fill:url(#SVGID_00000015314097138676949250000002349485702294261928_);}
	.st219{fill:url(#SVGID_00000129913186869887483240000001748950288300896423_);}
	.st220{fill:url(#SVGID_00000108997469474235093640000014901543751674647464_);}
	.st221{fill:url(#SVGID_00000067216992991819432820000006229431349177697959_);}
	.st222{fill:url(#SVGID_00000076594656471920344180000010573888547311877289_);}
	.st223{fill:url(#SVGID_00000144300353529998995640000006772205260185438603_);}
	.st224{fill:url(#SVGID_00000029738082387140348770000000495123086733221250_);}
	.st225{fill:url(#SVGID_00000134964064075830062380000010908068515084651437_);}
	.st226{fill:url(#SVGID_00000011716988245065046650000001734707585246246063_);}
	.st227{fill:url(#SVGID_00000106129317022390542890000001849741709020296340_);}
	.st228{fill:url(#SVGID_00000023280304394630707240000013611878163645421711_);}
</style>
<g>
	<g>
		<g>
			<g>
				<g>
					<path class="st50" d="M598.1,278.49c0.01,9.75-0.52,18.42-1.51,26.11c-5.98,46.39-28.97,57.46-54.89,57.46
						c-30.21,0-62.55-10.07-62.55-84.6c0-52.62,13.66-124.96,31.52-169.14c0,0,0,0,0-0.01c9.63-23.79,20.46-39.43,31.03-39.43
						C571.91,68.88,598.03,197.53,598.1,278.49z"/>
					<path class="st10" d="M596.58,304.6c-5.98,46.39-28.97,57.46-54.89,57.46c-30.21,0-62.55-10.07-62.55-84.6
						c0-52.62,13.66-124.96,31.52-169.14c-6.22,16.85-25.29,133.3-15.16,193.56c1.72,10.24,14.27,22.23,23.45,23.58
						c9.18,1.34,13.27-4.05,15.3-10.11c2.04-6.06,2.72-58.38,7.53-58.61c4.81-0.23,9.01,48.69,10.83,58.61
						c1.84,9.93,9.18,19.77,17.35,20.21C577.36,335.97,591.1,328.28,596.58,304.6z"/>
					<path class="st51" d="M526.81,88.6c30.21,0,69.71,128.95,69.78,209.9c0,1.53,0.07,3.09,0.17,4.67
						c0.88-7.34,1.35-15.53,1.34-24.68c-0.07-80.96-26.19-209.6-56.4-209.6c-7.88,0-15.91,8.7-23.48,23
						C521.08,89.75,523.95,88.6,526.81,88.6z"/>
					<path class="st51" d="M539.45,251.21c0,0,2.37-67.02-3.6-108.23s-17.6,70.99-17.63,106.05c-0.03,35.06,6.28,38.5,9,38.44
						C529.94,287.4,535.99,288.14,539.45,251.21z"/>
				</g>
				<circle class="st51" cx="538.62" cy="504.16" r="20.23"/>
			</g>
		</g>
		<g>
			<g>
				<g>
					<path class="st50" d="M659.72,302.26c-2.51,9.42-5.27,17.66-8.22,24.83c-17.78,43.27-42.86,48-67.89,41.3
						c-29.18-7.82-57.81-25.92-38.52-97.9c13.62-50.82,45.53-117.16,74.23-155.22c0,0,0,0,0-0.01
						c15.46-20.49,29.97-32.79,40.18-30.05C688.67,93.02,680.6,224.04,659.72,302.26z"/>
					<path class="st10" d="M651.5,327.09c-17.78,43.27-42.86,48-67.89,41.3c-29.18-7.82-57.81-25.92-38.52-97.9
						c13.62-50.82,45.53-117.16,74.23-155.22c-10.37,14.67-58.93,122.21-64.74,183.04c-0.99,10.34,8.03,25.17,16.55,28.85
						c8.52,3.67,13.86-0.48,17.39-5.81c3.54-5.33,17.74-55.69,22.44-54.67c4.7,1.02-3.9,49.36-4.71,59.42
						c-0.8,10.07,3.75,21.47,11.53,24.02C624.81,352.42,640.07,348.54,651.5,327.09z"/>
					<path class="st51" d="M640,100.39c29.18,7.82,33.96,142.6,13.07,220.81c-0.4,1.48-0.73,3.01-1.04,4.55
						c2.75-6.86,5.33-14.65,7.69-23.5c20.89-78.22,28.96-209.24-0.23-217.06c-7.62-2.04-17.63,4.29-28.64,16.14
						C634.17,100.02,637.24,99.65,640,100.39z"/>
					<path class="st51" d="M610.12,260.73c0,0,19.63-64.13,24.53-105.47s-35.37,64.02-44.48,97.87c-9.1,33.86-3.9,38.82-1.25,39.46
						C591.57,293.23,597.23,295.51,610.12,260.73z"/>
				</g>
				<circle class="st51" cx="543.86" cy="504.85" r="20.23"/>
			</g>
		</g>
		<g>
			<g>
				<g>
					<path class="st50" d="M713.08,341.17c-4.86,8.45-9.66,15.69-14.37,21.86c-28.37,37.19-53.82,35.27-76.26,22.32
						c-26.17-15.11-49.13-40-11.87-104.54c26.31-45.57,74.3-101.39,111.87-130.72c0,0,0,0,0-0.01
						c20.23-15.79,37.43-23.92,46.59-18.63C795.21,146.55,753.5,271.03,713.08,341.17z"/>
					<path class="st10" d="M698.71,363.03c-28.37,37.19-53.82,35.27-76.26,22.32c-26.17-15.11-49.13-40-11.87-104.54
						c26.31-45.57,74.3-101.39,111.87-130.72c-13.81,11.48-88.55,102.8-109.91,160.05c-3.63,9.73,1.25,26.39,8.52,32.15
						c7.28,5.75,13.51,3.13,18.3-1.11c4.8-4.23,31.55-49.2,35.83-47c4.28,2.21-16.54,46.67-19.93,56.18
						c-3.37,9.52-1.93,21.71,4.92,26.18C666.38,380.58,682.12,380.79,698.71,363.03z"/>
					<path class="st51" d="M746.29,141.08c26.17,15.11-4.11,146.52-44.53,216.67c-0.77,1.33-1.49,2.72-2.18,4.13
						c4.43-5.91,8.94-12.77,13.51-20.71c40.42-70.15,82.12-194.62,55.96-209.72c-6.83-3.94-18.13-0.42-31.84,8.18
						C740.75,139.21,743.81,139.65,746.29,141.08z"/>
					<path class="st51" d="M675.93,288.22c0,0,35.56-56.86,51-95.53s-50.74,52.68-68.29,83.02c-17.56,30.35-13.81,36.49-11.42,37.79
						C649.6,314.81,654.47,318.48,675.93,288.22z"/>
				</g>
				<circle class="st51" cx="548.74" cy="506.87" r="20.23"/>
			</g>
		</g>
		<g>
			<g>
				<g>
					<path class="st50" d="M754.56,392.57c-6.88,6.9-13.39,12.66-19.53,17.39c-37.03,28.58-61.12,20.14-79.44,1.82
						c-21.36-21.36-37.11-51.35,15.59-104.05c37.21-37.21,98.01-78.7,141.89-97.31c0,0,0,0,0.01-0.01
						c23.63-10.02,42.35-13.41,49.82-5.94C884.25,225.84,811.75,335.27,754.56,392.57z"/>
					<path class="st10" d="M735.02,409.96c-37.03,28.58-61.12,20.14-79.44,1.82c-21.36-21.36-37.11-51.35,15.59-104.05
						c37.21-37.21,98.01-78.7,141.89-97.31c-16.31,7.52-112.14,76.37-147.59,126.15c-6.02,8.46-5.63,25.81-0.09,33.26
						c5.54,7.44,12.24,6.52,17.97,3.67c5.73-2.84,43.21-39.36,46.77-36.12c3.56,3.24-28.06,40.8-33.79,49.1
						c-5.72,8.32-7.49,20.47-2.03,26.56C699.25,418.55,714.4,422.82,735.02,409.96z"/>
					<path class="st51" d="M838.42,207.89c21.36,21.36-41.89,140.47-99.09,197.76c-1.08,1.09-2.14,2.24-3.18,3.42
						c5.81-4.56,11.94-10.02,18.4-16.5c57.2-57.29,129.7-166.73,108.33-188.09c-5.57-5.57-17.41-5.1-32.87-0.34
						C833.55,204.65,836.4,205.87,838.42,207.89z"/>
					<path class="st51" d="M732.37,331.81c0,0,49.07-45.72,73.98-79.07c24.92-33.36-62.64,37.75-87.45,62.52
						c-24.81,24.77-22.78,31.67-20.81,33.54C700.06,350.67,703.81,355.48,732.37,331.81z"/>
				</g>
				<circle class="st51" cx="552.93" cy="510.08" r="20.23"/>
			</g>
		</g>
		<g>
			<g>
				<g>
					<path class="st50" d="M781.32,452.95c-8.44,4.88-16.21,8.76-23.37,11.74c-43.17,18.02-64.25,3.64-77.2-18.8
						c-15.11-26.17-22.55-59.21,41.99-96.47c45.57-26.31,115.04-50.65,162.24-57.27c0,0,0,0,0.01,0c25.42-3.56,44.38-2,49.66,7.16
						C949.75,325.47,851.39,412.41,781.32,452.95z"/>
					<path class="st10" d="M757.95,464.69c-43.17,18.02-64.25,3.64-77.2-18.8c-15.11-26.17-22.55-59.21,41.99-96.47
						c45.57-26.31,115.04-50.65,162.24-57.27c-17.7,3.04-128.09,44.75-175.21,83.65c-8.01,6.61-12.11,23.48-8.69,32.1
						c3.43,8.62,10.14,9.46,16.4,8.19c6.27-1.26,51.92-26.84,54.52-22.79c2.6,4.05-37.66,32.15-45.34,38.69
						c-7.68,6.55-12.53,17.83-8.83,25.13C721.17,463.73,734.7,471.78,757.95,464.69z"/>
					<path class="st51" d="M910.12,296.26c15.11,26.17-76.82,124.84-146.89,165.38c-1.33,0.77-2.65,1.61-3.96,2.48
						c6.8-2.9,14.13-6.59,22.05-11.18c70.08-40.54,168.43-127.48,153.32-153.65c-3.94-6.83-15.5-9.43-31.66-8.84
						C906.26,291.88,908.69,293.79,910.12,296.26z"/>
					<path class="st51" d="M775.62,388.51c0,0,59.23-31.46,91.93-57.23s-70.28,20.25-100.65,37.76
						c-30.38,17.5-30.2,24.69-28.79,27.01C739.52,398.37,741.9,403.99,775.62,388.51z"/>
				</g>
				<circle class="st51" cx="556.15" cy="514.27" r="20.23"/>
			</g>
		</g>
		<g>
			<g>
				<g>
					<path class="st50" d="M791.54,518.19c-9.41,2.53-17.92,4.27-25.61,5.29c-46.36,6.23-63-13.12-69.71-38.14
						c-7.82-29.18-6.46-63.03,65.52-82.31c50.82-13.62,124.23-19.15,171.54-13.33c0,0,0,0,0.01,0c25.47,3.14,43.38,9.56,46.12,19.77
						C987.22,438.65,869.72,497.17,791.54,518.19z"/>
					<path class="st10" d="M765.93,523.49c-46.36,6.23-63-13.12-69.71-38.14c-7.82-29.18-6.46-63.03,65.52-82.31
						c50.82-13.62,124.23-19.15,171.54-13.33c-17.88-1.65-135.3,10.07-190.89,35.45c-9.45,4.31-17.78,19.54-16.71,28.76
						c1.08,9.21,7.34,11.77,13.73,12.16c6.39,0.4,57.1-12.48,58.56-7.9c1.46,4.59-44.7,21.3-53.81,25.63
						c-9.12,4.34-16.72,13.98-15.04,21.99C730.65,513.04,741.63,524.32,765.93,523.49z"/>
					<path class="st51" d="M956.5,400.19c7.82,29.18-106.51,100.71-184.69,121.72c-1.48,0.4-2.97,0.87-4.46,1.37
						c7.32-1.05,15.35-2.71,24.19-5.09c78.18-21.02,195.68-79.54,187.86-108.73c-2.04-7.62-12.53-13.12-28.3-16.73
						C953.91,394.95,955.77,397.43,956.5,400.19z"/>
					<path class="st51" d="M802.71,454.48c0,0,65.35-15.06,103.61-31.49c38.26-16.43-73.13,1.37-107,10.42s-35.56,16.03-34.8,18.64
						C765.29,454.66,766.14,460.7,802.71,454.48z"/>
				</g>
				<circle class="st51" cx="558.17" cy="519.15" r="20.23"/>
			</g>
		</g>
		<g>
			<g>
				<g>
					<path class="st50" d="M784.53,583.87c-9.75,0.01-18.42-0.52-26.11-1.51c-46.39-5.98-57.46-28.97-57.46-54.89
						c0-30.21,10.07-62.55,84.6-62.55c52.62,0,124.96,13.66,169.14,31.52c0,0,0,0,0.01,0c23.79,9.63,39.43,20.46,39.43,31.03
						C994.13,557.68,865.48,583.8,784.53,583.87z"/>
					<path class="st10" d="M758.41,582.35c-46.39-5.98-57.46-28.97-57.46-54.89c0-30.21,10.07-62.55,84.6-62.55
						c52.62,0,124.96,13.66,169.14,31.52c-16.85-6.22-133.3-25.29-193.56-15.16c-10.24,1.72-22.23,14.27-23.58,23.45
						c-1.34,9.18,4.05,13.27,10.11,15.3c6.06,2.04,58.38,2.72,58.61,7.53s-48.69,9.01-58.61,10.83
						c-9.93,1.84-19.77,9.18-20.21,17.35C727.04,563.13,734.74,576.87,758.41,582.35z"/>
					<path class="st51" d="M974.41,512.58c0,30.21-128.95,69.71-209.9,69.78c-1.53,0-3.09,0.07-4.67,0.17
						c7.34,0.88,15.53,1.35,24.68,1.34c80.96-0.07,209.6-26.19,209.6-56.4c0-7.88-8.7-15.91-23-23.48
						C973.26,506.85,974.41,509.72,974.41,512.58z"/>
					<path class="st51" d="M811.8,525.21c0,0,67.02,2.37,108.23-3.6c41.21-5.97-70.99-17.6-106.05-17.63s-38.5,6.28-38.44,9
						C775.61,515.7,774.87,521.76,811.8,525.21z"/>
				</g>
				<circle class="st51" cx="558.86" cy="524.39" r="20.23"/>
			</g>
		</g>
		<g>
			<g>
				<g>
					<path class="st50" d="M760.75,645.48c-9.42-2.51-17.66-5.27-24.83-8.22c-43.27-17.78-48-42.86-41.3-67.89
						c7.82-29.18,25.92-57.81,97.9-38.52c50.82,13.62,117.16,45.53,155.22,74.23c0,0,0,0,0.01,0
						c20.49,15.46,32.79,29.97,30.05,40.18C969.99,674.44,838.97,666.37,760.75,645.48z"/>
					<path class="st10" d="M735.92,637.26c-43.27-17.78-48-42.86-41.3-67.89c7.82-29.18,25.92-57.81,97.9-38.52
						c50.82,13.62,117.16,45.53,155.22,74.23c-14.67-10.37-122.21-58.93-183.04-64.74c-10.34-0.99-25.17,8.03-28.85,16.55
						c-3.67,8.52,0.48,13.86,5.81,17.39c5.33,3.54,55.69,17.74,54.67,22.44c-1.02,4.7-49.36-3.9-59.42-4.71
						c-10.07-0.8-21.47,3.75-24.02,11.53C710.6,610.58,714.47,625.83,735.92,637.26z"/>
					<path class="st51" d="M962.62,625.77c-7.82,29.18-142.59,33.96-220.81,13.07c-1.48-0.4-3.01-0.73-4.55-1.04
						c6.86,2.75,14.65,5.33,23.5,7.69c78.22,20.89,209.24,28.96,217.06-0.23c2.04-7.62-4.29-17.63-16.14-28.64
						C962.99,619.94,963.36,623.01,962.62,625.77z"/>
					<path class="st51" d="M802.28,595.89c0,0,64.13,19.63,105.47,24.53c41.35,4.9-64.02-35.37-97.87-44.48s-38.82-3.9-39.46-1.25
						C769.79,577.34,767.5,582.99,802.28,595.89z"/>
				</g>
				<circle class="st51" cx="558.17" cy="529.63" r="20.23"/>
			</g>
		</g>
		<g>
			<g>
				<g>
					<path class="st50" d="M721.84,698.85c-8.45-4.86-15.69-9.66-21.86-14.37c-37.19-28.37-35.27-53.82-22.32-76.26
						c15.11-26.17,40-49.13,104.54-11.87c45.57,26.31,101.39,74.3,130.72,111.87c0,0,0,0,0.01,0
						c15.79,20.23,23.92,37.43,18.63,46.59C916.46,780.97,791.99,739.27,721.84,698.85z"/>
					<path class="st10" d="M699.99,684.48c-37.19-28.37-35.27-53.82-22.32-76.26c15.11-26.17,40-49.13,104.54-11.87
						c45.57,26.31,101.39,74.3,130.72,111.87c-11.48-13.81-102.8-88.55-160.05-109.91c-9.73-3.63-26.39,1.25-32.15,8.52
						c-5.75,7.28-3.13,13.51,1.11,18.3c4.23,4.8,49.2,31.55,47,35.83c-2.21,4.28-46.67-16.54-56.18-19.93
						c-9.52-3.37-21.71-1.93-26.18,4.92C682.43,652.15,682.22,667.89,699.99,684.48z"/>
					<path class="st51" d="M921.93,732.05c-15.11,26.17-146.52-4.11-216.67-44.53c-1.33-0.77-2.72-1.49-4.13-2.18
						c5.91,4.43,12.77,8.94,20.71,13.51c70.15,40.42,194.62,82.12,209.72,55.96c3.94-6.83,0.42-18.13-8.18-31.84
						C923.8,726.52,923.36,729.58,921.93,732.05z"/>
					<path class="st51" d="M774.79,661.69c0,0,56.86,35.56,95.53,51s-52.68-50.74-83.02-68.29s-36.49-13.81-37.79-11.42
						S744.53,640.23,774.79,661.69z"/>
				</g>
				<circle class="st51" cx="556.15" cy="534.51" r="20.23"/>
			</g>
		</g>
		<g>
			<g>
				<g>
					<path class="st50" d="M670.45,740.32c-6.9-6.88-12.66-13.39-17.39-19.53c-28.58-37.03-20.14-61.12-1.82-79.44
						c21.36-21.36,51.35-37.11,104.05,15.59c37.21,37.21,78.7,98.01,97.31,141.89c0,0,0,0,0.01,0.01
						c10.02,23.63,13.41,42.35,5.94,49.82C837.18,870.02,727.74,797.52,670.45,740.32z"/>
					<path class="st10" d="M653.05,720.79c-28.58-37.03-20.14-61.12-1.82-79.44c21.36-21.36,51.35-37.11,104.05,15.59
						c37.21,37.21,78.7,98.01,97.31,141.89c-7.52-16.31-76.37-112.14-126.15-147.59c-8.46-6.02-25.81-5.63-33.26-0.09
						c-7.44,5.54-6.52,12.24-3.67,17.97c2.84,5.73,39.36,43.21,36.12,46.77c-3.24,3.56-40.8-28.06-49.1-33.79
						c-8.32-5.72-20.47-7.49-26.56-2.03C644.46,685.02,640.19,700.17,653.05,720.79z"/>
					<path class="st51" d="M855.13,824.18c-21.36,21.36-140.47-41.89-197.76-99.09c-1.09-1.08-2.24-2.14-3.42-3.18
						c4.56,5.81,10.02,11.94,16.5,18.4c57.29,57.2,166.73,129.7,188.09,108.33c5.57-5.57,5.1-17.41,0.34-32.87
						C858.36,819.32,857.14,822.17,855.13,824.18z"/>
					<path class="st51" d="M731.21,718.14c0,0,45.72,49.07,79.07,73.98c33.36,24.92-37.75-62.64-62.52-87.45
						c-24.77-24.81-31.67-22.78-33.54-20.81S707.54,689.58,731.21,718.14z"/>
				</g>
				<circle class="st51" cx="552.93" cy="538.7" r="20.23"/>
			</g>
		</g>
		<g>
			<g>
				<g>
					<path class="st50" d="M610.07,767.08c-4.88-8.44-8.76-16.21-11.74-23.37c-18.02-43.17-3.64-64.25,18.8-77.2
						c26.17-15.11,59.21-22.55,96.47,41.99c26.31,45.57,50.65,115.04,57.27,162.24c0,0,0,0,0,0.01c3.56,25.42,2,44.38-7.16,49.66
						C737.55,935.51,650.61,837.16,610.07,767.08z"/>
					<path class="st10" d="M598.32,743.71c-18.02-43.17-3.64-64.25,18.8-77.2c26.17-15.11,59.21-22.55,96.47,41.99
						c26.31,45.57,50.65,115.04,57.27,162.24c-3.04-17.7-44.75-128.09-83.65-175.21c-6.61-8.01-23.48-12.11-32.1-8.69
						c-8.62,3.43-9.46,10.14-8.19,16.4c1.26,6.27,26.84,51.92,22.79,54.52c-4.05,2.6-32.15-37.66-38.69-45.34
						c-6.55-7.68-17.83-12.53-25.13-8.83C599.28,706.94,591.23,720.47,598.32,743.71z"/>
					<path class="st51" d="M766.75,895.89c-26.17,15.11-124.84-76.82-165.38-146.89c-0.77-1.33-1.61-2.65-2.48-3.96
						c2.9,6.8,6.59,14.13,11.18,22.05c40.54,70.08,127.48,168.43,153.65,153.32c6.83-3.94,9.43-15.5,8.84-31.66
						C771.14,892.03,769.22,894.46,766.75,895.89z"/>
					<path class="st51" d="M674.5,761.38c0,0,31.46,59.23,57.23,91.93s-20.25-70.28-37.76-100.65
						c-17.5-30.38-24.69-30.2-27.01-28.79S659.03,727.67,674.5,761.38z"/>
				</g>
				<circle class="st51" cx="548.74" cy="541.91" r="20.23"/>
			</g>
		</g>
		<g>
			<g>
				<g>
					<path class="st50" d="M544.82,777.31c-2.53-9.41-4.27-17.92-5.29-25.61c-6.23-46.36,13.12-63,38.14-69.71
						c29.18-7.82,63.03-6.46,82.31,65.52c13.62,50.82,19.15,124.23,13.33,171.54c0,0,0,0,0,0.01c-3.14,25.47-9.56,43.38-19.77,46.12
						C624.36,972.99,565.84,855.49,544.82,777.31z"/>
					<path class="st10" d="M539.52,751.69c-6.23-46.36,13.12-63,38.14-69.71c29.18-7.82,63.03-6.46,82.31,65.52
						c13.62,50.82,19.15,124.23,13.33,171.54c1.65-17.88-10.07-135.3-35.45-190.89c-4.31-9.45-19.54-17.78-28.76-16.71
						c-9.21,1.08-11.77,7.34-12.16,13.73c-0.4,6.39,12.48,57.1,7.9,58.56c-4.59,1.46-21.3-44.7-25.63-53.81
						c-4.34-9.12-13.98-16.72-21.99-15.04C549.97,716.42,538.69,727.4,539.52,751.69z"/>
					<path class="st51" d="M662.83,942.27c-29.18,7.82-100.71-106.51-121.72-184.69c-0.4-1.48-0.87-2.97-1.37-4.46
						c1.05,7.32,2.71,15.35,5.09,24.19c21.02,78.18,79.54,195.68,108.73,187.86c7.62-2.04,13.12-12.53,16.73-28.3
						C668.06,939.68,665.58,941.53,662.83,942.27z"/>
					<path class="st51" d="M608.53,788.47c0,0,15.06,65.35,31.49,103.61c16.43,38.26-1.37-73.13-10.42-107
						c-9.04-33.87-16.03-35.56-18.64-34.8C608.35,751.06,602.31,751.9,608.53,788.47z"/>
				</g>
				<circle class="st51" cx="543.86" cy="543.93" r="20.23"/>
			</g>
		</g>
		<g>
			<g>
				<g>
					<path class="st50" d="M479.15,770.29c-0.01-9.75,0.52-18.42,1.51-26.11c5.98-46.39,28.97-57.46,54.89-57.46
						c30.21,0,62.55,10.07,62.55,84.59c0,52.62-13.66,124.96-31.52,169.14c0,0,0,0,0,0.01c-9.63,23.79-20.46,39.43-31.03,39.43
						C505.33,979.9,479.22,851.25,479.15,770.29z"/>
					<path class="st10" d="M480.66,744.18c5.98-46.39,28.97-57.46,54.89-57.46c30.21,0,62.55,10.07,62.55,84.59
						c0,52.62-13.66,124.96-31.52,169.14c6.22-16.85,25.29-133.3,15.16-193.56c-1.72-10.24-14.27-22.23-23.45-23.58
						c-9.18-1.34-13.27,4.05-15.3,10.11c-2.04,6.06-2.72,58.38-7.53,58.61s-9.01-48.69-10.83-58.61
						c-1.84-9.93-9.18-19.77-17.35-20.21C499.88,712.81,486.15,720.5,480.66,744.18z"/>
					<path class="st51" d="M550.44,960.18c-30.21,0-69.71-128.95-69.78-209.9c0-1.53-0.07-3.09-0.17-4.67
						c-0.88,7.34-1.35,15.53-1.34,24.68c0.07,80.96,26.19,209.6,56.4,209.6c7.88,0,15.91-8.7,23.48-23
						C556.17,959.03,553.29,960.18,550.44,960.18z"/>
					<path class="st51" d="M537.8,797.57c0,0-2.37,67.02,3.6,108.23c5.97,41.21,17.6-70.99,17.63-106.05
						c0.03-35.06-6.28-38.5-9-38.44C547.31,761.38,541.26,760.64,537.8,797.57z"/>
				</g>
				<circle class="st51" cx="538.62" cy="544.62" r="20.23"/>
			</g>
		</g>
		<g>
			<g>
				<g>
					<path class="st50" d="M417.53,746.52c2.51-9.42,5.27-17.66,8.22-24.83c17.78-43.27,42.86-48,67.89-41.3
						c29.18,7.82,57.81,25.92,38.52,97.9c-13.62,50.82-45.53,117.16-74.23,155.22c0,0,0,0,0,0.01
						c-15.46,20.49-29.97,32.79-40.18,30.05C388.58,955.76,396.64,824.74,417.53,746.52z"/>
					<path class="st10" d="M425.75,721.69c17.78-43.27,42.86-48,67.89-41.3c29.18,7.82,57.81,25.92,38.52,97.9
						c-13.62,50.82-45.53,117.16-74.23,155.22c10.37-14.67,58.93-122.21,64.74-183.04c0.99-10.34-8.03-25.17-16.55-28.85
						c-8.52-3.67-13.86,0.48-17.39,5.81c-3.54,5.33-17.74,55.69-22.44,54.67c-4.7-1.02,3.9-49.36,4.71-59.42
						c0.8-10.07-3.75-21.47-11.53-24.02C452.44,696.36,437.18,700.24,425.75,721.69z"/>
					<path class="st51" d="M437.25,948.39c-29.18-7.82-33.96-142.6-13.07-220.81c0.4-1.48,0.73-3.01,1.04-4.55
						c-2.75,6.86-5.33,14.65-7.69,23.5c-20.89,78.22-28.96,209.24,0.23,217.06c7.62,2.04,17.63-4.29,28.64-16.14
						C443.08,948.76,440,949.13,437.25,948.39z"/>
					<path class="st51" d="M467.12,788.05c0,0-19.63,64.13-24.53,105.47c-4.9,41.35,35.37-64.02,44.48-97.87
						c9.1-33.86,3.9-38.82,1.25-39.46S480.02,753.27,467.12,788.05z"/>
				</g>
				<circle class="st51" cx="533.39" cy="543.93" r="20.23"/>
			</g>
		</g>
		<g>
			<g>
				<g>
					<path class="st50" d="M364.17,707.61c4.86-8.45,9.66-15.69,14.37-21.86c28.37-37.19,53.82-35.27,76.26-22.32
						c26.17,15.11,49.13,40,11.87,104.54c-26.31,45.57-74.3,101.39-111.87,130.72c0,0,0,0,0,0.01
						c-20.23,15.79-37.43,23.92-46.59,18.63C282.04,902.23,323.75,777.75,364.17,707.61z"/>
					<path class="st10" d="M378.53,685.75c28.37-37.19,53.82-35.27,76.26-22.32c26.17,15.11,49.13,40,11.87,104.54
						c-26.31,45.57-74.3,101.39-111.87,130.72c13.81-11.48,88.55-102.8,109.91-160.05c3.63-9.73-1.25-26.39-8.52-32.15
						c-7.28-5.75-13.51-3.13-18.3,1.11c-4.8,4.23-31.55,49.2-35.83,47c-4.28-2.21,16.54-46.67,19.93-56.18
						c3.37-9.52,1.93-21.71-4.92-26.18C410.86,668.2,395.12,667.99,378.53,685.75z"/>
					<path class="st51" d="M330.96,907.7c-26.17-15.11,4.11-146.52,44.53-216.67c0.77-1.33,1.49-2.72,2.18-4.13
						c-4.43,5.91-8.94,12.77-13.51,20.71c-40.42,70.15-82.12,194.62-55.96,209.72c6.83,3.94,18.13,0.42,31.84-8.18
						C336.5,909.57,333.43,909.13,330.96,907.7z"/>
					<path class="st51" d="M401.32,760.56c0,0-35.56,56.86-51,95.53c-15.43,38.67,50.74-52.68,68.29-83.03
						c17.56-30.35,13.81-36.48,11.42-37.79S422.78,730.3,401.32,760.56z"/>
				</g>
				<circle class="st51" cx="528.51" cy="541.91" r="20.23"/>
			</g>
		</g>
		<g>
			<g>
				<g>
					<path class="st50" d="M322.69,656.21c6.88-6.9,13.39-12.66,19.53-17.39c37.03-28.58,61.12-20.14,79.44-1.82
						c21.36,21.36,37.11,51.35-15.59,104.05c-37.21,37.21-98.01,78.7-141.89,97.31c0,0,0,0-0.01,0.01
						c-23.63,10.02-42.35,13.41-49.82,5.94C192.99,822.94,265.49,713.51,322.69,656.21z"/>
					<path class="st10" d="M342.22,638.82c37.03-28.58,61.12-20.14,79.44-1.82c21.36,21.36,37.11,51.35-15.59,104.05
						c-37.21,37.21-98.01,78.7-141.89,97.31c16.31-7.52,112.14-76.37,147.59-126.15c6.02-8.46,5.63-25.81,0.09-33.26
						c-5.54-7.44-12.24-6.52-17.97-3.67c-5.73,2.84-43.21,39.36-46.77,36.12c-3.56-3.24,28.06-40.8,33.79-49.1
						c5.72-8.32,7.49-20.47,2.03-26.56C378,630.23,362.85,625.96,342.22,638.82z"/>
					<path class="st51" d="M238.83,840.89c-21.36-21.36,41.89-140.47,99.09-197.76c1.08-1.09,2.14-2.24,3.18-3.42
						c-5.81,4.56-11.94,10.02-18.4,16.5c-57.2,57.29-129.7,166.73-108.33,188.09c5.57,5.57,17.41,5.1,32.87,0.34
						C243.69,844.13,240.85,842.91,238.83,840.89z"/>
					<path class="st51" d="M344.87,716.97c0,0-49.07,45.72-73.98,79.07s62.64-37.75,87.45-62.52
						c24.81-24.77,22.78-31.67,20.81-33.54C377.19,698.11,373.43,693.3,344.87,716.97z"/>
				</g>
				<circle class="st51" cx="524.32" cy="538.7" r="20.23"/>
			</g>
		</g>
		<g>
			<g>
				<g>
					<path class="st50" d="M295.93,595.83c8.44-4.88,16.21-8.76,23.37-11.74c43.17-18.02,64.25-3.64,77.2,18.8
						c15.11,26.17,22.55,59.21-41.99,96.47c-45.57,26.31-115.04,50.65-162.24,57.27c0,0,0,0-0.01,0c-25.42,3.56-44.38,2-49.66-7.16
						C127.5,723.31,225.85,636.37,295.93,595.83z"/>
					<path class="st10" d="M319.3,584.09c43.17-18.02,64.25-3.64,77.2,18.8c15.11,26.17,22.55,59.21-41.99,96.47
						c-45.57,26.31-115.04,50.65-162.24,57.27c17.7-3.04,128.09-44.75,175.21-83.65c8.01-6.61,12.11-23.48,8.69-32.1
						c-3.43-8.62-10.14-9.46-16.4-8.19c-6.27,1.26-51.92,26.84-54.52,22.79c-2.6-4.05,37.66-32.15,45.34-38.69
						c7.68-6.55,12.53-17.83,8.83-25.13C356.08,585.05,342.55,577,319.3,584.09z"/>
					<path class="st51" d="M167.13,752.52c-15.11-26.17,76.82-124.84,146.89-165.38c1.33-0.77,2.65-1.61,3.96-2.48
						c-6.8,2.9-14.13,6.59-22.05,11.18c-70.08,40.54-168.43,127.48-153.32,153.65c3.94,6.83,15.5,9.43,31.66,8.84
						C170.99,756.9,168.55,754.99,167.13,752.52z"/>
					<path class="st51" d="M301.63,660.27c0,0-59.23,31.46-91.93,57.23s70.28-20.25,100.65-37.76s30.2-24.69,28.79-27.01
						S335.35,644.79,301.63,660.27z"/>
				</g>
				<circle class="st51" cx="521.1" cy="534.51" r="20.23"/>
			</g>
		</g>
		<g>
			<g>
				<g>
					<path class="st50" d="M285.71,530.59c9.41-2.53,17.92-4.27,25.61-5.29c46.36-6.23,63,13.12,69.71,38.14
						c7.82,29.18,6.46,63.03-65.52,82.31c-50.82,13.62-124.23,19.15-171.54,13.33c0,0,0,0-0.01,0
						c-25.47-3.14-43.38-9.56-46.12-19.77C90.02,610.13,207.53,551.61,285.71,530.59z"/>
					<path class="st10" d="M311.32,525.29c46.36-6.23,63,13.12,69.71,38.14c7.82,29.18,6.46,63.03-65.52,82.31
						c-50.82,13.62-124.23,19.15-171.54,13.33c17.88,1.65,135.3-10.07,190.89-35.45c9.45-4.31,17.78-19.54,16.71-28.76
						c-1.08-9.21-7.34-11.77-13.73-12.16c-6.39-0.4-57.1,12.48-58.56,7.9c-1.46-4.59,44.7-21.3,53.81-25.63
						c9.12-4.34,16.72-13.98,15.04-21.99C346.6,535.74,335.61,524.46,311.32,525.29z"/>
					<path class="st51" d="M120.74,648.59c-7.82-29.18,106.51-100.71,184.69-121.72c1.48-0.4,2.97-0.87,4.46-1.37
						c-7.32,1.05-15.35,2.71-24.19,5.09c-78.18,21.02-195.68,79.54-187.86,108.73c2.04,7.62,12.53,13.12,28.3,16.73
						C123.34,653.83,121.48,651.35,120.74,648.59z"/>
					<path class="st51" d="M274.54,594.3c0,0-65.35,15.06-103.61,31.49s73.13-1.37,107-10.42c33.87-9.04,35.56-16.03,34.8-18.64
						C311.96,594.12,311.11,588.08,274.54,594.3z"/>
				</g>
				<circle class="st51" cx="519.08" cy="529.63" r="20.23"/>
			</g>
		</g>
		<g>
			<g>
				<g>
					<path class="st50" d="M292.72,464.91c9.75-0.01,18.42,0.52,26.11,1.51c46.39,5.98,57.46,28.97,57.46,54.89
						c0,30.21-10.07,62.55-84.6,62.55c-52.62,0-124.96-13.66-169.14-31.52c0,0,0,0-0.01,0c-23.79-9.63-39.43-20.46-39.43-31.03
						C83.12,491.1,211.76,464.98,292.72,464.91z"/>
					<path class="st10" d="M318.83,466.43c46.39,5.98,57.46,28.97,57.46,54.89c0,30.21-10.07,62.55-84.6,62.55
						c-52.62,0-124.96-13.66-169.14-31.52c16.85,6.22,133.3,25.29,193.56,15.16c10.24-1.72,22.23-14.27,23.58-23.46
						c1.34-9.18-4.05-13.27-10.11-15.3c-6.06-2.04-58.38-2.72-58.61-7.53s48.69-9.01,58.61-10.83c9.93-1.84,19.77-9.18,20.21-17.35
						C350.2,485.65,342.51,471.91,318.83,466.43z"/>
					<path class="st51" d="M102.84,536.2c0-30.21,128.95-69.71,209.9-69.78c1.53,0,3.09-0.07,4.67-0.17
						c-7.34-0.88-15.53-1.35-24.68-1.34c-80.96,0.07-209.6,26.19-209.6,56.4c0,7.88,8.7,15.91,23,23.48
						C103.99,541.93,102.84,539.06,102.84,536.2z"/>
					<path class="st51" d="M265.44,523.57c0,0-67.02-2.37-108.23,3.6c-41.21,5.97,70.99,17.6,106.05,17.63s38.5-6.28,38.44-9
						S302.38,527.02,265.44,523.57z"/>
				</g>
				<circle class="st51" cx="518.39" cy="524.39" r="20.23"/>
			</g>
		</g>
		<g>
			<g>
				<g>
					<path class="st50" d="M316.49,403.3c9.42,2.51,17.66,5.27,24.83,8.22c43.27,17.78,48,42.86,41.3,67.89
						c-7.82,29.18-25.92,57.81-97.9,38.52c-50.82-13.62-117.16-45.53-155.22-74.23c0,0,0,0-0.01,0
						C109,428.24,96.7,413.73,99.43,403.53C107.25,374.34,238.28,382.41,316.49,403.3z"/>
					<path class="st10" d="M341.32,411.52c43.27,17.78,48,42.86,41.3,67.89c-7.82,29.18-25.92,57.81-97.9,38.52
						c-50.82-13.62-117.16-45.53-155.22-74.23c14.67,10.37,122.21,58.93,183.04,64.74c10.34,0.99,25.17-8.03,28.85-16.55
						c3.67-8.52-0.48-13.86-5.81-17.39c-5.33-3.54-55.69-17.74-54.67-22.44c1.02-4.7,49.36,3.9,59.42,4.71
						c10.07,0.8,21.47-3.75,24.02-11.53C366.65,438.2,362.78,422.95,341.32,411.52z"/>
					<path class="st51" d="M114.63,423.01c7.82-29.18,142.59-33.96,220.81-13.07c1.48,0.4,3.01,0.73,4.55,1.04
						c-6.86-2.75-14.65-5.33-23.5-7.69c-78.22-20.89-209.24-28.96-217.06,0.23c-2.04,7.62,4.29,17.63,16.14,28.64
						C114.26,428.84,113.89,425.77,114.63,423.01z"/>
					<path class="st51" d="M274.97,452.89c0,0-64.13-19.63-105.47-24.53s64.02,35.37,97.87,44.48c33.86,9.1,38.82,3.9,39.46,1.25
						S309.75,465.79,274.97,452.89z"/>
				</g>
				<circle class="st51" cx="519.08" cy="519.15" r="20.23"/>
			</g>
		</g>
		<g>
			<g>
				<g>
					<path class="st50" d="M355.4,349.93c8.45,4.86,15.69,9.66,21.86,14.37c37.19,28.37,35.27,53.82,22.32,76.26
						c-15.11,26.17-40,49.13-104.54,11.87c-45.57-26.31-101.39-74.3-130.72-111.87c0,0,0,0-0.01,0
						c-15.79-20.23-23.92-37.43-18.63-46.59C160.79,267.81,285.26,309.51,355.4,349.93z"/>
					<path class="st10" d="M377.26,364.3c37.19,28.37,35.27,53.82,22.32,76.26c-15.11,26.17-40,49.13-104.54,11.87
						c-45.57-26.31-101.39-74.3-130.72-111.87c11.48,13.81,102.8,88.55,160.05,109.91c9.73,3.63,26.39-1.25,32.15-8.52
						c5.75-7.28,3.13-13.51-1.11-18.3c-4.23-4.8-49.2-31.55-47-35.83c2.21-4.28,46.67,16.54,56.18,19.93
						c9.52,3.37,21.71,1.93,26.18-4.92C394.82,396.63,395.02,380.89,377.26,364.3z"/>
					<path class="st51" d="M155.31,316.73c15.11-26.17,146.52,4.11,216.67,44.53c1.33,0.77,2.72,1.49,4.13,2.18
						c-5.91-4.43-12.77-8.94-20.71-13.51c-70.15-40.42-194.62-82.12-209.72-55.96c-3.94,6.83-0.42,18.13,8.18,31.84
						C153.44,322.26,153.89,319.2,155.31,316.73z"/>
					<path class="st51" d="M302.45,387.09c0,0-56.86-35.56-95.53-51s52.68,50.74,83.02,68.29c30.35,17.56,36.49,13.81,37.79,11.42
						C329.04,413.42,332.71,408.55,302.45,387.09z"/>
				</g>
				<circle class="st51" cx="521.1" cy="514.27" r="20.23"/>
			</g>
		</g>
		<g>
			<g>
				<g>
					<path class="st50" d="M406.8,308.46c6.9,6.88,12.66,13.39,17.39,19.53c28.58,37.03,20.14,61.12,1.82,79.44
						c-21.36,21.36-51.35,37.11-104.05-15.59c-37.21-37.21-78.7-98.01-97.31-141.89c0,0,0,0-0.01-0.01
						c-10.02-23.63-13.41-42.35-5.94-49.82C240.07,178.76,349.51,251.26,406.8,308.46z"/>
					<path class="st10" d="M424.19,327.99c28.58,37.03,20.14,61.12,1.82,79.44c-21.36,21.36-51.35,37.11-104.05-15.59
						c-37.21-37.21-78.7-98.01-97.31-141.89c7.52,16.31,76.37,112.14,126.15,147.59c8.46,6.02,25.81,5.63,33.26,0.09
						c7.44-5.54,6.52-12.24,3.67-17.97c-2.84-5.73-39.36-43.21-36.12-46.77c3.24-3.56,40.8,28.06,49.1,33.79
						c8.32,5.72,20.47,7.49,26.56,2.03C432.78,363.76,437.06,348.61,424.19,327.99z"/>
					<path class="st51" d="M222.12,224.6c21.36-21.36,140.47,41.89,197.76,99.09c1.09,1.08,2.24,2.14,3.42,3.18
						c-4.56-5.81-10.02-11.94-16.5-18.4c-57.29-57.2-166.73-129.7-188.09-108.33c-5.57,5.57-5.1,17.41-0.34,32.87
						C218.88,229.46,220.1,226.61,222.12,224.6z"/>
					<path class="st51" d="M346.04,330.64c0,0-45.72-49.07-79.07-73.98c-33.36-24.92,37.75,62.64,62.52,87.45
						s31.67,22.78,33.54,20.81C364.9,362.96,369.71,359.2,346.04,330.64z"/>
				</g>
				<circle class="st51" cx="524.32" cy="510.08" r="20.23"/>
			</g>
		</g>
		<g>
			<g>
				<g>
					<path class="st50" d="M467.18,281.7c4.88,8.44,8.76,16.21,11.74,23.37c18.02,43.17,3.64,64.25-18.8,77.2
						c-26.17,15.11-59.21,22.55-96.47-41.99c-26.31-45.57-50.65-115.04-57.27-162.24c0,0,0,0,0-0.01c-3.56-25.42-2-44.38,7.16-49.66
						C339.7,113.27,426.64,211.62,467.18,281.7z"/>
					<path class="st10" d="M478.92,305.07c18.02,43.17,3.64,64.25-18.8,77.2c-26.17,15.11-59.21,22.55-96.47-41.99
						c-26.31-45.57-50.65-115.04-57.27-162.24c3.04,17.7,44.75,128.09,83.65,175.21c6.61,8.01,23.48,12.11,32.1,8.69
						c8.62-3.43,9.46-10.14,8.19-16.4c-1.26-6.27-26.84-51.92-22.79-54.52c4.05-2.6,32.15,37.66,38.69,45.34
						c6.55,7.68,17.83,12.53,25.13,8.83C477.96,341.84,486.01,328.31,478.92,305.07z"/>
					<path class="st51" d="M310.5,152.89c26.17-15.11,124.84,76.82,165.38,146.89c0.77,1.33,1.61,2.65,2.48,3.96
						c-2.9-6.8-6.59-14.13-11.18-22.05c-40.54-70.08-127.48-168.43-153.65-153.32c-6.83,3.94-9.43,15.5-8.84,31.66
						C306.11,156.75,308.03,154.32,310.5,152.89z"/>
					<path class="st51" d="M402.75,287.4c0,0-31.46-59.23-57.23-91.93c-25.77-32.7,20.25,70.28,37.76,100.65
						c17.5,30.38,24.69,30.2,27.01,28.79C412.61,323.49,418.22,321.11,402.75,287.4z"/>
				</g>
				<circle class="st51" cx="528.51" cy="506.87" r="20.23"/>
			</g>
		</g>
		<g>
			<g>
				<g>
					<path class="st50" d="M532.43,271.47c2.53,9.41,4.27,17.92,5.29,25.61c6.23,46.36-13.12,63-38.14,69.71
						c-29.18,7.82-63.03,6.46-82.31-65.52c-13.62-50.82-19.15-124.23-13.33-171.54c0,0,0,0,0-0.01
						c3.14-25.47,9.56-43.38,19.77-46.12C452.88,75.79,511.41,193.29,532.43,271.47z"/>
					<path class="st10" d="M537.72,297.09c6.23,46.36-13.12,63-38.14,69.71c-29.18,7.82-63.03,6.46-82.31-65.52
						c-13.62-50.82-19.15-124.23-13.33-171.54c-1.65,17.88,10.07,135.3,35.45,190.89c4.31,9.45,19.54,17.78,28.76,16.71
						c9.21-1.08,11.77-7.34,12.16-13.73c0.4-6.39-12.48-57.1-7.9-58.56c4.59-1.46,21.3,44.7,25.63,53.81
						c4.34,9.12,13.98,16.72,21.99,15.04C527.28,332.36,538.55,321.38,537.72,297.09z"/>
					<path class="st51" d="M414.42,106.51c29.18-7.82,100.71,106.51,121.72,184.69c0.4,1.48,0.87,2.97,1.37,4.46
						c-1.05-7.32-2.71-15.35-5.09-24.19C511.41,193.29,452.88,75.79,423.7,83.61c-7.62,2.04-13.12,12.53-16.73,28.3
						C409.19,109.1,411.66,107.25,414.42,106.51z"/>
					<path class="st51" d="M468.72,260.31c0,0-15.06-65.35-31.49-103.61c-16.43-38.26,1.37,73.13,10.42,107s16.03,35.56,18.64,34.8
						C468.89,297.72,474.94,296.88,468.72,260.31z"/>
				</g>
				<circle class="st51" cx="533.39" cy="504.85" r="20.23"/>
			</g>
		</g>
		<g>
			<g>
				<g>
					<path class="st50" d="M598.1,278.49c0.01,9.75-0.52,18.42-1.51,26.11c-5.98,46.39-28.97,57.46-54.89,57.46
						c-30.21,0-62.55-10.07-62.55-84.6c0-52.62,13.66-124.96,31.52-169.14c0,0,0,0,0-0.01c9.63-23.79,20.46-39.43,31.03-39.43
						C571.91,68.88,598.03,197.53,598.1,278.49z"/>
					<path class="st10" d="M596.58,304.6c-5.98,46.39-28.97,57.46-54.89,57.46c-30.21,0-62.55-10.07-62.55-84.6
						c0-52.62,13.66-124.96,31.52-169.14c-6.22,16.85-25.29,133.3-15.16,193.56c1.72,10.24,14.27,22.23,23.45,23.58
						c9.18,1.34,13.27-4.05,15.3-10.11c2.04-6.06,2.72-58.38,7.53-58.61c4.81-0.23,9.01,48.69,10.83,58.61
						c1.84,9.93,9.18,19.77,17.35,20.21C577.36,335.97,591.1,328.28,596.58,304.6z"/>
					<path class="st51" d="M526.81,88.6c30.21,0,69.71,128.95,69.78,209.9c0,1.53,0.07,3.09,0.17,4.67
						c0.88-7.34,1.35-15.53,1.34-24.68c-0.07-80.96-26.19-209.6-56.4-209.6c-7.88,0-15.91,8.7-23.48,23
						C521.08,89.75,523.95,88.6,526.81,88.6z"/>
					<path class="st51" d="M539.45,251.21c0,0,2.37-67.02-3.6-108.23s-17.6,70.99-17.63,106.05c-0.03,35.06,6.28,38.5,9,38.44
						C529.94,287.4,535.99,288.14,539.45,251.21z"/>
				</g>
				<circle class="st51" cx="538.62" cy="504.16" r="20.23"/>
			</g>
		</g>
	</g>
	<g>
		<circle class="st52" cx="540" cy="527.58" r="174.61"/>
		<circle class="st53" cx="540" cy="527.58" r="129.01"/>
		<circle class="st52" cx="540" cy="527.58" r="79.95"/>
		<path class="st54" d="M558.16,678.76c-96.43,0-174.61-78.17-174.61-174.61c0-34.94,10.27-67.48,27.94-94.77
			c-28.62,31.1-46.1,72.6-46.1,118.2c0,96.43,78.17,174.61,174.61,174.61c61.49,0,115.55-31.79,146.66-79.83
			C654.75,657.03,609,678.76,558.16,678.76z"/>
		<path class="st54" d="M546.44,591.53c-44.15,0-79.95-35.79-79.95-79.95c0-7.51,1.04-14.77,2.97-21.66
			c-6.01,11.22-9.41,24.04-9.41,37.66c0,44.15,35.79,79.95,79.95,79.95c36.65,0,67.53-24.66,76.97-58.28
			C603.51,574.41,576.98,591.53,546.44,591.53z"/>
		<path class="st55" d="M546.44,645.49c-71.25,0-129.01-57.76-129.01-129.01c0-21.26,5.15-41.32,14.25-59
			c-13.09,20.18-20.7,44.25-20.7,70.1c0,71.25,57.76,129.01,129.01,129.01c49.99,0,93.33-28.43,114.75-70.01
			C631.76,622.03,591.84,645.49,546.44,645.49z"/>
		
			<ellipse transform="matrix(0.4333 -0.9012 0.9012 0.4333 -121.6187 790.9147)" class="st56" cx="568.12" cy="492.17" rx="15.44" ry="23.52"/>
	</g>
</g>
</svg>
