<?xml version="1.0" encoding="utf-8"?>
<!-- Generator: Adobe Illustrator 26.0.3, SVG Export Plug-In . SVG Version: 6.00 Build 0)  -->
<svg version="1.1" id="Слой_1" xmlns="http://www.w3.org/2000/svg" xmlns:xlink="http://www.w3.org/1999/xlink" x="0px" y="0px"
	 viewBox="0 0 1080 1080" style="enable-background:new 0 0 1080 1080;" xml:space="preserve">
<style type="text/css">
	.st0{fill:url(#SVGID_1_);}
	.st1{fill:#B7004B;}
	.st2{fill:#E6007E;}
	.st3{fill:#99003B;}
	.st4{fill:#CC0062;}
	.st5{fill:#FF2CAF;}
	.st6{fill:#00E7FF;}
	.st7{fill:#00BDFF;}
	.st8{fill:#0096F2;}
	.st9{fill:#6CF8FF;}
	.st10{fill:none;}
	.st11{fill:url(#SVGID_00000177470425590422951290000009662422660300022190_);}
	.st12{fill:url(#SVGID_00000064311460875857291380000006650515790194897029_);}
	.st13{fill:url(#SVGID_00000028294890882132251700000002037920048123202743_);}
	.st14{fill:url(#SVGID_00000054987423876714592110000012537974768183472522_);}
	.st15{fill:url(#SVGID_00000141444986322750018270000000320871945570287285_);}
	.st16{fill:url(#SVGID_00000180363145851156573630000008451568586974375614_);}
	.st17{fill:url(#SVGID_00000114762481837446725460000010660477612429507984_);}
	.st18{fill:url(#SVGID_00000066481088762708563670000013411874982954493056_);}
	.st19{fill:url(#SVGID_00000085235483356527225300000002327128000927668889_);}
	.st20{fill:url(#SVGID_00000054233953576053230000000012651916352741814188_);}
	.st21{fill:url(#SVGID_00000073701042846134657410000011393323347941699990_);}
	.st22{fill:url(#SVGID_00000011001710439289173440000007342865348321471922_);}
</style>
<g>
	<linearGradient id="SVGID_1_" gradientUnits="userSpaceOnUse" x1="650.2213" y1="1727.9052" x2="630.8332" y2="-574.4353">
		<stop  offset="0" style="stop-color:#6DE5FF"/>
		<stop  offset="0.0213" style="stop-color:#73E6FF"/>
		<stop  offset="0.2427" style="stop-color:#B0EDFF"/>
		<stop  offset="0.4052" style="stop-color:#D6F2FF"/>
		<stop  offset="0.4904" style="stop-color:#E5F4FF"/>
		<stop  offset="0.5935" style="stop-color:#E8EAFA"/>
		<stop  offset="0.7712" style="stop-color:#F1CEEC"/>
		<stop  offset="1" style="stop-color:#FFA1D5"/>
	</linearGradient>
	<path class="st0" d="M927.04,955.13c-33.07-43.24-81.28-114-106.4-187.16c-13.67-39.85-20.53-80.39-14.32-117.57
		c1.68-9.97,4.28-19.67,7.92-29.09c24.23-62.52,82.04-97.24,138-90.64V251.3c-2.49-4.47-4.85-9.15-7.04-14.1
		c-28.08-63.3-27.3-125.4-34.97-192.36H528.27l-33.39,48.89c31.94,70.49,53.48,154.45,66.05,195.33
		c19.05,61.91,67.86,107.15,38.09,238.12c-11.28,49.72-35.01,90.52-63.09,122v0.03c-45.83,51.43-103.22,77.98-136.94,77.98
		c-21.87,0-45.85-7.52-71.8-17.82c0.97,10.3,2.04,21.24,3.21,32.61c30.59-1.12,33.86,11.56,42.36,30.53
		c8.93,19.96,43.49,131.61,80.63,180.11c21.95,28.67,56.35,50.97,89.6,72.86h409.25v-38.85
		C946.04,979.27,937.27,968.52,927.04,955.13z"/>
	<path class="st1" d="M453.39,952.63c-37.14-48.51-71.7-160.16-80.63-180.11c-8.5-18.98-11.77-31.65-42.36-30.53
		c1.03,10.02,2.13,20.36,3.31,30.94c4.37,39.14,9.75,81.22,16.13,119.74c8.87,53.68,19.64,100.51,32.23,122.93
		c1.94,3.47,3.93,6.73,5.95,9.9h154.97C509.74,1003.59,475.34,981.3,453.39,952.63z"/>
	<path class="st2" d="M333.13,928.8c3.24-20.64,16.71-36.15,16.71-36.15c-6.38-38.52-11.76-80.61-16.13-119.74
		c-1.18-10.57-2.28-20.92-3.31-30.94c-1.17-11.37-2.24-22.31-3.21-32.61c-1.18-0.47-2.37-0.95-3.55-1.43
		c1.8,19.06,3.94,40.22,6.4,62.32c-9.94,9.94-29.39,23.6-61.19,23.6c-49.99,0-85.23-22.36-138.43-42.23
		c-0.8-0.3-1.71-0.62-2.66-0.96v274.81h208.83C339.42,990.6,329.98,948.88,333.13,928.8z"/>
	<path class="st3" d="M268.85,793.86c31.8,0,51.25-13.66,61.19-23.6c-2.46-22.1-4.6-43.26-6.4-62.32
		c-32.44-13.09-67.91-30.13-106.14-42.07c-6.08-1.93-12.27-3.72-18.51-5.33c-17.36-4.49-42.35-7.46-71.23-9.56v99.71
		c0.95,0.33,1.86,0.66,2.66,0.96C183.63,771.5,218.87,793.86,268.85,793.86z"/>
	<path class="st2" d="M204.94,279.25c40.88,3.45,131.05,30.64,180.02,30.65c17.65,0,31.89-1.18,43.85-3.5
		c-12.66-10.87-18.71-25.78-14.23-39.08c6.51-19.34,32.84-27.93,58.8-19.18c4.51,1.52,8.69,3.49,12.52,5.76
		c0.17-8.12-0.76-16.65-2.36-24.36c-6.87-33.1-18.99-57.04-33.73-93.67c-9.2-22.87-22.34-54.54-50.31-91.02H127.76v166.41
		c3.1,3.61,5.28,7.74,6.32,12.32c1.97,8.73-0.52,17.77-6.32,26v38.77C156.87,282.24,186.9,277.73,204.94,279.25z"/>
	<path class="st2" d="M217.5,665.86c38.23,11.94,73.7,28.98,106.14,42.07c1.19,0.48,2.38,0.96,3.55,1.43
		c25.95,10.3,49.93,17.82,71.8,17.82c33.73,0,91.11-26.55,136.94-77.98v-0.03c0,0,21.68-80.73,25.72-94.62
		c4.04-13.89,5.84-38.64,0-53.58c-5.84-14.94-22.17-60.73-42.41-82.16c-18.71-19.81-129.92-39.94-173.62-48.21c0,0,0,0,0,0
		c15.11,5.28,12.51,14.97,10.26,22.5c-2.25,7.55-17.73,30.67-39.54,45.25c-1.21,0.83-2.46,1.63-3.72,2.38
		c-5.36,3.21-28.74,1.63-35.33-3.19c-19.05-13.96-36.51-38.98-42.06-50.01c-4.8-9.48-6.35-19.82-3.16-24.51
		c2.65-3.91,6.97-6.56,13.88-7.31c1.34-0.16,2.76-0.24,4.31-0.24c0.01,0,0.02,0,0.03,0c-43.62-6.24-92.64-12.83-122.53-16.3v272
		C165.14,633.95,217.5,665.86,217.5,665.86z"/>
	<path class="st2" d="M952.24,251.3V44.84h-42.01c7.68,66.96,6.9,129.06,34.97,192.36C947.39,242.15,949.75,246.83,952.24,251.3z"/>
	<path class="st1" d="M217.5,665.86c0,0-52.36-31.91-89.74-54.69v39.79c28.87,2.11,53.87,5.07,71.23,9.56
		C205.23,662.14,211.42,663.93,217.5,665.86z"/>
	<path class="st1" d="M494.88,93.73l33.39-48.89h-59C478.45,59.76,486.99,76.32,494.88,93.73z"/>
	<path class="st5" d="M345.63,370.61c43.7,8.26,154.91,28.39,173.62,48.21c20.23,21.43,36.56,67.22,42.41,82.16
		c5.84,14.94,4.04,39.69,0,53.58c-4.04,13.89-25.72,94.62-25.72,94.62c28.07-31.48,51.81-72.28,63.09-122
		c29.76-130.97-19.05-176.22-38.09-238.12c-12.58-40.88-34.12-124.83-66.05-195.33c-7.89-17.41-16.42-33.97-25.6-48.89h-69.78
		c27.97,36.49,41.11,68.15,50.31,91.02c14.74,36.63,26.86,60.57,33.73,93.67c1.6,7.71,2.52,16.25,2.36,24.36
		c18.22,10.82,28.07,29.11,22.69,45.09c-6.52,19.34-32.84,27.93-58.8,19.18c-8.11-2.73-15.22-6.83-20.98-11.77
		c-11.96,2.32-26.2,3.5-43.85,3.5c-48.97,0-139.14-27.19-180.02-30.65c-18.04-1.52-48.06,2.99-77.17,9.07v50.85
		c29.89,3.48,78.91,10.06,122.53,16.3C259.86,355.5,330.5,365.34,345.63,370.61z"/>
	<path class="st5" d="M349.84,892.66c0,0-13.47,15.51-16.71,36.15c-3.15,20.08,6.29,61.8,3.47,96.68h51.42
		c-2.02-3.17-4.01-6.43-5.95-9.9C369.47,993.17,358.7,946.34,349.84,892.66z"/>
	<path class="st1" d="M134.08,223.56c-1.03-4.58-3.22-8.71-6.32-12.32v38.31C133.56,241.33,136.05,232.29,134.08,223.56z"/>
	<path class="st1" d="M414.57,267.31c-4.48,13.3,1.57,28.22,14.23,39.08c5.75,4.94,12.87,9.04,20.98,11.77
		c25.96,8.75,52.29,0.16,58.8-19.18c5.38-15.98-4.47-34.27-22.69-45.09c-3.83-2.28-8.01-4.24-12.52-5.76
		C447.41,239.39,421.09,247.98,414.57,267.31z"/>
	<path class="st1" d="M250.26,355.48c-1.55,0-2.97,0.08-4.31,0.24l7.15,0.08c0,0-3.36,2.69-5.27,6.66
		c-1.88,3.96-1.67,11.04,2.08,18.75c3.78,7.74,21.82,33.38,25.9,37.8c4.07,4.45,14.29,15.78,25.29,19.35c4.34,1.41,15.24,0,15.24,0
		c21.81-14.57,37.29-37.69,39.54-45.25c2.25-7.53,4.85-17.23-10.26-22.5c0,0,0,0,0,0c-15.13-5.27-85.77-15.12-95.33-15.13
		C250.29,355.48,250.27,355.48,250.26,355.48z"/>
	<path class="st3" d="M301.11,438.36c-11-3.58-21.22-14.91-25.29-19.35c-4.07-4.42-22.12-30.06-25.9-37.8
		c-3.75-7.72-3.96-14.79-2.08-18.75c1.9-3.96,5.27-6.66,5.27-6.66l-7.15-0.08c-6.91,0.75-11.22,3.4-13.88,7.31
		c-3.19,4.69-1.63,15.03,3.16,24.51c5.55,11.04,23.01,36.06,42.06,50.01c6.59,4.82,29.98,6.4,35.33,3.19
		c1.26-0.75,2.52-1.55,3.72-2.38C316.35,438.36,305.44,439.77,301.11,438.36z"/>
	<path class="st6" d="M814.24,621.31c-3.63,9.42-6.24,19.12-7.92,29.09c0,0,41.8,93.57,72,132.11
		c19.34,24.68,46.84,50.26,73.92,69.9V623.68c-5.53,6.07-12.44,11.73-20.54,16.4c-27.71,16-58.4,14.73-68.54-2.84
		c-10.14-17.57,4.1-44.78,31.81-60.78c20.7-11.95,43.06-14.26,57.27-7.34v-38.45C896.27,524.06,838.46,558.79,814.24,621.31z"/>
	<path class="st7" d="M878.32,782.51c-30.2-38.54-72-132.11-72-132.11c-6.2,37.18,0.65,77.72,14.32,117.57
		c25.12,73.16,73.33,143.92,106.4,187.16c10.23,13.39,19,24.14,25.2,31.52V852.4C925.16,832.77,897.65,807.19,878.32,782.51z"/>
	<path class="st9" d="M894.96,576.46c-27.71,16-41.95,43.21-31.81,60.78c10.14,17.57,40.83,18.84,68.54,2.84
		c8.1-4.68,15.01-10.33,20.54-16.4v-54.56C938.02,562.2,915.66,564.51,894.96,576.46z"/>
</g>
</svg>
