<?xml version="1.0" encoding="utf-8"?>
<!-- Generator: Adobe Illustrator 26.0.3, SVG Export Plug-In . SVG Version: 6.00 Build 0)  -->
<svg version="1.1" id="Слой_1" xmlns="http://www.w3.org/2000/svg" xmlns:xlink="http://www.w3.org/1999/xlink" x="0px" y="0px"
	 viewBox="0 0 1080 1080" style="enable-background:new 0 0 1080 1080;" xml:space="preserve">
<style type="text/css">
	.st0{fill:url(#SVGID_1_);}
	.st1{fill:#FFBE55;}
	.st2{fill:#EA8B00;}
	.st3{fill:#D17200;}
	.st4{fill:#AA6900;}
	.st5{fill:#CC8D00;}
	.st6{fill:#9B5800;}
	.st7{fill:#E2A700;}
	.st8{fill:#FFD400;}
	.st9{fill:#E87400;}
	.st10{fill:#FF9700;}
	.st11{fill:#EDBF00;}
	.st12{fill:url(#SVGID_00000008872090467976613420000002476178870677931682_);}
	.st13{fill:#E8C600;}
	.st14{fill:#E0B500;}
	.st15{fill:none;}
</style>
<g>
	<linearGradient id="SVGID_1_" gradientUnits="userSpaceOnUse" x1="539.1111" y1="934.9968" x2="539.1111" y2="144.4638">
		<stop  offset="0.7029" style="stop-color:#C9FFFF"/>
		<stop  offset="1" style="stop-color:#96F5EB"/>
	</linearGradient>
	<path class="st0" d="M951.72,184.51v712.76c0,31.05-25.18,56.23-56.23,56.23H182.73c-31.05,0-56.23-25.18-56.23-56.23V184.51
		c0-31.05,25.18-56.23,56.23-56.23h712.76C926.54,128.28,951.72,153.46,951.72,184.51z"/>
	<path class="st1" d="M983.56,375.67c0,20,0,547.44,0,547.44c0,33.38-27.07,60.45-60.45,60.45H156.89
		c-33.38,0-60.45-27.07-60.45-60.45c0,0,0-494.11,0-550.11s103.44-63.92,127.23-66.67s45.34-8,84,0s79.9,53.84,101.33,61.34
		c26.67,9.33,78.78,1,100-2.67c21.27-3.67,73.33-6.67,94.67,4C625,379.67,673,431.67,705,437c27.74,4.62,88.01-23.99,114.67-43.33
		s60-30.23,73.55-33.78c13.56-3.56,33.29-7.25,57.11-5.78C975.44,355.67,983.56,367.08,983.56,375.67z"/>
	<path class="st2" d="M431.67,458.33c0,0,60.79-27.96,78.67-34.67c21.33-8,46.67-9.33,67.78,16.96
		c7.92,9.86,40.82,53.89,56.82,56.56c7.7,1.28,23.2-8.9,44.74-23.52c16.4-11.13,35.33-3.44,40,0
		C724.33,477.11,862.33,597,862.33,597H576.95l-145.28-84V458.33z"/>
	<path class="st3" d="M862.33,705l-642.66,62.67l-123.23-72c0,0,0-55.1,0-110.67V475.67c0-28.55,90.61-65.19,131.1-80.86l0.01-0.01
		c3-1.16,5.73-2.21,8.12-3.13C270.33,378.33,358.33,385,393,405s232,164,232,164L862.33,705z"/>
	<path class="st4" d="M983.56,527.67c0,13.33,0,188,0,188s-6.12,0.98-16.42,2.63c-0.01,0-0.01,0-0.02,0
		c-53.26,8.53-218.09,34.92-224.79,36.03c-8,1.34-492,13.34-492,13.34s156.73-115.16,252.21-184.33
		c38.08-27.59,66.42-47.86,71.19-50.59c16.72-9.57,50.93-12.42,65.94-3.75c13.72,7.92,46.66,28,61.33,25.33
		c14.67-2.66,70.67-57.33,94.67-70.66c24-13.34,92-13.34,121.33,0c6.35,2.89,13.07,5.96,19.7,9.14c5.13,2.46,10.21,4.98,15.02,7.53
		C969.43,509.72,983.56,519.45,983.56,527.67z"/>
	<path class="st4" d="M250.33,556.83l-55.18,33.97L96.44,585V475.67c0-28.55,90.61-65.19,131.1-80.86c0,0-65.65,41.46-78.54,64.86
		s-1.95,38.69,6.67,48.12c11.26,12.32,45.33,37.8,62.66,45.21C233.97,559.69,250.33,556.83,250.33,556.83z"/>
	<path class="st5" d="M632.18,698.18L445,719.67L187.67,597c0,0,40-36,90.67-50.67c50.67-14.67,82.84-7.35,112,0
		C419.49,553.69,515.72,585,549,597c33.28,12,76.13,45.82,76.13,45.82L632.18,698.18z"/>
	<path class="st6" d="M983.56,527.67c0,13.33,0,188,0,188s-6.12,0.98-16.42,2.63c-0.01,0-0.01,0-0.02,0l-20.79-9.3l-149.65-98.16
		c0,0,79.88,3.86,104.32-2.77s45-22.89,50.72-31.87s11.06-29.87,9.28-47.2c-1.78-17.33-24.3-36.19-24.3-36.19
		c5.13,2.46,10.21,4.98,15.02,7.53C969.43,509.72,983.56,519.45,983.56,527.67z"/>
	<path class="st7" d="M983.56,703.67v202.66l-309.23-28L543.67,691.67c0,0,88.89-59.16,132-71c32.78-9.01,60.69-12.65,85.34-12.6
		c4.61,0.01,9.11,0.15,13.5,0.4c0.01,0,0.01,0,0.01,0c7.68,0.45,15.04,1.26,22.14,2.37c0.01,0,0.02,0,0.02,0
		c7.92,1.24,15.52,2.85,22.87,4.76c0.01,0,0.02,0,0.02,0c15.07,3.91,29.1,9.05,42.76,14.73
		C910.33,650.28,983.56,703.67,983.56,703.67z"/>
	<path class="st8" d="M983.56,870.33v52.78c0,33.38-27.07,60.45-60.45,60.45H156.89c-33.38,0-60.45-27.07-60.45-60.45V585
		c0,0,67.92,0.81,133.96,7.01c28.97,2.72,57.57,6.48,79.93,11.66c73.34,17,362.67,102.66,445.34,138.66
		c48.89,21.29,119.66,62.17,169.33,92.02c0,0,0,0,0.01,0.01C959.32,854.98,983.56,870.33,983.56,870.33z"/>
	<path class="st3" d="M675.67,906.33c0,6-4.87,15.85-11.55,26.55l-0.01,0.01c-14.58,23.34-37.78,50.67-37.78,50.67H263.67l0.13-0.08
		c5.46-3.25,180.16-107.26,194.53-115.81c14.6-8.7,23.56-15.41,26.67-32c3.11-16.6-10.22-27.86-29.33-36
		C436.56,791.52,270.33,761,270.33,761s-66.37-12.44-73.33-41.33c-1.38-5.72-2.03-11.24-1.81-16.5
		c0.88-21.33,16.05-38.32,55.14-46.17c23.39-4.69,131.41-9.79,185.49-9.78c15.23,0.01,43.57,3.55,43.57,3.55l9.68,2.9l15.42,4.62
		c0,0-9.58,0.4-32.82,1.38c-23.25,0.97-96.45,10.07-128,22.66c-15.83,6.32-28.11,12.37-26.71,25.99c0.41,4.02,1.74,7.86,3.81,11.35
		l0.02,0.05c3.77,6.34,9.96,11.54,17.54,14.61c14.24,5.78,180.89,19.56,216,26.67c35.11,7.11,95.86,37.93,101.34,50.67
		c3.65,8.49,0.79,19.23-1.22,28.25l-0.01,0.02c-1,4.5-1.79,8.57-1.44,11.73C654.04,861.15,675.67,887.22,675.67,906.33z"/>
	<path class="st9" d="M828.11,678.78c-2.52,7.41-7.11,15.7-20,18.66c-12.89,2.97-42.67,5.78-42.67,5.78s-25.68,1.48-39.55,4
		c-13.87,2.52-32.44,11.55-32.44,11.55l-42.86-14.54c0,0,17.52-8.86,25.08-11.23c7.55-2.37,17.63-3.56,31.11-4
		c13.48-0.44,63.11,1.04,72.44,0c9.34-1.04,14.67-6.81,17.78-12.44s1.04-13.14-3.11-15.56c-4.15-2.42-35.99-11.16-44.45-13.78
		c-8.45-2.62-22.07-6.96-24.44-13.78c-2.37-6.81,3.56-10.51,7.11-12.77c3.56-2.26,28.9-12.6,28.9-12.6c4.61,0.01,9.11,0.15,13.5,0.4
		c-0.42,0.27-10.98,6.83-14.84,9.42c-3.95,2.64-9.63,9.78-6.23,14.22c3.41,4.45,17.63,10.71,22.67,12.89
		c5.04,2.18,29.48,7.26,40.45,10.22C827.52,658.19,830.63,671.37,828.11,678.78z"/>
	<circle class="st10" cx="718.36" cy="262.98" r="71.36"/>
	<path class="st11" d="M342.21,936.8l-78.54,46.76H156.89c-33.38,0-60.45-27.07-60.45-60.45V585c0,0,67.92,0.81,133.96,7.01
		l0.03,0.01c0,0-62.76,22.31-77.43,42.31s-37.33,49.34-14.67,133.34c15.6,57.83,68,101.34,100,120S342.21,936.8,342.21,936.8z"/>
	<path class="st11" d="M983.56,870.33v52.78c0,33.38-27.07,60.45-60.45,60.45H626.33l13.7-16.94c0,0,110.46,6.95,149.68,0
		s59.3-14.92,85.96-36.29s44-49.32,49.33-66.66s0-29.32,0-29.32s0,0,0.01,0.01C959.32,854.98,983.56,870.33,983.56,870.33z"/>
	<path class="st4" d="M485,835.67c0,0,1.56,8.45,0,16s-14.01,23.11-23.56,30.22S305,983.56,305,983.56h-41.33l0.13-0.08
		c5.46-3.25,180.16-107.26,194.53-115.81C472.93,858.97,481.89,852.26,485,835.67z"/>
	<path class="st4" d="M654.45,839.92l-0.01,0.02c0,0-5-12.5-7.44-17.61s-7.5-10.72-14.82-15.11s-44.74-27.56-65.85-32.89
		s-209.6-26.88-216.89-28.44s-15.55-4.67-20.44-9.78s-8.21-16.39-8.21-16.39c3.77,6.34,9.96,11.54,17.54,14.61
		c14.24,5.78,180.89,19.56,216,26.67c35.11,7.11,95.86,37.93,101.34,50.67C659.32,820.16,656.46,830.9,654.45,839.92z"/>
	<path class="st4" d="M489.11,653.67h-0.04c0,0-49.18-1.79-64.96-1.45s-145.99,7.84-160.44,11.2s-41.12,11.13-49.34,16.69
		s-19.14,23.06-19.14,23.06c0.88-21.33,16.05-38.32,55.14-46.17c23.39-4.69,131.41-9.79,185.49-9.78
		c15.23,0.01,43.57,3.55,43.57,3.55L489.11,653.67z"/>
	<path class="st4" d="M367.68,943.12c137.32,24.69,272.35,23.5,272.35,23.5l-13.7,16.94H305L367.68,943.12z"/>
</g>
</svg>
