<?xml version="1.0" encoding="utf-8"?>
<!-- Generator: Adobe Illustrator 26.0.3, SVG Export Plug-In . SVG Version: 6.00 Build 0)  -->
<svg version="1.1" id="Слой_1" xmlns="http://www.w3.org/2000/svg" xmlns:xlink="http://www.w3.org/1999/xlink" x="0px" y="0px"
	 viewBox="0 0 1080 1080" style="enable-background:new 0 0 1080 1080;" xml:space="preserve">
<style type="text/css">
	.st0{fill:#FFCB8D;}
	.st1{fill:#AF4F00;stroke:#7A2C00;stroke-width:5;stroke-miterlimit:10;}
	.st2{fill:#FFE8A6;}
	.st3{fill:#7A2C00;}
	.st4{fill:#301600;}
	.st5{fill:#FF9D4D;}
	.st6{fill:#913B00;}
	.st7{fill:#AF4F00;}
	.st8{fill:#441D00;}
	.st9{fill:#0F0600;}
	.st10{fill:#495154;}
	.st11{fill:#FFF0CA;}
	.st12{fill:#722E00;}
	.st13{fill:#FF8AD5;}
	.st14{fill:#FF64B5;}
	.st15{fill:#FF5FBE;}
	.st16{fill:#ED0061;}
	.st17{fill:#C60042;}
	.st18{fill:#FFB0EB;}
	.st19{fill:#CF85FF;}
	.st20{fill:#AA00F9;}
	.st21{fill:#160900;}
	.st22{fill:#626D7C;}
	.st23{fill:none;stroke:#E7AEFF;stroke-width:30;stroke-linecap:round;stroke-miterlimit:10;}
	.st24{fill:#0BAEFF;}
	.st25{fill:#007ACC;}
	.st26{fill:#0058C1;}
	.st27{fill:#22D5FF;}
	.st28{fill:#08D1FF;}
	.st29{fill:#282828;}
	.st30{fill:#636363;}
	.st31{fill:#48D8FF;}
	.st32{fill:#141414;}
	.st33{fill:#FFDA00;}
	.st34{fill:#FFB600;}
	.st35{fill:#FFA300;}
	.st36{fill:#FFE36E;}
	.st37{fill:none;stroke:#FFE36E;stroke-width:20;stroke-linecap:round;stroke-linejoin:round;stroke-miterlimit:10;}
	.st38{fill:#F44B00;}
	.st39{fill:#D82E00;}
	.st40{fill:#FF9312;}
	.st41{fill:#DD7300;}
	.st42{fill:none;stroke:#D35A00;stroke-width:8;stroke-linecap:round;stroke-miterlimit:10;}
	.st43{fill:#5B3A00;}
	.st44{fill:#472300;}
	.st45{fill:#D35A00;}
	.st46{fill:none;stroke:#FFB048;stroke-width:20;stroke-linecap:round;stroke-miterlimit:10;}
	.st47{fill:none;stroke:#FFB048;stroke-width:12;stroke-linecap:round;stroke-miterlimit:10;}
	.st48{fill:#00AD5A;}
	.st49{fill:#00F445;}
	.st50{fill:#00CC66;}
	.st51{fill:#00CC49;}
	.st52{fill:#1DFFEE;stroke:#00A58D;stroke-width:15;stroke-miterlimit:10;}
	.st53{fill:#203533;}
	.st54{fill:none;stroke:#5CFF68;stroke-width:20;stroke-linecap:round;stroke-miterlimit:10;}
	.st55{fill:#00D6D0;}
	.st56{fill:#00AAAA;}
	.st57{fill:#2CFFEA;}
	.st58{fill:#00E8D7;}
	.st59{fill:#00635E;}
	.st60{fill:#009388;}
	.st61{fill:none;stroke:#00AAAA;stroke-width:20;stroke-miterlimit:10;}
</style>
<g>
	<path class="st48" d="M666.2,775.82c-22.18,10.33-41.14,8.63-41.14,8.63s-8.65-19.98-5.83-41.81c5.2-40.19,38.66-80.88,64.13-93.36
		c21.37-10.47,48.65-14.22,48.65-14.22s4.54,29.7,0.67,49.92C727.56,711.66,703.84,758.28,666.2,775.82z"/>
	<path class="st49" d="M977.78,512.97c0,40.88-42.76,99.33-109.51,137.51c-88.05,50.35-272.23,84.17-400.5-8.43
		c-75.57-54.55-109.57-128.51-109.57-128.51s40.3-83.47,109.57-129.67c85.74-57.19,198.39-68.11,289.91-50.54
		c44.56,8.55,84.11,23.85,113.11,43.85c65.52,45.18,98.67,84.47,105.6,121.15C977.31,503.25,977.78,508.13,977.78,512.97z"/>
	<path class="st49" d="M451.31,484.74c0,0-41.61,27.84-91.52,30.42c-91.86,4.75-195.05-54.37-232.17-106.98
		c-31.15-44.14-49.4-104.45-49.4-104.45s16.4-5.7,38.65-11.3c0,0,0,0,0.01,0c21.98-5.54,49.67-10.98,72.88-10.75
		c61.58,0.62,174.51,35.19,227.37,113.32c4.6,6.8,8.58,13.54,12.03,20.1C449.1,452.98,451.31,484.74,451.31,484.74z"/>
	<path class="st49" d="M339.75,471.65c55.37-4.68,94.99,14.03,94.99,14.03s3.96,49.9-18.18,94.71
		C375.83,662.85,273.83,724,209.79,730.69c-53.74,5.61-115.27-7.93-115.27-7.93s12.04-67.59,35.26-108.09
		C160.4,561.23,245.75,479.59,339.75,471.65z"/>
	<path class="st49" d="M566.59,774.5c-24.46-0.5-40.74-10.38-40.74-10.38s1.04-21.75,13.19-40.1c22.37-33.78,70.34-55.57,98.7-55.55
		c23.8,0.02,49.94,8.67,49.94,8.67s-9.01,28.66-21.4,45.11C649.94,743.95,608.11,775.35,566.59,774.5z"/>
	<path class="st49" d="M747.41,338.91c0,0-17.71,11.85-38.96,12.95c-20.37,1.06-42.06-5.27-60.39-14.73
		c-3.44-1.78-6.76-3.66-9.93-5.63c-12.39-7.69-22.5-16.64-28.53-25.18c-0.01-0.02-0.02-0.03-0.03-0.05
		c-13.05-18.5-20.76-43.62-20.99-44.4c-0.01-0.01-0.01-0.02-0.01-0.02s27.61-9.59,47.48-9.39c26.22,0.26,74.31,14.98,96.81,48.24
		C746.11,320.3,747.41,338.91,747.41,338.91z"/>
	<path class="st49" d="M643.23,334.4c1.05,1.86,1.54,2.97,1.54,2.97s-11.59,14.69-29.36,21.51c-30.19,11.57-70.7,5.2-92.56-6.9
		c-1.83-1.02-3.54-2.07-5.09-3.16c-16.59-11.63-30.61-30.22-31.04-30.8c-0.01-0.01-0.01-0.01-0.01-0.01s20.69-15.58,37.68-20.95
		c18.91-5.96,54.11-7.78,82.06,4.51L643.23,334.4z"/>
	<path class="st49" d="M818.87,342.78c1.87,22.08-5.59,37.87-5.59,37.87s-19.9,1.58-37.76-7.25
		c-32.88-16.24-57.26-56.91-59.92-82.44c-2.24-21.42,3.16-45.96,3.16-45.96s26.95,4.8,43.09,14.06
		C783.16,271.28,815.7,305.3,818.87,342.78z"/>
	<g>
		<path class="st50" d="M977.78,513.15c-0.02,40.88-42.78,99.31-109.51,137.47c-67.97,38.88-193.23,67.89-305.83,36.5
			c-33.27-9.26-65.42-23.8-94.67-44.92c-22.4-16.17-41.15-34.05-56.43-51.19c-25.78,45.69-69.92,84.12-114.4,109.26l-0.02,0.01
			c-30.89,17.46-61.94,28.52-87.13,31.15c-53.74,5.61-115.27-7.94-115.27-7.94s3.66-20.56,10.84-45.79
			c-1.3,6.15-1.95,9.83-1.95,9.83s61.53,13.55,115.27,7.94c61.46-6.42,167.1-104.18,176.6-197.32
			c15.28,17.14,58.98,91.92,81.38,108.09c128.27,92.59,312.45,58.78,400.5,8.42C925.98,586.73,961.96,547.96,977.78,513.15z"/>
		<path class="st50" d="M256,498.48c11.98-8.64,24.7-16.64,38.01-23.58c-56.02-20.77-134.27-69.01-157.5-101.94
			c-17.09-24.21-30.29-53.28-38.73-74.6c-11.92,3.47-19.56,6.12-19.56,6.12s18.25,60.31,49.4,104.45
			C146.72,436,200.22,481.36,256,498.48z"/>
	</g>
	<path class="st50" d="M606.43,709.8c17.59,0.01,52.98-3.33,67.35,0c11.38-16.69,11.24-32.66,11.24-32.66s-23.47-8.65-47.27-8.67
		c-28.36-0.02-76.33,21.76-98.7,55.55c-3.59,5.42-6.2,11.13-8.11,16.49C554.9,721.28,585.83,709.79,606.43,709.8z"/>
	<path class="st51" d="M621.89,337.07c-58.92,4.59-95.67,15.6-95.67,15.6l-3.36-0.69c-1.83-1.02-3.54-2.07-5.09-3.16
		c-16.59-11.63-30.61-30.22-31.04-30.8c0.49,0.26,32.29,17.43,57.72,19.05C570.07,338.7,621.89,337.07,621.89,337.07z"/>
	<path class="st51" d="M720.01,335.35c-40.83,0-63.91,1.24-71.95,1.78l-4.82-2.73c-2.82-4.99-9.7-15.4-22.14-24.48
		c-4.53-3.31-9.46-6.07-14.64-8.35c-11.16-17.78-17.67-38.98-17.88-39.7c0.62,0.76,20.54,25.3,56.2,45.42
		C677.33,325.66,720.01,335.35,720.01,335.35z"/>
	<g>
		<circle class="st52" cx="784.94" cy="507.91" r="64.94"/>
		<circle class="st53" cx="784.94" cy="507.91" r="18.35"/>
	</g>
	<path class="st54" d="M869.33,422.85c0,0-49.71-38.41-93.82-49.44c-94.72-23.69-160.67-5.66-160.67-5.66"/>
	<path class="st54" d="M897.62,447.93c25.78,18.67,37.49,39.9,37.49,39.9"/>
	<path class="st54" d="M385.78,413.07c0,0-42.33-56.56-190.67-95.05"/>
	<path class="st50" d="M411.11,548.48c-9.55-15.07-20.92-24.1-15.84-50.32c5.42-27.97,21.17-46.86,21.17-46.86
		s29.98,62.15,61.33,92.44c34.49,33.33,110.8,85.33,176.51,100c42.94,9.58,70.45,18.34,137.64,4.83
		c67.18-13.51-24.82,31.17-24.82,31.17H592.85l-116.41-56.76C476.44,622.97,419.92,562.39,411.11,548.48z"/>
	<path class="st48" d="M562.43,687.12c-33.27-9.26-65.42-23.8-94.67-44.92c-22.4-16.17-41.15-34.05-56.43-51.19
		c0,0,6.38-34.89-4.22-66.64c0,0,39.43,67.91,62.38,91.1C509.33,655.73,562.43,687.12,562.43,687.12z"/>
	<path class="st48" d="M420,560.18l-8.67,30.83c-25.78,45.69-69.92,84.12-114.4,109.26c1.22-1.2,49.54-48.49,69.29-79.65
		c20-31.55,40.89-96.25,40.89-96.25L420,560.18z"/>
</g>
</svg>
