<?xml version="1.0" encoding="utf-8"?>
<!-- Generator: Adobe Illustrator 26.0.3, SVG Export Plug-In . SVG Version: 6.00 Build 0)  -->
<svg version="1.1" id="Слой_1" xmlns="http://www.w3.org/2000/svg" xmlns:xlink="http://www.w3.org/1999/xlink" x="0px" y="0px"
	 viewBox="0 0 1080 1080" style="enable-background:new 0 0 1080 1080;" xml:space="preserve">
<style type="text/css">
	.st0{fill:#FFEFAE;}
	.st1{fill:#FFD731;}
	.st2{fill:#005318;}
	.st3{fill:#002716;}
	.st4{fill:#FFDF69;}
	.st5{fill:#1EEF00;}
	.st6{fill:#00B700;}
	.st7{fill:#A4FF5C;}
	.st8{fill:#E7FFAB;}
	.st9{fill:#726D00;}
	.st10{fill:#FFEA8C;}
	.st11{fill:#FFFDE0;}
	.st12{fill:#FFEE1E;}
	.st13{fill:#FFF16E;}
	.st14{fill:#FFF5CC;}
	.st15{fill:#FFA91F;}
	.st16{fill:#FFCB4A;}
	.st17{fill:#FFEB97;}
	.st18{fill:#FF9017;}
	.st19{fill:#EA6F00;}
	.st20{fill:#A000E2;}
	.st21{fill:#BF36FF;}
	.st22{fill:#DCA1FF;}
	.st23{fill:#006D1C;}
	.st24{fill:#008C1E;}
	.st25{fill:url(#SVGID_1_);}
	.st26{fill:#FF9E78;}
	.st27{fill:#FF855F;}
	.st28{fill:#086B00;}
	.st29{fill:#FFBDA6;}
	.st30{fill:#688E00;}
	.st31{fill:#FF8D73;}
	.st32{fill:#FF6D00;}
	.st33{fill:#FF7F29;}
	.st34{fill:#6CC900;}
	.st35{fill:#599E00;}
	.st36{fill:#8AE200;}
	.st37{fill:#616800;}
	.st38{fill:#CC4400;}
	.st39{fill:#CE0000;}
	.st40{fill:#FFAA88;}
	.st41{fill:#F72300;}
	.st42{fill:#FF3600;}
	.st43{fill:#DD0000;}
	.st44{fill:#FF5C36;}
	.st45{fill:#FF8269;}
	.st46{fill:#8C004D;}
	.st47{fill:#399B00;}
	.st48{fill:#2B7C00;}
	.st49{fill:#5EBF00;}
	.st50{fill:#B2006A;}
	.st51{fill:#FF6ED3;}
	.st52{fill:#7CDB00;}
	.st53{fill:#86D300;}
	.st54{fill:#5DB500;}
</style>
<circle class="st15" cx="730.78" cy="560.11" r="241.78"/>
<circle class="st16" cx="730.78" cy="560.11" r="232.17"/>
<circle class="st17" cx="730.78" cy="560.11" r="221.78"/>
<g>
	<g>
		<path class="st16" d="M724.24,605.72c2.59-6.34,9.28-7.45,12.92,0.56c25.4,55.92,45.39,97.95,54.37,119.72
			c4.36,10.56,2.9,17.4-5.81,21.36c-25.68,11.66-64.24,14.77-98.3,3.84c-11.4-3.66-14.29-10.11-10.42-20.91
			C698.33,670.82,715.06,628.21,724.24,605.72z"/>
	</g>
	<g>
		<path class="st16" d="M693.91,587.74c6.31-2.65,11.83,1.3,8.73,9.53c-21.58,57.5-37.17,101.36-46.2,123.1
			c-4.39,10.55-10.26,14.36-19.21,10.99c-26.4-9.91-55.87-34.99-72.22-66.79c-5.47-10.64-2.95-17.25,7.42-22.15
			C629.54,615.45,671.52,597.15,693.91,587.74z"/>
	</g>
	<g>
		<path class="st16" d="M685.17,553.58c6.34,2.59,7.45,9.28-0.56,12.92c-55.92,25.4-97.95,45.39-119.72,54.37
			c-10.56,4.36-17.4,2.9-21.36-5.81c-11.66-25.68-14.77-64.24-3.84-98.3c3.66-11.4,10.11-14.29,20.91-10.42
			C620.06,527.66,662.68,544.4,685.17,553.58z"/>
	</g>
	<g>
		<path class="st16" d="M703.15,523.24c2.65,6.31-1.3,11.83-9.53,8.73c-57.5-21.58-101.36-37.17-123.1-46.2
			c-10.55-4.39-14.36-10.26-10.99-19.21c9.91-26.4,34.99-55.87,66.79-72.22c10.64-5.47,17.25-2.95,22.15,7.42
			C675.44,458.88,693.74,500.85,703.15,523.24z"/>
	</g>
	<g>
		<path class="st16" d="M737.31,514.5c-2.59,6.34-9.28,7.45-12.92-0.56c-25.4-55.92-45.39-97.95-54.37-119.72
			c-4.36-10.56-2.9-17.4,5.81-21.36c25.68-11.66,64.24-14.77,98.3-3.84c11.4,3.66,14.29,10.11,10.42,20.91
			C763.23,449.4,746.49,492.02,737.31,514.5z"/>
	</g>
	<g>
		<path class="st16" d="M767.65,532.48c-6.31,2.65-11.83-1.3-8.73-9.53c21.58-57.5,37.17-101.36,46.2-123.1
			c4.39-10.55,10.26-14.36,19.21-10.99c26.4,9.91,55.87,34.99,72.22,66.79c5.47,10.64,2.95,17.25-7.42,22.15
			C832.01,504.77,790.04,523.07,767.65,532.48z"/>
	</g>
	<g>
		<path class="st16" d="M776.39,566.64c-6.34-2.59-7.45-9.28,0.56-12.92c55.92-25.4,97.95-45.39,119.72-54.37
			c10.56-4.36,17.4-2.9,21.36,5.81c11.66,25.68,14.77,64.24,3.84,98.3c-3.66,11.4-10.11,14.29-20.91,10.42
			C841.49,592.56,798.87,575.82,776.39,566.64z"/>
	</g>
	<g>
		<path class="st16" d="M758.41,596.98c-2.65-6.31,1.3-11.83,9.53-8.73c57.5,21.58,101.36,37.17,123.1,46.2
			c10.55,4.39,14.36,10.26,10.99,19.21c-9.91,26.4-34.99,55.87-66.79,72.22c-10.64,5.47-17.25,2.95-22.15-7.42
			C786.12,661.34,767.82,619.37,758.41,596.98z"/>
	</g>
</g>
<path class="st15" d="M646.33,576.24c0,47.88-13.92,92.53-37.94,130.08c-3.72,5.82-7.68,11.47-11.87,16.93
	c-44.19,57.62-113.74,94.77-191.96,94.77c-133.53,0-241.78-108.25-241.78-241.78c0-61.62,23.06-117.86,61.01-160.56
	c6.4-7.21,13.24-14.04,20.46-20.44c42.67-37.82,98.81-60.78,160.31-60.78C538.09,334.46,646.33,442.71,646.33,576.24z"/>
<path class="st18" d="M608.39,706.32c-3.72,5.82-7.68,11.47-11.87,16.93c-44.19,57.62-113.74,94.77-191.96,94.77
	c-133.53,0-241.78-108.25-241.78-241.78c0-61.62,23.06-117.86,61.01-160.56c-8.57,25.45-13.21,52.72-13.21,81.06
	c0,140.34,113.76,254.1,254.1,254.1C518.02,750.84,567.52,734.4,608.39,706.32z"/>
<ellipse transform="matrix(0.3379 -0.9412 0.9412 0.3379 -110.2839 713.492)" class="st18" cx="451.99" cy="435.13" rx="45.92" ry="64.19"/>
<ellipse transform="matrix(0.3742 -0.9273 0.9273 0.3742 -130.8761 690.0674)" class="st19" cx="445.87" cy="442.01" rx="12.44" ry="18.25"/>
<ellipse transform="matrix(0.9053 -0.4247 0.4247 0.9053 -167.0855 287.4282)" class="st16" cx="561.16" cy="518.49" rx="34" ry="41.08"/>
<ellipse transform="matrix(0.9053 -0.4247 0.4247 0.9053 -186.0117 258.3576)" class="st16" cx="486.49" cy="546.4" rx="19.76" ry="22.8"/>
</svg>
