<?xml version="1.0" encoding="utf-8"?>
<!-- Generator: Adobe Illustrator 26.0.3, SVG Export Plug-In . SVG Version: 6.00 Build 0)  -->
<svg version="1.1" id="Слой_1" xmlns="http://www.w3.org/2000/svg" xmlns:xlink="http://www.w3.org/1999/xlink" x="0px" y="0px"
	 viewBox="0 0 1080 1080" style="enable-background:new 0 0 1080 1080;" xml:space="preserve">
<style type="text/css">
	.st0{fill:#BDFF3E;}
	.st1{fill:#1ECC00;}
	.st2{fill:#09B200;}
	.st3{fill:#FF0B0B;}
	.st4{fill:#FF3E3E;}
	.st5{fill:#EA0000;}
	.st6{fill:#53E000;}
	.st7{fill:none;}
</style>
<g>
	<path class="st7" d="M233.78,871.41c-28.97-12.5-85.29,24.37-85.29,24.37S114.28,626.64,325.2,444
		c17.17-13.14,33.86-24.91,49.85-35.38h0.03l0.03-0.03c0.08-0.05,0.16-0.11,0.25-0.16c6.39-5.09,13.79-10.17,21.77-15.15V43.66H65.6
		v992.68h50.57C139.67,979.83,176.41,921,233.78,871.41z"/>
	<path class="st0" d="M462.86,358.84c19-9.08,35.59-15.91,49.18-20.95l-48.02-67.59L430.38,95.46l110.88,43.38l0,0l-0.01,0
		c0,0,0.01,0,0.01,0l-28.2-95.18H397.13v349.62C417.47,380.58,441.62,368.54,462.86,358.84z"/>
	<path class="st1" d="M516.15,543.69c9.39-49.69-52.99-130.45-85.77-135.05c-32.78-4.6-55.28-0.03-55.28-0.03
		c0.08-0.06,0.17-0.13,0.25-0.19c-0.08,0.05-0.16,0.11-0.25,0.16l-0.03,0.03h-0.03c-15.99,10.47-32.68,22.24-49.85,35.38
		C114.28,626.64,148.49,895.78,148.49,895.78s56.32-36.87,85.29-24.37c-57.37,49.59-94.11,108.41-117.6,164.93h424.65
		c-5.04-68.52-57.28-109.04-70.08-169.28C457.29,803.76,506.82,593.07,516.15,543.69z"/>
	<path class="st1" d="M512.04,337.89c-13.59,5.04-30.18,11.87-49.18,20.95c22.22-10.15,41.21-17.74,49.23-20.87L512.04,337.89z"/>
	<path class="st2" d="M687.03,884.24l-68.33-102.92V488.02L512.1,337.97c-8.02,3.13-27.01,10.72-49.23,20.87
		c-21.24,9.7-45.39,21.74-65.73,34.43c-7.98,4.98-15.38,10.06-21.77,15.15c-0.08,0.06-0.17,0.13-0.25,0.19c0,0,22.5-4.57,55.28,0.03
		c32.78,4.6,95.16,85.36,85.77,135.05c-9.33,49.37-58.86,260.07-45.41,323.37c12.8,60.24,65.04,100.76,70.08,169.28H788
		L687.02,884.23C687.03,884.23,687.03,884.24,687.03,884.24z"/>
	<polygon class="st3" points="731.72,420.4 817.61,393.95 758.76,353.12 	"/>
	<polygon class="st3" points="618.71,488.02 618.71,455.2 618.71,443.04 635.33,432.37 495.97,258.97 470.75,136.24 551.65,173.92 
		541.26,138.85 430.38,95.46 464.02,270.3 512.04,337.89 512.1,337.97 	"/>
	<path class="st3" d="M898.4,446.47l-3.95,0.79l-45.31-31.44l-0.1-0.04l0-0.03l-31.44-21.81l-85.89,26.45l-19.18,47.71l-3.74,341.77
		l53.83,145.12c31.99,28.05,67.83,58.7,94.46,81.33h183.53V875.65L879.95,759.24L898.4,446.47z"/>
	<polygon class="st3" points="1040.61,504.28 1040.61,495.9 1034.31,493.27 	"/>
	<polygon class="st3" points="917.84,444.56 914.62,443.21 910.71,444 	"/>
	<path class="st3" d="M861.7,230.94l4.26-62.28l-188.4-73.2l-26.86-51.8H513.06l28.2,95.18C541.49,138.9,744.85,195,861.7,230.94z"
		/>
	<polygon class="st3" points="618.71,205.16 722.94,258.97 758.77,353.12 758.76,353.12 817.61,393.95 849.04,415.76 853.84,345.63 
		807.03,353.12 854.62,334.35 854.62,334.34 807,353.12 758.74,258.97 541.26,138.84 541.26,138.85 551.65,173.92 	"/>
	<polygon class="st3" points="898.4,446.47 898.6,443.04 910.71,444 914.62,443.21 849.14,415.83 894.45,447.26 	"/>
	<polygon class="st3" points="1040.61,101.23 1007.56,43.66 905.25,43.66 1040.61,204.23 	"/>
	<path class="st3" d="M861.7,230.94c44.25,13.61,76.11,24.34,79.81,28.03c11.53,11.53,79.79,3.3,99.11,0.71v-23.17l-174.65-67.86
		L861.7,230.94z"/>
	<polygon class="st3" points="1040.61,68.48 1021.29,43.66 1021.29,43.66 1040.61,68.49 	"/>
	<polygon class="st3" points="941.54,331.61 853.84,345.63 849.04,415.76 849.04,415.79 849.14,415.83 914.62,443.21 917.84,444.56 
		1010.61,451.87 1034.31,493.27 1040.61,495.9 1040.61,358.75 	"/>
	<polygon class="st3" points="854.62,334.34 854.62,334.35 1040.61,261.01 1040.61,261 	"/>
	<polygon class="st4" points="1040.61,43.66 1021.29,43.66 1040.61,68.48 	"/>
	<polygon class="st4" points="1010.61,451.87 917.84,444.56 910.71,444 898.6,443.04 898.4,446.47 879.95,759.24 1040.61,875.65 
		1040.61,504.28 1034.31,493.27 	"/>
	<polygon class="st4" points="865.96,168.66 1040.61,236.52 1040.61,204.23 905.25,43.66 650.71,43.66 677.57,95.46 	"/>
	<polygon class="st4" points="618.71,205.16 551.65,173.92 470.75,136.24 495.97,258.97 635.33,432.37 758.77,353.12 722.94,258.97 
			"/>
	<polygon class="st5" points="1040.61,68.49 1021.29,43.66 1007.56,43.66 1040.61,101.23 	"/>
	<path class="st5" d="M941.5,258.97c-3.69-3.69-35.56-14.42-79.81-28.03C744.85,195,541.49,138.9,541.26,138.84c0,0-0.01,0-0.01,0
		l0.01,0l217.48,120.13L807,353.12l47.62-18.78L1040.61,261v-1.31C1021.3,262.28,953.03,270.5,941.5,258.97z"/>
	<polygon class="st5" points="687.02,884.23 788,1036.34 788.01,1036.34 687.03,884.24 	"/>
	<path class="st5" d="M792.79,1036.34h64.3c-26.63-22.63-62.47-53.29-94.46-81.33L792.79,1036.34z"/>
	<polygon class="st5" points="854.62,334.35 807.03,353.12 853.84,345.63 941.54,331.61 1040.61,358.75 1040.61,261.01 	"/>
	<polygon class="st5" points="708.79,809.89 712.53,468.11 731.72,420.4 758.76,353.12 758.77,353.12 635.33,432.37 618.71,443.04 
		618.71,455.2 618.71,488.02 618.71,781.33 687.03,884.24 788.01,1036.34 792.79,1036.34 762.62,955.01 	"/>
</g>
</svg>
