<?xml version="1.0" encoding="utf-8"?>
<!-- Generator: Adobe Illustrator 26.0.3, SVG Export Plug-In . SVG Version: 6.00 Build 0)  -->
<svg version="1.1" id="Слой_1" xmlns="http://www.w3.org/2000/svg" xmlns:xlink="http://www.w3.org/1999/xlink" x="0px" y="0px"
	 viewBox="0 0 1080 1080" style="enable-background:new 0 0 1080 1080;" xml:space="preserve">
<style type="text/css">
	.st0{fill:#FFEFAE;}
	.st1{fill:#FFD731;}
	.st2{fill:#005318;}
	.st3{fill:#002716;}
	.st4{fill:#FFDF69;}
	.st5{fill:#1EEF00;}
	.st6{fill:#00B700;}
	.st7{fill:#A4FF5C;}
	.st8{fill:#E7FFAB;}
	.st9{fill:#726D00;}
	.st10{fill:#FFEA8C;}
	.st11{fill:#FFFDE0;}
	.st12{fill:#FFEE1E;}
	.st13{fill:#FFF16E;}
	.st14{fill:#FFF5CC;}
	.st15{fill:#FFA91F;}
	.st16{fill:#FFCB4A;}
	.st17{fill:#FFEB97;}
	.st18{fill:#FF9017;}
	.st19{fill:#EA6F00;}
	.st20{fill:#A000E2;}
	.st21{fill:#BF36FF;}
	.st22{fill:#DCA1FF;}
	.st23{fill:#006D1C;}
	.st24{fill:#008C1E;}
	.st25{fill:url(#SVGID_1_);}
	.st26{fill:#FF9E78;}
	.st27{fill:#FF855F;}
	.st28{fill:#086B00;}
	.st29{fill:#FFBDA6;}
	.st30{fill:#688E00;}
	.st31{fill:#FF8D73;}
	.st32{fill:#FF6D00;}
	.st33{fill:#FF7F29;}
	.st34{fill:#6CC900;}
	.st35{fill:#599E00;}
	.st36{fill:#8AE200;}
	.st37{fill:#616800;}
	.st38{fill:#CC4400;}
	.st39{fill:#CE0000;}
	.st40{fill:#FFAA88;}
	.st41{fill:#F72300;}
	.st42{fill:#FF3600;}
	.st43{fill:#DD0000;}
	.st44{fill:#FF5C36;}
	.st45{fill:#FF8269;}
	.st46{fill:#8C004D;}
	.st47{fill:#399B00;}
	.st48{fill:#2B7C00;}
	.st49{fill:#5EBF00;}
	.st50{fill:#B2006A;}
	.st51{fill:#FF6ED3;}
	.st52{fill:#7CDB00;}
	.st53{fill:#86D300;}
	.st54{fill:#5DB500;}
</style>
<path class="st30" d="M565.05,282.02l-72.49,94.35l-84.58,10.55l-41.65,5.19c0,0,7.46-30.71,15.11-48.89s6.59-40,3.56-48.17
	c-3.03-8.18-22.31-29.33-31.11-37.18c-8.8-7.86-29.93-21.02-55.11-31.09c0,0,1.18-18.67,14.52-31.71c2.51-2.45,5.03-4.62,7.47-6.51
	c10.51-8.14,19.49-11.26,19.49-11.26c13.8,3.72,51.1,41.06,86.52,66.37c20.03,14.31,47.75,22.97,49.78,24
	C492.85,275.96,565.05,282.02,565.05,282.02z"/>
<path class="st37" d="M419.56,322.67l-11.58,64.25l-41.65,5.19c0,0,7.46-30.71,15.11-48.89s6.59-40,3.56-48.17
	c-3.03-8.18-22.31-29.33-31.11-37.18c-8.8-7.86-29.93-21.02-55.11-31.09c0,0,1.18-18.67,14.52-31.71c2.51-2.45,5.03-4.62,7.47-6.51
	h2.9c0,0,74.66,55.95,82.66,69.31c8,13.35,12.23,22.24,12.73,32.02C419.56,299.67,419.56,322.67,419.56,322.67z"/>
<path class="st37" d="M431.92,271.22c0,0,2.5,7.62,8.2,13.48c9.78,10.07,37.68,20.88,37.68,20.88h34.53l7.73-3.79l3.61-7.01
	c0,0-14.57-2.01-30.22-6.38C477.79,284.03,431.92,271.22,431.92,271.22z"/>
<path class="st39" d="M659.67,824.69c0,0,37.93,27.85,58.67,32c20.74,4.15,54.52,0,76.44-16s29.04-37.33,32-56.89
	c2.96-19.56,0-51.56,0-51.56l-101.33-49.78l-85.33,84.02L659.67,824.69z"/>
<path class="st41" d="M725.44,783.81c0,0,0,42.07-28.44,62.22c-28.45,20.15-62.82,24.29-92.45,10.66
	c-3.18-1.46-8.96-5.57-16.76-11.75c-64.86-51.41-269.35-246.42-278.35-258.47c-8.38-11.23-16.36-31.66-18.79-61.13
	c-0.49-5.92-0.76-12.22-0.76-18.87c0-39.76,23.11-87.7,51.55-112c7.74-6.61,16.24-10.88,24.51-13.61c22.17-7.31,42.75-3.5,42.75-3.5
	l258.55,308.5l49.3,58.83L725.44,783.81z"/>
<path class="st42" d="M842.56,766.66c-22.3,9.44-52.77,8.33-68.24,4.86c-13.49-3.03-28.95-17.52-32.69-21.18
	c-0.54-0.54-0.84-0.84-0.84-0.84L504.47,332.54c0,0-1.38-34.33,39.57-57.01c40.96-22.69,95.28-20.98,122.96-9.09
	c27.69,11.88,55.23,30.39,68.1,46.32c8.83,10.93,72.78,164.94,114.32,271.93c11.68,30.09,21.59,56.46,28,74.89
	c4.01,11.52,6.65,19.94,7.5,24.21C891.96,719.21,864.87,757.21,842.56,766.66z"/>
<path class="st43" d="M725.44,783.81c0,0,0,42.07-28.44,62.22c-28.45,20.15-62.82,24.29-92.45,10.66
	c-3.18-1.46-8.96-5.57-16.76-11.75l-15.83-14.91c0,0,39.11,11.26,57.48,0c18.37-11.26,10.67-30.22,10.67-30.22l-194.87-304.5
	l222.01,190.55l49.3,58.83L725.44,783.81z"/>
<path class="st43" d="M842.56,766.66c-22.3,9.44-52.77,8.33-68.24,4.86c-13.49-3.03-28.95-17.52-32.69-21.18L609.35,416.12
	c0,0,181.88,272.27,188.98,278.8s13.05,14.82,28.45,16s32.59-8.2,39.11-24.25s8-37.06,8-37.06l3.53,9.97
	c4.01,11.52,6.65,19.94,7.5,24.21C891.96,719.21,864.87,757.21,842.56,766.66z"/>
<path class="st41" d="M749.74,776.69c-35.56,32.6-78.22,20.15-97.19,7.12c-18.96-13.04-254.22-353.78-254.22-353.78
	s-29.04-77.63,23.11-117.34c52.15-39.7,126.22,0,126.22,0s99.81,159.46,169.73,276.38c37.17,62.14,65.9,112.27,66.72,120.07
	C786.48,731.61,785.29,744.1,749.74,776.69z"/>
<path class="st44" d="M812.55,584.69c-23.11-35.8-64.85-101.33-64.85-101.33S647.22,344.69,617,314.47
	c-30.22-30.22-72.96-38.94-72.96-38.94c40.96-22.69,95.28-20.98,122.96-9.09c27.69,11.88,55.23,30.39,68.1,46.32
	c8.83,10.93,72.78,164.94,114.32,271.93C860.42,623.16,835.66,620.5,812.55,584.69z"/>
<path class="st42" d="M767.22,713.58c-13.22,13.92-24,24-41.78,27.13c-18.61,3.27-30.18,8.87-72.89-24.46
	c-42.7-33.33-211.37-300.13-225.33-339.88c-13.96-39.76-5.78-63.68-5.78-63.68c14.07-10.71,29.73-15.64,45.11-17.13
	c41.02-3.98,79.98,16.53,81.09,17.12l0.02,0.01l0.29,0.46l0.32,0.51c7.87,12.58,90.74,145.17,156.04,253.62
	c4.45,7.39,8.82,14.67,13.08,21.79l58.22,101.01C775.61,690.08,780.44,699.67,767.22,713.58z"/>
<path class="st44" d="M704.31,567.28c-1.24,9.88-4.91,25.57-15.76,31.97c-16.39,9.67-38.66,0-51.95-13.3
	c-13.29-13.31-157.82-207.92-167.16-230.59c-9.33-22.66-19.55-26.67-8.89-49.78c1.78-3.86,3.83-7.18,6-10.02
	c41.02-3.98,79.98,16.53,81.09,17.12l0.02,0.01l0.29,0.46l0.32,0.51C556.14,326.24,639.01,458.83,704.31,567.28z"/>
<ellipse transform="matrix(0.8373 -0.5468 0.5468 0.8373 -123.6917 373.8929)" class="st45" cx="566.29" cy="394.75" rx="12.65" ry="82.27"/>
<ellipse transform="matrix(0.6155 -0.7882 0.7882 0.6155 17.7727 653.1873)" class="st45" cx="678.3" cy="308.38" rx="12.65" ry="51.2"/>
</svg>
