<?xml version="1.0" encoding="utf-8"?>
<!-- Generator: Adobe Illustrator 26.0.3, SVG Export Plug-In . SVG Version: 6.00 Build 0)  -->
<svg version="1.1" id="Слой_1" xmlns="http://www.w3.org/2000/svg" xmlns:xlink="http://www.w3.org/1999/xlink" x="0px" y="0px"
	 viewBox="0 0 1080 1080" style="enable-background:new 0 0 1080 1080;" xml:space="preserve">
<style type="text/css">
	.st0{fill:url(#SVGID_1_);}
	.st1{fill:#FF7B22;}
	.st2{fill:#FF761A;}
	.st3{fill:#934200;}
	.st4{fill:#FFD7A6;}
	.st5{fill:#FF4D1D;}
	.st6{fill:#661300;}
	.st7{fill:#FFEDD9;}
	.st8{fill:#FFB380;}
	.st9{fill:none;}
	.st10{fill:url(#SVGID_00000147934296674449955380000008574418772757452946_);}
	.st11{fill:url(#SVGID_00000165951012801524970310000012424437322332304302_);}
	.st12{fill:url(#SVGID_00000090981469125042744470000008904736928411275923_);}
	.st13{fill:url(#SVGID_00000061432371618470531950000008016805919812924831_);}
	.st14{fill:url(#SVGID_00000129183149323193551440000007340454322391669670_);}
	.st15{fill:url(#SVGID_00000142151694444825272080000005255621551248639159_);}
	.st16{fill:url(#SVGID_00000029006154054083919700000015623501126770873006_);}
	.st17{fill:url(#SVGID_00000025440068759532969440000007216287062631576482_);}
	.st18{fill:url(#SVGID_00000132803497344736383310000001848641385006965695_);}
	.st19{fill:url(#SVGID_00000098214401384381742380000013521596933031983520_);}
	.st20{fill:url(#SVGID_00000110444717717366628490000017416548973213990556_);}
	.st21{fill:url(#SVGID_00000158003736406984100370000016737624629208627097_);}
	.st22{fill:url(#SVGID_00000122715144350948534910000013316198155168113598_);}
	.st23{fill:url(#SVGID_00000070079049856959596700000001773631939557260987_);}
	.st24{fill:url(#SVGID_00000173157676742880264500000004380839542750371245_);}
	.st25{fill:url(#SVGID_00000027603221391632763690000008597679570391881377_);}
	.st26{fill:url(#SVGID_00000181066657008291499330000016400383645712452240_);}
	.st27{fill:url(#SVGID_00000144303142824606910660000002880737973769595301_);}
</style>
<g>
	<path class="st9" d="M879,788.8c-33.5,73.27-76.5,138.34-116.7,163.75c-88.62,56.04-198.38,73.09-301.86,72.2h-0.07
		c-0.43,0.65-22.45-0.08-48.87-1.7c-0.71-0.04-1.42-0.09-2.14-0.13c-28.02-1.76-60.39-4.49-77.22-7.62
		c-120.36-16.08-210.33-46.96-210.33-46.96s339.75-53.37,425.29-115.65c18.29-13.32,36.2-36.2,53.07-63.89H115.98v236.8h844.53
		V788.8H879z"/>
	<radialGradient id="SVGID_1_" cx="538.2454" cy="-452.0278" r="1240.525" gradientUnits="userSpaceOnUse">
		<stop  offset="0.0112" style="stop-color:#B0FFB3"/>
		<stop  offset="0.2301" style="stop-color:#ADFEB3"/>
		<stop  offset="0.3886" style="stop-color:#A4FBB1"/>
		<stop  offset="0.5282" style="stop-color:#94F6AF"/>
		<stop  offset="0.6569" style="stop-color:#7EEEAC"/>
		<stop  offset="0.778" style="stop-color:#61E5A9"/>
		<stop  offset="0.8919" style="stop-color:#3ED9A4"/>
		<stop  offset="1" style="stop-color:#15CC9F"/>
	</radialGradient>
	<path class="st0" d="M397.31,506.38c35.58-6.52,109.46-34.73,186.59-66.83c22.28-9.27,44.85-18.87,66.83-28.36
		c0,0,0.33-0.15,0.93-0.37c12.37-5.36,24.56-10.67,36.42-15.87c1.62-0.71,3.24-1.42,4.85-2.13c0.97-0.43,1.94-0.85,2.91-1.28
		c1.47-0.65,2.94-1.29,4.4-1.94c2.07-0.91,4.14-1.82,6.18-2.73c0.03-0.01,0.05-0.02,0.08-0.04c5.82-2.57,11.53-5.11,17.11-7.6
		c17.68-7.85,34.06-15.19,48.56-21.74c25.37-11.46,44.92-20.42,55.26-25.19c1.33-2.66,2.7-5.4,4.06-8.15
		c0.51-1.03,1.03-2.08,1.55-3.12c15.31-30.84,33.24-67.47,51.81-106.51c1.27-2.66,2.54-5.34,3.81-8.02
		c24.68-52.04,50.15-107.75,71.85-159.23v-8.83H435.16c16.94,42.01,30.04,82.88,36.88,119.06c5.86,30.88,1.11,61.16-9.23,88.96
		h-0.04c-22.39,60.27-71.2,108.64-96.15,125.17c-36.44,24.17-120.46,63.72-237.22,39.55c-4.47-0.92-8.94-1.96-13.42-3.05v98.67
		C233.26,511.72,354.51,514.23,397.31,506.38z"/>
	
		<radialGradient id="SVGID_00000179637100968183811300000006901543883975308424_" cx="537.6095" cy="-452.0278" r="1240.8263" gradientUnits="userSpaceOnUse">
		<stop  offset="0.0112" style="stop-color:#B0FFB3"/>
		<stop  offset="0.2301" style="stop-color:#ADFEB3"/>
		<stop  offset="0.3886" style="stop-color:#A4FBB1"/>
		<stop  offset="0.5282" style="stop-color:#94F6AF"/>
		<stop  offset="0.6569" style="stop-color:#7EEEAC"/>
		<stop  offset="0.778" style="stop-color:#61E5A9"/>
		<stop  offset="0.8919" style="stop-color:#3ED9A4"/>
		<stop  offset="1" style="stop-color:#15CC9F"/>
	</radialGradient>
	<path style="fill:url(#SVGID_00000179637100968183811300000006901543883975308424_);" d="M897.69,342.82l2.6,7.85
		c11.34,32.4,49.37,151.15,35.95,253.09c-7.23,54.79-28.82,122.87-57.25,185.04h81.51V302.85c-15.64,10.06-30.89,19.78-45.42,28.99
		C909.15,335.57,903.37,339.27,897.69,342.82z"/>
	
		<radialGradient id="SVGID_00000114780204934738254620000002836905514147452824_" cx="537.6095" cy="-452.0278" r="1240.8263" gradientUnits="userSpaceOnUse">
		<stop  offset="0.0112" style="stop-color:#B0FFB3"/>
		<stop  offset="0.2301" style="stop-color:#ADFEB3"/>
		<stop  offset="0.3886" style="stop-color:#A4FBB1"/>
		<stop  offset="0.5282" style="stop-color:#94F6AF"/>
		<stop  offset="0.6569" style="stop-color:#7EEEAC"/>
		<stop  offset="0.778" style="stop-color:#61E5A9"/>
		<stop  offset="0.8919" style="stop-color:#3ED9A4"/>
		<stop  offset="1" style="stop-color:#15CC9F"/>
	</radialGradient>
	<path style="fill:url(#SVGID_00000114780204934738254620000002836905514147452824_);" d="M677.75,617.69
		c-16.31,13.43-50.82,35.73-71.46,48.41c-58.82,36.06-130.69,70.57-195.34,74.65c-63.26,3.97-182.71-45.94-294.97-102.04V788.8
		h484.18C630.87,738.37,658.11,671.91,677.75,617.69z"/>
	<path class="st2" d="M827.42,332.32c1.33-2.66,2.69-5.39,4.06-8.15C830.12,326.92,828.76,329.66,827.42,332.32z"/>
	<path class="st2" d="M915.08,331.84l-17.39,10.98l0,0C903.37,339.27,909.15,335.57,915.08,331.84z"/>
	<path class="st2" d="M410.95,740.75c64.64-4.08,136.51-38.59,195.34-74.65c0,0,42.41-132.53,45.37-152.75
		c2.96-20.21,9.57-49.43,0-65.9c-9.57-16.48-67.76-7.89-67.76-7.89c-77.13,32.1-151.01,60.31-186.59,66.83
		c-42.8,7.84-164.05,5.34-281.33,0.43v131.9C228.24,694.81,347.69,744.72,410.95,740.75z"/>
	<path class="st2" d="M772.16,357.51c-14.5,6.55-30.88,13.89-48.56,21.74l0.01,0.01C741.28,371.41,757.67,364.05,772.16,357.51z"/>
	<path class="st2" d="M677.75,617.69c5.08-13.97,9.64-27.13,13.6-38.99L677.75,617.69z"/>
	<path class="st2" d="M411.49,1023.05c-0.71-0.04-1.42-0.09-2.14-0.13C410.07,1022.96,410.78,1023.01,411.49,1023.05z"/>
	<path class="st2" d="M583.9,968c41.31-20.52,142.2-65.91,185.03-118.61c42.83-52.7,117.19-212.5,122.02-263.58
		c3.9-41.3-20.31-158.25-29.73-201.51c2.15,11.47,2.66,22.85-3.33,34.45c-11.08,21.46-50,38.29-80.36,43.14
		c-7.18,1.15-13.86,1.62-19.6,1.33L691.36,578.7c-3.97,11.86-8.53,25.02-13.6,38.99c-19.64,54.22-46.88,120.68-77.59,171.11
		c-16.87,27.69-34.78,50.57-53.07,63.89C461.55,914.96,121.8,968.34,121.8,968.34s89.97,30.89,210.33,46.96
		c-0.14-0.03-0.29-0.05-0.42-0.08C331.71,1015.22,542.59,988.52,583.9,968z"/>
	<path class="st3" d="M695.83,391.55c1.47-0.65,2.94-1.29,4.4-1.94C698.77,390.25,697.31,390.9,695.83,391.55z"/>
	<path class="st3" d="M688.08,394.96c1.63-0.71,3.23-1.42,4.85-2.13C691.31,393.54,689.7,394.24,688.08,394.96z"/>
	<path class="st3" d="M884.85,214.54c1.27-2.66,2.54-5.34,3.81-8.02C887.38,209.21,886.12,211.88,884.85,214.54z"/>
	<path class="st3" d="M706.41,386.88c0.03-0.01,0.05-0.02,0.08-0.04C706.46,386.86,706.44,386.87,706.41,386.88z"/>
	<path class="st3" d="M764.19,437.33l4.74,6.82l-11,19.08c5.74,0.29,12.42-0.18,19.6-1.33c30.36-4.86,69.28-21.68,80.36-43.14
		c5.99-11.6,5.48-22.98,3.33-34.45c-2.23-10.24-3.63-16.37-3.63-16.37l-22.05-39.18l-0.04-0.04l-0.07-0.11l-3.26-5.82
		c0.28-0.57,0.58-1.17,0.87-1.74c-0.52,1.04-1.04,2.09-1.55,3.12c-1.37,2.76-2.73,5.49-4.06,8.15
		c-10.34,4.77-29.89,13.73-55.26,25.19c-14.49,6.54-30.89,13.9-48.55,21.75L764.19,437.33z"/>
	<path class="st3" d="M884.85,214.54c-18.57,39.04-36.51,75.67-51.81,106.51c-0.29,0.58-0.58,1.17-0.87,1.74l3.26,5.82l0.07,0.11
		l0.04,0.04l22.05,39.18l37.33-26.32l1.68-2.08l1.09,3.28l17.39-10.98c14.53-9.21,29.78-18.94,45.42-28.99V47.29
		c-21.7,51.48-47.17,107.19-71.85,159.23C887.38,209.21,886.11,211.88,884.85,214.54z"/>
	<path class="st3" d="M757.93,463.23l11-19.08l-4.74-6.82l-40.58-58.07l-0.01-0.01c-5.58,2.49-11.29,5.03-17.11,7.6
		c-0.03,0.01-0.05,0.02-0.08,0.04c-2.04,0.9-4.11,1.81-6.18,2.73c-1.46,0.64-2.92,1.29-4.4,1.94c-0.97,0.43-1.94,0.85-2.91,1.28
		c-1.61,0.71-3.22,1.42-4.85,2.13c-11.86,5.2-24.05,10.51-36.42,15.87c-0.59,0.22-0.93,0.37-0.93,0.37
		c-21.98,9.49-44.55,19.09-66.83,28.36c0,0,58.18-8.58,67.76,7.89c9.57,16.48,2.96,45.69,0,65.9
		c-2.96,20.21-45.37,152.75-45.37,152.75c20.65-12.68,55.15-34.97,71.46-48.41l13.6-38.99L757.93,463.23z"/>
	<path class="st3" d="M900.3,350.67l-2.6-7.85l0,0l-1.09-3.28l-1.68,2.08l-37.33,26.32c0,0,1.4,6.13,3.63,16.37
		c9.41,43.26,33.63,160.21,29.73,201.51c-4.83,51.08-79.19,210.87-122.02,263.58C726.1,902.09,625.21,947.48,583.9,968
		c-41.31,20.52-252.2,47.22-252.2,47.22c0.13,0.03,0.29,0.05,0.42,0.08c16.83,3.13,49.2,5.86,77.22,7.62
		c0.72,0.04,1.43,0.09,2.14,0.13c26.43,1.62,48.44,2.36,48.87,1.7h0.07c103.49,0.89,213.24-16.16,301.86-72.2
		c40.2-25.41,83.2-90.47,116.7-163.75c28.43-62.17,50.02-130.26,57.25-185.04C949.67,501.82,911.64,383.07,900.3,350.67z"/>
	<path class="st4" d="M462.77,246.48h0.04c10.34-27.8,15.09-58.08,9.23-88.96c-6.83-36.19-19.93-77.05-36.88-119.06h-38.63
		c2.5,7.94,2.97,12.91,1.02,14.1c-2.59,1.58-9.11-3.63-18.4-14.1H115.98v244.52c35.14,22.24,80.17,42.92,160.98,43.93
		C404.32,328.5,462.77,246.48,462.77,246.48z M425.45,88.05c7.12-1.5,16.17,12.86,20.21,32.08c4.04,19.21,1.54,36.01-5.58,37.5
		c-7.12,1.5-16.17-12.86-20.21-32.08C415.83,106.34,418.33,89.55,425.45,88.05z M234.8,254.79c-2.23,12.54-22.92,19.35-46.21,15.21
		c-23.29-4.14-40.36-17.67-38.13-30.21c2.23-12.54,22.92-19.35,46.21-15.21C219.96,228.73,237.03,242.25,234.8,254.79z"/>
	<path class="st6" d="M366.62,371.65c24.94-16.53,73.76-64.9,96.15-125.17c0,0-58.45,82.02-185.81,80.43
		c-80.81-1.01-125.84-21.7-160.98-43.93v125.17c4.47,1.09,8.95,2.13,13.42,3.05C246.16,435.37,330.19,395.82,366.62,371.65z"/>
	<path class="st6" d="M440.09,157.64c7.12-1.5,9.62-18.29,5.58-37.5c-4.04-19.21-13.09-33.58-20.21-32.08
		c-7.12,1.5-9.62,18.29-5.58,37.5C423.92,144.77,432.97,159.13,440.09,157.64z"/>
	
		<ellipse transform="matrix(0.1751 -0.9845 0.9845 0.1751 -84.5724 393.6368)" class="st6" cx="192.63" cy="247.29" rx="23.06" ry="42.83"/>
	<path class="st7" d="M397.55,52.55c1.95-1.19,1.48-6.16-1.02-14.1h-17.38C388.44,48.92,394.96,54.13,397.55,52.55z"/>
</g>
</svg>
