<?xml version="1.0" encoding="utf-8"?>
<!-- Generator: Adobe Illustrator 26.0.3, SVG Export Plug-In . SVG Version: 6.00 Build 0)  -->
<svg version="1.1" id="Слой_1" xmlns="http://www.w3.org/2000/svg" xmlns:xlink="http://www.w3.org/1999/xlink" x="0px" y="0px"
	 viewBox="0 0 1080 1080" style="enable-background:new 0 0 1080 1080;" xml:space="preserve">
<style type="text/css">
	.st0{fill:#BDFF3E;}
	.st1{fill:#1ECC00;}
	.st2{fill:#09B200;}
	.st3{fill:#FF0B0B;}
	.st4{fill:#FF3E3E;}
	.st5{fill:#EA0000;}
	.st6{fill:#53E000;}
	.st7{fill:none;}
</style>
<g>
	<path class="st7" d="M732.78,770.43c-49.01,0-95.56-10.51-137.54-29.39c-80.65,62.84-136.08,162.41-136.08,162.41
		S266.75,841,233.81,543.9c-33,16.72-54.86,73.14-54.86,73.14S94.13,343.33,142.39,227c-36.97,9.01-67.05,36.59-67.05,36.59
		S68.7,158.82,116.18,44.61H65.6v1020.16h975.01V770.43H732.78z"/>
	<path class="st0" d="M916.31,415.93c14.03,43.95,25.23,25.8,0,121.88c-25.26,96.05-254.8,219.39-254.8,219.39s11.01-37.28,0-54.86
		c-23.4,8.98-45.66,22.64-66.27,38.7c41.97,18.88,88.53,29.39,137.54,29.39h307.83V358.34c-27.35,72.33-64.68,118.55-64.68,118.55
		S969.05,426.24,916.31,415.93z"/>
	<path class="st1" d="M75.35,263.59c0,0,30.08-27.57,67.05-36.59c-48.26,116.33,36.55,390.04,36.55,390.04s21.86-56.42,54.86-73.14
		C266.75,841,459.16,903.44,459.16,903.44s55.43-99.57,136.08-162.41c20.61-16.06,42.87-29.72,66.27-38.7
		c11.01,17.58,0,54.86,0,54.86s229.54-123.34,254.8-219.39c25.23-96.08,14.03-77.93,0-121.88c52.74,10.31,59.62,60.96,59.62,60.96
		s37.32-46.22,64.68-118.55v-48.25c-53.98-6.96-239.25-31.5-281.84-45.8c-49.98-16.82-140.06-70.63-140.06-70.63L470.75,405.52
		c0,0,70.54-275.11,70.51-350.25c0-3.64-0.17-7.18-0.43-10.67H116.18C68.7,158.82,75.35,263.59,75.35,263.59z M501.05,511.72
		c40.27-14.66,217.64-77.71,257.75-106.27c40.04-28.53,48.23-66.6,48.23-66.6s28.78,9.52,42.04,38.08
		c13.26,28.56,30.91,134.82,30.91,134.82s-15.74-15.52-51.09,0c-35.35,15.52-195.59,75.2-252.2,110.65
		c-56.61,35.48-146.28,181.56-146.28,181.56s-47.76,14.98-55.28-65.59c-7.49-80.53,55.28-226.65,55.28-226.65
		S460.78,526.38,501.05,511.72z M274.01,269.3C291.4,199.81,430.38,92.75,430.38,92.75l60.54,25.64l-60.54,287.1
		c0,0-29.83,24.91-55.28,65.59c-25.45,40.68-40.55,151.32-40.55,151.32s-52.8-115.47-60.54-171.51
		C266.27,394.86,256.63,338.79,274.01,269.3z"/>
	<path class="st2" d="M470.75,405.52l147.96-211.87c0,0,90.08,53.82,140.06,70.63c42.6,14.3,227.86,38.84,281.84,45.8V189.76
		L859.1,151.71L788,44.61H540.82c0.26,3.49,0.43,7.03,0.43,10.67C541.28,130.41,470.75,405.52,470.75,405.52z"/>
	<path class="st3" d="M1040.61,100.25V44.61H857.09c23.6,20.05,39.96,33.8,39.96,33.8L1040.61,100.25z"/>
	<path class="st5" d="M1040.61,189.76v-89.51L897.05,78.41c0,0-16.37-13.75-39.96-33.8h-64.3l6.05,16.32l-10.83-16.32H788
		l71.1,107.1L1040.61,189.76z"/>
	<polygon class="st5" points="792.79,44.61 788.01,44.61 798.84,60.92 	"/>
	<path class="st6" d="M430.42,511.72c0,0-62.76,146.12-55.28,226.65c7.52,80.56,55.28,65.59,55.28,65.59s89.67-146.09,146.28-181.56
		c56.61-35.44,216.85-95.13,252.2-110.65c35.35-15.52,51.09,0,51.09,0s-17.64-106.27-30.91-134.82
		c-13.26-28.56-42.04-38.08-42.04-38.08s-8.19,38.08-48.23,66.6c-40.11,28.56-217.48,91.61-257.75,106.27
		S430.42,511.72,430.42,511.72z"/>
	<path class="st6" d="M334.56,622.4c0,0,15.1-110.65,40.55-151.32c25.45-40.68,55.28-65.59,55.28-65.59l60.54-287.1l-60.54-25.64
		c0,0-138.98,107.06-156.37,176.55c-17.39,69.49-7.74,125.56,0,181.6C281.76,506.93,334.56,622.4,334.56,622.4z"/>
</g>
</svg>
