<?xml version="1.0" encoding="utf-8"?>
<!-- Generator: Adobe Illustrator 26.0.3, SVG Export Plug-In . SVG Version: 6.00 Build 0)  -->
<svg version="1.1" id="Слой_1" xmlns="http://www.w3.org/2000/svg" xmlns:xlink="http://www.w3.org/1999/xlink" x="0px" y="0px"
	 viewBox="0 0 1080 1080" style="enable-background:new 0 0 1080 1080;" xml:space="preserve">
<style type="text/css">
	.st0{fill:url(#SVGID_1_);}
	.st1{fill:#FF7B22;}
	.st2{fill:#FF761A;}
	.st3{fill:#934200;}
	.st4{fill:#FFD7A6;}
	.st5{fill:#FF4D1D;}
	.st6{fill:#661300;}
	.st7{fill:#FFEDD9;}
	.st8{fill:#FFB380;}
</style>
<radialGradient id="SVGID_1_" cx="545.1679" cy="541.1932" r="412.6133" gradientUnits="userSpaceOnUse">
	<stop  offset="0.0112" style="stop-color:#B0FFB3"/>
	<stop  offset="0.2301" style="stop-color:#ADFEB3"/>
	<stop  offset="0.3886" style="stop-color:#A4FBB1"/>
	<stop  offset="0.5282" style="stop-color:#94F6AF"/>
	<stop  offset="0.6569" style="stop-color:#7EEEAC"/>
	<stop  offset="0.778" style="stop-color:#61E5A9"/>
	<stop  offset="0.8919" style="stop-color:#3ED9A4"/>
	<stop  offset="1" style="stop-color:#15CC9F"/>
</radialGradient>
<path class="st0" d="M957.78,184.81v712.76c0,31.05-25.18,56.23-56.23,56.23H188.79c-31.05,0-56.23-25.18-56.23-56.23V184.81
	c0-31.05,25.18-56.23,56.23-56.23h712.76C932.6,128.58,957.78,153.76,957.78,184.81z"/>
<g>
	<g>
		<path class="st2" d="M856.12,521.47c0,63.49-14.27,109.96-32.05,143.78c-14.51,27.66-31.37,46.86-44.64,60.01
			c-2.51,2.49-5.71,5.3-9.43,8.37c-23,18.94-66.53,47.45-99.31,68.22c-2,1.26-3.94,2.5-5.85,3.7c-4.75,2.98-9.21,5.78-13.26,8.31
			c-7.54,4.71-13.72,8.5-17.81,11.01c-3.36,2.06-5.32,3.25-5.51,3.36c0.16-0.32,2.81-5.45,7.05-13.82l0.01-0.02
			c1.81-3.57,3.91-7.74,6.22-12.37c0.52-1.04,1.05-2.1,1.58-3.17c5.5-11.07,12.04-24.44,18.78-38.67
			c8.63-18.19,17.56-37.75,25.01-55.59l0.01-0.02c3.76-9.01,7.15-17.59,9.91-25.33c3.41-9.56,5.89-17.85,7-24.1
			c1.12-6.34,1.76-13.21,2.02-20.42c0.23-6.32,0.15-12.89-0.16-19.57c-0.33-7.07-0.95-14.27-1.76-21.4
			c-3.24-28.87-9.8-56.8-15.02-72.28c-3.85-11.38-10.71-25.44-18.7-39.38c-0.01-0.02-0.02-0.04-0.04-0.05s-0.01-0.01-0.01-0.01
			c-11.01-19.15-24.16-38.05-34.51-49.3c-17.91-19.46-56.27-59.16-75.09-92.02c-18.82-32.87-27.71-97.52,17.28-126
			c44.98-28.48,94.62-13.14,124.22,10.96c13.63,11.11,29.79,26.86,44.94,43.41c0,0,0,0,0.01,0.01
			c17.74,19.36,34.08,39.82,43.37,55.18c0,0,0.01,0.02,0.04,0.07c9.37,15.44,27.86,38.16,42.84,74.09l0.02,0.02
			C845.95,428.83,856.12,468.64,856.12,521.47z"/>
		<path class="st2" d="M909.14,340.71c0,9.12-10.75,36.15-35.07,36.15c-17.26,0-52.17-18.2-71-28.78c-7.69-4.33-12.7-7.37-12.7-7.37
			v-16.44c0,0,42.79-24.84,77.12-16.43C901.83,316.23,909.14,331.57,909.14,340.71z"/>
		<path class="st2" d="M645.19,483.26c-0.21,17.49-1.08,33.34-3.38,38.21c-5.84,12.42-26.33,19.72-36.57,19.72
			c-5.88,0-13.4-9.02-17.37-22.7l-0.04-0.11c-2.93-10.16-3.91-22.86-0.8-36.35c7.3-31.73,36.41-64.25,36.41-64.25l20.83,7.28
			C644.28,425.06,645.52,456.12,645.19,483.26z"/>
		<path class="st2" d="M644.28,800.74l-0.04,0.09l-10.48,24.03l-8.81,20.24l-16.98,38.97c0,0-6.21,5.42-16.2,12.83
			c-1.6,1.18-3.29,2.42-5.08,3.69c-5.5,3.92-11.82,8.2-18.69,12.41c-19.56,11.99-43.46,23.47-64.96,24.82
			c-46.74,2.93-185.73-82.58-185.73-82.58s150.66,10.24,181.2,4.65c11.83-2.17,36.4-11.55,62.05-22.22
			c7.41-3.08,14.91-6.27,22.22-9.43c0,0,0.11-0.05,0.31-0.12c8.37-3.62,16.49-7.19,23.92-10.5c16.16-7.17,29.13-13.11,34.52-15.6
			c1.49-0.69,2.4-1.12,2.66-1.23C644.25,800.76,644.28,800.74,644.28,800.74z"/>
		<path class="st2" d="M677.73,892.27c-5.24,39.69-33.13,100.37-57.84,115.98c-29.47,18.64-65.97,24.31-100.38,24.01h-0.02
			c-59.41-0.51-112.58-18.76-112.58-18.76s112.98-17.75,141.42-38.46c17.16-12.5,33.33-50.21,43.45-78.14
			c1.69-4.65,3.2-9.02,4.52-12.97c3.92-11.65,6.18-19.54,6.18-19.54l18.04-27.47l14.79-22.52l0.01-0.02l8.91-13.57l0.05-0.07
			l19.71,4.36H664l0.74,0.16c0,0,0.04,0.1,0.1,0.28c0.16,0.41,0.48,1.28,0.94,2.56C669.54,818.89,682.19,858.38,677.73,892.27z"/>
	</g>
	<path class="st3" d="M801.22,579.54c-4.19,11.68-11.06,7.31-21.36,3.29c-10.3-4.02-22.27-8.39-34.51-4.93
		c-9.24,2.61-30.04,25.97-39.65,37.25c-1.69-35.69-10.27-74.37-16.79-93.67c-3.85-11.39-10.72-25.48-18.73-39.43
		c0.59,0.69,19.72,22.9,30.47,31.73c10.92,8.96,28.09,18.23,39.77,13.6c11.68-4.63,1.1-28.16,18.08-34.38
		c16.97-6.21,25.98,1.13,31.89,10.96c5.9,9.82,0,29.21,0,37.25C790.38,549.23,805.42,567.85,801.22,579.54z"/>
	<path class="st3" d="M801.22,372.91c-6.38,13.23-20.26-0.8-23,11.07c-2.75,11.87,12.17,33.8,12.17,41.08
		c0,7.28,0,12.41-10.53,18.08c-10.53,5.66-27.03,8.58-32.86-10.42c-5.84-18.99,0-35.42,0-47.11c0-11.68-6.56-35.79-8.22-44.91
		c-1.68-9.13-4.93-27.4,1.64-34.61c6.57-7.21,13.15,8.31,14.79,0c1.61-8.18-7.93-36.2-8.2-37.01
		c17.74,19.36,34.08,39.82,43.37,55.18c0,0,0.01,0.02,0.04,0.07C791.27,326.11,807.44,360.03,801.22,372.91z"/>
	<path class="st3" d="M651.57,813.86c1.28,5.69,3.03,11.22,0.1,16.9c-3.69,7.14-16.63,12.73-26.72,14.35
		c-3.92,0.63-7.41,0.65-9.76-0.06c-8.43-2.55-2.23-10.23-9.53-16.8c-6.71-6.03-20.34-1-22.57-0.12
		c26.56-11.49,50.56-22.47,58.45-26.11c5.81-11.64,12.97-26.23,20.36-41.83c2.19,3.4,4.56,8.22,4.56,13.29
		c0,9.44-10.77,16.58-14.79,27.28c-0.2,0.52-0.36,1.02-0.49,1.53C650.12,806.28,650.75,810.11,651.57,813.86z"/>
	<path class="st3" d="M746.99,633.81c0,8.18-3.65,18.76-8.21,25.11c-4.57,6.34-10.22,14.49-18.08,15.95
		c-7.73,1.42-23.34,4.28-23.86,4.38c3.41-9.56,5.89-17.85,7-24.1c1.12-6.34,1.76-13.21,2.02-20.42c3.96,0.46,9.59,0.64,14.84-0.91
		c9.4-2.77,9.86-15.92,18.08-12.63C746.99,624.46,746.99,625.62,746.99,633.81z"/>
	<path class="st3" d="M740.42,527.36c1.64,24.51-1.38,36.85-10.69,49.99s-25.77,16.43-25.77,16.43l-0.02-0.04
		c-3.24-28.87-9.8-56.8-15.02-72.28c-3.85-11.38-10.71-25.44-18.7-39.38c-0.01-0.02-0.02-0.04-0.04-0.05s-0.01-0.01-0.01-0.01
		c-11.01-19.15-24.16-38.05-34.51-49.3c-17.91-19.46-56.27-59.16-75.09-92.02c0,0,51.29,47.11,64.22,55.87
		c12.93,8.76,59.1,28.75,75.86,44.91C717.41,457.66,738.77,502.85,740.42,527.36z"/>
	<path class="st3" d="M856.12,521.47c0,63.49-14.27,109.96-32.05,143.78c-14.51,27.66-31.37,46.86-44.64,60.01
		c-2.51,2.49-5.71,5.3-9.43,8.37c-23,18.94-66.53,47.45-99.31,68.22l-5.85,3.7l-13.26,8.31l-7.33-13.03l-0.01-0.01l-0.02-0.04
		l-1.08-1.94c5.5-11.07,12.04-24.44,18.78-38.67c8.63-18.19,17.56-37.75,25.01-55.59l0.01-0.02c0,0-1.84,14.12,0.9,19.6
		s7.01,10.68,12.82,11.5c5.81,0.82,20.69-3.45,31.87-11.45c11.19-8,73.87-85.23,84.02-109.48s20.56-110.4,22.48-135.25
		c1.92-24.85-5.76-81.07-5.76-81.07l0.02,0.02C845.95,428.83,856.12,468.64,856.12,521.47z"/>
	<path class="st3" d="M909.14,340.71c0,9.12-10.75,36.15-35.07,36.15c-17.26,0-52.17-18.2-71-28.78l-5.89-7.37
		c0,0,47.44,13.87,37.45,10.95c-9.99-2.92,30.69,8.53,46.02,6.59S909.14,340.71,909.14,340.71z"/>
	<path class="st3" d="M645.25,441.77c-0.13,10.48,0.78,37.73,0,56.97c-0.52,12.86-2.52,20.78-3.43,22.73
		c-5.84,12.42-26.33,19.72-36.57,19.72c-5.88,0-13.4-9.02-17.37-22.7l-0.04-0.11l-1.15-4.62c0,0,17.21,8.94,28.5,4.47
		s15.95-7.44,18.96-14.29s5.75-69.3,5.75-69.3L645.25,441.77z"/>
	<path class="st3" d="M622.09,839.2l-25.8,44.74l-4.52,12.97c-5.42,4.47-16.9,11.88-23.76,16.1c0,0,14.1-44.07,15.09-50.79
		c0.98-6.72,3.18-16.44,0-21.91c-3.18-5.48-22.53-2.63-22.53-2.63c7.41-3.08,14.91-6.27,22.22-9.43c0,0,0.11-0.05,0.31-0.12
		c8.37-3.62,16.49-7.19,23.92-10.5l13.5,19.31L622.09,839.2z"/>
	<path class="st3" d="M677.73,892.27c-5.24,39.69-33.13,100.37-57.84,115.98c-29.47,18.64-65.97,24.31-100.38,24.01h-0.02
		c-0.3,0.45-31.84-1.1-42.78-3.17c0,0,70.13-8.88,83.86-15.7c13.74-6.82,47.29-21.92,61.53-39.44s38.97-70.66,40.58-87.65
		s-11.09-72.45-11.09-72.45l12.41-8.75l0.56-0.69l1.23,3.7C669.54,818.89,682.19,858.38,677.73,892.27z"/>
	<ellipse class="st3" cx="568.32" cy="287.02" rx="7.76" ry="11.5"/>
	
		<ellipse transform="matrix(0.0759 -0.9971 0.9971 0.0759 371.1933 860.4246)" class="st3" cx="649.79" cy="229.96" rx="7.76" ry="11.5"/>
</g>
<g>
	<g>
		<path class="st4" d="M520.29,773.47h-0.01c-7.44,20.04-23.68,36.13-31.97,41.62c-12.12,8.04-40.06,21.19-78.88,13.15
			c-9.08-1.87-18.2-4.79-27.31-8.8c-14.01-6.15-27.98-14.85-41.66-26.28l-0.05-0.04c0,0,0-0.01-0.01-0.02
			c-15.43-12.88-30.52-29.21-44.91-49.22c-4.06-5.63-7.96-11.49-11.71-17.56c-8.99-14.56-17.06-30.33-24.07-47.11
			c-3.73-8.92-7.19-18.14-10.3-27.61v-0.01c-3.71-11.2-6.98-22.77-9.76-34.65c0-0.01,0-0.01,0-0.01
			c-4.71-20.08-8.05-41.02-9.89-62.59c-1.15-13.5-0.52-27.99,1.49-42.91l0.01-0.09c2.88-21.66,8.66-44.15,16.02-65.67v-0.01
			c15.25-44.62,37.31-85.05,54.79-104.96c7.26-8.28,16.82-17.54,27.26-26.89c25.79-23.11,56.88-46.8,71.59-57.77
			c5.34-3.97,8.52-6.27,8.52-6.27l14.06-13.24l23.17-21.82c-0.39,0.91-16.81,37.69-31.1,77.03c-8.41,23.18-16.07,47.26-19.29,65.39
			c-3.35,18.94-5.9,41.4-6.84,64.59c-1.02,25.42-0.11,51.71,3.8,75.22v0.01c1.23,7.41,2.76,14.54,4.62,21.27
			c0.71,2.59,1.48,5.12,2.29,7.58c0.17,0.52,0.35,1.04,0.52,1.55c8.34,24.42,22.16,43.68,36.46,60.95
			c13.71,16.59,27.87,31.36,38.04,47.11c20.76,32.13,42.07,75.96,48.21,108.46C525.31,754.15,523.73,764.22,520.29,773.47z"/>
		<path class="st4" d="M707.54,76.66c0,0-72.3,24.65-104.08,42.73c-17.05,9.7-62.52,38.55-83.27,52.04
			c-8.95,5.82-28.2,21.11-47.18,36.62c-10.56,8.62-21.04,17.31-29.62,24.47l-1.58,1.31c-10.87,9.08-18.33,15.39-18.33,15.39v-10.92
			c0,0,7.33-14.45,19.22-33.88l0.01-0.02c3.69-6.03,7.8-12.55,12.29-19.26l0.02-0.04c9.89-14.83,21.5-30.6,33.94-44.34
			c36.27-39.98,79.73-60.83,88.74-64.09c36.08-13.05,77.96-9.74,104.18-5.45C697.49,73.76,707.54,76.66,707.54,76.66z"/>
		<path class="st4" d="M541.19,48.15c0.36-0.2,0.65-0.38,0.89-0.53c-5.36,4.98-45.43,42.24-53.1,50.41
			c-8.37,8.92-33.75,60.09-38.84,78.88c-5.08,18.78-18.04,66.72-18.04,66.72l-8.05,2.38l-2.55,0.75l-10.18,3.01
			c0,0,0.54-5.44,1.47-13.72c2.22-20.12,6.62-56.99,10.71-73.12c5.78-22.73,30.91-59.36,37.54-68.2
			c5.98-7.95,69.28-40.17,80.12-46.57L541.19,48.15z"/>
		<path class="st4" d="M542.1,47.6c0.26-0.25,0.43-0.41,0.52-0.49l0.05-0.04C542.84,47.07,542.63,47.26,542.1,47.6z"/>
		<path class="st4" d="M299.32,713.59c0,0-6.51,5.45-15.55,10.95h-0.01c-7.43,4.51-16.58,9.05-25.22,10.59h-0.04
			c-1.97,0.35-3.92,0.54-5.82,0.54c-20.28,0-70.88-7.38-78.88-8.22c-8-0.83-13.32-7.3-9.86-14.79c3.46-7.48,32.33-37.06,44.37-43.28
			c12.04-6.2,17.9-4.75,28.61,0c10.7,4.75,50.49,30.56,50.49,30.56L299.32,713.59z"/>
		<path class="st4" d="M488.97,579.54c0,2.81-2.16,20.71-4.25,37.45l-0.01,0.01c-0.04,0.42-0.1,0.83-0.15,1.23l-0.26,2.03
			c-0.02,0.2-0.05,0.41-0.07,0.6l-0.95,7.43c-0.36,2.9-0.7,5.61-1.02,8.04c-0.1,0.8-0.2,1.59-0.3,2.33l-0.81,6.31v0.01
			c-0.04,0.23-0.06,0.44-0.09,0.64l-0.09,0.62l-0.07,0.65l-0.11,0.83l-11.88-21.14l-9.07-16.12c0,0-1.76-8.01-1.26-16.5
			c0.16-2.64,0.54-5.34,1.26-7.84c0.16-0.55,0.33-1.1,0.53-1.61c3.5-9.58,12.68-14.83,20.42-14.83
			C488.97,569.68,488.97,574.07,488.97,579.54z"/>
	</g>
	<path class="st5" d="M332.12,506.87c-5.98,11.36-18.38,11.8-25.56,6.9c-7.19-4.89-2.43-14.75-7.24-18.59
		c-4.82-3.83-29.26,2.55-27.81,13.88c1.44,11.31,2.35,9.03,5.83,13.67c3.46,4.63,11.68,20.52,7.3,27.97
		c-4.38,7.43-24.84,8.76-29.94,10.22c-5.12,1.47-12.97-12.6-13.15-19.72c-0.18-7.12,5.12-17.6,2.19-27.42
		c-2.92-9.82-12.66,0-12.66,0l0.15-2.33l0.01-0.09c2.88-21.66,8.66-44.15,16.02-65.67v-0.01l2.34-1.36c0,0,1.8,11.61,5.82,17.27
		c4.02,5.66,11.87,8.58,17.53,0c5.66-8.58-3.83-28.15-0.73-38.71c3.11-10.56,17.9-12.78,21.18-10.22c3.29,2.55-1.64,25.92,0,32.86
		c1.65,6.94,5.12,17.35,12.42,21.19c7.3,3.83,15.7-5.3,24.1,1.45C338.33,474.91,338.1,495.5,332.12,506.87z"/>
	<path class="st5" d="M437.12,588.31c-5.95,1.91-14.33,5.47-22.47,5.47c-8.84,0-15.52-3.29-20.45-7.31
		c-4.93-4.02-9.31-16.8-7.3-25.49c2-8.69,6.75-12.13,6.57-19.79c-0.15-6.03-3.67-16.76-5.18-21.09c-0.41-1.17-0.67-1.87-0.67-1.87
		h10.22c0.71,2.59,1.48,5.12,2.29,7.58c0.17,0.52,0.35,1.04,0.52,1.55C409.01,551.78,422.82,571.05,437.12,588.31z"/>
	<path class="st5" d="M405.01,647.72c-7.76,4.67-17.66-16.51-28.32-13.04c-10.66,3.47,1.94,14.43-4.09,18.26s-17.89-8.91-33.6-16.07
		c-15.7-7.16-27.76,14.61-27.76,14.61s0.16,39.11,4.19,48.97c4.03,9.86,10.48,18.22,14.8,18.22s1.83-33.78,7.3-40.17
		c5.48-6.39,23.37-3.1,29.22,0.73c5.84,3.83,5.84,21.22,14.61,21.22s17.34-6.61,23.64-13.18c6.3-6.57,4.52-17.02,10.16-22.02
		c5.64-5,12.94,5.12,20.25,0c7.3-5.12,9.13-19.61,4.38-26.92c-4.75-7.3-16.58-10.69-24.63-7.3
		C407.11,634.42,412.77,643.05,405.01,647.72z"/>
	<path class="st5" d="M415.56,291.75c-8.41,23.18-16.07,47.26-19.29,65.39c-3.35,18.94-5.9,41.4-6.84,64.59
		c-2.61-1.49-5.24-3-6.91-3.94c-4.39-2.49-16.04-5.13-22.64,0c-6.61,5.14-18.27,41.61-22.64,38.69c-4.39-2.92-0.22-18.4,1.45-26.29
		c1.69-7.9,0.18-25.38,3.66-35.07c3.46-9.68,14.05-15.52,23.37-18.25c9.32-2.74,17.53,0,21.19-5.84c3.65-5.84,0-16.61-5.12-18.27
		c-5.12-1.64-10.6,5.48-19.72,2.92c-8.49-2.38-14.46-10.44-11.72-20.37c0.21-0.75,0.46-1.5,0.76-2.27
		c2.21-5.51,6.08-8.94,10.4-11.29c4.26-2.32,8.99-3.6,12.97-4.77c8-2.38,15.35,0.17,17.53-5.12c0.51-1.22,0.51-2.82,0.33-4.63
		c-0.44-4.68-2.06-10.72,0.92-14.91c0.86-1.21,2.11-2.27,3.86-3.09C404.95,285.52,412.46,289.62,415.56,291.75z"/>
	<path class="st6" d="M295.6,574.06c-3.01-2.33-0.3-13.24,7.24-15.94c7.55-2.7,21.06-6.08,24.16,0s-8.79,13.02-9.69,18.86
		s0.56,8.58,3.12,12.42c2.56,3.83,19.36,6.99,21.91,13.15c2.56,6.15,0.06,10.59-2.92,14.61c-2.98,4.02-2.56,16.25-0.73,26.29
		c1.83,10.04,14.24,14.39,8.03,21.8c-6.21,7.41-14.06-3.03-26.29,0s-25.56,13.99-32.87,13.99c-7.3,0-14.97-2.01-18.26-9.5
		c-3.29-7.49,0.06-22.46-2.16-29.2c-2.22-6.74-8.31-11.53-11.72-17.55c-3.41-6.02-3.41-26.6-3.41-20.45s-2.44-25.75,9.25-28.49
		c11.69-2.74,21.54,8.42,27.02,8.03c5.48-0.39,12.05,2.09,11.84-1.73C300.03,578.5,298.61,576.39,295.6,574.06z"/>
	<path class="st6" d="M400.14,525.81l-4.75-3.08l-7.1-2.63l-5.05-1.87c-7.42,0.01-2.93,22.97-4.67,22.96
		c-4.67-0.01-6.83,0-11.39-5.84c-4.57-5.84-20.46-42.91-15.35-48.54c5.12-5.62,14.64,15.49,21.91,14.94
		c7.27-0.54,0.18-8.76,5.79-10.22c4.01-1.05,10.37,3.02,13.68,5.41v0.01c1.23,7.41,2.76,14.54,4.62,21.27
		C398.57,520.82,399.33,523.35,400.14,525.81z"/>
	<path class="st6" d="M405.89,275.33c-3.35,5.66-10.4,2.55-12.41,10.22c-0.62,2.35-0.52,4.6-0.21,6.75
		c0.74,4.87,2.63,9.32,0.05,13.79c-0.25,0.43-0.58,0.8-0.97,1.12c-5.58,4.61-24.96-0.18-29.2,3.91c-2.18,2.1-1.85,6.29-1.63,10.61
		c0.23,4.7,0.32,9.55-3.11,12.03c-1.92,1.39-4.86,1.76-8.06,1.53c-7.77-0.58-17.18-4.71-18.23-6.64c-1.45-2.74,0-2.01,0-5.12
		c0-3.11-5.98-5.13-5.98-5.13l3.18-4.6c25.79-23.11,56.88-46.8,71.59-57.77l1.63,0.18C402.54,256.23,409.24,269.67,405.89,275.33z"
		/>
	<path class="st6" d="M520.28,773.47c-7.44,20.04-23.68,36.13-31.97,41.62c-12.12,8.04-40.06,21.19-78.88,13.15
		c-9.08-1.87-18.2-4.79-27.31-8.8c-14.01-6.15-27.98-14.85-41.66-26.28l-0.05-0.04c0,0,0-0.01-0.01-0.02
		c-15.43-12.88-30.52-29.21-44.91-49.22c-4.06-5.63-7.96-11.49-11.71-17.56l-0.81-1.35l-23.24-45.74l-0.02-0.02
		c-3.73-8.92-7.19-18.14-10.3-27.61v-0.01c-3.71-11.2-6.98-22.77-9.76-34.65c0-0.01,0-0.01,0-0.01
		c-4.71-20.08-8.05-41.02-9.89-62.59c-1.15-13.5-0.52-27.99,1.49-42.91l0.01-0.09c2.88-21.66,8.66-44.15,16.02-65.67v-0.01
		c15.25-44.62,37.31-85.05,54.79-104.96c7.26-8.28,16.82-17.54,27.26-26.89c25.79-23.11,56.88-46.8,71.59-57.77
		c5.34-3.97,8.52-6.27,8.52-6.27l14.06-13.24v12.68c0,0-71.19,62.83-97.35,98.7s-52.05,124.26-54.63,161.14
		c-2.57,36.88,15.88,107.3,27.81,136.22c11.93,28.92,70.15,118.75,87.08,128.19c16.93,9.44,29.74,26.22,72.09,26.75
		S520.28,773.47,520.28,773.47z"/>
	<path class="st6" d="M527.18,55.8c0,0-23.42,18.67-38.21,30.35c-14.79,11.68-38.16,33.61-48.02,62.27
		c-9.86,28.66-16.91,97.58-16.91,97.58l-0.55,3.2l-2-2.45l-10.18,3.01l1.47-13.72c2.22-20.12,6.62-56.99,10.71-73.12
		c5.78-22.73,30.91-59.36,37.54-68.2C467.01,86.79,516.39,61.72,527.18,55.8z"/>
	<path class="st6" d="M283.75,724.54c-7.43,4.51-16.58,9.05-25.22,10.59h-0.04c-1.97,0.35-3.92,0.54-5.82,0.54
		c-20.28,0-70.88-7.38-78.88-8.22c-8-0.83-13.32-7.3-9.86-14.79c3.46-7.48,32.33-37.06,44.37-43.28c0,0-7.3,12.74-8.02,21.91
		c-0.73,9.17,0,17.17,4.02,22.27c4.02,5.12,14.42,10.96,24.87,12.42c7.5,1.05,35.11,5.2,52.55-4.84
		C286.15,718.6,283.52,724.55,283.75,724.54z"/>
	<path class="st6" d="M484.23,620.87l-0.95,7.43l-1.02,8.04l-0.3,2.33l-0.81,6.31l-12.24-18.39l-9.07-16.12c0,0-1.76-8.01-1.26-16.5
		c0.16-2.64,0.54-5.34,1.26-7.84c0.16-0.55,0.33-1.1,0.53-1.61c0,0,1.21,6.92,2.03,13.03s7.03,21.46,10.69,24.01
		c3.65,2.55,8.68,1.91,8.68,1.91L484.23,620.87z"/>
	<path class="st6" d="M470.35,202.66c1.09,4.65,2.66,5.39,2.66,5.39l-29.62,24.47l-6.79,5.62l6.1-33.72l0.01-0.02
		c3.69-6.03,7.8-12.55,12.29-19.26l0.02-0.04c9.89-14.83,21.5-30.6,33.94-44.34c0,0-17.53,33.46-18.62,40
		S469.26,198.01,470.35,202.66z"/>
	
		<ellipse transform="matrix(0.9786 -0.2058 0.2058 0.9786 -139.8236 120.7279)" class="st6" cx="510.31" cy="732.36" rx="4.38" ry="11.82"/>
	
		<ellipse transform="matrix(0.1751 -0.9845 0.9845 0.1751 -406.7094 1062.0448)" class="st6" cx="430.45" cy="773.74" rx="7.67" ry="14.24"/>
</g>
<ellipse transform="matrix(0.8539 -0.5205 0.5205 0.8539 -274.5359 339.8819)" class="st7" cx="468.06" cy="658.89" rx="5.8" ry="58.67"/>
<ellipse transform="matrix(0.5996 -0.8003 0.8003 0.5996 -42.1619 632.2093)" class="st8" cx="610.77" cy="358.24" rx="7.91" ry="36.3"/>
</svg>
