<?xml version="1.0" encoding="utf-8"?>
<!-- Generator: Adobe Illustrator 26.0.3, SVG Export Plug-In . SVG Version: 6.00 Build 0)  -->
<svg version="1.1" id="Слой_1" xmlns="http://www.w3.org/2000/svg" xmlns:xlink="http://www.w3.org/1999/xlink" x="0px" y="0px"
	 viewBox="0 0 1080 1080" style="enable-background:new 0 0 1080 1080;" xml:space="preserve">
<style type="text/css">
	.st0{fill:#FFEFAE;}
	.st1{fill:#FFD731;}
	.st2{fill:#005318;}
	.st3{fill:#002716;}
	.st4{fill:#FFDF69;}
	.st5{fill:#1EEF00;}
	.st6{fill:#00B700;}
	.st7{fill:#A4FF5C;}
	.st8{fill:#E7FFAB;}
	.st9{fill:#726D00;}
	.st10{fill:#FFEA8C;}
	.st11{fill:#FFFDE0;}
	.st12{fill:#FFEE1E;}
	.st13{fill:#FFF16E;}
	.st14{fill:#FFF5CC;}
	.st15{fill:#FFA91F;}
	.st16{fill:#FFCB4A;}
	.st17{fill:#FFEB97;}
	.st18{fill:#FF9017;}
	.st19{fill:#EA6F00;}
	.st20{fill:#A000E2;}
	.st21{fill:#BF36FF;}
	.st22{fill:#DCA1FF;}
	.st23{fill:#006D1C;}
	.st24{fill:#008C1E;}
	.st25{fill:url(#SVGID_1_);}
	.st26{fill:#FF9E78;}
	.st27{fill:#FF855F;}
	.st28{fill:#086B00;}
	.st29{fill:#FFBDA6;}
	.st30{fill:#688E00;}
	.st31{fill:#FF8D73;}
	.st32{fill:#FF6D00;}
	.st33{fill:#FF7F29;}
	.st34{fill:#6CC900;}
	.st35{fill:#599E00;}
	.st36{fill:#8AE200;}
	.st37{fill:#616800;}
	.st38{fill:#CC4400;}
	.st39{fill:#CE0000;}
	.st40{fill:#FFAA88;}
	.st41{fill:#F72300;}
	.st42{fill:#FF3600;}
	.st43{fill:#DD0000;}
	.st44{fill:#FF5C36;}
	.st45{fill:#FF8269;}
	.st46{fill:#8C004D;}
	.st47{fill:#399B00;}
	.st48{fill:#2B7C00;}
	.st49{fill:#5EBF00;}
	.st50{fill:#B2006A;}
	.st51{fill:#FF6ED3;}
	.st52{fill:#7CDB00;}
	.st53{fill:#86D300;}
	.st54{fill:#5DB500;}
</style>
<linearGradient id="SVGID_1_" gradientUnits="userSpaceOnUse" x1="129.4317" y1="313.8096" x2="499.0846" y2="507.1978">
	<stop  offset="0" style="stop-color:#008927"/>
	<stop  offset="0.3782" style="stop-color:#028926"/>
	<stop  offset="0.5144" style="stop-color:#098724"/>
	<stop  offset="0.6115" style="stop-color:#148420"/>
	<stop  offset="0.69" style="stop-color:#25801A"/>
	<stop  offset="0.7572" style="stop-color:#3B7A13"/>
	<stop  offset="0.8156" style="stop-color:#56740A"/>
	<stop  offset="0.8633" style="stop-color:#726D00"/>
</linearGradient>
<path class="st25" d="M632.64,389.9l-25.17,4.89c0,0-8.78-7.42-20.75-17.42c-22.78-19.05-57.11-47.47-64.28-51.92
	c-5.76-3.57-14.48-6.93-25-8.11c-4.31-0.48-8.92-0.6-13.74-0.2c-5.78,0.46-11.88,1.65-18.15,3.79
	c-24.34,8.31-84.9,91.63-105.34,103.19c-20.45,11.56-54.07,18.09-91.55,26.67c-29.36,6.72-89.81,15.45-124.52,27.34
	c-21.41,7.33-39.12,17.47-48.68,23.51l-0.03,0.03h-0.01c-4.9,3.1-7.65,5.12-7.65,5.12s8.61-25.32,26.67-58.37c0,0,0,0,0.01-0.01
	c22.96-42.04,61.2-96.59,116.43-127.48c77.86-43.54,141.34-40.81,179.56-40.81c9.26,0,18.83,0.55,28.44,1.6l0.02,0.01
	c30.04,3.27,60.4,11.36,82.52,22.39c2.04,1.02,4.35,2.32,6.87,3.85c18.44,11.22,48.31,35.01,71.38,54.09
	C618.4,377.54,632.64,389.9,632.64,389.9z"/>
<g>
	<path class="st26" d="M838.84,799.95c-81.64,42.93-180.52,25.7-253.71-35.56c-27.15-22.71-50.76-51.49-68.64-85.51
		c-66.1-125.71-28.96-275.33,82.96-334.18c47.27-24.86,100.32-29.54,150.82-17.2c69.05,16.88,133.34,65.64,171.52,138.26
		C987.91,591.48,950.77,741.1,838.84,799.95z"/>
	<path class="st27" d="M735.96,747.2c-47.27,24.86-100.33,29.54-150.83,17.19c-27.15-22.71-50.76-51.49-68.64-85.51
		c-66.1-125.71-28.96-275.33,82.96-334.18c47.27-24.86,100.32-29.54,150.82-17.2c27.15,22.71,50.76,51.49,68.64,85.51
		C885.03,538.72,847.89,688.34,735.96,747.2z"/>
	<path class="st26" d="M832.39,712.96c-10.49,24.86-25.15,47.55-43.69,66.83c-15.07,15.69-32.71,29.14-52.74,39.67
		c-2.55,1.34-5.11,2.62-7.69,3.83c-39.36,18.67-82.33,23.81-124.26,17.16c-6.9-1.09-13.78-2.5-20.6-4.24
		c-8.5-2.13-16.92-4.76-25.22-7.86c-58.57-21.82-111.41-66.9-144.57-129.96c-46.27-88-41.95-187.72,3.2-259.81
		c19.34-30.89,46.19-56.71,79.76-74.37c34.83-18.31,72.8-25.68,110.57-23.35c83.6,5.16,166.24,57.83,211.77,144.42
		c16.02,30.47,25.98,62.34,30.27,93.99C855.55,626.1,849.52,672.42,832.39,712.96z"/>
	<path class="st26" d="M923.67,717.05c-0.01,0.03-0.03,0.07-0.04,0.1c-7.64,18.83-15.21,31.66-22.84,44.63
		c-8.28,14.07-16.64,28.31-25.25,50.55c-9.14,23.6-23.87,31.97-54.05,34.26c-20.18,1.52-136.72,7.86-217.48-6.14
		c-7.18-1.24-14.08-2.65-20.6-4.24c-9.2-2.22-17.64-4.81-25.08-7.8c-0.05-0.02-0.1-0.04-0.14-0.06
		c-21.16-8.63,4.34-26.79,50.1-46.62c8.23-3.57,17.12-7.19,26.51-10.82c5.59-2.16,11.37-4.33,17.29-6.49
		c34.61-12.63,74.21-25.03,112.28-35.27c23.8-6.4,47-11.95,68.02-16.19C889.53,701.44,930.57,699.65,923.67,717.05z"/>
</g>
<path class="st28" d="M497.44,317.34c-4.31-0.48-8.92-0.6-13.74-0.2c-5.78,0.46-11.88,1.65-18.15,3.79
	c-24.34,8.31-84.9,91.63-105.34,103.19c-20.45,11.56-54.07,18.09-91.55,26.67c-29.36,6.72-89.81,15.45-124.52,27.34
	c-21.41,7.33-39.12,17.47-48.68,23.51c1.69-1.37,38.54-37.22,70.98-53.52c15.65-7.86,112.15-39.41,134.67-54.68
	c22.52-15.28,55.11-67.69,69.33-76.1c14.22-8.4,32.59-12.02,57.33-12.02c14.38,0,35.59,4.06,50.82,7.46l0.01,0.01
	C489.57,315.24,497.44,317.34,497.44,317.34z"/>
<ellipse transform="matrix(0.212 -0.9773 0.9773 0.212 57.6764 936.5075)" class="st29" cx="609.59" cy="432.49" rx="44.44" ry="58.68"/>
<ellipse transform="matrix(0.5 -0.866 0.866 0.5 -47.7706 857.9867)" class="st29" cx="719.15" cy="470.36" rx="18.81" ry="24.83"/>
<path class="st31" d="M900.79,761.78c-8.28,14.07-16.64,28.31-25.25,50.55c-9.14,23.6-23.87,31.97-54.05,34.26
	c-20.18,1.52-136.72,7.86-217.48-6.14c-6.9-1.09-13.78-2.5-20.6-4.24c-9.2-2.22-17.64-4.81-25.08-7.8c-0.05-0.02-0.1-0.04-0.14-0.06
	c-58.57-21.82-111.41-66.9-144.57-129.96c-46.27-88-41.95-187.72,3.2-259.81c-0.25,5.19-0.38,10.41-0.38,15.66
	c0,96.78,42.72,183.59,110.33,242.59c35.71,31.16,78.35,54.56,125.32,67.59c5.79,1.6,11.64,3.05,17.56,4.33
	c12.02,2.61,24.29,4.55,36.77,5.78c5.67,0.56,11.39,0.95,17.15,1.21c15.41,1.1,39.89,2.76,65.13,4.05
	c30.11,1.53,61.29,2.54,79.44,1.45c5.51-0.32,9.81-0.84,12.52-1.6C886.96,777.88,893.93,770.99,900.79,761.78z"/>
</svg>
