<?xml version="1.0" encoding="utf-8"?>
<!-- Generator: Adobe Illustrator 26.0.3, SVG Export Plug-In . SVG Version: 6.00 Build 0)  -->
<svg version="1.1" id="Слой_1" xmlns="http://www.w3.org/2000/svg" xmlns:xlink="http://www.w3.org/1999/xlink" x="0px" y="0px"
	 viewBox="0 0 1080 1080" style="enable-background:new 0 0 1080 1080;" xml:space="preserve">
<style type="text/css">
	.st0{fill:url(#SVGID_1_);}
	.st1{fill:#FF7B22;}
	.st2{fill:#FF761A;}
	.st3{fill:#934200;}
	.st4{fill:#FFD7A6;}
	.st5{fill:#FF4D1D;}
	.st6{fill:#661300;}
	.st7{fill:#FFEDD9;}
	.st8{fill:#FFB380;}
	.st9{fill:none;}
	.st10{fill:url(#SVGID_00000115513293583049514720000011967937439772703366_);}
	.st11{fill:url(#SVGID_00000079464174747221655740000001991331103046154915_);}
	.st12{fill:url(#SVGID_00000038388754198184003720000000430185360473214629_);}
	.st13{fill:url(#SVGID_00000030456374722428996050000001361600170227856289_);}
	.st14{fill:url(#SVGID_00000040561189143245200610000011342205181723026354_);}
	.st15{fill:url(#SVGID_00000139277210235104507250000015924880317764728977_);}
	.st16{fill:url(#SVGID_00000137114315494131671730000006885389444160420795_);}
	.st17{fill:url(#SVGID_00000114046116765028086600000006721167768149881757_);}
	.st18{fill:url(#SVGID_00000181045747520498198920000009699545271059225756_);}
	.st19{fill:url(#SVGID_00000150798845980742754750000014457576469698420402_);}
	.st20{fill:url(#SVGID_00000125588685134702664650000008498797925786358145_);}
	.st21{fill:url(#SVGID_00000129912724951976750480000016688839445053438628_);}
	.st22{fill:url(#SVGID_00000091701015162124393210000010864186566039034283_);}
	.st23{fill:url(#SVGID_00000145739967321554847180000015145547550934480810_);}
	.st24{fill:url(#SVGID_00000092430608102645934280000006150671096358950832_);}
	.st25{fill:url(#SVGID_00000137104385311849669370000002652041989158501012_);}
	.st26{fill:url(#SVGID_00000000912024441613574650000016844813503821461412_);}
	.st27{fill:url(#SVGID_00000151505623557117065920000015835764668989685660_);}
</style>
<g>
	<rect x="219.91" y="47.66" class="st9" width="3.96" height="984.68"/>
	<radialGradient id="SVGID_1_" cx="1464.702" cy="541.8573" r="1240.8263" gradientUnits="userSpaceOnUse">
		<stop  offset="0.0112" style="stop-color:#B0FFB3"/>
		<stop  offset="0.2301" style="stop-color:#ADFEB3"/>
		<stop  offset="0.3886" style="stop-color:#A4FBB1"/>
		<stop  offset="0.5282" style="stop-color:#94F6AF"/>
		<stop  offset="0.6569" style="stop-color:#7EEEAC"/>
		<stop  offset="0.778" style="stop-color:#61E5A9"/>
		<stop  offset="0.8919" style="stop-color:#3ED9A4"/>
		<stop  offset="1" style="stop-color:#15CC9F"/>
	</radialGradient>
	<path class="st0" d="M1007.79,408.79v0.04c3.71,22.28,8.3,43.74,13.9,63.98c2.15,7.78,4.45,15.38,6.89,22.8
		c0.52,1.56,1.04,3.11,1.56,4.67c3.92,11.46,8.27,22.5,12.94,33.24V47.66h-35.2c-5.53,42.3-9.62,88.11-11.51,134.92
		C993.29,259.01,996.04,338.07,1007.79,408.79z"/>
	
		<radialGradient id="SVGID_00000072243717099917814460000001769291446844063394_" cx="1464.702" cy="541.8573" r="1240.8263" gradientUnits="userSpaceOnUse">
		<stop  offset="0.0112" style="stop-color:#B0FFB3"/>
		<stop  offset="0.2301" style="stop-color:#ADFEB3"/>
		<stop  offset="0.3886" style="stop-color:#A4FBB1"/>
		<stop  offset="0.5282" style="stop-color:#94F6AF"/>
		<stop  offset="0.6569" style="stop-color:#7EEEAC"/>
		<stop  offset="0.778" style="stop-color:#61E5A9"/>
		<stop  offset="0.8919" style="stop-color:#3ED9A4"/>
		<stop  offset="1" style="stop-color:#15CC9F"/>
	</radialGradient>
	<path style="fill:url(#SVGID_00000072243717099917814460000001769291446844063394_);" d="M336.65,1032.34
		c30.07-35.33,87.34-90.71,115.04-105c36.21-18.64,53.82-14.27,86.03,0c13.92,6.18,44.22,24.21,74.12,42.69
		c-1.89-4.36-3.79-8.71-5.63-13.11c-11.23-26.84-21.61-54.56-30.99-83.03v-0.04c-11.16-33.69-20.98-68.46-29.36-104.19
		c0-0.04,0-0.04,0-0.04c-14.16-60.38-24.2-123.35-29.73-188.22c-3.45-40.59-1.56-84.18,4.49-129.03l0.04-0.26
		c8.67-65.12,26.06-132.77,48.19-197.49v-0.04c25.97-76,58.52-147.94,91.41-206.94H223.88v984.68H336.65z"/>
	<path class="st4" d="M972.11,1020.81c-26.36,0-26.36-52.28-43.93-63.81c-17.57-11.53-71.39-21.42-87.86-2.2
		c-9.23,10.77-10.93,47.4-12.93,77.54h215.69v-51.04C1024.13,1001.03,998.4,1020.81,972.11,1020.81z"/>
	<path class="st4" d="M761.27,925.23c0.45,0.79,0.89,1.57,1.34,2.37c-0.04-0.98-0.08-1.96-0.12-2.93
		C762.08,924.86,761.68,925.04,761.27,925.23z"/>
	<path class="st4" d="M707.59,254.12c4.97,20.87,15.38,52.19,37.36,63.72c21.94,11.53,47.22-15.94,72.46,4.37
		c25.28,20.31,24.57,82.25,6.6,116.42c-17.98,34.17-55.27,35.47-76.87,20.76c-21.61-14.72-7.3-44.37-21.76-55.9
		c-13.1-10.42-74.37,4.26-82.82,32.32c-0.31,3.24-0.59,6.39-0.8,9.41c4.34,34.03,7.08,27.17,17.53,41.11
		c10.42,13.94,35.14,61.71,21.94,84.1c-4.67,7.93-15.44,13.55-28.07,17.69c3.72,21.8,8.13,44.05,13,66.11
		c10.51,5.85,19.37,11.1,26.07,10.63c16.49-1.17,36.24,6.3,35.59-5.22c-0.32-5.62-4.57-11.94-13.63-18.94
		c-9.06-7-0.91-39.8,21.78-47.93c22.69-8.12,63.33-18.27,72.66,0c9.34,18.27-26.43,39.14-29.14,56.71
		c-2.71,17.57,1.68,25.81,9.37,37.34c7.69,11.53,58.21,21.03,65.9,39.54c7.69,18.5,0.18,31.85-8.79,43.93
		c-6.92,9.32-7.72,33.35-5.21,57.72c1.31,0.47,2.62,0.98,3.94,1.59c47.22,21.53,82.92,59.85,101.04,48.32
		c18.12-11.53-19.77-44.48,12.3-54.91c32-10.41,61.72,53,85.03,39.27V695.65c-12.82-4.02-23.53-10.42-32.36-17.61
		c-14.83-12.08-27.98-50.52-21.94-76.65c6-26.13,20.31-36.47,19.76-59.53c-0.45-18.13-11.05-50.41-15.57-63.42l-15.2-5.63
		c-22.31,0.04-8.82,69.09-14.05,69.05c-14.05-0.04-20.53,0-34.25-17.57c-13.75-17.57-61.53-129.03-46.15-145.97
		c15.38-16.9,44.03,46.59,65.9,44.92c21.87-1.63,0.56-26.35,17.42-30.73c12.05-3.15,31.17,9.08,41.14,16.27
		c-11.75-70.72-14.49-149.78-11.42-226.21c-7.86-4.49-15.75-9.01-20.79-11.86c-13.2-7.49-48.22-15.42-68.09,0
		c-19.87,15.46-54.93,125.13-68.09,116.35c-13.2-8.78-0.67-55.34,4.37-79.06c5.08-23.76,0.56-76.32,11.01-105.45
		c10.42-29.1,42.26-46.67,70.28-54.89H756.74c-16.39,35.04-32.03,74.41-46.23,114.91C713.49,182.86,703.4,236.36,707.59,254.12z"/>
	<path class="st4" d="M606.29,956.99l-0.07-0.07c1.84,4.4,3.74,8.75,5.63,13.11c0.52,0.32,1.04,0.64,1.56,0.97L606.29,956.99z"/>
	<path class="st4" d="M611.84,970.03c-29.9-18.48-60.2-36.51-74.12-42.69c-32.21-14.27-49.82-18.64-86.03,0
		c0,0-21.94,38.33-24.13,65.9c-1.13,14.21-1.08,27.47,0.87,39.1h216.14L613.41,971C612.88,970.68,612.36,970.35,611.84,970.03z"/>
	<path class="st5" d="M725.38,403.49c14.46,11.53,0.15,41.18,21.76,55.9c21.61,14.72,58.9,13.42,76.87-20.76
		c17.98-34.17,18.68-96.11-6.6-116.42c-25.24-20.31-50.52,7.15-72.46-4.37c-21.98-11.53-32.4-42.85-37.36-63.72
		c-4.19-17.75,5.9-71.25,2.92-91.55c-35.36,100.87-61.7,208.6-67.95,273.25C651.02,407.75,712.29,393.07,725.38,403.49z"/>
	<path class="st5" d="M681.24,570.44c13.2-22.39-11.53-70.17-21.94-84.1c-10.45-13.94-13.2-7.08-17.53-41.11
		c-2.69,38.59,2.27,89.4,11.4,142.9C665.79,583.98,676.57,578.37,681.24,570.44z"/>
	<path class="st5" d="M1028.58,495.6l-14.27-9.27l-21.35-7.9c4.52,13.01,15.12,45.29,15.57,63.42c0.56,23.06-13.75,33.4-19.76,59.53
		c-6.04,26.13,7.12,64.57,21.94,76.65c8.83,7.19,19.54,13.59,32.36,17.61V533.51c-4.66-10.74-9.02-21.78-12.94-33.24
		C1029.62,498.71,1029.1,497.16,1028.58,495.6z"/>
	<path class="st5" d="M958.05,823.02c-32.07,10.43,5.82,43.38-12.3,54.91c-18.12,11.53-53.81-26.79-101.04-48.32
		c-1.32-0.6-2.64-1.12-3.94-1.59c0.74,7.21,1.76,14.46,3.02,21.36c5.49,30.2,42.83,43.27,24.16,65.57
		c-18.67,22.29-42.28-9.11-79.07,0c-8.71,2.16-17.59,5.66-26.39,9.73c0.04,0.97,0.08,1.95,0.12,2.93
		c18.02,31.76,40.19,68.19,63.69,104.75h1.09c2-30.13,3.7-66.76,12.93-77.54c16.47-19.22,70.29-9.34,87.86,2.2
		c17.57,11.53,17.57,63.81,43.93,63.81c26.29,0,52.02-19.78,70.96-39.51V862.29C1019.77,876.02,990.05,812.6,958.05,823.02z"/>
	<path class="st5" d="M854.78,102.55c-10.45,29.13-5.93,81.69-11.01,105.45c-5.04,23.72-17.57,70.28-4.37,79.06
		c13.16,8.78,48.22-100.89,68.09-116.35c19.87-15.42,54.89-7.49,68.09,0c5.04,2.85,12.94,7.38,20.79,11.86
		c1.89-46.81,5.98-92.62,11.51-134.92h-82.82C897.04,55.89,865.2,73.46,854.78,102.55z"/>
	<path class="st6" d="M788.87,914.94c36.79-9.11,60.4,22.29,79.07,0c18.67-22.29-18.67-35.36-24.16-65.57
		c-1.25-6.9-2.27-14.14-3.02-21.36c-2.51-24.37-1.7-48.4,5.21-57.72c8.97-12.08,16.47-25.42,8.79-43.93
		c-7.69-18.5-58.21-28.01-65.9-39.54c-7.69-11.53-12.08-19.77-9.37-37.34c2.71-17.57,38.47-38.44,29.14-56.71
		c-9.34-18.27-49.97-8.12-72.66,0c-22.69,8.12-30.85,40.92-21.78,47.93c9.06,7,13.31,13.33,13.63,18.94
		c0.65,11.51-19.1,4.05-35.59,5.22c-6.69,0.47-15.55-4.78-26.07-10.63c17.51,79.39,40.92,156.26,59.22,200.64
		c7.14,17.31,19.8,41.88,35.89,70.35c0.4-0.19,0.81-0.37,1.21-0.56C771.28,920.6,780.17,917.1,788.87,914.94z"/>
	<path class="st6" d="M1028.58,495.6c-2.45-7.41-4.74-15.01-6.89-22.8c-5.6-20.24-10.19-41.7-13.9-63.98v-0.04
		c-9.97-7.19-29.1-19.42-41.14-16.27c-16.86,4.37,4.45,29.1-17.42,30.73c-21.87,1.67-50.52-61.83-65.9-44.92
		c-15.38,16.94,32.4,128.4,46.15,145.97c13.71,17.57,20.2,17.53,34.25,17.57c5.23,0.04-8.27-69.02,14.05-69.05l15.2,5.63l21.35,7.9
		L1028.58,495.6z"/>
	<path class="st6" d="M568.85,254.63c-22.13,64.72-39.51,132.36-48.19,197.49l-0.04,0.26c-6.04,44.85-7.93,88.44-4.49,129.03
		c5.52,64.87,15.57,127.84,29.73,188.22c0,0,0,0,0,0.04c8.38,35.73,18.2,70.5,29.36,104.19v0.04c9.38,28.47,19.76,56.19,30.99,83.03
		l0.07,0.07l7.12,14l31.17,61.34H826.3c-23.5-36.56-45.66-72.99-63.69-104.75c-0.45-0.79-0.89-1.58-1.34-2.37
		c-16.09-28.47-28.75-53.04-35.89-70.35c-18.3-44.38-41.71-121.25-59.22-200.64c-4.87-22.06-9.28-44.31-13-66.11
		c-9.13-53.51-14.09-104.31-11.4-142.9c0.21-3.02,0.48-6.17,0.8-9.41c6.24-64.65,32.59-172.38,67.95-273.25
		c14.2-40.49,29.84-79.87,46.23-114.91h-96.48c-32.89,59-65.44,130.94-91.41,206.94V254.63z"/>
	<path class="st6" d="M427.56,993.25c2.19-27.58,24.13-65.9,24.13-65.9c-27.7,14.29-84.96,69.67-115.04,105h91.78
		C426.48,1020.71,426.43,1007.45,427.56,993.25z"/>
</g>
</svg>
