<?xml version="1.0" encoding="utf-8"?>
<!-- Generator: Adobe Illustrator 26.0.3, SVG Export Plug-In . SVG Version: 6.00 Build 0)  -->
<svg version="1.1" id="Слой_1" xmlns="http://www.w3.org/2000/svg" xmlns:xlink="http://www.w3.org/1999/xlink" x="0px" y="0px"
	 viewBox="0 0 1080 1080" style="enable-background:new 0 0 1080 1080;" xml:space="preserve">
<style type="text/css">
	.st0{fill:#E5E5E5;}
	.st1{fill:#96FF31;}
	.st2{fill:#84EA00;}
	.st3{fill:#A9B4B5;}
	.st4{fill:#869496;}
	.st5{fill:#EA5F00;}
	.st6{fill:#C65000;}
	.st7{fill:#FF7300;}
	.st8{fill:#899296;stroke:#54606D;stroke-width:15;stroke-miterlimit:10;}
	.st9{fill:#778389;stroke:#54606D;stroke-width:15;stroke-linecap:round;stroke-linejoin:round;stroke-miterlimit:10;}
	.st10{fill:#54606D;}
	.st11{fill:#FFBE2C;}
	.st12{fill:#FF9D00;}
	.st13{fill:#899296;}
	.st14{fill:#BCBFC1;}
	.st15{fill:#FFD488;}
	.st16{fill:#FF2A00;}
	.st17{fill:#DD0A00;}
	.st18{fill:#FFEEA9;}
	.st19{fill:#FFDC9F;}
	.st20{fill:#606A6D;stroke:#1C242B;stroke-width:30;stroke-miterlimit:10;}
	.st21{fill:#FFCF48;}
	.st22{fill:#FF7761;}
	.st23{fill:#606A6D;}
	.st24{fill:#005B77;}
	.st25{fill:#00404F;}
	.st26{fill:#9DA6A8;}
	.st27{fill:#384042;}
	.st28{fill:#00D6D6;}
	.st29{fill:#00F9EC;}
	.st30{fill:#606A6D;stroke:#1C242B;stroke-width:80;stroke-miterlimit:10;}
	.st31{fill:#606A6D;stroke:#1C242B;stroke-width:60;stroke-miterlimit:10;}
	.st32{fill:#00899B;}
	.st33{fill:#006A7C;}
	.st34{fill:#00BBC9;}
	.st35{fill:#FFDA00;}
	.st36{fill:#F7B000;}
	.st37{fill:#FFEA80;}
	.st38{fill:#7C9998;}
	.st39{fill:none;stroke:#B73800;stroke-width:8;stroke-miterlimit:10;}
	.st40{fill:#A1B2B1;}
	.st41{fill:#42727A;}
	.st42{fill:#B73800;}
	.st43{fill:#A1DB00;}
	.st44{fill:#76C100;}
	.st45{fill:#00AFA6;}
	.st46{fill:#006F77;}
	.st47{fill:#C14000;}
	.st48{fill:#FF6F0D;stroke:#CC2B00;stroke-width:4;stroke-miterlimit:10;}
	.st49{fill:#FFEB76;}
	.st50{fill:#FFD93B;}
	.st51{fill:#842500;}
	.st52{fill:#DFFF22;}
	.st53{fill:#6CF5FF;}
	.st54{fill:#00CFFF;}
	.st55{fill:#00A5F7;}
	.st56{fill:none;stroke:#9B00CE;stroke-width:3;stroke-miterlimit:10;}
	.st57{fill:none;stroke:#D376FF;stroke-width:3;stroke-miterlimit:10;}
	.st58{fill:none;stroke:#7400A5;stroke-width:3;stroke-miterlimit:10;}
	.st59{fill:#BBFDFF;}
	.st60{fill:#92FCFF;}
	.st61{fill:#A6FFFF;}
	.st62{fill:none;stroke:#F7ABFF;stroke-width:3;stroke-miterlimit:10;}
	.st63{fill:#D08DFF;}
	.st64{fill:#AF48FF;}
	.st65{fill:#7F00E2;}
	.st66{fill:#ECC2FF;}
	.st67{fill:#006FDD;}
	.st68{fill:#004FC1;}
	.st69{fill:#2A333A;stroke:#A0ACAF;stroke-width:30;stroke-miterlimit:10;}
	.st70{fill:#DB0000;}
	.st71{fill:#9B0000;}
	.st72{fill:#7C0000;}
	.st73{fill:#FF1F1F;}
	.st74{fill:#80C6FF;}
	.st75{fill:#E2E2E2;}
</style>
<g>
	<g>
		<path class="st23" d="M461.26,154.32h19.17c8.8,0,15.93,7.13,15.93,15.93v62.58h-35.1V154.32z"/>
		<rect x="421.8" y="154.31" class="st23" width="39.46" height="35.1"/>
		<g>
			<path class="st23" d="M454.92,189.42c3.5,0,6.34,2.84,6.34,6.34v-6.34H454.92z"/>
		</g>
	</g>
	<path class="st24" d="M927.88,609.61v146.47c0,11.43-9.27,20.7-20.71,20.7h-676.1c-11.43,0-20.7-9.27-20.7-20.7V621.08l3.22-23.79
		l10.36-76.36l19.09-140.9l5.18-38.17c3.82-35.6,32.5-62.51,66.64-62.51h195.21c35.21,0,64.42,28.58,66.89,65.43l16.47,193.87
		c128.17,6.3,240.07,24.62,314.92,49.63h0.01c0.48,0.11,0.94,0.24,1.42,0.4l3.8,1.23C922.1,592.68,927.88,600.64,927.88,609.61z"/>
	<g>
		<path class="st23" d="M496.36,173.6v59.23h-35.1v-37.07c0-3.5-2.83-6.34-6.34-6.34H421.8v-35.1h55.28
			C487.73,154.31,496.36,162.95,496.36,173.6z"/>
	</g>
	<polygon class="st25" points="288.19,453.43 273.05,583.15 229.02,483.47 234.13,445.71 	"/>
	<path class="st25" d="M913.57,589.92l-3.8-1.23c-0.47-0.16-0.93-0.29-1.42-0.4h-0.01c-74.85-25.01-186.74-43.33-314.92-49.63
		l-16.47-193.87c-2.47-36.86-31.68-65.43-66.89-65.43H314.85c-34.14,0-62.82,26.91-66.64,62.51l-5.18,38.17l-10.83,79.95
		c17.97-4.28,36.71-6.55,55.99-6.55c116.66,0,213.96,82.91,236.18,193.03c120.28,12.97,216.79,64.66,247.67,130.32h135.13
		c11.45,0,20.71-9.27,20.71-20.7V609.61C927.88,600.64,922.1,592.68,913.57,589.92z"/>
	<path class="st26" d="M421.8,157.9h39.46h10.27c10.65,0,19.27,8.64,19.27,19.29v55.65v3.58h-3.75v-3.58v-52.91
		c0-10.65-8.63-19.29-19.27-19.29h-6.52H421.8V157.9z"/>
	<path class="st27" d="M487.21,179.78v59.23h-14.79v-44.36c0-7.76-4.57-14.43-11.17-17.5c-2.47-1.15-5.21-1.79-8.11-1.79H421.8
		V160.5h46.14C478.59,160.5,487.21,169.14,487.21,179.78z"/>
	<path class="st28" d="M963.26,582.2v157.86c0,12.32-9.99,22.31-22.32,22.31H831.47c-13.33-36.44-45.88-70.06-92.1-97.7
		c-45.88-27.44-105.22-49-172.59-61.64c-1.97-0.38-3.94-0.73-5.93-1.09c-8.7-1.54-17.54-2.93-26.5-4.17
		c-42-96.55-138.23-164.07-250.24-164.07c-25.57,0-50.31,3.52-73.78,10.1l20.36-150.2c4.11-38.37,35.03-67.37,71.82-67.37h210.41
		c37.96,0,69.44,30.81,72.1,70.53l17.75,208.96c138.14,6.8,258.75,26.55,339.42,53.49h0.01c0.52,0.12,1.02,0.27,1.52,0.44l4.1,1.33
		C957.03,563.96,963.26,572.54,963.26,582.2z"/>
	<path class="st29" d="M764.56,653.22l-25.19,11.46c-45.88-27.44-105.22-49-172.59-61.64c-1.97-0.38-3.94-0.73-5.93-1.09
		c1.2-0.15,61.68-7.72,123.04,9.32C745.87,628.47,764.56,653.22,764.56,653.22z"/>
	<circle class="st30" cx="288.19" cy="689.51" r="171.45"/>
	<circle class="st31" cx="752.01" cy="776.78" r="87.63"/>
	<path class="st32" d="M288.19,401.21c118.7,0,232.77,76.69,264.49,153.59c3.75,0.69,9.58,1.42,13.71,2.2l-16.6-225.49
		c-1.83-29.32-26.15-52.16-55.53-52.16H315.19c-28.52,0-52.43,21.57-55.34,49.95l-9.86,74.4
		C262.49,402.06,275.24,401.21,288.19,401.21z"/>
	<g>
		<path class="st32" d="M698.05,540.39c-47.3-5.27-80.12-6.56-80.12-6.56l2.19,27.9c0,0,35.31,5.28,81.52,21.41L698.05,540.39z"/>
		<path class="st32" d="M744.79,546.39l4.14,55.95c52.78,24.69,108.85,63.09,140.74,121.5h35.13V590.47
			C869.13,568.39,802.04,554.75,744.79,546.39z"/>
	</g>
	<path class="st29" d="M502.01,253.4c32.08,5.96,57.09,34.14,59.45,69.35l18.17,48.82l-5.27-62.02
		c-2.66-39.72-34.14-70.53-72.1-70.53h-59.33l59.06,14.37L502.01,253.4z"/>
	<path class="st29" d="M947.66,754.46c0-17.71,0-157.86,0-157.86c0-9.67-6.23-18.25-15.43-21.22l-4.1-1.33
		c-0.51-0.17-1-0.31-1.52-0.44h-0.01c-68.59-22.91-166.07-40.61-278.65-49.58l-30.69,9.81c120.19,8.46,224.2,28.85,296.43,52.98
		h0.01c0.52,0.12,1.02,0.27,1.52,0.44l4.1,1.33c4.81,1.9,5.49,6.03,5.49,15.7l-0.02,158.1c0,0,17.3,0.58,18.71-0.24
		C943.51,762.14,947.66,761.84,947.66,754.46z"/>
	<polygon class="st28" points="699.17,549.68 695.98,525.64 811.59,539.16 744.79,547.84 	"/>
	<path class="st33" d="M321.53,380.85c-8.63-1.01-22.67-1.69-37.76-0.83l9.42-71.09c1.11-10.79,5.26-20.59,11.54-28.6
		c-23.71,4.52-42.33,24.14-44.88,48.96l-9.86,74.4c12.5-1.63,25.25-2.48,38.2-2.48c118.7,0,232.77,76.69,264.49,153.59
		c3.75,0.69,9.58,1.42,13.71,2.2l-2.72-36.98C519.77,453.7,424.23,392.85,321.53,380.85z"/>
	<path class="st33" d="M618.77,544.6l1.34,17.13c0,0,35.31,5.28,81.52,21.41l-1.73-20.59C659.56,549.72,627.75,546.03,618.77,544.6z
		"/>
	<path class="st34" d="M537.21,388.16L537.21,388.16l-3.57-48.47c-1.42-22.73-20.27-40.43-43.04-40.43h-57.55l45.05,11.62
		c22.77,0,41.62,17.71,43.04,40.43L537.21,388.16z"/>
	<path class="st33" d="M894.52,695.87c-26.32-52.5-84.63-93.41-147.4-118.11l1.82,24.59c52.78,24.69,108.85,63.09,140.74,121.5
		h35.13v-27.97H894.52z"/>
	<polygon class="st34" points="399.26,298.74 324.13,298.78 321.44,311.8 447.37,311.76 	"/>
</g>
</svg>
