<?xml version="1.0" encoding="utf-8"?>
<!-- Generator: Adobe Illustrator 26.0.3, SVG Export Plug-In . SVG Version: 6.00 Build 0)  -->
<svg version="1.1" id="Слой_1" xmlns="http://www.w3.org/2000/svg" xmlns:xlink="http://www.w3.org/1999/xlink" x="0px" y="0px"
	 viewBox="0 0 1080 1080" style="enable-background:new 0 0 1080 1080;" xml:space="preserve">
<style type="text/css">
	.st0{fill:url(#SVGID_1_);}
	.st1{fill:#FF7B22;}
	.st2{fill:#FF761A;}
	.st3{fill:#934200;}
	.st4{fill:#FFD7A6;}
	.st5{fill:#FF4D1D;}
	.st6{fill:#661300;}
	.st7{fill:#FFEDD9;}
	.st8{fill:#FFB380;}
	.st9{fill:none;}
	.st10{fill:url(#SVGID_00000151502927002799670040000007054319480352446372_);}
	.st11{fill:url(#SVGID_00000078765167470729849550000007113852006852625042_);}
	.st12{fill:url(#SVGID_00000168827540719853938120000011930872511670538375_);}
	.st13{fill:url(#SVGID_00000078046054474318084350000013573163738461155969_);}
	.st14{fill:url(#SVGID_00000042014445939948819880000000181375604853060482_);}
	.st15{fill:url(#SVGID_00000000182480055919587640000013567000159199846330_);}
	.st16{fill:url(#SVGID_00000138530976990066503140000014584820202491108997_);}
	.st17{fill:url(#SVGID_00000017510710650253031390000010639477958982081720_);}
	.st18{fill:url(#SVGID_00000129206176361775961900000015840028084480516232_);}
	.st19{fill:url(#SVGID_00000159443084578963389170000015796518882936246675_);}
	.st20{fill:url(#SVGID_00000148620819702636428030000012129487014367363249_);}
	.st21{fill:url(#SVGID_00000097462006285955104260000012281367202723199880_);}
	.st22{fill:url(#SVGID_00000142880159630646508130000017053806897742970028_);}
	.st23{fill:url(#SVGID_00000142143490810901791480000000209799872042375041_);}
	.st24{fill:url(#SVGID_00000096028462472325008960000017566257393295836316_);}
	.st25{fill:url(#SVGID_00000078763934554416646460000010016106889261228680_);}
	.st26{fill:url(#SVGID_00000114781787573735967970000014305671398621995455_);}
	.st27{fill:url(#SVGID_00000173134207973669647540000003030536541946484107_);}
</style>
<g>
	<path class="st9" d="M928.1,46.84v581.24c0,93.38-75.73,169.1-169.1,169.1H110.17v235.98h818.3V46.84H928.1z"/>
	<radialGradient id="SVGID_1_" cx="-312.7278" cy="-443.6476" r="1240.8263" gradientUnits="userSpaceOnUse">
		<stop  offset="0.0112" style="stop-color:#B0FFB3"/>
		<stop  offset="0.2301" style="stop-color:#ADFEB3"/>
		<stop  offset="0.3886" style="stop-color:#A4FBB1"/>
		<stop  offset="0.5282" style="stop-color:#94F6AF"/>
		<stop  offset="0.6569" style="stop-color:#7EEEAC"/>
		<stop  offset="0.778" style="stop-color:#61E5A9"/>
		<stop  offset="0.8919" style="stop-color:#3ED9A4"/>
		<stop  offset="1" style="stop-color:#15CC9F"/>
	</radialGradient>
	<path class="st0" d="M113.56,47.66c0.12-0.28,0.23-0.55,0.34-0.82h-3.73v8.83c1.11-2.64,2.26-5.32,3.35-7.94L113.56,47.66z"/>
	
		<radialGradient id="SVGID_00000137108180674834669310000015292804175524209825_" cx="-312.7278" cy="-443.6476" r="1240.8262" gradientUnits="userSpaceOnUse">
		<stop  offset="0.0112" style="stop-color:#B0FFB3"/>
		<stop  offset="0.2301" style="stop-color:#ADFEB3"/>
		<stop  offset="0.3886" style="stop-color:#A4FBB1"/>
		<stop  offset="0.5282" style="stop-color:#94F6AF"/>
		<stop  offset="0.6569" style="stop-color:#7EEEAC"/>
		<stop  offset="0.778" style="stop-color:#61E5A9"/>
		<stop  offset="0.8919" style="stop-color:#3ED9A4"/>
		<stop  offset="1" style="stop-color:#15CC9F"/>
	</radialGradient>
	<path style="fill:url(#SVGID_00000137108180674834669310000015292804175524209825_);" d="M928.1,628.07V46.84H448.91
		c-20.12,24.92-39.68,45.73-57.17,63.06c-7.56,7.49-17.16,15.94-28.36,25.17c-58.96,48.57-162.8,118.03-253.21,176.17v485.95h648.82
		C852.37,797.18,928.1,721.45,928.1,628.07z"/>
	<path class="st2" d="M116.27,106.59c8.25,16.46,21.07,32.11,38.55,34.58c17.47,2.47,62.21-10.39,95.85-34.43
		c9.3-6.65,30.43-29.21,56.78-59.91H113.9c-0.11,0.28-0.23,0.55-0.34,0.82C113.56,47.66,108.02,90.13,116.27,106.59z"/>
	<path class="st3" d="M391.74,109.89c17.49-17.32,37.04-38.14,57.17-63.06H307.45c-26.35,30.69-47.48,53.26-56.78,59.91
		c-33.64,24.05-78.38,36.91-95.85,34.43c-17.47-2.47-30.3-18.12-38.55-34.58c-8.25-16.46-2.71-58.93-2.71-58.93l-0.04,0.07
		c-1.09,2.62-2.24,5.3-3.35,7.94v255.56c90.41-58.13,194.25-127.6,253.21-176.17C374.58,125.83,384.18,117.38,391.74,109.89z"/>
</g>
</svg>
