<?xml version="1.0" encoding="utf-8"?>
<!-- Generator: Adobe Illustrator 26.0.3, SVG Export Plug-In . SVG Version: 6.00 Build 0)  -->
<svg version="1.1" id="Слой_1" xmlns="http://www.w3.org/2000/svg" xmlns:xlink="http://www.w3.org/1999/xlink" x="0px" y="0px"
	 viewBox="0 0 1080 1080" style="enable-background:new 0 0 1080 1080;" xml:space="preserve">
<style type="text/css">
	.st0{fill:#E5E5E5;}
	.st1{fill:#96FF31;}
	.st2{fill:#84EA00;}
	.st3{fill:#A9B4B5;}
	.st4{fill:#869496;}
	.st5{fill:#EA5F00;}
	.st6{fill:#C65000;}
	.st7{fill:#FF7300;}
	.st8{fill:#899296;stroke:#54606D;stroke-width:15;stroke-miterlimit:10;}
	.st9{fill:#778389;stroke:#54606D;stroke-width:15;stroke-linecap:round;stroke-linejoin:round;stroke-miterlimit:10;}
	.st10{fill:#54606D;}
	.st11{fill:#FFBE2C;}
	.st12{fill:#FF9D00;}
	.st13{fill:#899296;}
	.st14{fill:#BCBFC1;}
	.st15{fill:#FFD488;}
	.st16{fill:#FF2A00;}
	.st17{fill:#DD0A00;}
	.st18{fill:#FFEEA9;}
	.st19{fill:#FFDC9F;}
	.st20{fill:#606A6D;stroke:#1C242B;stroke-width:30;stroke-miterlimit:10;}
	.st21{fill:#FFCF48;}
	.st22{fill:#FF7761;}
	.st23{fill:#606A6D;}
	.st24{fill:#005B77;}
	.st25{fill:#00404F;}
	.st26{fill:#9DA6A8;}
	.st27{fill:#384042;}
	.st28{fill:#00D6D6;}
	.st29{fill:#00F9EC;}
	.st30{fill:#606A6D;stroke:#1C242B;stroke-width:80;stroke-miterlimit:10;}
	.st31{fill:#606A6D;stroke:#1C242B;stroke-width:60;stroke-miterlimit:10;}
	.st32{fill:#00899B;}
	.st33{fill:#006A7C;}
	.st34{fill:#00BBC9;}
	.st35{fill:#FFDA00;}
	.st36{fill:#F7B000;}
	.st37{fill:#FFEA80;}
	.st38{fill:#7C9998;}
	.st39{fill:none;stroke:#B73800;stroke-width:8;stroke-miterlimit:10;}
	.st40{fill:#A1B2B1;}
	.st41{fill:#42727A;}
	.st42{fill:#B73800;}
	.st43{fill:#A1DB00;}
	.st44{fill:#76C100;}
	.st45{fill:#00AFA6;}
	.st46{fill:#006F77;}
	.st47{fill:#C14000;}
	.st48{fill:#FF6F0D;stroke:#CC2B00;stroke-width:4;stroke-miterlimit:10;}
	.st49{fill:#FFEB76;}
	.st50{fill:#FFD93B;}
	.st51{fill:#842500;}
	.st52{fill:#DFFF22;}
	.st53{fill:#6CF5FF;}
	.st54{fill:#00CFFF;}
	.st55{fill:#00A5F7;}
	.st56{fill:none;stroke:#9B00CE;stroke-width:3;stroke-miterlimit:10;}
	.st57{fill:none;stroke:#D376FF;stroke-width:3;stroke-miterlimit:10;}
	.st58{fill:none;stroke:#7400A5;stroke-width:3;stroke-miterlimit:10;}
	.st59{fill:#BBFDFF;}
	.st60{fill:#92FCFF;}
	.st61{fill:#A6FFFF;}
	.st62{fill:none;stroke:#F7ABFF;stroke-width:3;stroke-miterlimit:10;}
	.st63{fill:#D08DFF;}
	.st64{fill:#AF48FF;}
	.st65{fill:#7F00E2;}
	.st66{fill:#ECC2FF;}
	.st67{fill:#006FDD;}
	.st68{fill:#004FC1;}
	.st69{fill:#2A333A;stroke:#A0ACAF;stroke-width:30;stroke-miterlimit:10;}
	.st70{fill:#DB0000;}
	.st71{fill:#9B0000;}
	.st72{fill:#7C0000;}
	.st73{fill:#FF1F1F;}
	.st74{fill:#80C6FF;}
	.st75{fill:#E2E2E2;}
</style>
<g>
	<path class="st53" d="M784.8,538.59l-10.36,11.74c-11.45,12.96-10.45,32.96,2.23,44.67l91.7,84.67
		c12.68,11.71,32.23,10.68,43.68-2.28l10.36-11.74c11.45-12.96,10.45-32.96-2.23-44.67l-91.7-84.67
		C815.8,524.6,796.24,525.62,784.8,538.59z"/>
	<path class="st54" d="M854.46,650.44c11.45-12.96,31-13.99,43.68-2.28l21.88,20.21l2.39-2.71c11.45-12.96,10.45-32.96-2.23-44.67
		l-91.7-84.67c-12.68-11.71-32.23-10.68-43.68,2.28l-10.36,11.74c-11.45,12.96-10.45,32.96,2.23,44.67l69.82,64.47L854.46,650.44z"
		/>
	<path class="st53" d="M581.7,768.64l10.36-11.74c11.45-12.96,31-13.99,43.68-2.28l91.7,84.67c12.68,11.71,13.68,31.7,2.23,44.67
		l-10.36,11.74c-11.45,12.96-31,13.99-43.68,2.28l-91.7-84.67C571.25,801.6,570.26,781.6,581.7,768.64z"/>
	<path class="st54" d="M690.35,831.75l36.9,34.07c3.26,3.01,5.74,6.57,7.44,10.42c5.66-12.28,3.1-27.38-7.26-36.95l-91.7-84.67
		c-12.68-11.71-32.23-10.68-43.68,2.28l-10.36,11.74c-11.45,12.96-10.45,32.96,2.23,44.67l36.64,33.83L690.35,831.75z"/>
	<path class="st53" d="M440.94,502.31c-55.75-51.48-145.77-175.08-130.23-192.69c15.54-17.61,142.9,63.77,198.62,115.22
		s371.5,329.18,403.6,358.82c32.1,29.64,60.16,107.75,45.65,124.18c-13.73,15.55-94.19-4.94-125.44-33.8
		C801.89,845.19,496.69,553.79,440.94,502.31z"/>
	<polygon class="st53" points="466.63,389.81 388.5,102.35 364.53,129.5 335.02,309.95 	"/>
	<polygon class="st53" points="828.25,709.91 881.12,120.46 801.33,210.83 723.22,409.29 621.17,524.9 	"/>
	<polygon class="st53" points="402.75,462.18 117.49,409.32 141.46,382.18 313.98,333.77 	"/>
	<polygon class="st53" points="752.78,795.4 184.78,909.21 264.57,818.83 449.66,719.16 550.13,605.36 	"/>
	<polygon class="st54" points="749.42,534.41 829.21,444.04 807.06,690.98 828.25,709.91 881.12,120.46 801.33,210.83 
		723.22,409.29 621.17,524.9 718.83,612.15 	"/>
	<polygon class="st54" points="269.56,858.64 454.65,758.97 555.12,645.17 721.91,801.59 752.78,795.4 550.13,605.36 449.66,719.16 
		264.57,818.83 184.78,909.21 233.55,899.44 	"/>
	<polygon class="st54" points="389.18,302.87 413.15,275.72 439.72,373.48 466.63,389.81 388.5,102.35 364.53,129.5 335.02,309.95 
		383.24,339.21 	"/>
	<polygon class="st54" points="138.5,413.05 311.02,364.65 388.18,459.48 402.75,462.18 313.98,333.77 141.46,382.18 117.49,409.32 
		138.37,413.19 	"/>
	<path class="st55" d="M639.15,504.53l-17.98,20.37l207.09,185.01l3.15-35.18C773.25,623.25,700.07,558.58,639.15,504.53z"/>
	<path class="st55" d="M335.02,309.95l131.62,79.86l-11.25-41.38c-45.71-31.48-94.78-59.12-116.61-61.45L335.02,309.95z"/>
	<polygon class="st55" points="738.45,436.29 816.55,237.83 876.7,169.71 881.12,120.46 801.33,210.83 723.22,409.29 621.17,524.9 
		643,544.41 	"/>
	<polygon class="st55" points="386.58,149.86 397.92,137.02 388.5,102.35 364.53,129.5 335.02,309.95 358.11,323.96 	"/>
	<path class="st54" d="M324.28,354.38c-12.5-22.05-18.62-39.02-13.56-44.75c15.54-17.61,142.9,63.77,198.62,115.21
		s371.5,329.19,403.59,358.83c28.72,26.51,54.2,91.83,48.86,117.05c-5.25-15.04-12.64-30.86-21.16-44.51
		c-6.26-10.03-13.11-18.88-20.17-25.4c-2.42-2.23-6.43-5.86-11.83-10.7C842.31,760.66,568.39,519.58,516.86,472
		C465.74,424.79,354.31,352.39,324.28,354.38z"/>
	<polyline class="st56" points="874,199.77 828.73,251.05 753.39,451.35 676.9,538 	"/>
	<polyline class="st57" points="569.98,659.1 470.16,772.17 294.13,862.46 267.5,892.63 	"/>
	<line class="st57" x1="703.36" y1="843.77" x2="664.54" y2="887.74"/>
	<line class="st57" x1="882.81" y1="640.49" x2="857.27" y2="669.42"/>
	<line class="st56" x1="909.08" y1="610.74" x2="882.81" y2="640.49"/>
	<line class="st56" x1="716.35" y1="829.05" x2="703.36" y2="843.77"/>
	<line class="st56" x1="587.21" y1="639.59" x2="569.98" y2="659.1"/>
	<line class="st58" x1="658.92" y1="558.37" x2="676.9" y2="538"/>
	<path class="st59" d="M896.42,897.25c2.23,0.72,4.54,0.58,6.5-0.38c4.96-2.42,14.98-8.19,24.59-19.08
		c10.62-12.03,14.14-23.54,15.27-28.8c0.39-1.84,0.18-3.82-0.61-5.66c-2.28-5.29-7.96-17.6-16.14-29.14
		c-4.4-6.21-13.45-5.58-15.67,1.07c-3.37,10.09-9.03,23.11-17.01,31.96c-8,8.87-19.87,16.2-28.97,21.01
		c-6.13,3.24-5.33,12.5,1.32,16.14C877.41,890.79,890.44,895.33,896.42,897.25z"/>
	<path class="st60" d="M920.46,830.81c-2.42-2.23-6.43-5.86-11.83-10.7c0.64-1.66,1.22-3.29,1.74-4.85
		c2.21-6.65,11.26-7.28,15.66-1.07c8.17,11.54,13.87,23.85,16.14,29.14c0.79,1.85,1,3.82,0.61,5.66c-0.38,1.77-1.04,4.26-2.14,7.22
		C934.37,846.18,927.52,837.33,920.46,830.81z"/>
	<polygon class="st61" points="834.55,862.44 577.45,618.66 598.26,627.07 851.12,867.8 	"/>
	<polygon class="st61" points="677.88,800.16 324.49,869.66 331.86,861.32 686.17,790.77 	"/>
	<polygon class="st61" points="649.18,864.79 660.05,864.41 646.32,851.74 635.61,852.26 	"/>
	<g>
		<path class="st61" d="M728.37,866.91l-8.74,9.9c-11.45,12.96-31,13.99-43.68,2.28l-8.89-8.21l-10.99,0.27l20.05,18.51
			c12.68,11.71,32.23,10.68,43.68-2.28l10.36-11.74c0.92-1.04,1.75-2.13,2.5-3.25C731.45,870.44,730.03,868.6,728.37,866.91z"/>
	</g>
	<line class="st62" x1="668.8" y1="882.91" x2="673.87" y2="877.17"/>
</g>
</svg>
