<?xml version="1.0" encoding="utf-8"?>
<!-- Generator: Adobe Illustrator 26.0.3, SVG Export Plug-In . SVG Version: 6.00 Build 0)  -->
<svg version="1.1" id="Слой_1" xmlns="http://www.w3.org/2000/svg" xmlns:xlink="http://www.w3.org/1999/xlink" x="0px" y="0px"
	 viewBox="0 0 1080 1080" style="enable-background:new 0 0 1080 1080;" xml:space="preserve">
<style type="text/css">
	.st0{fill:#E5E5E5;}
	.st1{fill:#EA5F00;}
	.st2{fill:#C65000;}
	.st3{fill:#FF7300;}
	.st4{fill:#899296;stroke:#54606D;stroke-width:15;stroke-miterlimit:10;}
	.st5{fill:#778389;stroke:#54606D;stroke-width:15;stroke-linecap:round;stroke-linejoin:round;stroke-miterlimit:10;}
	.st6{fill:#54606D;}
	.st7{fill:#FFBE2C;}
	.st8{fill:#FF9D00;}
	.st9{fill:#899296;}
	.st10{fill:#BCBFC1;}
	.st11{fill:#FFD488;}
	.st12{fill:#96FF31;}
	.st13{fill:#84EA00;}
	.st14{fill:#FF2A00;}
	.st15{fill:#DD0A00;}
	.st16{fill:#FFEEA9;}
	.st17{fill:#FFDC9F;}
	.st18{fill:#606A6D;stroke:#1C242B;stroke-width:30;stroke-miterlimit:10;}
	.st19{fill:#FFCF48;}
	.st20{fill:#FF7761;}
	.st21{fill:#606A6D;}
	.st22{fill:#005B77;}
	.st23{fill:#00404F;}
	.st24{fill:#9DA6A8;}
	.st25{fill:#384042;}
	.st26{fill:#00D6D6;}
	.st27{fill:#00F9EC;}
	.st28{fill:#606A6D;stroke:#1C242B;stroke-width:80;stroke-miterlimit:10;}
	.st29{fill:#606A6D;stroke:#1C242B;stroke-width:60;stroke-miterlimit:10;}
	.st30{fill:#00899B;}
	.st31{fill:#006A7C;}
	.st32{fill:#00BBC9;}
	.st33{fill:#FFDA00;}
	.st34{fill:#F7B000;}
	.st35{fill:#FFEA80;}
	.st36{fill:#7C9998;}
	.st37{fill:none;stroke:#B73800;stroke-width:8;stroke-miterlimit:10;}
	.st38{fill:#A1B2B1;}
	.st39{fill:#42727A;}
	.st40{fill:#B73800;}
	.st41{fill:#A9B4B5;}
	.st42{fill:#869496;}
	.st43{fill:#A1DB00;}
	.st44{fill:#76C100;}
	.st45{fill:#00AFA6;}
	.st46{fill:#006F77;}
	.st47{fill:#C14000;}
	.st48{fill:#FF6F0D;stroke:#CC2B00;stroke-width:4;stroke-miterlimit:10;}
	.st49{fill:#FFEB76;}
	.st50{fill:#FFD93B;}
	.st51{fill:#842500;}
	.st52{fill:#DFFF22;}
	.st53{fill:#6CF5FF;}
	.st54{fill:#00CFFF;}
	.st55{fill:#00A5F7;}
	.st56{fill:none;stroke:#9B00CE;stroke-width:3;stroke-miterlimit:10;}
	.st57{fill:none;stroke:#D376FF;stroke-width:3;stroke-miterlimit:10;}
	.st58{fill:none;stroke:#7400A5;stroke-width:3;stroke-miterlimit:10;}
	.st59{fill:#BBFDFF;}
	.st60{fill:#92FCFF;}
	.st61{fill:#A6FFFF;}
	.st62{fill:none;stroke:#F7ABFF;stroke-width:3;stroke-miterlimit:10;}
	.st63{fill:#D08DFF;}
	.st64{fill:#AF48FF;}
	.st65{fill:#7F00E2;}
	.st66{fill:#ECC2FF;}
	.st67{fill:#006FDD;}
	.st68{fill:#004FC1;}
	.st69{fill:#2A333A;stroke:#A0ACAF;stroke-width:30;stroke-miterlimit:10;}
	.st70{fill:#DB0000;}
	.st71{fill:#9B0000;}
	.st72{fill:#7C0000;}
	.st73{fill:#FF1F1F;}
	.st74{fill:#80C6FF;}
	.st75{fill:#E2E2E2;}
</style>
<g>
	<path class="st41" d="M994.49,662.39v28.25c0,26.14-21.19,47.32-47.32,47.32H132.83c-26.13,0-47.32-21.18-47.32-47.32v-28.25
		c0-2.63,0.21-5.2,0.63-7.71c3.68-22.47,23.18-39.61,46.69-39.61h814.34c23.51,0,43.01,17.14,46.69,39.61
		C994.28,657.19,994.49,659.76,994.49,662.39z"/>
	<path class="st42" d="M993.86,654.68c-3.68,22.47-23.19,39.6-46.69,39.6H132.83c-23.5,0-43.01-17.13-46.69-39.6
		c3.68-22.47,23.18-39.61,46.69-39.61h814.34C970.68,615.07,990.18,632.21,993.86,654.68z"/>
	<g>
		<path class="st43" d="M943.38,446.83L80.35,469.84c-7.28,0.29-10.19,9.55-4.38,13.95l114.09,86.4c8.19,6.2,18.18,9.56,28.46,9.56
			h6.32c5.63-32.59,34.02-57.39,68.22-57.39s62.59,24.8,68.22,57.39h317.95c5.91-32.25,34.14-56.69,68.09-56.69
			c33.96,0,62.18,24.45,68.09,56.69h156.61c11.04,0,19.99-8.95,19.99-19.99v-65.57C992.01,467.53,970.03,446.12,943.38,446.83z"/>
		<g>
			<path class="st44" d="M927.29,549.1v10.23c-27.1-1.74-78.96-5.79-125.3-9.52c6.68,8.59,11.38,18.79,13.42,29.92h156.61
				c11.04,0,19.99-8.95,19.99-19.99v-10.5L927.29,549.1z"/>
			<path class="st44" d="M699.32,542.4L346.84,548c7.3,8.99,12.38,19.85,14.43,31.74h317.95
				C681.89,565.19,689.09,552.24,699.32,542.4z"/>
		</g>
		<path class="st44" d="M243.97,542.75c-1.58-0.93-3.11-1.95-4.58-3.06l-94.52-71.58l-64.52,1.72c-7.28,0.29-10.19,9.55-4.38,13.95
			l114.09,86.4c8.19,6.2,18.18,9.56,28.46,9.56h6.32C227.3,565.43,234.15,552.62,243.97,542.75z"/>
		<path class="st43" d="M697.76,460.12l-497.78,7.54L281,385.4c6.41-6.51,14.79-10.31,23.6-10.71l324.15-32.5
			c14.44-1.45,28.05,7.5,33.42,21.98L697.76,460.12z"/>
		<path class="st45" d="M367.67,394.21l234.11-20.31c11.5-1,22.2,5.95,25.97,16.86l21.59,62.53l-341.79,10.49l41.74-59.03
			C353.58,398.71,360.3,394.85,367.67,394.21z"/>
		<path class="st46" d="M358.79,402.53l234.11-20.31c11.5-1,22.2,5.95,25.97,16.86l18.84,54.57l11.64-0.36l-21.59-62.53
			c-3.77-10.91-14.47-17.86-25.97-16.86l-234.11,20.31c-7.38,0.64-14.1,4.5-18.37,10.54l-0.64,0.9
			C351.74,403.93,355.18,402.84,358.79,402.53z"/>
		<polygon class="st46" points="447.46,459.48 433.25,459.85 425.18,389.19 438.87,387.63 		"/>
		
			<rect x="439.34" y="373.8" transform="matrix(0.9935 -0.1135 0.1135 0.9935 -46.6269 53.4433)" class="st43" width="13.78" height="125.16"/>
		<path class="st44" d="M972.23,505.72v65.57c0,3.03-0.67,5.9-1.88,8.47l-41.5-0.01v-20.41c-14.14,0-25.61-22.61-25.61-50.49
			c0-27.01,10.75-49.06,24.27-50.43c0.01,0,0.02,0,0.02,0c1.92,0.11,3.82,0.33,5.68,0.66C955.33,463.01,972.23,482.35,972.23,505.72
			z"/>
		<path class="st47" d="M1007.12,532.64v37.98c0,4.42-2.85,8-6.37,8h-31.96l-41.5-0.01v-43.55l23-5.19l20.38-4.61l24.38-5.5
			C1001.37,518.46,1007.12,524.59,1007.12,532.64z"/>
		<path class="st44" d="M219.12,547.31c0,0,17.47-25.06,33.66-28.89c-30.55-7.83-70.36,0.51-70.36,0.51L219.12,547.31z"/>
		<path class="st43" d="M952.89,508.85c0,7.95-0.93,15.47-2.6,22.16c-4.15,16.78-12.89,28.33-23,28.33
			c-14.14,0-25.61-22.61-25.61-50.49c0-27.01,10.75-49.06,24.27-50.43c0.01,0,0.02,0,0.02,0c0.44-0.05,0.88-0.07,1.32-0.07
			c1.49,0,2.94,0.25,4.36,0.73C943.71,463.16,952.89,483.89,952.89,508.85z"/>
		<path class="st48" d="M316.71,375.5c0,0-58.63,65.4-70.04,77.79s-20.96,18.99-18.52,35.5c2.37,16,22.52,24.48,40.3,24.48
			s640.89-14.32,640.89-14.32l14.33-28.27c0,0-626.07,15.68-642.13,16.59c-16.06,0.91-20.2-14.15-16.06-23.51
			c2.64-5.96,10.25-24.41,61.21-89.29L316.71,375.5z"/>
		<ellipse class="st49" cx="927.29" cy="508.84" rx="20.41" ry="40.26"/>
		<path class="st50" d="M927.29,468.58c-2.25,0-4.4,0.73-6.42,2.05c10.11,2.4,17.95,19.37,17.95,39.96
			c0,17.81-5.86,32.9-13.99,38.21c0.81,0.19,1.63,0.3,2.46,0.3c11.27,0,20.41-18.03,20.41-40.26
			C947.71,486.61,938.57,468.58,927.29,468.58z"/>
		<path class="st51" d="M1000.75,559.34h-31.96l-41.5-0.01v20.42l41.5,0.01h31.96c3.52,0,6.37-3.58,6.37-8v-20.42
			C1007.12,555.76,1004.27,559.34,1000.75,559.34z"/>
		<polygon class="st44" points="447.46,459.48 441.94,459.53 433.8,388.21 439,387.62 		"/>
		<path class="st44" d="M365.35,394.52l235.03-20.38c12.34-1.07,23.83,6.39,27.87,18.1l21.09,61.05l12.7-0.16l-24.25-69.82
			c-4.04-11.71-15.53-19.17-27.87-18.1l-235.28,20.26c-7.92,0.69-15.83,5.17-20.57,12.12c-1.4,2.06-3.07,5.02-3.07,5.02
			C352.34,401.34,356.12,396.34,365.35,394.52z"/>
		<circle class="st18" cx="293.05" cy="591.6" r="40.27"/>
		<circle class="st18" cx="747.31" cy="591.6" r="40.27"/>
		<path class="st52" d="M918.96,452.96l-227.86,7.38l-4.13,3.44l217.57-3.3C904.54,460.48,907.88,454.72,918.96,452.96z"/>
		<path class="st52" d="M691.11,460.34c0,0-32.28-84.44-38.21-98.81c-5.93-14.37-23.56-12.89-23.56-12.89l-106.26,9.78l-16.56,6.69
			l119.26-10.69c0,0,16.35-2.91,21.78,10.69c5.43,13.6,39.41,98.67,39.41,98.67L691.11,460.34z"/>
		<polygon class="st52" points="508.17,359.62 492.17,365.81 412.01,373.8 421.63,368.15 		"/>
		<path class="st44" d="M674.17,542.95c0,0,7.95-16.21,32.88-27.49c-37.63,4.76-74.34,33.65-74.34,33.65L674.17,542.95z"/>
	</g>
</g>
</svg>
