<?xml version="1.0" encoding="utf-8"?>
<!-- Generator: Adobe Illustrator 26.0.3, SVG Export Plug-In . SVG Version: 6.00 Build 0)  -->
<svg version="1.1" id="Слой_1" xmlns="http://www.w3.org/2000/svg" xmlns:xlink="http://www.w3.org/1999/xlink" x="0px" y="0px"
	 viewBox="0 0 1080 1080" style="enable-background:new 0 0 1080 1080;" xml:space="preserve">
<style type="text/css">
	.st0{fill:url(#SVGID_1_);}
	.st1{fill:#FFBE55;}
	.st2{fill:#EA8B00;}
	.st3{fill:#D17200;}
	.st4{fill:#AA6900;}
	.st5{fill:#CC8D00;}
	.st6{fill:#9B5800;}
	.st7{fill:#E2A700;}
	.st8{fill:#FFD400;}
	.st9{fill:#E87400;}
	.st10{fill:#FF9700;}
	.st11{fill:#E5B900;}
	.st12{fill:none;}
	.st13{fill:url(#SVGID_00000101819490147416840430000012480574464180963211_);}
	.st14{fill:url(#SVGID_00000138571835255825739510000003816494248179329469_);}
	.st15{fill:url(#SVGID_00000100376425762656676160000014711656364501752246_);}
	.st16{fill:url(#SVGID_00000067208267988008144770000006448618257319007150_);}
	.st17{fill:url(#SVGID_00000123412906227078886630000002250781834258466722_);}
</style>
<g>
	<linearGradient id="SVGID_1_" gradientUnits="userSpaceOnUse" x1="246.6898" y1="1876.7502" x2="246.6898" y2="-833.2545">
		<stop  offset="0.7029" style="stop-color:#C9FFFF"/>
		<stop  offset="1" style="stop-color:#96F5EB"/>
	</linearGradient>
	<path class="st0" d="M458.28,42.67H35.1v104.02c21.91,11.48,42.92,19.67,62.22,22.89C182.5,183.78,357.1,106.57,458.28,42.67z"/>
	<path class="st1" d="M458.28,42.67C357.1,106.57,182.5,183.78,97.32,169.58C78.01,166.36,57,158.18,35.1,146.69v135.92
		c49.25-18.19,98.8,2.55,112.5,12.66c5.54,4.09,65.96,56.11,142.55,122.34c45.66-37.67,88.75-71.81,117.99-88.05
		c82.27-45.73,315.38-45.73,415.93,0c21.77,9.91,44.81,20.43,67.53,31.33c17.59,8.43,35,17.07,51.49,25.81
		c60.71,32.16,109.15,65.51,109.15,93.69V42.67H458.28z"/>
	<path class="st2" d="M83.61,571.8c32.42-5.88,123.71-85.85,206.55-154.18c-76.59-66.23-137.01-118.25-142.55-122.34
		c-13.7-10.11-63.25-30.85-112.5-12.66v282.95C53.91,571.38,70.8,574.13,83.61,571.8z"/>
	<path class="st4" d="M289.33,756.02c15.8,0.03,31.23,0.51,46.28,1.37c0.03,0,0.03,0,0.03,0c26.33,1.54,51.56,4.32,75.9,8.12
		c0.03,0,0.07,0,0.07,0s273.82,13.22,357.62-9.5c83.8-22.71,154.25-78.48,173.87-109.25c19.62-30.78,37.91-102.39,31.81-161.81
		S891.6,360.9,891.6,360.9c-22.73-10.9-45.77-21.43-67.53-31.33c-100.55-45.73-333.65-45.73-415.93,0
		c-29.24,16.24-72.33,50.38-117.99,88.05c-82.83,68.34-174.13,148.3-206.55,154.18c-12.81,2.33-29.7-0.42-48.51-6.23v223.68
		C131.11,765.64,214.6,755.87,289.33,756.02z"/>
	<path class="st6" d="M943.09,386.71c-16.49-8.74-33.9-17.38-51.49-25.81c0,0,77.21,64.64,83.3,124.06s-12.19,131.03-31.81,161.81
		c-19.62,30.78-90.07,86.54-173.87,109.25c-83.8,22.71-357.62,9.5-357.62,9.5c27.15,4.25,53.2,9.77,78.4,16.32c0.03,0,0.07,0,0.07,0
		c51.66,13.4,99.76,31.02,146.58,50.5c106.72,44.36,249.8,136.92,337.2,196.51h78.38V480.4
		C1052.24,452.23,1003.8,418.87,943.09,386.71z"/>
	<path class="st7" d="M412.7,990.81c10.66-19.3,3.57-45.04-10.66-53.34c-14.23-8.3-123.38-38.26-152.38-47.24
		c-28.97-8.98-75.66-23.86-83.78-47.24c-8.12-23.35,12.2-36.03,24.37-43.78c12.2-7.75,99.07-43.19,99.07-43.19
		c-74.72-0.15-158.21,9.61-254.23,33.23v239.59h335.95C391.46,1021.11,404.4,1005.83,412.7,990.81z"/>
	<path class="st7" d="M636.66,832.33c-46.83-19.47-94.92-37.09-146.58-50.5c0,0-0.03,0-0.07,0c-25.2-6.55-51.25-12.07-78.4-16.32
		c0,0-0.03,0-0.07,0c-24.34-3.81-49.57-6.58-75.9-8.12c0,0,0,0-0.03,0c-1.44,0.93-37.64,23.41-50.87,32.29
		c-13.54,9.05-33.01,33.53-21.36,48.75c11.69,15.25,60.44,36.71,77.71,44.19c17.28,7.47,101.06,24.89,138.67,35.03
		c37.57,10.18,48.23,55.36,39.59,80.77c-3.44,10.11-8.01,20.7-15.04,30.42h469.56C886.46,969.25,743.38,876.69,636.66,832.33z"/>
	<path class="st9" d="M519.35,998.42c8.64-25.4-2.02-70.58-39.59-80.77c-37.61-10.15-121.39-27.56-138.67-35.03
		c-17.28-7.47-66.02-28.93-77.71-44.19c-11.66-15.22,7.82-39.7,21.36-48.75c13.23-8.88,49.43-31.37,50.87-32.29
		c-15.05-0.86-30.48-1.34-46.28-1.37c0,0-86.87,35.45-99.07,43.19c-12.17,7.75-32.5,20.43-24.37,43.78
		c8.12,23.38,54.81,38.26,83.78,47.24c29,8.98,138.15,38.94,152.38,47.24c14.23,8.3,21.32,34.04,10.66,53.34
		c-8.3,15.02-21.24,30.3-41.66,38.03h133.26C511.34,1019.12,515.91,1008.53,519.35,998.42z"/>
</g>
</svg>
