<?xml version="1.0" encoding="utf-8"?>
<!-- Generator: Adobe Illustrator 26.0.3, SVG Export Plug-In . SVG Version: 6.00 Build 0)  -->
<svg version="1.1" id="Слой_1" xmlns="http://www.w3.org/2000/svg" xmlns:xlink="http://www.w3.org/1999/xlink" x="0px" y="0px"
	 viewBox="0 0 1080 1080" style="enable-background:new 0 0 1080 1080;" xml:space="preserve">
<style type="text/css">
	.st0{fill:#E5E5E5;}
	.st1{fill:#96FF31;}
	.st2{fill:#84EA00;}
	.st3{fill:#A9B4B5;}
	.st4{fill:#869496;}
	.st5{fill:#EA5F00;}
	.st6{fill:#C65000;}
	.st7{fill:#FF7300;}
	.st8{fill:#899296;stroke:#54606D;stroke-width:15;stroke-miterlimit:10;}
	.st9{fill:#778389;stroke:#54606D;stroke-width:15;stroke-linecap:round;stroke-linejoin:round;stroke-miterlimit:10;}
	.st10{fill:#54606D;}
	.st11{fill:#FFBE2C;}
	.st12{fill:#FF9D00;}
	.st13{fill:#899296;}
	.st14{fill:#BCBFC1;}
	.st15{fill:#FFD488;}
	.st16{fill:#FF2A00;}
	.st17{fill:#DD0A00;}
	.st18{fill:#FFEEA9;}
	.st19{fill:#FFDC9F;}
	.st20{fill:#606A6D;stroke:#1C242B;stroke-width:30;stroke-miterlimit:10;}
	.st21{fill:#FFCF48;}
	.st22{fill:#FF7761;}
	.st23{fill:#606A6D;}
	.st24{fill:#005B77;}
	.st25{fill:#00404F;}
	.st26{fill:#9DA6A8;}
	.st27{fill:#384042;}
	.st28{fill:#00D6D6;}
	.st29{fill:#00F9EC;}
	.st30{fill:#606A6D;stroke:#1C242B;stroke-width:80;stroke-miterlimit:10;}
	.st31{fill:#606A6D;stroke:#1C242B;stroke-width:60;stroke-miterlimit:10;}
	.st32{fill:#00899B;}
	.st33{fill:#006A7C;}
	.st34{fill:#00BBC9;}
	.st35{fill:#FFDA00;}
	.st36{fill:#F7B000;}
	.st37{fill:#FFEA80;}
	.st38{fill:#7C9998;}
	.st39{fill:none;stroke:#B73800;stroke-width:8;stroke-miterlimit:10;}
	.st40{fill:#A1B2B1;}
	.st41{fill:#42727A;}
	.st42{fill:#B73800;}
	.st43{fill:#A1DB00;}
	.st44{fill:#76C100;}
	.st45{fill:#00AFA6;}
	.st46{fill:#006F77;}
	.st47{fill:#C14000;}
	.st48{fill:#FF6F0D;stroke:#CC2B00;stroke-width:4;stroke-miterlimit:10;}
	.st49{fill:#FFEB76;}
	.st50{fill:#FFD93B;}
	.st51{fill:#842500;}
	.st52{fill:#DFFF22;}
	.st53{fill:#6CF5FF;}
	.st54{fill:#00CFFF;}
	.st55{fill:#00A5F7;}
	.st56{fill:none;stroke:#9B00CE;stroke-width:3;stroke-miterlimit:10;}
	.st57{fill:none;stroke:#D376FF;stroke-width:3;stroke-miterlimit:10;}
	.st58{fill:none;stroke:#7400A5;stroke-width:3;stroke-miterlimit:10;}
	.st59{fill:#BBFDFF;}
	.st60{fill:#92FCFF;}
	.st61{fill:#A6FFFF;}
	.st62{fill:none;stroke:#F7ABFF;stroke-width:3;stroke-miterlimit:10;}
	.st63{fill:#D08DFF;}
	.st64{fill:#AF48FF;}
	.st65{fill:#7F00E2;}
	.st66{fill:#ECC2FF;}
	.st67{fill:#006FDD;}
	.st68{fill:#004FC1;}
	.st69{fill:#2A333A;stroke:#A0ACAF;stroke-width:30;stroke-miterlimit:10;}
	.st70{fill:#DB0000;}
	.st71{fill:#9B0000;}
	.st72{fill:#7C0000;}
	.st73{fill:#FF1F1F;}
	.st74{fill:#80C6FF;}
	.st75{fill:#E2E2E2;}
</style>
<g>
	<path class="st63" d="M308.34,855.78l-9.9-6.93c-19.95-13.97-24.8-41.46-10.83-61.41l97.87-139.78
		c13.97-19.95,41.46-24.8,61.41-10.83l9.9,6.93c19.95,13.97,24.8,41.46,10.83,61.41l-97.87,139.78
		C355.79,864.89,328.29,869.74,308.34,855.78z"/>
	<path class="st63" d="M369.92,898.88l-9.9-6.93c-19.95-13.97-24.8-41.46-10.83-61.41l97.87-139.78
		c13.97-19.95,41.46-24.8,61.41-10.83l9.9,6.93c19.95,13.97,24.8,41.46,10.83,61.41l-97.87,139.78
		C417.36,908,389.86,912.85,369.92,898.88z"/>
	<polygon class="st64" points="620.5,353.77 549.72,362.45 537.42,380.02 593.97,404.14 	"/>
	<path class="st63" d="M588.01,415.45c0,0-22.44,4.32-43.76,4.5c-161.82,1.38-334.29-42.28-334.29-42.28l-64.92,92.73
		c0,0,160.07,74.25,282.16,158.18c24.04,16.53,32.38,30.33,32.38,30.33L588.01,415.45z"/>
	<polygon class="st63" points="724.97,426.92 741.03,496.4 728.73,513.97 686.72,469.08 	"/>
	<path class="st63" d="M677.38,479.84c0,0,3.83,22.53,11.14,42.55c55.5,152.01,158.06,301,158.06,301l-64.04,93.33
		c0,0-126.86-126.64-248.3-211.51c-23.91-16.71-39.77-19.68-39.77-19.68L677.38,479.84z"/>
	<polygon class="st65" points="376.31,660.74 153.5,673.36 144.86,741.31 230.13,801.02 295.41,778.88 	"/>
	<path class="st64" d="M162.67,477.62l-15.22-10.66c0,0,138.99-198.52,143.31-204.69c4.32-6.17,17.28-16.14,20.88-13.62
		c3.6,2.52-0.72,17.23-5.66,24.28C301.05,279.98,162.67,477.62,162.67,477.62z"/>
	<path class="st63" d="M784.85,913.43l-15.22-10.66c0,0,138.99-198.52,143.31-204.69c4.32-6.17,17.28-16.14,20.88-13.62
		c3.6,2.52-0.72,17.23-5.66,24.28C923.22,715.79,784.85,913.43,784.85,913.43z"/>
	<path class="st64" d="M426.5,820.6l90.94-129.88c0.6-0.86,1.23-1.68,1.87-2.49c-1.81-1.73-3.78-3.35-5.9-4.83l0,0
		c-22.68-15.88-53.95-10.37-69.83,12.32l-90.94,129.88c-15.88,22.68-10.37,53.95,12.32,69.83l0,0
		c21.83,15.28,51.59,10.75,67.95-9.82C415.29,868.78,412.1,841.16,426.5,820.6z"/>
	<path class="st64" d="M369.69,801.25L369.69,801.25c-22.68-15.88-28.2-47.14-12.32-69.83l70.03-100.02
		c-17.23-1.47-34.75,6.01-45.39,21.19l-90.94,129.88c-15.88,22.68-10.37,53.95,12.32,69.83l0,0c22.68,15.88,53.95,10.37,69.83-12.32
		l20.91-29.87C385.62,809.4,377.19,806.5,369.69,801.25z"/>
	<polygon class="st64" points="520.05,761.33 584.17,974.89 523.28,1006.26 438,946.55 437.83,878.58 	"/>
	<path class="st63" d="M374.91,856.25c-5.56,8.38-29.2,25.68-40.89,17.5c-11.69-8.18-3.11-35.49,2.97-43.77L450.07,675.9
		c0.49-0.66,0.92-1.36,1.31-2.09l169.74-322.28c6.33-12.01,15.22-22.48,26.05-30.67l96.22-72.75c4.98-3.77,9.43-8.19,13.24-13.15
		l62.92-82.04c2.53-3.3,6.21-5.54,10.31-6.26l0.13-0.02c8.81-1.55,17.28,4.14,19.16,12.89v0c0.94,4.38,0.08,8.95-2.39,12.68
		l-56.47,85.3c-3.7,5.59-6.57,11.69-8.53,18.1l-34.78,114.05c-3.9,12.78-10.52,24.57-19.42,34.55L485.42,695.9
		c-0.46,0.51-0.88,1.05-1.27,1.62C475.79,709.65,380.23,848.24,374.91,856.25z"/>
	<path class="st63" d="M818.96,187.17l-4.4-3.08c0,0,69.5-99.26,71.66-102.34c2.16-3.08,7.79-8.66,8.83-7.93
		c1.04,0.73-1.96,7.49-4.43,11.02C888.15,88.35,818.96,187.17,818.96,187.17z"/>
	<polygon class="st64" points="702.67,466.26 727.69,438.69 724.97,426.92 686.72,469.08 728.73,513.97 736.68,502.6 	"/>
	<path class="st64" d="M569.28,698.49c-18.37-14.58-34.54-25.56-34.54-25.56L683.3,505.85c-3.9-14.15-5.92-26.01-5.92-26.01
		l-182.91,205.7c0,0,15.86,2.97,39.77,19.68c121.44,84.87,248.3,211.51,248.3,211.51l12.71-18.53
		C756.13,860.74,660.43,770.82,569.28,698.49z"/>
	<path class="st64" d="M787.82,892.99c0,0,134.19-191.66,138.36-197.62c1.82-2.6,5.25-5.87,8.84-8.54c-0.18-1.1-0.57-1.93-1.2-2.37
		c-3.6-2.52-16.56,7.45-20.88,13.62c-4.32,6.17-143.31,204.69-143.31,204.69l15.22,10.66c0,0,3.51-5.02,9.44-13.48L787.82,892.99z"
		/>
	<path class="st64" d="M384.6,504.86l45.39-64.84c0,0,38.11,9.55,140.31,8.99l17.71-33.57c0,0-22.44,4.32-43.76,4.5
		c-161.82,1.38-334.29-42.28-334.29-42.28l-64.92,92.73c0,0,160.07,74.25,282.16,158.18c24.04,16.53,32.38,30.33,32.38,30.33
		l48.27-91.51C438.64,529.93,384.6,504.86,384.6,504.86z"/>
	<polygon class="st64" points="362.54,795.17 450.07,675.9 459.59,658.91 451.84,640.28 353.03,781.41 347.32,796.7 	"/>
	<path class="st64" d="M437.3,661.05c0,0-1.78-17.91-20.57-14.4c-16.57,3.09-6.14-15.58,10.67-15.24
		c13.47,0.27,20.75,14.15,20.75,14.15L437.3,661.05z"/>
	<path class="st64" d="M665.43,427.4c-21.52,22.78-38.87,34.86-43.98,31.93c-7.13-4.1-1.22-20.82,13.94-50.8
		c15-29.65,50.78-82.32,72.65-103.77s36.62-32.76,41.95-29.02c5.33,3.73,0.84,16.81-12.92,49.35S686.96,404.62,665.43,427.4z"/>
	<path class="st66" d="M730.82,315.77c3.44-8.14,6.3-15.06,8.58-20.93l-36.83,52.24l0-0.01c-8.14,12.43-17.33,24.99-26.26,36.33l0,0
		l-35.89,52.82c5.68-4.91,12.02-11,18.76-18.14C680.71,395.31,717.06,348.31,730.82,315.77z"/>
	<polygon class="st64" points="683.32,372.47 672.33,408.17 687.02,392.44 689.33,363.88 	"/>
	<polygon class="st64" points="696.62,352.54 697.98,372.05 704.3,364.54 702.93,343.53 	"/>
	<path class="st65" d="M651.53,408.45c15-29.65,50.78-82.32,72.65-103.77c11.34-11.12,20.76-19.51,27.95-24.49
		c-0.16-2.11-0.86-3.55-2.14-4.45c-5.33-3.73-20.07,7.58-41.95,29.02c-21.88,21.45-57.66,74.12-72.65,103.77
		c-15.16,29.98-21.07,46.7-13.94,50.8c2.26,1.3,6.93-0.35,13.3-4.57C633.47,447.23,639.67,431.9,651.53,408.45z"/>
	<path class="st66" d="M840.97,160.21l-0.3,12.13c0,0-55.76,73.85-62.66,86.91c-6.9,13.06-29.51,117.73-42,139.42
		S578.89,578.82,578.89,578.82l17.37-34.85c0,0,118.15-130.87,128.88-148.83c10.72-17.96,39.13-125.16,46.49-140.36
		C778.99,239.58,840.97,160.21,840.97,160.21z"/>
	<polygon class="st63" points="606.88,551.41 630.18,502.76 647.82,482.97 630.13,525.25 	"/>
	<path class="st66" d="M677.11,537.01c43.13,108.43,142.13,271.78,142.13,271.78l-8.12,11.59c0,0-108.23-170.55-142.51-274.3
		L677.11,537.01z"/>
	<path class="st66" d="M516.23,700.27c0,0,3.87,6.08,7.38,16.33c2.94,8.58,2.56,21.74-7,35.4c-9.56,13.66-17.43,25.63-17.43,25.63
		l3.64-22.82c0,0,4.57-6.65,7.32-10.77c4.5-6.72,7.34-13.94,7.4-21.42C517.62,712.82,516.23,700.27,516.23,700.27z"/>
	<polygon class="st66" points="492.82,767.48 489.23,791.85 473.02,815 478.4,788.07 	"/>
	<polygon class="st65" points="596.18,356.75 575.73,396.36 593.51,403.95 619.9,353.84 	"/>
	<path class="st65" d="M588.01,415.45L450.07,675.9c0,0-104.78,142.77-114.01,155.46c-3.88,5.33-8.03,18.31-7.79,29.88
		c-8.82-0.68-16.59-4.22-16.59-4.22s5.34-22,8.95-29.33S437.3,661.05,437.3,661.05l124.47-242.29L588.01,415.45z"/>
	<path class="st65" d="M451.61,583.15c-117.82-75.92-277.9-123.72-293.7-131.13l-12.86,18.37c0,0,160.07,74.25,282.16,158.18
		c24.04,16.53,32.38,30.33,32.38,30.33l26.46-50.94C481.59,603.84,464.29,591.32,451.61,583.15z"/>
	<path class="st65" d="M229.44,382.25l-41.02,58.59c41.96-39.1,137.92-39.87,137.92-39.87L229.44,382.25z"/>
	<path class="st65" d="M166.52,455.71c0,0,138.99-198.52,143.31-204.69c0.51-0.73,1.14-1.51,1.87-2.32
		c-0.02-0.01-0.03-0.03-0.05-0.05c-3.6-2.52-16.56,7.45-20.88,13.62c-4.32,6.17-143.31,204.69-143.31,204.69l15.22,10.66
		c0,0,4.97-7.1,13.05-18.64L166.52,455.71z"/>
</g>
</svg>
