<?xml version="1.0" encoding="utf-8"?>
<!-- Generator: Adobe Illustrator 26.0.3, SVG Export Plug-In . SVG Version: 6.00 Build 0)  -->
<svg version="1.1" id="Слой_1" xmlns="http://www.w3.org/2000/svg" xmlns:xlink="http://www.w3.org/1999/xlink" x="0px" y="0px"
	 viewBox="0 0 1080 1080" style="enable-background:new 0 0 1080 1080;" xml:space="preserve">
<style type="text/css">
	.st0{fill:url(#SVGID_1_);}
	.st1{fill:#FFBE55;}
	.st2{fill:#EA8B00;}
	.st3{fill:#D17200;}
	.st4{fill:#AA6900;}
	.st5{fill:#CC8D00;}
	.st6{fill:#9B5800;}
	.st7{fill:#E2A700;}
	.st8{fill:#FFD400;}
	.st9{fill:#E87400;}
	.st10{fill:#FF9700;}
	.st11{fill:#E5B900;}
	.st12{fill:none;}
	.st13{fill:url(#SVGID_00000030480740036655992130000003872105620474444211_);}
	.st14{fill:url(#SVGID_00000119809139704316721280000015284904600494364570_);}
	.st15{fill:url(#SVGID_00000112626573314625711850000017253083789775606708_);}
	.st16{fill:url(#SVGID_00000093889739165951251730000014734017516213176729_);}
	.st17{fill:url(#SVGID_00000120547855326344052980000006581536909113908631_);}
</style>
<g>
	<path class="st12" d="M753.63,1046.37H611.95H245.9c-114.43,0-207.23-92.8-207.23-207.23c0,0,0-367.59,0-779.68
		c0-9.14,0-18.3,0-27.48H28.56v1081.28h1022.88v-66.9H753.63z"/>
	<path class="st8" d="M182.28,306.28c53.48,198.23,233.1,347.4,342.81,411.37c109.66,63.94,355.89,168.33,356.1,168.42
		c56.4-33.58,115.39-68.7,170.25-101.36V364.04c-184.91-38.08-416.66-80.63-416.66-80.63S407.26,240.77,383.4,141.74
		c-4.73-19.61-6.96-38.53-6.21-56.56c0.78-18.81,4.82-36.63,12.65-53.19H152.98C144.48,98.23,149.79,185.86,182.28,306.28z"/>
	<path class="st8" d="M794.63,102.83c1.41,13.78,5.96,26.94,13.06,38.91l0.07,0.17c12.92,21.73,34.14,39.56,60.13,50.08
		c16.08,6.53,88.87,16.03,183.55,26.71V31.98H844.87C812.31,48.79,791.16,68.99,794.63,102.83z"/>
	<path class="st3" d="M1051.44,921.78V854.1c-27.63,17.89-55.66,36.03-82.93,53.65C996.21,912.73,1023.89,917.4,1051.44,921.78z"/>
	<path class="st3" d="M383.4,141.74c23.86,99.04,251.38,141.68,251.38,141.68s231.75,42.55,416.66,80.63V250.06
		c-80.57-9.81-138.33-16.92-145.46-18.44c-24.99-5.34-53.31-16.01-70.07-33.53c-16.76-17.52-28.14-56.19-28.14-56.19l-0.07-0.17
		c-7.1-11.96-11.66-25.13-13.06-38.91c-3.48-33.83,17.68-54.04,50.24-70.84H415.89c-20.54,24.1-38.69,53.19-38.69,53.19
		C376.44,103.21,378.67,122.13,383.4,141.74z"/>
	<path class="st11" d="M38.68,839.14c0,114.43,92.8,207.23,207.23,207.23h366.05l0.45-0.27c8.3-4.94,130.78-77.86,268.79-160.02
		c-0.21-0.09-246.44-104.48-356.1-168.42c-109.71-63.97-289.33-213.14-342.81-411.37c-32.49-120.42-37.79-208.06-29.3-274.3H38.68
		c0,9.18,0,18.34,0,27.48C38.68,471.56,38.68,839.14,38.68,839.14z"/>
	<path class="st4" d="M612.4,1046.1l-0.45,0.27h141.68l214.88-138.62h0c27.27-17.62,55.3-35.76,82.93-53.65v-69.38
		c-54.86,32.66-113.85,67.78-170.25,101.36C743.17,968.24,620.7,1041.15,612.4,1046.1z"/>
	<path class="st4" d="M807.76,141.91c0,0,11.39,38.67,28.14,56.19c16.76,17.52,45.08,28.19,70.07,33.53
		c7.13,1.52,64.89,8.63,145.46,18.44v-31.36c-94.68-10.68-167.47-20.19-183.55-26.71C841.91,181.47,820.69,163.64,807.76,141.91z"/>
	<path class="st4" d="M415.89,31.98h-26.05c-7.82,16.56-11.87,34.38-12.65,53.19C377.2,85.17,395.35,56.09,415.89,31.98z"/>
	<path class="st4" d="M968.51,907.75l-214.88,138.62h297.81V921.78C1023.89,917.4,996.21,912.73,968.51,907.75L968.51,907.75z"/>
</g>
</svg>
