<?xml version="1.0" encoding="utf-8"?>
<!-- Generator: Adobe Illustrator 26.0.3, SVG Export Plug-In . SVG Version: 6.00 Build 0)  -->
<svg version="1.1" id="Слой_1" xmlns="http://www.w3.org/2000/svg" xmlns:xlink="http://www.w3.org/1999/xlink" x="0px" y="0px"
	 viewBox="0 0 1080 1080" style="enable-background:new 0 0 1080 1080;" xml:space="preserve">
<style type="text/css">
	.st0{fill:url(#SVGID_1_);}
	.st1{fill:#B7004B;}
	.st2{fill:#E6007E;}
	.st3{fill:#99003B;}
	.st4{fill:#CC0062;}
	.st5{fill:#FF2CAF;}
	.st6{fill:#00E7FF;}
	.st7{fill:#00BDFF;}
	.st8{fill:#0096F2;}
	.st9{fill:#6CF8FF;}
	.st10{fill:none;}
	.st11{fill:url(#SVGID_00000026882035292608638820000000050053253686707604_);}
	.st12{fill:url(#SVGID_00000114036923991338296050000005371464677898799269_);}
	.st13{fill:url(#SVGID_00000106869942167425267290000011431589169757151149_);}
	.st14{fill:url(#SVGID_00000130620244288561074740000016981032491838339487_);}
	.st15{fill:url(#SVGID_00000111176734507696156970000015381485161116835229_);}
	.st16{fill:url(#SVGID_00000019668013935833545590000009166309401636546944_);}
	.st17{fill:url(#SVGID_00000066484948098001319840000012469593196764135859_);}
	.st18{fill:url(#SVGID_00000124851761696144507340000004746289434626539413_);}
	.st19{fill:url(#SVGID_00000150823513965253606020000009553399130313112202_);}
	.st20{fill:url(#SVGID_00000178177835110989143100000008411996610738311310_);}
	.st21{fill:url(#SVGID_00000029035896948355338920000010865658479028388483_);}
	.st22{fill:url(#SVGID_00000183251153261898419190000015232428779693543040_);}
</style>
<g>
	<path class="st10" d="M172.7,327.65c16.29-22.49,31.85-42.93,46.93-62.92c47.95-63.57,159.87-160.19,223.83-185.05
		C500.23,57.59,572.75,30.61,657.97,64l0.04,0.04c10.58,4.14,21.37,9.21,32.34,15.32c0.18,0.11,0.36,0.22,0.54,0.32
		c22.23,12.48,39.1,26.33,51.44,40.76h0.04l0.07,0.07c4.32,5.07,8.09,10.25,11.33,15.47c29.03,46.19,17.05,96.12-9.71,128.75
		c-16.54,20.15-48.51,41.11-84.66,62.92h297.12V48.31H132.35v279.34H172.7z"/>
	<linearGradient id="SVGID_1_" gradientUnits="userSpaceOnUse" x1="172.4138" y1="2718.8157" x2="153.0257" y2="416.4752">
		<stop  offset="0" style="stop-color:#6DE5FF"/>
		<stop  offset="0.0213" style="stop-color:#73E6FF"/>
		<stop  offset="0.2427" style="stop-color:#B0EDFF"/>
		<stop  offset="0.4052" style="stop-color:#D6F2FF"/>
		<stop  offset="0.4904" style="stop-color:#E5F4FF"/>
		<stop  offset="0.5935" style="stop-color:#E8EAFA"/>
		<stop  offset="0.7712" style="stop-color:#F1CEEC"/>
		<stop  offset="1" style="stop-color:#FFA1D5"/>
	</linearGradient>
	<path class="st0" d="M132.35,327.65v58.39c13.99-21.31,27.4-40.51,40.35-58.39H132.35z"/>
	
		<linearGradient id="SVGID_00000032639117666914451100000003201559227765734070_" gradientUnits="userSpaceOnUse" x1="562.217" y1="2715.5332" x2="542.8289" y2="413.1926">
		<stop  offset="0" style="stop-color:#6DE5FF"/>
		<stop  offset="0.0213" style="stop-color:#73E6FF"/>
		<stop  offset="0.2427" style="stop-color:#B0EDFF"/>
		<stop  offset="0.4052" style="stop-color:#D6F2FF"/>
		<stop  offset="0.4904" style="stop-color:#E5F4FF"/>
		<stop  offset="0.5935" style="stop-color:#E8EAFA"/>
		<stop  offset="0.7712" style="stop-color:#F1CEEC"/>
		<stop  offset="1" style="stop-color:#FFA1D5"/>
	</linearGradient>
	<path style="fill:url(#SVGID_00000032639117666914451100000003201559227765734070_);" d="M520.23,418.63
		c-63.96,55.94-148.72,137.49-217.46,211.02c-66.41,71.05-132.82,131.67-168.97,203.43c-0.49,0.98-0.96,1.98-1.45,2.97v44.07
		c32.71,1.07,64.24,3.45,89.74,6.62c8.44,1.04,16.21,2.2,23.14,3.4c57.48,10.05,113.42,30.23,169.53,76.03
		c10.41-15.11,35.99-51.72,66.99-92.24l0,0l0,0c40.57-53.02,90.38-112.69,127.49-139.49c53.17-38.39,97.67-53.38,135.14-59.01
		c14.94-2.24,28.75-2.96,41.55-3.11c69.23-0.79,126.55,11.77,170.59,27.42v-372.1H659.4C611.65,356.47,556.62,386.77,520.23,418.63z
		"/>
	
		<linearGradient id="SVGID_00000024690647652862634730000018215505205341819830_" gradientUnits="userSpaceOnUse" x1="737.998" y1="2714.0527" x2="718.6099" y2="411.7124">
		<stop  offset="0" style="stop-color:#6DE5FF"/>
		<stop  offset="0.0213" style="stop-color:#73E6FF"/>
		<stop  offset="0.2427" style="stop-color:#B0EDFF"/>
		<stop  offset="0.4052" style="stop-color:#D6F2FF"/>
		<stop  offset="0.4904" style="stop-color:#E5F4FF"/>
		<stop  offset="0.5935" style="stop-color:#E8EAFA"/>
		<stop  offset="0.7712" style="stop-color:#F1CEEC"/>
		<stop  offset="1" style="stop-color:#FFA1D5"/>
	</linearGradient>
	<path style="fill:url(#SVGID_00000024690647652862634730000018215505205341819830_);" d="M755.68,814.53
		c-46.36,1.94-90.45,37.63-121.64,79.57c-18.13,24.39-58.18,78.25-88.5,119.02l0,0l-12.69,18.58h381.96
		c-2.44-21.29-5.73-43.07-11.08-65.54C882.09,875.37,864.42,809.98,755.68,814.53z"/>
	<path class="st2" d="M340.95,966.34c-33.39-28.21-118.86-79.59-118.86-79.59c-25.49-3.17-57.02-5.55-89.74-6.62v151.56h271.73
		C388.36,1011.19,367.99,989.18,340.95,966.34z"/>
	<path class="st2" d="M481.75,873.93c-31,40.52-56.58,77.13-66.99,92.24c0.06,0.05,0.12,0.1,0.18,0.15L481.75,873.93z"/>
	<path class="st2" d="M896.83,738.06c-46.57-38.58-152.48-62.59-152.48-62.59s0,0,0.03-0.03c-37.47,5.63-81.97,20.62-135.14,59.01
		c-37.11,26.8-86.92,86.47-127.49,139.49c0,0-16.05,42.58-13.6,58.31c2.44,15.72,14.07,36.28,23.51,43.95
		c9.44,7.67,31.32,28.25,37.82,30.75c6.5,2.5,16.06,6.17,16.07,6.17c30.32-40.77,70.37-94.63,88.5-119.02
		c31.19-41.94,75.28-77.63,121.64-79.57c108.74-4.55,126.41,60.85,148.05,151.62c5.35,22.47,8.64,44.25,11.08,65.54h41.71V848.01
		C939.68,800.47,918.89,756.33,896.83,738.06z"/>
	<path class="st2" d="M310.21,326.43c54.39-73.03,198.9-191.02,265.74-219.26c49.97-21.12,94.9-26.44,114.4-27.81
		c-10.97-6.12-21.76-11.19-32.34-15.32L657.97,64c-85.22-33.38-157.75-6.4-214.51,15.68c-63.96,24.86-175.88,121.48-223.83,185.05
		c-15.08,20-30.65,40.43-46.93,62.92c-12.95,17.89-26.36,37.08-40.35,58.39v288.09C165.46,588.25,261.87,391.35,310.21,326.43z"/>
	<path class="st2" d="M132.35,831.69v4.37c0.49-0.99,0.95-1.99,1.45-2.97C133.3,832.63,132.83,832.15,132.35,831.69z"/>
	<path class="st5" d="M785.93,672.32c-12.79,0.15-26.61,0.87-41.55,3.11c-0.03,0.03-0.03,0.03-0.03,0.03s105.91,24.01,152.48,62.59
		c22.06,18.28,42.85,62.41,59.69,109.95V699.75C912.48,684.09,855.16,671.53,785.93,672.32z"/>
	<path class="st1" d="M545.54,1013.11c0,0-9.57-3.68-16.07-6.17c-6.5-2.5-28.38-23.07-37.82-30.75
		c-9.44-7.67-21.07-28.23-23.51-43.95c-2.44-15.72,13.6-58.31,13.6-58.31l0,0l0,0l-66.81,92.39c8.91,7.28,17.83,15.19,26.76,23.83
		c11.51,11.14,22.21,25.38,32.16,41.54h59L545.54,1013.11L545.54,1013.11z"/>
	<path class="st5" d="M302.77,629.65c68.75-73.53,153.5-155.08,217.46-211.02c36.39-31.86,91.42-62.16,139.18-90.98
		c36.14-21.81,68.12-42.77,84.66-62.92c26.76-32.63,38.74-82.56,9.71-128.75c-3.24-5.22-7.01-10.4-11.33-15.47l-0.07-0.07h-0.04
		c-12.34-14.43-29.21-28.28-51.44-40.76c-0.18-0.11-0.36-0.22-0.54-0.32c-19.5,1.37-64.43,6.69-114.4,27.81
		C509.11,135.4,364.6,253.4,310.21,326.43c-48.35,64.92-144.75,261.82-177.86,347.7v157.55c0.48,0.47,0.95,0.95,1.45,1.4
		C169.95,761.32,236.36,700.7,302.77,629.65z"/>
	<path class="st5" d="M414.94,966.32c-0.06-0.05-0.12-0.1-0.18-0.15c-56.11-45.79-112.04-65.98-169.53-76.03
		c-6.94-1.21-14.71-2.36-23.14-3.4c0,0,85.47,51.38,118.86,79.59c27.04,22.84,47.42,44.85,63.13,65.35h69.78
		c-9.94-16.16-20.64-30.39-32.16-41.54C432.77,981.51,423.85,973.61,414.94,966.32z"/>
</g>
</svg>
