<?xml version="1.0" encoding="utf-8"?>
<!-- Generator: Adobe Illustrator 26.0.3, SVG Export Plug-In . SVG Version: 6.00 Build 0)  -->
<svg version="1.1" id="Слой_1" xmlns="http://www.w3.org/2000/svg" xmlns:xlink="http://www.w3.org/1999/xlink" x="0px" y="0px"
	 viewBox="0 0 1080 1080" style="enable-background:new 0 0 1080 1080;" xml:space="preserve">
<style type="text/css">
	.st0{fill:url(#SVGID_1_);}
	.st1{fill:#B7004B;}
	.st2{fill:#E6007E;}
	.st3{fill:#99003B;}
	.st4{fill:#CC0062;}
	.st5{fill:#FF2CAF;}
	.st6{fill:#00E7FF;}
	.st7{fill:#00BDFF;}
	.st8{fill:#0096F2;}
	.st9{fill:#6CF8FF;}
	.st10{fill:none;}
	.st11{fill:url(#SVGID_00000049928534456459077510000008910760227313444012_);}
	.st12{fill:url(#SVGID_00000176040087901380403280000004232599787484223136_);}
	.st13{fill:url(#SVGID_00000087397387918206721240000012215626133707864222_);}
	.st14{fill:url(#SVGID_00000001649583411297539410000004087566396236885175_);}
	.st15{fill:url(#SVGID_00000051366108556635141680000004587167753017456809_);}
	.st16{fill:url(#SVGID_00000148629948906584354040000010361118266257899942_);}
	.st17{fill:url(#SVGID_00000052092092047318478720000003419719298625035909_);}
	.st18{fill:url(#SVGID_00000175295278851523067620000008968244869943811723_);}
	.st19{fill:url(#SVGID_00000180332413069248515150000002550446426729784201_);}
	.st20{fill:url(#SVGID_00000118394323100534137550000000303477075396053637_);}
	.st21{fill:url(#SVGID_00000018234479679913456950000006333325134497726598_);}
	.st22{fill:url(#SVGID_00000104676639026808767500000008327665296074121914_);}
</style>
<g>
	<linearGradient id="SVGID_1_" gradientUnits="userSpaceOnUse" x1="467.8659" y1="1735.0153" x2="448.4778" y2="-567.3252">
		<stop  offset="0" style="stop-color:#6DE5FF"/>
		<stop  offset="0.0213" style="stop-color:#73E6FF"/>
		<stop  offset="0.2427" style="stop-color:#B0EDFF"/>
		<stop  offset="0.4052" style="stop-color:#D6F2FF"/>
		<stop  offset="0.4904" style="stop-color:#E5F4FF"/>
		<stop  offset="0.5935" style="stop-color:#E8EAFA"/>
		<stop  offset="0.7712" style="stop-color:#F1CEEC"/>
		<stop  offset="1" style="stop-color:#FFA1D5"/>
	</linearGradient>
	<path class="st0" d="M707.65,617c-37.54-15.35-76.65-32.62-101.6-58.48c-32.15-33.32-61.91-115.49-61.91-214.31
		c0-98.82,34.5-171.45,114.28-280.99c5.17-7.1,10.26-13.88,15.28-20.37H212.68v980.65h313.6C597.51,831.49,689.52,651.82,707.65,617
		z"/>
	<path class="st2" d="M796.54,791.88C796.54,791.88,796.54,791.88,796.54,791.88c37.87-4.75,66.67,29.18,66.67,79.48
		c0,38.27-2.75,103.36-1.97,152.15h163.83V748.59c-29.76-10.38-127.1-36.08-189.85-56.47C824.27,716.93,810.9,750.03,796.54,791.88z
		"/>
	<path class="st1" d="M739.38,839.51c14.29-27.38,19.28-42.86,57.15-47.62c0,0,0,0,0,0c0,0,0-0.01,0-0.01
		c14.36-41.84,27.73-74.94,38.68-99.76c-10.58-3.44-20.21-6.73-28.34-9.77c-70.59-26.4-94.3-60.77-94.3-60.77l5.95-0.15
		c-3.61-1.46-7.24-2.94-10.89-4.43c-18.13,34.82-110.14,214.49-181.37,406.5h93.23c23.04-46.33,86.54-164.95,96.06-174.47
		C726.29,838.32,739.38,839.51,739.38,839.51z"/>
	<path class="st3" d="M739.37,629.97c-6.75-2.83-13.74-5.66-20.84-8.53l-5.95,0.15c0,0,23.71,34.37,94.3,60.77
		c8.12,3.04,17.75,6.33,28.34,9.77c62.75,20.39,160.09,46.09,189.85,56.47v-99.63C923.74,641.59,774.78,644.77,739.37,629.97z"/>
	<path class="st2" d="M834.42,466.85c45.46,44.05,148.44,116.45,185.94,139.3c1.53,0.94,3.11,1.9,4.71,2.87V337.16
		c-13.23-1.54-22.67-2.46-26.14-2.46c-18.25,0-58.56,0.01-78.09,0c-19.53-0.01,10.61-20.23,24.51-26.79
		c7.75-3.65,42.97-13.82,79.72-21.51v-38.43c-8.97,12.45-25.57,22.96-45.94,27.54c-34,7.66-65.6-4.07-70.59-26.2
		c-4.99-22.13,18.53-46.28,52.53-53.94c26.75-6.03,52-0.05,63.99,13.56V42.85H827.94c-35.52,46.88-69.62,108.27-79.03,188.26
		C734.62,352.55,788.96,422.8,834.42,466.85z"/>
	<path class="st3" d="M715.57,849.03c-9.52,9.52-73.03,128.14-96.06,174.47h37.26c32.66-80.54,72.2-164.03,82.62-184
		C739.38,839.51,726.29,838.32,715.57,849.03z"/>
	<path class="st4" d="M863.21,871.36c0-50.3-28.8-84.23-66.67-79.47c0,0,0,0,0,0c-37.87,4.76-42.86,20.24-57.15,47.62
		c-10.42,19.97-49.96,103.46-82.62,184h204.47C860.45,974.72,863.21,909.63,863.21,871.36z"/>
	<path class="st1" d="M544.14,344.21c0,98.82,29.76,180.98,61.91,214.31c24.95,25.86,64.06,43.14,101.6,58.48
		c3.65,1.49,7.28,2.97,10.89,4.43c7.09,2.87,14.08,5.71,20.84,8.53c35.41,14.81,184.37,11.63,285.69,19v-39.94
		c-1.6-0.97-3.17-1.93-4.71-2.87c-37.5-22.85-140.48-95.25-185.94-139.3c-45.46-44.05-99.8-114.3-85.51-235.74
		c9.41-79.99,43.52-141.38,79.03-188.26H673.69c-5.02,6.5-10.11,13.27-15.28,20.37C578.64,172.77,544.14,245.39,544.14,344.21z"/>
	<path class="st5" d="M920.84,334.7c19.53,0.01,59.84,0,78.09,0c3.47,0,12.91,0.92,26.14,2.46V286.4
		c-36.75,7.69-71.97,17.86-79.72,21.51C931.45,314.47,901.31,334.69,920.84,334.7z"/>
	<path class="st1" d="M961.07,195.38c-34,7.66-57.52,31.81-52.53,53.94c4.99,22.13,36.59,33.86,70.59,26.2
		c20.37-4.59,36.97-15.1,45.94-27.54v-39.04C1013.08,195.33,987.82,189.35,961.07,195.38z"/>
</g>
</svg>
