<?xml version="1.0" encoding="utf-8"?>
<!-- Generator: Adobe Illustrator 26.0.3, SVG Export Plug-In . SVG Version: 6.00 Build 0)  -->
<svg version="1.1" id="Слой_1" xmlns="http://www.w3.org/2000/svg" xmlns:xlink="http://www.w3.org/1999/xlink" x="0px" y="0px"
	 viewBox="0 0 1080 1080" style="enable-background:new 0 0 1080 1080;" xml:space="preserve">
<style type="text/css">
	.st0{fill:#FFCB8D;}
	.st1{fill:#AF4F00;stroke:#7A2C00;stroke-width:5;stroke-miterlimit:10;}
	.st2{fill:#FFE8A6;}
	.st3{fill:#7A2C00;}
	.st4{fill:#301600;}
	.st5{fill:#FF9D4D;}
	.st6{fill:#913B00;}
	.st7{fill:#AF4F00;}
	.st8{fill:#441D00;}
	.st9{fill:#0F0600;}
	.st10{fill:#495154;}
	.st11{fill:#FFF0CA;}
	.st12{fill:#722E00;}
	.st13{fill:#FF8AD5;}
	.st14{fill:#FF64B5;}
	.st15{fill:#FF5FBE;}
	.st16{fill:#ED0061;}
	.st17{fill:#C60042;}
	.st18{fill:#FFB0EB;}
	.st19{fill:#CF85FF;}
	.st20{fill:#AA00F9;}
	.st21{fill:#160900;}
	.st22{fill:#626D7C;}
	.st23{fill:none;stroke:#E7AEFF;stroke-width:30;stroke-linecap:round;stroke-miterlimit:10;}
	.st24{fill:#0BAEFF;}
	.st25{fill:#007ACC;}
	.st26{fill:#0058C1;}
	.st27{fill:#22D5FF;}
	.st28{fill:#08D1FF;}
	.st29{fill:#282828;}
	.st30{fill:#636363;}
	.st31{fill:#48D8FF;}
	.st32{fill:#141414;}
	.st33{fill:#FFDA00;}
	.st34{fill:#FFB600;}
	.st35{fill:#FFA300;}
	.st36{fill:#FFE36E;}
	.st37{fill:none;stroke:#FFE36E;stroke-width:20;stroke-linecap:round;stroke-linejoin:round;stroke-miterlimit:10;}
	.st38{fill:#F44B00;}
	.st39{fill:#D82E00;}
	.st40{fill:#FF9312;}
	.st41{fill:#DD7300;}
	.st42{fill:none;stroke:#D35A00;stroke-width:8;stroke-linecap:round;stroke-miterlimit:10;}
	.st43{fill:#5B3A00;}
	.st44{fill:#472300;}
	.st45{fill:#D35A00;}
	.st46{fill:none;stroke:#FFB048;stroke-width:20;stroke-linecap:round;stroke-miterlimit:10;}
	.st47{fill:none;stroke:#FFB048;stroke-width:12;stroke-linecap:round;stroke-miterlimit:10;}
	.st48{fill:#00AD5A;}
	.st49{fill:#00F445;}
	.st50{fill:#00CC66;}
	.st51{fill:#00CC49;}
	.st52{fill:#1DFFEE;stroke:#00A58D;stroke-width:15;stroke-miterlimit:10;}
	.st53{fill:#203533;}
	.st54{fill:none;stroke:#5CFF68;stroke-width:20;stroke-linecap:round;stroke-miterlimit:10;}
	.st55{fill:#00D6D0;}
	.st56{fill:#00AAAA;}
	.st57{fill:#2CFFEA;}
	.st58{fill:#00E8D7;}
	.st59{fill:#00635E;}
	.st60{fill:#009388;}
	.st61{fill:none;stroke:#00AAAA;stroke-width:20;stroke-miterlimit:10;}
</style>
<g>
	<path class="st24" d="M690.48,448.22c-28.27-135.28,17.09-328.15,48.66-333.82c8.87-1.59,19.06,5.53,29.76,19.6
		c38.27,30.14,109.8,102.27,141.81,238.05c7.04,25,12.32,52.99,15.17,82.7c10.02,104.48-13.5,192.97-53.17,206.21
		c-13.46-46.08-30.51-64.31-44.37-74.72c-12.1-9.1-25.46-8.55-37.37-4.14c-9.24-24.06-65.39-2.58-70.28-33.43
		C707.19,511.81,700.55,496.36,690.48,448.22z"/>
	<path class="st25" d="M925.89,454.75c-0.12-1.24-0.25-2.46-0.37-3.69c-25.55-54.46-74.19-111.76-124.29-131.75
		c-26.4-10.53-68.71-18.16-117.2-22.74c-4.29,50.66-3.36,104.63,6.46,151.65c10.06,48.14,16.71,63.59,30.22,100.45
		c4.89,30.85,61.04,9.37,70.28,33.43c11.91-4.41,25.27-4.95,37.37,4.14c13.85,10.41,30.91,28.64,44.37,74.72
		C912.39,647.72,935.91,559.22,925.89,454.75z"/>
	<path class="st25" d="M861,564.12c-9.24-24.06-33.47-3.13-117.66-209.36c-13.52-36.86-20.16-52.31-30.22-100.45
		c-4.97-23.76-7.66-49.3-8.55-75.28c-19.77,69.4-32.43,181.41-14.08,269.18c10.06,48.14,16.71,63.59,30.22,100.45
		c4.89,30.85,61.04,9.37,70.28,33.43c11.91-4.41,25.27-4.95,37.37,4.14c13.85,10.41,30.91,28.64,44.37,74.72
		c14.28-4.77,26.46-19.28,35.75-40.78C888.98,592.15,867.78,561.61,861,564.12z"/>
	<path class="st24" d="M389.52,451.37c28.27-135.28-17.09-328.15-48.66-333.82c-8.87-1.59-19.06,5.53-29.76,19.6
		c-38.27,30.14-109.8,102.27-141.81,238.05c-7.04,25-12.32,52.99-15.17,82.7c-10.02,104.48,13.5,192.97,53.17,206.21
		c13.46-46.08,30.51-64.31,44.37-74.72c12.1-9.1,25.46-8.55,37.37-4.14c9.24-24.06,65.39-2.58,70.28-33.43
		C372.81,514.96,379.45,499.51,389.52,451.37z"/>
	<path class="st26" d="M754.38,207.59c77.73,94.22,86.58,229.78,86.58,229.78c-49.89-38.91-74.55-56.5-74.55-56.5
		S775.58,290.25,754.38,207.59z"/>
	<path class="st26" d="M332.34,237.36c-77.73,94.22-94.03,272.41-94.03,272.41c26.61-75.08,78.53-116.48,78.53-116.48
		S311.14,320.02,332.34,237.36z"/>
	<path class="st24" d="M325.52,380.87c72.01-38.06,350.22-36.17,440.89,0c62.47,24.92,122.67,107.84,138.67,170.95
		s19.56,167.12-26.67,232.96c-43.79,62.37-211.56,143.04-263.11,164.38c-51.56,21.33-101.33,23.11-147.56,0
		c-46.22-23.11-218.15-127.46-259.56-181.71c-37.02-48.51-42.67-160.86-21.33-225.62S263.3,413.76,325.52,380.87z"/>
	<path class="st27" d="M642.64,517.31L642.64,517.31c19.31,0,34.97-15.66,34.97-34.97V361.49c-21.77-2.82-45.44-4.94-69.94-6.36
		v127.2C607.67,501.65,623.32,517.31,642.64,517.31z"/>
	<path class="st28" d="M500,353.48v204.39c0,22.09,17.91,40,40,40l0,0c22.09,0,40-17.91,40-40V353.85
		C553.39,352.91,526.29,352.77,500,353.48z"/>
	<path class="st27" d="M473.64,354.48c-24.9,1.23-48.61,3.26-69.94,6.09V490.6c0,19.31,15.66,34.97,34.97,34.97h0
		c19.31,0,34.97-15.66,34.97-34.97V354.48z"/>
	<path class="st25" d="M686.08,887.58c-51.56,21.33-101.33,23.11-147.56,0c-46.22-23.11-218.15-127.46-259.56-181.71
		c-37.02-48.51-42.67-160.86-21.33-225.62c10.7-32.48,29.9-64.59,54.23-92.69c-57.28,34.32-106.83,93.64-126.79,154.25
		c-21.33,64.76-15.69,177.11,21.33,225.62c41.4,54.25,213.33,158.6,259.56,181.71c46.22,23.11,96,21.33,147.56,0
		c50.7-20.98,213.77-99.34,260.82-161.25C807.65,832.21,720.69,873.26,686.08,887.58z"/>
	<path class="st25" d="M229.33,420.21c2.85-29.71,8.12-57.7,15.17-82.7c24.29-103.01,71.32-169.38,109.32-208.58
		c-4.43-6.65-8.81-10.64-12.96-11.38c-8.87-1.59-19.06,5.53-29.76,19.6c-38.27,30.14-109.8,102.27-141.81,238.05
		c-7.04,25-12.32,52.99-15.17,82.7c-10.02,104.48,13.5,192.97,53.17,206.21c12.71-43.51,22.35-77.18,35.75-87.89
		C224.75,538.43,222.6,490.43,229.33,420.21z"/>
	<path class="st29" d="M553.01,777.17c-10.08,4.74-16.5,2.59-22.56,0c-7.52-3.21-32.16-12.37-46.8-46.07
		c-3.57-8.21,2.5-18.93,13.21-24.28c36.43-15,52.94-14.28,87.49,1.43c6.24,4.11,15.71,10,12.34,20.41
		C585.86,762.05,563.63,772.17,553.01,777.17z"/>
	<path class="st25" d="M427.8,822.51c30.17,17.83,71.65,15.2,88.18,3.2s26.33-47.3,26.33-47.3s-1.38,52.41-8.43,71.19
		c-7.05,18.78-24.22,33.86-24.22,33.86S397.62,804.68,427.8,822.51z"/>
	<path class="st25" d="M542.31,778.42c0,0,4.49,16.41,13.36,34.71c8.87,18.3,36,25.11,36,25.11s-18.41,1.9-33.33,0.95
		s-28-14.06-28-14.06L542.31,778.42z"/>
	
		<ellipse transform="matrix(0.2968 -0.9549 0.9549 0.2968 -292.6175 1041.6434)" class="st30" cx="561" cy="719.52" rx="10.64" ry="22.62"/>
	<path class="st31" d="M786.15,432.34c13.1,8.72,46.21,33.68,69.13,76.63c30.09,56.39,33.55,93.84,35.84,111.9
		s-6.75,26.7-10.91,28.92s-12.8,2.01-16.04-14.03c-3.24-16.04-12.73-60.93-33.96-104.9c-20.86-43.18-55.55-67.5-63.18-76.66
		c-7.63-9.16-15.57-21.09-9.65-27.86S774.32,424.47,786.15,432.34z"/>
	
		<ellipse transform="matrix(0.3302 -0.9439 0.9439 0.3302 95.3331 956.6533)" class="st31" cx="721.73" cy="411.15" rx="14.67" ry="21.65"/>
	<path class="st26" d="M538.53,887.58c-46.22-23.11-218.15-127.46-259.56-181.71c-37.02-48.51-42.67-160.86-21.33-225.62
		c10.7-32.48,29.9-64.59,54.23-92.69c-10.94,6.56-21.6,14.03-31.83,22.25c-27.45,29.78-49.18,64.69-60.83,100.06
		c-21.33,64.76-15.69,177.11,21.33,225.62c41.4,54.25,213.33,158.6,259.56,181.71c46.22,23.11,96,21.33,147.56,0
		c41.05-16.99,155.78-71.6,222.93-124.63c1.32-1.57,2.59-3.13,3.76-4.67c-66.69,44.31-153.65,85.37-188.26,99.69
		C634.53,908.92,584.75,910.7,538.53,887.58z"/>
	<path class="st26" d="M513.09,824.34c-15.68,12.41-55.76,16.09-85.42-0.98c-19.7-11.33,22.39,18.34,52.9,39.55
		c10.61-3.57,22.7-7.98,27.02-10.87c8.3-5.55,18.18-18.85,23.64-31.29c5.46-12.44,11.09-42.34,11.09-42.34
		S528.77,811.93,513.09,824.34z"/>
	<path class="st26" d="M555.67,813.12c-8.87-18.3-13.36-34.71-13.36-34.71l-6.2,26.75l-1.89,6.54c2.54,3.82,9.13,12.18,20.56,16.53
		c15.11,5.75,25.22,5.75,25.22,5.75C571.52,830.13,560.68,823.46,555.67,813.12z"/>
	<path class="st32" d="M547.83,768.21c-7.52-3.21-32.16-12.37-46.8-46.07c-2.66-6.13,0.04-13.64,6.03-19.29
		c-3.24,1.17-6.62,2.49-10.21,3.97c-10.71,5.36-16.78,16.07-13.21,24.28c14.65,33.69,39.28,42.85,46.8,46.07
		c6.07,2.59,12.48,4.74,22.56,0c3.59-1.69,8.5-3.96,13.84-7.52C558.75,772.42,553.15,770.48,547.83,768.21z"/>
	<path class="st4" d="M370.6,587.07l-56.45,56.45c-7.1,7.1-7.1,18.62,0,25.73h0c7.1,7.1,18.62,7.1,25.73,0l56.45-56.45
		c7.1-7.1,7.1-18.62,0-25.73h0C389.22,579.96,377.7,579.96,370.6,587.07z"/>
	<path class="st4" d="M396.24,587.07l56.45,56.45c7.1,7.1,7.1,18.62,0,25.73h0c-7.1,7.1-18.62,7.1-25.73,0l-56.45-56.45
		c-7.1-7.1-7.1-18.62,0-25.73h0C377.62,579.96,389.14,579.96,396.24,587.07z"/>
	<path class="st4" d="M682.94,587.65l-56.45,56.45c-7.1,7.1-7.1,18.62,0,25.73l0,0c7.1,7.1,18.62,7.1,25.73,0l56.45-56.45
		c7.1-7.1,7.1-18.62,0-25.73l0,0C701.56,580.55,690.05,580.55,682.94,587.65z"/>
	<path class="st4" d="M708.58,587.65l56.45,56.45c7.1,7.1,7.1,18.62,0,25.73v0c-7.1,7.1-18.62,7.1-25.73,0l-56.45-56.45
		c-7.1-7.1-7.1-18.62,0-25.73h0C689.96,580.55,701.48,580.55,708.58,587.65z"/>
</g>
</svg>
