<?xml version="1.0" encoding="utf-8"?>
<!-- Generator: Adobe Illustrator 26.0.3, SVG Export Plug-In . SVG Version: 6.00 Build 0)  -->
<svg version="1.1" id="Слой_1" xmlns="http://www.w3.org/2000/svg" xmlns:xlink="http://www.w3.org/1999/xlink" x="0px" y="0px"
	 viewBox="0 0 1080 1080" style="enable-background:new 0 0 1080 1080;" xml:space="preserve">
<style type="text/css">
	.st0{fill:url(#SVGID_1_);}
	.st1{fill:#B7004B;}
	.st2{fill:#E6007E;}
	.st3{fill:#99003B;}
	.st4{fill:#CC0062;}
	.st5{fill:#FF2CAF;}
	.st6{fill:#00E7FF;}
	.st7{fill:#00BDFF;}
	.st8{fill:#0096F2;}
	.st9{fill:#6CF8FF;}
	.st10{fill:none;}
	.st11{fill:url(#SVGID_00000075876020166811779930000006476627814008738962_);}
	.st12{fill:url(#SVGID_00000010994321706674430820000017287698139625875871_);}
	.st13{fill:url(#SVGID_00000104669032771046852890000010817037296491540619_);}
	.st14{fill:url(#SVGID_00000180365237069801709130000007854294752001168045_);}
	.st15{fill:url(#SVGID_00000158708248413471692130000001139883093600492468_);}
	.st16{fill:url(#SVGID_00000181798979491468689840000001324960879467864761_);}
	.st17{fill:url(#SVGID_00000091694476203772796870000004751996502519014063_);}
	.st18{fill:url(#SVGID_00000044871142724983270670000002375066530695300011_);}
	.st19{fill:url(#SVGID_00000023250167449093645360000012830209190603833515_);}
	.st20{fill:url(#SVGID_00000087375026207634380430000014190022530310093194_);}
	.st21{fill:url(#SVGID_00000028318887891852366280000005641866261190848386_);}
	.st22{fill:url(#SVGID_00000000907150241638682990000011027873743367526573_);}
</style>
<g>
	<path class="st10" d="M212.68,604.86c0-148.44,120.33-268.77,268.77-268.77h543.62V30.42H193.61v1009.71h19.07V604.86z"/>
	<linearGradient id="SVGID_1_" gradientUnits="userSpaceOnUse" x1="1033.0762" y1="2727.5242" x2="1013.688" y2="425.1837">
		<stop  offset="0" style="stop-color:#6DE5FF"/>
		<stop  offset="0.0213" style="stop-color:#73E6FF"/>
		<stop  offset="0.2427" style="stop-color:#B0EDFF"/>
		<stop  offset="0.4052" style="stop-color:#D6F2FF"/>
		<stop  offset="0.4904" style="stop-color:#E5F4FF"/>
		<stop  offset="0.5935" style="stop-color:#E8EAFA"/>
		<stop  offset="0.7712" style="stop-color:#F1CEEC"/>
		<stop  offset="1" style="stop-color:#FFA1D5"/>
	</linearGradient>
	<path class="st0" d="M1015.21,868.25c0.04-0.04,0.04-0.04,0.04-0.04l-5.5,19.95c0.53,0.01,1.06,0.02,1.59,0.03
		c4.59,0.09,9.18,0.22,13.74,0.37v-43.49c-0.67,1.36-1.35,2.71-1.98,4.08C1020.03,855.66,1017.44,862.03,1015.21,868.25z"/>
	
		<linearGradient id="SVGID_00000085950357593806998960000014461200680612589479_" gradientUnits="userSpaceOnUse" x1="636.074" y1="2730.8674" x2="616.6859" y2="428.5269">
		<stop  offset="0" style="stop-color:#6DE5FF"/>
		<stop  offset="0.0213" style="stop-color:#73E6FF"/>
		<stop  offset="0.2427" style="stop-color:#B0EDFF"/>
		<stop  offset="0.4052" style="stop-color:#D6F2FF"/>
		<stop  offset="0.4904" style="stop-color:#E5F4FF"/>
		<stop  offset="0.5935" style="stop-color:#E8EAFA"/>
		<stop  offset="0.7712" style="stop-color:#F1CEEC"/>
		<stop  offset="1" style="stop-color:#FFA1D5"/>
	</linearGradient>
	<path style="fill:url(#SVGID_00000085950357593806998960000014461200680612589479_);" d="M212.68,604.86v435.26h461.02
		c72.38-93.7,129.4-125.96,189.52-141.54c0.38-0.1,0.79-0.18,1.17-0.28c3.18-37.14,13.27-138.13,35.63-233.42
		c11.8-50.15,26.98-98.68,46.33-135.51c28.42-54.07,54.44-97.46,78.71-134.47v-58.82H481.45
		C333.01,336.09,212.68,456.42,212.68,604.86z"/>
	<path class="st2" d="M1009.49,889.1l-2.66,9.66c-9.64,50,3.49,84.68,3.49,84.68l-87.25-41.71c-15.09,11.18-29.81,23.57-42.01,36.63
		c-15.92,17.07-34.71,37.47-53.11,61.76h197.12V888.56c-4.56-0.15-9.14-0.27-13.74-0.37
		C1011.33,888.19,1010.66,888.51,1009.49,889.1z"/>
	<path class="st2" d="M900.02,664.89l0.07-0.07c0,0,6.3,102.78,14.28,129.97c7.99,27.2,17.63,60.76,44.75,73.42
		c26.55,12.38,54.9,0.5,56.08,0.04c2.23-6.22,4.82-12.59,7.88-19.1c0.64-1.37,1.32-2.72,1.98-4.08v-5.22
		c-3.4-3.32-6.46-6.96-8.92-10.96c-14.35-23.46-17.59-58.6,0-119.9c1.9-6.62,4.95-15.34,8.92-25.7V394.91
		c-24.27,37-50.29,80.4-78.71,134.47C927,566.21,911.82,614.74,900.02,664.89z"/>
	<path class="st2" d="M923.06,941.73l87.25,41.71c0,0-13.13-34.68-3.49-84.68l-20.62,2.66C969.16,910.9,945.7,924.95,923.06,941.73z
		"/>
	<path class="st1" d="M1011.33,888.19c-0.53-0.01-1.06-0.02-1.59-0.03l-0.26,0.93C1010.66,888.51,1011.33,888.19,1011.33,888.19z"/>
	<path class="st1" d="M923.06,941.73c22.64-16.77,46.1-30.83,63.14-40.31l-116.15,14.97l-6.84-3.27c0,0,0.36-5.32,1.17-14.8
		c-0.38,0.1-0.8,0.18-1.17,0.28c-60.13,15.58-117.14,47.84-189.52,141.54h154.25c18.41-24.29,37.19-44.7,53.11-61.76
		C893.25,965.29,907.97,952.91,923.06,941.73z"/>
	<path class="st5" d="M1016.14,828.89c2.46,4,5.53,7.64,8.92,10.96V683.29c-3.98,10.36-7.02,19.08-8.92,25.7
		C998.55,770.29,1001.79,805.44,1016.14,828.89z"/>
	<path class="st1" d="M870.05,916.38l116.15-14.97l20.62-2.66l2.66-9.66l0.26-0.93l5.5-19.95c0,0,0,0-0.04,0.04
		c-1.19,0.47-29.53,12.34-56.08-0.04c-27.12-12.66-36.77-46.23-44.75-73.42c-7.99-27.2-14.28-129.97-14.28-129.97l-0.07,0.07
		c-22.35,95.29-32.45,196.28-35.63,233.42c-0.81,9.48-1.17,14.8-1.17,14.8L870.05,916.38z"/>
</g>
</svg>
