<?xml version="1.0" encoding="utf-8"?>
<!-- Generator: Adobe Illustrator 26.0.3, SVG Export Plug-In . SVG Version: 6.00 Build 0)  -->
<svg version="1.1" id="Слой_1" xmlns="http://www.w3.org/2000/svg" xmlns:xlink="http://www.w3.org/1999/xlink" x="0px" y="0px"
	 viewBox="0 0 1080 1080" style="enable-background:new 0 0 1080 1080;" xml:space="preserve">
<style type="text/css">
	.st0{fill:url(#SVGID_1_);}
	.st1{fill:#B7004B;}
	.st2{fill:#E6007E;}
	.st3{fill:#99003B;}
	.st4{fill:#CC0062;}
	.st5{fill:#FF2CAF;}
	.st6{fill:#00E7FF;}
	.st7{fill:#00BDFF;}
	.st8{fill:#0096F2;}
	.st9{fill:#6CF8FF;}
	.st10{fill:none;}
	.st11{fill:url(#SVGID_00000094615395216238208500000018192978173086063548_);}
	.st12{fill:url(#SVGID_00000176758449117155159650000016737927987603740038_);}
	.st13{fill:url(#SVGID_00000131336217165866964630000000692104025759896721_);}
	.st14{fill:url(#SVGID_00000057855757103374573680000013174265759954092989_);}
	.st15{fill:url(#SVGID_00000166661588742642774750000001979312295599751076_);}
	.st16{fill:url(#SVGID_00000092446267341959707000000016911174009501474477_);}
	.st17{fill:url(#SVGID_00000044879342990069297450000005349209009156571580_);}
	.st18{fill:url(#SVGID_00000120538027025571794180000010166800317579163543_);}
	.st19{fill:url(#SVGID_00000172440136672504339420000013582433037021694855_);}
	.st20{fill:url(#SVGID_00000143592566043519633530000009797257372414230932_);}
	.st21{fill:url(#SVGID_00000000921056839345774580000001985663215357291704_);}
	.st22{fill:url(#SVGID_00000150073292065437157930000012173318011156836794_);}
</style>
<g>
	<path class="st10" d="M64.99,41.2v293.56h529.72c148.44,0,268.77,120.33,268.77,268.77V41.2H64.99z"/>
	<linearGradient id="SVGID_1_" gradientUnits="userSpaceOnUse" x1="481.5928" y1="2715.8147" x2="462.2047" y2="413.4742">
		<stop  offset="0" style="stop-color:#6DE5FF"/>
		<stop  offset="0.0213" style="stop-color:#73E6FF"/>
		<stop  offset="0.2427" style="stop-color:#B0EDFF"/>
		<stop  offset="0.4052" style="stop-color:#D6F2FF"/>
		<stop  offset="0.4904" style="stop-color:#E5F4FF"/>
		<stop  offset="0.5935" style="stop-color:#E8EAFA"/>
		<stop  offset="0.7712" style="stop-color:#F1CEEC"/>
		<stop  offset="1" style="stop-color:#FFA1D5"/>
	</linearGradient>
	<path class="st0" d="M594.71,334.76H64.99v372.21c37.87,13.49,65.91,29.25,83.16,40.74c60.34,40.18,147.47,126.97,185.2,205.32
		c12.12,25.19,23.61,54.73,32.76,85.77h497.36V603.54C863.48,455.1,743.15,334.76,594.71,334.76z"/>
	<path class="st2" d="M64.99,855.98v182.82h43.41c-1.87-16.11-3.78-30.94-5.93-43.41C97.25,965.14,83.55,908.57,64.99,855.98z"/>
	<path class="st5" d="M148.15,747.71c-17.25-11.49-45.29-27.25-83.16-40.74v149.01c18.56,52.59,32.26,109.16,37.48,139.41
		c2.15,12.47,4.06,27.3,5.93,43.41h257.72c-9.15-31.04-20.64-60.58-32.76-85.77C295.62,874.67,208.49,787.88,148.15,747.71z"/>
</g>
</svg>
